<?xml version="1.0" encoding="utf-8" standalone="no"?>
<!DOCTYPE svg PUBLIC "-//W3C//DTD SVG 1.1//EN"
  "http://www.w3.org/Graphics/SVG/1.1/DTD/svg11.dtd">
<svg xmlns:xlink="http://www.w3.org/1999/xlink" width="453.310937pt" height="297.718125pt" viewBox="0 0 453.310937 297.718125" xmlns="http://www.w3.org/2000/svg" version="1.1">
 <metadata>
  <rdf:RDF xmlns:dc="http://purl.org/dc/elements/1.1/" xmlns:cc="http://creativecommons.org/ns#" xmlns:rdf="http://www.w3.org/1999/02/22-rdf-syntax-ns#">
   <cc:Work>
    <dc:type rdf:resource="http://purl.org/dc/dcmitype/StillImage"/>
    <dc:date>2026-06-12T14:53:00+00:00</dc:date>
    <dc:format>image/svg+xml</dc:format>
    <dc:creator>
     <cc:Agent>
      <dc:title>Matplotlib v3.11.0, https://matplotlib.org/</dc:title>
     </cc:Agent>
    </dc:creator>
   </cc:Work>
  </rdf:RDF>
 </metadata>
 <defs>
  <style type="text/css">*{stroke-linejoin: round; stroke-linecap: butt}</style>
 </defs>
 <g id="figure_1">
  <g id="patch_1">
   <path d="M 0 297.718125 
L 453.310937 297.718125 
L 453.310937 0 
L 0 0 
z
" style="fill: #ffffff"/>
  </g>
  <g id="axes_1">
   <g id="patch_2">
    <path d="M 21.948438 273.518125 
L 398.748438 273.518125 
L 398.748438 22.318125 
L 21.948438 22.318125 
z
" style="fill: #ffffff"/>
   </g>
   <g id="patch_3">
    <path d="M 37.648438 52.148125 
C 41.395757 52.148125 44.990101 50.659299 47.639856 48.009544 
C 50.289612 45.359789 51.778437 41.765445 51.778437 38.018125 
C 51.778437 34.270805 50.289612 30.676461 47.639856 28.026706 
C 44.990101 25.376951 41.395757 23.888125 37.648438 23.888125 
C 33.901118 23.888125 30.306774 25.376951 27.657019 28.026706 
C 25.007263 30.676461 23.518438 34.270805 23.518438 38.018125 
C 23.518438 41.765445 25.007263 45.359789 27.657019 48.009544 
C 30.306774 50.659299 33.901118 52.148125 37.648438 52.148125 
z
" clip-path="url(#pc57a129c09)" style="fill: #440154; stroke: #000000; stroke-linejoin: miter"/>
   </g>
   <g id="patch_4">
    <path d="M 69.048438 52.148125 
C 72.795757 52.148125 76.390101 50.659299 79.039856 48.009544 
C 81.689612 45.359789 83.178438 41.765445 83.178438 38.018125 
C 83.178438 34.270805 81.689612 30.676461 79.039856 28.026706 
C 76.390101 25.376951 72.795757 23.888125 69.048438 23.888125 
C 65.301118 23.888125 61.706774 25.376951 59.057019 28.026706 
C 56.407263 30.676461 54.918438 34.270805 54.918438 38.018125 
C 54.918438 41.765445 56.407263 45.359789 59.057019 48.009544 
C 61.706774 50.659299 65.301118 52.148125 69.048438 52.148125 
z
" clip-path="url(#pc57a129c09)" style="fill: #440154; stroke: #000000; stroke-linejoin: miter"/>
   </g>
   <g id="patch_5">
    <path d="M 100.448437 52.148125 
C 104.195757 52.148125 107.790101 50.659299 110.439856 48.009544 
C 113.089612 45.359789 114.578437 41.765445 114.578437 38.018125 
C 114.578437 34.270805 113.089612 30.676461 110.439856 28.026706 
C 107.790101 25.376951 104.195757 23.888125 100.448437 23.888125 
C 96.701118 23.888125 93.106774 25.376951 90.457019 28.026706 
C 87.807263 30.676461 86.318438 34.270805 86.318438 38.018125 
C 86.318438 41.765445 87.807263 45.359789 90.457019 48.009544 
C 93.106774 50.659299 96.701118 52.148125 100.448437 52.148125 
z
" clip-path="url(#pc57a129c09)" style="fill: #440154; stroke: #000000; stroke-linejoin: miter"/>
   </g>
   <g id="patch_6">
    <path d="M 131.848437 52.148125 
C 135.595757 52.148125 139.190101 50.659299 141.839856 48.009544 
C 144.489612 45.359789 145.978437 41.765445 145.978437 38.018125 
C 145.978437 34.270805 144.489612 30.676461 141.839856 28.026706 
C 139.190101 25.376951 135.595757 23.888125 131.848437 23.888125 
C 128.101118 23.888125 124.506774 25.376951 121.857019 28.026706 
C 119.207263 30.676461 117.718437 34.270805 117.718437 38.018125 
C 117.718437 41.765445 119.207263 45.359789 121.857019 48.009544 
C 124.506774 50.659299 128.101118 52.148125 131.848437 52.148125 
z
" clip-path="url(#pc57a129c09)" style="fill: #440154; stroke: #000000; stroke-linejoin: miter"/>
   </g>
   <g id="patch_7">
    <path d="M 163.248437 52.148125 
C 166.995757 52.148125 170.590101 50.659299 173.239856 48.009544 
C 175.889612 45.359789 177.378437 41.765445 177.378437 38.018125 
C 177.378437 34.270805 175.889612 30.676461 173.239856 28.026706 
C 170.590101 25.376951 166.995757 23.888125 163.248437 23.888125 
C 159.501118 23.888125 155.906774 25.376951 153.257019 28.026706 
C 150.607263 30.676461 149.118437 34.270805 149.118437 38.018125 
C 149.118437 41.765445 150.607263 45.359789 153.257019 48.009544 
C 155.906774 50.659299 159.501118 52.148125 163.248437 52.148125 
z
" clip-path="url(#pc57a129c09)" style="fill: #440154; stroke: #000000; stroke-linejoin: miter"/>
   </g>
   <g id="patch_8">
    <path d="M 194.648438 52.148125 
C 198.395757 52.148125 201.990101 50.659299 204.639856 48.009544 
C 207.289612 45.359789 208.778437 41.765445 208.778437 38.018125 
C 208.778437 34.270805 207.289612 30.676461 204.639856 28.026706 
C 201.990101 25.376951 198.395757 23.888125 194.648438 23.888125 
C 190.901118 23.888125 187.306774 25.376951 184.657019 28.026706 
C 182.007263 30.676461 180.518438 34.270805 180.518438 38.018125 
C 180.518438 41.765445 182.007263 45.359789 184.657019 48.009544 
C 187.306774 50.659299 190.901118 52.148125 194.648438 52.148125 
z
" clip-path="url(#pc57a129c09)" style="fill: #440154; stroke: #000000; stroke-linejoin: miter"/>
   </g>
   <g id="patch_9">
    <path d="M 226.048437 52.148125 
C 229.795757 52.148125 233.390101 50.659299 236.039856 48.009544 
C 238.689612 45.359789 240.178437 41.765445 240.178437 38.018125 
C 240.178437 34.270805 238.689612 30.676461 236.039856 28.026706 
C 233.390101 25.376951 229.795757 23.888125 226.048437 23.888125 
C 222.301118 23.888125 218.706774 25.376951 216.057019 28.026706 
C 213.407263 30.676461 211.918437 34.270805 211.918437 38.018125 
C 211.918437 41.765445 213.407263 45.359789 216.057019 48.009544 
C 218.706774 50.659299 222.301118 52.148125 226.048437 52.148125 
z
" clip-path="url(#pc57a129c09)" style="fill: #440154; stroke: #000000; stroke-linejoin: miter"/>
   </g>
   <g id="patch_10">
    <path d="M 257.448437 52.148125 
C 261.195757 52.148125 264.790101 50.659299 267.439856 48.009544 
C 270.089612 45.359789 271.578437 41.765445 271.578437 38.018125 
C 271.578437 34.270805 270.089612 30.676461 267.439856 28.026706 
C 264.790101 25.376951 261.195757 23.888125 257.448437 23.888125 
C 253.701118 23.888125 250.106774 25.376951 247.457019 28.026706 
C 244.807263 30.676461 243.318437 34.270805 243.318437 38.018125 
C 243.318437 41.765445 244.807263 45.359789 247.457019 48.009544 
C 250.106774 50.659299 253.701118 52.148125 257.448437 52.148125 
z
" clip-path="url(#pc57a129c09)" style="fill: #440154; stroke: #000000; stroke-linejoin: miter"/>
   </g>
   <g id="patch_11">
    <path d="M 288.848437 52.148125 
C 292.595757 52.148125 296.190101 50.659299 298.839856 48.009544 
C 301.489612 45.359789 302.978437 41.765445 302.978437 38.018125 
C 302.978437 34.270805 301.489612 30.676461 298.839856 28.026706 
C 296.190101 25.376951 292.595757 23.888125 288.848437 23.888125 
C 285.101118 23.888125 281.506774 25.376951 278.857019 28.026706 
C 276.207263 30.676461 274.718437 34.270805 274.718437 38.018125 
C 274.718437 41.765445 276.207263 45.359789 278.857019 48.009544 
C 281.506774 50.659299 285.101118 52.148125 288.848437 52.148125 
z
" clip-path="url(#pc57a129c09)" style="fill: #440154; stroke: #000000; stroke-linejoin: miter"/>
   </g>
   <g id="patch_12">
    <path d="M 320.248437 52.148125 
C 323.995757 52.148125 327.590101 50.659299 330.239856 48.009544 
C 332.889612 45.359789 334.378437 41.765445 334.378437 38.018125 
C 334.378437 34.270805 332.889612 30.676461 330.239856 28.026706 
C 327.590101 25.376951 323.995757 23.888125 320.248437 23.888125 
C 316.501118 23.888125 312.906774 25.376951 310.257019 28.026706 
C 307.607263 30.676461 306.118437 34.270805 306.118437 38.018125 
C 306.118437 41.765445 307.607263 45.359789 310.257019 48.009544 
C 312.906774 50.659299 316.501118 52.148125 320.248437 52.148125 
z
" clip-path="url(#pc57a129c09)" style="fill: #9bd93c; stroke: #000000; stroke-linejoin: miter"/>
   </g>
   <g id="patch_13">
    <path d="M 351.648438 52.148125 
C 355.395757 52.148125 358.990101 50.659299 361.639856 48.009544 
C 364.289612 45.359789 365.778437 41.765445 365.778437 38.018125 
C 365.778437 34.270805 364.289612 30.676461 361.639856 28.026706 
C 358.990101 25.376951 355.395757 23.888125 351.648438 23.888125 
C 347.901118 23.888125 344.306774 25.376951 341.657019 28.026706 
C 339.007263 30.676461 337.518438 34.270805 337.518438 38.018125 
C 337.518438 41.765445 339.007263 45.359789 341.657019 48.009544 
C 344.306774 50.659299 347.901118 52.148125 351.648438 52.148125 
z
" clip-path="url(#pc57a129c09)" style="fill: #9bd93c; stroke: #000000; stroke-linejoin: miter"/>
   </g>
   <g id="patch_14">
    <path d="M 383.048437 52.148125 
C 386.795757 52.148125 390.390101 50.659299 393.039856 48.009544 
C 395.689612 45.359789 397.178437 41.765445 397.178437 38.018125 
C 397.178437 34.270805 395.689612 30.676461 393.039856 28.026706 
C 390.390101 25.376951 386.795757 23.888125 383.048437 23.888125 
C 379.301118 23.888125 375.706774 25.376951 373.057019 28.026706 
C 370.407263 30.676461 368.918437 34.270805 368.918437 38.018125 
C 368.918437 41.765445 370.407263 45.359789 373.057019 48.009544 
C 375.706774 50.659299 379.301118 52.148125 383.048437 52.148125 
z
" clip-path="url(#pc57a129c09)" style="fill: #9bd93c; stroke: #000000; stroke-linejoin: miter"/>
   </g>
   <g id="patch_15">
    <path d="M 37.648438 83.548125 
C 41.395757 83.548125 44.990101 82.059299 47.639856 79.409544 
C 50.289612 76.759789 51.778437 73.165445 51.778437 69.418125 
C 51.778437 65.670805 50.289612 62.076461 47.639856 59.426706 
C 44.990101 56.776951 41.395757 55.288125 37.648438 55.288125 
C 33.901118 55.288125 30.306774 56.776951 27.657019 59.426706 
C 25.007263 62.076461 23.518438 65.670805 23.518438 69.418125 
C 23.518438 73.165445 25.007263 76.759789 27.657019 79.409544 
C 30.306774 82.059299 33.901118 83.548125 37.648438 83.548125 
z
" clip-path="url(#pc57a129c09)" style="fill: #440154; stroke: #000000; stroke-linejoin: miter"/>
   </g>
   <g id="patch_16">
    <path d="M 69.048438 83.548125 
C 72.795757 83.548125 76.390101 82.059299 79.039856 79.409544 
C 81.689612 76.759789 83.178438 73.165445 83.178438 69.418125 
C 83.178438 65.670805 81.689612 62.076461 79.039856 59.426706 
C 76.390101 56.776951 72.795757 55.288125 69.048438 55.288125 
C 65.301118 55.288125 61.706774 56.776951 59.057019 59.426706 
C 56.407263 62.076461 54.918438 65.670805 54.918438 69.418125 
C 54.918438 73.165445 56.407263 76.759789 59.057019 79.409544 
C 61.706774 82.059299 65.301118 83.548125 69.048438 83.548125 
z
" clip-path="url(#pc57a129c09)" style="fill: #440154; stroke: #000000; stroke-linejoin: miter"/>
   </g>
   <g id="patch_17">
    <path d="M 100.448437 83.548125 
C 104.195757 83.548125 107.790101 82.059299 110.439856 79.409544 
C 113.089612 76.759789 114.578437 73.165445 114.578437 69.418125 
C 114.578437 65.670805 113.089612 62.076461 110.439856 59.426706 
C 107.790101 56.776951 104.195757 55.288125 100.448437 55.288125 
C 96.701118 55.288125 93.106774 56.776951 90.457019 59.426706 
C 87.807263 62.076461 86.318438 65.670805 86.318438 69.418125 
C 86.318438 73.165445 87.807263 76.759789 90.457019 79.409544 
C 93.106774 82.059299 96.701118 83.548125 100.448437 83.548125 
z
" clip-path="url(#pc57a129c09)" style="fill: #440154; stroke: #000000; stroke-linejoin: miter"/>
   </g>
   <g id="patch_18">
    <path d="M 131.848437 83.548125 
C 135.595757 83.548125 139.190101 82.059299 141.839856 79.409544 
C 144.489612 76.759789 145.978437 73.165445 145.978437 69.418125 
C 145.978437 65.670805 144.489612 62.076461 141.839856 59.426706 
C 139.190101 56.776951 135.595757 55.288125 131.848437 55.288125 
C 128.101118 55.288125 124.506774 56.776951 121.857019 59.426706 
C 119.207263 62.076461 117.718437 65.670805 117.718437 69.418125 
C 117.718437 73.165445 119.207263 76.759789 121.857019 79.409544 
C 124.506774 82.059299 128.101118 83.548125 131.848437 83.548125 
z
" clip-path="url(#pc57a129c09)" style="fill: #440154; stroke: #000000; stroke-linejoin: miter"/>
   </g>
   <g id="patch_19">
    <path d="M 163.248437 83.548125 
C 166.995757 83.548125 170.590101 82.059299 173.239856 79.409544 
C 175.889612 76.759789 177.378437 73.165445 177.378437 69.418125 
C 177.378437 65.670805 175.889612 62.076461 173.239856 59.426706 
C 170.590101 56.776951 166.995757 55.288125 163.248437 55.288125 
C 159.501118 55.288125 155.906774 56.776951 153.257019 59.426706 
C 150.607263 62.076461 149.118437 65.670805 149.118437 69.418125 
C 149.118437 73.165445 150.607263 76.759789 153.257019 79.409544 
C 155.906774 82.059299 159.501118 83.548125 163.248437 83.548125 
z
" clip-path="url(#pc57a129c09)" style="fill: #440154; stroke: #000000; stroke-linejoin: miter"/>
   </g>
   <g id="patch_20">
    <path d="M 194.648438 83.548125 
C 198.395757 83.548125 201.990101 82.059299 204.639856 79.409544 
C 207.289612 76.759789 208.778437 73.165445 208.778437 69.418125 
C 208.778437 65.670805 207.289612 62.076461 204.639856 59.426706 
C 201.990101 56.776951 198.395757 55.288125 194.648438 55.288125 
C 190.901118 55.288125 187.306774 56.776951 184.657019 59.426706 
C 182.007263 62.076461 180.518438 65.670805 180.518438 69.418125 
C 180.518438 73.165445 182.007263 76.759789 184.657019 79.409544 
C 187.306774 82.059299 190.901118 83.548125 194.648438 83.548125 
z
" clip-path="url(#pc57a129c09)" style="fill: #440154; stroke: #000000; stroke-linejoin: miter"/>
   </g>
   <g id="patch_21">
    <path d="M 226.048437 83.548125 
C 229.795757 83.548125 233.390101 82.059299 236.039856 79.409544 
C 238.689612 76.759789 240.178437 73.165445 240.178437 69.418125 
C 240.178437 65.670805 238.689612 62.076461 236.039856 59.426706 
C 233.390101 56.776951 229.795757 55.288125 226.048437 55.288125 
C 222.301118 55.288125 218.706774 56.776951 216.057019 59.426706 
C 213.407263 62.076461 211.918437 65.670805 211.918437 69.418125 
C 211.918437 73.165445 213.407263 76.759789 216.057019 79.409544 
C 218.706774 82.059299 222.301118 83.548125 226.048437 83.548125 
z
" clip-path="url(#pc57a129c09)" style="fill: #440154; stroke: #000000; stroke-linejoin: miter"/>
   </g>
   <g id="patch_22">
    <path d="M 257.448437 83.548125 
C 261.195757 83.548125 264.790101 82.059299 267.439856 79.409544 
C 270.089612 76.759789 271.578437 73.165445 271.578437 69.418125 
C 271.578437 65.670805 270.089612 62.076461 267.439856 59.426706 
C 264.790101 56.776951 261.195757 55.288125 257.448437 55.288125 
C 253.701118 55.288125 250.106774 56.776951 247.457019 59.426706 
C 244.807263 62.076461 243.318437 65.670805 243.318437 69.418125 
C 243.318437 73.165445 244.807263 76.759789 247.457019 79.409544 
C 250.106774 82.059299 253.701118 83.548125 257.448437 83.548125 
z
" clip-path="url(#pc57a129c09)" style="fill: #440154; stroke: #000000; stroke-linejoin: miter"/>
   </g>
   <g id="patch_23">
    <path d="M 288.848437 83.548125 
C 292.595757 83.548125 296.190101 82.059299 298.839856 79.409544 
C 301.489612 76.759789 302.978437 73.165445 302.978437 69.418125 
C 302.978437 65.670805 301.489612 62.076461 298.839856 59.426706 
C 296.190101 56.776951 292.595757 55.288125 288.848437 55.288125 
C 285.101118 55.288125 281.506774 56.776951 278.857019 59.426706 
C 276.207263 62.076461 274.718437 65.670805 274.718437 69.418125 
C 274.718437 73.165445 276.207263 76.759789 278.857019 79.409544 
C 281.506774 82.059299 285.101118 83.548125 288.848437 83.548125 
z
" clip-path="url(#pc57a129c09)" style="fill: #440154; stroke: #000000; stroke-linejoin: miter"/>
   </g>
   <g id="patch_24">
    <path d="M 320.248437 83.548125 
C 323.995757 83.548125 327.590101 82.059299 330.239856 79.409544 
C 332.889612 76.759789 334.378437 73.165445 334.378437 69.418125 
C 334.378437 65.670805 332.889612 62.076461 330.239856 59.426706 
C 327.590101 56.776951 323.995757 55.288125 320.248437 55.288125 
C 316.501118 55.288125 312.906774 56.776951 310.257019 59.426706 
C 307.607263 62.076461 306.118437 65.670805 306.118437 69.418125 
C 306.118437 73.165445 307.607263 76.759789 310.257019 79.409544 
C 312.906774 82.059299 316.501118 83.548125 320.248437 83.548125 
z
" clip-path="url(#pc57a129c09)" style="fill: #9bd93c; stroke: #000000; stroke-linejoin: miter"/>
   </g>
   <g id="patch_25">
    <path d="M 351.648438 83.548125 
C 355.395757 83.548125 358.990101 82.059299 361.639856 79.409544 
C 364.289612 76.759789 365.778437 73.165445 365.778437 69.418125 
C 365.778437 65.670805 364.289612 62.076461 361.639856 59.426706 
C 358.990101 56.776951 355.395757 55.288125 351.648438 55.288125 
C 347.901118 55.288125 344.306774 56.776951 341.657019 59.426706 
C 339.007263 62.076461 337.518438 65.670805 337.518438 69.418125 
C 337.518438 73.165445 339.007263 76.759789 341.657019 79.409544 
C 344.306774 82.059299 347.901118 83.548125 351.648438 83.548125 
z
" clip-path="url(#pc57a129c09)" style="fill: #9bd93c; stroke: #000000; stroke-linejoin: miter"/>
   </g>
   <g id="patch_26">
    <path d="M 383.048437 83.548125 
C 386.795757 83.548125 390.390101 82.059299 393.039856 79.409544 
C 395.689612 76.759789 397.178437 73.165445 397.178437 69.418125 
C 397.178437 65.670805 395.689612 62.076461 393.039856 59.426706 
C 390.390101 56.776951 386.795757 55.288125 383.048437 55.288125 
C 379.301118 55.288125 375.706774 56.776951 373.057019 59.426706 
C 370.407263 62.076461 368.918437 65.670805 368.918437 69.418125 
C 368.918437 73.165445 370.407263 76.759789 373.057019 79.409544 
C 375.706774 82.059299 379.301118 83.548125 383.048437 83.548125 
z
" clip-path="url(#pc57a129c09)" style="fill: #9bd93c; stroke: #000000; stroke-linejoin: miter"/>
   </g>
   <g id="patch_27">
    <path d="M 37.648438 114.948125 
C 41.395757 114.948125 44.990101 113.459299 47.639856 110.809544 
C 50.289612 108.159789 51.778437 104.565445 51.778437 100.818125 
C 51.778437 97.070805 50.289612 93.476461 47.639856 90.826706 
C 44.990101 88.176951 41.395757 86.688125 37.648438 86.688125 
C 33.901118 86.688125 30.306774 88.176951 27.657019 90.826706 
C 25.007263 93.476461 23.518438 97.070805 23.518438 100.818125 
C 23.518438 104.565445 25.007263 108.159789 27.657019 110.809544 
C 30.306774 113.459299 33.901118 114.948125 37.648438 114.948125 
z
" clip-path="url(#pc57a129c09)" style="fill: #440154; stroke: #000000; stroke-linejoin: miter"/>
   </g>
   <g id="patch_28">
    <path d="M 69.048438 114.948125 
C 72.795757 114.948125 76.390101 113.459299 79.039856 110.809544 
C 81.689612 108.159789 83.178438 104.565445 83.178438 100.818125 
C 83.178438 97.070805 81.689612 93.476461 79.039856 90.826706 
C 76.390101 88.176951 72.795757 86.688125 69.048438 86.688125 
C 65.301118 86.688125 61.706774 88.176951 59.057019 90.826706 
C 56.407263 93.476461 54.918438 97.070805 54.918438 100.818125 
C 54.918438 104.565445 56.407263 108.159789 59.057019 110.809544 
C 61.706774 113.459299 65.301118 114.948125 69.048438 114.948125 
z
" clip-path="url(#pc57a129c09)" style="fill: #440154; stroke: #000000; stroke-linejoin: miter"/>
   </g>
   <g id="patch_29">
    <path d="M 100.448437 114.948125 
C 104.195757 114.948125 107.790101 113.459299 110.439856 110.809544 
C 113.089612 108.159789 114.578437 104.565445 114.578437 100.818125 
C 114.578437 97.070805 113.089612 93.476461 110.439856 90.826706 
C 107.790101 88.176951 104.195757 86.688125 100.448437 86.688125 
C 96.701118 86.688125 93.106774 88.176951 90.457019 90.826706 
C 87.807263 93.476461 86.318438 97.070805 86.318438 100.818125 
C 86.318438 104.565445 87.807263 108.159789 90.457019 110.809544 
C 93.106774 113.459299 96.701118 114.948125 100.448437 114.948125 
z
" clip-path="url(#pc57a129c09)" style="fill: #440154; stroke: #000000; stroke-linejoin: miter"/>
   </g>
   <g id="patch_30">
    <path d="M 131.848437 114.948125 
C 135.595757 114.948125 139.190101 113.459299 141.839856 110.809544 
C 144.489612 108.159789 145.978437 104.565445 145.978437 100.818125 
C 145.978437 97.070805 144.489612 93.476461 141.839856 90.826706 
C 139.190101 88.176951 135.595757 86.688125 131.848437 86.688125 
C 128.101118 86.688125 124.506774 88.176951 121.857019 90.826706 
C 119.207263 93.476461 117.718437 97.070805 117.718437 100.818125 
C 117.718437 104.565445 119.207263 108.159789 121.857019 110.809544 
C 124.506774 113.459299 128.101118 114.948125 131.848437 114.948125 
z
" clip-path="url(#pc57a129c09)" style="fill: #440154; stroke: #000000; stroke-linejoin: miter"/>
   </g>
   <g id="patch_31">
    <path d="M 163.248437 114.948125 
C 166.995757 114.948125 170.590101 113.459299 173.239856 110.809544 
C 175.889612 108.159789 177.378437 104.565445 177.378437 100.818125 
C 177.378437 97.070805 175.889612 93.476461 173.239856 90.826706 
C 170.590101 88.176951 166.995757 86.688125 163.248437 86.688125 
C 159.501118 86.688125 155.906774 88.176951 153.257019 90.826706 
C 150.607263 93.476461 149.118437 97.070805 149.118437 100.818125 
C 149.118437 104.565445 150.607263 108.159789 153.257019 110.809544 
C 155.906774 113.459299 159.501118 114.948125 163.248437 114.948125 
z
" clip-path="url(#pc57a129c09)" style="fill: #440154; stroke: #000000; stroke-linejoin: miter"/>
   </g>
   <g id="patch_32">
    <path d="M 194.648438 114.948125 
C 198.395757 114.948125 201.990101 113.459299 204.639856 110.809544 
C 207.289612 108.159789 208.778437 104.565445 208.778437 100.818125 
C 208.778437 97.070805 207.289612 93.476461 204.639856 90.826706 
C 201.990101 88.176951 198.395757 86.688125 194.648438 86.688125 
C 190.901118 86.688125 187.306774 88.176951 184.657019 90.826706 
C 182.007263 93.476461 180.518438 97.070805 180.518438 100.818125 
C 180.518438 104.565445 182.007263 108.159789 184.657019 110.809544 
C 187.306774 113.459299 190.901118 114.948125 194.648438 114.948125 
z
" clip-path="url(#pc57a129c09)" style="fill: #440154; stroke: #000000; stroke-linejoin: miter"/>
   </g>
   <g id="patch_33">
    <path d="M 226.048437 114.948125 
C 229.795757 114.948125 233.390101 113.459299 236.039856 110.809544 
C 238.689612 108.159789 240.178437 104.565445 240.178437 100.818125 
C 240.178437 97.070805 238.689612 93.476461 236.039856 90.826706 
C 233.390101 88.176951 229.795757 86.688125 226.048437 86.688125 
C 222.301118 86.688125 218.706774 88.176951 216.057019 90.826706 
C 213.407263 93.476461 211.918437 97.070805 211.918437 100.818125 
C 211.918437 104.565445 213.407263 108.159789 216.057019 110.809544 
C 218.706774 113.459299 222.301118 114.948125 226.048437 114.948125 
z
" clip-path="url(#pc57a129c09)" style="fill: #440154; stroke: #000000; stroke-linejoin: miter"/>
   </g>
   <g id="patch_34">
    <path d="M 257.448437 114.948125 
C 261.195757 114.948125 264.790101 113.459299 267.439856 110.809544 
C 270.089612 108.159789 271.578437 104.565445 271.578437 100.818125 
C 271.578437 97.070805 270.089612 93.476461 267.439856 90.826706 
C 264.790101 88.176951 261.195757 86.688125 257.448437 86.688125 
C 253.701118 86.688125 250.106774 88.176951 247.457019 90.826706 
C 244.807263 93.476461 243.318437 97.070805 243.318437 100.818125 
C 243.318437 104.565445 244.807263 108.159789 247.457019 110.809544 
C 250.106774 113.459299 253.701118 114.948125 257.448437 114.948125 
z
" clip-path="url(#pc57a129c09)" style="fill: #440154; stroke: #000000; stroke-linejoin: miter"/>
   </g>
   <g id="patch_35">
    <path d="M 288.848437 114.948125 
C 292.595757 114.948125 296.190101 113.459299 298.839856 110.809544 
C 301.489612 108.159789 302.978437 104.565445 302.978437 100.818125 
C 302.978437 97.070805 301.489612 93.476461 298.839856 90.826706 
C 296.190101 88.176951 292.595757 86.688125 288.848437 86.688125 
C 285.101118 86.688125 281.506774 88.176951 278.857019 90.826706 
C 276.207263 93.476461 274.718437 97.070805 274.718437 100.818125 
C 274.718437 104.565445 276.207263 108.159789 278.857019 110.809544 
C 281.506774 113.459299 285.101118 114.948125 288.848437 114.948125 
z
" clip-path="url(#pc57a129c09)" style="fill: #440154; stroke: #000000; stroke-linejoin: miter"/>
   </g>
   <g id="patch_36">
    <path d="M 320.248437 114.948125 
C 323.995757 114.948125 327.590101 113.459299 330.239856 110.809544 
C 332.889612 108.159789 334.378437 104.565445 334.378437 100.818125 
C 334.378437 97.070805 332.889612 93.476461 330.239856 90.826706 
C 327.590101 88.176951 323.995757 86.688125 320.248437 86.688125 
C 316.501118 86.688125 312.906774 88.176951 310.257019 90.826706 
C 307.607263 93.476461 306.118437 97.070805 306.118437 100.818125 
C 306.118437 104.565445 307.607263 108.159789 310.257019 110.809544 
C 312.906774 113.459299 316.501118 114.948125 320.248437 114.948125 
z
" clip-path="url(#pc57a129c09)" style="fill: #9bd93c; stroke: #000000; stroke-linejoin: miter"/>
   </g>
   <g id="patch_37">
    <path d="M 351.648438 114.948125 
C 355.395757 114.948125 358.990101 113.459299 361.639856 110.809544 
C 364.289612 108.159789 365.778437 104.565445 365.778437 100.818125 
C 365.778437 97.070805 364.289612 93.476461 361.639856 90.826706 
C 358.990101 88.176951 355.395757 86.688125 351.648438 86.688125 
C 347.901118 86.688125 344.306774 88.176951 341.657019 90.826706 
C 339.007263 93.476461 337.518438 97.070805 337.518438 100.818125 
C 337.518438 104.565445 339.007263 108.159789 341.657019 110.809544 
C 344.306774 113.459299 347.901118 114.948125 351.648438 114.948125 
z
" clip-path="url(#pc57a129c09)" style="fill: #9bd93c; stroke: #000000; stroke-linejoin: miter"/>
   </g>
   <g id="patch_38">
    <path d="M 383.048437 114.948125 
C 386.795757 114.948125 390.390101 113.459299 393.039856 110.809544 
C 395.689612 108.159789 397.178437 104.565445 397.178437 100.818125 
C 397.178437 97.070805 395.689612 93.476461 393.039856 90.826706 
C 390.390101 88.176951 386.795757 86.688125 383.048437 86.688125 
C 379.301118 86.688125 375.706774 88.176951 373.057019 90.826706 
C 370.407263 93.476461 368.918437 97.070805 368.918437 100.818125 
C 368.918437 104.565445 370.407263 108.159789 373.057019 110.809544 
C 375.706774 113.459299 379.301118 114.948125 383.048437 114.948125 
z
" clip-path="url(#pc57a129c09)" style="fill: #9bd93c; stroke: #000000; stroke-linejoin: miter"/>
   </g>
   <g id="patch_39">
    <path d="M 37.648438 146.348125 
C 41.395757 146.348125 44.990101 144.859299 47.639856 142.209544 
C 50.289612 139.559789 51.778437 135.965445 51.778437 132.218125 
C 51.778437 128.470805 50.289612 124.876461 47.639856 122.226706 
C 44.990101 119.576951 41.395757 118.088125 37.648438 118.088125 
C 33.901118 118.088125 30.306774 119.576951 27.657019 122.226706 
C 25.007263 124.876461 23.518438 128.470805 23.518438 132.218125 
C 23.518438 135.965445 25.007263 139.559789 27.657019 142.209544 
C 30.306774 144.859299 33.901118 146.348125 37.648438 146.348125 
z
" clip-path="url(#pc57a129c09)" style="fill: #440154; stroke: #000000; stroke-linejoin: miter"/>
   </g>
   <g id="patch_40">
    <path d="M 69.048438 146.348125 
C 72.795757 146.348125 76.390101 144.859299 79.039856 142.209544 
C 81.689612 139.559789 83.178438 135.965445 83.178438 132.218125 
C 83.178438 128.470805 81.689612 124.876461 79.039856 122.226706 
C 76.390101 119.576951 72.795757 118.088125 69.048438 118.088125 
C 65.301118 118.088125 61.706774 119.576951 59.057019 122.226706 
C 56.407263 124.876461 54.918438 128.470805 54.918438 132.218125 
C 54.918438 135.965445 56.407263 139.559789 59.057019 142.209544 
C 61.706774 144.859299 65.301118 146.348125 69.048438 146.348125 
z
" clip-path="url(#pc57a129c09)" style="fill: #440154; stroke: #000000; stroke-linejoin: miter"/>
   </g>
   <g id="patch_41">
    <path d="M 100.448437 146.348125 
C 104.195757 146.348125 107.790101 144.859299 110.439856 142.209544 
C 113.089612 139.559789 114.578437 135.965445 114.578437 132.218125 
C 114.578437 128.470805 113.089612 124.876461 110.439856 122.226706 
C 107.790101 119.576951 104.195757 118.088125 100.448437 118.088125 
C 96.701118 118.088125 93.106774 119.576951 90.457019 122.226706 
C 87.807263 124.876461 86.318438 128.470805 86.318438 132.218125 
C 86.318438 135.965445 87.807263 139.559789 90.457019 142.209544 
C 93.106774 144.859299 96.701118 146.348125 100.448437 146.348125 
z
" clip-path="url(#pc57a129c09)" style="fill: #440154; stroke: #000000; stroke-linejoin: miter"/>
   </g>
   <g id="patch_42">
    <path d="M 131.848437 146.348125 
C 135.595757 146.348125 139.190101 144.859299 141.839856 142.209544 
C 144.489612 139.559789 145.978437 135.965445 145.978437 132.218125 
C 145.978437 128.470805 144.489612 124.876461 141.839856 122.226706 
C 139.190101 119.576951 135.595757 118.088125 131.848437 118.088125 
C 128.101118 118.088125 124.506774 119.576951 121.857019 122.226706 
C 119.207263 124.876461 117.718437 128.470805 117.718437 132.218125 
C 117.718437 135.965445 119.207263 139.559789 121.857019 142.209544 
C 124.506774 144.859299 128.101118 146.348125 131.848437 146.348125 
z
" clip-path="url(#pc57a129c09)" style="fill: #440154; stroke: #000000; stroke-linejoin: miter"/>
   </g>
   <g id="patch_43">
    <path d="M 163.248437 146.348125 
C 166.995757 146.348125 170.590101 144.859299 173.239856 142.209544 
C 175.889612 139.559789 177.378437 135.965445 177.378437 132.218125 
C 177.378437 128.470805 175.889612 124.876461 173.239856 122.226706 
C 170.590101 119.576951 166.995757 118.088125 163.248437 118.088125 
C 159.501118 118.088125 155.906774 119.576951 153.257019 122.226706 
C 150.607263 124.876461 149.118437 128.470805 149.118437 132.218125 
C 149.118437 135.965445 150.607263 139.559789 153.257019 142.209544 
C 155.906774 144.859299 159.501118 146.348125 163.248437 146.348125 
z
" clip-path="url(#pc57a129c09)" style="fill: #440154; stroke: #000000; stroke-linejoin: miter"/>
   </g>
   <g id="patch_44">
    <path d="M 194.648438 146.348125 
C 198.395757 146.348125 201.990101 144.859299 204.639856 142.209544 
C 207.289612 139.559789 208.778437 135.965445 208.778437 132.218125 
C 208.778437 128.470805 207.289612 124.876461 204.639856 122.226706 
C 201.990101 119.576951 198.395757 118.088125 194.648438 118.088125 
C 190.901118 118.088125 187.306774 119.576951 184.657019 122.226706 
C 182.007263 124.876461 180.518438 128.470805 180.518438 132.218125 
C 180.518438 135.965445 182.007263 139.559789 184.657019 142.209544 
C 187.306774 144.859299 190.901118 146.348125 194.648438 146.348125 
z
" clip-path="url(#pc57a129c09)" style="fill: #440154; stroke: #000000; stroke-linejoin: miter"/>
   </g>
   <g id="patch_45">
    <path d="M 226.048437 146.348125 
C 229.795757 146.348125 233.390101 144.859299 236.039856 142.209544 
C 238.689612 139.559789 240.178437 135.965445 240.178437 132.218125 
C 240.178437 128.470805 238.689612 124.876461 236.039856 122.226706 
C 233.390101 119.576951 229.795757 118.088125 226.048437 118.088125 
C 222.301118 118.088125 218.706774 119.576951 216.057019 122.226706 
C 213.407263 124.876461 211.918437 128.470805 211.918437 132.218125 
C 211.918437 135.965445 213.407263 139.559789 216.057019 142.209544 
C 218.706774 144.859299 222.301118 146.348125 226.048437 146.348125 
z
" clip-path="url(#pc57a129c09)" style="fill: #440154; stroke: #000000; stroke-linejoin: miter"/>
   </g>
   <g id="patch_46">
    <path d="M 257.448437 146.348125 
C 261.195757 146.348125 264.790101 144.859299 267.439856 142.209544 
C 270.089612 139.559789 271.578437 135.965445 271.578437 132.218125 
C 271.578437 128.470805 270.089612 124.876461 267.439856 122.226706 
C 264.790101 119.576951 261.195757 118.088125 257.448437 118.088125 
C 253.701118 118.088125 250.106774 119.576951 247.457019 122.226706 
C 244.807263 124.876461 243.318437 128.470805 243.318437 132.218125 
C 243.318437 135.965445 244.807263 139.559789 247.457019 142.209544 
C 250.106774 144.859299 253.701118 146.348125 257.448437 146.348125 
z
" clip-path="url(#pc57a129c09)" style="fill: #440154; stroke: #000000; stroke-linejoin: miter"/>
   </g>
   <g id="patch_47">
    <path d="M 288.848437 146.348125 
C 292.595757 146.348125 296.190101 144.859299 298.839856 142.209544 
C 301.489612 139.559789 302.978437 135.965445 302.978437 132.218125 
C 302.978437 128.470805 301.489612 124.876461 298.839856 122.226706 
C 296.190101 119.576951 292.595757 118.088125 288.848437 118.088125 
C 285.101118 118.088125 281.506774 119.576951 278.857019 122.226706 
C 276.207263 124.876461 274.718437 128.470805 274.718437 132.218125 
C 274.718437 135.965445 276.207263 139.559789 278.857019 142.209544 
C 281.506774 144.859299 285.101118 146.348125 288.848437 146.348125 
z
" clip-path="url(#pc57a129c09)" style="fill: #440154; stroke: #000000; stroke-linejoin: miter"/>
   </g>
   <g id="patch_48">
    <path d="M 320.248437 146.348125 
C 323.995757 146.348125 327.590101 144.859299 330.239856 142.209544 
C 332.889612 139.559789 334.378437 135.965445 334.378437 132.218125 
C 334.378437 128.470805 332.889612 124.876461 330.239856 122.226706 
C 327.590101 119.576951 323.995757 118.088125 320.248437 118.088125 
C 316.501118 118.088125 312.906774 119.576951 310.257019 122.226706 
C 307.607263 124.876461 306.118437 128.470805 306.118437 132.218125 
C 306.118437 135.965445 307.607263 139.559789 310.257019 142.209544 
C 312.906774 144.859299 316.501118 146.348125 320.248437 146.348125 
z
" clip-path="url(#pc57a129c09)" style="fill: #9bd93c; stroke: #000000; stroke-linejoin: miter"/>
   </g>
   <g id="patch_49">
    <path d="M 351.648438 146.348125 
C 355.395757 146.348125 358.990101 144.859299 361.639856 142.209544 
C 364.289612 139.559789 365.778437 135.965445 365.778437 132.218125 
C 365.778437 128.470805 364.289612 124.876461 361.639856 122.226706 
C 358.990101 119.576951 355.395757 118.088125 351.648438 118.088125 
C 347.901118 118.088125 344.306774 119.576951 341.657019 122.226706 
C 339.007263 124.876461 337.518438 128.470805 337.518438 132.218125 
C 337.518438 135.965445 339.007263 139.559789 341.657019 142.209544 
C 344.306774 144.859299 347.901118 146.348125 351.648438 146.348125 
z
" clip-path="url(#pc57a129c09)" style="fill: #9bd93c; stroke: #000000; stroke-linejoin: miter"/>
   </g>
   <g id="patch_50">
    <path d="M 383.048437 146.348125 
C 386.795757 146.348125 390.390101 144.859299 393.039856 142.209544 
C 395.689612 139.559789 397.178437 135.965445 397.178437 132.218125 
C 397.178437 128.470805 395.689612 124.876461 393.039856 122.226706 
C 390.390101 119.576951 386.795757 118.088125 383.048437 118.088125 
C 379.301118 118.088125 375.706774 119.576951 373.057019 122.226706 
C 370.407263 124.876461 368.918437 128.470805 368.918437 132.218125 
C 368.918437 135.965445 370.407263 139.559789 373.057019 142.209544 
C 375.706774 144.859299 379.301118 146.348125 383.048437 146.348125 
z
" clip-path="url(#pc57a129c09)" style="fill: #9bd93c; stroke: #000000; stroke-linejoin: miter"/>
   </g>
   <g id="patch_51">
    <path d="M 37.648438 177.748125 
C 41.395757 177.748125 44.990101 176.259299 47.639856 173.609544 
C 50.289612 170.959789 51.778437 167.365445 51.778437 163.618125 
C 51.778437 159.870805 50.289612 156.276461 47.639856 153.626706 
C 44.990101 150.976951 41.395757 149.488125 37.648438 149.488125 
C 33.901118 149.488125 30.306774 150.976951 27.657019 153.626706 
C 25.007263 156.276461 23.518438 159.870805 23.518438 163.618125 
C 23.518438 167.365445 25.007263 170.959789 27.657019 173.609544 
C 30.306774 176.259299 33.901118 177.748125 37.648438 177.748125 
z
" clip-path="url(#pc57a129c09)" style="fill: #440154; stroke: #000000; stroke-linejoin: miter"/>
   </g>
   <g id="patch_52">
    <path d="M 69.048438 177.748125 
C 72.795757 177.748125 76.390101 176.259299 79.039856 173.609544 
C 81.689612 170.959789 83.178438 167.365445 83.178438 163.618125 
C 83.178438 159.870805 81.689612 156.276461 79.039856 153.626706 
C 76.390101 150.976951 72.795757 149.488125 69.048438 149.488125 
C 65.301118 149.488125 61.706774 150.976951 59.057019 153.626706 
C 56.407263 156.276461 54.918438 159.870805 54.918438 163.618125 
C 54.918438 167.365445 56.407263 170.959789 59.057019 173.609544 
C 61.706774 176.259299 65.301118 177.748125 69.048438 177.748125 
z
" clip-path="url(#pc57a129c09)" style="fill: #440154; stroke: #000000; stroke-linejoin: miter"/>
   </g>
   <g id="patch_53">
    <path d="M 100.448437 177.748125 
C 104.195757 177.748125 107.790101 176.259299 110.439856 173.609544 
C 113.089612 170.959789 114.578437 167.365445 114.578437 163.618125 
C 114.578437 159.870805 113.089612 156.276461 110.439856 153.626706 
C 107.790101 150.976951 104.195757 149.488125 100.448437 149.488125 
C 96.701118 149.488125 93.106774 150.976951 90.457019 153.626706 
C 87.807263 156.276461 86.318438 159.870805 86.318438 163.618125 
C 86.318438 167.365445 87.807263 170.959789 90.457019 173.609544 
C 93.106774 176.259299 96.701118 177.748125 100.448437 177.748125 
z
" clip-path="url(#pc57a129c09)" style="fill: #440154; stroke: #000000; stroke-linejoin: miter"/>
   </g>
   <g id="patch_54">
    <path d="M 131.848437 177.748125 
C 135.595757 177.748125 139.190101 176.259299 141.839856 173.609544 
C 144.489612 170.959789 145.978437 167.365445 145.978437 163.618125 
C 145.978437 159.870805 144.489612 156.276461 141.839856 153.626706 
C 139.190101 150.976951 135.595757 149.488125 131.848437 149.488125 
C 128.101118 149.488125 124.506774 150.976951 121.857019 153.626706 
C 119.207263 156.276461 117.718437 159.870805 117.718437 163.618125 
C 117.718437 167.365445 119.207263 170.959789 121.857019 173.609544 
C 124.506774 176.259299 128.101118 177.748125 131.848437 177.748125 
z
" clip-path="url(#pc57a129c09)" style="fill: #440154; stroke: #000000; stroke-linejoin: miter"/>
   </g>
   <g id="patch_55">
    <path d="M 163.248437 177.748125 
C 166.995757 177.748125 170.590101 176.259299 173.239856 173.609544 
C 175.889612 170.959789 177.378437 167.365445 177.378437 163.618125 
C 177.378437 159.870805 175.889612 156.276461 173.239856 153.626706 
C 170.590101 150.976951 166.995757 149.488125 163.248437 149.488125 
C 159.501118 149.488125 155.906774 150.976951 153.257019 153.626706 
C 150.607263 156.276461 149.118437 159.870805 149.118437 163.618125 
C 149.118437 167.365445 150.607263 170.959789 153.257019 173.609544 
C 155.906774 176.259299 159.501118 177.748125 163.248437 177.748125 
z
" clip-path="url(#pc57a129c09)" style="fill: #440154; stroke: #000000; stroke-linejoin: miter"/>
   </g>
   <g id="patch_56">
    <path d="M 194.648438 177.748125 
C 198.395757 177.748125 201.990101 176.259299 204.639856 173.609544 
C 207.289612 170.959789 208.778437 167.365445 208.778437 163.618125 
C 208.778437 159.870805 207.289612 156.276461 204.639856 153.626706 
C 201.990101 150.976951 198.395757 149.488125 194.648438 149.488125 
C 190.901118 149.488125 187.306774 150.976951 184.657019 153.626706 
C 182.007263 156.276461 180.518438 159.870805 180.518438 163.618125 
C 180.518438 167.365445 182.007263 170.959789 184.657019 173.609544 
C 187.306774 176.259299 190.901118 177.748125 194.648438 177.748125 
z
" clip-path="url(#pc57a129c09)" style="fill: #440154; stroke: #000000; stroke-linejoin: miter"/>
   </g>
   <g id="patch_57">
    <path d="M 226.048437 177.748125 
C 229.795757 177.748125 233.390101 176.259299 236.039856 173.609544 
C 238.689612 170.959789 240.178437 167.365445 240.178437 163.618125 
C 240.178437 159.870805 238.689612 156.276461 236.039856 153.626706 
C 233.390101 150.976951 229.795757 149.488125 226.048437 149.488125 
C 222.301118 149.488125 218.706774 150.976951 216.057019 153.626706 
C 213.407263 156.276461 211.918437 159.870805 211.918437 163.618125 
C 211.918437 167.365445 213.407263 170.959789 216.057019 173.609544 
C 218.706774 176.259299 222.301118 177.748125 226.048437 177.748125 
z
" clip-path="url(#pc57a129c09)" style="fill: #440154; stroke: #000000; stroke-linejoin: miter"/>
   </g>
   <g id="patch_58">
    <path d="M 257.448437 177.748125 
C 261.195757 177.748125 264.790101 176.259299 267.439856 173.609544 
C 270.089612 170.959789 271.578437 167.365445 271.578437 163.618125 
C 271.578437 159.870805 270.089612 156.276461 267.439856 153.626706 
C 264.790101 150.976951 261.195757 149.488125 257.448437 149.488125 
C 253.701118 149.488125 250.106774 150.976951 247.457019 153.626706 
C 244.807263 156.276461 243.318437 159.870805 243.318437 163.618125 
C 243.318437 167.365445 244.807263 170.959789 247.457019 173.609544 
C 250.106774 176.259299 253.701118 177.748125 257.448437 177.748125 
z
" clip-path="url(#pc57a129c09)" style="fill: #440154; stroke: #000000; stroke-linejoin: miter"/>
   </g>
   <g id="patch_59">
    <path d="M 288.848437 177.748125 
C 292.595757 177.748125 296.190101 176.259299 298.839856 173.609544 
C 301.489612 170.959789 302.978437 167.365445 302.978437 163.618125 
C 302.978437 159.870805 301.489612 156.276461 298.839856 153.626706 
C 296.190101 150.976951 292.595757 149.488125 288.848437 149.488125 
C 285.101118 149.488125 281.506774 150.976951 278.857019 153.626706 
C 276.207263 156.276461 274.718437 159.870805 274.718437 163.618125 
C 274.718437 167.365445 276.207263 170.959789 278.857019 173.609544 
C 281.506774 176.259299 285.101118 177.748125 288.848437 177.748125 
z
" clip-path="url(#pc57a129c09)" style="fill: #440154; stroke: #000000; stroke-linejoin: miter"/>
   </g>
   <g id="patch_60">
    <path d="M 320.248437 177.748125 
C 323.995757 177.748125 327.590101 176.259299 330.239856 173.609544 
C 332.889612 170.959789 334.378437 167.365445 334.378437 163.618125 
C 334.378437 159.870805 332.889612 156.276461 330.239856 153.626706 
C 327.590101 150.976951 323.995757 149.488125 320.248437 149.488125 
C 316.501118 149.488125 312.906774 150.976951 310.257019 153.626706 
C 307.607263 156.276461 306.118437 159.870805 306.118437 163.618125 
C 306.118437 167.365445 307.607263 170.959789 310.257019 173.609544 
C 312.906774 176.259299 316.501118 177.748125 320.248437 177.748125 
z
" clip-path="url(#pc57a129c09)" style="fill: #9bd93c; stroke: #000000; stroke-linejoin: miter"/>
   </g>
   <g id="patch_61">
    <path d="M 351.648438 177.748125 
C 355.395757 177.748125 358.990101 176.259299 361.639856 173.609544 
C 364.289612 170.959789 365.778437 167.365445 365.778437 163.618125 
C 365.778437 159.870805 364.289612 156.276461 361.639856 153.626706 
C 358.990101 150.976951 355.395757 149.488125 351.648438 149.488125 
C 347.901118 149.488125 344.306774 150.976951 341.657019 153.626706 
C 339.007263 156.276461 337.518438 159.870805 337.518438 163.618125 
C 337.518438 167.365445 339.007263 170.959789 341.657019 173.609544 
C 344.306774 176.259299 347.901118 177.748125 351.648438 177.748125 
z
" clip-path="url(#pc57a129c09)" style="fill: #9bd93c; stroke: #000000; stroke-linejoin: miter"/>
   </g>
   <g id="patch_62">
    <path d="M 383.048437 177.748125 
C 386.795757 177.748125 390.390101 176.259299 393.039856 173.609544 
C 395.689612 170.959789 397.178437 167.365445 397.178437 163.618125 
C 397.178437 159.870805 395.689612 156.276461 393.039856 153.626706 
C 390.390101 150.976951 386.795757 149.488125 383.048437 149.488125 
C 379.301118 149.488125 375.706774 150.976951 373.057019 153.626706 
C 370.407263 156.276461 368.918437 159.870805 368.918437 163.618125 
C 368.918437 167.365445 370.407263 170.959789 373.057019 173.609544 
C 375.706774 176.259299 379.301118 177.748125 383.048437 177.748125 
z
" clip-path="url(#pc57a129c09)" style="fill: #9bd93c; stroke: #000000; stroke-linejoin: miter"/>
   </g>
   <g id="patch_63">
    <path d="M 37.648438 209.148125 
C 41.395757 209.148125 44.990101 207.659299 47.639856 205.009544 
C 50.289612 202.359789 51.778437 198.765445 51.778437 195.018125 
C 51.778437 191.270805 50.289612 187.676461 47.639856 185.026706 
C 44.990101 182.376951 41.395757 180.888125 37.648438 180.888125 
C 33.901118 180.888125 30.306774 182.376951 27.657019 185.026706 
C 25.007263 187.676461 23.518438 191.270805 23.518438 195.018125 
C 23.518438 198.765445 25.007263 202.359789 27.657019 205.009544 
C 30.306774 207.659299 33.901118 209.148125 37.648438 209.148125 
z
" clip-path="url(#pc57a129c09)" style="fill: #440154; stroke: #000000; stroke-linejoin: miter"/>
   </g>
   <g id="patch_64">
    <path d="M 69.048438 209.148125 
C 72.795757 209.148125 76.390101 207.659299 79.039856 205.009544 
C 81.689612 202.359789 83.178438 198.765445 83.178438 195.018125 
C 83.178438 191.270805 81.689612 187.676461 79.039856 185.026706 
C 76.390101 182.376951 72.795757 180.888125 69.048438 180.888125 
C 65.301118 180.888125 61.706774 182.376951 59.057019 185.026706 
C 56.407263 187.676461 54.918438 191.270805 54.918438 195.018125 
C 54.918438 198.765445 56.407263 202.359789 59.057019 205.009544 
C 61.706774 207.659299 65.301118 209.148125 69.048438 209.148125 
z
" clip-path="url(#pc57a129c09)" style="fill: #440154; stroke: #000000; stroke-linejoin: miter"/>
   </g>
   <g id="patch_65">
    <path d="M 100.448437 209.148125 
C 104.195757 209.148125 107.790101 207.659299 110.439856 205.009544 
C 113.089612 202.359789 114.578437 198.765445 114.578437 195.018125 
C 114.578437 191.270805 113.089612 187.676461 110.439856 185.026706 
C 107.790101 182.376951 104.195757 180.888125 100.448437 180.888125 
C 96.701118 180.888125 93.106774 182.376951 90.457019 185.026706 
C 87.807263 187.676461 86.318438 191.270805 86.318438 195.018125 
C 86.318438 198.765445 87.807263 202.359789 90.457019 205.009544 
C 93.106774 207.659299 96.701118 209.148125 100.448437 209.148125 
z
" clip-path="url(#pc57a129c09)" style="fill: #440154; stroke: #000000; stroke-linejoin: miter"/>
   </g>
   <g id="patch_66">
    <path d="M 131.848437 209.148125 
C 135.595757 209.148125 139.190101 207.659299 141.839856 205.009544 
C 144.489612 202.359789 145.978437 198.765445 145.978437 195.018125 
C 145.978437 191.270805 144.489612 187.676461 141.839856 185.026706 
C 139.190101 182.376951 135.595757 180.888125 131.848437 180.888125 
C 128.101118 180.888125 124.506774 182.376951 121.857019 185.026706 
C 119.207263 187.676461 117.718437 191.270805 117.718437 195.018125 
C 117.718437 198.765445 119.207263 202.359789 121.857019 205.009544 
C 124.506774 207.659299 128.101118 209.148125 131.848437 209.148125 
z
" clip-path="url(#pc57a129c09)" style="fill: #440154; stroke: #000000; stroke-linejoin: miter"/>
   </g>
   <g id="patch_67">
    <path d="M 163.248437 209.148125 
C 166.995757 209.148125 170.590101 207.659299 173.239856 205.009544 
C 175.889612 202.359789 177.378437 198.765445 177.378437 195.018125 
C 177.378437 191.270805 175.889612 187.676461 173.239856 185.026706 
C 170.590101 182.376951 166.995757 180.888125 163.248437 180.888125 
C 159.501118 180.888125 155.906774 182.376951 153.257019 185.026706 
C 150.607263 187.676461 149.118437 191.270805 149.118437 195.018125 
C 149.118437 198.765445 150.607263 202.359789 153.257019 205.009544 
C 155.906774 207.659299 159.501118 209.148125 163.248437 209.148125 
z
" clip-path="url(#pc57a129c09)" style="fill: #440154; stroke: #000000; stroke-linejoin: miter"/>
   </g>
   <g id="patch_68">
    <path d="M 194.648438 209.148125 
C 198.395757 209.148125 201.990101 207.659299 204.639856 205.009544 
C 207.289612 202.359789 208.778437 198.765445 208.778437 195.018125 
C 208.778437 191.270805 207.289612 187.676461 204.639856 185.026706 
C 201.990101 182.376951 198.395757 180.888125 194.648438 180.888125 
C 190.901118 180.888125 187.306774 182.376951 184.657019 185.026706 
C 182.007263 187.676461 180.518438 191.270805 180.518438 195.018125 
C 180.518438 198.765445 182.007263 202.359789 184.657019 205.009544 
C 187.306774 207.659299 190.901118 209.148125 194.648438 209.148125 
z
" clip-path="url(#pc57a129c09)" style="fill: #440154; stroke: #000000; stroke-linejoin: miter"/>
   </g>
   <g id="patch_69">
    <path d="M 226.048437 209.148125 
C 229.795757 209.148125 233.390101 207.659299 236.039856 205.009544 
C 238.689612 202.359789 240.178437 198.765445 240.178437 195.018125 
C 240.178437 191.270805 238.689612 187.676461 236.039856 185.026706 
C 233.390101 182.376951 229.795757 180.888125 226.048437 180.888125 
C 222.301118 180.888125 218.706774 182.376951 216.057019 185.026706 
C 213.407263 187.676461 211.918437 191.270805 211.918437 195.018125 
C 211.918437 198.765445 213.407263 202.359789 216.057019 205.009544 
C 218.706774 207.659299 222.301118 209.148125 226.048437 209.148125 
z
" clip-path="url(#pc57a129c09)" style="fill: #440154; stroke: #000000; stroke-linejoin: miter"/>
   </g>
   <g id="patch_70">
    <path d="M 257.448437 209.148125 
C 261.195757 209.148125 264.790101 207.659299 267.439856 205.009544 
C 270.089612 202.359789 271.578437 198.765445 271.578437 195.018125 
C 271.578437 191.270805 270.089612 187.676461 267.439856 185.026706 
C 264.790101 182.376951 261.195757 180.888125 257.448437 180.888125 
C 253.701118 180.888125 250.106774 182.376951 247.457019 185.026706 
C 244.807263 187.676461 243.318437 191.270805 243.318437 195.018125 
C 243.318437 198.765445 244.807263 202.359789 247.457019 205.009544 
C 250.106774 207.659299 253.701118 209.148125 257.448437 209.148125 
z
" clip-path="url(#pc57a129c09)" style="fill: #440154; stroke: #000000; stroke-linejoin: miter"/>
   </g>
   <g id="patch_71">
    <path d="M 288.848437 209.148125 
C 292.595757 209.148125 296.190101 207.659299 298.839856 205.009544 
C 301.489612 202.359789 302.978437 198.765445 302.978437 195.018125 
C 302.978437 191.270805 301.489612 187.676461 298.839856 185.026706 
C 296.190101 182.376951 292.595757 180.888125 288.848437 180.888125 
C 285.101118 180.888125 281.506774 182.376951 278.857019 185.026706 
C 276.207263 187.676461 274.718437 191.270805 274.718437 195.018125 
C 274.718437 198.765445 276.207263 202.359789 278.857019 205.009544 
C 281.506774 207.659299 285.101118 209.148125 288.848437 209.148125 
z
" clip-path="url(#pc57a129c09)" style="fill: #440154; stroke: #000000; stroke-linejoin: miter"/>
   </g>
   <g id="patch_72">
    <path d="M 320.248437 209.148125 
C 323.995757 209.148125 327.590101 207.659299 330.239856 205.009544 
C 332.889612 202.359789 334.378437 198.765445 334.378437 195.018125 
C 334.378437 191.270805 332.889612 187.676461 330.239856 185.026706 
C 327.590101 182.376951 323.995757 180.888125 320.248437 180.888125 
C 316.501118 180.888125 312.906774 182.376951 310.257019 185.026706 
C 307.607263 187.676461 306.118437 191.270805 306.118437 195.018125 
C 306.118437 198.765445 307.607263 202.359789 310.257019 205.009544 
C 312.906774 207.659299 316.501118 209.148125 320.248437 209.148125 
z
" clip-path="url(#pc57a129c09)" style="fill: #9bd93c; stroke: #000000; stroke-linejoin: miter"/>
   </g>
   <g id="patch_73">
    <path d="M 351.648438 209.148125 
C 355.395757 209.148125 358.990101 207.659299 361.639856 205.009544 
C 364.289612 202.359789 365.778437 198.765445 365.778437 195.018125 
C 365.778437 191.270805 364.289612 187.676461 361.639856 185.026706 
C 358.990101 182.376951 355.395757 180.888125 351.648438 180.888125 
C 347.901118 180.888125 344.306774 182.376951 341.657019 185.026706 
C 339.007263 187.676461 337.518438 191.270805 337.518438 195.018125 
C 337.518438 198.765445 339.007263 202.359789 341.657019 205.009544 
C 344.306774 207.659299 347.901118 209.148125 351.648438 209.148125 
z
" clip-path="url(#pc57a129c09)" style="fill: #9bd93c; stroke: #000000; stroke-linejoin: miter"/>
   </g>
   <g id="patch_74">
    <path d="M 383.048437 209.148125 
C 386.795757 209.148125 390.390101 207.659299 393.039856 205.009544 
C 395.689612 202.359789 397.178437 198.765445 397.178437 195.018125 
C 397.178437 191.270805 395.689612 187.676461 393.039856 185.026706 
C 390.390101 182.376951 386.795757 180.888125 383.048437 180.888125 
C 379.301118 180.888125 375.706774 182.376951 373.057019 185.026706 
C 370.407263 187.676461 368.918437 191.270805 368.918437 195.018125 
C 368.918437 198.765445 370.407263 202.359789 373.057019 205.009544 
C 375.706774 207.659299 379.301118 209.148125 383.048437 209.148125 
z
" clip-path="url(#pc57a129c09)" style="fill: #9bd93c; stroke: #000000; stroke-linejoin: miter"/>
   </g>
   <g id="patch_75">
    <path d="M 37.648438 240.548125 
C 41.395757 240.548125 44.990101 239.059299 47.639856 236.409544 
C 50.289612 233.759789 51.778437 230.165445 51.778437 226.418125 
C 51.778437 222.670805 50.289612 219.076461 47.639856 216.426706 
C 44.990101 213.776951 41.395757 212.288125 37.648438 212.288125 
C 33.901118 212.288125 30.306774 213.776951 27.657019 216.426706 
C 25.007263 219.076461 23.518438 222.670805 23.518438 226.418125 
C 23.518438 230.165445 25.007263 233.759789 27.657019 236.409544 
C 30.306774 239.059299 33.901118 240.548125 37.648438 240.548125 
z
" clip-path="url(#pc57a129c09)" style="fill: #440154; stroke: #000000; stroke-linejoin: miter"/>
   </g>
   <g id="patch_76">
    <path d="M 69.048438 240.548125 
C 72.795757 240.548125 76.390101 239.059299 79.039856 236.409544 
C 81.689612 233.759789 83.178438 230.165445 83.178438 226.418125 
C 83.178438 222.670805 81.689612 219.076461 79.039856 216.426706 
C 76.390101 213.776951 72.795757 212.288125 69.048438 212.288125 
C 65.301118 212.288125 61.706774 213.776951 59.057019 216.426706 
C 56.407263 219.076461 54.918438 222.670805 54.918438 226.418125 
C 54.918438 230.165445 56.407263 233.759789 59.057019 236.409544 
C 61.706774 239.059299 65.301118 240.548125 69.048438 240.548125 
z
" clip-path="url(#pc57a129c09)" style="fill: #440154; stroke: #000000; stroke-linejoin: miter"/>
   </g>
   <g id="patch_77">
    <path d="M 100.448437 240.548125 
C 104.195757 240.548125 107.790101 239.059299 110.439856 236.409544 
C 113.089612 233.759789 114.578437 230.165445 114.578437 226.418125 
C 114.578437 222.670805 113.089612 219.076461 110.439856 216.426706 
C 107.790101 213.776951 104.195757 212.288125 100.448437 212.288125 
C 96.701118 212.288125 93.106774 213.776951 90.457019 216.426706 
C 87.807263 219.076461 86.318438 222.670805 86.318438 226.418125 
C 86.318438 230.165445 87.807263 233.759789 90.457019 236.409544 
C 93.106774 239.059299 96.701118 240.548125 100.448437 240.548125 
z
" clip-path="url(#pc57a129c09)" style="fill: #440154; stroke: #000000; stroke-linejoin: miter"/>
   </g>
   <g id="patch_78">
    <path d="M 131.848437 240.548125 
C 135.595757 240.548125 139.190101 239.059299 141.839856 236.409544 
C 144.489612 233.759789 145.978437 230.165445 145.978437 226.418125 
C 145.978437 222.670805 144.489612 219.076461 141.839856 216.426706 
C 139.190101 213.776951 135.595757 212.288125 131.848437 212.288125 
C 128.101118 212.288125 124.506774 213.776951 121.857019 216.426706 
C 119.207263 219.076461 117.718437 222.670805 117.718437 226.418125 
C 117.718437 230.165445 119.207263 233.759789 121.857019 236.409544 
C 124.506774 239.059299 128.101118 240.548125 131.848437 240.548125 
z
" clip-path="url(#pc57a129c09)" style="fill: #440154; stroke: #000000; stroke-linejoin: miter"/>
   </g>
   <g id="patch_79">
    <path d="M 163.248437 240.548125 
C 166.995757 240.548125 170.590101 239.059299 173.239856 236.409544 
C 175.889612 233.759789 177.378437 230.165445 177.378437 226.418125 
C 177.378437 222.670805 175.889612 219.076461 173.239856 216.426706 
C 170.590101 213.776951 166.995757 212.288125 163.248437 212.288125 
C 159.501118 212.288125 155.906774 213.776951 153.257019 216.426706 
C 150.607263 219.076461 149.118437 222.670805 149.118437 226.418125 
C 149.118437 230.165445 150.607263 233.759789 153.257019 236.409544 
C 155.906774 239.059299 159.501118 240.548125 163.248437 240.548125 
z
" clip-path="url(#pc57a129c09)" style="fill: #440154; stroke: #000000; stroke-linejoin: miter"/>
   </g>
   <g id="patch_80">
    <path d="M 194.648438 240.548125 
C 198.395757 240.548125 201.990101 239.059299 204.639856 236.409544 
C 207.289612 233.759789 208.778437 230.165445 208.778437 226.418125 
C 208.778437 222.670805 207.289612 219.076461 204.639856 216.426706 
C 201.990101 213.776951 198.395757 212.288125 194.648438 212.288125 
C 190.901118 212.288125 187.306774 213.776951 184.657019 216.426706 
C 182.007263 219.076461 180.518438 222.670805 180.518438 226.418125 
C 180.518438 230.165445 182.007263 233.759789 184.657019 236.409544 
C 187.306774 239.059299 190.901118 240.548125 194.648438 240.548125 
z
" clip-path="url(#pc57a129c09)" style="fill: #440154; stroke: #000000; stroke-linejoin: miter"/>
   </g>
   <g id="patch_81">
    <path d="M 226.048437 240.548125 
C 229.795757 240.548125 233.390101 239.059299 236.039856 236.409544 
C 238.689612 233.759789 240.178437 230.165445 240.178437 226.418125 
C 240.178437 222.670805 238.689612 219.076461 236.039856 216.426706 
C 233.390101 213.776951 229.795757 212.288125 226.048437 212.288125 
C 222.301118 212.288125 218.706774 213.776951 216.057019 216.426706 
C 213.407263 219.076461 211.918437 222.670805 211.918437 226.418125 
C 211.918437 230.165445 213.407263 233.759789 216.057019 236.409544 
C 218.706774 239.059299 222.301118 240.548125 226.048437 240.548125 
z
" clip-path="url(#pc57a129c09)" style="fill: #440154; stroke: #000000; stroke-linejoin: miter"/>
   </g>
   <g id="patch_82">
    <path d="M 257.448437 240.548125 
C 261.195757 240.548125 264.790101 239.059299 267.439856 236.409544 
C 270.089612 233.759789 271.578437 230.165445 271.578437 226.418125 
C 271.578437 222.670805 270.089612 219.076461 267.439856 216.426706 
C 264.790101 213.776951 261.195757 212.288125 257.448437 212.288125 
C 253.701118 212.288125 250.106774 213.776951 247.457019 216.426706 
C 244.807263 219.076461 243.318437 222.670805 243.318437 226.418125 
C 243.318437 230.165445 244.807263 233.759789 247.457019 236.409544 
C 250.106774 239.059299 253.701118 240.548125 257.448437 240.548125 
z
" clip-path="url(#pc57a129c09)" style="fill: #440154; stroke: #000000; stroke-linejoin: miter"/>
   </g>
   <g id="patch_83">
    <path d="M 288.848437 240.548125 
C 292.595757 240.548125 296.190101 239.059299 298.839856 236.409544 
C 301.489612 233.759789 302.978437 230.165445 302.978437 226.418125 
C 302.978437 222.670805 301.489612 219.076461 298.839856 216.426706 
C 296.190101 213.776951 292.595757 212.288125 288.848437 212.288125 
C 285.101118 212.288125 281.506774 213.776951 278.857019 216.426706 
C 276.207263 219.076461 274.718437 222.670805 274.718437 226.418125 
C 274.718437 230.165445 276.207263 233.759789 278.857019 236.409544 
C 281.506774 239.059299 285.101118 240.548125 288.848437 240.548125 
z
" clip-path="url(#pc57a129c09)" style="fill: #440154; stroke: #000000; stroke-linejoin: miter"/>
   </g>
   <g id="patch_84">
    <path d="M 320.248437 240.548125 
C 323.995757 240.548125 327.590101 239.059299 330.239856 236.409544 
C 332.889612 233.759789 334.378437 230.165445 334.378437 226.418125 
C 334.378437 222.670805 332.889612 219.076461 330.239856 216.426706 
C 327.590101 213.776951 323.995757 212.288125 320.248437 212.288125 
C 316.501118 212.288125 312.906774 213.776951 310.257019 216.426706 
C 307.607263 219.076461 306.118437 222.670805 306.118437 226.418125 
C 306.118437 230.165445 307.607263 233.759789 310.257019 236.409544 
C 312.906774 239.059299 316.501118 240.548125 320.248437 240.548125 
z
" clip-path="url(#pc57a129c09)" style="fill: #9bd93c; stroke: #000000; stroke-linejoin: miter"/>
   </g>
   <g id="patch_85">
    <path d="M 351.648438 240.548125 
C 355.395757 240.548125 358.990101 239.059299 361.639856 236.409544 
C 364.289612 233.759789 365.778437 230.165445 365.778437 226.418125 
C 365.778437 222.670805 364.289612 219.076461 361.639856 216.426706 
C 358.990101 213.776951 355.395757 212.288125 351.648438 212.288125 
C 347.901118 212.288125 344.306774 213.776951 341.657019 216.426706 
C 339.007263 219.076461 337.518438 222.670805 337.518438 226.418125 
C 337.518438 230.165445 339.007263 233.759789 341.657019 236.409544 
C 344.306774 239.059299 347.901118 240.548125 351.648438 240.548125 
z
" clip-path="url(#pc57a129c09)" style="fill: #9bd93c; stroke: #000000; stroke-linejoin: miter"/>
   </g>
   <g id="patch_86">
    <path d="M 383.048437 240.548125 
C 386.795757 240.548125 390.390101 239.059299 393.039856 236.409544 
C 395.689612 233.759789 397.178437 230.165445 397.178437 226.418125 
C 397.178437 222.670805 395.689612 219.076461 393.039856 216.426706 
C 390.390101 213.776951 386.795757 212.288125 383.048437 212.288125 
C 379.301118 212.288125 375.706774 213.776951 373.057019 216.426706 
C 370.407263 219.076461 368.918437 222.670805 368.918437 226.418125 
C 368.918437 230.165445 370.407263 233.759789 373.057019 236.409544 
C 375.706774 239.059299 379.301118 240.548125 383.048437 240.548125 
z
" clip-path="url(#pc57a129c09)" style="fill: #9bd93c; stroke: #000000; stroke-linejoin: miter"/>
   </g>
   <g id="patch_87">
    <path d="M 37.648438 271.948125 
C 41.395757 271.948125 44.990101 270.459299 47.639856 267.809544 
C 50.289612 265.159789 51.778437 261.565445 51.778437 257.818125 
C 51.778437 254.070805 50.289612 250.476461 47.639856 247.826706 
C 44.990101 245.176951 41.395757 243.688125 37.648438 243.688125 
C 33.901118 243.688125 30.306774 245.176951 27.657019 247.826706 
C 25.007263 250.476461 23.518438 254.070805 23.518438 257.818125 
C 23.518438 261.565445 25.007263 265.159789 27.657019 267.809544 
C 30.306774 270.459299 33.901118 271.948125 37.648438 271.948125 
z
" clip-path="url(#pc57a129c09)" style="fill: #440154; stroke: #000000; stroke-linejoin: miter"/>
   </g>
   <g id="patch_88">
    <path d="M 69.048438 271.948125 
C 72.795757 271.948125 76.390101 270.459299 79.039856 267.809544 
C 81.689612 265.159789 83.178438 261.565445 83.178438 257.818125 
C 83.178438 254.070805 81.689612 250.476461 79.039856 247.826706 
C 76.390101 245.176951 72.795757 243.688125 69.048438 243.688125 
C 65.301118 243.688125 61.706774 245.176951 59.057019 247.826706 
C 56.407263 250.476461 54.918438 254.070805 54.918438 257.818125 
C 54.918438 261.565445 56.407263 265.159789 59.057019 267.809544 
C 61.706774 270.459299 65.301118 271.948125 69.048438 271.948125 
z
" clip-path="url(#pc57a129c09)" style="fill: #440154; stroke: #000000; stroke-linejoin: miter"/>
   </g>
   <g id="patch_89">
    <path d="M 100.448437 271.948125 
C 104.195757 271.948125 107.790101 270.459299 110.439856 267.809544 
C 113.089612 265.159789 114.578437 261.565445 114.578437 257.818125 
C 114.578437 254.070805 113.089612 250.476461 110.439856 247.826706 
C 107.790101 245.176951 104.195757 243.688125 100.448437 243.688125 
C 96.701118 243.688125 93.106774 245.176951 90.457019 247.826706 
C 87.807263 250.476461 86.318438 254.070805 86.318438 257.818125 
C 86.318438 261.565445 87.807263 265.159789 90.457019 267.809544 
C 93.106774 270.459299 96.701118 271.948125 100.448437 271.948125 
z
" clip-path="url(#pc57a129c09)" style="fill: #440154; stroke: #000000; stroke-linejoin: miter"/>
   </g>
   <g id="patch_90">
    <path d="M 131.848437 271.948125 
C 135.595757 271.948125 139.190101 270.459299 141.839856 267.809544 
C 144.489612 265.159789 145.978437 261.565445 145.978437 257.818125 
C 145.978437 254.070805 144.489612 250.476461 141.839856 247.826706 
C 139.190101 245.176951 135.595757 243.688125 131.848437 243.688125 
C 128.101118 243.688125 124.506774 245.176951 121.857019 247.826706 
C 119.207263 250.476461 117.718437 254.070805 117.718437 257.818125 
C 117.718437 261.565445 119.207263 265.159789 121.857019 267.809544 
C 124.506774 270.459299 128.101118 271.948125 131.848437 271.948125 
z
" clip-path="url(#pc57a129c09)" style="fill: #440154; stroke: #000000; stroke-linejoin: miter"/>
   </g>
   <g id="patch_91">
    <path d="M 163.248437 271.948125 
C 166.995757 271.948125 170.590101 270.459299 173.239856 267.809544 
C 175.889612 265.159789 177.378437 261.565445 177.378437 257.818125 
C 177.378437 254.070805 175.889612 250.476461 173.239856 247.826706 
C 170.590101 245.176951 166.995757 243.688125 163.248437 243.688125 
C 159.501118 243.688125 155.906774 245.176951 153.257019 247.826706 
C 150.607263 250.476461 149.118437 254.070805 149.118437 257.818125 
C 149.118437 261.565445 150.607263 265.159789 153.257019 267.809544 
C 155.906774 270.459299 159.501118 271.948125 163.248437 271.948125 
z
" clip-path="url(#pc57a129c09)" style="fill: #440154; stroke: #000000; stroke-linejoin: miter"/>
   </g>
   <g id="patch_92">
    <path d="M 194.648438 271.948125 
C 198.395757 271.948125 201.990101 270.459299 204.639856 267.809544 
C 207.289612 265.159789 208.778437 261.565445 208.778437 257.818125 
C 208.778437 254.070805 207.289612 250.476461 204.639856 247.826706 
C 201.990101 245.176951 198.395757 243.688125 194.648438 243.688125 
C 190.901118 243.688125 187.306774 245.176951 184.657019 247.826706 
C 182.007263 250.476461 180.518438 254.070805 180.518438 257.818125 
C 180.518438 261.565445 182.007263 265.159789 184.657019 267.809544 
C 187.306774 270.459299 190.901118 271.948125 194.648438 271.948125 
z
" clip-path="url(#pc57a129c09)" style="fill: #440154; stroke: #000000; stroke-linejoin: miter"/>
   </g>
   <g id="patch_93">
    <path d="M 226.048437 271.948125 
C 229.795757 271.948125 233.390101 270.459299 236.039856 267.809544 
C 238.689612 265.159789 240.178437 261.565445 240.178437 257.818125 
C 240.178437 254.070805 238.689612 250.476461 236.039856 247.826706 
C 233.390101 245.176951 229.795757 243.688125 226.048437 243.688125 
C 222.301118 243.688125 218.706774 245.176951 216.057019 247.826706 
C 213.407263 250.476461 211.918437 254.070805 211.918437 257.818125 
C 211.918437 261.565445 213.407263 265.159789 216.057019 267.809544 
C 218.706774 270.459299 222.301118 271.948125 226.048437 271.948125 
z
" clip-path="url(#pc57a129c09)" style="fill: #440154; stroke: #000000; stroke-linejoin: miter"/>
   </g>
   <g id="patch_94">
    <path d="M 257.448437 271.948125 
C 261.195757 271.948125 264.790101 270.459299 267.439856 267.809544 
C 270.089612 265.159789 271.578437 261.565445 271.578437 257.818125 
C 271.578437 254.070805 270.089612 250.476461 267.439856 247.826706 
C 264.790101 245.176951 261.195757 243.688125 257.448437 243.688125 
C 253.701118 243.688125 250.106774 245.176951 247.457019 247.826706 
C 244.807263 250.476461 243.318437 254.070805 243.318437 257.818125 
C 243.318437 261.565445 244.807263 265.159789 247.457019 267.809544 
C 250.106774 270.459299 253.701118 271.948125 257.448437 271.948125 
z
" clip-path="url(#pc57a129c09)" style="fill: #440154; stroke: #000000; stroke-linejoin: miter"/>
   </g>
   <g id="patch_95">
    <path d="M 288.848437 271.948125 
C 292.595757 271.948125 296.190101 270.459299 298.839856 267.809544 
C 301.489612 265.159789 302.978437 261.565445 302.978437 257.818125 
C 302.978437 254.070805 301.489612 250.476461 298.839856 247.826706 
C 296.190101 245.176951 292.595757 243.688125 288.848437 243.688125 
C 285.101118 243.688125 281.506774 245.176951 278.857019 247.826706 
C 276.207263 250.476461 274.718437 254.070805 274.718437 257.818125 
C 274.718437 261.565445 276.207263 265.159789 278.857019 267.809544 
C 281.506774 270.459299 285.101118 271.948125 288.848437 271.948125 
z
" clip-path="url(#pc57a129c09)" style="fill: #440154; stroke: #000000; stroke-linejoin: miter"/>
   </g>
   <g id="patch_96">
    <path d="M 320.248437 271.948125 
C 323.995757 271.948125 327.590101 270.459299 330.239856 267.809544 
C 332.889612 265.159789 334.378437 261.565445 334.378437 257.818125 
C 334.378437 254.070805 332.889612 250.476461 330.239856 247.826706 
C 327.590101 245.176951 323.995757 243.688125 320.248437 243.688125 
C 316.501118 243.688125 312.906774 245.176951 310.257019 247.826706 
C 307.607263 250.476461 306.118437 254.070805 306.118437 257.818125 
C 306.118437 261.565445 307.607263 265.159789 310.257019 267.809544 
C 312.906774 270.459299 316.501118 271.948125 320.248437 271.948125 
z
" clip-path="url(#pc57a129c09)" style="fill: #9bd93c; stroke: #000000; stroke-linejoin: miter"/>
   </g>
   <g id="patch_97">
    <path d="M 351.648438 271.948125 
C 355.395757 271.948125 358.990101 270.459299 361.639856 267.809544 
C 364.289612 265.159789 365.778437 261.565445 365.778437 257.818125 
C 365.778437 254.070805 364.289612 250.476461 361.639856 247.826706 
C 358.990101 245.176951 355.395757 243.688125 351.648438 243.688125 
C 347.901118 243.688125 344.306774 245.176951 341.657019 247.826706 
C 339.007263 250.476461 337.518438 254.070805 337.518438 257.818125 
C 337.518438 261.565445 339.007263 265.159789 341.657019 267.809544 
C 344.306774 270.459299 347.901118 271.948125 351.648438 271.948125 
z
" clip-path="url(#pc57a129c09)" style="fill: #9bd93c; stroke: #000000; stroke-linejoin: miter"/>
   </g>
   <g id="patch_98">
    <path d="M 383.048437 271.948125 
C 386.795757 271.948125 390.390101 270.459299 393.039856 267.809544 
C 395.689612 265.159789 397.178437 261.565445 397.178437 257.818125 
C 397.178437 254.070805 395.689612 250.476461 393.039856 247.826706 
C 390.390101 245.176951 386.795757 243.688125 383.048437 243.688125 
C 379.301118 243.688125 375.706774 245.176951 373.057019 247.826706 
C 370.407263 250.476461 368.918437 254.070805 368.918437 257.818125 
C 368.918437 261.565445 370.407263 265.159789 373.057019 267.809544 
C 375.706774 270.459299 379.301118 271.948125 383.048437 271.948125 
z
" clip-path="url(#pc57a129c09)" style="fill: #9bd93c; stroke: #000000; stroke-linejoin: miter"/>
   </g>
   <g id="matplotlib.axis_1">
    <g id="xtick_1">
     <g id="line2d_1">
      <defs>
       <path id="mc10c82cbfa" d="M 0 0 
L 0 3.5 
" style="stroke: #000000; stroke-width: 0.8"/>
      </defs>
      <g>
       <use xlink:href="#mc10c82cbfa" x="37.648438" y="273.518125" style="stroke: #000000; stroke-width: 0.8"/>
      </g>
     </g>
     <g id="text_1">
      <!-- 1 -->
      <g transform="translate(34.467188 288.115781) scale(0.1 -0.1)">
       <defs>
        <path id="DejaVuSans-14" d="M 794 531 
L 1825 531 
L 1825 4091 
L 703 3866 
L 703 4441 
L 1819 4666 
L 2450 4666 
L 2450 531 
L 3481 531 
L 3481 0 
L 794 0 
L 794 531 
z
" transform="scale(0.015625)"/>
       </defs>
       <use xlink:href="#DejaVuSans-14"/>
      </g>
     </g>
    </g>
    <g id="xtick_2">
     <g id="line2d_2">
      <g>
       <use xlink:href="#mc10c82cbfa" x="69.048438" y="273.518125" style="stroke: #000000; stroke-width: 0.8"/>
      </g>
     </g>
     <g id="text_2">
      <!-- 2 -->
      <g transform="translate(65.867188 288.115781) scale(0.1 -0.1)">
       <defs>
        <path id="DejaVuSans-15" d="M 1228 531 
L 3431 531 
L 3431 0 
L 469 0 
L 469 531 
Q 828 903 1448 1529 
Q 2069 2156 2228 2338 
Q 2531 2678 2651 2914 
Q 2772 3150 2772 3378 
Q 2772 3750 2511 3984 
Q 2250 4219 1831 4219 
Q 1534 4219 1204 4116 
Q 875 4013 500 3803 
L 500 4441 
Q 881 4594 1212 4672 
Q 1544 4750 1819 4750 
Q 2544 4750 2975 4387 
Q 3406 4025 3406 3419 
Q 3406 3131 3298 2873 
Q 3191 2616 2906 2266 
Q 2828 2175 2409 1742 
Q 1991 1309 1228 531 
z
" transform="scale(0.015625)"/>
       </defs>
       <use xlink:href="#DejaVuSans-15"/>
      </g>
     </g>
    </g>
    <g id="xtick_3">
     <g id="line2d_3">
      <g>
       <use xlink:href="#mc10c82cbfa" x="100.448437" y="273.518125" style="stroke: #000000; stroke-width: 0.8"/>
      </g>
     </g>
     <g id="text_3">
      <!-- 3 -->
      <g transform="translate(97.267187 288.115781) scale(0.1 -0.1)">
       <defs>
        <path id="DejaVuSans-16" d="M 2597 2516 
Q 3050 2419 3304 2112 
Q 3559 1806 3559 1356 
Q 3559 666 3084 287 
Q 2609 -91 1734 -91 
Q 1441 -91 1130 -33 
Q 819 25 488 141 
L 488 750 
Q 750 597 1062 519 
Q 1375 441 1716 441 
Q 2309 441 2620 675 
Q 2931 909 2931 1356 
Q 2931 1769 2642 2001 
Q 2353 2234 1838 2234 
L 1294 2234 
L 1294 2753 
L 1863 2753 
Q 2328 2753 2575 2939 
Q 2822 3125 2822 3475 
Q 2822 3834 2567 4026 
Q 2313 4219 1838 4219 
Q 1578 4219 1281 4162 
Q 984 4106 628 3988 
L 628 4550 
Q 988 4650 1302 4700 
Q 1616 4750 1894 4750 
Q 2613 4750 3031 4423 
Q 3450 4097 3450 3541 
Q 3450 3153 3228 2886 
Q 3006 2619 2597 2516 
z
" transform="scale(0.015625)"/>
       </defs>
       <use xlink:href="#DejaVuSans-16"/>
      </g>
     </g>
    </g>
    <g id="xtick_4">
     <g id="line2d_4">
      <g>
       <use xlink:href="#mc10c82cbfa" x="131.848437" y="273.518125" style="stroke: #000000; stroke-width: 0.8"/>
      </g>
     </g>
     <g id="text_4">
      <!-- 4 -->
      <g transform="translate(128.667187 288.115781) scale(0.1 -0.1)">
       <defs>
        <path id="DejaVuSans-17" d="M 2419 4116 
L 825 1625 
L 2419 1625 
L 2419 4116 
z
M 2253 4666 
L 3047 4666 
L 3047 1625 
L 3713 1625 
L 3713 1100 
L 3047 1100 
L 3047 0 
L 2419 0 
L 2419 1100 
L 313 1100 
L 313 1709 
L 2253 4666 
z
" transform="scale(0.015625)"/>
       </defs>
       <use xlink:href="#DejaVuSans-17"/>
      </g>
     </g>
    </g>
    <g id="xtick_5">
     <g id="line2d_5">
      <g>
       <use xlink:href="#mc10c82cbfa" x="163.248437" y="273.518125" style="stroke: #000000; stroke-width: 0.8"/>
      </g>
     </g>
     <g id="text_5">
      <!-- 5 -->
      <g transform="translate(160.067187 288.115781) scale(0.1 -0.1)">
       <defs>
        <path id="DejaVuSans-18" d="M 691 4666 
L 3169 4666 
L 3169 4134 
L 1269 4134 
L 1269 2991 
Q 1406 3038 1543 3061 
Q 1681 3084 1819 3084 
Q 2600 3084 3056 2656 
Q 3513 2228 3513 1497 
Q 3513 744 3044 326 
Q 2575 -91 1722 -91 
Q 1428 -91 1123 -41 
Q 819 9 494 109 
L 494 744 
Q 775 591 1075 516 
Q 1375 441 1709 441 
Q 2250 441 2565 725 
Q 2881 1009 2881 1497 
Q 2881 1984 2565 2268 
Q 2250 2553 1709 2553 
Q 1456 2553 1204 2497 
Q 953 2441 691 2322 
L 691 4666 
z
" transform="scale(0.015625)"/>
       </defs>
       <use xlink:href="#DejaVuSans-18"/>
      </g>
     </g>
    </g>
    <g id="xtick_6">
     <g id="line2d_6">
      <g>
       <use xlink:href="#mc10c82cbfa" x="194.648438" y="273.518125" style="stroke: #000000; stroke-width: 0.8"/>
      </g>
     </g>
     <g id="text_6">
      <!-- 6 -->
      <g transform="translate(191.467187 288.115781) scale(0.1 -0.1)">
       <defs>
        <path id="DejaVuSans-19" d="M 2113 2584 
Q 1688 2584 1439 2293 
Q 1191 2003 1191 1497 
Q 1191 994 1439 701 
Q 1688 409 2113 409 
Q 2538 409 2786 701 
Q 3034 994 3034 1497 
Q 3034 2003 2786 2293 
Q 2538 2584 2113 2584 
z
M 3366 4563 
L 3366 3988 
Q 3128 4100 2886 4159 
Q 2644 4219 2406 4219 
Q 1781 4219 1451 3797 
Q 1122 3375 1075 2522 
Q 1259 2794 1537 2939 
Q 1816 3084 2150 3084 
Q 2853 3084 3261 2657 
Q 3669 2231 3669 1497 
Q 3669 778 3244 343 
Q 2819 -91 2113 -91 
Q 1303 -91 875 529 
Q 447 1150 447 2328 
Q 447 3434 972 4092 
Q 1497 4750 2381 4750 
Q 2619 4750 2861 4703 
Q 3103 4656 3366 4563 
z
" transform="scale(0.015625)"/>
       </defs>
       <use xlink:href="#DejaVuSans-19"/>
      </g>
     </g>
    </g>
    <g id="xtick_7">
     <g id="line2d_7">
      <g>
       <use xlink:href="#mc10c82cbfa" x="226.048437" y="273.518125" style="stroke: #000000; stroke-width: 0.8"/>
      </g>
     </g>
     <g id="text_7">
      <!-- 7 -->
      <g transform="translate(222.867187 288.115781) scale(0.1 -0.1)">
       <defs>
        <path id="DejaVuSans-1a" d="M 525 4666 
L 3525 4666 
L 3525 4397 
L 1831 0 
L 1172 0 
L 2766 4134 
L 525 4134 
L 525 4666 
z
" transform="scale(0.015625)"/>
       </defs>
       <use xlink:href="#DejaVuSans-1a"/>
      </g>
     </g>
    </g>
    <g id="xtick_8">
     <g id="line2d_8">
      <g>
       <use xlink:href="#mc10c82cbfa" x="257.448437" y="273.518125" style="stroke: #000000; stroke-width: 0.8"/>
      </g>
     </g>
     <g id="text_8">
      <!-- 8 -->
      <g transform="translate(254.267187 288.115781) scale(0.1 -0.1)">
       <defs>
        <path id="DejaVuSans-1b" d="M 2034 2216 
Q 1584 2216 1326 1975 
Q 1069 1734 1069 1313 
Q 1069 891 1326 650 
Q 1584 409 2034 409 
Q 2484 409 2743 651 
Q 3003 894 3003 1313 
Q 3003 1734 2745 1975 
Q 2488 2216 2034 2216 
z
M 1403 2484 
Q 997 2584 770 2862 
Q 544 3141 544 3541 
Q 544 4100 942 4425 
Q 1341 4750 2034 4750 
Q 2731 4750 3128 4425 
Q 3525 4100 3525 3541 
Q 3525 3141 3298 2862 
Q 3072 2584 2669 2484 
Q 3125 2378 3379 2068 
Q 3634 1759 3634 1313 
Q 3634 634 3220 271 
Q 2806 -91 2034 -91 
Q 1263 -91 848 271 
Q 434 634 434 1313 
Q 434 1759 690 2068 
Q 947 2378 1403 2484 
z
M 1172 3481 
Q 1172 3119 1398 2916 
Q 1625 2713 2034 2713 
Q 2441 2713 2670 2916 
Q 2900 3119 2900 3481 
Q 2900 3844 2670 4047 
Q 2441 4250 2034 4250 
Q 1625 4250 1398 4047 
Q 1172 3844 1172 3481 
z
" transform="scale(0.015625)"/>
       </defs>
       <use xlink:href="#DejaVuSans-1b"/>
      </g>
     </g>
    </g>
    <g id="xtick_9">
     <g id="line2d_9">
      <g>
       <use xlink:href="#mc10c82cbfa" x="288.848437" y="273.518125" style="stroke: #000000; stroke-width: 0.8"/>
      </g>
     </g>
     <g id="text_9">
      <!-- 9 -->
      <g transform="translate(285.667188 288.115781) scale(0.1 -0.1)">
       <defs>
        <path id="DejaVuSans-1c" d="M 703 97 
L 703 672 
Q 941 559 1184 500 
Q 1428 441 1663 441 
Q 2288 441 2617 861 
Q 2947 1281 2994 2138 
Q 2813 1869 2534 1725 
Q 2256 1581 1919 1581 
Q 1219 1581 811 2004 
Q 403 2428 403 3163 
Q 403 3881 828 4315 
Q 1253 4750 1959 4750 
Q 2769 4750 3195 4129 
Q 3622 3509 3622 2328 
Q 3622 1225 3098 567 
Q 2575 -91 1691 -91 
Q 1453 -91 1209 -44 
Q 966 3 703 97 
z
M 1959 2075 
Q 2384 2075 2632 2365 
Q 2881 2656 2881 3163 
Q 2881 3666 2632 3958 
Q 2384 4250 1959 4250 
Q 1534 4250 1286 3958 
Q 1038 3666 1038 3163 
Q 1038 2656 1286 2365 
Q 1534 2075 1959 2075 
z
" transform="scale(0.015625)"/>
       </defs>
       <use xlink:href="#DejaVuSans-1c"/>
      </g>
     </g>
    </g>
    <g id="xtick_10">
     <g id="line2d_10">
      <g>
       <use xlink:href="#mc10c82cbfa" x="320.248437" y="273.518125" style="stroke: #000000; stroke-width: 0.8"/>
      </g>
     </g>
     <g id="text_10">
      <!-- 10 -->
      <g transform="translate(313.885937 288.115781) scale(0.1 -0.1)">
       <defs>
        <path id="DejaVuSans-13" d="M 2034 4250 
Q 1547 4250 1301 3770 
Q 1056 3291 1056 2328 
Q 1056 1369 1301 889 
Q 1547 409 2034 409 
Q 2525 409 2770 889 
Q 3016 1369 3016 2328 
Q 3016 3291 2770 3770 
Q 2525 4250 2034 4250 
z
M 2034 4750 
Q 2819 4750 3233 4129 
Q 3647 3509 3647 2328 
Q 3647 1150 3233 529 
Q 2819 -91 2034 -91 
Q 1250 -91 836 529 
Q 422 1150 422 2328 
Q 422 3509 836 4129 
Q 1250 4750 2034 4750 
z
" transform="scale(0.015625)"/>
       </defs>
       <use xlink:href="#DejaVuSans-14"/>
       <use xlink:href="#DejaVuSans-13" transform="translate(63.625 0)"/>
      </g>
     </g>
    </g>
    <g id="xtick_11">
     <g id="line2d_11">
      <g>
       <use xlink:href="#mc10c82cbfa" x="351.648438" y="273.518125" style="stroke: #000000; stroke-width: 0.8"/>
      </g>
     </g>
     <g id="text_11">
      <!-- 11 -->
      <g transform="translate(345.285937 288.115781) scale(0.1 -0.1)">
       <use xlink:href="#DejaVuSans-14"/>
       <use xlink:href="#DejaVuSans-14" transform="translate(63.625 0)"/>
      </g>
     </g>
    </g>
    <g id="xtick_12">
     <g id="line2d_12">
      <g>
       <use xlink:href="#mc10c82cbfa" x="383.048437" y="273.518125" style="stroke: #000000; stroke-width: 0.8"/>
      </g>
     </g>
     <g id="text_12">
      <!-- 12 -->
      <g transform="translate(376.685937 288.115781) scale(0.1 -0.1)">
       <use xlink:href="#DejaVuSans-14"/>
       <use xlink:href="#DejaVuSans-15" transform="translate(63.625 0)"/>
      </g>
     </g>
    </g>
   </g>
   <g id="matplotlib.axis_2">
    <g id="ytick_1">
     <g id="line2d_13">
      <defs>
       <path id="m4f2ad0e063" d="M 0 0 
L -3.5 0 
" style="stroke: #000000; stroke-width: 0.8"/>
      </defs>
      <g>
       <use xlink:href="#m4f2ad0e063" x="21.948438" y="38.018125" style="stroke: #000000; stroke-width: 0.8"/>
      </g>
     </g>
     <g id="text_13">
      <!-- A -->
      <g transform="translate(8.107813 41.816953) scale(0.1 -0.1)">
       <defs>
        <path id="DejaVuSans-24" d="M 2188 4044 
L 1331 1722 
L 3047 1722 
L 2188 4044 
z
M 1831 4666 
L 2547 4666 
L 4325 0 
L 3669 0 
L 3244 1197 
L 1141 1197 
L 716 0 
L 50 0 
L 1831 4666 
z
" transform="scale(0.015625)"/>
       </defs>
       <use xlink:href="#DejaVuSans-24"/>
      </g>
     </g>
    </g>
    <g id="ytick_2">
     <g id="line2d_14">
      <g>
       <use xlink:href="#m4f2ad0e063" x="21.948438" y="69.418125" style="stroke: #000000; stroke-width: 0.8"/>
      </g>
     </g>
     <g id="text_14">
      <!-- B -->
      <g transform="translate(8.0875 73.216953) scale(0.1 -0.1)">
       <defs>
        <path id="DejaVuSans-25" d="M 1259 2228 
L 1259 519 
L 2272 519 
Q 2781 519 3026 730 
Q 3272 941 3272 1375 
Q 3272 1813 3026 2020 
Q 2781 2228 2272 2228 
L 1259 2228 
z
M 1259 4147 
L 1259 2741 
L 2194 2741 
Q 2656 2741 2882 2914 
Q 3109 3088 3109 3444 
Q 3109 3797 2882 3972 
Q 2656 4147 2194 4147 
L 1259 4147 
z
M 628 4666 
L 2241 4666 
Q 2963 4666 3353 4366 
Q 3744 4066 3744 3513 
Q 3744 3084 3544 2831 
Q 3344 2578 2956 2516 
Q 3422 2416 3680 2098 
Q 3938 1781 3938 1306 
Q 3938 681 3513 340 
Q 3088 0 2303 0 
L 628 0 
L 628 4666 
z
" transform="scale(0.015625)"/>
       </defs>
       <use xlink:href="#DejaVuSans-25"/>
      </g>
     </g>
    </g>
    <g id="ytick_3">
     <g id="line2d_15">
      <g>
       <use xlink:href="#m4f2ad0e063" x="21.948438" y="100.818125" style="stroke: #000000; stroke-width: 0.8"/>
      </g>
     </g>
     <g id="text_15">
      <!-- C -->
      <g transform="translate(7.965625 104.616953) scale(0.1 -0.1)">
       <defs>
        <path id="DejaVuSans-26" d="M 4122 4306 
L 4122 3641 
Q 3803 3938 3442 4084 
Q 3081 4231 2675 4231 
Q 1875 4231 1450 3742 
Q 1025 3253 1025 2328 
Q 1025 1406 1450 917 
Q 1875 428 2675 428 
Q 3081 428 3442 575 
Q 3803 722 4122 1019 
L 4122 359 
Q 3791 134 3420 21 
Q 3050 -91 2638 -91 
Q 1578 -91 968 557 
Q 359 1206 359 2328 
Q 359 3453 968 4101 
Q 1578 4750 2638 4750 
Q 3056 4750 3426 4639 
Q 3797 4528 4122 4306 
z
" transform="scale(0.015625)"/>
       </defs>
       <use xlink:href="#DejaVuSans-26"/>
      </g>
     </g>
    </g>
    <g id="ytick_4">
     <g id="line2d_16">
      <g>
       <use xlink:href="#m4f2ad0e063" x="21.948438" y="132.218125" style="stroke: #000000; stroke-width: 0.8"/>
      </g>
     </g>
     <g id="text_16">
      <!-- D -->
      <g transform="translate(7.248438 136.016953) scale(0.1 -0.1)">
       <defs>
        <path id="DejaVuSans-27" d="M 1259 4147 
L 1259 519 
L 2022 519 
Q 2988 519 3436 956 
Q 3884 1394 3884 2338 
Q 3884 3275 3436 3711 
Q 2988 4147 2022 4147 
L 1259 4147 
z
M 628 4666 
L 1925 4666 
Q 3281 4666 3915 4102 
Q 4550 3538 4550 2338 
Q 4550 1131 3912 565 
Q 3275 0 1925 0 
L 628 0 
L 628 4666 
z
" transform="scale(0.015625)"/>
       </defs>
       <use xlink:href="#DejaVuSans-27"/>
      </g>
     </g>
    </g>
    <g id="ytick_5">
     <g id="line2d_17">
      <g>
       <use xlink:href="#m4f2ad0e063" x="21.948438" y="163.618125" style="stroke: #000000; stroke-width: 0.8"/>
      </g>
     </g>
     <g id="text_17">
      <!-- E -->
      <g transform="translate(8.629688 167.416953) scale(0.1 -0.1)">
       <defs>
        <path id="DejaVuSans-28" d="M 628 4666 
L 3578 4666 
L 3578 4134 
L 1259 4134 
L 1259 2753 
L 3481 2753 
L 3481 2222 
L 1259 2222 
L 1259 531 
L 3634 531 
L 3634 0 
L 628 0 
L 628 4666 
z
" transform="scale(0.015625)"/>
       </defs>
       <use xlink:href="#DejaVuSans-28"/>
      </g>
     </g>
    </g>
    <g id="ytick_6">
     <g id="line2d_18">
      <g>
       <use xlink:href="#m4f2ad0e063" x="21.948438" y="195.018125" style="stroke: #000000; stroke-width: 0.8"/>
      </g>
     </g>
     <g id="text_18">
      <!-- F -->
      <g transform="translate(9.196875 198.816953) scale(0.1 -0.1)">
       <defs>
        <path id="DejaVuSans-29" d="M 628 4666 
L 3309 4666 
L 3309 4134 
L 1259 4134 
L 1259 2759 
L 3109 2759 
L 3109 2228 
L 1259 2228 
L 1259 0 
L 628 0 
L 628 4666 
z
" transform="scale(0.015625)"/>
       </defs>
       <use xlink:href="#DejaVuSans-29"/>
      </g>
     </g>
    </g>
    <g id="ytick_7">
     <g id="line2d_19">
      <g>
       <use xlink:href="#m4f2ad0e063" x="21.948438" y="226.418125" style="stroke: #000000; stroke-width: 0.8"/>
      </g>
     </g>
     <g id="text_19">
      <!-- G -->
      <g transform="translate(7.2 230.216953) scale(0.1 -0.1)">
       <defs>
        <path id="DejaVuSans-2a" d="M 3809 666 
L 3809 1919 
L 2778 1919 
L 2778 2438 
L 4434 2438 
L 4434 434 
Q 4069 175 3628 42 
Q 3188 -91 2688 -91 
Q 1594 -91 976 548 
Q 359 1188 359 2328 
Q 359 3472 976 4111 
Q 1594 4750 2688 4750 
Q 3144 4750 3555 4637 
Q 3966 4525 4313 4306 
L 4313 3634 
Q 3963 3931 3569 4081 
Q 3175 4231 2741 4231 
Q 1884 4231 1454 3753 
Q 1025 3275 1025 2328 
Q 1025 1384 1454 906 
Q 1884 428 2741 428 
Q 3075 428 3337 486 
Q 3600 544 3809 666 
z
" transform="scale(0.015625)"/>
       </defs>
       <use xlink:href="#DejaVuSans-2a"/>
      </g>
     </g>
    </g>
    <g id="ytick_8">
     <g id="line2d_20">
      <g>
       <use xlink:href="#m4f2ad0e063" x="21.948438" y="257.818125" style="stroke: #000000; stroke-width: 0.8"/>
      </g>
     </g>
     <g id="text_20">
      <!-- H -->
      <g transform="translate(7.428125 261.616953) scale(0.1 -0.1)">
       <defs>
        <path id="DejaVuSans-2b" d="M 628 4666 
L 1259 4666 
L 1259 2753 
L 3553 2753 
L 3553 4666 
L 4184 4666 
L 4184 0 
L 3553 0 
L 3553 2222 
L 1259 2222 
L 1259 0 
L 628 0 
L 628 4666 
z
" transform="scale(0.015625)"/>
       </defs>
       <use xlink:href="#DejaVuSans-2b"/>
      </g>
     </g>
    </g>
   </g>
   <g id="patch_99">
    <path d="M 21.948438 273.518125 
L 21.948438 22.318125 
" style="fill: none; stroke: #000000; stroke-width: 0.8; stroke-linejoin: miter; stroke-linecap: square"/>
   </g>
   <g id="patch_100">
    <path d="M 398.748438 273.518125 
L 398.748438 22.318125 
" style="fill: none; stroke: #000000; stroke-width: 0.8; stroke-linejoin: miter; stroke-linecap: square"/>
   </g>
   <g id="patch_101">
    <path d="M 21.948438 273.518125 
L 398.748437 273.518125 
" style="fill: none; stroke: #000000; stroke-width: 0.8; stroke-linejoin: miter; stroke-linecap: square"/>
   </g>
   <g id="patch_102">
    <path d="M 21.948438 22.318125 
L 398.748437 22.318125 
" style="fill: none; stroke: #000000; stroke-width: 0.8; stroke-linejoin: miter; stroke-linecap: square"/>
   </g>
   <g id="text_21">
    <!-- inducible_spacerlength -->
    <g transform="translate(140.939688 16.318125) scale(0.12 -0.12)">
     <defs>
      <path id="DejaVuSans-4c" d="M 603 3500 
L 1178 3500 
L 1178 0 
L 603 0 
L 603 3500 
z
M 603 4863 
L 1178 4863 
L 1178 4134 
L 603 4134 
L 603 4863 
z
" transform="scale(0.015625)"/>
      <path id="DejaVuSans-51" d="M 3513 2113 
L 3513 0 
L 2938 0 
L 2938 2094 
Q 2938 2591 2744 2837 
Q 2550 3084 2163 3084 
Q 1697 3084 1428 2787 
Q 1159 2491 1159 1978 
L 1159 0 
L 581 0 
L 581 3500 
L 1159 3500 
L 1159 2956 
Q 1366 3272 1645 3428 
Q 1925 3584 2291 3584 
Q 2894 3584 3203 3211 
Q 3513 2838 3513 2113 
z
" transform="scale(0.015625)"/>
      <path id="DejaVuSans-47" d="M 2906 2969 
L 2906 4863 
L 3481 4863 
L 3481 0 
L 2906 0 
L 2906 525 
Q 2725 213 2448 61 
Q 2172 -91 1784 -91 
Q 1150 -91 751 415 
Q 353 922 353 1747 
Q 353 2572 751 3078 
Q 1150 3584 1784 3584 
Q 2172 3584 2448 3432 
Q 2725 3281 2906 2969 
z
M 947 1747 
Q 947 1113 1208 752 
Q 1469 391 1925 391 
Q 2381 391 2643 752 
Q 2906 1113 2906 1747 
Q 2906 2381 2643 2742 
Q 2381 3103 1925 3103 
Q 1469 3103 1208 2742 
Q 947 2381 947 1747 
z
" transform="scale(0.015625)"/>
      <path id="DejaVuSans-58" d="M 544 1381 
L 544 3500 
L 1119 3500 
L 1119 1403 
Q 1119 906 1312 657 
Q 1506 409 1894 409 
Q 2359 409 2629 706 
Q 2900 1003 2900 1516 
L 2900 3500 
L 3475 3500 
L 3475 0 
L 2900 0 
L 2900 538 
Q 2691 219 2414 64 
Q 2138 -91 1772 -91 
Q 1169 -91 856 284 
Q 544 659 544 1381 
z
M 1991 3584 
L 1991 3584 
z
" transform="scale(0.015625)"/>
      <path id="DejaVuSans-46" d="M 3122 3366 
L 3122 2828 
Q 2878 2963 2633 3030 
Q 2388 3097 2138 3097 
Q 1578 3097 1268 2742 
Q 959 2388 959 1747 
Q 959 1106 1268 751 
Q 1578 397 2138 397 
Q 2388 397 2633 464 
Q 2878 531 3122 666 
L 3122 134 
Q 2881 22 2623 -34 
Q 2366 -91 2075 -91 
Q 1284 -91 818 406 
Q 353 903 353 1747 
Q 353 2603 823 3093 
Q 1294 3584 2113 3584 
Q 2378 3584 2631 3529 
Q 2884 3475 3122 3366 
z
" transform="scale(0.015625)"/>
      <path id="DejaVuSans-45" d="M 3116 1747 
Q 3116 2381 2855 2742 
Q 2594 3103 2138 3103 
Q 1681 3103 1420 2742 
Q 1159 2381 1159 1747 
Q 1159 1113 1420 752 
Q 1681 391 2138 391 
Q 2594 391 2855 752 
Q 3116 1113 3116 1747 
z
M 1159 2969 
Q 1341 3281 1617 3432 
Q 1894 3584 2278 3584 
Q 2916 3584 3314 3078 
Q 3713 2572 3713 1747 
Q 3713 922 3314 415 
Q 2916 -91 2278 -91 
Q 1894 -91 1617 61 
Q 1341 213 1159 525 
L 1159 0 
L 581 0 
L 581 4863 
L 1159 4863 
L 1159 2969 
z
" transform="scale(0.015625)"/>
      <path id="DejaVuSans-4f" d="M 603 4863 
L 1178 4863 
L 1178 0 
L 603 0 
L 603 4863 
z
" transform="scale(0.015625)"/>
      <path id="DejaVuSans-48" d="M 3597 1894 
L 3597 1613 
L 953 1613 
Q 991 1019 1311 708 
Q 1631 397 2203 397 
Q 2534 397 2845 478 
Q 3156 559 3463 722 
L 3463 178 
Q 3153 47 2828 -22 
Q 2503 -91 2169 -91 
Q 1331 -91 842 396 
Q 353 884 353 1716 
Q 353 2575 817 3079 
Q 1281 3584 2069 3584 
Q 2775 3584 3186 3129 
Q 3597 2675 3597 1894 
z
M 3022 2063 
Q 3016 2534 2758 2815 
Q 2500 3097 2075 3097 
Q 1594 3097 1305 2825 
Q 1016 2553 972 2059 
L 3022 2063 
z
" transform="scale(0.015625)"/>
      <path id="DejaVuSans-42" d="M 3263 -1063 
L 3263 -1509 
L -63 -1509 
L -63 -1063 
L 3263 -1063 
z
" transform="scale(0.015625)"/>
      <path id="DejaVuSans-56" d="M 2834 3397 
L 2834 2853 
Q 2591 2978 2328 3040 
Q 2066 3103 1784 3103 
Q 1356 3103 1142 2972 
Q 928 2841 928 2578 
Q 928 2378 1081 2264 
Q 1234 2150 1697 2047 
L 1894 2003 
Q 2506 1872 2764 1633 
Q 3022 1394 3022 966 
Q 3022 478 2636 193 
Q 2250 -91 1575 -91 
Q 1294 -91 989 -36 
Q 684 19 347 128 
L 347 722 
Q 666 556 975 473 
Q 1284 391 1588 391 
Q 1994 391 2212 530 
Q 2431 669 2431 922 
Q 2431 1156 2273 1281 
Q 2116 1406 1581 1522 
L 1381 1569 
Q 847 1681 609 1914 
Q 372 2147 372 2553 
Q 372 3047 722 3315 
Q 1072 3584 1716 3584 
Q 2034 3584 2315 3537 
Q 2597 3491 2834 3397 
z
" transform="scale(0.015625)"/>
      <path id="DejaVuSans-53" d="M 1159 525 
L 1159 -1331 
L 581 -1331 
L 581 3500 
L 1159 3500 
L 1159 2969 
Q 1341 3281 1617 3432 
Q 1894 3584 2278 3584 
Q 2916 3584 3314 3078 
Q 3713 2572 3713 1747 
Q 3713 922 3314 415 
Q 2916 -91 2278 -91 
Q 1894 -91 1617 61 
Q 1341 213 1159 525 
z
M 3116 1747 
Q 3116 2381 2855 2742 
Q 2594 3103 2138 3103 
Q 1681 3103 1420 2742 
Q 1159 2381 1159 1747 
Q 1159 1113 1420 752 
Q 1681 391 2138 391 
Q 2594 391 2855 752 
Q 3116 1113 3116 1747 
z
" transform="scale(0.015625)"/>
      <path id="DejaVuSans-44" d="M 2194 1759 
Q 1497 1759 1228 1600 
Q 959 1441 959 1056 
Q 959 750 1161 570 
Q 1363 391 1709 391 
Q 2188 391 2477 730 
Q 2766 1069 2766 1631 
L 2766 1759 
L 2194 1759 
z
M 3341 1997 
L 3341 0 
L 2766 0 
L 2766 531 
Q 2569 213 2275 61 
Q 1981 -91 1556 -91 
Q 1019 -91 701 211 
Q 384 513 384 1019 
Q 384 1609 779 1909 
Q 1175 2209 1959 2209 
L 2766 2209 
L 2766 2266 
Q 2766 2663 2505 2880 
Q 2244 3097 1772 3097 
Q 1472 3097 1187 3025 
Q 903 2953 641 2809 
L 641 3341 
Q 956 3463 1253 3523 
Q 1550 3584 1831 3584 
Q 2591 3584 2966 3190 
Q 3341 2797 3341 1997 
z
" transform="scale(0.015625)"/>
      <path id="DejaVuSans-55" d="M 2631 2963 
Q 2534 3019 2420 3045 
Q 2306 3072 2169 3072 
Q 1681 3072 1420 2755 
Q 1159 2438 1159 1844 
L 1159 0 
L 581 0 
L 581 3500 
L 1159 3500 
L 1159 2956 
Q 1341 3275 1631 3429 
Q 1922 3584 2338 3584 
Q 2397 3584 2469 3576 
Q 2541 3569 2628 3553 
L 2631 2963 
z
" transform="scale(0.015625)"/>
      <path id="DejaVuSans-4a" d="M 2906 1791 
Q 2906 2416 2648 2759 
Q 2391 3103 1925 3103 
Q 1463 3103 1205 2759 
Q 947 2416 947 1791 
Q 947 1169 1205 825 
Q 1463 481 1925 481 
Q 2391 481 2648 825 
Q 2906 1169 2906 1791 
z
M 3481 434 
Q 3481 -459 3084 -895 
Q 2688 -1331 1869 -1331 
Q 1566 -1331 1297 -1286 
Q 1028 -1241 775 -1147 
L 775 -588 
Q 1028 -725 1275 -790 
Q 1522 -856 1778 -856 
Q 2344 -856 2625 -561 
Q 2906 -266 2906 331 
L 2906 616 
Q 2728 306 2450 153 
Q 2172 0 1784 0 
Q 1141 0 747 490 
Q 353 981 353 1791 
Q 353 2603 747 3093 
Q 1141 3584 1784 3584 
Q 2172 3584 2450 3431 
Q 2728 3278 2906 2969 
L 2906 3500 
L 3481 3500 
L 3481 434 
z
" transform="scale(0.015625)"/>
      <path id="DejaVuSans-57" d="M 1172 4494 
L 1172 3500 
L 2356 3500 
L 2356 3053 
L 1172 3053 
L 1172 1153 
Q 1172 725 1289 603 
Q 1406 481 1766 481 
L 2356 481 
L 2356 0 
L 1766 0 
Q 1100 0 847 248 
Q 594 497 594 1153 
L 594 3053 
L 172 3053 
L 172 3500 
L 594 3500 
L 594 4494 
L 1172 4494 
z
" transform="scale(0.015625)"/>
      <path id="DejaVuSans-4b" d="M 3513 2113 
L 3513 0 
L 2938 0 
L 2938 2094 
Q 2938 2591 2744 2837 
Q 2550 3084 2163 3084 
Q 1697 3084 1428 2787 
Q 1159 2491 1159 1978 
L 1159 0 
L 581 0 
L 581 4863 
L 1159 4863 
L 1159 2956 
Q 1366 3272 1645 3428 
Q 1925 3584 2291 3584 
Q 2894 3584 3203 3211 
Q 3513 2838 3513 2113 
z
" transform="scale(0.015625)"/>
     </defs>
     <use xlink:href="#DejaVuSans-4c"/>
     <use xlink:href="#DejaVuSans-51" transform="translate(27.78125 0)"/>
     <use xlink:href="#DejaVuSans-47" transform="translate(91.15625 0)"/>
     <use xlink:href="#DejaVuSans-58" transform="translate(154.640625 0)"/>
     <use xlink:href="#DejaVuSans-46" transform="translate(218.015625 0)"/>
     <use xlink:href="#DejaVuSans-4c" transform="translate(273 0)"/>
     <use xlink:href="#DejaVuSans-45" transform="translate(300.78125 0)"/>
     <use xlink:href="#DejaVuSans-4f" transform="translate(364.265625 0)"/>
     <use xlink:href="#DejaVuSans-48" transform="translate(392.046875 0)"/>
     <use xlink:href="#DejaVuSans-42" transform="translate(453.578125 0)"/>
     <use xlink:href="#DejaVuSans-56" transform="translate(503.578125 0)"/>
     <use xlink:href="#DejaVuSans-53" transform="translate(555.671875 0)"/>
     <use xlink:href="#DejaVuSans-44" transform="translate(619.15625 0)"/>
     <use xlink:href="#DejaVuSans-46" transform="translate(680.4375 0)"/>
     <use xlink:href="#DejaVuSans-48" transform="translate(735.421875 0)"/>
     <use xlink:href="#DejaVuSans-55" transform="translate(796.953125 0)"/>
     <use xlink:href="#DejaVuSans-4f" transform="translate(838.0625 0)"/>
     <use xlink:href="#DejaVuSans-48" transform="translate(865.84375 0)"/>
     <use xlink:href="#DejaVuSans-51" transform="translate(927.375 0)"/>
     <use xlink:href="#DejaVuSans-4a" transform="translate(990.75 0)"/>
     <use xlink:href="#DejaVuSans-57" transform="translate(1054.234375 0)"/>
     <use xlink:href="#DejaVuSans-4b" transform="translate(1093.4375 0)"/>
    </g>
   </g>
   <g id="legend_1">
    <g id="patch_103">
     <path d="M 405.748438 164.418906 
L 444.110938 164.418906 
Q 446.110938 164.418906 446.110938 162.418906 
L 446.110938 133.417344 
Q 446.110938 131.417344 444.110938 131.417344 
L 405.748438 131.417344 
Q 403.748438 131.417344 403.748438 133.417344 
L 403.748438 162.418906 
Q 403.748438 164.418906 405.748438 164.418906 
z
" style="fill: #ffffff; opacity: 0.8; stroke: #cccccc; stroke-linejoin: miter"/>
    </g>
    <g id="patch_104">
     <path d="M 407.748438 143.015781 
L 427.748438 143.015781 
L 427.748438 136.015781 
L 407.748438 136.015781 
z
" style="fill: #440154; stroke: #000000; stroke-linejoin: miter"/>
    </g>
    <g id="text_22">
     <!-- 0 -->
     <g transform="translate(435.748438 143.015781) scale(0.1 -0.1)">
      <use xlink:href="#DejaVuSans-13"/>
     </g>
    </g>
    <g id="patch_105">
     <path d="M 407.748438 158.016562 
L 427.748438 158.016562 
L 427.748438 151.016562 
L 407.748438 151.016562 
z
" style="fill: #9bd93c; stroke: #000000; stroke-linejoin: miter"/>
    </g>
    <g id="text_23">
     <!-- 2 -->
     <g transform="translate(435.748438 158.016562) scale(0.1 -0.1)">
      <use xlink:href="#DejaVuSans-15"/>
     </g>
    </g>
   </g>
  </g>
 </g>
 <defs>
  <clipPath id="pc57a129c09">
   <rect x="21.948438" y="22.318125" width="376.8" height="251.2"/>
  </clipPath>
 </defs>
</svg>
