<?xml version="1.0" encoding="utf-8" standalone="no"?>
<!DOCTYPE svg PUBLIC "-//W3C//DTD SVG 1.1//EN"
  "http://www.w3.org/Graphics/SVG/1.1/DTD/svg11.dtd">
<svg xmlns:xlink="http://www.w3.org/1999/xlink" width="453.365pt" height="277.95625pt" viewBox="0 0 453.365 277.95625" xmlns="http://www.w3.org/2000/svg" version="1.1">
 <metadata>
  <rdf:RDF xmlns:dc="http://purl.org/dc/elements/1.1/" xmlns:cc="http://creativecommons.org/ns#" xmlns:rdf="http://www.w3.org/1999/02/22-rdf-syntax-ns#">
   <cc:Work>
    <dc:type rdf:resource="http://purl.org/dc/dcmitype/StillImage"/>
    <dc:date>2026-02-26T17:11:34+00:00</dc:date>
    <dc:format>image/svg+xml</dc:format>
    <dc:creator>
     <cc:Agent>
      <dc:title>Matplotlib v3.7.5, https://matplotlib.org/</dc:title>
     </cc:Agent>
    </dc:creator>
   </cc:Work>
  </rdf:RDF>
 </metadata>
 <defs>
  <style type="text/css">*{stroke-linejoin: round; stroke-linecap: butt}</style>
 </defs>
 <g id="figure_1">
  <g id="patch_1">
   <path d="M 0 277.95625 
L 453.365 277.95625 
L 453.365 0 
L 0 0 
z
" style="fill: #ffffff"/>
  </g>
  <g id="axes_1">
   <g id="patch_2">
    <path d="M 21.948438 254.078125 
L 369.588437 254.078125 
L 369.588437 22.318125 
L 21.948438 22.318125 
z
" style="fill: #ffffff"/>
   </g>
   <g id="patch_3">
    <path d="M 36.433437 49.839625 
C 39.890758 49.839625 43.20694 48.466017 45.651635 46.021323 
C 48.09633 43.576628 49.469938 40.260445 49.469938 36.803125 
C 49.469938 33.345805 48.09633 30.029622 45.651635 27.584927 
C 43.20694 25.140233 39.890758 23.766625 36.433437 23.766625 
C 32.976117 23.766625 29.659935 25.140233 27.21524 27.584927 
C 24.770545 30.029622 23.396937 33.345805 23.396937 36.803125 
C 23.396937 40.260445 24.770545 43.576628 27.21524 46.021323 
C 29.659935 48.466017 32.976117 49.839625 36.433437 49.839625 
z
" clip-path="url(#p178d6b86a3)" style="fill: #8000ff; stroke: #000000; stroke-linejoin: miter"/>
   </g>
   <g id="patch_4">
    <path d="M 65.403437 49.839625 
C 68.860758 49.839625 72.17694 48.466017 74.621635 46.021323 
C 77.06633 43.576628 78.439937 40.260445 78.439937 36.803125 
C 78.439937 33.345805 77.06633 30.029622 74.621635 27.584927 
C 72.17694 25.140233 68.860758 23.766625 65.403437 23.766625 
C 61.946117 23.766625 58.629935 25.140233 56.18524 27.584927 
C 53.740545 30.029622 52.366937 33.345805 52.366937 36.803125 
C 52.366937 40.260445 53.740545 43.576628 56.18524 46.021323 
C 58.629935 48.466017 61.946117 49.839625 65.403437 49.839625 
z
" clip-path="url(#p178d6b86a3)" style="fill: #8000ff; stroke: #000000; stroke-linejoin: miter"/>
   </g>
   <g id="patch_5">
    <path d="M 94.373437 49.839625 
C 97.830758 49.839625 101.14694 48.466017 103.591635 46.021323 
C 106.03633 43.576628 107.409937 40.260445 107.409937 36.803125 
C 107.409937 33.345805 106.03633 30.029622 103.591635 27.584927 
C 101.14694 25.140233 97.830758 23.766625 94.373437 23.766625 
C 90.916117 23.766625 87.599935 25.140233 85.15524 27.584927 
C 82.710545 30.029622 81.336937 33.345805 81.336937 36.803125 
C 81.336937 40.260445 82.710545 43.576628 85.15524 46.021323 
C 87.599935 48.466017 90.916117 49.839625 94.373437 49.839625 
z
" clip-path="url(#p178d6b86a3)" style="fill: #8000ff; stroke: #000000; stroke-linejoin: miter"/>
   </g>
   <g id="patch_6">
    <path d="M 123.343437 49.839625 
C 126.800758 49.839625 130.11694 48.466017 132.561635 46.021323 
C 135.00633 43.576628 136.379937 40.260445 136.379937 36.803125 
C 136.379937 33.345805 135.00633 30.029622 132.561635 27.584927 
C 130.11694 25.140233 126.800758 23.766625 123.343437 23.766625 
C 119.886117 23.766625 116.569935 25.140233 114.12524 27.584927 
C 111.680545 30.029622 110.306937 33.345805 110.306937 36.803125 
C 110.306937 40.260445 111.680545 43.576628 114.12524 46.021323 
C 116.569935 48.466017 119.886117 49.839625 123.343437 49.839625 
z
" clip-path="url(#p178d6b86a3)" style="fill: #8000ff; stroke: #000000; stroke-linejoin: miter"/>
   </g>
   <g id="patch_7">
    <path d="M 152.313437 49.839625 
C 155.770758 49.839625 159.08694 48.466017 161.531635 46.021323 
C 163.97633 43.576628 165.349937 40.260445 165.349937 36.803125 
C 165.349937 33.345805 163.97633 30.029622 161.531635 27.584927 
C 159.08694 25.140233 155.770758 23.766625 152.313437 23.766625 
C 148.856117 23.766625 145.539935 25.140233 143.09524 27.584927 
C 140.650545 30.029622 139.276938 33.345805 139.276938 36.803125 
C 139.276938 40.260445 140.650545 43.576628 143.09524 46.021323 
C 145.539935 48.466017 148.856117 49.839625 152.313437 49.839625 
z
" clip-path="url(#p178d6b86a3)" style="fill: #8000ff; stroke: #000000; stroke-linejoin: miter"/>
   </g>
   <g id="patch_8">
    <path d="M 181.283437 49.839625 
C 184.740758 49.839625 188.05694 48.466017 190.501635 46.021323 
C 192.94633 43.576628 194.319937 40.260445 194.319937 36.803125 
C 194.319937 33.345805 192.94633 30.029622 190.501635 27.584927 
C 188.05694 25.140233 184.740758 23.766625 181.283437 23.766625 
C 177.826117 23.766625 174.509935 25.140233 172.06524 27.584927 
C 169.620545 30.029622 168.246938 33.345805 168.246938 36.803125 
C 168.246938 40.260445 169.620545 43.576628 172.06524 46.021323 
C 174.509935 48.466017 177.826117 49.839625 181.283437 49.839625 
z
" clip-path="url(#p178d6b86a3)" style="fill: #8000ff; stroke: #000000; stroke-linejoin: miter"/>
   </g>
   <g id="patch_9">
    <path d="M 210.253437 49.839625 
C 213.710758 49.839625 217.02694 48.466017 219.471635 46.021323 
C 221.91633 43.576628 223.289937 40.260445 223.289937 36.803125 
C 223.289937 33.345805 221.91633 30.029622 219.471635 27.584927 
C 217.02694 25.140233 213.710758 23.766625 210.253437 23.766625 
C 206.796117 23.766625 203.479935 25.140233 201.03524 27.584927 
C 198.590545 30.029622 197.216938 33.345805 197.216938 36.803125 
C 197.216938 40.260445 198.590545 43.576628 201.03524 46.021323 
C 203.479935 48.466017 206.796117 49.839625 210.253437 49.839625 
z
" clip-path="url(#p178d6b86a3)" style="fill: #8000ff; stroke: #000000; stroke-linejoin: miter"/>
   </g>
   <g id="patch_10">
    <path d="M 239.223437 49.839625 
C 242.680758 49.839625 245.99694 48.466017 248.441635 46.021323 
C 250.88633 43.576628 252.259937 40.260445 252.259937 36.803125 
C 252.259937 33.345805 250.88633 30.029622 248.441635 27.584927 
C 245.99694 25.140233 242.680758 23.766625 239.223437 23.766625 
C 235.766117 23.766625 232.449935 25.140233 230.00524 27.584927 
C 227.560545 30.029622 226.186937 33.345805 226.186937 36.803125 
C 226.186937 40.260445 227.560545 43.576628 230.00524 46.021323 
C 232.449935 48.466017 235.766117 49.839625 239.223437 49.839625 
z
" clip-path="url(#p178d6b86a3)" style="fill: #8000ff; stroke: #000000; stroke-linejoin: miter"/>
   </g>
   <g id="patch_11">
    <path d="M 268.193437 49.839625 
C 271.650758 49.839625 274.96694 48.466017 277.411635 46.021323 
C 279.85633 43.576628 281.229937 40.260445 281.229937 36.803125 
C 281.229937 33.345805 279.85633 30.029622 277.411635 27.584927 
C 274.96694 25.140233 271.650758 23.766625 268.193437 23.766625 
C 264.736117 23.766625 261.419935 25.140233 258.97524 27.584927 
C 256.530545 30.029622 255.156937 33.345805 255.156937 36.803125 
C 255.156937 40.260445 256.530545 43.576628 258.97524 46.021323 
C 261.419935 48.466017 264.736117 49.839625 268.193437 49.839625 
z
" clip-path="url(#p178d6b86a3)" style="fill: #8000ff; stroke: #000000; stroke-linejoin: miter"/>
   </g>
   <g id="patch_12">
    <path d="M 297.163437 49.839625 
C 300.620758 49.839625 303.93694 48.466017 306.381635 46.021323 
C 308.82633 43.576628 310.199937 40.260445 310.199937 36.803125 
C 310.199937 33.345805 308.82633 30.029622 306.381635 27.584927 
C 303.93694 25.140233 300.620758 23.766625 297.163437 23.766625 
C 293.706117 23.766625 290.389935 25.140233 287.94524 27.584927 
C 285.500545 30.029622 284.126937 33.345805 284.126937 36.803125 
C 284.126937 40.260445 285.500545 43.576628 287.94524 46.021323 
C 290.389935 48.466017 293.706117 49.839625 297.163437 49.839625 
z
" clip-path="url(#p178d6b86a3)" style="fill: #80ffb4; stroke: #000000; stroke-linejoin: miter"/>
   </g>
   <g id="patch_13">
    <path d="M 326.133438 49.839625 
C 329.590758 49.839625 332.90694 48.466017 335.351635 46.021323 
C 337.79633 43.576628 339.169938 40.260445 339.169938 36.803125 
C 339.169938 33.345805 337.79633 30.029622 335.351635 27.584927 
C 332.90694 25.140233 329.590758 23.766625 326.133438 23.766625 
C 322.676117 23.766625 319.359935 25.140233 316.91524 27.584927 
C 314.470545 30.029622 313.096938 33.345805 313.096938 36.803125 
C 313.096938 40.260445 314.470545 43.576628 316.91524 46.021323 
C 319.359935 48.466017 322.676117 49.839625 326.133438 49.839625 
z
" clip-path="url(#p178d6b86a3)" style="fill: #80ffb4; stroke: #000000; stroke-linejoin: miter"/>
   </g>
   <g id="patch_14">
    <path d="M 355.103437 49.839625 
C 358.560758 49.839625 361.87694 48.466017 364.321635 46.021323 
C 366.76633 43.576628 368.139937 40.260445 368.139937 36.803125 
C 368.139937 33.345805 366.76633 30.029622 364.321635 27.584927 
C 361.87694 25.140233 358.560758 23.766625 355.103437 23.766625 
C 351.646117 23.766625 348.329935 25.140233 345.88524 27.584927 
C 343.440545 30.029622 342.066937 33.345805 342.066937 36.803125 
C 342.066937 40.260445 343.440545 43.576628 345.88524 46.021323 
C 348.329935 48.466017 351.646117 49.839625 355.103437 49.839625 
z
" clip-path="url(#p178d6b86a3)" style="fill: #80ffb4; stroke: #000000; stroke-linejoin: miter"/>
   </g>
   <g id="patch_15">
    <path d="M 36.433437 78.809625 
C 39.890758 78.809625 43.20694 77.436017 45.651635 74.991323 
C 48.09633 72.546628 49.469938 69.230445 49.469938 65.773125 
C 49.469938 62.315805 48.09633 58.999622 45.651635 56.554927 
C 43.20694 54.110233 39.890758 52.736625 36.433437 52.736625 
C 32.976117 52.736625 29.659935 54.110233 27.21524 56.554927 
C 24.770545 58.999622 23.396937 62.315805 23.396937 65.773125 
C 23.396937 69.230445 24.770545 72.546628 27.21524 74.991323 
C 29.659935 77.436017 32.976117 78.809625 36.433437 78.809625 
z
" clip-path="url(#p178d6b86a3)" style="fill: #8000ff; stroke: #000000; stroke-linejoin: miter"/>
   </g>
   <g id="patch_16">
    <path d="M 65.403437 78.809625 
C 68.860758 78.809625 72.17694 77.436017 74.621635 74.991323 
C 77.06633 72.546628 78.439937 69.230445 78.439937 65.773125 
C 78.439937 62.315805 77.06633 58.999622 74.621635 56.554927 
C 72.17694 54.110233 68.860758 52.736625 65.403437 52.736625 
C 61.946117 52.736625 58.629935 54.110233 56.18524 56.554927 
C 53.740545 58.999622 52.366937 62.315805 52.366937 65.773125 
C 52.366937 69.230445 53.740545 72.546628 56.18524 74.991323 
C 58.629935 77.436017 61.946117 78.809625 65.403437 78.809625 
z
" clip-path="url(#p178d6b86a3)" style="fill: #8000ff; stroke: #000000; stroke-linejoin: miter"/>
   </g>
   <g id="patch_17">
    <path d="M 94.373437 78.809625 
C 97.830758 78.809625 101.14694 77.436017 103.591635 74.991323 
C 106.03633 72.546628 107.409937 69.230445 107.409937 65.773125 
C 107.409937 62.315805 106.03633 58.999622 103.591635 56.554927 
C 101.14694 54.110233 97.830758 52.736625 94.373437 52.736625 
C 90.916117 52.736625 87.599935 54.110233 85.15524 56.554927 
C 82.710545 58.999622 81.336937 62.315805 81.336937 65.773125 
C 81.336937 69.230445 82.710545 72.546628 85.15524 74.991323 
C 87.599935 77.436017 90.916117 78.809625 94.373437 78.809625 
z
" clip-path="url(#p178d6b86a3)" style="fill: #8000ff; stroke: #000000; stroke-linejoin: miter"/>
   </g>
   <g id="patch_18">
    <path d="M 123.343437 78.809625 
C 126.800758 78.809625 130.11694 77.436017 132.561635 74.991323 
C 135.00633 72.546628 136.379937 69.230445 136.379937 65.773125 
C 136.379937 62.315805 135.00633 58.999622 132.561635 56.554927 
C 130.11694 54.110233 126.800758 52.736625 123.343437 52.736625 
C 119.886117 52.736625 116.569935 54.110233 114.12524 56.554927 
C 111.680545 58.999622 110.306937 62.315805 110.306937 65.773125 
C 110.306937 69.230445 111.680545 72.546628 114.12524 74.991323 
C 116.569935 77.436017 119.886117 78.809625 123.343437 78.809625 
z
" clip-path="url(#p178d6b86a3)" style="fill: #8000ff; stroke: #000000; stroke-linejoin: miter"/>
   </g>
   <g id="patch_19">
    <path d="M 152.313437 78.809625 
C 155.770758 78.809625 159.08694 77.436017 161.531635 74.991323 
C 163.97633 72.546628 165.349937 69.230445 165.349937 65.773125 
C 165.349937 62.315805 163.97633 58.999622 161.531635 56.554927 
C 159.08694 54.110233 155.770758 52.736625 152.313437 52.736625 
C 148.856117 52.736625 145.539935 54.110233 143.09524 56.554927 
C 140.650545 58.999622 139.276938 62.315805 139.276938 65.773125 
C 139.276938 69.230445 140.650545 72.546628 143.09524 74.991323 
C 145.539935 77.436017 148.856117 78.809625 152.313437 78.809625 
z
" clip-path="url(#p178d6b86a3)" style="fill: #8000ff; stroke: #000000; stroke-linejoin: miter"/>
   </g>
   <g id="patch_20">
    <path d="M 181.283437 78.809625 
C 184.740758 78.809625 188.05694 77.436017 190.501635 74.991323 
C 192.94633 72.546628 194.319937 69.230445 194.319937 65.773125 
C 194.319937 62.315805 192.94633 58.999622 190.501635 56.554927 
C 188.05694 54.110233 184.740758 52.736625 181.283437 52.736625 
C 177.826117 52.736625 174.509935 54.110233 172.06524 56.554927 
C 169.620545 58.999622 168.246938 62.315805 168.246938 65.773125 
C 168.246938 69.230445 169.620545 72.546628 172.06524 74.991323 
C 174.509935 77.436017 177.826117 78.809625 181.283437 78.809625 
z
" clip-path="url(#p178d6b86a3)" style="fill: #8000ff; stroke: #000000; stroke-linejoin: miter"/>
   </g>
   <g id="patch_21">
    <path d="M 210.253437 78.809625 
C 213.710758 78.809625 217.02694 77.436017 219.471635 74.991323 
C 221.91633 72.546628 223.289937 69.230445 223.289937 65.773125 
C 223.289937 62.315805 221.91633 58.999622 219.471635 56.554927 
C 217.02694 54.110233 213.710758 52.736625 210.253437 52.736625 
C 206.796117 52.736625 203.479935 54.110233 201.03524 56.554927 
C 198.590545 58.999622 197.216938 62.315805 197.216938 65.773125 
C 197.216938 69.230445 198.590545 72.546628 201.03524 74.991323 
C 203.479935 77.436017 206.796117 78.809625 210.253437 78.809625 
z
" clip-path="url(#p178d6b86a3)" style="fill: #8000ff; stroke: #000000; stroke-linejoin: miter"/>
   </g>
   <g id="patch_22">
    <path d="M 239.223437 78.809625 
C 242.680758 78.809625 245.99694 77.436017 248.441635 74.991323 
C 250.88633 72.546628 252.259937 69.230445 252.259937 65.773125 
C 252.259937 62.315805 250.88633 58.999622 248.441635 56.554927 
C 245.99694 54.110233 242.680758 52.736625 239.223437 52.736625 
C 235.766117 52.736625 232.449935 54.110233 230.00524 56.554927 
C 227.560545 58.999622 226.186937 62.315805 226.186937 65.773125 
C 226.186937 69.230445 227.560545 72.546628 230.00524 74.991323 
C 232.449935 77.436017 235.766117 78.809625 239.223437 78.809625 
z
" clip-path="url(#p178d6b86a3)" style="fill: #8000ff; stroke: #000000; stroke-linejoin: miter"/>
   </g>
   <g id="patch_23">
    <path d="M 268.193437 78.809625 
C 271.650758 78.809625 274.96694 77.436017 277.411635 74.991323 
C 279.85633 72.546628 281.229937 69.230445 281.229937 65.773125 
C 281.229937 62.315805 279.85633 58.999622 277.411635 56.554927 
C 274.96694 54.110233 271.650758 52.736625 268.193437 52.736625 
C 264.736117 52.736625 261.419935 54.110233 258.97524 56.554927 
C 256.530545 58.999622 255.156937 62.315805 255.156937 65.773125 
C 255.156937 69.230445 256.530545 72.546628 258.97524 74.991323 
C 261.419935 77.436017 264.736117 78.809625 268.193437 78.809625 
z
" clip-path="url(#p178d6b86a3)" style="fill: #8000ff; stroke: #000000; stroke-linejoin: miter"/>
   </g>
   <g id="patch_24">
    <path d="M 297.163437 78.809625 
C 300.620758 78.809625 303.93694 77.436017 306.381635 74.991323 
C 308.82633 72.546628 310.199937 69.230445 310.199937 65.773125 
C 310.199937 62.315805 308.82633 58.999622 306.381635 56.554927 
C 303.93694 54.110233 300.620758 52.736625 297.163437 52.736625 
C 293.706117 52.736625 290.389935 54.110233 287.94524 56.554927 
C 285.500545 58.999622 284.126937 62.315805 284.126937 65.773125 
C 284.126937 69.230445 285.500545 72.546628 287.94524 74.991323 
C 290.389935 77.436017 293.706117 78.809625 297.163437 78.809625 
z
" clip-path="url(#p178d6b86a3)" style="fill: #80ffb4; stroke: #000000; stroke-linejoin: miter"/>
   </g>
   <g id="patch_25">
    <path d="M 326.133438 78.809625 
C 329.590758 78.809625 332.90694 77.436017 335.351635 74.991323 
C 337.79633 72.546628 339.169938 69.230445 339.169938 65.773125 
C 339.169938 62.315805 337.79633 58.999622 335.351635 56.554927 
C 332.90694 54.110233 329.590758 52.736625 326.133438 52.736625 
C 322.676117 52.736625 319.359935 54.110233 316.91524 56.554927 
C 314.470545 58.999622 313.096938 62.315805 313.096938 65.773125 
C 313.096938 69.230445 314.470545 72.546628 316.91524 74.991323 
C 319.359935 77.436017 322.676117 78.809625 326.133438 78.809625 
z
" clip-path="url(#p178d6b86a3)" style="fill: #80ffb4; stroke: #000000; stroke-linejoin: miter"/>
   </g>
   <g id="patch_26">
    <path d="M 355.103437 78.809625 
C 358.560758 78.809625 361.87694 77.436017 364.321635 74.991323 
C 366.76633 72.546628 368.139937 69.230445 368.139937 65.773125 
C 368.139937 62.315805 366.76633 58.999622 364.321635 56.554927 
C 361.87694 54.110233 358.560758 52.736625 355.103437 52.736625 
C 351.646117 52.736625 348.329935 54.110233 345.88524 56.554927 
C 343.440545 58.999622 342.066937 62.315805 342.066937 65.773125 
C 342.066937 69.230445 343.440545 72.546628 345.88524 74.991323 
C 348.329935 77.436017 351.646117 78.809625 355.103437 78.809625 
z
" clip-path="url(#p178d6b86a3)" style="fill: #80ffb4; stroke: #000000; stroke-linejoin: miter"/>
   </g>
   <g id="patch_27">
    <path d="M 36.433437 107.779625 
C 39.890758 107.779625 43.20694 106.406017 45.651635 103.961323 
C 48.09633 101.516628 49.469938 98.200445 49.469938 94.743125 
C 49.469938 91.285805 48.09633 87.969622 45.651635 85.524927 
C 43.20694 83.080233 39.890758 81.706625 36.433437 81.706625 
C 32.976117 81.706625 29.659935 83.080233 27.21524 85.524927 
C 24.770545 87.969622 23.396937 91.285805 23.396937 94.743125 
C 23.396937 98.200445 24.770545 101.516628 27.21524 103.961323 
C 29.659935 106.406017 32.976117 107.779625 36.433437 107.779625 
z
" clip-path="url(#p178d6b86a3)" style="fill: #8000ff; stroke: #000000; stroke-linejoin: miter"/>
   </g>
   <g id="patch_28">
    <path d="M 65.403437 107.779625 
C 68.860758 107.779625 72.17694 106.406017 74.621635 103.961323 
C 77.06633 101.516628 78.439937 98.200445 78.439937 94.743125 
C 78.439937 91.285805 77.06633 87.969622 74.621635 85.524927 
C 72.17694 83.080233 68.860758 81.706625 65.403437 81.706625 
C 61.946117 81.706625 58.629935 83.080233 56.18524 85.524927 
C 53.740545 87.969622 52.366937 91.285805 52.366937 94.743125 
C 52.366937 98.200445 53.740545 101.516628 56.18524 103.961323 
C 58.629935 106.406017 61.946117 107.779625 65.403437 107.779625 
z
" clip-path="url(#p178d6b86a3)" style="fill: #8000ff; stroke: #000000; stroke-linejoin: miter"/>
   </g>
   <g id="patch_29">
    <path d="M 94.373437 107.779625 
C 97.830758 107.779625 101.14694 106.406017 103.591635 103.961323 
C 106.03633 101.516628 107.409937 98.200445 107.409937 94.743125 
C 107.409937 91.285805 106.03633 87.969622 103.591635 85.524927 
C 101.14694 83.080233 97.830758 81.706625 94.373437 81.706625 
C 90.916117 81.706625 87.599935 83.080233 85.15524 85.524927 
C 82.710545 87.969622 81.336937 91.285805 81.336937 94.743125 
C 81.336937 98.200445 82.710545 101.516628 85.15524 103.961323 
C 87.599935 106.406017 90.916117 107.779625 94.373437 107.779625 
z
" clip-path="url(#p178d6b86a3)" style="fill: #8000ff; stroke: #000000; stroke-linejoin: miter"/>
   </g>
   <g id="patch_30">
    <path d="M 123.343437 107.779625 
C 126.800758 107.779625 130.11694 106.406017 132.561635 103.961323 
C 135.00633 101.516628 136.379937 98.200445 136.379937 94.743125 
C 136.379937 91.285805 135.00633 87.969622 132.561635 85.524927 
C 130.11694 83.080233 126.800758 81.706625 123.343437 81.706625 
C 119.886117 81.706625 116.569935 83.080233 114.12524 85.524927 
C 111.680545 87.969622 110.306937 91.285805 110.306937 94.743125 
C 110.306937 98.200445 111.680545 101.516628 114.12524 103.961323 
C 116.569935 106.406017 119.886117 107.779625 123.343437 107.779625 
z
" clip-path="url(#p178d6b86a3)" style="fill: #8000ff; stroke: #000000; stroke-linejoin: miter"/>
   </g>
   <g id="patch_31">
    <path d="M 152.313437 107.779625 
C 155.770758 107.779625 159.08694 106.406017 161.531635 103.961323 
C 163.97633 101.516628 165.349937 98.200445 165.349937 94.743125 
C 165.349937 91.285805 163.97633 87.969622 161.531635 85.524927 
C 159.08694 83.080233 155.770758 81.706625 152.313437 81.706625 
C 148.856117 81.706625 145.539935 83.080233 143.09524 85.524927 
C 140.650545 87.969622 139.276938 91.285805 139.276938 94.743125 
C 139.276938 98.200445 140.650545 101.516628 143.09524 103.961323 
C 145.539935 106.406017 148.856117 107.779625 152.313437 107.779625 
z
" clip-path="url(#p178d6b86a3)" style="fill: #8000ff; stroke: #000000; stroke-linejoin: miter"/>
   </g>
   <g id="patch_32">
    <path d="M 181.283437 107.779625 
C 184.740758 107.779625 188.05694 106.406017 190.501635 103.961323 
C 192.94633 101.516628 194.319937 98.200445 194.319937 94.743125 
C 194.319937 91.285805 192.94633 87.969622 190.501635 85.524927 
C 188.05694 83.080233 184.740758 81.706625 181.283437 81.706625 
C 177.826117 81.706625 174.509935 83.080233 172.06524 85.524927 
C 169.620545 87.969622 168.246938 91.285805 168.246938 94.743125 
C 168.246938 98.200445 169.620545 101.516628 172.06524 103.961323 
C 174.509935 106.406017 177.826117 107.779625 181.283437 107.779625 
z
" clip-path="url(#p178d6b86a3)" style="fill: #8000ff; stroke: #000000; stroke-linejoin: miter"/>
   </g>
   <g id="patch_33">
    <path d="M 210.253437 107.779625 
C 213.710758 107.779625 217.02694 106.406017 219.471635 103.961323 
C 221.91633 101.516628 223.289937 98.200445 223.289937 94.743125 
C 223.289937 91.285805 221.91633 87.969622 219.471635 85.524927 
C 217.02694 83.080233 213.710758 81.706625 210.253437 81.706625 
C 206.796117 81.706625 203.479935 83.080233 201.03524 85.524927 
C 198.590545 87.969622 197.216938 91.285805 197.216938 94.743125 
C 197.216938 98.200445 198.590545 101.516628 201.03524 103.961323 
C 203.479935 106.406017 206.796117 107.779625 210.253437 107.779625 
z
" clip-path="url(#p178d6b86a3)" style="fill: #8000ff; stroke: #000000; stroke-linejoin: miter"/>
   </g>
   <g id="patch_34">
    <path d="M 239.223437 107.779625 
C 242.680758 107.779625 245.99694 106.406017 248.441635 103.961323 
C 250.88633 101.516628 252.259937 98.200445 252.259937 94.743125 
C 252.259937 91.285805 250.88633 87.969622 248.441635 85.524927 
C 245.99694 83.080233 242.680758 81.706625 239.223437 81.706625 
C 235.766117 81.706625 232.449935 83.080233 230.00524 85.524927 
C 227.560545 87.969622 226.186937 91.285805 226.186937 94.743125 
C 226.186937 98.200445 227.560545 101.516628 230.00524 103.961323 
C 232.449935 106.406017 235.766117 107.779625 239.223437 107.779625 
z
" clip-path="url(#p178d6b86a3)" style="fill: #8000ff; stroke: #000000; stroke-linejoin: miter"/>
   </g>
   <g id="patch_35">
    <path d="M 268.193437 107.779625 
C 271.650758 107.779625 274.96694 106.406017 277.411635 103.961323 
C 279.85633 101.516628 281.229937 98.200445 281.229937 94.743125 
C 281.229937 91.285805 279.85633 87.969622 277.411635 85.524927 
C 274.96694 83.080233 271.650758 81.706625 268.193437 81.706625 
C 264.736117 81.706625 261.419935 83.080233 258.97524 85.524927 
C 256.530545 87.969622 255.156937 91.285805 255.156937 94.743125 
C 255.156937 98.200445 256.530545 101.516628 258.97524 103.961323 
C 261.419935 106.406017 264.736117 107.779625 268.193437 107.779625 
z
" clip-path="url(#p178d6b86a3)" style="fill: #8000ff; stroke: #000000; stroke-linejoin: miter"/>
   </g>
   <g id="patch_36">
    <path d="M 297.163437 107.779625 
C 300.620758 107.779625 303.93694 106.406017 306.381635 103.961323 
C 308.82633 101.516628 310.199937 98.200445 310.199937 94.743125 
C 310.199937 91.285805 308.82633 87.969622 306.381635 85.524927 
C 303.93694 83.080233 300.620758 81.706625 297.163437 81.706625 
C 293.706117 81.706625 290.389935 83.080233 287.94524 85.524927 
C 285.500545 87.969622 284.126937 91.285805 284.126937 94.743125 
C 284.126937 98.200445 285.500545 101.516628 287.94524 103.961323 
C 290.389935 106.406017 293.706117 107.779625 297.163437 107.779625 
z
" clip-path="url(#p178d6b86a3)" style="fill: #80ffb4; stroke: #000000; stroke-linejoin: miter"/>
   </g>
   <g id="patch_37">
    <path d="M 326.133438 107.779625 
C 329.590758 107.779625 332.90694 106.406017 335.351635 103.961323 
C 337.79633 101.516628 339.169938 98.200445 339.169938 94.743125 
C 339.169938 91.285805 337.79633 87.969622 335.351635 85.524927 
C 332.90694 83.080233 329.590758 81.706625 326.133438 81.706625 
C 322.676117 81.706625 319.359935 83.080233 316.91524 85.524927 
C 314.470545 87.969622 313.096938 91.285805 313.096938 94.743125 
C 313.096938 98.200445 314.470545 101.516628 316.91524 103.961323 
C 319.359935 106.406017 322.676117 107.779625 326.133438 107.779625 
z
" clip-path="url(#p178d6b86a3)" style="fill: #80ffb4; stroke: #000000; stroke-linejoin: miter"/>
   </g>
   <g id="patch_38">
    <path d="M 355.103437 107.779625 
C 358.560758 107.779625 361.87694 106.406017 364.321635 103.961323 
C 366.76633 101.516628 368.139937 98.200445 368.139937 94.743125 
C 368.139937 91.285805 366.76633 87.969622 364.321635 85.524927 
C 361.87694 83.080233 358.560758 81.706625 355.103437 81.706625 
C 351.646117 81.706625 348.329935 83.080233 345.88524 85.524927 
C 343.440545 87.969622 342.066937 91.285805 342.066937 94.743125 
C 342.066937 98.200445 343.440545 101.516628 345.88524 103.961323 
C 348.329935 106.406017 351.646117 107.779625 355.103437 107.779625 
z
" clip-path="url(#p178d6b86a3)" style="fill: #80ffb4; stroke: #000000; stroke-linejoin: miter"/>
   </g>
   <g id="patch_39">
    <path d="M 36.433437 136.749625 
C 39.890758 136.749625 43.20694 135.376017 45.651635 132.931323 
C 48.09633 130.486628 49.469938 127.170445 49.469938 123.713125 
C 49.469938 120.255805 48.09633 116.939622 45.651635 114.494927 
C 43.20694 112.050233 39.890758 110.676625 36.433437 110.676625 
C 32.976117 110.676625 29.659935 112.050233 27.21524 114.494927 
C 24.770545 116.939622 23.396937 120.255805 23.396937 123.713125 
C 23.396937 127.170445 24.770545 130.486628 27.21524 132.931323 
C 29.659935 135.376017 32.976117 136.749625 36.433437 136.749625 
z
" clip-path="url(#p178d6b86a3)" style="fill: #8000ff; stroke: #000000; stroke-linejoin: miter"/>
   </g>
   <g id="patch_40">
    <path d="M 65.403437 136.749625 
C 68.860758 136.749625 72.17694 135.376017 74.621635 132.931323 
C 77.06633 130.486628 78.439937 127.170445 78.439937 123.713125 
C 78.439937 120.255805 77.06633 116.939622 74.621635 114.494927 
C 72.17694 112.050233 68.860758 110.676625 65.403437 110.676625 
C 61.946117 110.676625 58.629935 112.050233 56.18524 114.494927 
C 53.740545 116.939622 52.366937 120.255805 52.366937 123.713125 
C 52.366937 127.170445 53.740545 130.486628 56.18524 132.931323 
C 58.629935 135.376017 61.946117 136.749625 65.403437 136.749625 
z
" clip-path="url(#p178d6b86a3)" style="fill: #8000ff; stroke: #000000; stroke-linejoin: miter"/>
   </g>
   <g id="patch_41">
    <path d="M 94.373437 136.749625 
C 97.830758 136.749625 101.14694 135.376017 103.591635 132.931323 
C 106.03633 130.486628 107.409937 127.170445 107.409937 123.713125 
C 107.409937 120.255805 106.03633 116.939622 103.591635 114.494927 
C 101.14694 112.050233 97.830758 110.676625 94.373437 110.676625 
C 90.916117 110.676625 87.599935 112.050233 85.15524 114.494927 
C 82.710545 116.939622 81.336937 120.255805 81.336937 123.713125 
C 81.336937 127.170445 82.710545 130.486628 85.15524 132.931323 
C 87.599935 135.376017 90.916117 136.749625 94.373437 136.749625 
z
" clip-path="url(#p178d6b86a3)" style="fill: #8000ff; stroke: #000000; stroke-linejoin: miter"/>
   </g>
   <g id="patch_42">
    <path d="M 123.343437 136.749625 
C 126.800758 136.749625 130.11694 135.376017 132.561635 132.931323 
C 135.00633 130.486628 136.379937 127.170445 136.379937 123.713125 
C 136.379937 120.255805 135.00633 116.939622 132.561635 114.494927 
C 130.11694 112.050233 126.800758 110.676625 123.343437 110.676625 
C 119.886117 110.676625 116.569935 112.050233 114.12524 114.494927 
C 111.680545 116.939622 110.306937 120.255805 110.306937 123.713125 
C 110.306937 127.170445 111.680545 130.486628 114.12524 132.931323 
C 116.569935 135.376017 119.886117 136.749625 123.343437 136.749625 
z
" clip-path="url(#p178d6b86a3)" style="fill: #8000ff; stroke: #000000; stroke-linejoin: miter"/>
   </g>
   <g id="patch_43">
    <path d="M 152.313437 136.749625 
C 155.770758 136.749625 159.08694 135.376017 161.531635 132.931323 
C 163.97633 130.486628 165.349937 127.170445 165.349937 123.713125 
C 165.349937 120.255805 163.97633 116.939622 161.531635 114.494927 
C 159.08694 112.050233 155.770758 110.676625 152.313437 110.676625 
C 148.856117 110.676625 145.539935 112.050233 143.09524 114.494927 
C 140.650545 116.939622 139.276938 120.255805 139.276938 123.713125 
C 139.276938 127.170445 140.650545 130.486628 143.09524 132.931323 
C 145.539935 135.376017 148.856117 136.749625 152.313437 136.749625 
z
" clip-path="url(#p178d6b86a3)" style="fill: #8000ff; stroke: #000000; stroke-linejoin: miter"/>
   </g>
   <g id="patch_44">
    <path d="M 181.283437 136.749625 
C 184.740758 136.749625 188.05694 135.376017 190.501635 132.931323 
C 192.94633 130.486628 194.319937 127.170445 194.319937 123.713125 
C 194.319937 120.255805 192.94633 116.939622 190.501635 114.494927 
C 188.05694 112.050233 184.740758 110.676625 181.283437 110.676625 
C 177.826117 110.676625 174.509935 112.050233 172.06524 114.494927 
C 169.620545 116.939622 168.246938 120.255805 168.246938 123.713125 
C 168.246938 127.170445 169.620545 130.486628 172.06524 132.931323 
C 174.509935 135.376017 177.826117 136.749625 181.283437 136.749625 
z
" clip-path="url(#p178d6b86a3)" style="fill: #8000ff; stroke: #000000; stroke-linejoin: miter"/>
   </g>
   <g id="patch_45">
    <path d="M 210.253437 136.749625 
C 213.710758 136.749625 217.02694 135.376017 219.471635 132.931323 
C 221.91633 130.486628 223.289937 127.170445 223.289937 123.713125 
C 223.289937 120.255805 221.91633 116.939622 219.471635 114.494927 
C 217.02694 112.050233 213.710758 110.676625 210.253437 110.676625 
C 206.796117 110.676625 203.479935 112.050233 201.03524 114.494927 
C 198.590545 116.939622 197.216938 120.255805 197.216938 123.713125 
C 197.216938 127.170445 198.590545 130.486628 201.03524 132.931323 
C 203.479935 135.376017 206.796117 136.749625 210.253437 136.749625 
z
" clip-path="url(#p178d6b86a3)" style="fill: #8000ff; stroke: #000000; stroke-linejoin: miter"/>
   </g>
   <g id="patch_46">
    <path d="M 239.223437 136.749625 
C 242.680758 136.749625 245.99694 135.376017 248.441635 132.931323 
C 250.88633 130.486628 252.259937 127.170445 252.259937 123.713125 
C 252.259937 120.255805 250.88633 116.939622 248.441635 114.494927 
C 245.99694 112.050233 242.680758 110.676625 239.223437 110.676625 
C 235.766117 110.676625 232.449935 112.050233 230.00524 114.494927 
C 227.560545 116.939622 226.186937 120.255805 226.186937 123.713125 
C 226.186937 127.170445 227.560545 130.486628 230.00524 132.931323 
C 232.449935 135.376017 235.766117 136.749625 239.223437 136.749625 
z
" clip-path="url(#p178d6b86a3)" style="fill: #8000ff; stroke: #000000; stroke-linejoin: miter"/>
   </g>
   <g id="patch_47">
    <path d="M 268.193437 136.749625 
C 271.650758 136.749625 274.96694 135.376017 277.411635 132.931323 
C 279.85633 130.486628 281.229937 127.170445 281.229937 123.713125 
C 281.229937 120.255805 279.85633 116.939622 277.411635 114.494927 
C 274.96694 112.050233 271.650758 110.676625 268.193437 110.676625 
C 264.736117 110.676625 261.419935 112.050233 258.97524 114.494927 
C 256.530545 116.939622 255.156937 120.255805 255.156937 123.713125 
C 255.156937 127.170445 256.530545 130.486628 258.97524 132.931323 
C 261.419935 135.376017 264.736117 136.749625 268.193437 136.749625 
z
" clip-path="url(#p178d6b86a3)" style="fill: #8000ff; stroke: #000000; stroke-linejoin: miter"/>
   </g>
   <g id="patch_48">
    <path d="M 297.163437 136.749625 
C 300.620758 136.749625 303.93694 135.376017 306.381635 132.931323 
C 308.82633 130.486628 310.199937 127.170445 310.199937 123.713125 
C 310.199937 120.255805 308.82633 116.939622 306.381635 114.494927 
C 303.93694 112.050233 300.620758 110.676625 297.163437 110.676625 
C 293.706117 110.676625 290.389935 112.050233 287.94524 114.494927 
C 285.500545 116.939622 284.126937 120.255805 284.126937 123.713125 
C 284.126937 127.170445 285.500545 130.486628 287.94524 132.931323 
C 290.389935 135.376017 293.706117 136.749625 297.163437 136.749625 
z
" clip-path="url(#p178d6b86a3)" style="fill: #80ffb4; stroke: #000000; stroke-linejoin: miter"/>
   </g>
   <g id="patch_49">
    <path d="M 326.133438 136.749625 
C 329.590758 136.749625 332.90694 135.376017 335.351635 132.931323 
C 337.79633 130.486628 339.169938 127.170445 339.169938 123.713125 
C 339.169938 120.255805 337.79633 116.939622 335.351635 114.494927 
C 332.90694 112.050233 329.590758 110.676625 326.133438 110.676625 
C 322.676117 110.676625 319.359935 112.050233 316.91524 114.494927 
C 314.470545 116.939622 313.096938 120.255805 313.096938 123.713125 
C 313.096938 127.170445 314.470545 130.486628 316.91524 132.931323 
C 319.359935 135.376017 322.676117 136.749625 326.133438 136.749625 
z
" clip-path="url(#p178d6b86a3)" style="fill: #80ffb4; stroke: #000000; stroke-linejoin: miter"/>
   </g>
   <g id="patch_50">
    <path d="M 355.103437 136.749625 
C 358.560758 136.749625 361.87694 135.376017 364.321635 132.931323 
C 366.76633 130.486628 368.139937 127.170445 368.139937 123.713125 
C 368.139937 120.255805 366.76633 116.939622 364.321635 114.494927 
C 361.87694 112.050233 358.560758 110.676625 355.103437 110.676625 
C 351.646117 110.676625 348.329935 112.050233 345.88524 114.494927 
C 343.440545 116.939622 342.066937 120.255805 342.066937 123.713125 
C 342.066937 127.170445 343.440545 130.486628 345.88524 132.931323 
C 348.329935 135.376017 351.646117 136.749625 355.103437 136.749625 
z
" clip-path="url(#p178d6b86a3)" style="fill: #80ffb4; stroke: #000000; stroke-linejoin: miter"/>
   </g>
   <g id="patch_51">
    <path d="M 36.433437 165.719625 
C 39.890758 165.719625 43.20694 164.346017 45.651635 161.901323 
C 48.09633 159.456628 49.469938 156.140445 49.469938 152.683125 
C 49.469938 149.225805 48.09633 145.909622 45.651635 143.464927 
C 43.20694 141.020233 39.890758 139.646625 36.433437 139.646625 
C 32.976117 139.646625 29.659935 141.020233 27.21524 143.464927 
C 24.770545 145.909622 23.396937 149.225805 23.396937 152.683125 
C 23.396937 156.140445 24.770545 159.456628 27.21524 161.901323 
C 29.659935 164.346017 32.976117 165.719625 36.433437 165.719625 
z
" clip-path="url(#p178d6b86a3)" style="fill: #8000ff; stroke: #000000; stroke-linejoin: miter"/>
   </g>
   <g id="patch_52">
    <path d="M 65.403437 165.719625 
C 68.860758 165.719625 72.17694 164.346017 74.621635 161.901323 
C 77.06633 159.456628 78.439937 156.140445 78.439937 152.683125 
C 78.439937 149.225805 77.06633 145.909622 74.621635 143.464927 
C 72.17694 141.020233 68.860758 139.646625 65.403437 139.646625 
C 61.946117 139.646625 58.629935 141.020233 56.18524 143.464927 
C 53.740545 145.909622 52.366937 149.225805 52.366937 152.683125 
C 52.366937 156.140445 53.740545 159.456628 56.18524 161.901323 
C 58.629935 164.346017 61.946117 165.719625 65.403437 165.719625 
z
" clip-path="url(#p178d6b86a3)" style="fill: #8000ff; stroke: #000000; stroke-linejoin: miter"/>
   </g>
   <g id="patch_53">
    <path d="M 94.373437 165.719625 
C 97.830758 165.719625 101.14694 164.346017 103.591635 161.901323 
C 106.03633 159.456628 107.409937 156.140445 107.409937 152.683125 
C 107.409937 149.225805 106.03633 145.909622 103.591635 143.464927 
C 101.14694 141.020233 97.830758 139.646625 94.373437 139.646625 
C 90.916117 139.646625 87.599935 141.020233 85.15524 143.464927 
C 82.710545 145.909622 81.336937 149.225805 81.336937 152.683125 
C 81.336937 156.140445 82.710545 159.456628 85.15524 161.901323 
C 87.599935 164.346017 90.916117 165.719625 94.373437 165.719625 
z
" clip-path="url(#p178d6b86a3)" style="fill: #8000ff; stroke: #000000; stroke-linejoin: miter"/>
   </g>
   <g id="patch_54">
    <path d="M 123.343437 165.719625 
C 126.800758 165.719625 130.11694 164.346017 132.561635 161.901323 
C 135.00633 159.456628 136.379937 156.140445 136.379937 152.683125 
C 136.379937 149.225805 135.00633 145.909622 132.561635 143.464927 
C 130.11694 141.020233 126.800758 139.646625 123.343437 139.646625 
C 119.886117 139.646625 116.569935 141.020233 114.12524 143.464927 
C 111.680545 145.909622 110.306937 149.225805 110.306937 152.683125 
C 110.306937 156.140445 111.680545 159.456628 114.12524 161.901323 
C 116.569935 164.346017 119.886117 165.719625 123.343437 165.719625 
z
" clip-path="url(#p178d6b86a3)" style="fill: #8000ff; stroke: #000000; stroke-linejoin: miter"/>
   </g>
   <g id="patch_55">
    <path d="M 152.313437 165.719625 
C 155.770758 165.719625 159.08694 164.346017 161.531635 161.901323 
C 163.97633 159.456628 165.349937 156.140445 165.349937 152.683125 
C 165.349937 149.225805 163.97633 145.909622 161.531635 143.464927 
C 159.08694 141.020233 155.770758 139.646625 152.313437 139.646625 
C 148.856117 139.646625 145.539935 141.020233 143.09524 143.464927 
C 140.650545 145.909622 139.276938 149.225805 139.276938 152.683125 
C 139.276938 156.140445 140.650545 159.456628 143.09524 161.901323 
C 145.539935 164.346017 148.856117 165.719625 152.313437 165.719625 
z
" clip-path="url(#p178d6b86a3)" style="fill: #8000ff; stroke: #000000; stroke-linejoin: miter"/>
   </g>
   <g id="patch_56">
    <path d="M 181.283437 165.719625 
C 184.740758 165.719625 188.05694 164.346017 190.501635 161.901323 
C 192.94633 159.456628 194.319937 156.140445 194.319937 152.683125 
C 194.319937 149.225805 192.94633 145.909622 190.501635 143.464927 
C 188.05694 141.020233 184.740758 139.646625 181.283437 139.646625 
C 177.826117 139.646625 174.509935 141.020233 172.06524 143.464927 
C 169.620545 145.909622 168.246938 149.225805 168.246938 152.683125 
C 168.246938 156.140445 169.620545 159.456628 172.06524 161.901323 
C 174.509935 164.346017 177.826117 165.719625 181.283437 165.719625 
z
" clip-path="url(#p178d6b86a3)" style="fill: #8000ff; stroke: #000000; stroke-linejoin: miter"/>
   </g>
   <g id="patch_57">
    <path d="M 210.253437 165.719625 
C 213.710758 165.719625 217.02694 164.346017 219.471635 161.901323 
C 221.91633 159.456628 223.289937 156.140445 223.289937 152.683125 
C 223.289937 149.225805 221.91633 145.909622 219.471635 143.464927 
C 217.02694 141.020233 213.710758 139.646625 210.253437 139.646625 
C 206.796117 139.646625 203.479935 141.020233 201.03524 143.464927 
C 198.590545 145.909622 197.216938 149.225805 197.216938 152.683125 
C 197.216938 156.140445 198.590545 159.456628 201.03524 161.901323 
C 203.479935 164.346017 206.796117 165.719625 210.253437 165.719625 
z
" clip-path="url(#p178d6b86a3)" style="fill: #8000ff; stroke: #000000; stroke-linejoin: miter"/>
   </g>
   <g id="patch_58">
    <path d="M 239.223437 165.719625 
C 242.680758 165.719625 245.99694 164.346017 248.441635 161.901323 
C 250.88633 159.456628 252.259937 156.140445 252.259937 152.683125 
C 252.259937 149.225805 250.88633 145.909622 248.441635 143.464927 
C 245.99694 141.020233 242.680758 139.646625 239.223437 139.646625 
C 235.766117 139.646625 232.449935 141.020233 230.00524 143.464927 
C 227.560545 145.909622 226.186937 149.225805 226.186937 152.683125 
C 226.186937 156.140445 227.560545 159.456628 230.00524 161.901323 
C 232.449935 164.346017 235.766117 165.719625 239.223437 165.719625 
z
" clip-path="url(#p178d6b86a3)" style="fill: #8000ff; stroke: #000000; stroke-linejoin: miter"/>
   </g>
   <g id="patch_59">
    <path d="M 268.193437 165.719625 
C 271.650758 165.719625 274.96694 164.346017 277.411635 161.901323 
C 279.85633 159.456628 281.229937 156.140445 281.229937 152.683125 
C 281.229937 149.225805 279.85633 145.909622 277.411635 143.464927 
C 274.96694 141.020233 271.650758 139.646625 268.193437 139.646625 
C 264.736117 139.646625 261.419935 141.020233 258.97524 143.464927 
C 256.530545 145.909622 255.156937 149.225805 255.156937 152.683125 
C 255.156937 156.140445 256.530545 159.456628 258.97524 161.901323 
C 261.419935 164.346017 264.736117 165.719625 268.193437 165.719625 
z
" clip-path="url(#p178d6b86a3)" style="fill: #8000ff; stroke: #000000; stroke-linejoin: miter"/>
   </g>
   <g id="patch_60">
    <path d="M 297.163437 165.719625 
C 300.620758 165.719625 303.93694 164.346017 306.381635 161.901323 
C 308.82633 159.456628 310.199937 156.140445 310.199937 152.683125 
C 310.199937 149.225805 308.82633 145.909622 306.381635 143.464927 
C 303.93694 141.020233 300.620758 139.646625 297.163437 139.646625 
C 293.706117 139.646625 290.389935 141.020233 287.94524 143.464927 
C 285.500545 145.909622 284.126937 149.225805 284.126937 152.683125 
C 284.126937 156.140445 285.500545 159.456628 287.94524 161.901323 
C 290.389935 164.346017 293.706117 165.719625 297.163437 165.719625 
z
" clip-path="url(#p178d6b86a3)" style="fill: #80ffb4; stroke: #000000; stroke-linejoin: miter"/>
   </g>
   <g id="patch_61">
    <path d="M 326.133438 165.719625 
C 329.590758 165.719625 332.90694 164.346017 335.351635 161.901323 
C 337.79633 159.456628 339.169938 156.140445 339.169938 152.683125 
C 339.169938 149.225805 337.79633 145.909622 335.351635 143.464927 
C 332.90694 141.020233 329.590758 139.646625 326.133438 139.646625 
C 322.676117 139.646625 319.359935 141.020233 316.91524 143.464927 
C 314.470545 145.909622 313.096938 149.225805 313.096938 152.683125 
C 313.096938 156.140445 314.470545 159.456628 316.91524 161.901323 
C 319.359935 164.346017 322.676117 165.719625 326.133438 165.719625 
z
" clip-path="url(#p178d6b86a3)" style="fill: #80ffb4; stroke: #000000; stroke-linejoin: miter"/>
   </g>
   <g id="patch_62">
    <path d="M 355.103437 165.719625 
C 358.560758 165.719625 361.87694 164.346017 364.321635 161.901323 
C 366.76633 159.456628 368.139937 156.140445 368.139937 152.683125 
C 368.139937 149.225805 366.76633 145.909622 364.321635 143.464927 
C 361.87694 141.020233 358.560758 139.646625 355.103437 139.646625 
C 351.646117 139.646625 348.329935 141.020233 345.88524 143.464927 
C 343.440545 145.909622 342.066937 149.225805 342.066937 152.683125 
C 342.066937 156.140445 343.440545 159.456628 345.88524 161.901323 
C 348.329935 164.346017 351.646117 165.719625 355.103437 165.719625 
z
" clip-path="url(#p178d6b86a3)" style="fill: #80ffb4; stroke: #000000; stroke-linejoin: miter"/>
   </g>
   <g id="patch_63">
    <path d="M 36.433437 194.689625 
C 39.890758 194.689625 43.20694 193.316017 45.651635 190.871323 
C 48.09633 188.426628 49.469938 185.110445 49.469938 181.653125 
C 49.469938 178.195805 48.09633 174.879622 45.651635 172.434927 
C 43.20694 169.990233 39.890758 168.616625 36.433437 168.616625 
C 32.976117 168.616625 29.659935 169.990233 27.21524 172.434927 
C 24.770545 174.879622 23.396937 178.195805 23.396937 181.653125 
C 23.396937 185.110445 24.770545 188.426628 27.21524 190.871323 
C 29.659935 193.316017 32.976117 194.689625 36.433437 194.689625 
z
" clip-path="url(#p178d6b86a3)" style="fill: #8000ff; stroke: #000000; stroke-linejoin: miter"/>
   </g>
   <g id="patch_64">
    <path d="M 65.403437 194.689625 
C 68.860758 194.689625 72.17694 193.316017 74.621635 190.871323 
C 77.06633 188.426628 78.439937 185.110445 78.439937 181.653125 
C 78.439937 178.195805 77.06633 174.879622 74.621635 172.434927 
C 72.17694 169.990233 68.860758 168.616625 65.403437 168.616625 
C 61.946117 168.616625 58.629935 169.990233 56.18524 172.434927 
C 53.740545 174.879622 52.366937 178.195805 52.366937 181.653125 
C 52.366937 185.110445 53.740545 188.426628 56.18524 190.871323 
C 58.629935 193.316017 61.946117 194.689625 65.403437 194.689625 
z
" clip-path="url(#p178d6b86a3)" style="fill: #8000ff; stroke: #000000; stroke-linejoin: miter"/>
   </g>
   <g id="patch_65">
    <path d="M 94.373437 194.689625 
C 97.830758 194.689625 101.14694 193.316017 103.591635 190.871323 
C 106.03633 188.426628 107.409937 185.110445 107.409937 181.653125 
C 107.409937 178.195805 106.03633 174.879622 103.591635 172.434927 
C 101.14694 169.990233 97.830758 168.616625 94.373437 168.616625 
C 90.916117 168.616625 87.599935 169.990233 85.15524 172.434927 
C 82.710545 174.879622 81.336937 178.195805 81.336937 181.653125 
C 81.336937 185.110445 82.710545 188.426628 85.15524 190.871323 
C 87.599935 193.316017 90.916117 194.689625 94.373437 194.689625 
z
" clip-path="url(#p178d6b86a3)" style="fill: #8000ff; stroke: #000000; stroke-linejoin: miter"/>
   </g>
   <g id="patch_66">
    <path d="M 123.343437 194.689625 
C 126.800758 194.689625 130.11694 193.316017 132.561635 190.871323 
C 135.00633 188.426628 136.379937 185.110445 136.379937 181.653125 
C 136.379937 178.195805 135.00633 174.879622 132.561635 172.434927 
C 130.11694 169.990233 126.800758 168.616625 123.343437 168.616625 
C 119.886117 168.616625 116.569935 169.990233 114.12524 172.434927 
C 111.680545 174.879622 110.306937 178.195805 110.306937 181.653125 
C 110.306937 185.110445 111.680545 188.426628 114.12524 190.871323 
C 116.569935 193.316017 119.886117 194.689625 123.343437 194.689625 
z
" clip-path="url(#p178d6b86a3)" style="fill: #8000ff; stroke: #000000; stroke-linejoin: miter"/>
   </g>
   <g id="patch_67">
    <path d="M 152.313437 194.689625 
C 155.770758 194.689625 159.08694 193.316017 161.531635 190.871323 
C 163.97633 188.426628 165.349937 185.110445 165.349937 181.653125 
C 165.349937 178.195805 163.97633 174.879622 161.531635 172.434927 
C 159.08694 169.990233 155.770758 168.616625 152.313437 168.616625 
C 148.856117 168.616625 145.539935 169.990233 143.09524 172.434927 
C 140.650545 174.879622 139.276938 178.195805 139.276938 181.653125 
C 139.276938 185.110445 140.650545 188.426628 143.09524 190.871323 
C 145.539935 193.316017 148.856117 194.689625 152.313437 194.689625 
z
" clip-path="url(#p178d6b86a3)" style="fill: #8000ff; stroke: #000000; stroke-linejoin: miter"/>
   </g>
   <g id="patch_68">
    <path d="M 181.283437 194.689625 
C 184.740758 194.689625 188.05694 193.316017 190.501635 190.871323 
C 192.94633 188.426628 194.319937 185.110445 194.319937 181.653125 
C 194.319937 178.195805 192.94633 174.879622 190.501635 172.434927 
C 188.05694 169.990233 184.740758 168.616625 181.283437 168.616625 
C 177.826117 168.616625 174.509935 169.990233 172.06524 172.434927 
C 169.620545 174.879622 168.246938 178.195805 168.246938 181.653125 
C 168.246938 185.110445 169.620545 188.426628 172.06524 190.871323 
C 174.509935 193.316017 177.826117 194.689625 181.283437 194.689625 
z
" clip-path="url(#p178d6b86a3)" style="fill: #8000ff; stroke: #000000; stroke-linejoin: miter"/>
   </g>
   <g id="patch_69">
    <path d="M 210.253437 194.689625 
C 213.710758 194.689625 217.02694 193.316017 219.471635 190.871323 
C 221.91633 188.426628 223.289937 185.110445 223.289937 181.653125 
C 223.289937 178.195805 221.91633 174.879622 219.471635 172.434927 
C 217.02694 169.990233 213.710758 168.616625 210.253437 168.616625 
C 206.796117 168.616625 203.479935 169.990233 201.03524 172.434927 
C 198.590545 174.879622 197.216938 178.195805 197.216938 181.653125 
C 197.216938 185.110445 198.590545 188.426628 201.03524 190.871323 
C 203.479935 193.316017 206.796117 194.689625 210.253437 194.689625 
z
" clip-path="url(#p178d6b86a3)" style="fill: #8000ff; stroke: #000000; stroke-linejoin: miter"/>
   </g>
   <g id="patch_70">
    <path d="M 239.223437 194.689625 
C 242.680758 194.689625 245.99694 193.316017 248.441635 190.871323 
C 250.88633 188.426628 252.259937 185.110445 252.259937 181.653125 
C 252.259937 178.195805 250.88633 174.879622 248.441635 172.434927 
C 245.99694 169.990233 242.680758 168.616625 239.223437 168.616625 
C 235.766117 168.616625 232.449935 169.990233 230.00524 172.434927 
C 227.560545 174.879622 226.186937 178.195805 226.186937 181.653125 
C 226.186937 185.110445 227.560545 188.426628 230.00524 190.871323 
C 232.449935 193.316017 235.766117 194.689625 239.223437 194.689625 
z
" clip-path="url(#p178d6b86a3)" style="fill: #8000ff; stroke: #000000; stroke-linejoin: miter"/>
   </g>
   <g id="patch_71">
    <path d="M 268.193437 194.689625 
C 271.650758 194.689625 274.96694 193.316017 277.411635 190.871323 
C 279.85633 188.426628 281.229937 185.110445 281.229937 181.653125 
C 281.229937 178.195805 279.85633 174.879622 277.411635 172.434927 
C 274.96694 169.990233 271.650758 168.616625 268.193437 168.616625 
C 264.736117 168.616625 261.419935 169.990233 258.97524 172.434927 
C 256.530545 174.879622 255.156937 178.195805 255.156937 181.653125 
C 255.156937 185.110445 256.530545 188.426628 258.97524 190.871323 
C 261.419935 193.316017 264.736117 194.689625 268.193437 194.689625 
z
" clip-path="url(#p178d6b86a3)" style="fill: #8000ff; stroke: #000000; stroke-linejoin: miter"/>
   </g>
   <g id="patch_72">
    <path d="M 297.163437 194.689625 
C 300.620758 194.689625 303.93694 193.316017 306.381635 190.871323 
C 308.82633 188.426628 310.199937 185.110445 310.199937 181.653125 
C 310.199937 178.195805 308.82633 174.879622 306.381635 172.434927 
C 303.93694 169.990233 300.620758 168.616625 297.163437 168.616625 
C 293.706117 168.616625 290.389935 169.990233 287.94524 172.434927 
C 285.500545 174.879622 284.126937 178.195805 284.126937 181.653125 
C 284.126937 185.110445 285.500545 188.426628 287.94524 190.871323 
C 290.389935 193.316017 293.706117 194.689625 297.163437 194.689625 
z
" clip-path="url(#p178d6b86a3)" style="fill: #80ffb4; stroke: #000000; stroke-linejoin: miter"/>
   </g>
   <g id="patch_73">
    <path d="M 326.133438 194.689625 
C 329.590758 194.689625 332.90694 193.316017 335.351635 190.871323 
C 337.79633 188.426628 339.169938 185.110445 339.169938 181.653125 
C 339.169938 178.195805 337.79633 174.879622 335.351635 172.434927 
C 332.90694 169.990233 329.590758 168.616625 326.133438 168.616625 
C 322.676117 168.616625 319.359935 169.990233 316.91524 172.434927 
C 314.470545 174.879622 313.096938 178.195805 313.096938 181.653125 
C 313.096938 185.110445 314.470545 188.426628 316.91524 190.871323 
C 319.359935 193.316017 322.676117 194.689625 326.133438 194.689625 
z
" clip-path="url(#p178d6b86a3)" style="fill: #80ffb4; stroke: #000000; stroke-linejoin: miter"/>
   </g>
   <g id="patch_74">
    <path d="M 355.103437 194.689625 
C 358.560758 194.689625 361.87694 193.316017 364.321635 190.871323 
C 366.76633 188.426628 368.139937 185.110445 368.139937 181.653125 
C 368.139937 178.195805 366.76633 174.879622 364.321635 172.434927 
C 361.87694 169.990233 358.560758 168.616625 355.103437 168.616625 
C 351.646117 168.616625 348.329935 169.990233 345.88524 172.434927 
C 343.440545 174.879622 342.066937 178.195805 342.066937 181.653125 
C 342.066937 185.110445 343.440545 188.426628 345.88524 190.871323 
C 348.329935 193.316017 351.646117 194.689625 355.103437 194.689625 
z
" clip-path="url(#p178d6b86a3)" style="fill: #80ffb4; stroke: #000000; stroke-linejoin: miter"/>
   </g>
   <g id="patch_75">
    <path d="M 36.433437 223.659625 
C 39.890758 223.659625 43.20694 222.286017 45.651635 219.841323 
C 48.09633 217.396628 49.469938 214.080445 49.469938 210.623125 
C 49.469938 207.165805 48.09633 203.849622 45.651635 201.404927 
C 43.20694 198.960233 39.890758 197.586625 36.433437 197.586625 
C 32.976117 197.586625 29.659935 198.960233 27.21524 201.404927 
C 24.770545 203.849622 23.396937 207.165805 23.396937 210.623125 
C 23.396937 214.080445 24.770545 217.396628 27.21524 219.841323 
C 29.659935 222.286017 32.976117 223.659625 36.433437 223.659625 
z
" clip-path="url(#p178d6b86a3)" style="fill: #8000ff; stroke: #000000; stroke-linejoin: miter"/>
   </g>
   <g id="patch_76">
    <path d="M 65.403437 223.659625 
C 68.860758 223.659625 72.17694 222.286017 74.621635 219.841323 
C 77.06633 217.396628 78.439937 214.080445 78.439937 210.623125 
C 78.439937 207.165805 77.06633 203.849622 74.621635 201.404927 
C 72.17694 198.960233 68.860758 197.586625 65.403437 197.586625 
C 61.946117 197.586625 58.629935 198.960233 56.18524 201.404927 
C 53.740545 203.849622 52.366937 207.165805 52.366937 210.623125 
C 52.366937 214.080445 53.740545 217.396628 56.18524 219.841323 
C 58.629935 222.286017 61.946117 223.659625 65.403437 223.659625 
z
" clip-path="url(#p178d6b86a3)" style="fill: #8000ff; stroke: #000000; stroke-linejoin: miter"/>
   </g>
   <g id="patch_77">
    <path d="M 94.373437 223.659625 
C 97.830758 223.659625 101.14694 222.286017 103.591635 219.841323 
C 106.03633 217.396628 107.409937 214.080445 107.409937 210.623125 
C 107.409937 207.165805 106.03633 203.849622 103.591635 201.404927 
C 101.14694 198.960233 97.830758 197.586625 94.373437 197.586625 
C 90.916117 197.586625 87.599935 198.960233 85.15524 201.404927 
C 82.710545 203.849622 81.336937 207.165805 81.336937 210.623125 
C 81.336937 214.080445 82.710545 217.396628 85.15524 219.841323 
C 87.599935 222.286017 90.916117 223.659625 94.373437 223.659625 
z
" clip-path="url(#p178d6b86a3)" style="fill: #8000ff; stroke: #000000; stroke-linejoin: miter"/>
   </g>
   <g id="patch_78">
    <path d="M 123.343437 223.659625 
C 126.800758 223.659625 130.11694 222.286017 132.561635 219.841323 
C 135.00633 217.396628 136.379937 214.080445 136.379937 210.623125 
C 136.379937 207.165805 135.00633 203.849622 132.561635 201.404927 
C 130.11694 198.960233 126.800758 197.586625 123.343437 197.586625 
C 119.886117 197.586625 116.569935 198.960233 114.12524 201.404927 
C 111.680545 203.849622 110.306937 207.165805 110.306937 210.623125 
C 110.306937 214.080445 111.680545 217.396628 114.12524 219.841323 
C 116.569935 222.286017 119.886117 223.659625 123.343437 223.659625 
z
" clip-path="url(#p178d6b86a3)" style="fill: #8000ff; stroke: #000000; stroke-linejoin: miter"/>
   </g>
   <g id="patch_79">
    <path d="M 152.313437 223.659625 
C 155.770758 223.659625 159.08694 222.286017 161.531635 219.841323 
C 163.97633 217.396628 165.349937 214.080445 165.349937 210.623125 
C 165.349937 207.165805 163.97633 203.849622 161.531635 201.404927 
C 159.08694 198.960233 155.770758 197.586625 152.313437 197.586625 
C 148.856117 197.586625 145.539935 198.960233 143.09524 201.404927 
C 140.650545 203.849622 139.276938 207.165805 139.276938 210.623125 
C 139.276938 214.080445 140.650545 217.396628 143.09524 219.841323 
C 145.539935 222.286017 148.856117 223.659625 152.313437 223.659625 
z
" clip-path="url(#p178d6b86a3)" style="fill: #8000ff; stroke: #000000; stroke-linejoin: miter"/>
   </g>
   <g id="patch_80">
    <path d="M 181.283437 223.659625 
C 184.740758 223.659625 188.05694 222.286017 190.501635 219.841323 
C 192.94633 217.396628 194.319937 214.080445 194.319937 210.623125 
C 194.319937 207.165805 192.94633 203.849622 190.501635 201.404927 
C 188.05694 198.960233 184.740758 197.586625 181.283437 197.586625 
C 177.826117 197.586625 174.509935 198.960233 172.06524 201.404927 
C 169.620545 203.849622 168.246938 207.165805 168.246938 210.623125 
C 168.246938 214.080445 169.620545 217.396628 172.06524 219.841323 
C 174.509935 222.286017 177.826117 223.659625 181.283437 223.659625 
z
" clip-path="url(#p178d6b86a3)" style="fill: #8000ff; stroke: #000000; stroke-linejoin: miter"/>
   </g>
   <g id="patch_81">
    <path d="M 210.253437 223.659625 
C 213.710758 223.659625 217.02694 222.286017 219.471635 219.841323 
C 221.91633 217.396628 223.289937 214.080445 223.289937 210.623125 
C 223.289937 207.165805 221.91633 203.849622 219.471635 201.404927 
C 217.02694 198.960233 213.710758 197.586625 210.253437 197.586625 
C 206.796117 197.586625 203.479935 198.960233 201.03524 201.404927 
C 198.590545 203.849622 197.216938 207.165805 197.216938 210.623125 
C 197.216938 214.080445 198.590545 217.396628 201.03524 219.841323 
C 203.479935 222.286017 206.796117 223.659625 210.253437 223.659625 
z
" clip-path="url(#p178d6b86a3)" style="fill: #8000ff; stroke: #000000; stroke-linejoin: miter"/>
   </g>
   <g id="patch_82">
    <path d="M 239.223437 223.659625 
C 242.680758 223.659625 245.99694 222.286017 248.441635 219.841323 
C 250.88633 217.396628 252.259937 214.080445 252.259937 210.623125 
C 252.259937 207.165805 250.88633 203.849622 248.441635 201.404927 
C 245.99694 198.960233 242.680758 197.586625 239.223437 197.586625 
C 235.766117 197.586625 232.449935 198.960233 230.00524 201.404927 
C 227.560545 203.849622 226.186937 207.165805 226.186937 210.623125 
C 226.186937 214.080445 227.560545 217.396628 230.00524 219.841323 
C 232.449935 222.286017 235.766117 223.659625 239.223437 223.659625 
z
" clip-path="url(#p178d6b86a3)" style="fill: #8000ff; stroke: #000000; stroke-linejoin: miter"/>
   </g>
   <g id="patch_83">
    <path d="M 268.193437 223.659625 
C 271.650758 223.659625 274.96694 222.286017 277.411635 219.841323 
C 279.85633 217.396628 281.229937 214.080445 281.229937 210.623125 
C 281.229937 207.165805 279.85633 203.849622 277.411635 201.404927 
C 274.96694 198.960233 271.650758 197.586625 268.193437 197.586625 
C 264.736117 197.586625 261.419935 198.960233 258.97524 201.404927 
C 256.530545 203.849622 255.156937 207.165805 255.156937 210.623125 
C 255.156937 214.080445 256.530545 217.396628 258.97524 219.841323 
C 261.419935 222.286017 264.736117 223.659625 268.193437 223.659625 
z
" clip-path="url(#p178d6b86a3)" style="fill: #8000ff; stroke: #000000; stroke-linejoin: miter"/>
   </g>
   <g id="patch_84">
    <path d="M 297.163437 223.659625 
C 300.620758 223.659625 303.93694 222.286017 306.381635 219.841323 
C 308.82633 217.396628 310.199937 214.080445 310.199937 210.623125 
C 310.199937 207.165805 308.82633 203.849622 306.381635 201.404927 
C 303.93694 198.960233 300.620758 197.586625 297.163437 197.586625 
C 293.706117 197.586625 290.389935 198.960233 287.94524 201.404927 
C 285.500545 203.849622 284.126937 207.165805 284.126937 210.623125 
C 284.126937 214.080445 285.500545 217.396628 287.94524 219.841323 
C 290.389935 222.286017 293.706117 223.659625 297.163437 223.659625 
z
" clip-path="url(#p178d6b86a3)" style="fill: #80ffb4; stroke: #000000; stroke-linejoin: miter"/>
   </g>
   <g id="patch_85">
    <path d="M 326.133438 223.659625 
C 329.590758 223.659625 332.90694 222.286017 335.351635 219.841323 
C 337.79633 217.396628 339.169938 214.080445 339.169938 210.623125 
C 339.169938 207.165805 337.79633 203.849622 335.351635 201.404927 
C 332.90694 198.960233 329.590758 197.586625 326.133438 197.586625 
C 322.676117 197.586625 319.359935 198.960233 316.91524 201.404927 
C 314.470545 203.849622 313.096938 207.165805 313.096938 210.623125 
C 313.096938 214.080445 314.470545 217.396628 316.91524 219.841323 
C 319.359935 222.286017 322.676117 223.659625 326.133438 223.659625 
z
" clip-path="url(#p178d6b86a3)" style="fill: #80ffb4; stroke: #000000; stroke-linejoin: miter"/>
   </g>
   <g id="patch_86">
    <path d="M 355.103437 223.659625 
C 358.560758 223.659625 361.87694 222.286017 364.321635 219.841323 
C 366.76633 217.396628 368.139937 214.080445 368.139937 210.623125 
C 368.139937 207.165805 366.76633 203.849622 364.321635 201.404927 
C 361.87694 198.960233 358.560758 197.586625 355.103437 197.586625 
C 351.646117 197.586625 348.329935 198.960233 345.88524 201.404927 
C 343.440545 203.849622 342.066937 207.165805 342.066937 210.623125 
C 342.066937 214.080445 343.440545 217.396628 345.88524 219.841323 
C 348.329935 222.286017 351.646117 223.659625 355.103437 223.659625 
z
" clip-path="url(#p178d6b86a3)" style="fill: #80ffb4; stroke: #000000; stroke-linejoin: miter"/>
   </g>
   <g id="patch_87">
    <path d="M 36.433437 252.629625 
C 39.890758 252.629625 43.20694 251.256017 45.651635 248.811323 
C 48.09633 246.366628 49.469938 243.050445 49.469938 239.593125 
C 49.469938 236.135805 48.09633 232.819622 45.651635 230.374927 
C 43.20694 227.930233 39.890758 226.556625 36.433437 226.556625 
C 32.976117 226.556625 29.659935 227.930233 27.21524 230.374927 
C 24.770545 232.819622 23.396937 236.135805 23.396937 239.593125 
C 23.396937 243.050445 24.770545 246.366628 27.21524 248.811323 
C 29.659935 251.256017 32.976117 252.629625 36.433437 252.629625 
z
" clip-path="url(#p178d6b86a3)" style="fill: #8000ff; stroke: #000000; stroke-linejoin: miter"/>
   </g>
   <g id="patch_88">
    <path d="M 65.403437 252.629625 
C 68.860758 252.629625 72.17694 251.256017 74.621635 248.811323 
C 77.06633 246.366628 78.439937 243.050445 78.439937 239.593125 
C 78.439937 236.135805 77.06633 232.819622 74.621635 230.374927 
C 72.17694 227.930233 68.860758 226.556625 65.403437 226.556625 
C 61.946117 226.556625 58.629935 227.930233 56.18524 230.374927 
C 53.740545 232.819622 52.366937 236.135805 52.366937 239.593125 
C 52.366937 243.050445 53.740545 246.366628 56.18524 248.811323 
C 58.629935 251.256017 61.946117 252.629625 65.403437 252.629625 
z
" clip-path="url(#p178d6b86a3)" style="fill: #8000ff; stroke: #000000; stroke-linejoin: miter"/>
   </g>
   <g id="patch_89">
    <path d="M 94.373437 252.629625 
C 97.830758 252.629625 101.14694 251.256017 103.591635 248.811323 
C 106.03633 246.366628 107.409937 243.050445 107.409937 239.593125 
C 107.409937 236.135805 106.03633 232.819622 103.591635 230.374927 
C 101.14694 227.930233 97.830758 226.556625 94.373437 226.556625 
C 90.916117 226.556625 87.599935 227.930233 85.15524 230.374927 
C 82.710545 232.819622 81.336937 236.135805 81.336937 239.593125 
C 81.336937 243.050445 82.710545 246.366628 85.15524 248.811323 
C 87.599935 251.256017 90.916117 252.629625 94.373437 252.629625 
z
" clip-path="url(#p178d6b86a3)" style="fill: #8000ff; stroke: #000000; stroke-linejoin: miter"/>
   </g>
   <g id="patch_90">
    <path d="M 123.343437 252.629625 
C 126.800758 252.629625 130.11694 251.256017 132.561635 248.811323 
C 135.00633 246.366628 136.379937 243.050445 136.379937 239.593125 
C 136.379937 236.135805 135.00633 232.819622 132.561635 230.374927 
C 130.11694 227.930233 126.800758 226.556625 123.343437 226.556625 
C 119.886117 226.556625 116.569935 227.930233 114.12524 230.374927 
C 111.680545 232.819622 110.306937 236.135805 110.306937 239.593125 
C 110.306937 243.050445 111.680545 246.366628 114.12524 248.811323 
C 116.569935 251.256017 119.886117 252.629625 123.343437 252.629625 
z
" clip-path="url(#p178d6b86a3)" style="fill: #8000ff; stroke: #000000; stroke-linejoin: miter"/>
   </g>
   <g id="patch_91">
    <path d="M 152.313437 252.629625 
C 155.770758 252.629625 159.08694 251.256017 161.531635 248.811323 
C 163.97633 246.366628 165.349937 243.050445 165.349937 239.593125 
C 165.349937 236.135805 163.97633 232.819622 161.531635 230.374927 
C 159.08694 227.930233 155.770758 226.556625 152.313437 226.556625 
C 148.856117 226.556625 145.539935 227.930233 143.09524 230.374927 
C 140.650545 232.819622 139.276938 236.135805 139.276938 239.593125 
C 139.276938 243.050445 140.650545 246.366628 143.09524 248.811323 
C 145.539935 251.256017 148.856117 252.629625 152.313437 252.629625 
z
" clip-path="url(#p178d6b86a3)" style="fill: #8000ff; stroke: #000000; stroke-linejoin: miter"/>
   </g>
   <g id="patch_92">
    <path d="M 181.283437 252.629625 
C 184.740758 252.629625 188.05694 251.256017 190.501635 248.811323 
C 192.94633 246.366628 194.319937 243.050445 194.319937 239.593125 
C 194.319937 236.135805 192.94633 232.819622 190.501635 230.374927 
C 188.05694 227.930233 184.740758 226.556625 181.283437 226.556625 
C 177.826117 226.556625 174.509935 227.930233 172.06524 230.374927 
C 169.620545 232.819622 168.246938 236.135805 168.246938 239.593125 
C 168.246938 243.050445 169.620545 246.366628 172.06524 248.811323 
C 174.509935 251.256017 177.826117 252.629625 181.283437 252.629625 
z
" clip-path="url(#p178d6b86a3)" style="fill: #8000ff; stroke: #000000; stroke-linejoin: miter"/>
   </g>
   <g id="patch_93">
    <path d="M 210.253437 252.629625 
C 213.710758 252.629625 217.02694 251.256017 219.471635 248.811323 
C 221.91633 246.366628 223.289937 243.050445 223.289937 239.593125 
C 223.289937 236.135805 221.91633 232.819622 219.471635 230.374927 
C 217.02694 227.930233 213.710758 226.556625 210.253437 226.556625 
C 206.796117 226.556625 203.479935 227.930233 201.03524 230.374927 
C 198.590545 232.819622 197.216938 236.135805 197.216938 239.593125 
C 197.216938 243.050445 198.590545 246.366628 201.03524 248.811323 
C 203.479935 251.256017 206.796117 252.629625 210.253437 252.629625 
z
" clip-path="url(#p178d6b86a3)" style="fill: #8000ff; stroke: #000000; stroke-linejoin: miter"/>
   </g>
   <g id="patch_94">
    <path d="M 239.223437 252.629625 
C 242.680758 252.629625 245.99694 251.256017 248.441635 248.811323 
C 250.88633 246.366628 252.259937 243.050445 252.259937 239.593125 
C 252.259937 236.135805 250.88633 232.819622 248.441635 230.374927 
C 245.99694 227.930233 242.680758 226.556625 239.223437 226.556625 
C 235.766117 226.556625 232.449935 227.930233 230.00524 230.374927 
C 227.560545 232.819622 226.186937 236.135805 226.186937 239.593125 
C 226.186937 243.050445 227.560545 246.366628 230.00524 248.811323 
C 232.449935 251.256017 235.766117 252.629625 239.223437 252.629625 
z
" clip-path="url(#p178d6b86a3)" style="fill: #8000ff; stroke: #000000; stroke-linejoin: miter"/>
   </g>
   <g id="patch_95">
    <path d="M 268.193437 252.629625 
C 271.650758 252.629625 274.96694 251.256017 277.411635 248.811323 
C 279.85633 246.366628 281.229937 243.050445 281.229937 239.593125 
C 281.229937 236.135805 279.85633 232.819622 277.411635 230.374927 
C 274.96694 227.930233 271.650758 226.556625 268.193437 226.556625 
C 264.736117 226.556625 261.419935 227.930233 258.97524 230.374927 
C 256.530545 232.819622 255.156937 236.135805 255.156937 239.593125 
C 255.156937 243.050445 256.530545 246.366628 258.97524 248.811323 
C 261.419935 251.256017 264.736117 252.629625 268.193437 252.629625 
z
" clip-path="url(#p178d6b86a3)" style="fill: #8000ff; stroke: #000000; stroke-linejoin: miter"/>
   </g>
   <g id="patch_96">
    <path d="M 297.163437 252.629625 
C 300.620758 252.629625 303.93694 251.256017 306.381635 248.811323 
C 308.82633 246.366628 310.199937 243.050445 310.199937 239.593125 
C 310.199937 236.135805 308.82633 232.819622 306.381635 230.374927 
C 303.93694 227.930233 300.620758 226.556625 297.163437 226.556625 
C 293.706117 226.556625 290.389935 227.930233 287.94524 230.374927 
C 285.500545 232.819622 284.126937 236.135805 284.126937 239.593125 
C 284.126937 243.050445 285.500545 246.366628 287.94524 248.811323 
C 290.389935 251.256017 293.706117 252.629625 297.163437 252.629625 
z
" clip-path="url(#p178d6b86a3)" style="fill: #80ffb4; stroke: #000000; stroke-linejoin: miter"/>
   </g>
   <g id="patch_97">
    <path d="M 326.133438 252.629625 
C 329.590758 252.629625 332.90694 251.256017 335.351635 248.811323 
C 337.79633 246.366628 339.169938 243.050445 339.169938 239.593125 
C 339.169938 236.135805 337.79633 232.819622 335.351635 230.374927 
C 332.90694 227.930233 329.590758 226.556625 326.133438 226.556625 
C 322.676117 226.556625 319.359935 227.930233 316.91524 230.374927 
C 314.470545 232.819622 313.096938 236.135805 313.096938 239.593125 
C 313.096938 243.050445 314.470545 246.366628 316.91524 248.811323 
C 319.359935 251.256017 322.676117 252.629625 326.133438 252.629625 
z
" clip-path="url(#p178d6b86a3)" style="fill: #80ffb4; stroke: #000000; stroke-linejoin: miter"/>
   </g>
   <g id="patch_98">
    <path d="M 355.103437 252.629625 
C 358.560758 252.629625 361.87694 251.256017 364.321635 248.811323 
C 366.76633 246.366628 368.139937 243.050445 368.139937 239.593125 
C 368.139937 236.135805 366.76633 232.819622 364.321635 230.374927 
C 361.87694 227.930233 358.560758 226.556625 355.103437 226.556625 
C 351.646117 226.556625 348.329935 227.930233 345.88524 230.374927 
C 343.440545 232.819622 342.066937 236.135805 342.066937 239.593125 
C 342.066937 243.050445 343.440545 246.366628 345.88524 248.811323 
C 348.329935 251.256017 351.646117 252.629625 355.103437 252.629625 
z
" clip-path="url(#p178d6b86a3)" style="fill: #80ffb4; stroke: #000000; stroke-linejoin: miter"/>
   </g>
   <g id="matplotlib.axis_1">
    <g id="xtick_1">
     <g id="line2d_1">
      <defs>
       <path id="m1976c00dfd" d="M 0 0 
L 0 3.5 
" style="stroke: #000000; stroke-width: 0.8"/>
      </defs>
      <g>
       <use xlink:href="#m1976c00dfd" x="36.433437" y="254.078125" style="stroke: #000000; stroke-width: 0.8"/>
      </g>
     </g>
     <g id="text_1">
      <!-- 1 -->
      <g transform="translate(33.252187 268.676562) scale(0.1 -0.1)">
       <defs>
        <path id="DejaVuSans-31" d="M 794 531 
L 1825 531 
L 1825 4091 
L 703 3866 
L 703 4441 
L 1819 4666 
L 2450 4666 
L 2450 531 
L 3481 531 
L 3481 0 
L 794 0 
L 794 531 
z
" transform="scale(0.015625)"/>
       </defs>
       <use xlink:href="#DejaVuSans-31"/>
      </g>
     </g>
    </g>
    <g id="xtick_2">
     <g id="line2d_2">
      <g>
       <use xlink:href="#m1976c00dfd" x="65.403437" y="254.078125" style="stroke: #000000; stroke-width: 0.8"/>
      </g>
     </g>
     <g id="text_2">
      <!-- 2 -->
      <g transform="translate(62.222187 268.676562) scale(0.1 -0.1)">
       <defs>
        <path id="DejaVuSans-32" d="M 1228 531 
L 3431 531 
L 3431 0 
L 469 0 
L 469 531 
Q 828 903 1448 1529 
Q 2069 2156 2228 2338 
Q 2531 2678 2651 2914 
Q 2772 3150 2772 3378 
Q 2772 3750 2511 3984 
Q 2250 4219 1831 4219 
Q 1534 4219 1204 4116 
Q 875 4013 500 3803 
L 500 4441 
Q 881 4594 1212 4672 
Q 1544 4750 1819 4750 
Q 2544 4750 2975 4387 
Q 3406 4025 3406 3419 
Q 3406 3131 3298 2873 
Q 3191 2616 2906 2266 
Q 2828 2175 2409 1742 
Q 1991 1309 1228 531 
z
" transform="scale(0.015625)"/>
       </defs>
       <use xlink:href="#DejaVuSans-32"/>
      </g>
     </g>
    </g>
    <g id="xtick_3">
     <g id="line2d_3">
      <g>
       <use xlink:href="#m1976c00dfd" x="94.373437" y="254.078125" style="stroke: #000000; stroke-width: 0.8"/>
      </g>
     </g>
     <g id="text_3">
      <!-- 3 -->
      <g transform="translate(91.192187 268.676562) scale(0.1 -0.1)">
       <defs>
        <path id="DejaVuSans-33" d="M 2597 2516 
Q 3050 2419 3304 2112 
Q 3559 1806 3559 1356 
Q 3559 666 3084 287 
Q 2609 -91 1734 -91 
Q 1441 -91 1130 -33 
Q 819 25 488 141 
L 488 750 
Q 750 597 1062 519 
Q 1375 441 1716 441 
Q 2309 441 2620 675 
Q 2931 909 2931 1356 
Q 2931 1769 2642 2001 
Q 2353 2234 1838 2234 
L 1294 2234 
L 1294 2753 
L 1863 2753 
Q 2328 2753 2575 2939 
Q 2822 3125 2822 3475 
Q 2822 3834 2567 4026 
Q 2313 4219 1838 4219 
Q 1578 4219 1281 4162 
Q 984 4106 628 3988 
L 628 4550 
Q 988 4650 1302 4700 
Q 1616 4750 1894 4750 
Q 2613 4750 3031 4423 
Q 3450 4097 3450 3541 
Q 3450 3153 3228 2886 
Q 3006 2619 2597 2516 
z
" transform="scale(0.015625)"/>
       </defs>
       <use xlink:href="#DejaVuSans-33"/>
      </g>
     </g>
    </g>
    <g id="xtick_4">
     <g id="line2d_4">
      <g>
       <use xlink:href="#m1976c00dfd" x="123.343437" y="254.078125" style="stroke: #000000; stroke-width: 0.8"/>
      </g>
     </g>
     <g id="text_4">
      <!-- 4 -->
      <g transform="translate(120.162187 268.676562) scale(0.1 -0.1)">
       <defs>
        <path id="DejaVuSans-34" d="M 2419 4116 
L 825 1625 
L 2419 1625 
L 2419 4116 
z
M 2253 4666 
L 3047 4666 
L 3047 1625 
L 3713 1625 
L 3713 1100 
L 3047 1100 
L 3047 0 
L 2419 0 
L 2419 1100 
L 313 1100 
L 313 1709 
L 2253 4666 
z
" transform="scale(0.015625)"/>
       </defs>
       <use xlink:href="#DejaVuSans-34"/>
      </g>
     </g>
    </g>
    <g id="xtick_5">
     <g id="line2d_5">
      <g>
       <use xlink:href="#m1976c00dfd" x="152.313437" y="254.078125" style="stroke: #000000; stroke-width: 0.8"/>
      </g>
     </g>
     <g id="text_5">
      <!-- 5 -->
      <g transform="translate(149.132187 268.676562) scale(0.1 -0.1)">
       <defs>
        <path id="DejaVuSans-35" d="M 691 4666 
L 3169 4666 
L 3169 4134 
L 1269 4134 
L 1269 2991 
Q 1406 3038 1543 3061 
Q 1681 3084 1819 3084 
Q 2600 3084 3056 2656 
Q 3513 2228 3513 1497 
Q 3513 744 3044 326 
Q 2575 -91 1722 -91 
Q 1428 -91 1123 -41 
Q 819 9 494 109 
L 494 744 
Q 775 591 1075 516 
Q 1375 441 1709 441 
Q 2250 441 2565 725 
Q 2881 1009 2881 1497 
Q 2881 1984 2565 2268 
Q 2250 2553 1709 2553 
Q 1456 2553 1204 2497 
Q 953 2441 691 2322 
L 691 4666 
z
" transform="scale(0.015625)"/>
       </defs>
       <use xlink:href="#DejaVuSans-35"/>
      </g>
     </g>
    </g>
    <g id="xtick_6">
     <g id="line2d_6">
      <g>
       <use xlink:href="#m1976c00dfd" x="181.283437" y="254.078125" style="stroke: #000000; stroke-width: 0.8"/>
      </g>
     </g>
     <g id="text_6">
      <!-- 6 -->
      <g transform="translate(178.102187 268.676562) scale(0.1 -0.1)">
       <defs>
        <path id="DejaVuSans-36" d="M 2113 2584 
Q 1688 2584 1439 2293 
Q 1191 2003 1191 1497 
Q 1191 994 1439 701 
Q 1688 409 2113 409 
Q 2538 409 2786 701 
Q 3034 994 3034 1497 
Q 3034 2003 2786 2293 
Q 2538 2584 2113 2584 
z
M 3366 4563 
L 3366 3988 
Q 3128 4100 2886 4159 
Q 2644 4219 2406 4219 
Q 1781 4219 1451 3797 
Q 1122 3375 1075 2522 
Q 1259 2794 1537 2939 
Q 1816 3084 2150 3084 
Q 2853 3084 3261 2657 
Q 3669 2231 3669 1497 
Q 3669 778 3244 343 
Q 2819 -91 2113 -91 
Q 1303 -91 875 529 
Q 447 1150 447 2328 
Q 447 3434 972 4092 
Q 1497 4750 2381 4750 
Q 2619 4750 2861 4703 
Q 3103 4656 3366 4563 
z
" transform="scale(0.015625)"/>
       </defs>
       <use xlink:href="#DejaVuSans-36"/>
      </g>
     </g>
    </g>
    <g id="xtick_7">
     <g id="line2d_7">
      <g>
       <use xlink:href="#m1976c00dfd" x="210.253437" y="254.078125" style="stroke: #000000; stroke-width: 0.8"/>
      </g>
     </g>
     <g id="text_7">
      <!-- 7 -->
      <g transform="translate(207.072187 268.676562) scale(0.1 -0.1)">
       <defs>
        <path id="DejaVuSans-37" d="M 525 4666 
L 3525 4666 
L 3525 4397 
L 1831 0 
L 1172 0 
L 2766 4134 
L 525 4134 
L 525 4666 
z
" transform="scale(0.015625)"/>
       </defs>
       <use xlink:href="#DejaVuSans-37"/>
      </g>
     </g>
    </g>
    <g id="xtick_8">
     <g id="line2d_8">
      <g>
       <use xlink:href="#m1976c00dfd" x="239.223437" y="254.078125" style="stroke: #000000; stroke-width: 0.8"/>
      </g>
     </g>
     <g id="text_8">
      <!-- 8 -->
      <g transform="translate(236.042187 268.676562) scale(0.1 -0.1)">
       <defs>
        <path id="DejaVuSans-38" d="M 2034 2216 
Q 1584 2216 1326 1975 
Q 1069 1734 1069 1313 
Q 1069 891 1326 650 
Q 1584 409 2034 409 
Q 2484 409 2743 651 
Q 3003 894 3003 1313 
Q 3003 1734 2745 1975 
Q 2488 2216 2034 2216 
z
M 1403 2484 
Q 997 2584 770 2862 
Q 544 3141 544 3541 
Q 544 4100 942 4425 
Q 1341 4750 2034 4750 
Q 2731 4750 3128 4425 
Q 3525 4100 3525 3541 
Q 3525 3141 3298 2862 
Q 3072 2584 2669 2484 
Q 3125 2378 3379 2068 
Q 3634 1759 3634 1313 
Q 3634 634 3220 271 
Q 2806 -91 2034 -91 
Q 1263 -91 848 271 
Q 434 634 434 1313 
Q 434 1759 690 2068 
Q 947 2378 1403 2484 
z
M 1172 3481 
Q 1172 3119 1398 2916 
Q 1625 2713 2034 2713 
Q 2441 2713 2670 2916 
Q 2900 3119 2900 3481 
Q 2900 3844 2670 4047 
Q 2441 4250 2034 4250 
Q 1625 4250 1398 4047 
Q 1172 3844 1172 3481 
z
" transform="scale(0.015625)"/>
       </defs>
       <use xlink:href="#DejaVuSans-38"/>
      </g>
     </g>
    </g>
    <g id="xtick_9">
     <g id="line2d_9">
      <g>
       <use xlink:href="#m1976c00dfd" x="268.193437" y="254.078125" style="stroke: #000000; stroke-width: 0.8"/>
      </g>
     </g>
     <g id="text_9">
      <!-- 9 -->
      <g transform="translate(265.012187 268.676562) scale(0.1 -0.1)">
       <defs>
        <path id="DejaVuSans-39" d="M 703 97 
L 703 672 
Q 941 559 1184 500 
Q 1428 441 1663 441 
Q 2288 441 2617 861 
Q 2947 1281 2994 2138 
Q 2813 1869 2534 1725 
Q 2256 1581 1919 1581 
Q 1219 1581 811 2004 
Q 403 2428 403 3163 
Q 403 3881 828 4315 
Q 1253 4750 1959 4750 
Q 2769 4750 3195 4129 
Q 3622 3509 3622 2328 
Q 3622 1225 3098 567 
Q 2575 -91 1691 -91 
Q 1453 -91 1209 -44 
Q 966 3 703 97 
z
M 1959 2075 
Q 2384 2075 2632 2365 
Q 2881 2656 2881 3163 
Q 2881 3666 2632 3958 
Q 2384 4250 1959 4250 
Q 1534 4250 1286 3958 
Q 1038 3666 1038 3163 
Q 1038 2656 1286 2365 
Q 1534 2075 1959 2075 
z
" transform="scale(0.015625)"/>
       </defs>
       <use xlink:href="#DejaVuSans-39"/>
      </g>
     </g>
    </g>
    <g id="xtick_10">
     <g id="line2d_10">
      <g>
       <use xlink:href="#m1976c00dfd" x="297.163437" y="254.078125" style="stroke: #000000; stroke-width: 0.8"/>
      </g>
     </g>
     <g id="text_10">
      <!-- 10 -->
      <g transform="translate(290.800937 268.676562) scale(0.1 -0.1)">
       <defs>
        <path id="DejaVuSans-30" d="M 2034 4250 
Q 1547 4250 1301 3770 
Q 1056 3291 1056 2328 
Q 1056 1369 1301 889 
Q 1547 409 2034 409 
Q 2525 409 2770 889 
Q 3016 1369 3016 2328 
Q 3016 3291 2770 3770 
Q 2525 4250 2034 4250 
z
M 2034 4750 
Q 2819 4750 3233 4129 
Q 3647 3509 3647 2328 
Q 3647 1150 3233 529 
Q 2819 -91 2034 -91 
Q 1250 -91 836 529 
Q 422 1150 422 2328 
Q 422 3509 836 4129 
Q 1250 4750 2034 4750 
z
" transform="scale(0.015625)"/>
       </defs>
       <use xlink:href="#DejaVuSans-31"/>
       <use xlink:href="#DejaVuSans-30" x="63.623047"/>
      </g>
     </g>
    </g>
    <g id="xtick_11">
     <g id="line2d_11">
      <g>
       <use xlink:href="#m1976c00dfd" x="326.133438" y="254.078125" style="stroke: #000000; stroke-width: 0.8"/>
      </g>
     </g>
     <g id="text_11">
      <!-- 11 -->
      <g transform="translate(319.770938 268.676562) scale(0.1 -0.1)">
       <use xlink:href="#DejaVuSans-31"/>
       <use xlink:href="#DejaVuSans-31" x="63.623047"/>
      </g>
     </g>
    </g>
    <g id="xtick_12">
     <g id="line2d_12">
      <g>
       <use xlink:href="#m1976c00dfd" x="355.103437" y="254.078125" style="stroke: #000000; stroke-width: 0.8"/>
      </g>
     </g>
     <g id="text_12">
      <!-- 12 -->
      <g transform="translate(348.740937 268.676562) scale(0.1 -0.1)">
       <use xlink:href="#DejaVuSans-31"/>
       <use xlink:href="#DejaVuSans-32" x="63.623047"/>
      </g>
     </g>
    </g>
   </g>
   <g id="matplotlib.axis_2">
    <g id="ytick_1">
     <g id="line2d_13">
      <defs>
       <path id="m95761d7a39" d="M 0 0 
L -3.5 0 
" style="stroke: #000000; stroke-width: 0.8"/>
      </defs>
      <g>
       <use xlink:href="#m95761d7a39" x="21.948438" y="36.803125" style="stroke: #000000; stroke-width: 0.8"/>
      </g>
     </g>
     <g id="text_13">
      <!-- A -->
      <g transform="translate(8.107813 40.602344) scale(0.1 -0.1)">
       <defs>
        <path id="DejaVuSans-41" d="M 2188 4044 
L 1331 1722 
L 3047 1722 
L 2188 4044 
z
M 1831 4666 
L 2547 4666 
L 4325 0 
L 3669 0 
L 3244 1197 
L 1141 1197 
L 716 0 
L 50 0 
L 1831 4666 
z
" transform="scale(0.015625)"/>
       </defs>
       <use xlink:href="#DejaVuSans-41"/>
      </g>
     </g>
    </g>
    <g id="ytick_2">
     <g id="line2d_14">
      <g>
       <use xlink:href="#m95761d7a39" x="21.948438" y="65.773125" style="stroke: #000000; stroke-width: 0.8"/>
      </g>
     </g>
     <g id="text_14">
      <!-- B -->
      <g transform="translate(8.0875 69.572344) scale(0.1 -0.1)">
       <defs>
        <path id="DejaVuSans-42" d="M 1259 2228 
L 1259 519 
L 2272 519 
Q 2781 519 3026 730 
Q 3272 941 3272 1375 
Q 3272 1813 3026 2020 
Q 2781 2228 2272 2228 
L 1259 2228 
z
M 1259 4147 
L 1259 2741 
L 2194 2741 
Q 2656 2741 2882 2914 
Q 3109 3088 3109 3444 
Q 3109 3797 2882 3972 
Q 2656 4147 2194 4147 
L 1259 4147 
z
M 628 4666 
L 2241 4666 
Q 2963 4666 3353 4366 
Q 3744 4066 3744 3513 
Q 3744 3084 3544 2831 
Q 3344 2578 2956 2516 
Q 3422 2416 3680 2098 
Q 3938 1781 3938 1306 
Q 3938 681 3513 340 
Q 3088 0 2303 0 
L 628 0 
L 628 4666 
z
" transform="scale(0.015625)"/>
       </defs>
       <use xlink:href="#DejaVuSans-42"/>
      </g>
     </g>
    </g>
    <g id="ytick_3">
     <g id="line2d_15">
      <g>
       <use xlink:href="#m95761d7a39" x="21.948438" y="94.743125" style="stroke: #000000; stroke-width: 0.8"/>
      </g>
     </g>
     <g id="text_15">
      <!-- C -->
      <g transform="translate(7.965625 98.542344) scale(0.1 -0.1)">
       <defs>
        <path id="DejaVuSans-43" d="M 4122 4306 
L 4122 3641 
Q 3803 3938 3442 4084 
Q 3081 4231 2675 4231 
Q 1875 4231 1450 3742 
Q 1025 3253 1025 2328 
Q 1025 1406 1450 917 
Q 1875 428 2675 428 
Q 3081 428 3442 575 
Q 3803 722 4122 1019 
L 4122 359 
Q 3791 134 3420 21 
Q 3050 -91 2638 -91 
Q 1578 -91 968 557 
Q 359 1206 359 2328 
Q 359 3453 968 4101 
Q 1578 4750 2638 4750 
Q 3056 4750 3426 4639 
Q 3797 4528 4122 4306 
z
" transform="scale(0.015625)"/>
       </defs>
       <use xlink:href="#DejaVuSans-43"/>
      </g>
     </g>
    </g>
    <g id="ytick_4">
     <g id="line2d_16">
      <g>
       <use xlink:href="#m95761d7a39" x="21.948438" y="123.713125" style="stroke: #000000; stroke-width: 0.8"/>
      </g>
     </g>
     <g id="text_16">
      <!-- D -->
      <g transform="translate(7.248438 127.512344) scale(0.1 -0.1)">
       <defs>
        <path id="DejaVuSans-44" d="M 1259 4147 
L 1259 519 
L 2022 519 
Q 2988 519 3436 956 
Q 3884 1394 3884 2338 
Q 3884 3275 3436 3711 
Q 2988 4147 2022 4147 
L 1259 4147 
z
M 628 4666 
L 1925 4666 
Q 3281 4666 3915 4102 
Q 4550 3538 4550 2338 
Q 4550 1131 3912 565 
Q 3275 0 1925 0 
L 628 0 
L 628 4666 
z
" transform="scale(0.015625)"/>
       </defs>
       <use xlink:href="#DejaVuSans-44"/>
      </g>
     </g>
    </g>
    <g id="ytick_5">
     <g id="line2d_17">
      <g>
       <use xlink:href="#m95761d7a39" x="21.948438" y="152.683125" style="stroke: #000000; stroke-width: 0.8"/>
      </g>
     </g>
     <g id="text_17">
      <!-- E -->
      <g transform="translate(8.629687 156.482344) scale(0.1 -0.1)">
       <defs>
        <path id="DejaVuSans-45" d="M 628 4666 
L 3578 4666 
L 3578 4134 
L 1259 4134 
L 1259 2753 
L 3481 2753 
L 3481 2222 
L 1259 2222 
L 1259 531 
L 3634 531 
L 3634 0 
L 628 0 
L 628 4666 
z
" transform="scale(0.015625)"/>
       </defs>
       <use xlink:href="#DejaVuSans-45"/>
      </g>
     </g>
    </g>
    <g id="ytick_6">
     <g id="line2d_18">
      <g>
       <use xlink:href="#m95761d7a39" x="21.948438" y="181.653125" style="stroke: #000000; stroke-width: 0.8"/>
      </g>
     </g>
     <g id="text_18">
      <!-- F -->
      <g transform="translate(9.196875 185.452344) scale(0.1 -0.1)">
       <defs>
        <path id="DejaVuSans-46" d="M 628 4666 
L 3309 4666 
L 3309 4134 
L 1259 4134 
L 1259 2759 
L 3109 2759 
L 3109 2228 
L 1259 2228 
L 1259 0 
L 628 0 
L 628 4666 
z
" transform="scale(0.015625)"/>
       </defs>
       <use xlink:href="#DejaVuSans-46"/>
      </g>
     </g>
    </g>
    <g id="ytick_7">
     <g id="line2d_19">
      <g>
       <use xlink:href="#m95761d7a39" x="21.948438" y="210.623125" style="stroke: #000000; stroke-width: 0.8"/>
      </g>
     </g>
     <g id="text_19">
      <!-- G -->
      <g transform="translate(7.2 214.422344) scale(0.1 -0.1)">
       <defs>
        <path id="DejaVuSans-47" d="M 3809 666 
L 3809 1919 
L 2778 1919 
L 2778 2438 
L 4434 2438 
L 4434 434 
Q 4069 175 3628 42 
Q 3188 -91 2688 -91 
Q 1594 -91 976 548 
Q 359 1188 359 2328 
Q 359 3472 976 4111 
Q 1594 4750 2688 4750 
Q 3144 4750 3555 4637 
Q 3966 4525 4313 4306 
L 4313 3634 
Q 3963 3931 3569 4081 
Q 3175 4231 2741 4231 
Q 1884 4231 1454 3753 
Q 1025 3275 1025 2328 
Q 1025 1384 1454 906 
Q 1884 428 2741 428 
Q 3075 428 3337 486 
Q 3600 544 3809 666 
z
" transform="scale(0.015625)"/>
       </defs>
       <use xlink:href="#DejaVuSans-47"/>
      </g>
     </g>
    </g>
    <g id="ytick_8">
     <g id="line2d_20">
      <g>
       <use xlink:href="#m95761d7a39" x="21.948438" y="239.593125" style="stroke: #000000; stroke-width: 0.8"/>
      </g>
     </g>
     <g id="text_20">
      <!-- H -->
      <g transform="translate(7.428125 243.392344) scale(0.1 -0.1)">
       <defs>
        <path id="DejaVuSans-48" d="M 628 4666 
L 1259 4666 
L 1259 2753 
L 3553 2753 
L 3553 4666 
L 4184 4666 
L 4184 0 
L 3553 0 
L 3553 2222 
L 1259 2222 
L 1259 0 
L 628 0 
L 628 4666 
z
" transform="scale(0.015625)"/>
       </defs>
       <use xlink:href="#DejaVuSans-48"/>
      </g>
     </g>
    </g>
   </g>
   <g id="patch_99">
    <path d="M 21.948438 254.078125 
L 21.948438 22.318125 
" style="fill: none; stroke: #000000; stroke-width: 0.8; stroke-linejoin: miter; stroke-linecap: square"/>
   </g>
   <g id="patch_100">
    <path d="M 369.588437 254.078125 
L 369.588437 22.318125 
" style="fill: none; stroke: #000000; stroke-width: 0.8; stroke-linejoin: miter; stroke-linecap: square"/>
   </g>
   <g id="patch_101">
    <path d="M 21.948437 254.078125 
L 369.588437 254.078125 
" style="fill: none; stroke: #000000; stroke-width: 0.8; stroke-linejoin: miter; stroke-linecap: square"/>
   </g>
   <g id="patch_102">
    <path d="M 21.948437 22.318125 
L 369.588437 22.318125 
" style="fill: none; stroke: #000000; stroke-width: 0.8; stroke-linejoin: miter; stroke-linecap: square"/>
   </g>
   <g id="text_21">
    <!-- inducible_fluorophore -->
    <g transform="translate(130.991875 16.318125) scale(0.12 -0.12)">
     <defs>
      <path id="DejaVuSans-69" d="M 603 3500 
L 1178 3500 
L 1178 0 
L 603 0 
L 603 3500 
z
M 603 4863 
L 1178 4863 
L 1178 4134 
L 603 4134 
L 603 4863 
z
" transform="scale(0.015625)"/>
      <path id="DejaVuSans-6e" d="M 3513 2113 
L 3513 0 
L 2938 0 
L 2938 2094 
Q 2938 2591 2744 2837 
Q 2550 3084 2163 3084 
Q 1697 3084 1428 2787 
Q 1159 2491 1159 1978 
L 1159 0 
L 581 0 
L 581 3500 
L 1159 3500 
L 1159 2956 
Q 1366 3272 1645 3428 
Q 1925 3584 2291 3584 
Q 2894 3584 3203 3211 
Q 3513 2838 3513 2113 
z
" transform="scale(0.015625)"/>
      <path id="DejaVuSans-64" d="M 2906 2969 
L 2906 4863 
L 3481 4863 
L 3481 0 
L 2906 0 
L 2906 525 
Q 2725 213 2448 61 
Q 2172 -91 1784 -91 
Q 1150 -91 751 415 
Q 353 922 353 1747 
Q 353 2572 751 3078 
Q 1150 3584 1784 3584 
Q 2172 3584 2448 3432 
Q 2725 3281 2906 2969 
z
M 947 1747 
Q 947 1113 1208 752 
Q 1469 391 1925 391 
Q 2381 391 2643 752 
Q 2906 1113 2906 1747 
Q 2906 2381 2643 2742 
Q 2381 3103 1925 3103 
Q 1469 3103 1208 2742 
Q 947 2381 947 1747 
z
" transform="scale(0.015625)"/>
      <path id="DejaVuSans-75" d="M 544 1381 
L 544 3500 
L 1119 3500 
L 1119 1403 
Q 1119 906 1312 657 
Q 1506 409 1894 409 
Q 2359 409 2629 706 
Q 2900 1003 2900 1516 
L 2900 3500 
L 3475 3500 
L 3475 0 
L 2900 0 
L 2900 538 
Q 2691 219 2414 64 
Q 2138 -91 1772 -91 
Q 1169 -91 856 284 
Q 544 659 544 1381 
z
M 1991 3584 
L 1991 3584 
z
" transform="scale(0.015625)"/>
      <path id="DejaVuSans-63" d="M 3122 3366 
L 3122 2828 
Q 2878 2963 2633 3030 
Q 2388 3097 2138 3097 
Q 1578 3097 1268 2742 
Q 959 2388 959 1747 
Q 959 1106 1268 751 
Q 1578 397 2138 397 
Q 2388 397 2633 464 
Q 2878 531 3122 666 
L 3122 134 
Q 2881 22 2623 -34 
Q 2366 -91 2075 -91 
Q 1284 -91 818 406 
Q 353 903 353 1747 
Q 353 2603 823 3093 
Q 1294 3584 2113 3584 
Q 2378 3584 2631 3529 
Q 2884 3475 3122 3366 
z
" transform="scale(0.015625)"/>
      <path id="DejaVuSans-62" d="M 3116 1747 
Q 3116 2381 2855 2742 
Q 2594 3103 2138 3103 
Q 1681 3103 1420 2742 
Q 1159 2381 1159 1747 
Q 1159 1113 1420 752 
Q 1681 391 2138 391 
Q 2594 391 2855 752 
Q 3116 1113 3116 1747 
z
M 1159 2969 
Q 1341 3281 1617 3432 
Q 1894 3584 2278 3584 
Q 2916 3584 3314 3078 
Q 3713 2572 3713 1747 
Q 3713 922 3314 415 
Q 2916 -91 2278 -91 
Q 1894 -91 1617 61 
Q 1341 213 1159 525 
L 1159 0 
L 581 0 
L 581 4863 
L 1159 4863 
L 1159 2969 
z
" transform="scale(0.015625)"/>
      <path id="DejaVuSans-6c" d="M 603 4863 
L 1178 4863 
L 1178 0 
L 603 0 
L 603 4863 
z
" transform="scale(0.015625)"/>
      <path id="DejaVuSans-65" d="M 3597 1894 
L 3597 1613 
L 953 1613 
Q 991 1019 1311 708 
Q 1631 397 2203 397 
Q 2534 397 2845 478 
Q 3156 559 3463 722 
L 3463 178 
Q 3153 47 2828 -22 
Q 2503 -91 2169 -91 
Q 1331 -91 842 396 
Q 353 884 353 1716 
Q 353 2575 817 3079 
Q 1281 3584 2069 3584 
Q 2775 3584 3186 3129 
Q 3597 2675 3597 1894 
z
M 3022 2063 
Q 3016 2534 2758 2815 
Q 2500 3097 2075 3097 
Q 1594 3097 1305 2825 
Q 1016 2553 972 2059 
L 3022 2063 
z
" transform="scale(0.015625)"/>
      <path id="DejaVuSans-5f" d="M 3263 -1063 
L 3263 -1509 
L -63 -1509 
L -63 -1063 
L 3263 -1063 
z
" transform="scale(0.015625)"/>
      <path id="DejaVuSans-66" d="M 2375 4863 
L 2375 4384 
L 1825 4384 
Q 1516 4384 1395 4259 
Q 1275 4134 1275 3809 
L 1275 3500 
L 2222 3500 
L 2222 3053 
L 1275 3053 
L 1275 0 
L 697 0 
L 697 3053 
L 147 3053 
L 147 3500 
L 697 3500 
L 697 3744 
Q 697 4328 969 4595 
Q 1241 4863 1831 4863 
L 2375 4863 
z
" transform="scale(0.015625)"/>
      <path id="DejaVuSans-6f" d="M 1959 3097 
Q 1497 3097 1228 2736 
Q 959 2375 959 1747 
Q 959 1119 1226 758 
Q 1494 397 1959 397 
Q 2419 397 2687 759 
Q 2956 1122 2956 1747 
Q 2956 2369 2687 2733 
Q 2419 3097 1959 3097 
z
M 1959 3584 
Q 2709 3584 3137 3096 
Q 3566 2609 3566 1747 
Q 3566 888 3137 398 
Q 2709 -91 1959 -91 
Q 1206 -91 779 398 
Q 353 888 353 1747 
Q 353 2609 779 3096 
Q 1206 3584 1959 3584 
z
" transform="scale(0.015625)"/>
      <path id="DejaVuSans-72" d="M 2631 2963 
Q 2534 3019 2420 3045 
Q 2306 3072 2169 3072 
Q 1681 3072 1420 2755 
Q 1159 2438 1159 1844 
L 1159 0 
L 581 0 
L 581 3500 
L 1159 3500 
L 1159 2956 
Q 1341 3275 1631 3429 
Q 1922 3584 2338 3584 
Q 2397 3584 2469 3576 
Q 2541 3569 2628 3553 
L 2631 2963 
z
" transform="scale(0.015625)"/>
      <path id="DejaVuSans-70" d="M 1159 525 
L 1159 -1331 
L 581 -1331 
L 581 3500 
L 1159 3500 
L 1159 2969 
Q 1341 3281 1617 3432 
Q 1894 3584 2278 3584 
Q 2916 3584 3314 3078 
Q 3713 2572 3713 1747 
Q 3713 922 3314 415 
Q 2916 -91 2278 -91 
Q 1894 -91 1617 61 
Q 1341 213 1159 525 
z
M 3116 1747 
Q 3116 2381 2855 2742 
Q 2594 3103 2138 3103 
Q 1681 3103 1420 2742 
Q 1159 2381 1159 1747 
Q 1159 1113 1420 752 
Q 1681 391 2138 391 
Q 2594 391 2855 752 
Q 3116 1113 3116 1747 
z
" transform="scale(0.015625)"/>
      <path id="DejaVuSans-68" d="M 3513 2113 
L 3513 0 
L 2938 0 
L 2938 2094 
Q 2938 2591 2744 2837 
Q 2550 3084 2163 3084 
Q 1697 3084 1428 2787 
Q 1159 2491 1159 1978 
L 1159 0 
L 581 0 
L 581 4863 
L 1159 4863 
L 1159 2956 
Q 1366 3272 1645 3428 
Q 1925 3584 2291 3584 
Q 2894 3584 3203 3211 
Q 3513 2838 3513 2113 
z
" transform="scale(0.015625)"/>
     </defs>
     <use xlink:href="#DejaVuSans-69"/>
     <use xlink:href="#DejaVuSans-6e" x="27.783203"/>
     <use xlink:href="#DejaVuSans-64" x="91.162109"/>
     <use xlink:href="#DejaVuSans-75" x="154.638672"/>
     <use xlink:href="#DejaVuSans-63" x="218.017578"/>
     <use xlink:href="#DejaVuSans-69" x="272.998047"/>
     <use xlink:href="#DejaVuSans-62" x="300.78125"/>
     <use xlink:href="#DejaVuSans-6c" x="364.257812"/>
     <use xlink:href="#DejaVuSans-65" x="392.041016"/>
     <use xlink:href="#DejaVuSans-5f" x="453.564453"/>
     <use xlink:href="#DejaVuSans-66" x="503.564453"/>
     <use xlink:href="#DejaVuSans-6c" x="538.769531"/>
     <use xlink:href="#DejaVuSans-75" x="566.552734"/>
     <use xlink:href="#DejaVuSans-6f" x="629.931641"/>
     <use xlink:href="#DejaVuSans-72" x="691.113281"/>
     <use xlink:href="#DejaVuSans-6f" x="729.976562"/>
     <use xlink:href="#DejaVuSans-70" x="791.158203"/>
     <use xlink:href="#DejaVuSans-68" x="854.634766"/>
     <use xlink:href="#DejaVuSans-6f" x="918.013672"/>
     <use xlink:href="#DejaVuSans-72" x="979.195312"/>
     <use xlink:href="#DejaVuSans-65" x="1018.058594"/>
    </g>
   </g>
   <g id="legend_1">
    <g id="patch_103">
     <path d="M 376.588437 154.37625 
L 444.165 154.37625 
Q 446.165 154.37625 446.165 152.37625 
L 446.165 124.02 
Q 446.165 122.02 444.165 122.02 
L 376.588437 122.02 
Q 374.588437 122.02 374.588437 124.02 
L 374.588437 152.37625 
Q 374.588437 154.37625 376.588437 154.37625 
z
" style="fill: #ffffff; opacity: 0.8; stroke: #cccccc; stroke-linejoin: miter"/>
    </g>
    <g id="patch_104">
     <path d="M 378.588437 133.618437 
L 398.588437 133.618437 
L 398.588437 126.618437 
L 378.588437 126.618437 
z
" style="fill: #8000ff; stroke: #000000; stroke-linejoin: miter"/>
    </g>
    <g id="text_22">
     <!-- TagBFP -->
     <g transform="translate(406.588437 133.618437) scale(0.1 -0.1)">
      <defs>
       <path id="DejaVuSans-54" d="M -19 4666 
L 3928 4666 
L 3928 4134 
L 2272 4134 
L 2272 0 
L 1638 0 
L 1638 4134 
L -19 4134 
L -19 4666 
z
" transform="scale(0.015625)"/>
       <path id="DejaVuSans-61" d="M 2194 1759 
Q 1497 1759 1228 1600 
Q 959 1441 959 1056 
Q 959 750 1161 570 
Q 1363 391 1709 391 
Q 2188 391 2477 730 
Q 2766 1069 2766 1631 
L 2766 1759 
L 2194 1759 
z
M 3341 1997 
L 3341 0 
L 2766 0 
L 2766 531 
Q 2569 213 2275 61 
Q 1981 -91 1556 -91 
Q 1019 -91 701 211 
Q 384 513 384 1019 
Q 384 1609 779 1909 
Q 1175 2209 1959 2209 
L 2766 2209 
L 2766 2266 
Q 2766 2663 2505 2880 
Q 2244 3097 1772 3097 
Q 1472 3097 1187 3025 
Q 903 2953 641 2809 
L 641 3341 
Q 956 3463 1253 3523 
Q 1550 3584 1831 3584 
Q 2591 3584 2966 3190 
Q 3341 2797 3341 1997 
z
" transform="scale(0.015625)"/>
       <path id="DejaVuSans-67" d="M 2906 1791 
Q 2906 2416 2648 2759 
Q 2391 3103 1925 3103 
Q 1463 3103 1205 2759 
Q 947 2416 947 1791 
Q 947 1169 1205 825 
Q 1463 481 1925 481 
Q 2391 481 2648 825 
Q 2906 1169 2906 1791 
z
M 3481 434 
Q 3481 -459 3084 -895 
Q 2688 -1331 1869 -1331 
Q 1566 -1331 1297 -1286 
Q 1028 -1241 775 -1147 
L 775 -588 
Q 1028 -725 1275 -790 
Q 1522 -856 1778 -856 
Q 2344 -856 2625 -561 
Q 2906 -266 2906 331 
L 2906 616 
Q 2728 306 2450 153 
Q 2172 0 1784 0 
Q 1141 0 747 490 
Q 353 981 353 1791 
Q 353 2603 747 3093 
Q 1141 3584 1784 3584 
Q 2172 3584 2450 3431 
Q 2728 3278 2906 2969 
L 2906 3500 
L 3481 3500 
L 3481 434 
z
" transform="scale(0.015625)"/>
       <path id="DejaVuSans-50" d="M 1259 4147 
L 1259 2394 
L 2053 2394 
Q 2494 2394 2734 2622 
Q 2975 2850 2975 3272 
Q 2975 3691 2734 3919 
Q 2494 4147 2053 4147 
L 1259 4147 
z
M 628 4666 
L 2053 4666 
Q 2838 4666 3239 4311 
Q 3641 3956 3641 3272 
Q 3641 2581 3239 2228 
Q 2838 1875 2053 1875 
L 1259 1875 
L 1259 0 
L 628 0 
L 628 4666 
z
" transform="scale(0.015625)"/>
      </defs>
      <use xlink:href="#DejaVuSans-54"/>
      <use xlink:href="#DejaVuSans-61" x="44.583984"/>
      <use xlink:href="#DejaVuSans-67" x="105.863281"/>
      <use xlink:href="#DejaVuSans-42" x="169.339844"/>
      <use xlink:href="#DejaVuSans-46" x="237.943359"/>
      <use xlink:href="#DejaVuSans-50" x="295.462891"/>
     </g>
    </g>
    <g id="patch_105">
     <path d="M 378.588437 148.296562 
L 398.588437 148.296562 
L 398.588437 141.296562 
L 378.588437 141.296562 
z
" style="fill: #80ffb4; stroke: #000000; stroke-linejoin: miter"/>
    </g>
    <g id="text_23">
     <!-- EGFP -->
     <g transform="translate(406.588437 148.296562) scale(0.1 -0.1)">
      <use xlink:href="#DejaVuSans-45"/>
      <use xlink:href="#DejaVuSans-47" x="63.183594"/>
      <use xlink:href="#DejaVuSans-46" x="140.673828"/>
      <use xlink:href="#DejaVuSans-50" x="198.193359"/>
     </g>
    </g>
   </g>
  </g>
 </g>
 <defs>
  <clipPath id="p178d6b86a3">
   <rect x="21.948438" y="22.318125" width="347.64" height="231.76"/>
  </clipPath>
 </defs>
</svg>
