<?xml version="1.0" encoding="utf-8" standalone="no"?>
<!DOCTYPE svg PUBLIC "-//W3C//DTD SVG 1.1//EN"
  "http://www.w3.org/Graphics/SVG/1.1/DTD/svg11.dtd">
<svg xmlns:xlink="http://www.w3.org/1999/xlink" width="453.670937pt" height="297.63625pt" viewBox="0 0 453.670937 297.63625" xmlns="http://www.w3.org/2000/svg" version="1.1">
 <metadata>
  <rdf:RDF xmlns:dc="http://purl.org/dc/elements/1.1/" xmlns:cc="http://creativecommons.org/ns#" xmlns:rdf="http://www.w3.org/1999/02/22-rdf-syntax-ns#">
   <cc:Work>
    <dc:type rdf:resource="http://purl.org/dc/dcmitype/StillImage"/>
    <dc:date>2026-02-26T17:11:34+00:00</dc:date>
    <dc:format>image/svg+xml</dc:format>
    <dc:creator>
     <cc:Agent>
      <dc:title>Matplotlib v3.7.5, https://matplotlib.org/</dc:title>
     </cc:Agent>
    </dc:creator>
   </cc:Work>
  </rdf:RDF>
 </metadata>
 <defs>
  <style type="text/css">*{stroke-linejoin: round; stroke-linecap: butt}</style>
 </defs>
 <g id="figure_1">
  <g id="patch_1">
   <path d="M 0 297.63625 
L 453.670937 297.63625 
L 453.670937 0 
L 0 0 
z
" style="fill: #ffffff"/>
  </g>
  <g id="axes_1">
   <g id="patch_2">
    <path d="M 21.948438 273.758125 
L 399.108437 273.758125 
L 399.108437 22.318125 
L 21.948438 22.318125 
z
" style="fill: #ffffff"/>
   </g>
   <g id="patch_3">
    <path d="M 37.663438 52.176625 
C 41.414338 52.176625 45.012115 50.686377 47.664402 48.03409 
C 50.316689 45.381803 51.806937 41.784025 51.806937 38.033125 
C 51.806937 34.282225 50.316689 30.684447 47.664402 28.03216 
C 45.012115 25.379873 41.414338 23.889625 37.663438 23.889625 
C 33.912537 23.889625 30.31476 25.379873 27.662473 28.03216 
C 25.010186 30.684447 23.519938 34.282225 23.519938 38.033125 
C 23.519938 41.784025 25.010186 45.381803 27.662473 48.03409 
C 30.31476 50.686377 33.912537 52.176625 37.663438 52.176625 
z
" clip-path="url(#p4cdbf7d318)" style="fill: #440154; stroke: #000000; stroke-linejoin: miter"/>
   </g>
   <g id="patch_4">
    <path d="M 69.093437 52.176625 
C 72.844338 52.176625 76.442115 50.686377 79.094402 48.03409 
C 81.746689 45.381803 83.236937 41.784025 83.236937 38.033125 
C 83.236937 34.282225 81.746689 30.684447 79.094402 28.03216 
C 76.442115 25.379873 72.844338 23.889625 69.093437 23.889625 
C 65.342537 23.889625 61.74476 25.379873 59.092473 28.03216 
C 56.440186 30.684447 54.949937 34.282225 54.949937 38.033125 
C 54.949937 41.784025 56.440186 45.381803 59.092473 48.03409 
C 61.74476 50.686377 65.342537 52.176625 69.093437 52.176625 
z
" clip-path="url(#p4cdbf7d318)" style="fill: #440154; stroke: #000000; stroke-linejoin: miter"/>
   </g>
   <g id="patch_5">
    <path d="M 100.523438 52.176625 
C 104.274338 52.176625 107.872115 50.686377 110.524402 48.03409 
C 113.176689 45.381803 114.666938 41.784025 114.666938 38.033125 
C 114.666938 34.282225 113.176689 30.684447 110.524402 28.03216 
C 107.872115 25.379873 104.274338 23.889625 100.523438 23.889625 
C 96.772537 23.889625 93.17476 25.379873 90.522473 28.03216 
C 87.870186 30.684447 86.379937 34.282225 86.379937 38.033125 
C 86.379937 41.784025 87.870186 45.381803 90.522473 48.03409 
C 93.17476 50.686377 96.772537 52.176625 100.523438 52.176625 
z
" clip-path="url(#p4cdbf7d318)" style="fill: #440154; stroke: #000000; stroke-linejoin: miter"/>
   </g>
   <g id="patch_6">
    <path d="M 131.953438 52.176625 
C 135.704338 52.176625 139.302115 50.686377 141.954402 48.03409 
C 144.606689 45.381803 146.096937 41.784025 146.096937 38.033125 
C 146.096937 34.282225 144.606689 30.684447 141.954402 28.03216 
C 139.302115 25.379873 135.704338 23.889625 131.953438 23.889625 
C 128.202537 23.889625 124.60476 25.379873 121.952473 28.03216 
C 119.300186 30.684447 117.809938 34.282225 117.809938 38.033125 
C 117.809938 41.784025 119.300186 45.381803 121.952473 48.03409 
C 124.60476 50.686377 128.202537 52.176625 131.953438 52.176625 
z
" clip-path="url(#p4cdbf7d318)" style="fill: #440154; stroke: #000000; stroke-linejoin: miter"/>
   </g>
   <g id="patch_7">
    <path d="M 163.383437 52.176625 
C 167.134338 52.176625 170.732115 50.686377 173.384402 48.03409 
C 176.036689 45.381803 177.526937 41.784025 177.526937 38.033125 
C 177.526937 34.282225 176.036689 30.684447 173.384402 28.03216 
C 170.732115 25.379873 167.134338 23.889625 163.383437 23.889625 
C 159.632537 23.889625 156.03476 25.379873 153.382473 28.03216 
C 150.730186 30.684447 149.239937 34.282225 149.239937 38.033125 
C 149.239937 41.784025 150.730186 45.381803 153.382473 48.03409 
C 156.03476 50.686377 159.632537 52.176625 163.383437 52.176625 
z
" clip-path="url(#p4cdbf7d318)" style="fill: #440154; stroke: #000000; stroke-linejoin: miter"/>
   </g>
   <g id="patch_8">
    <path d="M 194.813437 52.176625 
C 198.564338 52.176625 202.162115 50.686377 204.814402 48.03409 
C 207.466689 45.381803 208.956937 41.784025 208.956937 38.033125 
C 208.956937 34.282225 207.466689 30.684447 204.814402 28.03216 
C 202.162115 25.379873 198.564338 23.889625 194.813437 23.889625 
C 191.062537 23.889625 187.46476 25.379873 184.812473 28.03216 
C 182.160186 30.684447 180.669937 34.282225 180.669937 38.033125 
C 180.669937 41.784025 182.160186 45.381803 184.812473 48.03409 
C 187.46476 50.686377 191.062537 52.176625 194.813437 52.176625 
z
" clip-path="url(#p4cdbf7d318)" style="fill: #440154; stroke: #000000; stroke-linejoin: miter"/>
   </g>
   <g id="patch_9">
    <path d="M 226.243437 52.176625 
C 229.994338 52.176625 233.592115 50.686377 236.244402 48.03409 
C 238.896689 45.381803 240.386937 41.784025 240.386937 38.033125 
C 240.386937 34.282225 238.896689 30.684447 236.244402 28.03216 
C 233.592115 25.379873 229.994338 23.889625 226.243437 23.889625 
C 222.492537 23.889625 218.89476 25.379873 216.242473 28.03216 
C 213.590186 30.684447 212.099937 34.282225 212.099937 38.033125 
C 212.099937 41.784025 213.590186 45.381803 216.242473 48.03409 
C 218.89476 50.686377 222.492537 52.176625 226.243437 52.176625 
z
" clip-path="url(#p4cdbf7d318)" style="fill: #440154; stroke: #000000; stroke-linejoin: miter"/>
   </g>
   <g id="patch_10">
    <path d="M 257.673437 52.176625 
C 261.424338 52.176625 265.022115 50.686377 267.674402 48.03409 
C 270.326689 45.381803 271.816937 41.784025 271.816937 38.033125 
C 271.816937 34.282225 270.326689 30.684447 267.674402 28.03216 
C 265.022115 25.379873 261.424338 23.889625 257.673437 23.889625 
C 253.922537 23.889625 250.32476 25.379873 247.672473 28.03216 
C 245.020186 30.684447 243.529937 34.282225 243.529937 38.033125 
C 243.529937 41.784025 245.020186 45.381803 247.672473 48.03409 
C 250.32476 50.686377 253.922537 52.176625 257.673437 52.176625 
z
" clip-path="url(#p4cdbf7d318)" style="fill: #440154; stroke: #000000; stroke-linejoin: miter"/>
   </g>
   <g id="patch_11">
    <path d="M 289.103437 52.176625 
C 292.854338 52.176625 296.452115 50.686377 299.104402 48.03409 
C 301.756689 45.381803 303.246938 41.784025 303.246938 38.033125 
C 303.246938 34.282225 301.756689 30.684447 299.104402 28.03216 
C 296.452115 25.379873 292.854338 23.889625 289.103437 23.889625 
C 285.352537 23.889625 281.75476 25.379873 279.102473 28.03216 
C 276.450186 30.684447 274.959937 34.282225 274.959937 38.033125 
C 274.959937 41.784025 276.450186 45.381803 279.102473 48.03409 
C 281.75476 50.686377 285.352537 52.176625 289.103437 52.176625 
z
" clip-path="url(#p4cdbf7d318)" style="fill: #440154; stroke: #000000; stroke-linejoin: miter"/>
   </g>
   <g id="patch_12">
    <path d="M 320.533437 52.176625 
C 324.284338 52.176625 327.882115 50.686377 330.534402 48.03409 
C 333.186689 45.381803 334.676937 41.784025 334.676937 38.033125 
C 334.676937 34.282225 333.186689 30.684447 330.534402 28.03216 
C 327.882115 25.379873 324.284338 23.889625 320.533437 23.889625 
C 316.782537 23.889625 313.18476 25.379873 310.532473 28.03216 
C 307.880186 30.684447 306.389937 34.282225 306.389937 38.033125 
C 306.389937 41.784025 307.880186 45.381803 310.532473 48.03409 
C 313.18476 50.686377 316.782537 52.176625 320.533437 52.176625 
z
" clip-path="url(#p4cdbf7d318)" style="fill: #9bd93c; stroke: #000000; stroke-linejoin: miter"/>
   </g>
   <g id="patch_13">
    <path d="M 351.963437 52.176625 
C 355.714338 52.176625 359.312115 50.686377 361.964402 48.03409 
C 364.616689 45.381803 366.106937 41.784025 366.106937 38.033125 
C 366.106937 34.282225 364.616689 30.684447 361.964402 28.03216 
C 359.312115 25.379873 355.714338 23.889625 351.963437 23.889625 
C 348.212537 23.889625 344.61476 25.379873 341.962473 28.03216 
C 339.310186 30.684447 337.819937 34.282225 337.819937 38.033125 
C 337.819937 41.784025 339.310186 45.381803 341.962473 48.03409 
C 344.61476 50.686377 348.212537 52.176625 351.963437 52.176625 
z
" clip-path="url(#p4cdbf7d318)" style="fill: #9bd93c; stroke: #000000; stroke-linejoin: miter"/>
   </g>
   <g id="patch_14">
    <path d="M 383.393437 52.176625 
C 387.144338 52.176625 390.742115 50.686377 393.394402 48.03409 
C 396.046689 45.381803 397.536937 41.784025 397.536937 38.033125 
C 397.536937 34.282225 396.046689 30.684447 393.394402 28.03216 
C 390.742115 25.379873 387.144338 23.889625 383.393437 23.889625 
C 379.642537 23.889625 376.04476 25.379873 373.392473 28.03216 
C 370.740186 30.684447 369.249937 34.282225 369.249937 38.033125 
C 369.249937 41.784025 370.740186 45.381803 373.392473 48.03409 
C 376.04476 50.686377 379.642537 52.176625 383.393437 52.176625 
z
" clip-path="url(#p4cdbf7d318)" style="fill: #9bd93c; stroke: #000000; stroke-linejoin: miter"/>
   </g>
   <g id="patch_15">
    <path d="M 37.663438 83.606625 
C 41.414338 83.606625 45.012115 82.116377 47.664402 79.46409 
C 50.316689 76.811803 51.806937 73.214025 51.806937 69.463125 
C 51.806937 65.712225 50.316689 62.114447 47.664402 59.46216 
C 45.012115 56.809873 41.414338 55.319625 37.663438 55.319625 
C 33.912537 55.319625 30.31476 56.809873 27.662473 59.46216 
C 25.010186 62.114447 23.519938 65.712225 23.519938 69.463125 
C 23.519938 73.214025 25.010186 76.811803 27.662473 79.46409 
C 30.31476 82.116377 33.912537 83.606625 37.663438 83.606625 
z
" clip-path="url(#p4cdbf7d318)" style="fill: #440154; stroke: #000000; stroke-linejoin: miter"/>
   </g>
   <g id="patch_16">
    <path d="M 69.093437 83.606625 
C 72.844338 83.606625 76.442115 82.116377 79.094402 79.46409 
C 81.746689 76.811803 83.236937 73.214025 83.236937 69.463125 
C 83.236937 65.712225 81.746689 62.114447 79.094402 59.46216 
C 76.442115 56.809873 72.844338 55.319625 69.093437 55.319625 
C 65.342537 55.319625 61.74476 56.809873 59.092473 59.46216 
C 56.440186 62.114447 54.949937 65.712225 54.949937 69.463125 
C 54.949937 73.214025 56.440186 76.811803 59.092473 79.46409 
C 61.74476 82.116377 65.342537 83.606625 69.093437 83.606625 
z
" clip-path="url(#p4cdbf7d318)" style="fill: #440154; stroke: #000000; stroke-linejoin: miter"/>
   </g>
   <g id="patch_17">
    <path d="M 100.523438 83.606625 
C 104.274338 83.606625 107.872115 82.116377 110.524402 79.46409 
C 113.176689 76.811803 114.666938 73.214025 114.666938 69.463125 
C 114.666938 65.712225 113.176689 62.114447 110.524402 59.46216 
C 107.872115 56.809873 104.274338 55.319625 100.523438 55.319625 
C 96.772537 55.319625 93.17476 56.809873 90.522473 59.46216 
C 87.870186 62.114447 86.379937 65.712225 86.379937 69.463125 
C 86.379937 73.214025 87.870186 76.811803 90.522473 79.46409 
C 93.17476 82.116377 96.772537 83.606625 100.523438 83.606625 
z
" clip-path="url(#p4cdbf7d318)" style="fill: #440154; stroke: #000000; stroke-linejoin: miter"/>
   </g>
   <g id="patch_18">
    <path d="M 131.953438 83.606625 
C 135.704338 83.606625 139.302115 82.116377 141.954402 79.46409 
C 144.606689 76.811803 146.096937 73.214025 146.096937 69.463125 
C 146.096937 65.712225 144.606689 62.114447 141.954402 59.46216 
C 139.302115 56.809873 135.704338 55.319625 131.953438 55.319625 
C 128.202537 55.319625 124.60476 56.809873 121.952473 59.46216 
C 119.300186 62.114447 117.809938 65.712225 117.809938 69.463125 
C 117.809938 73.214025 119.300186 76.811803 121.952473 79.46409 
C 124.60476 82.116377 128.202537 83.606625 131.953438 83.606625 
z
" clip-path="url(#p4cdbf7d318)" style="fill: #440154; stroke: #000000; stroke-linejoin: miter"/>
   </g>
   <g id="patch_19">
    <path d="M 163.383437 83.606625 
C 167.134338 83.606625 170.732115 82.116377 173.384402 79.46409 
C 176.036689 76.811803 177.526937 73.214025 177.526937 69.463125 
C 177.526937 65.712225 176.036689 62.114447 173.384402 59.46216 
C 170.732115 56.809873 167.134338 55.319625 163.383437 55.319625 
C 159.632537 55.319625 156.03476 56.809873 153.382473 59.46216 
C 150.730186 62.114447 149.239937 65.712225 149.239937 69.463125 
C 149.239937 73.214025 150.730186 76.811803 153.382473 79.46409 
C 156.03476 82.116377 159.632537 83.606625 163.383437 83.606625 
z
" clip-path="url(#p4cdbf7d318)" style="fill: #440154; stroke: #000000; stroke-linejoin: miter"/>
   </g>
   <g id="patch_20">
    <path d="M 194.813437 83.606625 
C 198.564338 83.606625 202.162115 82.116377 204.814402 79.46409 
C 207.466689 76.811803 208.956937 73.214025 208.956937 69.463125 
C 208.956937 65.712225 207.466689 62.114447 204.814402 59.46216 
C 202.162115 56.809873 198.564338 55.319625 194.813437 55.319625 
C 191.062537 55.319625 187.46476 56.809873 184.812473 59.46216 
C 182.160186 62.114447 180.669937 65.712225 180.669937 69.463125 
C 180.669937 73.214025 182.160186 76.811803 184.812473 79.46409 
C 187.46476 82.116377 191.062537 83.606625 194.813437 83.606625 
z
" clip-path="url(#p4cdbf7d318)" style="fill: #440154; stroke: #000000; stroke-linejoin: miter"/>
   </g>
   <g id="patch_21">
    <path d="M 226.243437 83.606625 
C 229.994338 83.606625 233.592115 82.116377 236.244402 79.46409 
C 238.896689 76.811803 240.386937 73.214025 240.386937 69.463125 
C 240.386937 65.712225 238.896689 62.114447 236.244402 59.46216 
C 233.592115 56.809873 229.994338 55.319625 226.243437 55.319625 
C 222.492537 55.319625 218.89476 56.809873 216.242473 59.46216 
C 213.590186 62.114447 212.099937 65.712225 212.099937 69.463125 
C 212.099937 73.214025 213.590186 76.811803 216.242473 79.46409 
C 218.89476 82.116377 222.492537 83.606625 226.243437 83.606625 
z
" clip-path="url(#p4cdbf7d318)" style="fill: #440154; stroke: #000000; stroke-linejoin: miter"/>
   </g>
   <g id="patch_22">
    <path d="M 257.673437 83.606625 
C 261.424338 83.606625 265.022115 82.116377 267.674402 79.46409 
C 270.326689 76.811803 271.816937 73.214025 271.816937 69.463125 
C 271.816937 65.712225 270.326689 62.114447 267.674402 59.46216 
C 265.022115 56.809873 261.424338 55.319625 257.673437 55.319625 
C 253.922537 55.319625 250.32476 56.809873 247.672473 59.46216 
C 245.020186 62.114447 243.529937 65.712225 243.529937 69.463125 
C 243.529937 73.214025 245.020186 76.811803 247.672473 79.46409 
C 250.32476 82.116377 253.922537 83.606625 257.673437 83.606625 
z
" clip-path="url(#p4cdbf7d318)" style="fill: #440154; stroke: #000000; stroke-linejoin: miter"/>
   </g>
   <g id="patch_23">
    <path d="M 289.103437 83.606625 
C 292.854338 83.606625 296.452115 82.116377 299.104402 79.46409 
C 301.756689 76.811803 303.246938 73.214025 303.246938 69.463125 
C 303.246938 65.712225 301.756689 62.114447 299.104402 59.46216 
C 296.452115 56.809873 292.854338 55.319625 289.103437 55.319625 
C 285.352537 55.319625 281.75476 56.809873 279.102473 59.46216 
C 276.450186 62.114447 274.959937 65.712225 274.959937 69.463125 
C 274.959937 73.214025 276.450186 76.811803 279.102473 79.46409 
C 281.75476 82.116377 285.352537 83.606625 289.103437 83.606625 
z
" clip-path="url(#p4cdbf7d318)" style="fill: #440154; stroke: #000000; stroke-linejoin: miter"/>
   </g>
   <g id="patch_24">
    <path d="M 320.533437 83.606625 
C 324.284338 83.606625 327.882115 82.116377 330.534402 79.46409 
C 333.186689 76.811803 334.676937 73.214025 334.676937 69.463125 
C 334.676937 65.712225 333.186689 62.114447 330.534402 59.46216 
C 327.882115 56.809873 324.284338 55.319625 320.533437 55.319625 
C 316.782537 55.319625 313.18476 56.809873 310.532473 59.46216 
C 307.880186 62.114447 306.389937 65.712225 306.389937 69.463125 
C 306.389937 73.214025 307.880186 76.811803 310.532473 79.46409 
C 313.18476 82.116377 316.782537 83.606625 320.533437 83.606625 
z
" clip-path="url(#p4cdbf7d318)" style="fill: #9bd93c; stroke: #000000; stroke-linejoin: miter"/>
   </g>
   <g id="patch_25">
    <path d="M 351.963437 83.606625 
C 355.714338 83.606625 359.312115 82.116377 361.964402 79.46409 
C 364.616689 76.811803 366.106937 73.214025 366.106937 69.463125 
C 366.106937 65.712225 364.616689 62.114447 361.964402 59.46216 
C 359.312115 56.809873 355.714338 55.319625 351.963437 55.319625 
C 348.212537 55.319625 344.61476 56.809873 341.962473 59.46216 
C 339.310186 62.114447 337.819937 65.712225 337.819937 69.463125 
C 337.819937 73.214025 339.310186 76.811803 341.962473 79.46409 
C 344.61476 82.116377 348.212537 83.606625 351.963437 83.606625 
z
" clip-path="url(#p4cdbf7d318)" style="fill: #9bd93c; stroke: #000000; stroke-linejoin: miter"/>
   </g>
   <g id="patch_26">
    <path d="M 383.393437 83.606625 
C 387.144338 83.606625 390.742115 82.116377 393.394402 79.46409 
C 396.046689 76.811803 397.536937 73.214025 397.536937 69.463125 
C 397.536937 65.712225 396.046689 62.114447 393.394402 59.46216 
C 390.742115 56.809873 387.144338 55.319625 383.393437 55.319625 
C 379.642537 55.319625 376.04476 56.809873 373.392473 59.46216 
C 370.740186 62.114447 369.249937 65.712225 369.249937 69.463125 
C 369.249937 73.214025 370.740186 76.811803 373.392473 79.46409 
C 376.04476 82.116377 379.642537 83.606625 383.393437 83.606625 
z
" clip-path="url(#p4cdbf7d318)" style="fill: #9bd93c; stroke: #000000; stroke-linejoin: miter"/>
   </g>
   <g id="patch_27">
    <path d="M 37.663438 115.036625 
C 41.414338 115.036625 45.012115 113.546377 47.664402 110.89409 
C 50.316689 108.241803 51.806937 104.644025 51.806937 100.893125 
C 51.806937 97.142225 50.316689 93.544447 47.664402 90.89216 
C 45.012115 88.239873 41.414338 86.749625 37.663438 86.749625 
C 33.912537 86.749625 30.31476 88.239873 27.662473 90.89216 
C 25.010186 93.544447 23.519938 97.142225 23.519938 100.893125 
C 23.519938 104.644025 25.010186 108.241803 27.662473 110.89409 
C 30.31476 113.546377 33.912537 115.036625 37.663438 115.036625 
z
" clip-path="url(#p4cdbf7d318)" style="fill: #440154; stroke: #000000; stroke-linejoin: miter"/>
   </g>
   <g id="patch_28">
    <path d="M 69.093437 115.036625 
C 72.844338 115.036625 76.442115 113.546377 79.094402 110.89409 
C 81.746689 108.241803 83.236937 104.644025 83.236937 100.893125 
C 83.236937 97.142225 81.746689 93.544447 79.094402 90.89216 
C 76.442115 88.239873 72.844338 86.749625 69.093437 86.749625 
C 65.342537 86.749625 61.74476 88.239873 59.092473 90.89216 
C 56.440186 93.544447 54.949937 97.142225 54.949937 100.893125 
C 54.949937 104.644025 56.440186 108.241803 59.092473 110.89409 
C 61.74476 113.546377 65.342537 115.036625 69.093437 115.036625 
z
" clip-path="url(#p4cdbf7d318)" style="fill: #440154; stroke: #000000; stroke-linejoin: miter"/>
   </g>
   <g id="patch_29">
    <path d="M 100.523438 115.036625 
C 104.274338 115.036625 107.872115 113.546377 110.524402 110.89409 
C 113.176689 108.241803 114.666938 104.644025 114.666938 100.893125 
C 114.666938 97.142225 113.176689 93.544447 110.524402 90.89216 
C 107.872115 88.239873 104.274338 86.749625 100.523438 86.749625 
C 96.772537 86.749625 93.17476 88.239873 90.522473 90.89216 
C 87.870186 93.544447 86.379937 97.142225 86.379937 100.893125 
C 86.379937 104.644025 87.870186 108.241803 90.522473 110.89409 
C 93.17476 113.546377 96.772537 115.036625 100.523438 115.036625 
z
" clip-path="url(#p4cdbf7d318)" style="fill: #440154; stroke: #000000; stroke-linejoin: miter"/>
   </g>
   <g id="patch_30">
    <path d="M 131.953438 115.036625 
C 135.704338 115.036625 139.302115 113.546377 141.954402 110.89409 
C 144.606689 108.241803 146.096937 104.644025 146.096937 100.893125 
C 146.096937 97.142225 144.606689 93.544447 141.954402 90.89216 
C 139.302115 88.239873 135.704338 86.749625 131.953438 86.749625 
C 128.202537 86.749625 124.60476 88.239873 121.952473 90.89216 
C 119.300186 93.544447 117.809938 97.142225 117.809938 100.893125 
C 117.809938 104.644025 119.300186 108.241803 121.952473 110.89409 
C 124.60476 113.546377 128.202537 115.036625 131.953438 115.036625 
z
" clip-path="url(#p4cdbf7d318)" style="fill: #440154; stroke: #000000; stroke-linejoin: miter"/>
   </g>
   <g id="patch_31">
    <path d="M 163.383437 115.036625 
C 167.134338 115.036625 170.732115 113.546377 173.384402 110.89409 
C 176.036689 108.241803 177.526937 104.644025 177.526937 100.893125 
C 177.526937 97.142225 176.036689 93.544447 173.384402 90.89216 
C 170.732115 88.239873 167.134338 86.749625 163.383437 86.749625 
C 159.632537 86.749625 156.03476 88.239873 153.382473 90.89216 
C 150.730186 93.544447 149.239937 97.142225 149.239937 100.893125 
C 149.239937 104.644025 150.730186 108.241803 153.382473 110.89409 
C 156.03476 113.546377 159.632537 115.036625 163.383437 115.036625 
z
" clip-path="url(#p4cdbf7d318)" style="fill: #440154; stroke: #000000; stroke-linejoin: miter"/>
   </g>
   <g id="patch_32">
    <path d="M 194.813437 115.036625 
C 198.564338 115.036625 202.162115 113.546377 204.814402 110.89409 
C 207.466689 108.241803 208.956937 104.644025 208.956937 100.893125 
C 208.956937 97.142225 207.466689 93.544447 204.814402 90.89216 
C 202.162115 88.239873 198.564338 86.749625 194.813437 86.749625 
C 191.062537 86.749625 187.46476 88.239873 184.812473 90.89216 
C 182.160186 93.544447 180.669937 97.142225 180.669937 100.893125 
C 180.669937 104.644025 182.160186 108.241803 184.812473 110.89409 
C 187.46476 113.546377 191.062537 115.036625 194.813437 115.036625 
z
" clip-path="url(#p4cdbf7d318)" style="fill: #440154; stroke: #000000; stroke-linejoin: miter"/>
   </g>
   <g id="patch_33">
    <path d="M 226.243437 115.036625 
C 229.994338 115.036625 233.592115 113.546377 236.244402 110.89409 
C 238.896689 108.241803 240.386937 104.644025 240.386937 100.893125 
C 240.386937 97.142225 238.896689 93.544447 236.244402 90.89216 
C 233.592115 88.239873 229.994338 86.749625 226.243437 86.749625 
C 222.492537 86.749625 218.89476 88.239873 216.242473 90.89216 
C 213.590186 93.544447 212.099937 97.142225 212.099937 100.893125 
C 212.099937 104.644025 213.590186 108.241803 216.242473 110.89409 
C 218.89476 113.546377 222.492537 115.036625 226.243437 115.036625 
z
" clip-path="url(#p4cdbf7d318)" style="fill: #440154; stroke: #000000; stroke-linejoin: miter"/>
   </g>
   <g id="patch_34">
    <path d="M 257.673437 115.036625 
C 261.424338 115.036625 265.022115 113.546377 267.674402 110.89409 
C 270.326689 108.241803 271.816937 104.644025 271.816937 100.893125 
C 271.816937 97.142225 270.326689 93.544447 267.674402 90.89216 
C 265.022115 88.239873 261.424338 86.749625 257.673437 86.749625 
C 253.922537 86.749625 250.32476 88.239873 247.672473 90.89216 
C 245.020186 93.544447 243.529937 97.142225 243.529937 100.893125 
C 243.529937 104.644025 245.020186 108.241803 247.672473 110.89409 
C 250.32476 113.546377 253.922537 115.036625 257.673437 115.036625 
z
" clip-path="url(#p4cdbf7d318)" style="fill: #440154; stroke: #000000; stroke-linejoin: miter"/>
   </g>
   <g id="patch_35">
    <path d="M 289.103437 115.036625 
C 292.854338 115.036625 296.452115 113.546377 299.104402 110.89409 
C 301.756689 108.241803 303.246938 104.644025 303.246938 100.893125 
C 303.246938 97.142225 301.756689 93.544447 299.104402 90.89216 
C 296.452115 88.239873 292.854338 86.749625 289.103437 86.749625 
C 285.352537 86.749625 281.75476 88.239873 279.102473 90.89216 
C 276.450186 93.544447 274.959937 97.142225 274.959937 100.893125 
C 274.959937 104.644025 276.450186 108.241803 279.102473 110.89409 
C 281.75476 113.546377 285.352537 115.036625 289.103437 115.036625 
z
" clip-path="url(#p4cdbf7d318)" style="fill: #440154; stroke: #000000; stroke-linejoin: miter"/>
   </g>
   <g id="patch_36">
    <path d="M 320.533437 115.036625 
C 324.284338 115.036625 327.882115 113.546377 330.534402 110.89409 
C 333.186689 108.241803 334.676937 104.644025 334.676937 100.893125 
C 334.676937 97.142225 333.186689 93.544447 330.534402 90.89216 
C 327.882115 88.239873 324.284338 86.749625 320.533437 86.749625 
C 316.782537 86.749625 313.18476 88.239873 310.532473 90.89216 
C 307.880186 93.544447 306.389937 97.142225 306.389937 100.893125 
C 306.389937 104.644025 307.880186 108.241803 310.532473 110.89409 
C 313.18476 113.546377 316.782537 115.036625 320.533437 115.036625 
z
" clip-path="url(#p4cdbf7d318)" style="fill: #9bd93c; stroke: #000000; stroke-linejoin: miter"/>
   </g>
   <g id="patch_37">
    <path d="M 351.963437 115.036625 
C 355.714338 115.036625 359.312115 113.546377 361.964402 110.89409 
C 364.616689 108.241803 366.106937 104.644025 366.106937 100.893125 
C 366.106937 97.142225 364.616689 93.544447 361.964402 90.89216 
C 359.312115 88.239873 355.714338 86.749625 351.963437 86.749625 
C 348.212537 86.749625 344.61476 88.239873 341.962473 90.89216 
C 339.310186 93.544447 337.819937 97.142225 337.819937 100.893125 
C 337.819937 104.644025 339.310186 108.241803 341.962473 110.89409 
C 344.61476 113.546377 348.212537 115.036625 351.963437 115.036625 
z
" clip-path="url(#p4cdbf7d318)" style="fill: #9bd93c; stroke: #000000; stroke-linejoin: miter"/>
   </g>
   <g id="patch_38">
    <path d="M 383.393437 115.036625 
C 387.144338 115.036625 390.742115 113.546377 393.394402 110.89409 
C 396.046689 108.241803 397.536937 104.644025 397.536937 100.893125 
C 397.536937 97.142225 396.046689 93.544447 393.394402 90.89216 
C 390.742115 88.239873 387.144338 86.749625 383.393437 86.749625 
C 379.642537 86.749625 376.04476 88.239873 373.392473 90.89216 
C 370.740186 93.544447 369.249937 97.142225 369.249937 100.893125 
C 369.249937 104.644025 370.740186 108.241803 373.392473 110.89409 
C 376.04476 113.546377 379.642537 115.036625 383.393437 115.036625 
z
" clip-path="url(#p4cdbf7d318)" style="fill: #9bd93c; stroke: #000000; stroke-linejoin: miter"/>
   </g>
   <g id="patch_39">
    <path d="M 37.663438 146.466625 
C 41.414338 146.466625 45.012115 144.976377 47.664402 142.32409 
C 50.316689 139.671803 51.806937 136.074025 51.806937 132.323125 
C 51.806937 128.572225 50.316689 124.974447 47.664402 122.32216 
C 45.012115 119.669873 41.414338 118.179625 37.663438 118.179625 
C 33.912537 118.179625 30.31476 119.669873 27.662473 122.32216 
C 25.010186 124.974447 23.519938 128.572225 23.519938 132.323125 
C 23.519938 136.074025 25.010186 139.671803 27.662473 142.32409 
C 30.31476 144.976377 33.912537 146.466625 37.663438 146.466625 
z
" clip-path="url(#p4cdbf7d318)" style="fill: #440154; stroke: #000000; stroke-linejoin: miter"/>
   </g>
   <g id="patch_40">
    <path d="M 69.093437 146.466625 
C 72.844338 146.466625 76.442115 144.976377 79.094402 142.32409 
C 81.746689 139.671803 83.236937 136.074025 83.236937 132.323125 
C 83.236937 128.572225 81.746689 124.974447 79.094402 122.32216 
C 76.442115 119.669873 72.844338 118.179625 69.093437 118.179625 
C 65.342537 118.179625 61.74476 119.669873 59.092473 122.32216 
C 56.440186 124.974447 54.949937 128.572225 54.949937 132.323125 
C 54.949937 136.074025 56.440186 139.671803 59.092473 142.32409 
C 61.74476 144.976377 65.342537 146.466625 69.093437 146.466625 
z
" clip-path="url(#p4cdbf7d318)" style="fill: #440154; stroke: #000000; stroke-linejoin: miter"/>
   </g>
   <g id="patch_41">
    <path d="M 100.523438 146.466625 
C 104.274338 146.466625 107.872115 144.976377 110.524402 142.32409 
C 113.176689 139.671803 114.666938 136.074025 114.666938 132.323125 
C 114.666938 128.572225 113.176689 124.974447 110.524402 122.32216 
C 107.872115 119.669873 104.274338 118.179625 100.523438 118.179625 
C 96.772537 118.179625 93.17476 119.669873 90.522473 122.32216 
C 87.870186 124.974447 86.379937 128.572225 86.379937 132.323125 
C 86.379937 136.074025 87.870186 139.671803 90.522473 142.32409 
C 93.17476 144.976377 96.772537 146.466625 100.523438 146.466625 
z
" clip-path="url(#p4cdbf7d318)" style="fill: #440154; stroke: #000000; stroke-linejoin: miter"/>
   </g>
   <g id="patch_42">
    <path d="M 131.953438 146.466625 
C 135.704338 146.466625 139.302115 144.976377 141.954402 142.32409 
C 144.606689 139.671803 146.096937 136.074025 146.096937 132.323125 
C 146.096937 128.572225 144.606689 124.974447 141.954402 122.32216 
C 139.302115 119.669873 135.704338 118.179625 131.953438 118.179625 
C 128.202537 118.179625 124.60476 119.669873 121.952473 122.32216 
C 119.300186 124.974447 117.809938 128.572225 117.809938 132.323125 
C 117.809938 136.074025 119.300186 139.671803 121.952473 142.32409 
C 124.60476 144.976377 128.202537 146.466625 131.953438 146.466625 
z
" clip-path="url(#p4cdbf7d318)" style="fill: #440154; stroke: #000000; stroke-linejoin: miter"/>
   </g>
   <g id="patch_43">
    <path d="M 163.383437 146.466625 
C 167.134338 146.466625 170.732115 144.976377 173.384402 142.32409 
C 176.036689 139.671803 177.526937 136.074025 177.526937 132.323125 
C 177.526937 128.572225 176.036689 124.974447 173.384402 122.32216 
C 170.732115 119.669873 167.134338 118.179625 163.383437 118.179625 
C 159.632537 118.179625 156.03476 119.669873 153.382473 122.32216 
C 150.730186 124.974447 149.239937 128.572225 149.239937 132.323125 
C 149.239937 136.074025 150.730186 139.671803 153.382473 142.32409 
C 156.03476 144.976377 159.632537 146.466625 163.383437 146.466625 
z
" clip-path="url(#p4cdbf7d318)" style="fill: #440154; stroke: #000000; stroke-linejoin: miter"/>
   </g>
   <g id="patch_44">
    <path d="M 194.813437 146.466625 
C 198.564338 146.466625 202.162115 144.976377 204.814402 142.32409 
C 207.466689 139.671803 208.956937 136.074025 208.956937 132.323125 
C 208.956937 128.572225 207.466689 124.974447 204.814402 122.32216 
C 202.162115 119.669873 198.564338 118.179625 194.813437 118.179625 
C 191.062537 118.179625 187.46476 119.669873 184.812473 122.32216 
C 182.160186 124.974447 180.669937 128.572225 180.669937 132.323125 
C 180.669937 136.074025 182.160186 139.671803 184.812473 142.32409 
C 187.46476 144.976377 191.062537 146.466625 194.813437 146.466625 
z
" clip-path="url(#p4cdbf7d318)" style="fill: #440154; stroke: #000000; stroke-linejoin: miter"/>
   </g>
   <g id="patch_45">
    <path d="M 226.243437 146.466625 
C 229.994338 146.466625 233.592115 144.976377 236.244402 142.32409 
C 238.896689 139.671803 240.386937 136.074025 240.386937 132.323125 
C 240.386937 128.572225 238.896689 124.974447 236.244402 122.32216 
C 233.592115 119.669873 229.994338 118.179625 226.243437 118.179625 
C 222.492537 118.179625 218.89476 119.669873 216.242473 122.32216 
C 213.590186 124.974447 212.099937 128.572225 212.099937 132.323125 
C 212.099937 136.074025 213.590186 139.671803 216.242473 142.32409 
C 218.89476 144.976377 222.492537 146.466625 226.243437 146.466625 
z
" clip-path="url(#p4cdbf7d318)" style="fill: #440154; stroke: #000000; stroke-linejoin: miter"/>
   </g>
   <g id="patch_46">
    <path d="M 257.673437 146.466625 
C 261.424338 146.466625 265.022115 144.976377 267.674402 142.32409 
C 270.326689 139.671803 271.816937 136.074025 271.816937 132.323125 
C 271.816937 128.572225 270.326689 124.974447 267.674402 122.32216 
C 265.022115 119.669873 261.424338 118.179625 257.673437 118.179625 
C 253.922537 118.179625 250.32476 119.669873 247.672473 122.32216 
C 245.020186 124.974447 243.529937 128.572225 243.529937 132.323125 
C 243.529937 136.074025 245.020186 139.671803 247.672473 142.32409 
C 250.32476 144.976377 253.922537 146.466625 257.673437 146.466625 
z
" clip-path="url(#p4cdbf7d318)" style="fill: #440154; stroke: #000000; stroke-linejoin: miter"/>
   </g>
   <g id="patch_47">
    <path d="M 289.103437 146.466625 
C 292.854338 146.466625 296.452115 144.976377 299.104402 142.32409 
C 301.756689 139.671803 303.246938 136.074025 303.246938 132.323125 
C 303.246938 128.572225 301.756689 124.974447 299.104402 122.32216 
C 296.452115 119.669873 292.854338 118.179625 289.103437 118.179625 
C 285.352537 118.179625 281.75476 119.669873 279.102473 122.32216 
C 276.450186 124.974447 274.959937 128.572225 274.959937 132.323125 
C 274.959937 136.074025 276.450186 139.671803 279.102473 142.32409 
C 281.75476 144.976377 285.352537 146.466625 289.103437 146.466625 
z
" clip-path="url(#p4cdbf7d318)" style="fill: #440154; stroke: #000000; stroke-linejoin: miter"/>
   </g>
   <g id="patch_48">
    <path d="M 320.533437 146.466625 
C 324.284338 146.466625 327.882115 144.976377 330.534402 142.32409 
C 333.186689 139.671803 334.676937 136.074025 334.676937 132.323125 
C 334.676937 128.572225 333.186689 124.974447 330.534402 122.32216 
C 327.882115 119.669873 324.284338 118.179625 320.533437 118.179625 
C 316.782537 118.179625 313.18476 119.669873 310.532473 122.32216 
C 307.880186 124.974447 306.389937 128.572225 306.389937 132.323125 
C 306.389937 136.074025 307.880186 139.671803 310.532473 142.32409 
C 313.18476 144.976377 316.782537 146.466625 320.533437 146.466625 
z
" clip-path="url(#p4cdbf7d318)" style="fill: #9bd93c; stroke: #000000; stroke-linejoin: miter"/>
   </g>
   <g id="patch_49">
    <path d="M 351.963437 146.466625 
C 355.714338 146.466625 359.312115 144.976377 361.964402 142.32409 
C 364.616689 139.671803 366.106937 136.074025 366.106937 132.323125 
C 366.106937 128.572225 364.616689 124.974447 361.964402 122.32216 
C 359.312115 119.669873 355.714338 118.179625 351.963437 118.179625 
C 348.212537 118.179625 344.61476 119.669873 341.962473 122.32216 
C 339.310186 124.974447 337.819937 128.572225 337.819937 132.323125 
C 337.819937 136.074025 339.310186 139.671803 341.962473 142.32409 
C 344.61476 144.976377 348.212537 146.466625 351.963437 146.466625 
z
" clip-path="url(#p4cdbf7d318)" style="fill: #9bd93c; stroke: #000000; stroke-linejoin: miter"/>
   </g>
   <g id="patch_50">
    <path d="M 383.393437 146.466625 
C 387.144338 146.466625 390.742115 144.976377 393.394402 142.32409 
C 396.046689 139.671803 397.536937 136.074025 397.536937 132.323125 
C 397.536937 128.572225 396.046689 124.974447 393.394402 122.32216 
C 390.742115 119.669873 387.144338 118.179625 383.393437 118.179625 
C 379.642537 118.179625 376.04476 119.669873 373.392473 122.32216 
C 370.740186 124.974447 369.249937 128.572225 369.249937 132.323125 
C 369.249937 136.074025 370.740186 139.671803 373.392473 142.32409 
C 376.04476 144.976377 379.642537 146.466625 383.393437 146.466625 
z
" clip-path="url(#p4cdbf7d318)" style="fill: #9bd93c; stroke: #000000; stroke-linejoin: miter"/>
   </g>
   <g id="patch_51">
    <path d="M 37.663438 177.896625 
C 41.414338 177.896625 45.012115 176.406377 47.664402 173.75409 
C 50.316689 171.101803 51.806937 167.504025 51.806937 163.753125 
C 51.806937 160.002225 50.316689 156.404447 47.664402 153.75216 
C 45.012115 151.099873 41.414338 149.609625 37.663438 149.609625 
C 33.912537 149.609625 30.31476 151.099873 27.662473 153.75216 
C 25.010186 156.404447 23.519938 160.002225 23.519938 163.753125 
C 23.519938 167.504025 25.010186 171.101803 27.662473 173.75409 
C 30.31476 176.406377 33.912537 177.896625 37.663438 177.896625 
z
" clip-path="url(#p4cdbf7d318)" style="fill: #440154; stroke: #000000; stroke-linejoin: miter"/>
   </g>
   <g id="patch_52">
    <path d="M 69.093437 177.896625 
C 72.844338 177.896625 76.442115 176.406377 79.094402 173.75409 
C 81.746689 171.101803 83.236937 167.504025 83.236937 163.753125 
C 83.236937 160.002225 81.746689 156.404447 79.094402 153.75216 
C 76.442115 151.099873 72.844338 149.609625 69.093437 149.609625 
C 65.342537 149.609625 61.74476 151.099873 59.092473 153.75216 
C 56.440186 156.404447 54.949937 160.002225 54.949937 163.753125 
C 54.949937 167.504025 56.440186 171.101803 59.092473 173.75409 
C 61.74476 176.406377 65.342537 177.896625 69.093437 177.896625 
z
" clip-path="url(#p4cdbf7d318)" style="fill: #440154; stroke: #000000; stroke-linejoin: miter"/>
   </g>
   <g id="patch_53">
    <path d="M 100.523438 177.896625 
C 104.274338 177.896625 107.872115 176.406377 110.524402 173.75409 
C 113.176689 171.101803 114.666938 167.504025 114.666938 163.753125 
C 114.666938 160.002225 113.176689 156.404447 110.524402 153.75216 
C 107.872115 151.099873 104.274338 149.609625 100.523438 149.609625 
C 96.772537 149.609625 93.17476 151.099873 90.522473 153.75216 
C 87.870186 156.404447 86.379937 160.002225 86.379937 163.753125 
C 86.379937 167.504025 87.870186 171.101803 90.522473 173.75409 
C 93.17476 176.406377 96.772537 177.896625 100.523438 177.896625 
z
" clip-path="url(#p4cdbf7d318)" style="fill: #440154; stroke: #000000; stroke-linejoin: miter"/>
   </g>
   <g id="patch_54">
    <path d="M 131.953438 177.896625 
C 135.704338 177.896625 139.302115 176.406377 141.954402 173.75409 
C 144.606689 171.101803 146.096937 167.504025 146.096937 163.753125 
C 146.096937 160.002225 144.606689 156.404447 141.954402 153.75216 
C 139.302115 151.099873 135.704338 149.609625 131.953438 149.609625 
C 128.202537 149.609625 124.60476 151.099873 121.952473 153.75216 
C 119.300186 156.404447 117.809938 160.002225 117.809938 163.753125 
C 117.809938 167.504025 119.300186 171.101803 121.952473 173.75409 
C 124.60476 176.406377 128.202537 177.896625 131.953438 177.896625 
z
" clip-path="url(#p4cdbf7d318)" style="fill: #440154; stroke: #000000; stroke-linejoin: miter"/>
   </g>
   <g id="patch_55">
    <path d="M 163.383437 177.896625 
C 167.134338 177.896625 170.732115 176.406377 173.384402 173.75409 
C 176.036689 171.101803 177.526937 167.504025 177.526937 163.753125 
C 177.526937 160.002225 176.036689 156.404447 173.384402 153.75216 
C 170.732115 151.099873 167.134338 149.609625 163.383437 149.609625 
C 159.632537 149.609625 156.03476 151.099873 153.382473 153.75216 
C 150.730186 156.404447 149.239937 160.002225 149.239937 163.753125 
C 149.239937 167.504025 150.730186 171.101803 153.382473 173.75409 
C 156.03476 176.406377 159.632537 177.896625 163.383437 177.896625 
z
" clip-path="url(#p4cdbf7d318)" style="fill: #440154; stroke: #000000; stroke-linejoin: miter"/>
   </g>
   <g id="patch_56">
    <path d="M 194.813437 177.896625 
C 198.564338 177.896625 202.162115 176.406377 204.814402 173.75409 
C 207.466689 171.101803 208.956937 167.504025 208.956937 163.753125 
C 208.956937 160.002225 207.466689 156.404447 204.814402 153.75216 
C 202.162115 151.099873 198.564338 149.609625 194.813437 149.609625 
C 191.062537 149.609625 187.46476 151.099873 184.812473 153.75216 
C 182.160186 156.404447 180.669937 160.002225 180.669937 163.753125 
C 180.669937 167.504025 182.160186 171.101803 184.812473 173.75409 
C 187.46476 176.406377 191.062537 177.896625 194.813437 177.896625 
z
" clip-path="url(#p4cdbf7d318)" style="fill: #440154; stroke: #000000; stroke-linejoin: miter"/>
   </g>
   <g id="patch_57">
    <path d="M 226.243437 177.896625 
C 229.994338 177.896625 233.592115 176.406377 236.244402 173.75409 
C 238.896689 171.101803 240.386937 167.504025 240.386937 163.753125 
C 240.386937 160.002225 238.896689 156.404447 236.244402 153.75216 
C 233.592115 151.099873 229.994338 149.609625 226.243437 149.609625 
C 222.492537 149.609625 218.89476 151.099873 216.242473 153.75216 
C 213.590186 156.404447 212.099937 160.002225 212.099937 163.753125 
C 212.099937 167.504025 213.590186 171.101803 216.242473 173.75409 
C 218.89476 176.406377 222.492537 177.896625 226.243437 177.896625 
z
" clip-path="url(#p4cdbf7d318)" style="fill: #440154; stroke: #000000; stroke-linejoin: miter"/>
   </g>
   <g id="patch_58">
    <path d="M 257.673437 177.896625 
C 261.424338 177.896625 265.022115 176.406377 267.674402 173.75409 
C 270.326689 171.101803 271.816937 167.504025 271.816937 163.753125 
C 271.816937 160.002225 270.326689 156.404447 267.674402 153.75216 
C 265.022115 151.099873 261.424338 149.609625 257.673437 149.609625 
C 253.922537 149.609625 250.32476 151.099873 247.672473 153.75216 
C 245.020186 156.404447 243.529937 160.002225 243.529937 163.753125 
C 243.529937 167.504025 245.020186 171.101803 247.672473 173.75409 
C 250.32476 176.406377 253.922537 177.896625 257.673437 177.896625 
z
" clip-path="url(#p4cdbf7d318)" style="fill: #440154; stroke: #000000; stroke-linejoin: miter"/>
   </g>
   <g id="patch_59">
    <path d="M 289.103437 177.896625 
C 292.854338 177.896625 296.452115 176.406377 299.104402 173.75409 
C 301.756689 171.101803 303.246938 167.504025 303.246938 163.753125 
C 303.246938 160.002225 301.756689 156.404447 299.104402 153.75216 
C 296.452115 151.099873 292.854338 149.609625 289.103437 149.609625 
C 285.352537 149.609625 281.75476 151.099873 279.102473 153.75216 
C 276.450186 156.404447 274.959937 160.002225 274.959937 163.753125 
C 274.959937 167.504025 276.450186 171.101803 279.102473 173.75409 
C 281.75476 176.406377 285.352537 177.896625 289.103437 177.896625 
z
" clip-path="url(#p4cdbf7d318)" style="fill: #440154; stroke: #000000; stroke-linejoin: miter"/>
   </g>
   <g id="patch_60">
    <path d="M 320.533437 177.896625 
C 324.284338 177.896625 327.882115 176.406377 330.534402 173.75409 
C 333.186689 171.101803 334.676937 167.504025 334.676937 163.753125 
C 334.676937 160.002225 333.186689 156.404447 330.534402 153.75216 
C 327.882115 151.099873 324.284338 149.609625 320.533437 149.609625 
C 316.782537 149.609625 313.18476 151.099873 310.532473 153.75216 
C 307.880186 156.404447 306.389937 160.002225 306.389937 163.753125 
C 306.389937 167.504025 307.880186 171.101803 310.532473 173.75409 
C 313.18476 176.406377 316.782537 177.896625 320.533437 177.896625 
z
" clip-path="url(#p4cdbf7d318)" style="fill: #9bd93c; stroke: #000000; stroke-linejoin: miter"/>
   </g>
   <g id="patch_61">
    <path d="M 351.963437 177.896625 
C 355.714338 177.896625 359.312115 176.406377 361.964402 173.75409 
C 364.616689 171.101803 366.106937 167.504025 366.106937 163.753125 
C 366.106937 160.002225 364.616689 156.404447 361.964402 153.75216 
C 359.312115 151.099873 355.714338 149.609625 351.963437 149.609625 
C 348.212537 149.609625 344.61476 151.099873 341.962473 153.75216 
C 339.310186 156.404447 337.819937 160.002225 337.819937 163.753125 
C 337.819937 167.504025 339.310186 171.101803 341.962473 173.75409 
C 344.61476 176.406377 348.212537 177.896625 351.963437 177.896625 
z
" clip-path="url(#p4cdbf7d318)" style="fill: #9bd93c; stroke: #000000; stroke-linejoin: miter"/>
   </g>
   <g id="patch_62">
    <path d="M 383.393437 177.896625 
C 387.144338 177.896625 390.742115 176.406377 393.394402 173.75409 
C 396.046689 171.101803 397.536937 167.504025 397.536937 163.753125 
C 397.536937 160.002225 396.046689 156.404447 393.394402 153.75216 
C 390.742115 151.099873 387.144338 149.609625 383.393437 149.609625 
C 379.642537 149.609625 376.04476 151.099873 373.392473 153.75216 
C 370.740186 156.404447 369.249937 160.002225 369.249937 163.753125 
C 369.249937 167.504025 370.740186 171.101803 373.392473 173.75409 
C 376.04476 176.406377 379.642537 177.896625 383.393437 177.896625 
z
" clip-path="url(#p4cdbf7d318)" style="fill: #9bd93c; stroke: #000000; stroke-linejoin: miter"/>
   </g>
   <g id="patch_63">
    <path d="M 37.663438 209.326625 
C 41.414338 209.326625 45.012115 207.836377 47.664402 205.18409 
C 50.316689 202.531803 51.806937 198.934025 51.806937 195.183125 
C 51.806937 191.432225 50.316689 187.834447 47.664402 185.18216 
C 45.012115 182.529873 41.414338 181.039625 37.663438 181.039625 
C 33.912537 181.039625 30.31476 182.529873 27.662473 185.18216 
C 25.010186 187.834447 23.519938 191.432225 23.519938 195.183125 
C 23.519938 198.934025 25.010186 202.531803 27.662473 205.18409 
C 30.31476 207.836377 33.912537 209.326625 37.663438 209.326625 
z
" clip-path="url(#p4cdbf7d318)" style="fill: #440154; stroke: #000000; stroke-linejoin: miter"/>
   </g>
   <g id="patch_64">
    <path d="M 69.093437 209.326625 
C 72.844338 209.326625 76.442115 207.836377 79.094402 205.18409 
C 81.746689 202.531803 83.236937 198.934025 83.236937 195.183125 
C 83.236937 191.432225 81.746689 187.834447 79.094402 185.18216 
C 76.442115 182.529873 72.844338 181.039625 69.093437 181.039625 
C 65.342537 181.039625 61.74476 182.529873 59.092473 185.18216 
C 56.440186 187.834447 54.949937 191.432225 54.949937 195.183125 
C 54.949937 198.934025 56.440186 202.531803 59.092473 205.18409 
C 61.74476 207.836377 65.342537 209.326625 69.093437 209.326625 
z
" clip-path="url(#p4cdbf7d318)" style="fill: #440154; stroke: #000000; stroke-linejoin: miter"/>
   </g>
   <g id="patch_65">
    <path d="M 100.523438 209.326625 
C 104.274338 209.326625 107.872115 207.836377 110.524402 205.18409 
C 113.176689 202.531803 114.666938 198.934025 114.666938 195.183125 
C 114.666938 191.432225 113.176689 187.834447 110.524402 185.18216 
C 107.872115 182.529873 104.274338 181.039625 100.523438 181.039625 
C 96.772537 181.039625 93.17476 182.529873 90.522473 185.18216 
C 87.870186 187.834447 86.379937 191.432225 86.379937 195.183125 
C 86.379937 198.934025 87.870186 202.531803 90.522473 205.18409 
C 93.17476 207.836377 96.772537 209.326625 100.523438 209.326625 
z
" clip-path="url(#p4cdbf7d318)" style="fill: #440154; stroke: #000000; stroke-linejoin: miter"/>
   </g>
   <g id="patch_66">
    <path d="M 131.953438 209.326625 
C 135.704338 209.326625 139.302115 207.836377 141.954402 205.18409 
C 144.606689 202.531803 146.096937 198.934025 146.096937 195.183125 
C 146.096937 191.432225 144.606689 187.834447 141.954402 185.18216 
C 139.302115 182.529873 135.704338 181.039625 131.953438 181.039625 
C 128.202537 181.039625 124.60476 182.529873 121.952473 185.18216 
C 119.300186 187.834447 117.809938 191.432225 117.809938 195.183125 
C 117.809938 198.934025 119.300186 202.531803 121.952473 205.18409 
C 124.60476 207.836377 128.202537 209.326625 131.953438 209.326625 
z
" clip-path="url(#p4cdbf7d318)" style="fill: #440154; stroke: #000000; stroke-linejoin: miter"/>
   </g>
   <g id="patch_67">
    <path d="M 163.383437 209.326625 
C 167.134338 209.326625 170.732115 207.836377 173.384402 205.18409 
C 176.036689 202.531803 177.526937 198.934025 177.526937 195.183125 
C 177.526937 191.432225 176.036689 187.834447 173.384402 185.18216 
C 170.732115 182.529873 167.134338 181.039625 163.383437 181.039625 
C 159.632537 181.039625 156.03476 182.529873 153.382473 185.18216 
C 150.730186 187.834447 149.239937 191.432225 149.239937 195.183125 
C 149.239937 198.934025 150.730186 202.531803 153.382473 205.18409 
C 156.03476 207.836377 159.632537 209.326625 163.383437 209.326625 
z
" clip-path="url(#p4cdbf7d318)" style="fill: #440154; stroke: #000000; stroke-linejoin: miter"/>
   </g>
   <g id="patch_68">
    <path d="M 194.813437 209.326625 
C 198.564338 209.326625 202.162115 207.836377 204.814402 205.18409 
C 207.466689 202.531803 208.956937 198.934025 208.956937 195.183125 
C 208.956937 191.432225 207.466689 187.834447 204.814402 185.18216 
C 202.162115 182.529873 198.564338 181.039625 194.813437 181.039625 
C 191.062537 181.039625 187.46476 182.529873 184.812473 185.18216 
C 182.160186 187.834447 180.669937 191.432225 180.669937 195.183125 
C 180.669937 198.934025 182.160186 202.531803 184.812473 205.18409 
C 187.46476 207.836377 191.062537 209.326625 194.813437 209.326625 
z
" clip-path="url(#p4cdbf7d318)" style="fill: #440154; stroke: #000000; stroke-linejoin: miter"/>
   </g>
   <g id="patch_69">
    <path d="M 226.243437 209.326625 
C 229.994338 209.326625 233.592115 207.836377 236.244402 205.18409 
C 238.896689 202.531803 240.386937 198.934025 240.386937 195.183125 
C 240.386937 191.432225 238.896689 187.834447 236.244402 185.18216 
C 233.592115 182.529873 229.994338 181.039625 226.243437 181.039625 
C 222.492537 181.039625 218.89476 182.529873 216.242473 185.18216 
C 213.590186 187.834447 212.099937 191.432225 212.099937 195.183125 
C 212.099937 198.934025 213.590186 202.531803 216.242473 205.18409 
C 218.89476 207.836377 222.492537 209.326625 226.243437 209.326625 
z
" clip-path="url(#p4cdbf7d318)" style="fill: #440154; stroke: #000000; stroke-linejoin: miter"/>
   </g>
   <g id="patch_70">
    <path d="M 257.673437 209.326625 
C 261.424338 209.326625 265.022115 207.836377 267.674402 205.18409 
C 270.326689 202.531803 271.816937 198.934025 271.816937 195.183125 
C 271.816937 191.432225 270.326689 187.834447 267.674402 185.18216 
C 265.022115 182.529873 261.424338 181.039625 257.673437 181.039625 
C 253.922537 181.039625 250.32476 182.529873 247.672473 185.18216 
C 245.020186 187.834447 243.529937 191.432225 243.529937 195.183125 
C 243.529937 198.934025 245.020186 202.531803 247.672473 205.18409 
C 250.32476 207.836377 253.922537 209.326625 257.673437 209.326625 
z
" clip-path="url(#p4cdbf7d318)" style="fill: #440154; stroke: #000000; stroke-linejoin: miter"/>
   </g>
   <g id="patch_71">
    <path d="M 289.103437 209.326625 
C 292.854338 209.326625 296.452115 207.836377 299.104402 205.18409 
C 301.756689 202.531803 303.246938 198.934025 303.246938 195.183125 
C 303.246938 191.432225 301.756689 187.834447 299.104402 185.18216 
C 296.452115 182.529873 292.854338 181.039625 289.103437 181.039625 
C 285.352537 181.039625 281.75476 182.529873 279.102473 185.18216 
C 276.450186 187.834447 274.959937 191.432225 274.959937 195.183125 
C 274.959937 198.934025 276.450186 202.531803 279.102473 205.18409 
C 281.75476 207.836377 285.352537 209.326625 289.103437 209.326625 
z
" clip-path="url(#p4cdbf7d318)" style="fill: #440154; stroke: #000000; stroke-linejoin: miter"/>
   </g>
   <g id="patch_72">
    <path d="M 320.533437 209.326625 
C 324.284338 209.326625 327.882115 207.836377 330.534402 205.18409 
C 333.186689 202.531803 334.676937 198.934025 334.676937 195.183125 
C 334.676937 191.432225 333.186689 187.834447 330.534402 185.18216 
C 327.882115 182.529873 324.284338 181.039625 320.533437 181.039625 
C 316.782537 181.039625 313.18476 182.529873 310.532473 185.18216 
C 307.880186 187.834447 306.389937 191.432225 306.389937 195.183125 
C 306.389937 198.934025 307.880186 202.531803 310.532473 205.18409 
C 313.18476 207.836377 316.782537 209.326625 320.533437 209.326625 
z
" clip-path="url(#p4cdbf7d318)" style="fill: #9bd93c; stroke: #000000; stroke-linejoin: miter"/>
   </g>
   <g id="patch_73">
    <path d="M 351.963437 209.326625 
C 355.714338 209.326625 359.312115 207.836377 361.964402 205.18409 
C 364.616689 202.531803 366.106937 198.934025 366.106937 195.183125 
C 366.106937 191.432225 364.616689 187.834447 361.964402 185.18216 
C 359.312115 182.529873 355.714338 181.039625 351.963437 181.039625 
C 348.212537 181.039625 344.61476 182.529873 341.962473 185.18216 
C 339.310186 187.834447 337.819937 191.432225 337.819937 195.183125 
C 337.819937 198.934025 339.310186 202.531803 341.962473 205.18409 
C 344.61476 207.836377 348.212537 209.326625 351.963437 209.326625 
z
" clip-path="url(#p4cdbf7d318)" style="fill: #9bd93c; stroke: #000000; stroke-linejoin: miter"/>
   </g>
   <g id="patch_74">
    <path d="M 383.393437 209.326625 
C 387.144338 209.326625 390.742115 207.836377 393.394402 205.18409 
C 396.046689 202.531803 397.536937 198.934025 397.536937 195.183125 
C 397.536937 191.432225 396.046689 187.834447 393.394402 185.18216 
C 390.742115 182.529873 387.144338 181.039625 383.393437 181.039625 
C 379.642537 181.039625 376.04476 182.529873 373.392473 185.18216 
C 370.740186 187.834447 369.249937 191.432225 369.249937 195.183125 
C 369.249937 198.934025 370.740186 202.531803 373.392473 205.18409 
C 376.04476 207.836377 379.642537 209.326625 383.393437 209.326625 
z
" clip-path="url(#p4cdbf7d318)" style="fill: #9bd93c; stroke: #000000; stroke-linejoin: miter"/>
   </g>
   <g id="patch_75">
    <path d="M 37.663438 240.756625 
C 41.414338 240.756625 45.012115 239.266377 47.664402 236.61409 
C 50.316689 233.961803 51.806937 230.364025 51.806937 226.613125 
C 51.806937 222.862225 50.316689 219.264447 47.664402 216.61216 
C 45.012115 213.959873 41.414338 212.469625 37.663438 212.469625 
C 33.912537 212.469625 30.31476 213.959873 27.662473 216.61216 
C 25.010186 219.264447 23.519938 222.862225 23.519938 226.613125 
C 23.519938 230.364025 25.010186 233.961803 27.662473 236.61409 
C 30.31476 239.266377 33.912537 240.756625 37.663438 240.756625 
z
" clip-path="url(#p4cdbf7d318)" style="fill: #440154; stroke: #000000; stroke-linejoin: miter"/>
   </g>
   <g id="patch_76">
    <path d="M 69.093437 240.756625 
C 72.844338 240.756625 76.442115 239.266377 79.094402 236.61409 
C 81.746689 233.961803 83.236937 230.364025 83.236937 226.613125 
C 83.236937 222.862225 81.746689 219.264447 79.094402 216.61216 
C 76.442115 213.959873 72.844338 212.469625 69.093437 212.469625 
C 65.342537 212.469625 61.74476 213.959873 59.092473 216.61216 
C 56.440186 219.264447 54.949937 222.862225 54.949937 226.613125 
C 54.949937 230.364025 56.440186 233.961803 59.092473 236.61409 
C 61.74476 239.266377 65.342537 240.756625 69.093437 240.756625 
z
" clip-path="url(#p4cdbf7d318)" style="fill: #440154; stroke: #000000; stroke-linejoin: miter"/>
   </g>
   <g id="patch_77">
    <path d="M 100.523438 240.756625 
C 104.274338 240.756625 107.872115 239.266377 110.524402 236.61409 
C 113.176689 233.961803 114.666938 230.364025 114.666938 226.613125 
C 114.666938 222.862225 113.176689 219.264447 110.524402 216.61216 
C 107.872115 213.959873 104.274338 212.469625 100.523438 212.469625 
C 96.772537 212.469625 93.17476 213.959873 90.522473 216.61216 
C 87.870186 219.264447 86.379937 222.862225 86.379937 226.613125 
C 86.379937 230.364025 87.870186 233.961803 90.522473 236.61409 
C 93.17476 239.266377 96.772537 240.756625 100.523438 240.756625 
z
" clip-path="url(#p4cdbf7d318)" style="fill: #440154; stroke: #000000; stroke-linejoin: miter"/>
   </g>
   <g id="patch_78">
    <path d="M 131.953438 240.756625 
C 135.704338 240.756625 139.302115 239.266377 141.954402 236.61409 
C 144.606689 233.961803 146.096937 230.364025 146.096937 226.613125 
C 146.096937 222.862225 144.606689 219.264447 141.954402 216.61216 
C 139.302115 213.959873 135.704338 212.469625 131.953438 212.469625 
C 128.202537 212.469625 124.60476 213.959873 121.952473 216.61216 
C 119.300186 219.264447 117.809938 222.862225 117.809938 226.613125 
C 117.809938 230.364025 119.300186 233.961803 121.952473 236.61409 
C 124.60476 239.266377 128.202537 240.756625 131.953438 240.756625 
z
" clip-path="url(#p4cdbf7d318)" style="fill: #440154; stroke: #000000; stroke-linejoin: miter"/>
   </g>
   <g id="patch_79">
    <path d="M 163.383437 240.756625 
C 167.134338 240.756625 170.732115 239.266377 173.384402 236.61409 
C 176.036689 233.961803 177.526937 230.364025 177.526937 226.613125 
C 177.526937 222.862225 176.036689 219.264447 173.384402 216.61216 
C 170.732115 213.959873 167.134338 212.469625 163.383437 212.469625 
C 159.632537 212.469625 156.03476 213.959873 153.382473 216.61216 
C 150.730186 219.264447 149.239937 222.862225 149.239937 226.613125 
C 149.239937 230.364025 150.730186 233.961803 153.382473 236.61409 
C 156.03476 239.266377 159.632537 240.756625 163.383437 240.756625 
z
" clip-path="url(#p4cdbf7d318)" style="fill: #440154; stroke: #000000; stroke-linejoin: miter"/>
   </g>
   <g id="patch_80">
    <path d="M 194.813437 240.756625 
C 198.564338 240.756625 202.162115 239.266377 204.814402 236.61409 
C 207.466689 233.961803 208.956937 230.364025 208.956937 226.613125 
C 208.956937 222.862225 207.466689 219.264447 204.814402 216.61216 
C 202.162115 213.959873 198.564338 212.469625 194.813437 212.469625 
C 191.062537 212.469625 187.46476 213.959873 184.812473 216.61216 
C 182.160186 219.264447 180.669937 222.862225 180.669937 226.613125 
C 180.669937 230.364025 182.160186 233.961803 184.812473 236.61409 
C 187.46476 239.266377 191.062537 240.756625 194.813437 240.756625 
z
" clip-path="url(#p4cdbf7d318)" style="fill: #440154; stroke: #000000; stroke-linejoin: miter"/>
   </g>
   <g id="patch_81">
    <path d="M 226.243437 240.756625 
C 229.994338 240.756625 233.592115 239.266377 236.244402 236.61409 
C 238.896689 233.961803 240.386937 230.364025 240.386937 226.613125 
C 240.386937 222.862225 238.896689 219.264447 236.244402 216.61216 
C 233.592115 213.959873 229.994338 212.469625 226.243437 212.469625 
C 222.492537 212.469625 218.89476 213.959873 216.242473 216.61216 
C 213.590186 219.264447 212.099937 222.862225 212.099937 226.613125 
C 212.099937 230.364025 213.590186 233.961803 216.242473 236.61409 
C 218.89476 239.266377 222.492537 240.756625 226.243437 240.756625 
z
" clip-path="url(#p4cdbf7d318)" style="fill: #440154; stroke: #000000; stroke-linejoin: miter"/>
   </g>
   <g id="patch_82">
    <path d="M 257.673437 240.756625 
C 261.424338 240.756625 265.022115 239.266377 267.674402 236.61409 
C 270.326689 233.961803 271.816937 230.364025 271.816937 226.613125 
C 271.816937 222.862225 270.326689 219.264447 267.674402 216.61216 
C 265.022115 213.959873 261.424338 212.469625 257.673437 212.469625 
C 253.922537 212.469625 250.32476 213.959873 247.672473 216.61216 
C 245.020186 219.264447 243.529937 222.862225 243.529937 226.613125 
C 243.529937 230.364025 245.020186 233.961803 247.672473 236.61409 
C 250.32476 239.266377 253.922537 240.756625 257.673437 240.756625 
z
" clip-path="url(#p4cdbf7d318)" style="fill: #440154; stroke: #000000; stroke-linejoin: miter"/>
   </g>
   <g id="patch_83">
    <path d="M 289.103437 240.756625 
C 292.854338 240.756625 296.452115 239.266377 299.104402 236.61409 
C 301.756689 233.961803 303.246938 230.364025 303.246938 226.613125 
C 303.246938 222.862225 301.756689 219.264447 299.104402 216.61216 
C 296.452115 213.959873 292.854338 212.469625 289.103437 212.469625 
C 285.352537 212.469625 281.75476 213.959873 279.102473 216.61216 
C 276.450186 219.264447 274.959937 222.862225 274.959937 226.613125 
C 274.959937 230.364025 276.450186 233.961803 279.102473 236.61409 
C 281.75476 239.266377 285.352537 240.756625 289.103437 240.756625 
z
" clip-path="url(#p4cdbf7d318)" style="fill: #440154; stroke: #000000; stroke-linejoin: miter"/>
   </g>
   <g id="patch_84">
    <path d="M 320.533437 240.756625 
C 324.284338 240.756625 327.882115 239.266377 330.534402 236.61409 
C 333.186689 233.961803 334.676937 230.364025 334.676937 226.613125 
C 334.676937 222.862225 333.186689 219.264447 330.534402 216.61216 
C 327.882115 213.959873 324.284338 212.469625 320.533437 212.469625 
C 316.782537 212.469625 313.18476 213.959873 310.532473 216.61216 
C 307.880186 219.264447 306.389937 222.862225 306.389937 226.613125 
C 306.389937 230.364025 307.880186 233.961803 310.532473 236.61409 
C 313.18476 239.266377 316.782537 240.756625 320.533437 240.756625 
z
" clip-path="url(#p4cdbf7d318)" style="fill: #9bd93c; stroke: #000000; stroke-linejoin: miter"/>
   </g>
   <g id="patch_85">
    <path d="M 351.963437 240.756625 
C 355.714338 240.756625 359.312115 239.266377 361.964402 236.61409 
C 364.616689 233.961803 366.106937 230.364025 366.106937 226.613125 
C 366.106937 222.862225 364.616689 219.264447 361.964402 216.61216 
C 359.312115 213.959873 355.714338 212.469625 351.963437 212.469625 
C 348.212537 212.469625 344.61476 213.959873 341.962473 216.61216 
C 339.310186 219.264447 337.819937 222.862225 337.819937 226.613125 
C 337.819937 230.364025 339.310186 233.961803 341.962473 236.61409 
C 344.61476 239.266377 348.212537 240.756625 351.963437 240.756625 
z
" clip-path="url(#p4cdbf7d318)" style="fill: #9bd93c; stroke: #000000; stroke-linejoin: miter"/>
   </g>
   <g id="patch_86">
    <path d="M 383.393437 240.756625 
C 387.144338 240.756625 390.742115 239.266377 393.394402 236.61409 
C 396.046689 233.961803 397.536937 230.364025 397.536937 226.613125 
C 397.536937 222.862225 396.046689 219.264447 393.394402 216.61216 
C 390.742115 213.959873 387.144338 212.469625 383.393437 212.469625 
C 379.642537 212.469625 376.04476 213.959873 373.392473 216.61216 
C 370.740186 219.264447 369.249937 222.862225 369.249937 226.613125 
C 369.249937 230.364025 370.740186 233.961803 373.392473 236.61409 
C 376.04476 239.266377 379.642537 240.756625 383.393437 240.756625 
z
" clip-path="url(#p4cdbf7d318)" style="fill: #9bd93c; stroke: #000000; stroke-linejoin: miter"/>
   </g>
   <g id="patch_87">
    <path d="M 37.663438 272.186625 
C 41.414338 272.186625 45.012115 270.696377 47.664402 268.04409 
C 50.316689 265.391803 51.806937 261.794025 51.806937 258.043125 
C 51.806937 254.292225 50.316689 250.694447 47.664402 248.04216 
C 45.012115 245.389873 41.414338 243.899625 37.663438 243.899625 
C 33.912537 243.899625 30.31476 245.389873 27.662473 248.04216 
C 25.010186 250.694447 23.519938 254.292225 23.519938 258.043125 
C 23.519938 261.794025 25.010186 265.391803 27.662473 268.04409 
C 30.31476 270.696377 33.912537 272.186625 37.663438 272.186625 
z
" clip-path="url(#p4cdbf7d318)" style="fill: #440154; stroke: #000000; stroke-linejoin: miter"/>
   </g>
   <g id="patch_88">
    <path d="M 69.093437 272.186625 
C 72.844338 272.186625 76.442115 270.696377 79.094402 268.04409 
C 81.746689 265.391803 83.236937 261.794025 83.236937 258.043125 
C 83.236937 254.292225 81.746689 250.694447 79.094402 248.04216 
C 76.442115 245.389873 72.844338 243.899625 69.093437 243.899625 
C 65.342537 243.899625 61.74476 245.389873 59.092473 248.04216 
C 56.440186 250.694447 54.949937 254.292225 54.949937 258.043125 
C 54.949937 261.794025 56.440186 265.391803 59.092473 268.04409 
C 61.74476 270.696377 65.342537 272.186625 69.093437 272.186625 
z
" clip-path="url(#p4cdbf7d318)" style="fill: #440154; stroke: #000000; stroke-linejoin: miter"/>
   </g>
   <g id="patch_89">
    <path d="M 100.523438 272.186625 
C 104.274338 272.186625 107.872115 270.696377 110.524402 268.04409 
C 113.176689 265.391803 114.666938 261.794025 114.666938 258.043125 
C 114.666938 254.292225 113.176689 250.694447 110.524402 248.04216 
C 107.872115 245.389873 104.274338 243.899625 100.523438 243.899625 
C 96.772537 243.899625 93.17476 245.389873 90.522473 248.04216 
C 87.870186 250.694447 86.379937 254.292225 86.379937 258.043125 
C 86.379937 261.794025 87.870186 265.391803 90.522473 268.04409 
C 93.17476 270.696377 96.772537 272.186625 100.523438 272.186625 
z
" clip-path="url(#p4cdbf7d318)" style="fill: #440154; stroke: #000000; stroke-linejoin: miter"/>
   </g>
   <g id="patch_90">
    <path d="M 131.953438 272.186625 
C 135.704338 272.186625 139.302115 270.696377 141.954402 268.04409 
C 144.606689 265.391803 146.096937 261.794025 146.096937 258.043125 
C 146.096937 254.292225 144.606689 250.694447 141.954402 248.04216 
C 139.302115 245.389873 135.704338 243.899625 131.953438 243.899625 
C 128.202537 243.899625 124.60476 245.389873 121.952473 248.04216 
C 119.300186 250.694447 117.809938 254.292225 117.809938 258.043125 
C 117.809938 261.794025 119.300186 265.391803 121.952473 268.04409 
C 124.60476 270.696377 128.202537 272.186625 131.953438 272.186625 
z
" clip-path="url(#p4cdbf7d318)" style="fill: #440154; stroke: #000000; stroke-linejoin: miter"/>
   </g>
   <g id="patch_91">
    <path d="M 163.383437 272.186625 
C 167.134338 272.186625 170.732115 270.696377 173.384402 268.04409 
C 176.036689 265.391803 177.526937 261.794025 177.526937 258.043125 
C 177.526937 254.292225 176.036689 250.694447 173.384402 248.04216 
C 170.732115 245.389873 167.134338 243.899625 163.383437 243.899625 
C 159.632537 243.899625 156.03476 245.389873 153.382473 248.04216 
C 150.730186 250.694447 149.239937 254.292225 149.239937 258.043125 
C 149.239937 261.794025 150.730186 265.391803 153.382473 268.04409 
C 156.03476 270.696377 159.632537 272.186625 163.383437 272.186625 
z
" clip-path="url(#p4cdbf7d318)" style="fill: #440154; stroke: #000000; stroke-linejoin: miter"/>
   </g>
   <g id="patch_92">
    <path d="M 194.813437 272.186625 
C 198.564338 272.186625 202.162115 270.696377 204.814402 268.04409 
C 207.466689 265.391803 208.956937 261.794025 208.956937 258.043125 
C 208.956937 254.292225 207.466689 250.694447 204.814402 248.04216 
C 202.162115 245.389873 198.564338 243.899625 194.813437 243.899625 
C 191.062537 243.899625 187.46476 245.389873 184.812473 248.04216 
C 182.160186 250.694447 180.669937 254.292225 180.669937 258.043125 
C 180.669937 261.794025 182.160186 265.391803 184.812473 268.04409 
C 187.46476 270.696377 191.062537 272.186625 194.813437 272.186625 
z
" clip-path="url(#p4cdbf7d318)" style="fill: #440154; stroke: #000000; stroke-linejoin: miter"/>
   </g>
   <g id="patch_93">
    <path d="M 226.243437 272.186625 
C 229.994338 272.186625 233.592115 270.696377 236.244402 268.04409 
C 238.896689 265.391803 240.386937 261.794025 240.386937 258.043125 
C 240.386937 254.292225 238.896689 250.694447 236.244402 248.04216 
C 233.592115 245.389873 229.994338 243.899625 226.243437 243.899625 
C 222.492537 243.899625 218.89476 245.389873 216.242473 248.04216 
C 213.590186 250.694447 212.099937 254.292225 212.099937 258.043125 
C 212.099937 261.794025 213.590186 265.391803 216.242473 268.04409 
C 218.89476 270.696377 222.492537 272.186625 226.243437 272.186625 
z
" clip-path="url(#p4cdbf7d318)" style="fill: #440154; stroke: #000000; stroke-linejoin: miter"/>
   </g>
   <g id="patch_94">
    <path d="M 257.673437 272.186625 
C 261.424338 272.186625 265.022115 270.696377 267.674402 268.04409 
C 270.326689 265.391803 271.816937 261.794025 271.816937 258.043125 
C 271.816937 254.292225 270.326689 250.694447 267.674402 248.04216 
C 265.022115 245.389873 261.424338 243.899625 257.673437 243.899625 
C 253.922537 243.899625 250.32476 245.389873 247.672473 248.04216 
C 245.020186 250.694447 243.529937 254.292225 243.529937 258.043125 
C 243.529937 261.794025 245.020186 265.391803 247.672473 268.04409 
C 250.32476 270.696377 253.922537 272.186625 257.673437 272.186625 
z
" clip-path="url(#p4cdbf7d318)" style="fill: #440154; stroke: #000000; stroke-linejoin: miter"/>
   </g>
   <g id="patch_95">
    <path d="M 289.103437 272.186625 
C 292.854338 272.186625 296.452115 270.696377 299.104402 268.04409 
C 301.756689 265.391803 303.246938 261.794025 303.246938 258.043125 
C 303.246938 254.292225 301.756689 250.694447 299.104402 248.04216 
C 296.452115 245.389873 292.854338 243.899625 289.103437 243.899625 
C 285.352537 243.899625 281.75476 245.389873 279.102473 248.04216 
C 276.450186 250.694447 274.959937 254.292225 274.959937 258.043125 
C 274.959937 261.794025 276.450186 265.391803 279.102473 268.04409 
C 281.75476 270.696377 285.352537 272.186625 289.103437 272.186625 
z
" clip-path="url(#p4cdbf7d318)" style="fill: #440154; stroke: #000000; stroke-linejoin: miter"/>
   </g>
   <g id="patch_96">
    <path d="M 320.533437 272.186625 
C 324.284338 272.186625 327.882115 270.696377 330.534402 268.04409 
C 333.186689 265.391803 334.676937 261.794025 334.676937 258.043125 
C 334.676937 254.292225 333.186689 250.694447 330.534402 248.04216 
C 327.882115 245.389873 324.284338 243.899625 320.533437 243.899625 
C 316.782537 243.899625 313.18476 245.389873 310.532473 248.04216 
C 307.880186 250.694447 306.389937 254.292225 306.389937 258.043125 
C 306.389937 261.794025 307.880186 265.391803 310.532473 268.04409 
C 313.18476 270.696377 316.782537 272.186625 320.533437 272.186625 
z
" clip-path="url(#p4cdbf7d318)" style="fill: #9bd93c; stroke: #000000; stroke-linejoin: miter"/>
   </g>
   <g id="patch_97">
    <path d="M 351.963437 272.186625 
C 355.714338 272.186625 359.312115 270.696377 361.964402 268.04409 
C 364.616689 265.391803 366.106937 261.794025 366.106937 258.043125 
C 366.106937 254.292225 364.616689 250.694447 361.964402 248.04216 
C 359.312115 245.389873 355.714338 243.899625 351.963437 243.899625 
C 348.212537 243.899625 344.61476 245.389873 341.962473 248.04216 
C 339.310186 250.694447 337.819937 254.292225 337.819937 258.043125 
C 337.819937 261.794025 339.310186 265.391803 341.962473 268.04409 
C 344.61476 270.696377 348.212537 272.186625 351.963437 272.186625 
z
" clip-path="url(#p4cdbf7d318)" style="fill: #9bd93c; stroke: #000000; stroke-linejoin: miter"/>
   </g>
   <g id="patch_98">
    <path d="M 383.393437 272.186625 
C 387.144338 272.186625 390.742115 270.696377 393.394402 268.04409 
C 396.046689 265.391803 397.536937 261.794025 397.536937 258.043125 
C 397.536937 254.292225 396.046689 250.694447 393.394402 248.04216 
C 390.742115 245.389873 387.144338 243.899625 383.393437 243.899625 
C 379.642537 243.899625 376.04476 245.389873 373.392473 248.04216 
C 370.740186 250.694447 369.249937 254.292225 369.249937 258.043125 
C 369.249937 261.794025 370.740186 265.391803 373.392473 268.04409 
C 376.04476 270.696377 379.642537 272.186625 383.393437 272.186625 
z
" clip-path="url(#p4cdbf7d318)" style="fill: #9bd93c; stroke: #000000; stroke-linejoin: miter"/>
   </g>
   <g id="matplotlib.axis_1">
    <g id="xtick_1">
     <g id="line2d_1">
      <defs>
       <path id="m970a26170d" d="M 0 0 
L 0 3.5 
" style="stroke: #000000; stroke-width: 0.8"/>
      </defs>
      <g>
       <use xlink:href="#m970a26170d" x="37.663438" y="273.758125" style="stroke: #000000; stroke-width: 0.8"/>
      </g>
     </g>
     <g id="text_1">
      <!-- 1 -->
      <g transform="translate(34.482188 288.356562) scale(0.1 -0.1)">
       <defs>
        <path id="DejaVuSans-31" d="M 794 531 
L 1825 531 
L 1825 4091 
L 703 3866 
L 703 4441 
L 1819 4666 
L 2450 4666 
L 2450 531 
L 3481 531 
L 3481 0 
L 794 0 
L 794 531 
z
" transform="scale(0.015625)"/>
       </defs>
       <use xlink:href="#DejaVuSans-31"/>
      </g>
     </g>
    </g>
    <g id="xtick_2">
     <g id="line2d_2">
      <g>
       <use xlink:href="#m970a26170d" x="69.093437" y="273.758125" style="stroke: #000000; stroke-width: 0.8"/>
      </g>
     </g>
     <g id="text_2">
      <!-- 2 -->
      <g transform="translate(65.912187 288.356562) scale(0.1 -0.1)">
       <defs>
        <path id="DejaVuSans-32" d="M 1228 531 
L 3431 531 
L 3431 0 
L 469 0 
L 469 531 
Q 828 903 1448 1529 
Q 2069 2156 2228 2338 
Q 2531 2678 2651 2914 
Q 2772 3150 2772 3378 
Q 2772 3750 2511 3984 
Q 2250 4219 1831 4219 
Q 1534 4219 1204 4116 
Q 875 4013 500 3803 
L 500 4441 
Q 881 4594 1212 4672 
Q 1544 4750 1819 4750 
Q 2544 4750 2975 4387 
Q 3406 4025 3406 3419 
Q 3406 3131 3298 2873 
Q 3191 2616 2906 2266 
Q 2828 2175 2409 1742 
Q 1991 1309 1228 531 
z
" transform="scale(0.015625)"/>
       </defs>
       <use xlink:href="#DejaVuSans-32"/>
      </g>
     </g>
    </g>
    <g id="xtick_3">
     <g id="line2d_3">
      <g>
       <use xlink:href="#m970a26170d" x="100.523438" y="273.758125" style="stroke: #000000; stroke-width: 0.8"/>
      </g>
     </g>
     <g id="text_3">
      <!-- 3 -->
      <g transform="translate(97.342187 288.356562) scale(0.1 -0.1)">
       <defs>
        <path id="DejaVuSans-33" d="M 2597 2516 
Q 3050 2419 3304 2112 
Q 3559 1806 3559 1356 
Q 3559 666 3084 287 
Q 2609 -91 1734 -91 
Q 1441 -91 1130 -33 
Q 819 25 488 141 
L 488 750 
Q 750 597 1062 519 
Q 1375 441 1716 441 
Q 2309 441 2620 675 
Q 2931 909 2931 1356 
Q 2931 1769 2642 2001 
Q 2353 2234 1838 2234 
L 1294 2234 
L 1294 2753 
L 1863 2753 
Q 2328 2753 2575 2939 
Q 2822 3125 2822 3475 
Q 2822 3834 2567 4026 
Q 2313 4219 1838 4219 
Q 1578 4219 1281 4162 
Q 984 4106 628 3988 
L 628 4550 
Q 988 4650 1302 4700 
Q 1616 4750 1894 4750 
Q 2613 4750 3031 4423 
Q 3450 4097 3450 3541 
Q 3450 3153 3228 2886 
Q 3006 2619 2597 2516 
z
" transform="scale(0.015625)"/>
       </defs>
       <use xlink:href="#DejaVuSans-33"/>
      </g>
     </g>
    </g>
    <g id="xtick_4">
     <g id="line2d_4">
      <g>
       <use xlink:href="#m970a26170d" x="131.953438" y="273.758125" style="stroke: #000000; stroke-width: 0.8"/>
      </g>
     </g>
     <g id="text_4">
      <!-- 4 -->
      <g transform="translate(128.772188 288.356562) scale(0.1 -0.1)">
       <defs>
        <path id="DejaVuSans-34" d="M 2419 4116 
L 825 1625 
L 2419 1625 
L 2419 4116 
z
M 2253 4666 
L 3047 4666 
L 3047 1625 
L 3713 1625 
L 3713 1100 
L 3047 1100 
L 3047 0 
L 2419 0 
L 2419 1100 
L 313 1100 
L 313 1709 
L 2253 4666 
z
" transform="scale(0.015625)"/>
       </defs>
       <use xlink:href="#DejaVuSans-34"/>
      </g>
     </g>
    </g>
    <g id="xtick_5">
     <g id="line2d_5">
      <g>
       <use xlink:href="#m970a26170d" x="163.383437" y="273.758125" style="stroke: #000000; stroke-width: 0.8"/>
      </g>
     </g>
     <g id="text_5">
      <!-- 5 -->
      <g transform="translate(160.202187 288.356562) scale(0.1 -0.1)">
       <defs>
        <path id="DejaVuSans-35" d="M 691 4666 
L 3169 4666 
L 3169 4134 
L 1269 4134 
L 1269 2991 
Q 1406 3038 1543 3061 
Q 1681 3084 1819 3084 
Q 2600 3084 3056 2656 
Q 3513 2228 3513 1497 
Q 3513 744 3044 326 
Q 2575 -91 1722 -91 
Q 1428 -91 1123 -41 
Q 819 9 494 109 
L 494 744 
Q 775 591 1075 516 
Q 1375 441 1709 441 
Q 2250 441 2565 725 
Q 2881 1009 2881 1497 
Q 2881 1984 2565 2268 
Q 2250 2553 1709 2553 
Q 1456 2553 1204 2497 
Q 953 2441 691 2322 
L 691 4666 
z
" transform="scale(0.015625)"/>
       </defs>
       <use xlink:href="#DejaVuSans-35"/>
      </g>
     </g>
    </g>
    <g id="xtick_6">
     <g id="line2d_6">
      <g>
       <use xlink:href="#m970a26170d" x="194.813437" y="273.758125" style="stroke: #000000; stroke-width: 0.8"/>
      </g>
     </g>
     <g id="text_6">
      <!-- 6 -->
      <g transform="translate(191.632187 288.356562) scale(0.1 -0.1)">
       <defs>
        <path id="DejaVuSans-36" d="M 2113 2584 
Q 1688 2584 1439 2293 
Q 1191 2003 1191 1497 
Q 1191 994 1439 701 
Q 1688 409 2113 409 
Q 2538 409 2786 701 
Q 3034 994 3034 1497 
Q 3034 2003 2786 2293 
Q 2538 2584 2113 2584 
z
M 3366 4563 
L 3366 3988 
Q 3128 4100 2886 4159 
Q 2644 4219 2406 4219 
Q 1781 4219 1451 3797 
Q 1122 3375 1075 2522 
Q 1259 2794 1537 2939 
Q 1816 3084 2150 3084 
Q 2853 3084 3261 2657 
Q 3669 2231 3669 1497 
Q 3669 778 3244 343 
Q 2819 -91 2113 -91 
Q 1303 -91 875 529 
Q 447 1150 447 2328 
Q 447 3434 972 4092 
Q 1497 4750 2381 4750 
Q 2619 4750 2861 4703 
Q 3103 4656 3366 4563 
z
" transform="scale(0.015625)"/>
       </defs>
       <use xlink:href="#DejaVuSans-36"/>
      </g>
     </g>
    </g>
    <g id="xtick_7">
     <g id="line2d_7">
      <g>
       <use xlink:href="#m970a26170d" x="226.243437" y="273.758125" style="stroke: #000000; stroke-width: 0.8"/>
      </g>
     </g>
     <g id="text_7">
      <!-- 7 -->
      <g transform="translate(223.062187 288.356562) scale(0.1 -0.1)">
       <defs>
        <path id="DejaVuSans-37" d="M 525 4666 
L 3525 4666 
L 3525 4397 
L 1831 0 
L 1172 0 
L 2766 4134 
L 525 4134 
L 525 4666 
z
" transform="scale(0.015625)"/>
       </defs>
       <use xlink:href="#DejaVuSans-37"/>
      </g>
     </g>
    </g>
    <g id="xtick_8">
     <g id="line2d_8">
      <g>
       <use xlink:href="#m970a26170d" x="257.673437" y="273.758125" style="stroke: #000000; stroke-width: 0.8"/>
      </g>
     </g>
     <g id="text_8">
      <!-- 8 -->
      <g transform="translate(254.492187 288.356562) scale(0.1 -0.1)">
       <defs>
        <path id="DejaVuSans-38" d="M 2034 2216 
Q 1584 2216 1326 1975 
Q 1069 1734 1069 1313 
Q 1069 891 1326 650 
Q 1584 409 2034 409 
Q 2484 409 2743 651 
Q 3003 894 3003 1313 
Q 3003 1734 2745 1975 
Q 2488 2216 2034 2216 
z
M 1403 2484 
Q 997 2584 770 2862 
Q 544 3141 544 3541 
Q 544 4100 942 4425 
Q 1341 4750 2034 4750 
Q 2731 4750 3128 4425 
Q 3525 4100 3525 3541 
Q 3525 3141 3298 2862 
Q 3072 2584 2669 2484 
Q 3125 2378 3379 2068 
Q 3634 1759 3634 1313 
Q 3634 634 3220 271 
Q 2806 -91 2034 -91 
Q 1263 -91 848 271 
Q 434 634 434 1313 
Q 434 1759 690 2068 
Q 947 2378 1403 2484 
z
M 1172 3481 
Q 1172 3119 1398 2916 
Q 1625 2713 2034 2713 
Q 2441 2713 2670 2916 
Q 2900 3119 2900 3481 
Q 2900 3844 2670 4047 
Q 2441 4250 2034 4250 
Q 1625 4250 1398 4047 
Q 1172 3844 1172 3481 
z
" transform="scale(0.015625)"/>
       </defs>
       <use xlink:href="#DejaVuSans-38"/>
      </g>
     </g>
    </g>
    <g id="xtick_9">
     <g id="line2d_9">
      <g>
       <use xlink:href="#m970a26170d" x="289.103437" y="273.758125" style="stroke: #000000; stroke-width: 0.8"/>
      </g>
     </g>
     <g id="text_9">
      <!-- 9 -->
      <g transform="translate(285.922188 288.356562) scale(0.1 -0.1)">
       <defs>
        <path id="DejaVuSans-39" d="M 703 97 
L 703 672 
Q 941 559 1184 500 
Q 1428 441 1663 441 
Q 2288 441 2617 861 
Q 2947 1281 2994 2138 
Q 2813 1869 2534 1725 
Q 2256 1581 1919 1581 
Q 1219 1581 811 2004 
Q 403 2428 403 3163 
Q 403 3881 828 4315 
Q 1253 4750 1959 4750 
Q 2769 4750 3195 4129 
Q 3622 3509 3622 2328 
Q 3622 1225 3098 567 
Q 2575 -91 1691 -91 
Q 1453 -91 1209 -44 
Q 966 3 703 97 
z
M 1959 2075 
Q 2384 2075 2632 2365 
Q 2881 2656 2881 3163 
Q 2881 3666 2632 3958 
Q 2384 4250 1959 4250 
Q 1534 4250 1286 3958 
Q 1038 3666 1038 3163 
Q 1038 2656 1286 2365 
Q 1534 2075 1959 2075 
z
" transform="scale(0.015625)"/>
       </defs>
       <use xlink:href="#DejaVuSans-39"/>
      </g>
     </g>
    </g>
    <g id="xtick_10">
     <g id="line2d_10">
      <g>
       <use xlink:href="#m970a26170d" x="320.533437" y="273.758125" style="stroke: #000000; stroke-width: 0.8"/>
      </g>
     </g>
     <g id="text_10">
      <!-- 10 -->
      <g transform="translate(314.170937 288.356562) scale(0.1 -0.1)">
       <defs>
        <path id="DejaVuSans-30" d="M 2034 4250 
Q 1547 4250 1301 3770 
Q 1056 3291 1056 2328 
Q 1056 1369 1301 889 
Q 1547 409 2034 409 
Q 2525 409 2770 889 
Q 3016 1369 3016 2328 
Q 3016 3291 2770 3770 
Q 2525 4250 2034 4250 
z
M 2034 4750 
Q 2819 4750 3233 4129 
Q 3647 3509 3647 2328 
Q 3647 1150 3233 529 
Q 2819 -91 2034 -91 
Q 1250 -91 836 529 
Q 422 1150 422 2328 
Q 422 3509 836 4129 
Q 1250 4750 2034 4750 
z
" transform="scale(0.015625)"/>
       </defs>
       <use xlink:href="#DejaVuSans-31"/>
       <use xlink:href="#DejaVuSans-30" x="63.623047"/>
      </g>
     </g>
    </g>
    <g id="xtick_11">
     <g id="line2d_11">
      <g>
       <use xlink:href="#m970a26170d" x="351.963437" y="273.758125" style="stroke: #000000; stroke-width: 0.8"/>
      </g>
     </g>
     <g id="text_11">
      <!-- 11 -->
      <g transform="translate(345.600937 288.356562) scale(0.1 -0.1)">
       <use xlink:href="#DejaVuSans-31"/>
       <use xlink:href="#DejaVuSans-31" x="63.623047"/>
      </g>
     </g>
    </g>
    <g id="xtick_12">
     <g id="line2d_12">
      <g>
       <use xlink:href="#m970a26170d" x="383.393437" y="273.758125" style="stroke: #000000; stroke-width: 0.8"/>
      </g>
     </g>
     <g id="text_12">
      <!-- 12 -->
      <g transform="translate(377.030937 288.356562) scale(0.1 -0.1)">
       <use xlink:href="#DejaVuSans-31"/>
       <use xlink:href="#DejaVuSans-32" x="63.623047"/>
      </g>
     </g>
    </g>
   </g>
   <g id="matplotlib.axis_2">
    <g id="ytick_1">
     <g id="line2d_13">
      <defs>
       <path id="mfa672cd871" d="M 0 0 
L -3.5 0 
" style="stroke: #000000; stroke-width: 0.8"/>
      </defs>
      <g>
       <use xlink:href="#mfa672cd871" x="21.948438" y="38.033125" style="stroke: #000000; stroke-width: 0.8"/>
      </g>
     </g>
     <g id="text_13">
      <!-- A -->
      <g transform="translate(8.107813 41.832344) scale(0.1 -0.1)">
       <defs>
        <path id="DejaVuSans-41" d="M 2188 4044 
L 1331 1722 
L 3047 1722 
L 2188 4044 
z
M 1831 4666 
L 2547 4666 
L 4325 0 
L 3669 0 
L 3244 1197 
L 1141 1197 
L 716 0 
L 50 0 
L 1831 4666 
z
" transform="scale(0.015625)"/>
       </defs>
       <use xlink:href="#DejaVuSans-41"/>
      </g>
     </g>
    </g>
    <g id="ytick_2">
     <g id="line2d_14">
      <g>
       <use xlink:href="#mfa672cd871" x="21.948438" y="69.463125" style="stroke: #000000; stroke-width: 0.8"/>
      </g>
     </g>
     <g id="text_14">
      <!-- B -->
      <g transform="translate(8.0875 73.262344) scale(0.1 -0.1)">
       <defs>
        <path id="DejaVuSans-42" d="M 1259 2228 
L 1259 519 
L 2272 519 
Q 2781 519 3026 730 
Q 3272 941 3272 1375 
Q 3272 1813 3026 2020 
Q 2781 2228 2272 2228 
L 1259 2228 
z
M 1259 4147 
L 1259 2741 
L 2194 2741 
Q 2656 2741 2882 2914 
Q 3109 3088 3109 3444 
Q 3109 3797 2882 3972 
Q 2656 4147 2194 4147 
L 1259 4147 
z
M 628 4666 
L 2241 4666 
Q 2963 4666 3353 4366 
Q 3744 4066 3744 3513 
Q 3744 3084 3544 2831 
Q 3344 2578 2956 2516 
Q 3422 2416 3680 2098 
Q 3938 1781 3938 1306 
Q 3938 681 3513 340 
Q 3088 0 2303 0 
L 628 0 
L 628 4666 
z
" transform="scale(0.015625)"/>
       </defs>
       <use xlink:href="#DejaVuSans-42"/>
      </g>
     </g>
    </g>
    <g id="ytick_3">
     <g id="line2d_15">
      <g>
       <use xlink:href="#mfa672cd871" x="21.948438" y="100.893125" style="stroke: #000000; stroke-width: 0.8"/>
      </g>
     </g>
     <g id="text_15">
      <!-- C -->
      <g transform="translate(7.965625 104.692344) scale(0.1 -0.1)">
       <defs>
        <path id="DejaVuSans-43" d="M 4122 4306 
L 4122 3641 
Q 3803 3938 3442 4084 
Q 3081 4231 2675 4231 
Q 1875 4231 1450 3742 
Q 1025 3253 1025 2328 
Q 1025 1406 1450 917 
Q 1875 428 2675 428 
Q 3081 428 3442 575 
Q 3803 722 4122 1019 
L 4122 359 
Q 3791 134 3420 21 
Q 3050 -91 2638 -91 
Q 1578 -91 968 557 
Q 359 1206 359 2328 
Q 359 3453 968 4101 
Q 1578 4750 2638 4750 
Q 3056 4750 3426 4639 
Q 3797 4528 4122 4306 
z
" transform="scale(0.015625)"/>
       </defs>
       <use xlink:href="#DejaVuSans-43"/>
      </g>
     </g>
    </g>
    <g id="ytick_4">
     <g id="line2d_16">
      <g>
       <use xlink:href="#mfa672cd871" x="21.948438" y="132.323125" style="stroke: #000000; stroke-width: 0.8"/>
      </g>
     </g>
     <g id="text_16">
      <!-- D -->
      <g transform="translate(7.248438 136.122344) scale(0.1 -0.1)">
       <defs>
        <path id="DejaVuSans-44" d="M 1259 4147 
L 1259 519 
L 2022 519 
Q 2988 519 3436 956 
Q 3884 1394 3884 2338 
Q 3884 3275 3436 3711 
Q 2988 4147 2022 4147 
L 1259 4147 
z
M 628 4666 
L 1925 4666 
Q 3281 4666 3915 4102 
Q 4550 3538 4550 2338 
Q 4550 1131 3912 565 
Q 3275 0 1925 0 
L 628 0 
L 628 4666 
z
" transform="scale(0.015625)"/>
       </defs>
       <use xlink:href="#DejaVuSans-44"/>
      </g>
     </g>
    </g>
    <g id="ytick_5">
     <g id="line2d_17">
      <g>
       <use xlink:href="#mfa672cd871" x="21.948438" y="163.753125" style="stroke: #000000; stroke-width: 0.8"/>
      </g>
     </g>
     <g id="text_17">
      <!-- E -->
      <g transform="translate(8.629687 167.552344) scale(0.1 -0.1)">
       <defs>
        <path id="DejaVuSans-45" d="M 628 4666 
L 3578 4666 
L 3578 4134 
L 1259 4134 
L 1259 2753 
L 3481 2753 
L 3481 2222 
L 1259 2222 
L 1259 531 
L 3634 531 
L 3634 0 
L 628 0 
L 628 4666 
z
" transform="scale(0.015625)"/>
       </defs>
       <use xlink:href="#DejaVuSans-45"/>
      </g>
     </g>
    </g>
    <g id="ytick_6">
     <g id="line2d_18">
      <g>
       <use xlink:href="#mfa672cd871" x="21.948438" y="195.183125" style="stroke: #000000; stroke-width: 0.8"/>
      </g>
     </g>
     <g id="text_18">
      <!-- F -->
      <g transform="translate(9.196875 198.982344) scale(0.1 -0.1)">
       <defs>
        <path id="DejaVuSans-46" d="M 628 4666 
L 3309 4666 
L 3309 4134 
L 1259 4134 
L 1259 2759 
L 3109 2759 
L 3109 2228 
L 1259 2228 
L 1259 0 
L 628 0 
L 628 4666 
z
" transform="scale(0.015625)"/>
       </defs>
       <use xlink:href="#DejaVuSans-46"/>
      </g>
     </g>
    </g>
    <g id="ytick_7">
     <g id="line2d_19">
      <g>
       <use xlink:href="#mfa672cd871" x="21.948438" y="226.613125" style="stroke: #000000; stroke-width: 0.8"/>
      </g>
     </g>
     <g id="text_19">
      <!-- G -->
      <g transform="translate(7.2 230.412344) scale(0.1 -0.1)">
       <defs>
        <path id="DejaVuSans-47" d="M 3809 666 
L 3809 1919 
L 2778 1919 
L 2778 2438 
L 4434 2438 
L 4434 434 
Q 4069 175 3628 42 
Q 3188 -91 2688 -91 
Q 1594 -91 976 548 
Q 359 1188 359 2328 
Q 359 3472 976 4111 
Q 1594 4750 2688 4750 
Q 3144 4750 3555 4637 
Q 3966 4525 4313 4306 
L 4313 3634 
Q 3963 3931 3569 4081 
Q 3175 4231 2741 4231 
Q 1884 4231 1454 3753 
Q 1025 3275 1025 2328 
Q 1025 1384 1454 906 
Q 1884 428 2741 428 
Q 3075 428 3337 486 
Q 3600 544 3809 666 
z
" transform="scale(0.015625)"/>
       </defs>
       <use xlink:href="#DejaVuSans-47"/>
      </g>
     </g>
    </g>
    <g id="ytick_8">
     <g id="line2d_20">
      <g>
       <use xlink:href="#mfa672cd871" x="21.948438" y="258.043125" style="stroke: #000000; stroke-width: 0.8"/>
      </g>
     </g>
     <g id="text_20">
      <!-- H -->
      <g transform="translate(7.428125 261.842344) scale(0.1 -0.1)">
       <defs>
        <path id="DejaVuSans-48" d="M 628 4666 
L 1259 4666 
L 1259 2753 
L 3553 2753 
L 3553 4666 
L 4184 4666 
L 4184 0 
L 3553 0 
L 3553 2222 
L 1259 2222 
L 1259 0 
L 628 0 
L 628 4666 
z
" transform="scale(0.015625)"/>
       </defs>
       <use xlink:href="#DejaVuSans-48"/>
      </g>
     </g>
    </g>
   </g>
   <g id="patch_99">
    <path d="M 21.948438 273.758125 
L 21.948438 22.318125 
" style="fill: none; stroke: #000000; stroke-width: 0.8; stroke-linejoin: miter; stroke-linecap: square"/>
   </g>
   <g id="patch_100">
    <path d="M 399.108437 273.758125 
L 399.108437 22.318125 
" style="fill: none; stroke: #000000; stroke-width: 0.8; stroke-linejoin: miter; stroke-linecap: square"/>
   </g>
   <g id="patch_101">
    <path d="M 21.948438 273.758125 
L 399.108437 273.758125 
" style="fill: none; stroke: #000000; stroke-width: 0.8; stroke-linejoin: miter; stroke-linecap: square"/>
   </g>
   <g id="patch_102">
    <path d="M 21.948438 22.318125 
L 399.108437 22.318125 
" style="fill: none; stroke: #000000; stroke-width: 0.8; stroke-linejoin: miter; stroke-linecap: square"/>
   </g>
   <g id="text_21">
    <!-- inducible_spacerlength -->
    <g transform="translate(141.119687 16.318125) scale(0.12 -0.12)">
     <defs>
      <path id="DejaVuSans-69" d="M 603 3500 
L 1178 3500 
L 1178 0 
L 603 0 
L 603 3500 
z
M 603 4863 
L 1178 4863 
L 1178 4134 
L 603 4134 
L 603 4863 
z
" transform="scale(0.015625)"/>
      <path id="DejaVuSans-6e" d="M 3513 2113 
L 3513 0 
L 2938 0 
L 2938 2094 
Q 2938 2591 2744 2837 
Q 2550 3084 2163 3084 
Q 1697 3084 1428 2787 
Q 1159 2491 1159 1978 
L 1159 0 
L 581 0 
L 581 3500 
L 1159 3500 
L 1159 2956 
Q 1366 3272 1645 3428 
Q 1925 3584 2291 3584 
Q 2894 3584 3203 3211 
Q 3513 2838 3513 2113 
z
" transform="scale(0.015625)"/>
      <path id="DejaVuSans-64" d="M 2906 2969 
L 2906 4863 
L 3481 4863 
L 3481 0 
L 2906 0 
L 2906 525 
Q 2725 213 2448 61 
Q 2172 -91 1784 -91 
Q 1150 -91 751 415 
Q 353 922 353 1747 
Q 353 2572 751 3078 
Q 1150 3584 1784 3584 
Q 2172 3584 2448 3432 
Q 2725 3281 2906 2969 
z
M 947 1747 
Q 947 1113 1208 752 
Q 1469 391 1925 391 
Q 2381 391 2643 752 
Q 2906 1113 2906 1747 
Q 2906 2381 2643 2742 
Q 2381 3103 1925 3103 
Q 1469 3103 1208 2742 
Q 947 2381 947 1747 
z
" transform="scale(0.015625)"/>
      <path id="DejaVuSans-75" d="M 544 1381 
L 544 3500 
L 1119 3500 
L 1119 1403 
Q 1119 906 1312 657 
Q 1506 409 1894 409 
Q 2359 409 2629 706 
Q 2900 1003 2900 1516 
L 2900 3500 
L 3475 3500 
L 3475 0 
L 2900 0 
L 2900 538 
Q 2691 219 2414 64 
Q 2138 -91 1772 -91 
Q 1169 -91 856 284 
Q 544 659 544 1381 
z
M 1991 3584 
L 1991 3584 
z
" transform="scale(0.015625)"/>
      <path id="DejaVuSans-63" d="M 3122 3366 
L 3122 2828 
Q 2878 2963 2633 3030 
Q 2388 3097 2138 3097 
Q 1578 3097 1268 2742 
Q 959 2388 959 1747 
Q 959 1106 1268 751 
Q 1578 397 2138 397 
Q 2388 397 2633 464 
Q 2878 531 3122 666 
L 3122 134 
Q 2881 22 2623 -34 
Q 2366 -91 2075 -91 
Q 1284 -91 818 406 
Q 353 903 353 1747 
Q 353 2603 823 3093 
Q 1294 3584 2113 3584 
Q 2378 3584 2631 3529 
Q 2884 3475 3122 3366 
z
" transform="scale(0.015625)"/>
      <path id="DejaVuSans-62" d="M 3116 1747 
Q 3116 2381 2855 2742 
Q 2594 3103 2138 3103 
Q 1681 3103 1420 2742 
Q 1159 2381 1159 1747 
Q 1159 1113 1420 752 
Q 1681 391 2138 391 
Q 2594 391 2855 752 
Q 3116 1113 3116 1747 
z
M 1159 2969 
Q 1341 3281 1617 3432 
Q 1894 3584 2278 3584 
Q 2916 3584 3314 3078 
Q 3713 2572 3713 1747 
Q 3713 922 3314 415 
Q 2916 -91 2278 -91 
Q 1894 -91 1617 61 
Q 1341 213 1159 525 
L 1159 0 
L 581 0 
L 581 4863 
L 1159 4863 
L 1159 2969 
z
" transform="scale(0.015625)"/>
      <path id="DejaVuSans-6c" d="M 603 4863 
L 1178 4863 
L 1178 0 
L 603 0 
L 603 4863 
z
" transform="scale(0.015625)"/>
      <path id="DejaVuSans-65" d="M 3597 1894 
L 3597 1613 
L 953 1613 
Q 991 1019 1311 708 
Q 1631 397 2203 397 
Q 2534 397 2845 478 
Q 3156 559 3463 722 
L 3463 178 
Q 3153 47 2828 -22 
Q 2503 -91 2169 -91 
Q 1331 -91 842 396 
Q 353 884 353 1716 
Q 353 2575 817 3079 
Q 1281 3584 2069 3584 
Q 2775 3584 3186 3129 
Q 3597 2675 3597 1894 
z
M 3022 2063 
Q 3016 2534 2758 2815 
Q 2500 3097 2075 3097 
Q 1594 3097 1305 2825 
Q 1016 2553 972 2059 
L 3022 2063 
z
" transform="scale(0.015625)"/>
      <path id="DejaVuSans-5f" d="M 3263 -1063 
L 3263 -1509 
L -63 -1509 
L -63 -1063 
L 3263 -1063 
z
" transform="scale(0.015625)"/>
      <path id="DejaVuSans-73" d="M 2834 3397 
L 2834 2853 
Q 2591 2978 2328 3040 
Q 2066 3103 1784 3103 
Q 1356 3103 1142 2972 
Q 928 2841 928 2578 
Q 928 2378 1081 2264 
Q 1234 2150 1697 2047 
L 1894 2003 
Q 2506 1872 2764 1633 
Q 3022 1394 3022 966 
Q 3022 478 2636 193 
Q 2250 -91 1575 -91 
Q 1294 -91 989 -36 
Q 684 19 347 128 
L 347 722 
Q 666 556 975 473 
Q 1284 391 1588 391 
Q 1994 391 2212 530 
Q 2431 669 2431 922 
Q 2431 1156 2273 1281 
Q 2116 1406 1581 1522 
L 1381 1569 
Q 847 1681 609 1914 
Q 372 2147 372 2553 
Q 372 3047 722 3315 
Q 1072 3584 1716 3584 
Q 2034 3584 2315 3537 
Q 2597 3491 2834 3397 
z
" transform="scale(0.015625)"/>
      <path id="DejaVuSans-70" d="M 1159 525 
L 1159 -1331 
L 581 -1331 
L 581 3500 
L 1159 3500 
L 1159 2969 
Q 1341 3281 1617 3432 
Q 1894 3584 2278 3584 
Q 2916 3584 3314 3078 
Q 3713 2572 3713 1747 
Q 3713 922 3314 415 
Q 2916 -91 2278 -91 
Q 1894 -91 1617 61 
Q 1341 213 1159 525 
z
M 3116 1747 
Q 3116 2381 2855 2742 
Q 2594 3103 2138 3103 
Q 1681 3103 1420 2742 
Q 1159 2381 1159 1747 
Q 1159 1113 1420 752 
Q 1681 391 2138 391 
Q 2594 391 2855 752 
Q 3116 1113 3116 1747 
z
" transform="scale(0.015625)"/>
      <path id="DejaVuSans-61" d="M 2194 1759 
Q 1497 1759 1228 1600 
Q 959 1441 959 1056 
Q 959 750 1161 570 
Q 1363 391 1709 391 
Q 2188 391 2477 730 
Q 2766 1069 2766 1631 
L 2766 1759 
L 2194 1759 
z
M 3341 1997 
L 3341 0 
L 2766 0 
L 2766 531 
Q 2569 213 2275 61 
Q 1981 -91 1556 -91 
Q 1019 -91 701 211 
Q 384 513 384 1019 
Q 384 1609 779 1909 
Q 1175 2209 1959 2209 
L 2766 2209 
L 2766 2266 
Q 2766 2663 2505 2880 
Q 2244 3097 1772 3097 
Q 1472 3097 1187 3025 
Q 903 2953 641 2809 
L 641 3341 
Q 956 3463 1253 3523 
Q 1550 3584 1831 3584 
Q 2591 3584 2966 3190 
Q 3341 2797 3341 1997 
z
" transform="scale(0.015625)"/>
      <path id="DejaVuSans-72" d="M 2631 2963 
Q 2534 3019 2420 3045 
Q 2306 3072 2169 3072 
Q 1681 3072 1420 2755 
Q 1159 2438 1159 1844 
L 1159 0 
L 581 0 
L 581 3500 
L 1159 3500 
L 1159 2956 
Q 1341 3275 1631 3429 
Q 1922 3584 2338 3584 
Q 2397 3584 2469 3576 
Q 2541 3569 2628 3553 
L 2631 2963 
z
" transform="scale(0.015625)"/>
      <path id="DejaVuSans-67" d="M 2906 1791 
Q 2906 2416 2648 2759 
Q 2391 3103 1925 3103 
Q 1463 3103 1205 2759 
Q 947 2416 947 1791 
Q 947 1169 1205 825 
Q 1463 481 1925 481 
Q 2391 481 2648 825 
Q 2906 1169 2906 1791 
z
M 3481 434 
Q 3481 -459 3084 -895 
Q 2688 -1331 1869 -1331 
Q 1566 -1331 1297 -1286 
Q 1028 -1241 775 -1147 
L 775 -588 
Q 1028 -725 1275 -790 
Q 1522 -856 1778 -856 
Q 2344 -856 2625 -561 
Q 2906 -266 2906 331 
L 2906 616 
Q 2728 306 2450 153 
Q 2172 0 1784 0 
Q 1141 0 747 490 
Q 353 981 353 1791 
Q 353 2603 747 3093 
Q 1141 3584 1784 3584 
Q 2172 3584 2450 3431 
Q 2728 3278 2906 2969 
L 2906 3500 
L 3481 3500 
L 3481 434 
z
" transform="scale(0.015625)"/>
      <path id="DejaVuSans-74" d="M 1172 4494 
L 1172 3500 
L 2356 3500 
L 2356 3053 
L 1172 3053 
L 1172 1153 
Q 1172 725 1289 603 
Q 1406 481 1766 481 
L 2356 481 
L 2356 0 
L 1766 0 
Q 1100 0 847 248 
Q 594 497 594 1153 
L 594 3053 
L 172 3053 
L 172 3500 
L 594 3500 
L 594 4494 
L 1172 4494 
z
" transform="scale(0.015625)"/>
      <path id="DejaVuSans-68" d="M 3513 2113 
L 3513 0 
L 2938 0 
L 2938 2094 
Q 2938 2591 2744 2837 
Q 2550 3084 2163 3084 
Q 1697 3084 1428 2787 
Q 1159 2491 1159 1978 
L 1159 0 
L 581 0 
L 581 4863 
L 1159 4863 
L 1159 2956 
Q 1366 3272 1645 3428 
Q 1925 3584 2291 3584 
Q 2894 3584 3203 3211 
Q 3513 2838 3513 2113 
z
" transform="scale(0.015625)"/>
     </defs>
     <use xlink:href="#DejaVuSans-69"/>
     <use xlink:href="#DejaVuSans-6e" x="27.783203"/>
     <use xlink:href="#DejaVuSans-64" x="91.162109"/>
     <use xlink:href="#DejaVuSans-75" x="154.638672"/>
     <use xlink:href="#DejaVuSans-63" x="218.017578"/>
     <use xlink:href="#DejaVuSans-69" x="272.998047"/>
     <use xlink:href="#DejaVuSans-62" x="300.78125"/>
     <use xlink:href="#DejaVuSans-6c" x="364.257812"/>
     <use xlink:href="#DejaVuSans-65" x="392.041016"/>
     <use xlink:href="#DejaVuSans-5f" x="453.564453"/>
     <use xlink:href="#DejaVuSans-73" x="503.564453"/>
     <use xlink:href="#DejaVuSans-70" x="555.664062"/>
     <use xlink:href="#DejaVuSans-61" x="619.140625"/>
     <use xlink:href="#DejaVuSans-63" x="680.419922"/>
     <use xlink:href="#DejaVuSans-65" x="735.400391"/>
     <use xlink:href="#DejaVuSans-72" x="796.923828"/>
     <use xlink:href="#DejaVuSans-6c" x="838.037109"/>
     <use xlink:href="#DejaVuSans-65" x="865.820312"/>
     <use xlink:href="#DejaVuSans-6e" x="927.34375"/>
     <use xlink:href="#DejaVuSans-67" x="990.722656"/>
     <use xlink:href="#DejaVuSans-74" x="1054.199219"/>
     <use xlink:href="#DejaVuSans-68" x="1093.408203"/>
    </g>
   </g>
   <g id="legend_1">
    <g id="patch_103">
     <path d="M 406.108437 164.21625 
L 444.470937 164.21625 
Q 446.470937 164.21625 446.470937 162.21625 
L 446.470937 133.86 
Q 446.470937 131.86 444.470937 131.86 
L 406.108437 131.86 
Q 404.108437 131.86 404.108437 133.86 
L 404.108437 162.21625 
Q 404.108437 164.21625 406.108437 164.21625 
z
" style="fill: #ffffff; opacity: 0.8; stroke: #cccccc; stroke-linejoin: miter"/>
    </g>
    <g id="patch_104">
     <path d="M 408.108437 143.458437 
L 428.108437 143.458437 
L 428.108437 136.458437 
L 408.108437 136.458437 
z
" style="fill: #440154; stroke: #000000; stroke-linejoin: miter"/>
    </g>
    <g id="text_22">
     <!-- 0 -->
     <g transform="translate(436.108437 143.458437) scale(0.1 -0.1)">
      <use xlink:href="#DejaVuSans-30"/>
     </g>
    </g>
    <g id="patch_105">
     <path d="M 408.108437 158.136562 
L 428.108437 158.136562 
L 428.108437 151.136562 
L 408.108437 151.136562 
z
" style="fill: #9bd93c; stroke: #000000; stroke-linejoin: miter"/>
    </g>
    <g id="text_23">
     <!-- 2 -->
     <g transform="translate(436.108437 158.136562) scale(0.1 -0.1)">
      <use xlink:href="#DejaVuSans-32"/>
     </g>
    </g>
   </g>
  </g>
 </g>
 <defs>
  <clipPath id="p4cdbf7d318">
   <rect x="21.948438" y="22.318125" width="377.16" height="251.44"/>
  </clipPath>
 </defs>
</svg>
