<?xml version="1.0" encoding="utf-8" standalone="no"?>
<!DOCTYPE svg PUBLIC "-//W3C//DTD SVG 1.1//EN"
  "http://www.w3.org/Graphics/SVG/1.1/DTD/svg11.dtd">
<svg xmlns:xlink="http://www.w3.org/1999/xlink" width="452.010312pt" height="263.278125pt" viewBox="0 0 452.010312 263.278125" xmlns="http://www.w3.org/2000/svg" version="1.1">
 <metadata>
  <rdf:RDF xmlns:dc="http://purl.org/dc/elements/1.1/" xmlns:cc="http://creativecommons.org/ns#" xmlns:rdf="http://www.w3.org/1999/02/22-rdf-syntax-ns#">
   <cc:Work>
    <dc:type rdf:resource="http://purl.org/dc/dcmitype/StillImage"/>
    <dc:date>2026-06-12T14:53:00+00:00</dc:date>
    <dc:format>image/svg+xml</dc:format>
    <dc:creator>
     <cc:Agent>
      <dc:title>Matplotlib v3.11.0, https://matplotlib.org/</dc:title>
     </cc:Agent>
    </dc:creator>
   </cc:Work>
  </rdf:RDF>
 </metadata>
 <defs>
  <style type="text/css">*{stroke-linejoin: round; stroke-linecap: butt}</style>
 </defs>
 <g id="figure_1">
  <g id="patch_1">
   <path d="M 0 263.278125 
L 452.010312 263.278125 
L 452.010312 0 
L 0 0 
z
" style="fill: #ffffff"/>
  </g>
  <g id="axes_1">
   <g id="patch_2">
    <path d="M 21.948438 239.078125 
L 347.088437 239.078125 
L 347.088437 22.318125 
L 21.948438 22.318125 
z
" style="fill: #ffffff"/>
   </g>
   <g id="patch_3">
    <path d="M 35.495937 48.058375 
C 38.729493 48.058375 41.831045 46.77367 44.117514 44.487201 
C 46.403982 42.200732 47.688687 39.09918 47.688687 35.865625 
C 47.688687 32.63207 46.403982 29.530518 44.117514 27.244049 
C 41.831045 24.95758 38.729493 23.672875 35.495937 23.672875 
C 32.262382 23.672875 29.16083 24.95758 26.874361 27.244049 
C 24.587893 29.530518 23.303187 32.63207 23.303187 35.865625 
C 23.303187 39.09918 24.587893 42.200732 26.874361 44.487201 
C 29.16083 46.77367 32.262382 48.058375 35.495937 48.058375 
z
" clip-path="url(#pf3f7bd196b)" style="fill: #19d2bf; stroke: #000000; stroke-linejoin: miter"/>
   </g>
   <g id="patch_4">
    <path d="M 62.590937 48.058375 
C 65.824493 48.058375 68.926045 46.77367 71.212514 44.487201 
C 73.498982 42.200732 74.783687 39.09918 74.783687 35.865625 
C 74.783687 32.63207 73.498982 29.530518 71.212514 27.244049 
C 68.926045 24.95758 65.824493 23.672875 62.590937 23.672875 
C 59.357382 23.672875 56.25583 24.95758 53.969361 27.244049 
C 51.682893 29.530518 50.398187 32.63207 50.398187 35.865625 
C 50.398187 39.09918 51.682893 42.200732 53.969361 44.487201 
C 56.25583 46.77367 59.357382 48.058375 62.590937 48.058375 
z
" clip-path="url(#pf3f7bd196b)" style="fill: #19d2bf; stroke: #000000; stroke-linejoin: miter"/>
   </g>
   <g id="patch_5">
    <path d="M 89.685937 48.058375 
C 92.919493 48.058375 96.021045 46.77367 98.307514 44.487201 
C 100.593982 42.200732 101.878687 39.09918 101.878687 35.865625 
C 101.878687 32.63207 100.593982 29.530518 98.307514 27.244049 
C 96.021045 24.95758 92.919493 23.672875 89.685937 23.672875 
C 86.452382 23.672875 83.35083 24.95758 81.064361 27.244049 
C 78.777893 29.530518 77.493187 32.63207 77.493187 35.865625 
C 77.493187 39.09918 78.777893 42.200732 81.064361 44.487201 
C 83.35083 46.77367 86.452382 48.058375 89.685937 48.058375 
z
" clip-path="url(#pf3f7bd196b)" style="fill: #19d2bf; stroke: #000000; stroke-linejoin: miter"/>
   </g>
   <g id="patch_6">
    <path d="M 116.780937 48.058375 
C 120.014493 48.058375 123.116045 46.77367 125.402514 44.487201 
C 127.688982 42.200732 128.973687 39.09918 128.973687 35.865625 
C 128.973687 32.63207 127.688982 29.530518 125.402514 27.244049 
C 123.116045 24.95758 120.014493 23.672875 116.780937 23.672875 
C 113.547382 23.672875 110.44583 24.95758 108.159361 27.244049 
C 105.872893 29.530518 104.588187 32.63207 104.588187 35.865625 
C 104.588187 39.09918 105.872893 42.200732 108.159361 44.487201 
C 110.44583 46.77367 113.547382 48.058375 116.780937 48.058375 
z
" clip-path="url(#pf3f7bd196b)" style="fill: #ffb133; stroke: #000000; stroke-linejoin: miter"/>
   </g>
   <g id="patch_7">
    <path d="M 143.875937 48.058375 
C 147.109493 48.058375 150.211045 46.77367 152.497514 44.487201 
C 154.783982 42.200732 156.068687 39.09918 156.068687 35.865625 
C 156.068687 32.63207 154.783982 29.530518 152.497514 27.244049 
C 150.211045 24.95758 147.109493 23.672875 143.875937 23.672875 
C 140.642382 23.672875 137.54083 24.95758 135.254361 27.244049 
C 132.967893 29.530518 131.683187 32.63207 131.683187 35.865625 
C 131.683187 39.09918 132.967893 42.200732 135.254361 44.487201 
C 137.54083 46.77367 140.642382 48.058375 143.875937 48.058375 
z
" clip-path="url(#pf3f7bd196b)" style="fill: #ffb133; stroke: #000000; stroke-linejoin: miter"/>
   </g>
   <g id="patch_8">
    <path d="M 170.970937 48.058375 
C 174.204493 48.058375 177.306045 46.77367 179.592514 44.487201 
C 181.878982 42.200732 183.163687 39.09918 183.163687 35.865625 
C 183.163687 32.63207 181.878982 29.530518 179.592514 27.244049 
C 177.306045 24.95758 174.204493 23.672875 170.970937 23.672875 
C 167.737382 23.672875 164.63583 24.95758 162.349361 27.244049 
C 160.062893 29.530518 158.778187 32.63207 158.778187 35.865625 
C 158.778187 39.09918 160.062893 42.200732 162.349361 44.487201 
C 164.63583 46.77367 167.737382 48.058375 170.970937 48.058375 
z
" clip-path="url(#pf3f7bd196b)" style="fill: #ffb133; stroke: #000000; stroke-linejoin: miter"/>
   </g>
   <g id="patch_9">
    <path d="M 198.065937 48.058375 
C 201.299493 48.058375 204.401045 46.77367 206.687514 44.487201 
C 208.973982 42.200732 210.258687 39.09918 210.258687 35.865625 
C 210.258687 32.63207 208.973982 29.530518 206.687514 27.244049 
C 204.401045 24.95758 201.299493 23.672875 198.065937 23.672875 
C 194.832382 23.672875 191.73083 24.95758 189.444361 27.244049 
C 187.157893 29.530518 185.873187 32.63207 185.873187 35.865625 
C 185.873187 39.09918 187.157893 42.200732 189.444361 44.487201 
C 191.73083 46.77367 194.832382 48.058375 198.065937 48.058375 
z
" clip-path="url(#pf3f7bd196b)" style="fill: #fe484e; stroke: #000000; stroke-linejoin: miter"/>
   </g>
   <g id="patch_10">
    <path d="M 225.160937 48.058375 
C 228.394493 48.058375 231.496045 46.77367 233.782514 44.487201 
C 236.068982 42.200732 237.353687 39.09918 237.353687 35.865625 
C 237.353687 32.63207 236.068982 29.530518 233.782514 27.244049 
C 231.496045 24.95758 228.394493 23.672875 225.160937 23.672875 
C 221.927382 23.672875 218.82583 24.95758 216.539361 27.244049 
C 214.252893 29.530518 212.968187 32.63207 212.968187 35.865625 
C 212.968187 39.09918 214.252893 42.200732 216.539361 44.487201 
C 218.82583 46.77367 221.927382 48.058375 225.160937 48.058375 
z
" clip-path="url(#pf3f7bd196b)" style="fill: #fe484e; stroke: #000000; stroke-linejoin: miter"/>
   </g>
   <g id="patch_11">
    <path d="M 252.255937 48.058375 
C 255.489493 48.058375 258.591045 46.77367 260.877514 44.487201 
C 263.163982 42.200732 264.448687 39.09918 264.448687 35.865625 
C 264.448687 32.63207 263.163982 29.530518 260.877514 27.244049 
C 258.591045 24.95758 255.489493 23.672875 252.255937 23.672875 
C 249.022382 23.672875 245.92083 24.95758 243.634361 27.244049 
C 241.347893 29.530518 240.063187 32.63207 240.063187 35.865625 
C 240.063187 39.09918 241.347893 42.200732 243.634361 44.487201 
C 245.92083 46.77367 249.022382 48.058375 252.255937 48.058375 
z
" clip-path="url(#pf3f7bd196b)" style="fill: #fe484e; stroke: #000000; stroke-linejoin: miter"/>
   </g>
   <g id="patch_12">
    <path d="M 279.350937 48.058375 
C 282.584493 48.058375 285.686045 46.77367 287.972514 44.487201 
C 290.258982 42.200732 291.543687 39.09918 291.543687 35.865625 
C 291.543687 32.63207 290.258982 29.530518 287.972514 27.244049 
C 285.686045 24.95758 282.584493 23.672875 279.350937 23.672875 
C 276.117382 23.672875 273.01583 24.95758 270.729361 27.244049 
C 268.442893 29.530518 267.158187 32.63207 267.158187 35.865625 
C 267.158187 39.09918 268.442893 42.200732 270.729361 44.487201 
C 273.01583 46.77367 276.117382 48.058375 279.350937 48.058375 
z
" clip-path="url(#pf3f7bd196b)" style="fill: #19d2bf; stroke: #000000; stroke-linejoin: miter"/>
   </g>
   <g id="patch_13">
    <path d="M 306.445937 48.058375 
C 309.679493 48.058375 312.781045 46.77367 315.067514 44.487201 
C 317.353982 42.200732 318.638687 39.09918 318.638687 35.865625 
C 318.638687 32.63207 317.353982 29.530518 315.067514 27.244049 
C 312.781045 24.95758 309.679493 23.672875 306.445937 23.672875 
C 303.212382 23.672875 300.11083 24.95758 297.824361 27.244049 
C 295.537893 29.530518 294.253187 32.63207 294.253187 35.865625 
C 294.253187 39.09918 295.537893 42.200732 297.824361 44.487201 
C 300.11083 46.77367 303.212382 48.058375 306.445937 48.058375 
z
" clip-path="url(#pf3f7bd196b)" style="fill: #19d2bf; stroke: #000000; stroke-linejoin: miter"/>
   </g>
   <g id="patch_14">
    <path d="M 333.540937 48.058375 
C 336.774493 48.058375 339.876045 46.77367 342.162514 44.487201 
C 344.448982 42.200732 345.733687 39.09918 345.733687 35.865625 
C 345.733687 32.63207 344.448982 29.530518 342.162514 27.244049 
C 339.876045 24.95758 336.774493 23.672875 333.540937 23.672875 
C 330.307382 23.672875 327.20583 24.95758 324.919361 27.244049 
C 322.632893 29.530518 321.348187 32.63207 321.348187 35.865625 
C 321.348187 39.09918 322.632893 42.200732 324.919361 44.487201 
C 327.20583 46.77367 330.307382 48.058375 333.540937 48.058375 
z
" clip-path="url(#pf3f7bd196b)" style="fill: #19d2bf; stroke: #000000; stroke-linejoin: miter"/>
   </g>
   <g id="patch_15">
    <path d="M 35.495937 75.153375 
C 38.729493 75.153375 41.831045 73.86867 44.117514 71.582201 
C 46.403982 69.295732 47.688687 66.19418 47.688687 62.960625 
C 47.688687 59.72707 46.403982 56.625518 44.117514 54.339049 
C 41.831045 52.05258 38.729493 50.767875 35.495937 50.767875 
C 32.262382 50.767875 29.16083 52.05258 26.874361 54.339049 
C 24.587893 56.625518 23.303187 59.72707 23.303187 62.960625 
C 23.303187 66.19418 24.587893 69.295732 26.874361 71.582201 
C 29.16083 73.86867 32.262382 75.153375 35.495937 75.153375 
z
" clip-path="url(#pf3f7bd196b)" style="fill: #19d2bf; stroke: #000000; stroke-linejoin: miter"/>
   </g>
   <g id="patch_16">
    <path d="M 62.590937 75.153375 
C 65.824493 75.153375 68.926045 73.86867 71.212514 71.582201 
C 73.498982 69.295732 74.783687 66.19418 74.783687 62.960625 
C 74.783687 59.72707 73.498982 56.625518 71.212514 54.339049 
C 68.926045 52.05258 65.824493 50.767875 62.590937 50.767875 
C 59.357382 50.767875 56.25583 52.05258 53.969361 54.339049 
C 51.682893 56.625518 50.398187 59.72707 50.398187 62.960625 
C 50.398187 66.19418 51.682893 69.295732 53.969361 71.582201 
C 56.25583 73.86867 59.357382 75.153375 62.590937 75.153375 
z
" clip-path="url(#pf3f7bd196b)" style="fill: #19d2bf; stroke: #000000; stroke-linejoin: miter"/>
   </g>
   <g id="patch_17">
    <path d="M 89.685937 75.153375 
C 92.919493 75.153375 96.021045 73.86867 98.307514 71.582201 
C 100.593982 69.295732 101.878687 66.19418 101.878687 62.960625 
C 101.878687 59.72707 100.593982 56.625518 98.307514 54.339049 
C 96.021045 52.05258 92.919493 50.767875 89.685937 50.767875 
C 86.452382 50.767875 83.35083 52.05258 81.064361 54.339049 
C 78.777893 56.625518 77.493187 59.72707 77.493187 62.960625 
C 77.493187 66.19418 78.777893 69.295732 81.064361 71.582201 
C 83.35083 73.86867 86.452382 75.153375 89.685937 75.153375 
z
" clip-path="url(#pf3f7bd196b)" style="fill: #19d2bf; stroke: #000000; stroke-linejoin: miter"/>
   </g>
   <g id="patch_18">
    <path d="M 116.780937 75.153375 
C 120.014493 75.153375 123.116045 73.86867 125.402514 71.582201 
C 127.688982 69.295732 128.973687 66.19418 128.973687 62.960625 
C 128.973687 59.72707 127.688982 56.625518 125.402514 54.339049 
C 123.116045 52.05258 120.014493 50.767875 116.780937 50.767875 
C 113.547382 50.767875 110.44583 52.05258 108.159361 54.339049 
C 105.872893 56.625518 104.588187 59.72707 104.588187 62.960625 
C 104.588187 66.19418 105.872893 69.295732 108.159361 71.582201 
C 110.44583 73.86867 113.547382 75.153375 116.780937 75.153375 
z
" clip-path="url(#pf3f7bd196b)" style="fill: #ffb133; stroke: #000000; stroke-linejoin: miter"/>
   </g>
   <g id="patch_19">
    <path d="M 143.875937 75.153375 
C 147.109493 75.153375 150.211045 73.86867 152.497514 71.582201 
C 154.783982 69.295732 156.068687 66.19418 156.068687 62.960625 
C 156.068687 59.72707 154.783982 56.625518 152.497514 54.339049 
C 150.211045 52.05258 147.109493 50.767875 143.875937 50.767875 
C 140.642382 50.767875 137.54083 52.05258 135.254361 54.339049 
C 132.967893 56.625518 131.683187 59.72707 131.683187 62.960625 
C 131.683187 66.19418 132.967893 69.295732 135.254361 71.582201 
C 137.54083 73.86867 140.642382 75.153375 143.875937 75.153375 
z
" clip-path="url(#pf3f7bd196b)" style="fill: #ffb133; stroke: #000000; stroke-linejoin: miter"/>
   </g>
   <g id="patch_20">
    <path d="M 170.970937 75.153375 
C 174.204493 75.153375 177.306045 73.86867 179.592514 71.582201 
C 181.878982 69.295732 183.163687 66.19418 183.163687 62.960625 
C 183.163687 59.72707 181.878982 56.625518 179.592514 54.339049 
C 177.306045 52.05258 174.204493 50.767875 170.970937 50.767875 
C 167.737382 50.767875 164.63583 52.05258 162.349361 54.339049 
C 160.062893 56.625518 158.778187 59.72707 158.778187 62.960625 
C 158.778187 66.19418 160.062893 69.295732 162.349361 71.582201 
C 164.63583 73.86867 167.737382 75.153375 170.970937 75.153375 
z
" clip-path="url(#pf3f7bd196b)" style="fill: #ffb133; stroke: #000000; stroke-linejoin: miter"/>
   </g>
   <g id="patch_21">
    <path d="M 198.065937 75.153375 
C 201.299493 75.153375 204.401045 73.86867 206.687514 71.582201 
C 208.973982 69.295732 210.258687 66.19418 210.258687 62.960625 
C 210.258687 59.72707 208.973982 56.625518 206.687514 54.339049 
C 204.401045 52.05258 201.299493 50.767875 198.065937 50.767875 
C 194.832382 50.767875 191.73083 52.05258 189.444361 54.339049 
C 187.157893 56.625518 185.873187 59.72707 185.873187 62.960625 
C 185.873187 66.19418 187.157893 69.295732 189.444361 71.582201 
C 191.73083 73.86867 194.832382 75.153375 198.065937 75.153375 
z
" clip-path="url(#pf3f7bd196b)" style="fill: #fe484e; stroke: #000000; stroke-linejoin: miter"/>
   </g>
   <g id="patch_22">
    <path d="M 225.160937 75.153375 
C 228.394493 75.153375 231.496045 73.86867 233.782514 71.582201 
C 236.068982 69.295732 237.353687 66.19418 237.353687 62.960625 
C 237.353687 59.72707 236.068982 56.625518 233.782514 54.339049 
C 231.496045 52.05258 228.394493 50.767875 225.160937 50.767875 
C 221.927382 50.767875 218.82583 52.05258 216.539361 54.339049 
C 214.252893 56.625518 212.968187 59.72707 212.968187 62.960625 
C 212.968187 66.19418 214.252893 69.295732 216.539361 71.582201 
C 218.82583 73.86867 221.927382 75.153375 225.160937 75.153375 
z
" clip-path="url(#pf3f7bd196b)" style="fill: #fe484e; stroke: #000000; stroke-linejoin: miter"/>
   </g>
   <g id="patch_23">
    <path d="M 252.255937 75.153375 
C 255.489493 75.153375 258.591045 73.86867 260.877514 71.582201 
C 263.163982 69.295732 264.448687 66.19418 264.448687 62.960625 
C 264.448687 59.72707 263.163982 56.625518 260.877514 54.339049 
C 258.591045 52.05258 255.489493 50.767875 252.255937 50.767875 
C 249.022382 50.767875 245.92083 52.05258 243.634361 54.339049 
C 241.347893 56.625518 240.063187 59.72707 240.063187 62.960625 
C 240.063187 66.19418 241.347893 69.295732 243.634361 71.582201 
C 245.92083 73.86867 249.022382 75.153375 252.255937 75.153375 
z
" clip-path="url(#pf3f7bd196b)" style="fill: #fe484e; stroke: #000000; stroke-linejoin: miter"/>
   </g>
   <g id="patch_24">
    <path d="M 279.350937 75.153375 
C 282.584493 75.153375 285.686045 73.86867 287.972514 71.582201 
C 290.258982 69.295732 291.543687 66.19418 291.543687 62.960625 
C 291.543687 59.72707 290.258982 56.625518 287.972514 54.339049 
C 285.686045 52.05258 282.584493 50.767875 279.350937 50.767875 
C 276.117382 50.767875 273.01583 52.05258 270.729361 54.339049 
C 268.442893 56.625518 267.158187 59.72707 267.158187 62.960625 
C 267.158187 66.19418 268.442893 69.295732 270.729361 71.582201 
C 273.01583 73.86867 276.117382 75.153375 279.350937 75.153375 
z
" clip-path="url(#pf3f7bd196b)" style="fill: #19d2bf; stroke: #000000; stroke-linejoin: miter"/>
   </g>
   <g id="patch_25">
    <path d="M 306.445937 75.153375 
C 309.679493 75.153375 312.781045 73.86867 315.067514 71.582201 
C 317.353982 69.295732 318.638687 66.19418 318.638687 62.960625 
C 318.638687 59.72707 317.353982 56.625518 315.067514 54.339049 
C 312.781045 52.05258 309.679493 50.767875 306.445937 50.767875 
C 303.212382 50.767875 300.11083 52.05258 297.824361 54.339049 
C 295.537893 56.625518 294.253187 59.72707 294.253187 62.960625 
C 294.253187 66.19418 295.537893 69.295732 297.824361 71.582201 
C 300.11083 73.86867 303.212382 75.153375 306.445937 75.153375 
z
" clip-path="url(#pf3f7bd196b)" style="fill: #19d2bf; stroke: #000000; stroke-linejoin: miter"/>
   </g>
   <g id="patch_26">
    <path d="M 333.540937 75.153375 
C 336.774493 75.153375 339.876045 73.86867 342.162514 71.582201 
C 344.448982 69.295732 345.733687 66.19418 345.733687 62.960625 
C 345.733687 59.72707 344.448982 56.625518 342.162514 54.339049 
C 339.876045 52.05258 336.774493 50.767875 333.540937 50.767875 
C 330.307382 50.767875 327.20583 52.05258 324.919361 54.339049 
C 322.632893 56.625518 321.348187 59.72707 321.348187 62.960625 
C 321.348187 66.19418 322.632893 69.295732 324.919361 71.582201 
C 327.20583 73.86867 330.307382 75.153375 333.540937 75.153375 
z
" clip-path="url(#pf3f7bd196b)" style="fill: #19d2bf; stroke: #000000; stroke-linejoin: miter"/>
   </g>
   <g id="patch_27">
    <path d="M 35.495937 102.248375 
C 38.729493 102.248375 41.831045 100.96367 44.117514 98.677201 
C 46.403982 96.390732 47.688687 93.28918 47.688687 90.055625 
C 47.688687 86.82207 46.403982 83.720518 44.117514 81.434049 
C 41.831045 79.14758 38.729493 77.862875 35.495937 77.862875 
C 32.262382 77.862875 29.16083 79.14758 26.874361 81.434049 
C 24.587893 83.720518 23.303187 86.82207 23.303187 90.055625 
C 23.303187 93.28918 24.587893 96.390732 26.874361 98.677201 
C 29.16083 100.96367 32.262382 102.248375 35.495937 102.248375 
z
" clip-path="url(#pf3f7bd196b)" style="fill: #19d2bf; stroke: #000000; stroke-linejoin: miter"/>
   </g>
   <g id="patch_28">
    <path d="M 62.590937 102.248375 
C 65.824493 102.248375 68.926045 100.96367 71.212514 98.677201 
C 73.498982 96.390732 74.783687 93.28918 74.783687 90.055625 
C 74.783687 86.82207 73.498982 83.720518 71.212514 81.434049 
C 68.926045 79.14758 65.824493 77.862875 62.590937 77.862875 
C 59.357382 77.862875 56.25583 79.14758 53.969361 81.434049 
C 51.682893 83.720518 50.398187 86.82207 50.398187 90.055625 
C 50.398187 93.28918 51.682893 96.390732 53.969361 98.677201 
C 56.25583 100.96367 59.357382 102.248375 62.590937 102.248375 
z
" clip-path="url(#pf3f7bd196b)" style="fill: #19d2bf; stroke: #000000; stroke-linejoin: miter"/>
   </g>
   <g id="patch_29">
    <path d="M 89.685937 102.248375 
C 92.919493 102.248375 96.021045 100.96367 98.307514 98.677201 
C 100.593982 96.390732 101.878687 93.28918 101.878687 90.055625 
C 101.878687 86.82207 100.593982 83.720518 98.307514 81.434049 
C 96.021045 79.14758 92.919493 77.862875 89.685937 77.862875 
C 86.452382 77.862875 83.35083 79.14758 81.064361 81.434049 
C 78.777893 83.720518 77.493187 86.82207 77.493187 90.055625 
C 77.493187 93.28918 78.777893 96.390732 81.064361 98.677201 
C 83.35083 100.96367 86.452382 102.248375 89.685937 102.248375 
z
" clip-path="url(#pf3f7bd196b)" style="fill: #19d2bf; stroke: #000000; stroke-linejoin: miter"/>
   </g>
   <g id="patch_30">
    <path d="M 116.780937 102.248375 
C 120.014493 102.248375 123.116045 100.96367 125.402514 98.677201 
C 127.688982 96.390732 128.973687 93.28918 128.973687 90.055625 
C 128.973687 86.82207 127.688982 83.720518 125.402514 81.434049 
C 123.116045 79.14758 120.014493 77.862875 116.780937 77.862875 
C 113.547382 77.862875 110.44583 79.14758 108.159361 81.434049 
C 105.872893 83.720518 104.588187 86.82207 104.588187 90.055625 
C 104.588187 93.28918 105.872893 96.390732 108.159361 98.677201 
C 110.44583 100.96367 113.547382 102.248375 116.780937 102.248375 
z
" clip-path="url(#pf3f7bd196b)" style="fill: #ffb133; stroke: #000000; stroke-linejoin: miter"/>
   </g>
   <g id="patch_31">
    <path d="M 143.875937 102.248375 
C 147.109493 102.248375 150.211045 100.96367 152.497514 98.677201 
C 154.783982 96.390732 156.068687 93.28918 156.068687 90.055625 
C 156.068687 86.82207 154.783982 83.720518 152.497514 81.434049 
C 150.211045 79.14758 147.109493 77.862875 143.875937 77.862875 
C 140.642382 77.862875 137.54083 79.14758 135.254361 81.434049 
C 132.967893 83.720518 131.683187 86.82207 131.683187 90.055625 
C 131.683187 93.28918 132.967893 96.390732 135.254361 98.677201 
C 137.54083 100.96367 140.642382 102.248375 143.875937 102.248375 
z
" clip-path="url(#pf3f7bd196b)" style="fill: #ffb133; stroke: #000000; stroke-linejoin: miter"/>
   </g>
   <g id="patch_32">
    <path d="M 170.970937 102.248375 
C 174.204493 102.248375 177.306045 100.96367 179.592514 98.677201 
C 181.878982 96.390732 183.163687 93.28918 183.163687 90.055625 
C 183.163687 86.82207 181.878982 83.720518 179.592514 81.434049 
C 177.306045 79.14758 174.204493 77.862875 170.970937 77.862875 
C 167.737382 77.862875 164.63583 79.14758 162.349361 81.434049 
C 160.062893 83.720518 158.778187 86.82207 158.778187 90.055625 
C 158.778187 93.28918 160.062893 96.390732 162.349361 98.677201 
C 164.63583 100.96367 167.737382 102.248375 170.970937 102.248375 
z
" clip-path="url(#pf3f7bd196b)" style="fill: #ffb133; stroke: #000000; stroke-linejoin: miter"/>
   </g>
   <g id="patch_33">
    <path d="M 198.065937 102.248375 
C 201.299493 102.248375 204.401045 100.96367 206.687514 98.677201 
C 208.973982 96.390732 210.258687 93.28918 210.258687 90.055625 
C 210.258687 86.82207 208.973982 83.720518 206.687514 81.434049 
C 204.401045 79.14758 201.299493 77.862875 198.065937 77.862875 
C 194.832382 77.862875 191.73083 79.14758 189.444361 81.434049 
C 187.157893 83.720518 185.873187 86.82207 185.873187 90.055625 
C 185.873187 93.28918 187.157893 96.390732 189.444361 98.677201 
C 191.73083 100.96367 194.832382 102.248375 198.065937 102.248375 
z
" clip-path="url(#pf3f7bd196b)" style="fill: #fe484e; stroke: #000000; stroke-linejoin: miter"/>
   </g>
   <g id="patch_34">
    <path d="M 225.160937 102.248375 
C 228.394493 102.248375 231.496045 100.96367 233.782514 98.677201 
C 236.068982 96.390732 237.353687 93.28918 237.353687 90.055625 
C 237.353687 86.82207 236.068982 83.720518 233.782514 81.434049 
C 231.496045 79.14758 228.394493 77.862875 225.160937 77.862875 
C 221.927382 77.862875 218.82583 79.14758 216.539361 81.434049 
C 214.252893 83.720518 212.968187 86.82207 212.968187 90.055625 
C 212.968187 93.28918 214.252893 96.390732 216.539361 98.677201 
C 218.82583 100.96367 221.927382 102.248375 225.160937 102.248375 
z
" clip-path="url(#pf3f7bd196b)" style="fill: #fe484e; stroke: #000000; stroke-linejoin: miter"/>
   </g>
   <g id="patch_35">
    <path d="M 252.255937 102.248375 
C 255.489493 102.248375 258.591045 100.96367 260.877514 98.677201 
C 263.163982 96.390732 264.448687 93.28918 264.448687 90.055625 
C 264.448687 86.82207 263.163982 83.720518 260.877514 81.434049 
C 258.591045 79.14758 255.489493 77.862875 252.255937 77.862875 
C 249.022382 77.862875 245.92083 79.14758 243.634361 81.434049 
C 241.347893 83.720518 240.063187 86.82207 240.063187 90.055625 
C 240.063187 93.28918 241.347893 96.390732 243.634361 98.677201 
C 245.92083 100.96367 249.022382 102.248375 252.255937 102.248375 
z
" clip-path="url(#pf3f7bd196b)" style="fill: #fe484e; stroke: #000000; stroke-linejoin: miter"/>
   </g>
   <g id="patch_36">
    <path d="M 279.350937 102.248375 
C 282.584493 102.248375 285.686045 100.96367 287.972514 98.677201 
C 290.258982 96.390732 291.543687 93.28918 291.543687 90.055625 
C 291.543687 86.82207 290.258982 83.720518 287.972514 81.434049 
C 285.686045 79.14758 282.584493 77.862875 279.350937 77.862875 
C 276.117382 77.862875 273.01583 79.14758 270.729361 81.434049 
C 268.442893 83.720518 267.158187 86.82207 267.158187 90.055625 
C 267.158187 93.28918 268.442893 96.390732 270.729361 98.677201 
C 273.01583 100.96367 276.117382 102.248375 279.350937 102.248375 
z
" clip-path="url(#pf3f7bd196b)" style="fill: #19d2bf; stroke: #000000; stroke-linejoin: miter"/>
   </g>
   <g id="patch_37">
    <path d="M 306.445937 102.248375 
C 309.679493 102.248375 312.781045 100.96367 315.067514 98.677201 
C 317.353982 96.390732 318.638687 93.28918 318.638687 90.055625 
C 318.638687 86.82207 317.353982 83.720518 315.067514 81.434049 
C 312.781045 79.14758 309.679493 77.862875 306.445937 77.862875 
C 303.212382 77.862875 300.11083 79.14758 297.824361 81.434049 
C 295.537893 83.720518 294.253187 86.82207 294.253187 90.055625 
C 294.253187 93.28918 295.537893 96.390732 297.824361 98.677201 
C 300.11083 100.96367 303.212382 102.248375 306.445937 102.248375 
z
" clip-path="url(#pf3f7bd196b)" style="fill: #19d2bf; stroke: #000000; stroke-linejoin: miter"/>
   </g>
   <g id="patch_38">
    <path d="M 333.540937 102.248375 
C 336.774493 102.248375 339.876045 100.96367 342.162514 98.677201 
C 344.448982 96.390732 345.733687 93.28918 345.733687 90.055625 
C 345.733687 86.82207 344.448982 83.720518 342.162514 81.434049 
C 339.876045 79.14758 336.774493 77.862875 333.540937 77.862875 
C 330.307382 77.862875 327.20583 79.14758 324.919361 81.434049 
C 322.632893 83.720518 321.348187 86.82207 321.348187 90.055625 
C 321.348187 93.28918 322.632893 96.390732 324.919361 98.677201 
C 327.20583 100.96367 330.307382 102.248375 333.540937 102.248375 
z
" clip-path="url(#pf3f7bd196b)" style="fill: #19d2bf; stroke: #000000; stroke-linejoin: miter"/>
   </g>
   <g id="patch_39">
    <path d="M 35.495937 129.343375 
C 38.729493 129.343375 41.831045 128.05867 44.117514 125.772201 
C 46.403982 123.485732 47.688687 120.38418 47.688687 117.150625 
C 47.688687 113.91707 46.403982 110.815518 44.117514 108.529049 
C 41.831045 106.24258 38.729493 104.957875 35.495937 104.957875 
C 32.262382 104.957875 29.16083 106.24258 26.874361 108.529049 
C 24.587893 110.815518 23.303187 113.91707 23.303187 117.150625 
C 23.303187 120.38418 24.587893 123.485732 26.874361 125.772201 
C 29.16083 128.05867 32.262382 129.343375 35.495937 129.343375 
z
" clip-path="url(#pf3f7bd196b)" style="fill: #19d2bf; stroke: #000000; stroke-linejoin: miter"/>
   </g>
   <g id="patch_40">
    <path d="M 62.590937 129.343375 
C 65.824493 129.343375 68.926045 128.05867 71.212514 125.772201 
C 73.498982 123.485732 74.783687 120.38418 74.783687 117.150625 
C 74.783687 113.91707 73.498982 110.815518 71.212514 108.529049 
C 68.926045 106.24258 65.824493 104.957875 62.590937 104.957875 
C 59.357382 104.957875 56.25583 106.24258 53.969361 108.529049 
C 51.682893 110.815518 50.398187 113.91707 50.398187 117.150625 
C 50.398187 120.38418 51.682893 123.485732 53.969361 125.772201 
C 56.25583 128.05867 59.357382 129.343375 62.590937 129.343375 
z
" clip-path="url(#pf3f7bd196b)" style="fill: #19d2bf; stroke: #000000; stroke-linejoin: miter"/>
   </g>
   <g id="patch_41">
    <path d="M 89.685937 129.343375 
C 92.919493 129.343375 96.021045 128.05867 98.307514 125.772201 
C 100.593982 123.485732 101.878687 120.38418 101.878687 117.150625 
C 101.878687 113.91707 100.593982 110.815518 98.307514 108.529049 
C 96.021045 106.24258 92.919493 104.957875 89.685937 104.957875 
C 86.452382 104.957875 83.35083 106.24258 81.064361 108.529049 
C 78.777893 110.815518 77.493187 113.91707 77.493187 117.150625 
C 77.493187 120.38418 78.777893 123.485732 81.064361 125.772201 
C 83.35083 128.05867 86.452382 129.343375 89.685937 129.343375 
z
" clip-path="url(#pf3f7bd196b)" style="fill: #19d2bf; stroke: #000000; stroke-linejoin: miter"/>
   </g>
   <g id="patch_42">
    <path d="M 116.780937 129.343375 
C 120.014493 129.343375 123.116045 128.05867 125.402514 125.772201 
C 127.688982 123.485732 128.973687 120.38418 128.973687 117.150625 
C 128.973687 113.91707 127.688982 110.815518 125.402514 108.529049 
C 123.116045 106.24258 120.014493 104.957875 116.780937 104.957875 
C 113.547382 104.957875 110.44583 106.24258 108.159361 108.529049 
C 105.872893 110.815518 104.588187 113.91707 104.588187 117.150625 
C 104.588187 120.38418 105.872893 123.485732 108.159361 125.772201 
C 110.44583 128.05867 113.547382 129.343375 116.780937 129.343375 
z
" clip-path="url(#pf3f7bd196b)" style="fill: #ffb133; stroke: #000000; stroke-linejoin: miter"/>
   </g>
   <g id="patch_43">
    <path d="M 143.875937 129.343375 
C 147.109493 129.343375 150.211045 128.05867 152.497514 125.772201 
C 154.783982 123.485732 156.068687 120.38418 156.068687 117.150625 
C 156.068687 113.91707 154.783982 110.815518 152.497514 108.529049 
C 150.211045 106.24258 147.109493 104.957875 143.875937 104.957875 
C 140.642382 104.957875 137.54083 106.24258 135.254361 108.529049 
C 132.967893 110.815518 131.683187 113.91707 131.683187 117.150625 
C 131.683187 120.38418 132.967893 123.485732 135.254361 125.772201 
C 137.54083 128.05867 140.642382 129.343375 143.875937 129.343375 
z
" clip-path="url(#pf3f7bd196b)" style="fill: #ffb133; stroke: #000000; stroke-linejoin: miter"/>
   </g>
   <g id="patch_44">
    <path d="M 170.970937 129.343375 
C 174.204493 129.343375 177.306045 128.05867 179.592514 125.772201 
C 181.878982 123.485732 183.163687 120.38418 183.163687 117.150625 
C 183.163687 113.91707 181.878982 110.815518 179.592514 108.529049 
C 177.306045 106.24258 174.204493 104.957875 170.970937 104.957875 
C 167.737382 104.957875 164.63583 106.24258 162.349361 108.529049 
C 160.062893 110.815518 158.778187 113.91707 158.778187 117.150625 
C 158.778187 120.38418 160.062893 123.485732 162.349361 125.772201 
C 164.63583 128.05867 167.737382 129.343375 170.970937 129.343375 
z
" clip-path="url(#pf3f7bd196b)" style="fill: #ffb133; stroke: #000000; stroke-linejoin: miter"/>
   </g>
   <g id="patch_45">
    <path d="M 198.065937 129.343375 
C 201.299493 129.343375 204.401045 128.05867 206.687514 125.772201 
C 208.973982 123.485732 210.258687 120.38418 210.258687 117.150625 
C 210.258687 113.91707 208.973982 110.815518 206.687514 108.529049 
C 204.401045 106.24258 201.299493 104.957875 198.065937 104.957875 
C 194.832382 104.957875 191.73083 106.24258 189.444361 108.529049 
C 187.157893 110.815518 185.873187 113.91707 185.873187 117.150625 
C 185.873187 120.38418 187.157893 123.485732 189.444361 125.772201 
C 191.73083 128.05867 194.832382 129.343375 198.065937 129.343375 
z
" clip-path="url(#pf3f7bd196b)" style="fill: #fe484e; stroke: #000000; stroke-linejoin: miter"/>
   </g>
   <g id="patch_46">
    <path d="M 225.160937 129.343375 
C 228.394493 129.343375 231.496045 128.05867 233.782514 125.772201 
C 236.068982 123.485732 237.353687 120.38418 237.353687 117.150625 
C 237.353687 113.91707 236.068982 110.815518 233.782514 108.529049 
C 231.496045 106.24258 228.394493 104.957875 225.160937 104.957875 
C 221.927382 104.957875 218.82583 106.24258 216.539361 108.529049 
C 214.252893 110.815518 212.968187 113.91707 212.968187 117.150625 
C 212.968187 120.38418 214.252893 123.485732 216.539361 125.772201 
C 218.82583 128.05867 221.927382 129.343375 225.160937 129.343375 
z
" clip-path="url(#pf3f7bd196b)" style="fill: #fe484e; stroke: #000000; stroke-linejoin: miter"/>
   </g>
   <g id="patch_47">
    <path d="M 252.255937 129.343375 
C 255.489493 129.343375 258.591045 128.05867 260.877514 125.772201 
C 263.163982 123.485732 264.448687 120.38418 264.448687 117.150625 
C 264.448687 113.91707 263.163982 110.815518 260.877514 108.529049 
C 258.591045 106.24258 255.489493 104.957875 252.255937 104.957875 
C 249.022382 104.957875 245.92083 106.24258 243.634361 108.529049 
C 241.347893 110.815518 240.063187 113.91707 240.063187 117.150625 
C 240.063187 120.38418 241.347893 123.485732 243.634361 125.772201 
C 245.92083 128.05867 249.022382 129.343375 252.255937 129.343375 
z
" clip-path="url(#pf3f7bd196b)" style="fill: #fe484e; stroke: #000000; stroke-linejoin: miter"/>
   </g>
   <g id="patch_48">
    <path d="M 279.350937 129.343375 
C 282.584493 129.343375 285.686045 128.05867 287.972514 125.772201 
C 290.258982 123.485732 291.543687 120.38418 291.543687 117.150625 
C 291.543687 113.91707 290.258982 110.815518 287.972514 108.529049 
C 285.686045 106.24258 282.584493 104.957875 279.350937 104.957875 
C 276.117382 104.957875 273.01583 106.24258 270.729361 108.529049 
C 268.442893 110.815518 267.158187 113.91707 267.158187 117.150625 
C 267.158187 120.38418 268.442893 123.485732 270.729361 125.772201 
C 273.01583 128.05867 276.117382 129.343375 279.350937 129.343375 
z
" clip-path="url(#pf3f7bd196b)" style="fill: #19d2bf; stroke: #000000; stroke-linejoin: miter"/>
   </g>
   <g id="patch_49">
    <path d="M 306.445937 129.343375 
C 309.679493 129.343375 312.781045 128.05867 315.067514 125.772201 
C 317.353982 123.485732 318.638687 120.38418 318.638687 117.150625 
C 318.638687 113.91707 317.353982 110.815518 315.067514 108.529049 
C 312.781045 106.24258 309.679493 104.957875 306.445937 104.957875 
C 303.212382 104.957875 300.11083 106.24258 297.824361 108.529049 
C 295.537893 110.815518 294.253187 113.91707 294.253187 117.150625 
C 294.253187 120.38418 295.537893 123.485732 297.824361 125.772201 
C 300.11083 128.05867 303.212382 129.343375 306.445937 129.343375 
z
" clip-path="url(#pf3f7bd196b)" style="fill: #19d2bf; stroke: #000000; stroke-linejoin: miter"/>
   </g>
   <g id="patch_50">
    <path d="M 333.540937 129.343375 
C 336.774493 129.343375 339.876045 128.05867 342.162514 125.772201 
C 344.448982 123.485732 345.733687 120.38418 345.733687 117.150625 
C 345.733687 113.91707 344.448982 110.815518 342.162514 108.529049 
C 339.876045 106.24258 336.774493 104.957875 333.540937 104.957875 
C 330.307382 104.957875 327.20583 106.24258 324.919361 108.529049 
C 322.632893 110.815518 321.348187 113.91707 321.348187 117.150625 
C 321.348187 120.38418 322.632893 123.485732 324.919361 125.772201 
C 327.20583 128.05867 330.307382 129.343375 333.540937 129.343375 
z
" clip-path="url(#pf3f7bd196b)" style="fill: #19d2bf; stroke: #000000; stroke-linejoin: miter"/>
   </g>
   <g id="patch_51">
    <path d="M 35.495937 156.438375 
C 38.729493 156.438375 41.831045 155.15367 44.117514 152.867201 
C 46.403982 150.580732 47.688687 147.47918 47.688687 144.245625 
C 47.688687 141.01207 46.403982 137.910518 44.117514 135.624049 
C 41.831045 133.33758 38.729493 132.052875 35.495937 132.052875 
C 32.262382 132.052875 29.16083 133.33758 26.874361 135.624049 
C 24.587893 137.910518 23.303187 141.01207 23.303187 144.245625 
C 23.303187 147.47918 24.587893 150.580732 26.874361 152.867201 
C 29.16083 155.15367 32.262382 156.438375 35.495937 156.438375 
z
" clip-path="url(#pf3f7bd196b)" style="fill: #19d2bf; stroke: #000000; stroke-linejoin: miter"/>
   </g>
   <g id="patch_52">
    <path d="M 62.590937 156.438375 
C 65.824493 156.438375 68.926045 155.15367 71.212514 152.867201 
C 73.498982 150.580732 74.783687 147.47918 74.783687 144.245625 
C 74.783687 141.01207 73.498982 137.910518 71.212514 135.624049 
C 68.926045 133.33758 65.824493 132.052875 62.590937 132.052875 
C 59.357382 132.052875 56.25583 133.33758 53.969361 135.624049 
C 51.682893 137.910518 50.398187 141.01207 50.398187 144.245625 
C 50.398187 147.47918 51.682893 150.580732 53.969361 152.867201 
C 56.25583 155.15367 59.357382 156.438375 62.590937 156.438375 
z
" clip-path="url(#pf3f7bd196b)" style="fill: #19d2bf; stroke: #000000; stroke-linejoin: miter"/>
   </g>
   <g id="patch_53">
    <path d="M 89.685937 156.438375 
C 92.919493 156.438375 96.021045 155.15367 98.307514 152.867201 
C 100.593982 150.580732 101.878687 147.47918 101.878687 144.245625 
C 101.878687 141.01207 100.593982 137.910518 98.307514 135.624049 
C 96.021045 133.33758 92.919493 132.052875 89.685937 132.052875 
C 86.452382 132.052875 83.35083 133.33758 81.064361 135.624049 
C 78.777893 137.910518 77.493187 141.01207 77.493187 144.245625 
C 77.493187 147.47918 78.777893 150.580732 81.064361 152.867201 
C 83.35083 155.15367 86.452382 156.438375 89.685937 156.438375 
z
" clip-path="url(#pf3f7bd196b)" style="fill: #19d2bf; stroke: #000000; stroke-linejoin: miter"/>
   </g>
   <g id="patch_54">
    <path d="M 116.780937 156.438375 
C 120.014493 156.438375 123.116045 155.15367 125.402514 152.867201 
C 127.688982 150.580732 128.973687 147.47918 128.973687 144.245625 
C 128.973687 141.01207 127.688982 137.910518 125.402514 135.624049 
C 123.116045 133.33758 120.014493 132.052875 116.780937 132.052875 
C 113.547382 132.052875 110.44583 133.33758 108.159361 135.624049 
C 105.872893 137.910518 104.588187 141.01207 104.588187 144.245625 
C 104.588187 147.47918 105.872893 150.580732 108.159361 152.867201 
C 110.44583 155.15367 113.547382 156.438375 116.780937 156.438375 
z
" clip-path="url(#pf3f7bd196b)" style="fill: #ffb133; stroke: #000000; stroke-linejoin: miter"/>
   </g>
   <g id="patch_55">
    <path d="M 143.875937 156.438375 
C 147.109493 156.438375 150.211045 155.15367 152.497514 152.867201 
C 154.783982 150.580732 156.068687 147.47918 156.068687 144.245625 
C 156.068687 141.01207 154.783982 137.910518 152.497514 135.624049 
C 150.211045 133.33758 147.109493 132.052875 143.875937 132.052875 
C 140.642382 132.052875 137.54083 133.33758 135.254361 135.624049 
C 132.967893 137.910518 131.683187 141.01207 131.683187 144.245625 
C 131.683187 147.47918 132.967893 150.580732 135.254361 152.867201 
C 137.54083 155.15367 140.642382 156.438375 143.875937 156.438375 
z
" clip-path="url(#pf3f7bd196b)" style="fill: #ffb133; stroke: #000000; stroke-linejoin: miter"/>
   </g>
   <g id="patch_56">
    <path d="M 170.970937 156.438375 
C 174.204493 156.438375 177.306045 155.15367 179.592514 152.867201 
C 181.878982 150.580732 183.163687 147.47918 183.163687 144.245625 
C 183.163687 141.01207 181.878982 137.910518 179.592514 135.624049 
C 177.306045 133.33758 174.204493 132.052875 170.970937 132.052875 
C 167.737382 132.052875 164.63583 133.33758 162.349361 135.624049 
C 160.062893 137.910518 158.778187 141.01207 158.778187 144.245625 
C 158.778187 147.47918 160.062893 150.580732 162.349361 152.867201 
C 164.63583 155.15367 167.737382 156.438375 170.970937 156.438375 
z
" clip-path="url(#pf3f7bd196b)" style="fill: #ffb133; stroke: #000000; stroke-linejoin: miter"/>
   </g>
   <g id="patch_57">
    <path d="M 198.065937 156.438375 
C 201.299493 156.438375 204.401045 155.15367 206.687514 152.867201 
C 208.973982 150.580732 210.258687 147.47918 210.258687 144.245625 
C 210.258687 141.01207 208.973982 137.910518 206.687514 135.624049 
C 204.401045 133.33758 201.299493 132.052875 198.065937 132.052875 
C 194.832382 132.052875 191.73083 133.33758 189.444361 135.624049 
C 187.157893 137.910518 185.873187 141.01207 185.873187 144.245625 
C 185.873187 147.47918 187.157893 150.580732 189.444361 152.867201 
C 191.73083 155.15367 194.832382 156.438375 198.065937 156.438375 
z
" clip-path="url(#pf3f7bd196b)" style="fill: #fe484e; stroke: #000000; stroke-linejoin: miter"/>
   </g>
   <g id="patch_58">
    <path d="M 225.160937 156.438375 
C 228.394493 156.438375 231.496045 155.15367 233.782514 152.867201 
C 236.068982 150.580732 237.353687 147.47918 237.353687 144.245625 
C 237.353687 141.01207 236.068982 137.910518 233.782514 135.624049 
C 231.496045 133.33758 228.394493 132.052875 225.160937 132.052875 
C 221.927382 132.052875 218.82583 133.33758 216.539361 135.624049 
C 214.252893 137.910518 212.968187 141.01207 212.968187 144.245625 
C 212.968187 147.47918 214.252893 150.580732 216.539361 152.867201 
C 218.82583 155.15367 221.927382 156.438375 225.160937 156.438375 
z
" clip-path="url(#pf3f7bd196b)" style="fill: #fe484e; stroke: #000000; stroke-linejoin: miter"/>
   </g>
   <g id="patch_59">
    <path d="M 252.255937 156.438375 
C 255.489493 156.438375 258.591045 155.15367 260.877514 152.867201 
C 263.163982 150.580732 264.448687 147.47918 264.448687 144.245625 
C 264.448687 141.01207 263.163982 137.910518 260.877514 135.624049 
C 258.591045 133.33758 255.489493 132.052875 252.255937 132.052875 
C 249.022382 132.052875 245.92083 133.33758 243.634361 135.624049 
C 241.347893 137.910518 240.063187 141.01207 240.063187 144.245625 
C 240.063187 147.47918 241.347893 150.580732 243.634361 152.867201 
C 245.92083 155.15367 249.022382 156.438375 252.255937 156.438375 
z
" clip-path="url(#pf3f7bd196b)" style="fill: #fe484e; stroke: #000000; stroke-linejoin: miter"/>
   </g>
   <g id="patch_60">
    <path d="M 279.350937 156.438375 
C 282.584493 156.438375 285.686045 155.15367 287.972514 152.867201 
C 290.258982 150.580732 291.543687 147.47918 291.543687 144.245625 
C 291.543687 141.01207 290.258982 137.910518 287.972514 135.624049 
C 285.686045 133.33758 282.584493 132.052875 279.350937 132.052875 
C 276.117382 132.052875 273.01583 133.33758 270.729361 135.624049 
C 268.442893 137.910518 267.158187 141.01207 267.158187 144.245625 
C 267.158187 147.47918 268.442893 150.580732 270.729361 152.867201 
C 273.01583 155.15367 276.117382 156.438375 279.350937 156.438375 
z
" clip-path="url(#pf3f7bd196b)" style="fill: #19d2bf; stroke: #000000; stroke-linejoin: miter"/>
   </g>
   <g id="patch_61">
    <path d="M 306.445937 156.438375 
C 309.679493 156.438375 312.781045 155.15367 315.067514 152.867201 
C 317.353982 150.580732 318.638687 147.47918 318.638687 144.245625 
C 318.638687 141.01207 317.353982 137.910518 315.067514 135.624049 
C 312.781045 133.33758 309.679493 132.052875 306.445937 132.052875 
C 303.212382 132.052875 300.11083 133.33758 297.824361 135.624049 
C 295.537893 137.910518 294.253187 141.01207 294.253187 144.245625 
C 294.253187 147.47918 295.537893 150.580732 297.824361 152.867201 
C 300.11083 155.15367 303.212382 156.438375 306.445937 156.438375 
z
" clip-path="url(#pf3f7bd196b)" style="fill: #19d2bf; stroke: #000000; stroke-linejoin: miter"/>
   </g>
   <g id="patch_62">
    <path d="M 333.540937 156.438375 
C 336.774493 156.438375 339.876045 155.15367 342.162514 152.867201 
C 344.448982 150.580732 345.733687 147.47918 345.733687 144.245625 
C 345.733687 141.01207 344.448982 137.910518 342.162514 135.624049 
C 339.876045 133.33758 336.774493 132.052875 333.540937 132.052875 
C 330.307382 132.052875 327.20583 133.33758 324.919361 135.624049 
C 322.632893 137.910518 321.348187 141.01207 321.348187 144.245625 
C 321.348187 147.47918 322.632893 150.580732 324.919361 152.867201 
C 327.20583 155.15367 330.307382 156.438375 333.540937 156.438375 
z
" clip-path="url(#pf3f7bd196b)" style="fill: #19d2bf; stroke: #000000; stroke-linejoin: miter"/>
   </g>
   <g id="patch_63">
    <path d="M 35.495937 183.533375 
C 38.729493 183.533375 41.831045 182.24867 44.117514 179.962201 
C 46.403982 177.675732 47.688687 174.57418 47.688687 171.340625 
C 47.688687 168.10707 46.403982 165.005518 44.117514 162.719049 
C 41.831045 160.43258 38.729493 159.147875 35.495937 159.147875 
C 32.262382 159.147875 29.16083 160.43258 26.874361 162.719049 
C 24.587893 165.005518 23.303187 168.10707 23.303187 171.340625 
C 23.303187 174.57418 24.587893 177.675732 26.874361 179.962201 
C 29.16083 182.24867 32.262382 183.533375 35.495937 183.533375 
z
" clip-path="url(#pf3f7bd196b)" style="fill: #19d2bf; stroke: #000000; stroke-linejoin: miter"/>
   </g>
   <g id="patch_64">
    <path d="M 62.590937 183.533375 
C 65.824493 183.533375 68.926045 182.24867 71.212514 179.962201 
C 73.498982 177.675732 74.783687 174.57418 74.783687 171.340625 
C 74.783687 168.10707 73.498982 165.005518 71.212514 162.719049 
C 68.926045 160.43258 65.824493 159.147875 62.590937 159.147875 
C 59.357382 159.147875 56.25583 160.43258 53.969361 162.719049 
C 51.682893 165.005518 50.398187 168.10707 50.398187 171.340625 
C 50.398187 174.57418 51.682893 177.675732 53.969361 179.962201 
C 56.25583 182.24867 59.357382 183.533375 62.590937 183.533375 
z
" clip-path="url(#pf3f7bd196b)" style="fill: #19d2bf; stroke: #000000; stroke-linejoin: miter"/>
   </g>
   <g id="patch_65">
    <path d="M 89.685937 183.533375 
C 92.919493 183.533375 96.021045 182.24867 98.307514 179.962201 
C 100.593982 177.675732 101.878687 174.57418 101.878687 171.340625 
C 101.878687 168.10707 100.593982 165.005518 98.307514 162.719049 
C 96.021045 160.43258 92.919493 159.147875 89.685937 159.147875 
C 86.452382 159.147875 83.35083 160.43258 81.064361 162.719049 
C 78.777893 165.005518 77.493187 168.10707 77.493187 171.340625 
C 77.493187 174.57418 78.777893 177.675732 81.064361 179.962201 
C 83.35083 182.24867 86.452382 183.533375 89.685937 183.533375 
z
" clip-path="url(#pf3f7bd196b)" style="fill: #19d2bf; stroke: #000000; stroke-linejoin: miter"/>
   </g>
   <g id="patch_66">
    <path d="M 116.780937 183.533375 
C 120.014493 183.533375 123.116045 182.24867 125.402514 179.962201 
C 127.688982 177.675732 128.973687 174.57418 128.973687 171.340625 
C 128.973687 168.10707 127.688982 165.005518 125.402514 162.719049 
C 123.116045 160.43258 120.014493 159.147875 116.780937 159.147875 
C 113.547382 159.147875 110.44583 160.43258 108.159361 162.719049 
C 105.872893 165.005518 104.588187 168.10707 104.588187 171.340625 
C 104.588187 174.57418 105.872893 177.675732 108.159361 179.962201 
C 110.44583 182.24867 113.547382 183.533375 116.780937 183.533375 
z
" clip-path="url(#pf3f7bd196b)" style="fill: #ffb133; stroke: #000000; stroke-linejoin: miter"/>
   </g>
   <g id="patch_67">
    <path d="M 143.875937 183.533375 
C 147.109493 183.533375 150.211045 182.24867 152.497514 179.962201 
C 154.783982 177.675732 156.068687 174.57418 156.068687 171.340625 
C 156.068687 168.10707 154.783982 165.005518 152.497514 162.719049 
C 150.211045 160.43258 147.109493 159.147875 143.875937 159.147875 
C 140.642382 159.147875 137.54083 160.43258 135.254361 162.719049 
C 132.967893 165.005518 131.683187 168.10707 131.683187 171.340625 
C 131.683187 174.57418 132.967893 177.675732 135.254361 179.962201 
C 137.54083 182.24867 140.642382 183.533375 143.875937 183.533375 
z
" clip-path="url(#pf3f7bd196b)" style="fill: #ffb133; stroke: #000000; stroke-linejoin: miter"/>
   </g>
   <g id="patch_68">
    <path d="M 170.970937 183.533375 
C 174.204493 183.533375 177.306045 182.24867 179.592514 179.962201 
C 181.878982 177.675732 183.163687 174.57418 183.163687 171.340625 
C 183.163687 168.10707 181.878982 165.005518 179.592514 162.719049 
C 177.306045 160.43258 174.204493 159.147875 170.970937 159.147875 
C 167.737382 159.147875 164.63583 160.43258 162.349361 162.719049 
C 160.062893 165.005518 158.778187 168.10707 158.778187 171.340625 
C 158.778187 174.57418 160.062893 177.675732 162.349361 179.962201 
C 164.63583 182.24867 167.737382 183.533375 170.970937 183.533375 
z
" clip-path="url(#pf3f7bd196b)" style="fill: #ffb133; stroke: #000000; stroke-linejoin: miter"/>
   </g>
   <g id="patch_69">
    <path d="M 198.065937 183.533375 
C 201.299493 183.533375 204.401045 182.24867 206.687514 179.962201 
C 208.973982 177.675732 210.258687 174.57418 210.258687 171.340625 
C 210.258687 168.10707 208.973982 165.005518 206.687514 162.719049 
C 204.401045 160.43258 201.299493 159.147875 198.065937 159.147875 
C 194.832382 159.147875 191.73083 160.43258 189.444361 162.719049 
C 187.157893 165.005518 185.873187 168.10707 185.873187 171.340625 
C 185.873187 174.57418 187.157893 177.675732 189.444361 179.962201 
C 191.73083 182.24867 194.832382 183.533375 198.065937 183.533375 
z
" clip-path="url(#pf3f7bd196b)" style="fill: #fe484e; stroke: #000000; stroke-linejoin: miter"/>
   </g>
   <g id="patch_70">
    <path d="M 225.160937 183.533375 
C 228.394493 183.533375 231.496045 182.24867 233.782514 179.962201 
C 236.068982 177.675732 237.353687 174.57418 237.353687 171.340625 
C 237.353687 168.10707 236.068982 165.005518 233.782514 162.719049 
C 231.496045 160.43258 228.394493 159.147875 225.160937 159.147875 
C 221.927382 159.147875 218.82583 160.43258 216.539361 162.719049 
C 214.252893 165.005518 212.968187 168.10707 212.968187 171.340625 
C 212.968187 174.57418 214.252893 177.675732 216.539361 179.962201 
C 218.82583 182.24867 221.927382 183.533375 225.160937 183.533375 
z
" clip-path="url(#pf3f7bd196b)" style="fill: #fe484e; stroke: #000000; stroke-linejoin: miter"/>
   </g>
   <g id="patch_71">
    <path d="M 252.255937 183.533375 
C 255.489493 183.533375 258.591045 182.24867 260.877514 179.962201 
C 263.163982 177.675732 264.448687 174.57418 264.448687 171.340625 
C 264.448687 168.10707 263.163982 165.005518 260.877514 162.719049 
C 258.591045 160.43258 255.489493 159.147875 252.255937 159.147875 
C 249.022382 159.147875 245.92083 160.43258 243.634361 162.719049 
C 241.347893 165.005518 240.063187 168.10707 240.063187 171.340625 
C 240.063187 174.57418 241.347893 177.675732 243.634361 179.962201 
C 245.92083 182.24867 249.022382 183.533375 252.255937 183.533375 
z
" clip-path="url(#pf3f7bd196b)" style="fill: #fe484e; stroke: #000000; stroke-linejoin: miter"/>
   </g>
   <g id="patch_72">
    <path d="M 279.350937 183.533375 
C 282.584493 183.533375 285.686045 182.24867 287.972514 179.962201 
C 290.258982 177.675732 291.543687 174.57418 291.543687 171.340625 
C 291.543687 168.10707 290.258982 165.005518 287.972514 162.719049 
C 285.686045 160.43258 282.584493 159.147875 279.350937 159.147875 
C 276.117382 159.147875 273.01583 160.43258 270.729361 162.719049 
C 268.442893 165.005518 267.158187 168.10707 267.158187 171.340625 
C 267.158187 174.57418 268.442893 177.675732 270.729361 179.962201 
C 273.01583 182.24867 276.117382 183.533375 279.350937 183.533375 
z
" clip-path="url(#pf3f7bd196b)" style="fill: #19d2bf; stroke: #000000; stroke-linejoin: miter"/>
   </g>
   <g id="patch_73">
    <path d="M 306.445937 183.533375 
C 309.679493 183.533375 312.781045 182.24867 315.067514 179.962201 
C 317.353982 177.675732 318.638687 174.57418 318.638687 171.340625 
C 318.638687 168.10707 317.353982 165.005518 315.067514 162.719049 
C 312.781045 160.43258 309.679493 159.147875 306.445937 159.147875 
C 303.212382 159.147875 300.11083 160.43258 297.824361 162.719049 
C 295.537893 165.005518 294.253187 168.10707 294.253187 171.340625 
C 294.253187 174.57418 295.537893 177.675732 297.824361 179.962201 
C 300.11083 182.24867 303.212382 183.533375 306.445937 183.533375 
z
" clip-path="url(#pf3f7bd196b)" style="fill: #19d2bf; stroke: #000000; stroke-linejoin: miter"/>
   </g>
   <g id="patch_74">
    <path d="M 333.540937 183.533375 
C 336.774493 183.533375 339.876045 182.24867 342.162514 179.962201 
C 344.448982 177.675732 345.733687 174.57418 345.733687 171.340625 
C 345.733687 168.10707 344.448982 165.005518 342.162514 162.719049 
C 339.876045 160.43258 336.774493 159.147875 333.540937 159.147875 
C 330.307382 159.147875 327.20583 160.43258 324.919361 162.719049 
C 322.632893 165.005518 321.348187 168.10707 321.348187 171.340625 
C 321.348187 174.57418 322.632893 177.675732 324.919361 179.962201 
C 327.20583 182.24867 330.307382 183.533375 333.540937 183.533375 
z
" clip-path="url(#pf3f7bd196b)" style="fill: #19d2bf; stroke: #000000; stroke-linejoin: miter"/>
   </g>
   <g id="patch_75">
    <path d="M 35.495937 210.628375 
C 38.729493 210.628375 41.831045 209.34367 44.117514 207.057201 
C 46.403982 204.770732 47.688687 201.66918 47.688687 198.435625 
C 47.688687 195.20207 46.403982 192.100518 44.117514 189.814049 
C 41.831045 187.52758 38.729493 186.242875 35.495937 186.242875 
C 32.262382 186.242875 29.16083 187.52758 26.874361 189.814049 
C 24.587893 192.100518 23.303187 195.20207 23.303187 198.435625 
C 23.303187 201.66918 24.587893 204.770732 26.874361 207.057201 
C 29.16083 209.34367 32.262382 210.628375 35.495937 210.628375 
z
" clip-path="url(#pf3f7bd196b)" style="fill: #19d2bf; stroke: #000000; stroke-linejoin: miter"/>
   </g>
   <g id="patch_76">
    <path d="M 62.590937 210.628375 
C 65.824493 210.628375 68.926045 209.34367 71.212514 207.057201 
C 73.498982 204.770732 74.783687 201.66918 74.783687 198.435625 
C 74.783687 195.20207 73.498982 192.100518 71.212514 189.814049 
C 68.926045 187.52758 65.824493 186.242875 62.590937 186.242875 
C 59.357382 186.242875 56.25583 187.52758 53.969361 189.814049 
C 51.682893 192.100518 50.398187 195.20207 50.398187 198.435625 
C 50.398187 201.66918 51.682893 204.770732 53.969361 207.057201 
C 56.25583 209.34367 59.357382 210.628375 62.590937 210.628375 
z
" clip-path="url(#pf3f7bd196b)" style="fill: #19d2bf; stroke: #000000; stroke-linejoin: miter"/>
   </g>
   <g id="patch_77">
    <path d="M 89.685937 210.628375 
C 92.919493 210.628375 96.021045 209.34367 98.307514 207.057201 
C 100.593982 204.770732 101.878687 201.66918 101.878687 198.435625 
C 101.878687 195.20207 100.593982 192.100518 98.307514 189.814049 
C 96.021045 187.52758 92.919493 186.242875 89.685937 186.242875 
C 86.452382 186.242875 83.35083 187.52758 81.064361 189.814049 
C 78.777893 192.100518 77.493187 195.20207 77.493187 198.435625 
C 77.493187 201.66918 78.777893 204.770732 81.064361 207.057201 
C 83.35083 209.34367 86.452382 210.628375 89.685937 210.628375 
z
" clip-path="url(#pf3f7bd196b)" style="fill: #19d2bf; stroke: #000000; stroke-linejoin: miter"/>
   </g>
   <g id="patch_78">
    <path d="M 116.780937 210.628375 
C 120.014493 210.628375 123.116045 209.34367 125.402514 207.057201 
C 127.688982 204.770732 128.973687 201.66918 128.973687 198.435625 
C 128.973687 195.20207 127.688982 192.100518 125.402514 189.814049 
C 123.116045 187.52758 120.014493 186.242875 116.780937 186.242875 
C 113.547382 186.242875 110.44583 187.52758 108.159361 189.814049 
C 105.872893 192.100518 104.588187 195.20207 104.588187 198.435625 
C 104.588187 201.66918 105.872893 204.770732 108.159361 207.057201 
C 110.44583 209.34367 113.547382 210.628375 116.780937 210.628375 
z
" clip-path="url(#pf3f7bd196b)" style="fill: #ffb133; stroke: #000000; stroke-linejoin: miter"/>
   </g>
   <g id="patch_79">
    <path d="M 143.875937 210.628375 
C 147.109493 210.628375 150.211045 209.34367 152.497514 207.057201 
C 154.783982 204.770732 156.068687 201.66918 156.068687 198.435625 
C 156.068687 195.20207 154.783982 192.100518 152.497514 189.814049 
C 150.211045 187.52758 147.109493 186.242875 143.875937 186.242875 
C 140.642382 186.242875 137.54083 187.52758 135.254361 189.814049 
C 132.967893 192.100518 131.683187 195.20207 131.683187 198.435625 
C 131.683187 201.66918 132.967893 204.770732 135.254361 207.057201 
C 137.54083 209.34367 140.642382 210.628375 143.875937 210.628375 
z
" clip-path="url(#pf3f7bd196b)" style="fill: #ffb133; stroke: #000000; stroke-linejoin: miter"/>
   </g>
   <g id="patch_80">
    <path d="M 170.970937 210.628375 
C 174.204493 210.628375 177.306045 209.34367 179.592514 207.057201 
C 181.878982 204.770732 183.163687 201.66918 183.163687 198.435625 
C 183.163687 195.20207 181.878982 192.100518 179.592514 189.814049 
C 177.306045 187.52758 174.204493 186.242875 170.970937 186.242875 
C 167.737382 186.242875 164.63583 187.52758 162.349361 189.814049 
C 160.062893 192.100518 158.778187 195.20207 158.778187 198.435625 
C 158.778187 201.66918 160.062893 204.770732 162.349361 207.057201 
C 164.63583 209.34367 167.737382 210.628375 170.970937 210.628375 
z
" clip-path="url(#pf3f7bd196b)" style="fill: #ffb133; stroke: #000000; stroke-linejoin: miter"/>
   </g>
   <g id="patch_81">
    <path d="M 198.065937 210.628375 
C 201.299493 210.628375 204.401045 209.34367 206.687514 207.057201 
C 208.973982 204.770732 210.258687 201.66918 210.258687 198.435625 
C 210.258687 195.20207 208.973982 192.100518 206.687514 189.814049 
C 204.401045 187.52758 201.299493 186.242875 198.065937 186.242875 
C 194.832382 186.242875 191.73083 187.52758 189.444361 189.814049 
C 187.157893 192.100518 185.873187 195.20207 185.873187 198.435625 
C 185.873187 201.66918 187.157893 204.770732 189.444361 207.057201 
C 191.73083 209.34367 194.832382 210.628375 198.065937 210.628375 
z
" clip-path="url(#pf3f7bd196b)" style="fill: #fe484e; stroke: #000000; stroke-linejoin: miter"/>
   </g>
   <g id="patch_82">
    <path d="M 225.160937 210.628375 
C 228.394493 210.628375 231.496045 209.34367 233.782514 207.057201 
C 236.068982 204.770732 237.353687 201.66918 237.353687 198.435625 
C 237.353687 195.20207 236.068982 192.100518 233.782514 189.814049 
C 231.496045 187.52758 228.394493 186.242875 225.160937 186.242875 
C 221.927382 186.242875 218.82583 187.52758 216.539361 189.814049 
C 214.252893 192.100518 212.968187 195.20207 212.968187 198.435625 
C 212.968187 201.66918 214.252893 204.770732 216.539361 207.057201 
C 218.82583 209.34367 221.927382 210.628375 225.160937 210.628375 
z
" clip-path="url(#pf3f7bd196b)" style="fill: #fe484e; stroke: #000000; stroke-linejoin: miter"/>
   </g>
   <g id="patch_83">
    <path d="M 252.255937 210.628375 
C 255.489493 210.628375 258.591045 209.34367 260.877514 207.057201 
C 263.163982 204.770732 264.448687 201.66918 264.448687 198.435625 
C 264.448687 195.20207 263.163982 192.100518 260.877514 189.814049 
C 258.591045 187.52758 255.489493 186.242875 252.255937 186.242875 
C 249.022382 186.242875 245.92083 187.52758 243.634361 189.814049 
C 241.347893 192.100518 240.063187 195.20207 240.063187 198.435625 
C 240.063187 201.66918 241.347893 204.770732 243.634361 207.057201 
C 245.92083 209.34367 249.022382 210.628375 252.255937 210.628375 
z
" clip-path="url(#pf3f7bd196b)" style="fill: #fe484e; stroke: #000000; stroke-linejoin: miter"/>
   </g>
   <g id="patch_84">
    <path d="M 279.350937 210.628375 
C 282.584493 210.628375 285.686045 209.34367 287.972514 207.057201 
C 290.258982 204.770732 291.543687 201.66918 291.543687 198.435625 
C 291.543687 195.20207 290.258982 192.100518 287.972514 189.814049 
C 285.686045 187.52758 282.584493 186.242875 279.350937 186.242875 
C 276.117382 186.242875 273.01583 187.52758 270.729361 189.814049 
C 268.442893 192.100518 267.158187 195.20207 267.158187 198.435625 
C 267.158187 201.66918 268.442893 204.770732 270.729361 207.057201 
C 273.01583 209.34367 276.117382 210.628375 279.350937 210.628375 
z
" clip-path="url(#pf3f7bd196b)" style="fill: #19d2bf; stroke: #000000; stroke-linejoin: miter"/>
   </g>
   <g id="patch_85">
    <path d="M 306.445937 210.628375 
C 309.679493 210.628375 312.781045 209.34367 315.067514 207.057201 
C 317.353982 204.770732 318.638687 201.66918 318.638687 198.435625 
C 318.638687 195.20207 317.353982 192.100518 315.067514 189.814049 
C 312.781045 187.52758 309.679493 186.242875 306.445937 186.242875 
C 303.212382 186.242875 300.11083 187.52758 297.824361 189.814049 
C 295.537893 192.100518 294.253187 195.20207 294.253187 198.435625 
C 294.253187 201.66918 295.537893 204.770732 297.824361 207.057201 
C 300.11083 209.34367 303.212382 210.628375 306.445937 210.628375 
z
" clip-path="url(#pf3f7bd196b)" style="fill: #19d2bf; stroke: #000000; stroke-linejoin: miter"/>
   </g>
   <g id="patch_86">
    <path d="M 333.540937 210.628375 
C 336.774493 210.628375 339.876045 209.34367 342.162514 207.057201 
C 344.448982 204.770732 345.733687 201.66918 345.733687 198.435625 
C 345.733687 195.20207 344.448982 192.100518 342.162514 189.814049 
C 339.876045 187.52758 336.774493 186.242875 333.540937 186.242875 
C 330.307382 186.242875 327.20583 187.52758 324.919361 189.814049 
C 322.632893 192.100518 321.348187 195.20207 321.348187 198.435625 
C 321.348187 201.66918 322.632893 204.770732 324.919361 207.057201 
C 327.20583 209.34367 330.307382 210.628375 333.540937 210.628375 
z
" clip-path="url(#pf3f7bd196b)" style="fill: #19d2bf; stroke: #000000; stroke-linejoin: miter"/>
   </g>
   <g id="patch_87">
    <path d="M 35.495937 237.723375 
C 38.729493 237.723375 41.831045 236.43867 44.117514 234.152201 
C 46.403982 231.865732 47.688687 228.76418 47.688687 225.530625 
C 47.688687 222.29707 46.403982 219.195518 44.117514 216.909049 
C 41.831045 214.62258 38.729493 213.337875 35.495937 213.337875 
C 32.262382 213.337875 29.16083 214.62258 26.874361 216.909049 
C 24.587893 219.195518 23.303187 222.29707 23.303187 225.530625 
C 23.303187 228.76418 24.587893 231.865732 26.874361 234.152201 
C 29.16083 236.43867 32.262382 237.723375 35.495937 237.723375 
z
" clip-path="url(#pf3f7bd196b)" style="fill: #19d2bf; stroke: #000000; stroke-linejoin: miter"/>
   </g>
   <g id="patch_88">
    <path d="M 62.590937 237.723375 
C 65.824493 237.723375 68.926045 236.43867 71.212514 234.152201 
C 73.498982 231.865732 74.783687 228.76418 74.783687 225.530625 
C 74.783687 222.29707 73.498982 219.195518 71.212514 216.909049 
C 68.926045 214.62258 65.824493 213.337875 62.590937 213.337875 
C 59.357382 213.337875 56.25583 214.62258 53.969361 216.909049 
C 51.682893 219.195518 50.398187 222.29707 50.398187 225.530625 
C 50.398187 228.76418 51.682893 231.865732 53.969361 234.152201 
C 56.25583 236.43867 59.357382 237.723375 62.590937 237.723375 
z
" clip-path="url(#pf3f7bd196b)" style="fill: #19d2bf; stroke: #000000; stroke-linejoin: miter"/>
   </g>
   <g id="patch_89">
    <path d="M 89.685937 237.723375 
C 92.919493 237.723375 96.021045 236.43867 98.307514 234.152201 
C 100.593982 231.865732 101.878687 228.76418 101.878687 225.530625 
C 101.878687 222.29707 100.593982 219.195518 98.307514 216.909049 
C 96.021045 214.62258 92.919493 213.337875 89.685937 213.337875 
C 86.452382 213.337875 83.35083 214.62258 81.064361 216.909049 
C 78.777893 219.195518 77.493187 222.29707 77.493187 225.530625 
C 77.493187 228.76418 78.777893 231.865732 81.064361 234.152201 
C 83.35083 236.43867 86.452382 237.723375 89.685937 237.723375 
z
" clip-path="url(#pf3f7bd196b)" style="fill: #19d2bf; stroke: #000000; stroke-linejoin: miter"/>
   </g>
   <g id="patch_90">
    <path d="M 116.780937 237.723375 
C 120.014493 237.723375 123.116045 236.43867 125.402514 234.152201 
C 127.688982 231.865732 128.973687 228.76418 128.973687 225.530625 
C 128.973687 222.29707 127.688982 219.195518 125.402514 216.909049 
C 123.116045 214.62258 120.014493 213.337875 116.780937 213.337875 
C 113.547382 213.337875 110.44583 214.62258 108.159361 216.909049 
C 105.872893 219.195518 104.588187 222.29707 104.588187 225.530625 
C 104.588187 228.76418 105.872893 231.865732 108.159361 234.152201 
C 110.44583 236.43867 113.547382 237.723375 116.780937 237.723375 
z
" clip-path="url(#pf3f7bd196b)" style="fill: #ffb133; stroke: #000000; stroke-linejoin: miter"/>
   </g>
   <g id="patch_91">
    <path d="M 143.875937 237.723375 
C 147.109493 237.723375 150.211045 236.43867 152.497514 234.152201 
C 154.783982 231.865732 156.068687 228.76418 156.068687 225.530625 
C 156.068687 222.29707 154.783982 219.195518 152.497514 216.909049 
C 150.211045 214.62258 147.109493 213.337875 143.875937 213.337875 
C 140.642382 213.337875 137.54083 214.62258 135.254361 216.909049 
C 132.967893 219.195518 131.683187 222.29707 131.683187 225.530625 
C 131.683187 228.76418 132.967893 231.865732 135.254361 234.152201 
C 137.54083 236.43867 140.642382 237.723375 143.875937 237.723375 
z
" clip-path="url(#pf3f7bd196b)" style="fill: #ffb133; stroke: #000000; stroke-linejoin: miter"/>
   </g>
   <g id="patch_92">
    <path d="M 170.970937 237.723375 
C 174.204493 237.723375 177.306045 236.43867 179.592514 234.152201 
C 181.878982 231.865732 183.163687 228.76418 183.163687 225.530625 
C 183.163687 222.29707 181.878982 219.195518 179.592514 216.909049 
C 177.306045 214.62258 174.204493 213.337875 170.970937 213.337875 
C 167.737382 213.337875 164.63583 214.62258 162.349361 216.909049 
C 160.062893 219.195518 158.778187 222.29707 158.778187 225.530625 
C 158.778187 228.76418 160.062893 231.865732 162.349361 234.152201 
C 164.63583 236.43867 167.737382 237.723375 170.970937 237.723375 
z
" clip-path="url(#pf3f7bd196b)" style="fill: #ffb133; stroke: #000000; stroke-linejoin: miter"/>
   </g>
   <g id="patch_93">
    <path d="M 198.065937 237.723375 
C 201.299493 237.723375 204.401045 236.43867 206.687514 234.152201 
C 208.973982 231.865732 210.258687 228.76418 210.258687 225.530625 
C 210.258687 222.29707 208.973982 219.195518 206.687514 216.909049 
C 204.401045 214.62258 201.299493 213.337875 198.065937 213.337875 
C 194.832382 213.337875 191.73083 214.62258 189.444361 216.909049 
C 187.157893 219.195518 185.873187 222.29707 185.873187 225.530625 
C 185.873187 228.76418 187.157893 231.865732 189.444361 234.152201 
C 191.73083 236.43867 194.832382 237.723375 198.065937 237.723375 
z
" clip-path="url(#pf3f7bd196b)" style="fill: #fe484e; stroke: #000000; stroke-linejoin: miter"/>
   </g>
   <g id="patch_94">
    <path d="M 225.160937 237.723375 
C 228.394493 237.723375 231.496045 236.43867 233.782514 234.152201 
C 236.068982 231.865732 237.353687 228.76418 237.353687 225.530625 
C 237.353687 222.29707 236.068982 219.195518 233.782514 216.909049 
C 231.496045 214.62258 228.394493 213.337875 225.160937 213.337875 
C 221.927382 213.337875 218.82583 214.62258 216.539361 216.909049 
C 214.252893 219.195518 212.968187 222.29707 212.968187 225.530625 
C 212.968187 228.76418 214.252893 231.865732 216.539361 234.152201 
C 218.82583 236.43867 221.927382 237.723375 225.160937 237.723375 
z
" clip-path="url(#pf3f7bd196b)" style="fill: #fe484e; stroke: #000000; stroke-linejoin: miter"/>
   </g>
   <g id="patch_95">
    <path d="M 252.255937 237.723375 
C 255.489493 237.723375 258.591045 236.43867 260.877514 234.152201 
C 263.163982 231.865732 264.448687 228.76418 264.448687 225.530625 
C 264.448687 222.29707 263.163982 219.195518 260.877514 216.909049 
C 258.591045 214.62258 255.489493 213.337875 252.255937 213.337875 
C 249.022382 213.337875 245.92083 214.62258 243.634361 216.909049 
C 241.347893 219.195518 240.063187 222.29707 240.063187 225.530625 
C 240.063187 228.76418 241.347893 231.865732 243.634361 234.152201 
C 245.92083 236.43867 249.022382 237.723375 252.255937 237.723375 
z
" clip-path="url(#pf3f7bd196b)" style="fill: #fe484e; stroke: #000000; stroke-linejoin: miter"/>
   </g>
   <g id="patch_96">
    <path d="M 279.350937 237.723375 
C 282.584493 237.723375 285.686045 236.43867 287.972514 234.152201 
C 290.258982 231.865732 291.543687 228.76418 291.543687 225.530625 
C 291.543687 222.29707 290.258982 219.195518 287.972514 216.909049 
C 285.686045 214.62258 282.584493 213.337875 279.350937 213.337875 
C 276.117382 213.337875 273.01583 214.62258 270.729361 216.909049 
C 268.442893 219.195518 267.158187 222.29707 267.158187 225.530625 
C 267.158187 228.76418 268.442893 231.865732 270.729361 234.152201 
C 273.01583 236.43867 276.117382 237.723375 279.350937 237.723375 
z
" clip-path="url(#pf3f7bd196b)" style="fill: #19d2bf; stroke: #000000; stroke-linejoin: miter"/>
   </g>
   <g id="patch_97">
    <path d="M 306.445937 237.723375 
C 309.679493 237.723375 312.781045 236.43867 315.067514 234.152201 
C 317.353982 231.865732 318.638687 228.76418 318.638687 225.530625 
C 318.638687 222.29707 317.353982 219.195518 315.067514 216.909049 
C 312.781045 214.62258 309.679493 213.337875 306.445937 213.337875 
C 303.212382 213.337875 300.11083 214.62258 297.824361 216.909049 
C 295.537893 219.195518 294.253187 222.29707 294.253187 225.530625 
C 294.253187 228.76418 295.537893 231.865732 297.824361 234.152201 
C 300.11083 236.43867 303.212382 237.723375 306.445937 237.723375 
z
" clip-path="url(#pf3f7bd196b)" style="fill: #19d2bf; stroke: #000000; stroke-linejoin: miter"/>
   </g>
   <g id="patch_98">
    <path d="M 333.540937 237.723375 
C 336.774493 237.723375 339.876045 236.43867 342.162514 234.152201 
C 344.448982 231.865732 345.733687 228.76418 345.733687 225.530625 
C 345.733687 222.29707 344.448982 219.195518 342.162514 216.909049 
C 339.876045 214.62258 336.774493 213.337875 333.540937 213.337875 
C 330.307382 213.337875 327.20583 214.62258 324.919361 216.909049 
C 322.632893 219.195518 321.348187 222.29707 321.348187 225.530625 
C 321.348187 228.76418 322.632893 231.865732 324.919361 234.152201 
C 327.20583 236.43867 330.307382 237.723375 333.540937 237.723375 
z
" clip-path="url(#pf3f7bd196b)" style="fill: #19d2bf; stroke: #000000; stroke-linejoin: miter"/>
   </g>
   <g id="matplotlib.axis_1">
    <g id="xtick_1">
     <g id="line2d_1">
      <defs>
       <path id="m2021c741fa" d="M 0 0 
L 0 3.5 
" style="stroke: #000000; stroke-width: 0.8"/>
      </defs>
      <g>
       <use xlink:href="#m2021c741fa" x="35.495937" y="239.078125" style="stroke: #000000; stroke-width: 0.8"/>
      </g>
     </g>
     <g id="text_1">
      <!-- 1 -->
      <g transform="translate(32.314687 253.675781) scale(0.1 -0.1)">
       <defs>
        <path id="DejaVuSans-14" d="M 794 531 
L 1825 531 
L 1825 4091 
L 703 3866 
L 703 4441 
L 1819 4666 
L 2450 4666 
L 2450 531 
L 3481 531 
L 3481 0 
L 794 0 
L 794 531 
z
" transform="scale(0.015625)"/>
       </defs>
       <use xlink:href="#DejaVuSans-14"/>
      </g>
     </g>
    </g>
    <g id="xtick_2">
     <g id="line2d_2">
      <g>
       <use xlink:href="#m2021c741fa" x="62.590937" y="239.078125" style="stroke: #000000; stroke-width: 0.8"/>
      </g>
     </g>
     <g id="text_2">
      <!-- 2 -->
      <g transform="translate(59.409687 253.675781) scale(0.1 -0.1)">
       <defs>
        <path id="DejaVuSans-15" d="M 1228 531 
L 3431 531 
L 3431 0 
L 469 0 
L 469 531 
Q 828 903 1448 1529 
Q 2069 2156 2228 2338 
Q 2531 2678 2651 2914 
Q 2772 3150 2772 3378 
Q 2772 3750 2511 3984 
Q 2250 4219 1831 4219 
Q 1534 4219 1204 4116 
Q 875 4013 500 3803 
L 500 4441 
Q 881 4594 1212 4672 
Q 1544 4750 1819 4750 
Q 2544 4750 2975 4387 
Q 3406 4025 3406 3419 
Q 3406 3131 3298 2873 
Q 3191 2616 2906 2266 
Q 2828 2175 2409 1742 
Q 1991 1309 1228 531 
z
" transform="scale(0.015625)"/>
       </defs>
       <use xlink:href="#DejaVuSans-15"/>
      </g>
     </g>
    </g>
    <g id="xtick_3">
     <g id="line2d_3">
      <g>
       <use xlink:href="#m2021c741fa" x="89.685937" y="239.078125" style="stroke: #000000; stroke-width: 0.8"/>
      </g>
     </g>
     <g id="text_3">
      <!-- 3 -->
      <g transform="translate(86.504687 253.675781) scale(0.1 -0.1)">
       <defs>
        <path id="DejaVuSans-16" d="M 2597 2516 
Q 3050 2419 3304 2112 
Q 3559 1806 3559 1356 
Q 3559 666 3084 287 
Q 2609 -91 1734 -91 
Q 1441 -91 1130 -33 
Q 819 25 488 141 
L 488 750 
Q 750 597 1062 519 
Q 1375 441 1716 441 
Q 2309 441 2620 675 
Q 2931 909 2931 1356 
Q 2931 1769 2642 2001 
Q 2353 2234 1838 2234 
L 1294 2234 
L 1294 2753 
L 1863 2753 
Q 2328 2753 2575 2939 
Q 2822 3125 2822 3475 
Q 2822 3834 2567 4026 
Q 2313 4219 1838 4219 
Q 1578 4219 1281 4162 
Q 984 4106 628 3988 
L 628 4550 
Q 988 4650 1302 4700 
Q 1616 4750 1894 4750 
Q 2613 4750 3031 4423 
Q 3450 4097 3450 3541 
Q 3450 3153 3228 2886 
Q 3006 2619 2597 2516 
z
" transform="scale(0.015625)"/>
       </defs>
       <use xlink:href="#DejaVuSans-16"/>
      </g>
     </g>
    </g>
    <g id="xtick_4">
     <g id="line2d_4">
      <g>
       <use xlink:href="#m2021c741fa" x="116.780937" y="239.078125" style="stroke: #000000; stroke-width: 0.8"/>
      </g>
     </g>
     <g id="text_4">
      <!-- 4 -->
      <g transform="translate(113.599687 253.675781) scale(0.1 -0.1)">
       <defs>
        <path id="DejaVuSans-17" d="M 2419 4116 
L 825 1625 
L 2419 1625 
L 2419 4116 
z
M 2253 4666 
L 3047 4666 
L 3047 1625 
L 3713 1625 
L 3713 1100 
L 3047 1100 
L 3047 0 
L 2419 0 
L 2419 1100 
L 313 1100 
L 313 1709 
L 2253 4666 
z
" transform="scale(0.015625)"/>
       </defs>
       <use xlink:href="#DejaVuSans-17"/>
      </g>
     </g>
    </g>
    <g id="xtick_5">
     <g id="line2d_5">
      <g>
       <use xlink:href="#m2021c741fa" x="143.875937" y="239.078125" style="stroke: #000000; stroke-width: 0.8"/>
      </g>
     </g>
     <g id="text_5">
      <!-- 5 -->
      <g transform="translate(140.694687 253.675781) scale(0.1 -0.1)">
       <defs>
        <path id="DejaVuSans-18" d="M 691 4666 
L 3169 4666 
L 3169 4134 
L 1269 4134 
L 1269 2991 
Q 1406 3038 1543 3061 
Q 1681 3084 1819 3084 
Q 2600 3084 3056 2656 
Q 3513 2228 3513 1497 
Q 3513 744 3044 326 
Q 2575 -91 1722 -91 
Q 1428 -91 1123 -41 
Q 819 9 494 109 
L 494 744 
Q 775 591 1075 516 
Q 1375 441 1709 441 
Q 2250 441 2565 725 
Q 2881 1009 2881 1497 
Q 2881 1984 2565 2268 
Q 2250 2553 1709 2553 
Q 1456 2553 1204 2497 
Q 953 2441 691 2322 
L 691 4666 
z
" transform="scale(0.015625)"/>
       </defs>
       <use xlink:href="#DejaVuSans-18"/>
      </g>
     </g>
    </g>
    <g id="xtick_6">
     <g id="line2d_6">
      <g>
       <use xlink:href="#m2021c741fa" x="170.970937" y="239.078125" style="stroke: #000000; stroke-width: 0.8"/>
      </g>
     </g>
     <g id="text_6">
      <!-- 6 -->
      <g transform="translate(167.789687 253.675781) scale(0.1 -0.1)">
       <defs>
        <path id="DejaVuSans-19" d="M 2113 2584 
Q 1688 2584 1439 2293 
Q 1191 2003 1191 1497 
Q 1191 994 1439 701 
Q 1688 409 2113 409 
Q 2538 409 2786 701 
Q 3034 994 3034 1497 
Q 3034 2003 2786 2293 
Q 2538 2584 2113 2584 
z
M 3366 4563 
L 3366 3988 
Q 3128 4100 2886 4159 
Q 2644 4219 2406 4219 
Q 1781 4219 1451 3797 
Q 1122 3375 1075 2522 
Q 1259 2794 1537 2939 
Q 1816 3084 2150 3084 
Q 2853 3084 3261 2657 
Q 3669 2231 3669 1497 
Q 3669 778 3244 343 
Q 2819 -91 2113 -91 
Q 1303 -91 875 529 
Q 447 1150 447 2328 
Q 447 3434 972 4092 
Q 1497 4750 2381 4750 
Q 2619 4750 2861 4703 
Q 3103 4656 3366 4563 
z
" transform="scale(0.015625)"/>
       </defs>
       <use xlink:href="#DejaVuSans-19"/>
      </g>
     </g>
    </g>
    <g id="xtick_7">
     <g id="line2d_7">
      <g>
       <use xlink:href="#m2021c741fa" x="198.065937" y="239.078125" style="stroke: #000000; stroke-width: 0.8"/>
      </g>
     </g>
     <g id="text_7">
      <!-- 7 -->
      <g transform="translate(194.884687 253.675781) scale(0.1 -0.1)">
       <defs>
        <path id="DejaVuSans-1a" d="M 525 4666 
L 3525 4666 
L 3525 4397 
L 1831 0 
L 1172 0 
L 2766 4134 
L 525 4134 
L 525 4666 
z
" transform="scale(0.015625)"/>
       </defs>
       <use xlink:href="#DejaVuSans-1a"/>
      </g>
     </g>
    </g>
    <g id="xtick_8">
     <g id="line2d_8">
      <g>
       <use xlink:href="#m2021c741fa" x="225.160937" y="239.078125" style="stroke: #000000; stroke-width: 0.8"/>
      </g>
     </g>
     <g id="text_8">
      <!-- 8 -->
      <g transform="translate(221.979687 253.675781) scale(0.1 -0.1)">
       <defs>
        <path id="DejaVuSans-1b" d="M 2034 2216 
Q 1584 2216 1326 1975 
Q 1069 1734 1069 1313 
Q 1069 891 1326 650 
Q 1584 409 2034 409 
Q 2484 409 2743 651 
Q 3003 894 3003 1313 
Q 3003 1734 2745 1975 
Q 2488 2216 2034 2216 
z
M 1403 2484 
Q 997 2584 770 2862 
Q 544 3141 544 3541 
Q 544 4100 942 4425 
Q 1341 4750 2034 4750 
Q 2731 4750 3128 4425 
Q 3525 4100 3525 3541 
Q 3525 3141 3298 2862 
Q 3072 2584 2669 2484 
Q 3125 2378 3379 2068 
Q 3634 1759 3634 1313 
Q 3634 634 3220 271 
Q 2806 -91 2034 -91 
Q 1263 -91 848 271 
Q 434 634 434 1313 
Q 434 1759 690 2068 
Q 947 2378 1403 2484 
z
M 1172 3481 
Q 1172 3119 1398 2916 
Q 1625 2713 2034 2713 
Q 2441 2713 2670 2916 
Q 2900 3119 2900 3481 
Q 2900 3844 2670 4047 
Q 2441 4250 2034 4250 
Q 1625 4250 1398 4047 
Q 1172 3844 1172 3481 
z
" transform="scale(0.015625)"/>
       </defs>
       <use xlink:href="#DejaVuSans-1b"/>
      </g>
     </g>
    </g>
    <g id="xtick_9">
     <g id="line2d_9">
      <g>
       <use xlink:href="#m2021c741fa" x="252.255937" y="239.078125" style="stroke: #000000; stroke-width: 0.8"/>
      </g>
     </g>
     <g id="text_9">
      <!-- 9 -->
      <g transform="translate(249.074687 253.675781) scale(0.1 -0.1)">
       <defs>
        <path id="DejaVuSans-1c" d="M 703 97 
L 703 672 
Q 941 559 1184 500 
Q 1428 441 1663 441 
Q 2288 441 2617 861 
Q 2947 1281 2994 2138 
Q 2813 1869 2534 1725 
Q 2256 1581 1919 1581 
Q 1219 1581 811 2004 
Q 403 2428 403 3163 
Q 403 3881 828 4315 
Q 1253 4750 1959 4750 
Q 2769 4750 3195 4129 
Q 3622 3509 3622 2328 
Q 3622 1225 3098 567 
Q 2575 -91 1691 -91 
Q 1453 -91 1209 -44 
Q 966 3 703 97 
z
M 1959 2075 
Q 2384 2075 2632 2365 
Q 2881 2656 2881 3163 
Q 2881 3666 2632 3958 
Q 2384 4250 1959 4250 
Q 1534 4250 1286 3958 
Q 1038 3666 1038 3163 
Q 1038 2656 1286 2365 
Q 1534 2075 1959 2075 
z
" transform="scale(0.015625)"/>
       </defs>
       <use xlink:href="#DejaVuSans-1c"/>
      </g>
     </g>
    </g>
    <g id="xtick_10">
     <g id="line2d_10">
      <g>
       <use xlink:href="#m2021c741fa" x="279.350937" y="239.078125" style="stroke: #000000; stroke-width: 0.8"/>
      </g>
     </g>
     <g id="text_10">
      <!-- 10 -->
      <g transform="translate(272.988437 253.675781) scale(0.1 -0.1)">
       <defs>
        <path id="DejaVuSans-13" d="M 2034 4250 
Q 1547 4250 1301 3770 
Q 1056 3291 1056 2328 
Q 1056 1369 1301 889 
Q 1547 409 2034 409 
Q 2525 409 2770 889 
Q 3016 1369 3016 2328 
Q 3016 3291 2770 3770 
Q 2525 4250 2034 4250 
z
M 2034 4750 
Q 2819 4750 3233 4129 
Q 3647 3509 3647 2328 
Q 3647 1150 3233 529 
Q 2819 -91 2034 -91 
Q 1250 -91 836 529 
Q 422 1150 422 2328 
Q 422 3509 836 4129 
Q 1250 4750 2034 4750 
z
" transform="scale(0.015625)"/>
       </defs>
       <use xlink:href="#DejaVuSans-14"/>
       <use xlink:href="#DejaVuSans-13" transform="translate(63.625 0)"/>
      </g>
     </g>
    </g>
    <g id="xtick_11">
     <g id="line2d_11">
      <g>
       <use xlink:href="#m2021c741fa" x="306.445937" y="239.078125" style="stroke: #000000; stroke-width: 0.8"/>
      </g>
     </g>
     <g id="text_11">
      <!-- 11 -->
      <g transform="translate(300.083437 253.675781) scale(0.1 -0.1)">
       <use xlink:href="#DejaVuSans-14"/>
       <use xlink:href="#DejaVuSans-14" transform="translate(63.625 0)"/>
      </g>
     </g>
    </g>
    <g id="xtick_12">
     <g id="line2d_12">
      <g>
       <use xlink:href="#m2021c741fa" x="333.540937" y="239.078125" style="stroke: #000000; stroke-width: 0.8"/>
      </g>
     </g>
     <g id="text_12">
      <!-- 12 -->
      <g transform="translate(327.178437 253.675781) scale(0.1 -0.1)">
       <use xlink:href="#DejaVuSans-14"/>
       <use xlink:href="#DejaVuSans-15" transform="translate(63.625 0)"/>
      </g>
     </g>
    </g>
   </g>
   <g id="matplotlib.axis_2">
    <g id="ytick_1">
     <g id="line2d_13">
      <defs>
       <path id="me704a3cc93" d="M 0 0 
L -3.5 0 
" style="stroke: #000000; stroke-width: 0.8"/>
      </defs>
      <g>
       <use xlink:href="#me704a3cc93" x="21.948438" y="35.865625" style="stroke: #000000; stroke-width: 0.8"/>
      </g>
     </g>
     <g id="text_13">
      <!-- A -->
      <g transform="translate(8.107813 39.664453) scale(0.1 -0.1)">
       <defs>
        <path id="DejaVuSans-24" d="M 2188 4044 
L 1331 1722 
L 3047 1722 
L 2188 4044 
z
M 1831 4666 
L 2547 4666 
L 4325 0 
L 3669 0 
L 3244 1197 
L 1141 1197 
L 716 0 
L 50 0 
L 1831 4666 
z
" transform="scale(0.015625)"/>
       </defs>
       <use xlink:href="#DejaVuSans-24"/>
      </g>
     </g>
    </g>
    <g id="ytick_2">
     <g id="line2d_14">
      <g>
       <use xlink:href="#me704a3cc93" x="21.948438" y="62.960625" style="stroke: #000000; stroke-width: 0.8"/>
      </g>
     </g>
     <g id="text_14">
      <!-- B -->
      <g transform="translate(8.0875 66.759453) scale(0.1 -0.1)">
       <defs>
        <path id="DejaVuSans-25" d="M 1259 2228 
L 1259 519 
L 2272 519 
Q 2781 519 3026 730 
Q 3272 941 3272 1375 
Q 3272 1813 3026 2020 
Q 2781 2228 2272 2228 
L 1259 2228 
z
M 1259 4147 
L 1259 2741 
L 2194 2741 
Q 2656 2741 2882 2914 
Q 3109 3088 3109 3444 
Q 3109 3797 2882 3972 
Q 2656 4147 2194 4147 
L 1259 4147 
z
M 628 4666 
L 2241 4666 
Q 2963 4666 3353 4366 
Q 3744 4066 3744 3513 
Q 3744 3084 3544 2831 
Q 3344 2578 2956 2516 
Q 3422 2416 3680 2098 
Q 3938 1781 3938 1306 
Q 3938 681 3513 340 
Q 3088 0 2303 0 
L 628 0 
L 628 4666 
z
" transform="scale(0.015625)"/>
       </defs>
       <use xlink:href="#DejaVuSans-25"/>
      </g>
     </g>
    </g>
    <g id="ytick_3">
     <g id="line2d_15">
      <g>
       <use xlink:href="#me704a3cc93" x="21.948438" y="90.055625" style="stroke: #000000; stroke-width: 0.8"/>
      </g>
     </g>
     <g id="text_15">
      <!-- C -->
      <g transform="translate(7.965625 93.854453) scale(0.1 -0.1)">
       <defs>
        <path id="DejaVuSans-26" d="M 4122 4306 
L 4122 3641 
Q 3803 3938 3442 4084 
Q 3081 4231 2675 4231 
Q 1875 4231 1450 3742 
Q 1025 3253 1025 2328 
Q 1025 1406 1450 917 
Q 1875 428 2675 428 
Q 3081 428 3442 575 
Q 3803 722 4122 1019 
L 4122 359 
Q 3791 134 3420 21 
Q 3050 -91 2638 -91 
Q 1578 -91 968 557 
Q 359 1206 359 2328 
Q 359 3453 968 4101 
Q 1578 4750 2638 4750 
Q 3056 4750 3426 4639 
Q 3797 4528 4122 4306 
z
" transform="scale(0.015625)"/>
       </defs>
       <use xlink:href="#DejaVuSans-26"/>
      </g>
     </g>
    </g>
    <g id="ytick_4">
     <g id="line2d_16">
      <g>
       <use xlink:href="#me704a3cc93" x="21.948438" y="117.150625" style="stroke: #000000; stroke-width: 0.8"/>
      </g>
     </g>
     <g id="text_16">
      <!-- D -->
      <g transform="translate(7.248438 120.949453) scale(0.1 -0.1)">
       <defs>
        <path id="DejaVuSans-27" d="M 1259 4147 
L 1259 519 
L 2022 519 
Q 2988 519 3436 956 
Q 3884 1394 3884 2338 
Q 3884 3275 3436 3711 
Q 2988 4147 2022 4147 
L 1259 4147 
z
M 628 4666 
L 1925 4666 
Q 3281 4666 3915 4102 
Q 4550 3538 4550 2338 
Q 4550 1131 3912 565 
Q 3275 0 1925 0 
L 628 0 
L 628 4666 
z
" transform="scale(0.015625)"/>
       </defs>
       <use xlink:href="#DejaVuSans-27"/>
      </g>
     </g>
    </g>
    <g id="ytick_5">
     <g id="line2d_17">
      <g>
       <use xlink:href="#me704a3cc93" x="21.948438" y="144.245625" style="stroke: #000000; stroke-width: 0.8"/>
      </g>
     </g>
     <g id="text_17">
      <!-- E -->
      <g transform="translate(8.629688 148.044453) scale(0.1 -0.1)">
       <defs>
        <path id="DejaVuSans-28" d="M 628 4666 
L 3578 4666 
L 3578 4134 
L 1259 4134 
L 1259 2753 
L 3481 2753 
L 3481 2222 
L 1259 2222 
L 1259 531 
L 3634 531 
L 3634 0 
L 628 0 
L 628 4666 
z
" transform="scale(0.015625)"/>
       </defs>
       <use xlink:href="#DejaVuSans-28"/>
      </g>
     </g>
    </g>
    <g id="ytick_6">
     <g id="line2d_18">
      <g>
       <use xlink:href="#me704a3cc93" x="21.948438" y="171.340625" style="stroke: #000000; stroke-width: 0.8"/>
      </g>
     </g>
     <g id="text_18">
      <!-- F -->
      <g transform="translate(9.196875 175.139453) scale(0.1 -0.1)">
       <defs>
        <path id="DejaVuSans-29" d="M 628 4666 
L 3309 4666 
L 3309 4134 
L 1259 4134 
L 1259 2759 
L 3109 2759 
L 3109 2228 
L 1259 2228 
L 1259 0 
L 628 0 
L 628 4666 
z
" transform="scale(0.015625)"/>
       </defs>
       <use xlink:href="#DejaVuSans-29"/>
      </g>
     </g>
    </g>
    <g id="ytick_7">
     <g id="line2d_19">
      <g>
       <use xlink:href="#me704a3cc93" x="21.948438" y="198.435625" style="stroke: #000000; stroke-width: 0.8"/>
      </g>
     </g>
     <g id="text_19">
      <!-- G -->
      <g transform="translate(7.2 202.234453) scale(0.1 -0.1)">
       <defs>
        <path id="DejaVuSans-2a" d="M 3809 666 
L 3809 1919 
L 2778 1919 
L 2778 2438 
L 4434 2438 
L 4434 434 
Q 4069 175 3628 42 
Q 3188 -91 2688 -91 
Q 1594 -91 976 548 
Q 359 1188 359 2328 
Q 359 3472 976 4111 
Q 1594 4750 2688 4750 
Q 3144 4750 3555 4637 
Q 3966 4525 4313 4306 
L 4313 3634 
Q 3963 3931 3569 4081 
Q 3175 4231 2741 4231 
Q 1884 4231 1454 3753 
Q 1025 3275 1025 2328 
Q 1025 1384 1454 906 
Q 1884 428 2741 428 
Q 3075 428 3337 486 
Q 3600 544 3809 666 
z
" transform="scale(0.015625)"/>
       </defs>
       <use xlink:href="#DejaVuSans-2a"/>
      </g>
     </g>
    </g>
    <g id="ytick_8">
     <g id="line2d_20">
      <g>
       <use xlink:href="#me704a3cc93" x="21.948438" y="225.530625" style="stroke: #000000; stroke-width: 0.8"/>
      </g>
     </g>
     <g id="text_20">
      <!-- H -->
      <g transform="translate(7.428125 229.329453) scale(0.1 -0.1)">
       <defs>
        <path id="DejaVuSans-2b" d="M 628 4666 
L 1259 4666 
L 1259 2753 
L 3553 2753 
L 3553 4666 
L 4184 4666 
L 4184 0 
L 3553 0 
L 3553 2222 
L 1259 2222 
L 1259 0 
L 628 0 
L 628 4666 
z
" transform="scale(0.015625)"/>
       </defs>
       <use xlink:href="#DejaVuSans-2b"/>
      </g>
     </g>
    </g>
   </g>
   <g id="patch_99">
    <path d="M 21.948438 239.078125 
L 21.948438 22.318125 
" style="fill: none; stroke: #000000; stroke-width: 0.8; stroke-linejoin: miter; stroke-linecap: square"/>
   </g>
   <g id="patch_100">
    <path d="M 347.088437 239.078125 
L 347.088437 22.318125 
" style="fill: none; stroke: #000000; stroke-width: 0.8; stroke-linejoin: miter; stroke-linecap: square"/>
   </g>
   <g id="patch_101">
    <path d="M 21.948438 239.078125 
L 347.088437 239.078125 
" style="fill: none; stroke: #000000; stroke-width: 0.8; stroke-linejoin: miter; stroke-linecap: square"/>
   </g>
   <g id="patch_102">
    <path d="M 21.948438 22.318125 
L 347.088437 22.318125 
" style="fill: none; stroke: #000000; stroke-width: 0.8; stroke-linejoin: miter; stroke-linecap: square"/>
   </g>
   <g id="text_21">
    <!-- orientation -->
    <g transform="translate(151.6975 16.318125) scale(0.12 -0.12)">
     <defs>
      <path id="DejaVuSans-52" d="M 1959 3097 
Q 1497 3097 1228 2736 
Q 959 2375 959 1747 
Q 959 1119 1226 758 
Q 1494 397 1959 397 
Q 2419 397 2687 759 
Q 2956 1122 2956 1747 
Q 2956 2369 2687 2733 
Q 2419 3097 1959 3097 
z
M 1959 3584 
Q 2709 3584 3137 3096 
Q 3566 2609 3566 1747 
Q 3566 888 3137 398 
Q 2709 -91 1959 -91 
Q 1206 -91 779 398 
Q 353 888 353 1747 
Q 353 2609 779 3096 
Q 1206 3584 1959 3584 
z
" transform="scale(0.015625)"/>
      <path id="DejaVuSans-55" d="M 2631 2963 
Q 2534 3019 2420 3045 
Q 2306 3072 2169 3072 
Q 1681 3072 1420 2755 
Q 1159 2438 1159 1844 
L 1159 0 
L 581 0 
L 581 3500 
L 1159 3500 
L 1159 2956 
Q 1341 3275 1631 3429 
Q 1922 3584 2338 3584 
Q 2397 3584 2469 3576 
Q 2541 3569 2628 3553 
L 2631 2963 
z
" transform="scale(0.015625)"/>
      <path id="DejaVuSans-4c" d="M 603 3500 
L 1178 3500 
L 1178 0 
L 603 0 
L 603 3500 
z
M 603 4863 
L 1178 4863 
L 1178 4134 
L 603 4134 
L 603 4863 
z
" transform="scale(0.015625)"/>
      <path id="DejaVuSans-48" d="M 3597 1894 
L 3597 1613 
L 953 1613 
Q 991 1019 1311 708 
Q 1631 397 2203 397 
Q 2534 397 2845 478 
Q 3156 559 3463 722 
L 3463 178 
Q 3153 47 2828 -22 
Q 2503 -91 2169 -91 
Q 1331 -91 842 396 
Q 353 884 353 1716 
Q 353 2575 817 3079 
Q 1281 3584 2069 3584 
Q 2775 3584 3186 3129 
Q 3597 2675 3597 1894 
z
M 3022 2063 
Q 3016 2534 2758 2815 
Q 2500 3097 2075 3097 
Q 1594 3097 1305 2825 
Q 1016 2553 972 2059 
L 3022 2063 
z
" transform="scale(0.015625)"/>
      <path id="DejaVuSans-51" d="M 3513 2113 
L 3513 0 
L 2938 0 
L 2938 2094 
Q 2938 2591 2744 2837 
Q 2550 3084 2163 3084 
Q 1697 3084 1428 2787 
Q 1159 2491 1159 1978 
L 1159 0 
L 581 0 
L 581 3500 
L 1159 3500 
L 1159 2956 
Q 1366 3272 1645 3428 
Q 1925 3584 2291 3584 
Q 2894 3584 3203 3211 
Q 3513 2838 3513 2113 
z
" transform="scale(0.015625)"/>
      <path id="DejaVuSans-57" d="M 1172 4494 
L 1172 3500 
L 2356 3500 
L 2356 3053 
L 1172 3053 
L 1172 1153 
Q 1172 725 1289 603 
Q 1406 481 1766 481 
L 2356 481 
L 2356 0 
L 1766 0 
Q 1100 0 847 248 
Q 594 497 594 1153 
L 594 3053 
L 172 3053 
L 172 3500 
L 594 3500 
L 594 4494 
L 1172 4494 
z
" transform="scale(0.015625)"/>
      <path id="DejaVuSans-44" d="M 2194 1759 
Q 1497 1759 1228 1600 
Q 959 1441 959 1056 
Q 959 750 1161 570 
Q 1363 391 1709 391 
Q 2188 391 2477 730 
Q 2766 1069 2766 1631 
L 2766 1759 
L 2194 1759 
z
M 3341 1997 
L 3341 0 
L 2766 0 
L 2766 531 
Q 2569 213 2275 61 
Q 1981 -91 1556 -91 
Q 1019 -91 701 211 
Q 384 513 384 1019 
Q 384 1609 779 1909 
Q 1175 2209 1959 2209 
L 2766 2209 
L 2766 2266 
Q 2766 2663 2505 2880 
Q 2244 3097 1772 3097 
Q 1472 3097 1187 3025 
Q 903 2953 641 2809 
L 641 3341 
Q 956 3463 1253 3523 
Q 1550 3584 1831 3584 
Q 2591 3584 2966 3190 
Q 3341 2797 3341 1997 
z
" transform="scale(0.015625)"/>
     </defs>
     <use xlink:href="#DejaVuSans-52"/>
     <use xlink:href="#DejaVuSans-55" transform="translate(61.1875 0)"/>
     <use xlink:href="#DejaVuSans-4c" transform="translate(102.296875 0)"/>
     <use xlink:href="#DejaVuSans-48" transform="translate(130.078125 0)"/>
     <use xlink:href="#DejaVuSans-51" transform="translate(191.609375 0)"/>
     <use xlink:href="#DejaVuSans-57" transform="translate(254.984375 0)"/>
     <use xlink:href="#DejaVuSans-44" transform="translate(294.1875 0)"/>
     <use xlink:href="#DejaVuSans-57" transform="translate(355.46875 0)"/>
     <use xlink:href="#DejaVuSans-4c" transform="translate(394.671875 0)"/>
     <use xlink:href="#DejaVuSans-52" transform="translate(422.453125 0)"/>
     <use xlink:href="#DejaVuSans-51" transform="translate(483.640625 0)"/>
    </g>
   </g>
   <g id="legend_1">
    <g id="patch_103">
     <path d="M 354.088437 154.699297 
L 442.810312 154.699297 
Q 444.810312 154.699297 444.810312 152.699297 
L 444.810312 108.696953 
Q 444.810312 106.696953 442.810312 106.696953 
L 354.088437 106.696953 
Q 352.088437 106.696953 352.088437 108.696953 
L 352.088437 152.699297 
Q 352.088437 154.699297 354.088437 154.699297 
z
" style="fill: #ffffff; opacity: 0.8; stroke: #cccccc; stroke-linejoin: miter"/>
    </g>
    <g id="patch_104">
     <path d="M 356.088437 118.295391 
L 376.088437 118.295391 
L 376.088437 111.295391 
L 356.088437 111.295391 
z
" style="fill: #19d2bf; stroke: #000000; stroke-linejoin: miter"/>
    </g>
    <g id="text_22">
     <!-- tandem -->
     <g transform="translate(384.088437 118.295391) scale(0.1 -0.1)">
      <defs>
       <path id="DejaVuSans-47" d="M 2906 2969 
L 2906 4863 
L 3481 4863 
L 3481 0 
L 2906 0 
L 2906 525 
Q 2725 213 2448 61 
Q 2172 -91 1784 -91 
Q 1150 -91 751 415 
Q 353 922 353 1747 
Q 353 2572 751 3078 
Q 1150 3584 1784 3584 
Q 2172 3584 2448 3432 
Q 2725 3281 2906 2969 
z
M 947 1747 
Q 947 1113 1208 752 
Q 1469 391 1925 391 
Q 2381 391 2643 752 
Q 2906 1113 2906 1747 
Q 2906 2381 2643 2742 
Q 2381 3103 1925 3103 
Q 1469 3103 1208 2742 
Q 947 2381 947 1747 
z
" transform="scale(0.015625)"/>
       <path id="DejaVuSans-50" d="M 3328 2828 
Q 3544 3216 3844 3400 
Q 4144 3584 4550 3584 
Q 5097 3584 5394 3201 
Q 5691 2819 5691 2113 
L 5691 0 
L 5113 0 
L 5113 2094 
Q 5113 2597 4934 2840 
Q 4756 3084 4391 3084 
Q 3944 3084 3684 2787 
Q 3425 2491 3425 1978 
L 3425 0 
L 2847 0 
L 2847 2094 
Q 2847 2600 2669 2842 
Q 2491 3084 2119 3084 
Q 1678 3084 1418 2786 
Q 1159 2488 1159 1978 
L 1159 0 
L 581 0 
L 581 3500 
L 1159 3500 
L 1159 2956 
Q 1356 3278 1631 3431 
Q 1906 3584 2284 3584 
Q 2666 3584 2933 3390 
Q 3200 3197 3328 2828 
z
" transform="scale(0.015625)"/>
      </defs>
      <use xlink:href="#DejaVuSans-57"/>
      <use xlink:href="#DejaVuSans-44" transform="translate(39.203125 0)"/>
      <use xlink:href="#DejaVuSans-51" transform="translate(100.484375 0)"/>
      <use xlink:href="#DejaVuSans-47" transform="translate(163.859375 0)"/>
      <use xlink:href="#DejaVuSans-48" transform="translate(227.34375 0)"/>
      <use xlink:href="#DejaVuSans-50" transform="translate(288.875 0)"/>
     </g>
    </g>
    <g id="patch_105">
     <path d="M 356.088437 133.296172 
L 376.088437 133.296172 
L 376.088437 126.296172 
L 356.088437 126.296172 
z
" style="fill: #ffb133; stroke: #000000; stroke-linejoin: miter"/>
    </g>
    <g id="text_23">
     <!-- convergent -->
     <g transform="translate(384.088437 133.296172) scale(0.1 -0.1)">
      <defs>
       <path id="DejaVuSans-46" d="M 3122 3366 
L 3122 2828 
Q 2878 2963 2633 3030 
Q 2388 3097 2138 3097 
Q 1578 3097 1268 2742 
Q 959 2388 959 1747 
Q 959 1106 1268 751 
Q 1578 397 2138 397 
Q 2388 397 2633 464 
Q 2878 531 3122 666 
L 3122 134 
Q 2881 22 2623 -34 
Q 2366 -91 2075 -91 
Q 1284 -91 818 406 
Q 353 903 353 1747 
Q 353 2603 823 3093 
Q 1294 3584 2113 3584 
Q 2378 3584 2631 3529 
Q 2884 3475 3122 3366 
z
" transform="scale(0.015625)"/>
       <path id="DejaVuSans-59" d="M 191 3500 
L 800 3500 
L 1894 563 
L 2988 3500 
L 3597 3500 
L 2284 0 
L 1503 0 
L 191 3500 
z
" transform="scale(0.015625)"/>
       <path id="DejaVuSans-4a" d="M 2906 1791 
Q 2906 2416 2648 2759 
Q 2391 3103 1925 3103 
Q 1463 3103 1205 2759 
Q 947 2416 947 1791 
Q 947 1169 1205 825 
Q 1463 481 1925 481 
Q 2391 481 2648 825 
Q 2906 1169 2906 1791 
z
M 3481 434 
Q 3481 -459 3084 -895 
Q 2688 -1331 1869 -1331 
Q 1566 -1331 1297 -1286 
Q 1028 -1241 775 -1147 
L 775 -588 
Q 1028 -725 1275 -790 
Q 1522 -856 1778 -856 
Q 2344 -856 2625 -561 
Q 2906 -266 2906 331 
L 2906 616 
Q 2728 306 2450 153 
Q 2172 0 1784 0 
Q 1141 0 747 490 
Q 353 981 353 1791 
Q 353 2603 747 3093 
Q 1141 3584 1784 3584 
Q 2172 3584 2450 3431 
Q 2728 3278 2906 2969 
L 2906 3500 
L 3481 3500 
L 3481 434 
z
" transform="scale(0.015625)"/>
      </defs>
      <use xlink:href="#DejaVuSans-46"/>
      <use xlink:href="#DejaVuSans-52" transform="translate(54.984375 0)"/>
      <use xlink:href="#DejaVuSans-51" transform="translate(116.171875 0)"/>
      <use xlink:href="#DejaVuSans-59" transform="translate(179.546875 0)"/>
      <use xlink:href="#DejaVuSans-48" transform="translate(238.734375 0)"/>
      <use xlink:href="#DejaVuSans-55" transform="translate(300.265625 0)"/>
      <use xlink:href="#DejaVuSans-4a" transform="translate(339.625 0)"/>
      <use xlink:href="#DejaVuSans-48" transform="translate(403.109375 0)"/>
      <use xlink:href="#DejaVuSans-51" transform="translate(464.640625 0)"/>
      <use xlink:href="#DejaVuSans-57" transform="translate(528.015625 0)"/>
     </g>
    </g>
    <g id="patch_106">
     <path d="M 356.088437 148.296953 
L 376.088437 148.296953 
L 376.088437 141.296953 
L 356.088437 141.296953 
z
" style="fill: #fe484e; stroke: #000000; stroke-linejoin: miter"/>
    </g>
    <g id="text_24">
     <!-- divergent -->
     <g transform="translate(384.088437 148.296953) scale(0.1 -0.1)">
      <use xlink:href="#DejaVuSans-47"/>
      <use xlink:href="#DejaVuSans-4c" transform="translate(63.484375 0)"/>
      <use xlink:href="#DejaVuSans-59" transform="translate(91.265625 0)"/>
      <use xlink:href="#DejaVuSans-48" transform="translate(150.453125 0)"/>
      <use xlink:href="#DejaVuSans-55" transform="translate(211.984375 0)"/>
      <use xlink:href="#DejaVuSans-4a" transform="translate(251.34375 0)"/>
      <use xlink:href="#DejaVuSans-48" transform="translate(314.828125 0)"/>
      <use xlink:href="#DejaVuSans-51" transform="translate(376.359375 0)"/>
      <use xlink:href="#DejaVuSans-57" transform="translate(439.734375 0)"/>
     </g>
    </g>
   </g>
  </g>
 </g>
 <defs>
  <clipPath id="pf3f7bd196b">
   <rect x="21.948438" y="22.318125" width="325.14" height="216.76"/>
  </clipPath>
 </defs>
</svg>
