<?xml version="1.0" encoding="utf-8" standalone="no"?>
<!DOCTYPE svg PUBLIC "-//W3C//DTD SVG 1.1//EN"
  "http://www.w3.org/Graphics/SVG/1.1/DTD/svg11.dtd">
<svg xmlns:xlink="http://www.w3.org/1999/xlink" width="453.866562pt" height="265.95625pt" viewBox="0 0 453.866562 265.95625" xmlns="http://www.w3.org/2000/svg" version="1.1">
 <metadata>
  <rdf:RDF xmlns:dc="http://purl.org/dc/elements/1.1/" xmlns:cc="http://creativecommons.org/ns#" xmlns:rdf="http://www.w3.org/1999/02/22-rdf-syntax-ns#">
   <cc:Work>
    <dc:type rdf:resource="http://purl.org/dc/dcmitype/StillImage"/>
    <dc:date>2026-02-26T17:11:34+00:00</dc:date>
    <dc:format>image/svg+xml</dc:format>
    <dc:creator>
     <cc:Agent>
      <dc:title>Matplotlib v3.7.5, https://matplotlib.org/</dc:title>
     </cc:Agent>
    </dc:creator>
   </cc:Work>
  </rdf:RDF>
 </metadata>
 <defs>
  <style type="text/css">*{stroke-linejoin: round; stroke-linecap: butt}</style>
 </defs>
 <g id="figure_1">
  <g id="patch_1">
   <path d="M 0 265.95625 
L 453.866562 265.95625 
L 453.866562 0 
L 0 0 
z
" style="fill: #ffffff"/>
  </g>
  <g id="axes_1">
   <g id="patch_2">
    <path d="M 21.948438 242.078125 
L 351.588437 242.078125 
L 351.588437 22.318125 
L 21.948438 22.318125 
z
" style="fill: #ffffff"/>
   </g>
   <g id="patch_3">
    <path d="M 35.683437 48.414625 
C 38.961746 48.414625 42.106224 47.112139 44.424338 44.794025 
C 46.742452 42.475912 48.044937 39.331433 48.044937 36.053125 
C 48.044937 32.774817 46.742452 29.630338 44.424338 27.312225 
C 42.106224 24.994111 38.961746 23.691625 35.683437 23.691625 
C 32.405129 23.691625 29.260651 24.994111 26.942537 27.312225 
C 24.624423 29.630338 23.321937 32.774817 23.321937 36.053125 
C 23.321937 39.331433 24.624423 42.475912 26.942537 44.794025 
C 29.260651 47.112139 32.405129 48.414625 35.683437 48.414625 
z
" clip-path="url(#p06c98e3ef2)" style="fill: #440154; stroke: #000000; stroke-linejoin: miter"/>
   </g>
   <g id="patch_4">
    <path d="M 63.153437 48.414625 
C 66.431746 48.414625 69.576224 47.112139 71.894338 44.794025 
C 74.212452 42.475912 75.514938 39.331433 75.514938 36.053125 
C 75.514938 32.774817 74.212452 29.630338 71.894338 27.312225 
C 69.576224 24.994111 66.431746 23.691625 63.153437 23.691625 
C 59.875129 23.691625 56.730651 24.994111 54.412537 27.312225 
C 52.094423 29.630338 50.791937 32.774817 50.791937 36.053125 
C 50.791937 39.331433 52.094423 42.475912 54.412537 44.794025 
C 56.730651 47.112139 59.875129 48.414625 63.153437 48.414625 
z
" clip-path="url(#p06c98e3ef2)" style="fill: #440154; stroke: #000000; stroke-linejoin: miter"/>
   </g>
   <g id="patch_5">
    <path d="M 90.623437 48.414625 
C 93.901746 48.414625 97.046224 47.112139 99.364338 44.794025 
C 101.682452 42.475912 102.984938 39.331433 102.984938 36.053125 
C 102.984938 32.774817 101.682452 29.630338 99.364338 27.312225 
C 97.046224 24.994111 93.901746 23.691625 90.623437 23.691625 
C 87.345129 23.691625 84.200651 24.994111 81.882537 27.312225 
C 79.564423 29.630338 78.261937 32.774817 78.261937 36.053125 
C 78.261937 39.331433 79.564423 42.475912 81.882537 44.794025 
C 84.200651 47.112139 87.345129 48.414625 90.623437 48.414625 
z
" clip-path="url(#p06c98e3ef2)" style="fill: #440154; stroke: #000000; stroke-linejoin: miter"/>
   </g>
   <g id="patch_6">
    <path d="M 118.093437 48.414625 
C 121.371746 48.414625 124.516224 47.112139 126.834338 44.794025 
C 129.152452 42.475912 130.454937 39.331433 130.454937 36.053125 
C 130.454937 32.774817 129.152452 29.630338 126.834338 27.312225 
C 124.516224 24.994111 121.371746 23.691625 118.093437 23.691625 
C 114.815129 23.691625 111.670651 24.994111 109.352537 27.312225 
C 107.034423 29.630338 105.731937 32.774817 105.731937 36.053125 
C 105.731937 39.331433 107.034423 42.475912 109.352537 44.794025 
C 111.670651 47.112139 114.815129 48.414625 118.093437 48.414625 
z
" clip-path="url(#p06c98e3ef2)" style="fill: #440154; stroke: #000000; stroke-linejoin: miter"/>
   </g>
   <g id="patch_7">
    <path d="M 145.563437 48.414625 
C 148.841746 48.414625 151.986224 47.112139 154.304338 44.794025 
C 156.622452 42.475912 157.924937 39.331433 157.924937 36.053125 
C 157.924937 32.774817 156.622452 29.630338 154.304338 27.312225 
C 151.986224 24.994111 148.841746 23.691625 145.563437 23.691625 
C 142.285129 23.691625 139.140651 24.994111 136.822537 27.312225 
C 134.504423 29.630338 133.201937 32.774817 133.201937 36.053125 
C 133.201937 39.331433 134.504423 42.475912 136.822537 44.794025 
C 139.140651 47.112139 142.285129 48.414625 145.563437 48.414625 
z
" clip-path="url(#p06c98e3ef2)" style="fill: #440154; stroke: #000000; stroke-linejoin: miter"/>
   </g>
   <g id="patch_8">
    <path d="M 173.033437 48.414625 
C 176.311746 48.414625 179.456224 47.112139 181.774338 44.794025 
C 184.092452 42.475912 185.394937 39.331433 185.394937 36.053125 
C 185.394937 32.774817 184.092452 29.630338 181.774338 27.312225 
C 179.456224 24.994111 176.311746 23.691625 173.033437 23.691625 
C 169.755129 23.691625 166.610651 24.994111 164.292537 27.312225 
C 161.974423 29.630338 160.671937 32.774817 160.671937 36.053125 
C 160.671937 39.331433 161.974423 42.475912 164.292537 44.794025 
C 166.610651 47.112139 169.755129 48.414625 173.033437 48.414625 
z
" clip-path="url(#p06c98e3ef2)" style="fill: #440154; stroke: #000000; stroke-linejoin: miter"/>
   </g>
   <g id="patch_9">
    <path d="M 200.503437 48.414625 
C 203.781746 48.414625 206.926224 47.112139 209.244338 44.794025 
C 211.562452 42.475912 212.864937 39.331433 212.864937 36.053125 
C 212.864937 32.774817 211.562452 29.630338 209.244338 27.312225 
C 206.926224 24.994111 203.781746 23.691625 200.503437 23.691625 
C 197.225129 23.691625 194.080651 24.994111 191.762537 27.312225 
C 189.444423 29.630338 188.141937 32.774817 188.141937 36.053125 
C 188.141937 39.331433 189.444423 42.475912 191.762537 44.794025 
C 194.080651 47.112139 197.225129 48.414625 200.503437 48.414625 
z
" clip-path="url(#p06c98e3ef2)" style="fill: #440154; stroke: #000000; stroke-linejoin: miter"/>
   </g>
   <g id="patch_10">
    <path d="M 227.973437 48.414625 
C 231.251746 48.414625 234.396224 47.112139 236.714338 44.794025 
C 239.032452 42.475912 240.334937 39.331433 240.334937 36.053125 
C 240.334937 32.774817 239.032452 29.630338 236.714338 27.312225 
C 234.396224 24.994111 231.251746 23.691625 227.973437 23.691625 
C 224.695129 23.691625 221.550651 24.994111 219.232537 27.312225 
C 216.914423 29.630338 215.611937 32.774817 215.611937 36.053125 
C 215.611937 39.331433 216.914423 42.475912 219.232537 44.794025 
C 221.550651 47.112139 224.695129 48.414625 227.973437 48.414625 
z
" clip-path="url(#p06c98e3ef2)" style="fill: #440154; stroke: #000000; stroke-linejoin: miter"/>
   </g>
   <g id="patch_11">
    <path d="M 255.443437 48.414625 
C 258.721746 48.414625 261.866224 47.112139 264.184338 44.794025 
C 266.502452 42.475912 267.804937 39.331433 267.804937 36.053125 
C 267.804937 32.774817 266.502452 29.630338 264.184338 27.312225 
C 261.866224 24.994111 258.721746 23.691625 255.443437 23.691625 
C 252.165129 23.691625 249.020651 24.994111 246.702537 27.312225 
C 244.384423 29.630338 243.081937 32.774817 243.081937 36.053125 
C 243.081937 39.331433 244.384423 42.475912 246.702537 44.794025 
C 249.020651 47.112139 252.165129 48.414625 255.443437 48.414625 
z
" clip-path="url(#p06c98e3ef2)" style="fill: #440154; stroke: #000000; stroke-linejoin: miter"/>
   </g>
   <g id="patch_12">
    <path d="M 282.913437 48.414625 
C 286.191746 48.414625 289.336224 47.112139 291.654338 44.794025 
C 293.972452 42.475912 295.274937 39.331433 295.274937 36.053125 
C 295.274937 32.774817 293.972452 29.630338 291.654338 27.312225 
C 289.336224 24.994111 286.191746 23.691625 282.913437 23.691625 
C 279.635129 23.691625 276.490651 24.994111 274.172537 27.312225 
C 271.854423 29.630338 270.551938 32.774817 270.551938 36.053125 
C 270.551938 39.331433 271.854423 42.475912 274.172537 44.794025 
C 276.490651 47.112139 279.635129 48.414625 282.913437 48.414625 
z
" clip-path="url(#p06c98e3ef2)" style="fill: #440154; stroke: #000000; stroke-linejoin: miter"/>
   </g>
   <g id="patch_13">
    <path d="M 310.383438 48.414625 
C 313.661746 48.414625 316.806224 47.112139 319.124338 44.794025 
C 321.442452 42.475912 322.744937 39.331433 322.744937 36.053125 
C 322.744937 32.774817 321.442452 29.630338 319.124338 27.312225 
C 316.806224 24.994111 313.661746 23.691625 310.383438 23.691625 
C 307.105129 23.691625 303.960651 24.994111 301.642537 27.312225 
C 299.324423 29.630338 298.021938 32.774817 298.021938 36.053125 
C 298.021938 39.331433 299.324423 42.475912 301.642537 44.794025 
C 303.960651 47.112139 307.105129 48.414625 310.383438 48.414625 
z
" clip-path="url(#p06c98e3ef2)" style="fill: #440154; stroke: #000000; stroke-linejoin: miter"/>
   </g>
   <g id="patch_14">
    <path d="M 337.853437 48.414625 
C 341.131746 48.414625 344.276224 47.112139 346.594338 44.794025 
C 348.912452 42.475912 350.214937 39.331433 350.214937 36.053125 
C 350.214937 32.774817 348.912452 29.630338 346.594338 27.312225 
C 344.276224 24.994111 341.131746 23.691625 337.853437 23.691625 
C 334.575129 23.691625 331.430651 24.994111 329.112537 27.312225 
C 326.794423 29.630338 325.491937 32.774817 325.491937 36.053125 
C 325.491937 39.331433 326.794423 42.475912 329.112537 44.794025 
C 331.430651 47.112139 334.575129 48.414625 337.853437 48.414625 
z
" clip-path="url(#p06c98e3ef2)" style="fill: #440154; stroke: #000000; stroke-linejoin: miter"/>
   </g>
   <g id="patch_15">
    <path d="M 35.683437 75.884625 
C 38.961746 75.884625 42.106224 74.582139 44.424338 72.264025 
C 46.742452 69.945912 48.044937 66.801433 48.044937 63.523125 
C 48.044937 60.244817 46.742452 57.100338 44.424338 54.782225 
C 42.106224 52.464111 38.961746 51.161625 35.683437 51.161625 
C 32.405129 51.161625 29.260651 52.464111 26.942537 54.782225 
C 24.624423 57.100338 23.321937 60.244817 23.321937 63.523125 
C 23.321937 66.801433 24.624423 69.945912 26.942537 72.264025 
C 29.260651 74.582139 32.405129 75.884625 35.683437 75.884625 
z
" clip-path="url(#p06c98e3ef2)" style="fill: #440154; stroke: #000000; stroke-linejoin: miter"/>
   </g>
   <g id="patch_16">
    <path d="M 63.153437 75.884625 
C 66.431746 75.884625 69.576224 74.582139 71.894338 72.264025 
C 74.212452 69.945912 75.514938 66.801433 75.514938 63.523125 
C 75.514938 60.244817 74.212452 57.100338 71.894338 54.782225 
C 69.576224 52.464111 66.431746 51.161625 63.153437 51.161625 
C 59.875129 51.161625 56.730651 52.464111 54.412537 54.782225 
C 52.094423 57.100338 50.791937 60.244817 50.791937 63.523125 
C 50.791937 66.801433 52.094423 69.945912 54.412537 72.264025 
C 56.730651 74.582139 59.875129 75.884625 63.153437 75.884625 
z
" clip-path="url(#p06c98e3ef2)" style="fill: #440154; stroke: #000000; stroke-linejoin: miter"/>
   </g>
   <g id="patch_17">
    <path d="M 90.623437 75.884625 
C 93.901746 75.884625 97.046224 74.582139 99.364338 72.264025 
C 101.682452 69.945912 102.984938 66.801433 102.984938 63.523125 
C 102.984938 60.244817 101.682452 57.100338 99.364338 54.782225 
C 97.046224 52.464111 93.901746 51.161625 90.623437 51.161625 
C 87.345129 51.161625 84.200651 52.464111 81.882537 54.782225 
C 79.564423 57.100338 78.261937 60.244817 78.261937 63.523125 
C 78.261937 66.801433 79.564423 69.945912 81.882537 72.264025 
C 84.200651 74.582139 87.345129 75.884625 90.623437 75.884625 
z
" clip-path="url(#p06c98e3ef2)" style="fill: #440154; stroke: #000000; stroke-linejoin: miter"/>
   </g>
   <g id="patch_18">
    <path d="M 118.093437 75.884625 
C 121.371746 75.884625 124.516224 74.582139 126.834338 72.264025 
C 129.152452 69.945912 130.454937 66.801433 130.454937 63.523125 
C 130.454937 60.244817 129.152452 57.100338 126.834338 54.782225 
C 124.516224 52.464111 121.371746 51.161625 118.093437 51.161625 
C 114.815129 51.161625 111.670651 52.464111 109.352537 54.782225 
C 107.034423 57.100338 105.731937 60.244817 105.731937 63.523125 
C 105.731937 66.801433 107.034423 69.945912 109.352537 72.264025 
C 111.670651 74.582139 114.815129 75.884625 118.093437 75.884625 
z
" clip-path="url(#p06c98e3ef2)" style="fill: #440154; stroke: #000000; stroke-linejoin: miter"/>
   </g>
   <g id="patch_19">
    <path d="M 145.563437 75.884625 
C 148.841746 75.884625 151.986224 74.582139 154.304338 72.264025 
C 156.622452 69.945912 157.924937 66.801433 157.924937 63.523125 
C 157.924937 60.244817 156.622452 57.100338 154.304338 54.782225 
C 151.986224 52.464111 148.841746 51.161625 145.563437 51.161625 
C 142.285129 51.161625 139.140651 52.464111 136.822537 54.782225 
C 134.504423 57.100338 133.201937 60.244817 133.201937 63.523125 
C 133.201937 66.801433 134.504423 69.945912 136.822537 72.264025 
C 139.140651 74.582139 142.285129 75.884625 145.563437 75.884625 
z
" clip-path="url(#p06c98e3ef2)" style="fill: #440154; stroke: #000000; stroke-linejoin: miter"/>
   </g>
   <g id="patch_20">
    <path d="M 173.033437 75.884625 
C 176.311746 75.884625 179.456224 74.582139 181.774338 72.264025 
C 184.092452 69.945912 185.394937 66.801433 185.394937 63.523125 
C 185.394937 60.244817 184.092452 57.100338 181.774338 54.782225 
C 179.456224 52.464111 176.311746 51.161625 173.033437 51.161625 
C 169.755129 51.161625 166.610651 52.464111 164.292537 54.782225 
C 161.974423 57.100338 160.671937 60.244817 160.671937 63.523125 
C 160.671937 66.801433 161.974423 69.945912 164.292537 72.264025 
C 166.610651 74.582139 169.755129 75.884625 173.033437 75.884625 
z
" clip-path="url(#p06c98e3ef2)" style="fill: #440154; stroke: #000000; stroke-linejoin: miter"/>
   </g>
   <g id="patch_21">
    <path d="M 200.503437 75.884625 
C 203.781746 75.884625 206.926224 74.582139 209.244338 72.264025 
C 211.562452 69.945912 212.864937 66.801433 212.864937 63.523125 
C 212.864937 60.244817 211.562452 57.100338 209.244338 54.782225 
C 206.926224 52.464111 203.781746 51.161625 200.503437 51.161625 
C 197.225129 51.161625 194.080651 52.464111 191.762537 54.782225 
C 189.444423 57.100338 188.141937 60.244817 188.141937 63.523125 
C 188.141937 66.801433 189.444423 69.945912 191.762537 72.264025 
C 194.080651 74.582139 197.225129 75.884625 200.503437 75.884625 
z
" clip-path="url(#p06c98e3ef2)" style="fill: #440154; stroke: #000000; stroke-linejoin: miter"/>
   </g>
   <g id="patch_22">
    <path d="M 227.973437 75.884625 
C 231.251746 75.884625 234.396224 74.582139 236.714338 72.264025 
C 239.032452 69.945912 240.334937 66.801433 240.334937 63.523125 
C 240.334937 60.244817 239.032452 57.100338 236.714338 54.782225 
C 234.396224 52.464111 231.251746 51.161625 227.973437 51.161625 
C 224.695129 51.161625 221.550651 52.464111 219.232537 54.782225 
C 216.914423 57.100338 215.611937 60.244817 215.611937 63.523125 
C 215.611937 66.801433 216.914423 69.945912 219.232537 72.264025 
C 221.550651 74.582139 224.695129 75.884625 227.973437 75.884625 
z
" clip-path="url(#p06c98e3ef2)" style="fill: #440154; stroke: #000000; stroke-linejoin: miter"/>
   </g>
   <g id="patch_23">
    <path d="M 255.443437 75.884625 
C 258.721746 75.884625 261.866224 74.582139 264.184338 72.264025 
C 266.502452 69.945912 267.804937 66.801433 267.804937 63.523125 
C 267.804937 60.244817 266.502452 57.100338 264.184338 54.782225 
C 261.866224 52.464111 258.721746 51.161625 255.443437 51.161625 
C 252.165129 51.161625 249.020651 52.464111 246.702537 54.782225 
C 244.384423 57.100338 243.081937 60.244817 243.081937 63.523125 
C 243.081937 66.801433 244.384423 69.945912 246.702537 72.264025 
C 249.020651 74.582139 252.165129 75.884625 255.443437 75.884625 
z
" clip-path="url(#p06c98e3ef2)" style="fill: #440154; stroke: #000000; stroke-linejoin: miter"/>
   </g>
   <g id="patch_24">
    <path d="M 282.913437 75.884625 
C 286.191746 75.884625 289.336224 74.582139 291.654338 72.264025 
C 293.972452 69.945912 295.274937 66.801433 295.274937 63.523125 
C 295.274937 60.244817 293.972452 57.100338 291.654338 54.782225 
C 289.336224 52.464111 286.191746 51.161625 282.913437 51.161625 
C 279.635129 51.161625 276.490651 52.464111 274.172537 54.782225 
C 271.854423 57.100338 270.551938 60.244817 270.551938 63.523125 
C 270.551938 66.801433 271.854423 69.945912 274.172537 72.264025 
C 276.490651 74.582139 279.635129 75.884625 282.913437 75.884625 
z
" clip-path="url(#p06c98e3ef2)" style="fill: #440154; stroke: #000000; stroke-linejoin: miter"/>
   </g>
   <g id="patch_25">
    <path d="M 310.383438 75.884625 
C 313.661746 75.884625 316.806224 74.582139 319.124338 72.264025 
C 321.442452 69.945912 322.744937 66.801433 322.744937 63.523125 
C 322.744937 60.244817 321.442452 57.100338 319.124338 54.782225 
C 316.806224 52.464111 313.661746 51.161625 310.383438 51.161625 
C 307.105129 51.161625 303.960651 52.464111 301.642537 54.782225 
C 299.324423 57.100338 298.021938 60.244817 298.021938 63.523125 
C 298.021938 66.801433 299.324423 69.945912 301.642537 72.264025 
C 303.960651 74.582139 307.105129 75.884625 310.383438 75.884625 
z
" clip-path="url(#p06c98e3ef2)" style="fill: #440154; stroke: #000000; stroke-linejoin: miter"/>
   </g>
   <g id="patch_26">
    <path d="M 337.853437 75.884625 
C 341.131746 75.884625 344.276224 74.582139 346.594338 72.264025 
C 348.912452 69.945912 350.214937 66.801433 350.214937 63.523125 
C 350.214937 60.244817 348.912452 57.100338 346.594338 54.782225 
C 344.276224 52.464111 341.131746 51.161625 337.853437 51.161625 
C 334.575129 51.161625 331.430651 52.464111 329.112537 54.782225 
C 326.794423 57.100338 325.491937 60.244817 325.491937 63.523125 
C 325.491937 66.801433 326.794423 69.945912 329.112537 72.264025 
C 331.430651 74.582139 334.575129 75.884625 337.853437 75.884625 
z
" clip-path="url(#p06c98e3ef2)" style="fill: #440154; stroke: #000000; stroke-linejoin: miter"/>
   </g>
   <g id="patch_27">
    <path d="M 35.683437 103.354625 
C 38.961746 103.354625 42.106224 102.052139 44.424338 99.734025 
C 46.742452 97.415912 48.044937 94.271433 48.044937 90.993125 
C 48.044937 87.714817 46.742452 84.570338 44.424338 82.252225 
C 42.106224 79.934111 38.961746 78.631625 35.683437 78.631625 
C 32.405129 78.631625 29.260651 79.934111 26.942537 82.252225 
C 24.624423 84.570338 23.321937 87.714817 23.321937 90.993125 
C 23.321937 94.271433 24.624423 97.415912 26.942537 99.734025 
C 29.260651 102.052139 32.405129 103.354625 35.683437 103.354625 
z
" clip-path="url(#p06c98e3ef2)" style="fill: #440154; stroke: #000000; stroke-linejoin: miter"/>
   </g>
   <g id="patch_28">
    <path d="M 63.153437 103.354625 
C 66.431746 103.354625 69.576224 102.052139 71.894338 99.734025 
C 74.212452 97.415912 75.514938 94.271433 75.514938 90.993125 
C 75.514938 87.714817 74.212452 84.570338 71.894338 82.252225 
C 69.576224 79.934111 66.431746 78.631625 63.153437 78.631625 
C 59.875129 78.631625 56.730651 79.934111 54.412537 82.252225 
C 52.094423 84.570338 50.791937 87.714817 50.791937 90.993125 
C 50.791937 94.271433 52.094423 97.415912 54.412537 99.734025 
C 56.730651 102.052139 59.875129 103.354625 63.153437 103.354625 
z
" clip-path="url(#p06c98e3ef2)" style="fill: #440154; stroke: #000000; stroke-linejoin: miter"/>
   </g>
   <g id="patch_29">
    <path d="M 90.623437 103.354625 
C 93.901746 103.354625 97.046224 102.052139 99.364338 99.734025 
C 101.682452 97.415912 102.984938 94.271433 102.984938 90.993125 
C 102.984938 87.714817 101.682452 84.570338 99.364338 82.252225 
C 97.046224 79.934111 93.901746 78.631625 90.623437 78.631625 
C 87.345129 78.631625 84.200651 79.934111 81.882537 82.252225 
C 79.564423 84.570338 78.261937 87.714817 78.261937 90.993125 
C 78.261937 94.271433 79.564423 97.415912 81.882537 99.734025 
C 84.200651 102.052139 87.345129 103.354625 90.623437 103.354625 
z
" clip-path="url(#p06c98e3ef2)" style="fill: #440154; stroke: #000000; stroke-linejoin: miter"/>
   </g>
   <g id="patch_30">
    <path d="M 118.093437 103.354625 
C 121.371746 103.354625 124.516224 102.052139 126.834338 99.734025 
C 129.152452 97.415912 130.454937 94.271433 130.454937 90.993125 
C 130.454937 87.714817 129.152452 84.570338 126.834338 82.252225 
C 124.516224 79.934111 121.371746 78.631625 118.093437 78.631625 
C 114.815129 78.631625 111.670651 79.934111 109.352537 82.252225 
C 107.034423 84.570338 105.731937 87.714817 105.731937 90.993125 
C 105.731937 94.271433 107.034423 97.415912 109.352537 99.734025 
C 111.670651 102.052139 114.815129 103.354625 118.093437 103.354625 
z
" clip-path="url(#p06c98e3ef2)" style="fill: #440154; stroke: #000000; stroke-linejoin: miter"/>
   </g>
   <g id="patch_31">
    <path d="M 145.563437 103.354625 
C 148.841746 103.354625 151.986224 102.052139 154.304338 99.734025 
C 156.622452 97.415912 157.924937 94.271433 157.924937 90.993125 
C 157.924937 87.714817 156.622452 84.570338 154.304338 82.252225 
C 151.986224 79.934111 148.841746 78.631625 145.563437 78.631625 
C 142.285129 78.631625 139.140651 79.934111 136.822537 82.252225 
C 134.504423 84.570338 133.201937 87.714817 133.201937 90.993125 
C 133.201937 94.271433 134.504423 97.415912 136.822537 99.734025 
C 139.140651 102.052139 142.285129 103.354625 145.563437 103.354625 
z
" clip-path="url(#p06c98e3ef2)" style="fill: #440154; stroke: #000000; stroke-linejoin: miter"/>
   </g>
   <g id="patch_32">
    <path d="M 173.033437 103.354625 
C 176.311746 103.354625 179.456224 102.052139 181.774338 99.734025 
C 184.092452 97.415912 185.394937 94.271433 185.394937 90.993125 
C 185.394937 87.714817 184.092452 84.570338 181.774338 82.252225 
C 179.456224 79.934111 176.311746 78.631625 173.033437 78.631625 
C 169.755129 78.631625 166.610651 79.934111 164.292537 82.252225 
C 161.974423 84.570338 160.671937 87.714817 160.671937 90.993125 
C 160.671937 94.271433 161.974423 97.415912 164.292537 99.734025 
C 166.610651 102.052139 169.755129 103.354625 173.033437 103.354625 
z
" clip-path="url(#p06c98e3ef2)" style="fill: #440154; stroke: #000000; stroke-linejoin: miter"/>
   </g>
   <g id="patch_33">
    <path d="M 200.503437 103.354625 
C 203.781746 103.354625 206.926224 102.052139 209.244338 99.734025 
C 211.562452 97.415912 212.864937 94.271433 212.864937 90.993125 
C 212.864937 87.714817 211.562452 84.570338 209.244338 82.252225 
C 206.926224 79.934111 203.781746 78.631625 200.503437 78.631625 
C 197.225129 78.631625 194.080651 79.934111 191.762537 82.252225 
C 189.444423 84.570338 188.141937 87.714817 188.141937 90.993125 
C 188.141937 94.271433 189.444423 97.415912 191.762537 99.734025 
C 194.080651 102.052139 197.225129 103.354625 200.503437 103.354625 
z
" clip-path="url(#p06c98e3ef2)" style="fill: #440154; stroke: #000000; stroke-linejoin: miter"/>
   </g>
   <g id="patch_34">
    <path d="M 227.973437 103.354625 
C 231.251746 103.354625 234.396224 102.052139 236.714338 99.734025 
C 239.032452 97.415912 240.334937 94.271433 240.334937 90.993125 
C 240.334937 87.714817 239.032452 84.570338 236.714338 82.252225 
C 234.396224 79.934111 231.251746 78.631625 227.973437 78.631625 
C 224.695129 78.631625 221.550651 79.934111 219.232537 82.252225 
C 216.914423 84.570338 215.611937 87.714817 215.611937 90.993125 
C 215.611937 94.271433 216.914423 97.415912 219.232537 99.734025 
C 221.550651 102.052139 224.695129 103.354625 227.973437 103.354625 
z
" clip-path="url(#p06c98e3ef2)" style="fill: #440154; stroke: #000000; stroke-linejoin: miter"/>
   </g>
   <g id="patch_35">
    <path d="M 255.443437 103.354625 
C 258.721746 103.354625 261.866224 102.052139 264.184338 99.734025 
C 266.502452 97.415912 267.804937 94.271433 267.804937 90.993125 
C 267.804937 87.714817 266.502452 84.570338 264.184338 82.252225 
C 261.866224 79.934111 258.721746 78.631625 255.443437 78.631625 
C 252.165129 78.631625 249.020651 79.934111 246.702537 82.252225 
C 244.384423 84.570338 243.081937 87.714817 243.081937 90.993125 
C 243.081937 94.271433 244.384423 97.415912 246.702537 99.734025 
C 249.020651 102.052139 252.165129 103.354625 255.443437 103.354625 
z
" clip-path="url(#p06c98e3ef2)" style="fill: #440154; stroke: #000000; stroke-linejoin: miter"/>
   </g>
   <g id="patch_36">
    <path d="M 282.913437 103.354625 
C 286.191746 103.354625 289.336224 102.052139 291.654338 99.734025 
C 293.972452 97.415912 295.274937 94.271433 295.274937 90.993125 
C 295.274937 87.714817 293.972452 84.570338 291.654338 82.252225 
C 289.336224 79.934111 286.191746 78.631625 282.913437 78.631625 
C 279.635129 78.631625 276.490651 79.934111 274.172537 82.252225 
C 271.854423 84.570338 270.551938 87.714817 270.551938 90.993125 
C 270.551938 94.271433 271.854423 97.415912 274.172537 99.734025 
C 276.490651 102.052139 279.635129 103.354625 282.913437 103.354625 
z
" clip-path="url(#p06c98e3ef2)" style="fill: #440154; stroke: #000000; stroke-linejoin: miter"/>
   </g>
   <g id="patch_37">
    <path d="M 310.383438 103.354625 
C 313.661746 103.354625 316.806224 102.052139 319.124338 99.734025 
C 321.442452 97.415912 322.744937 94.271433 322.744937 90.993125 
C 322.744937 87.714817 321.442452 84.570338 319.124338 82.252225 
C 316.806224 79.934111 313.661746 78.631625 310.383438 78.631625 
C 307.105129 78.631625 303.960651 79.934111 301.642537 82.252225 
C 299.324423 84.570338 298.021938 87.714817 298.021938 90.993125 
C 298.021938 94.271433 299.324423 97.415912 301.642537 99.734025 
C 303.960651 102.052139 307.105129 103.354625 310.383438 103.354625 
z
" clip-path="url(#p06c98e3ef2)" style="fill: #440154; stroke: #000000; stroke-linejoin: miter"/>
   </g>
   <g id="patch_38">
    <path d="M 337.853437 103.354625 
C 341.131746 103.354625 344.276224 102.052139 346.594338 99.734025 
C 348.912452 97.415912 350.214937 94.271433 350.214937 90.993125 
C 350.214937 87.714817 348.912452 84.570338 346.594338 82.252225 
C 344.276224 79.934111 341.131746 78.631625 337.853437 78.631625 
C 334.575129 78.631625 331.430651 79.934111 329.112537 82.252225 
C 326.794423 84.570338 325.491937 87.714817 325.491937 90.993125 
C 325.491937 94.271433 326.794423 97.415912 329.112537 99.734025 
C 331.430651 102.052139 334.575129 103.354625 337.853437 103.354625 
z
" clip-path="url(#p06c98e3ef2)" style="fill: #440154; stroke: #000000; stroke-linejoin: miter"/>
   </g>
   <g id="patch_39">
    <path d="M 35.683437 130.824625 
C 38.961746 130.824625 42.106224 129.522139 44.424338 127.204025 
C 46.742452 124.885912 48.044937 121.741433 48.044937 118.463125 
C 48.044937 115.184817 46.742452 112.040338 44.424338 109.722225 
C 42.106224 107.404111 38.961746 106.101625 35.683437 106.101625 
C 32.405129 106.101625 29.260651 107.404111 26.942537 109.722225 
C 24.624423 112.040338 23.321937 115.184817 23.321937 118.463125 
C 23.321937 121.741433 24.624423 124.885912 26.942537 127.204025 
C 29.260651 129.522139 32.405129 130.824625 35.683437 130.824625 
z
" clip-path="url(#p06c98e3ef2)" style="fill: #440154; stroke: #000000; stroke-linejoin: miter"/>
   </g>
   <g id="patch_40">
    <path d="M 63.153437 130.824625 
C 66.431746 130.824625 69.576224 129.522139 71.894338 127.204025 
C 74.212452 124.885912 75.514938 121.741433 75.514938 118.463125 
C 75.514938 115.184817 74.212452 112.040338 71.894338 109.722225 
C 69.576224 107.404111 66.431746 106.101625 63.153437 106.101625 
C 59.875129 106.101625 56.730651 107.404111 54.412537 109.722225 
C 52.094423 112.040338 50.791937 115.184817 50.791937 118.463125 
C 50.791937 121.741433 52.094423 124.885912 54.412537 127.204025 
C 56.730651 129.522139 59.875129 130.824625 63.153437 130.824625 
z
" clip-path="url(#p06c98e3ef2)" style="fill: #440154; stroke: #000000; stroke-linejoin: miter"/>
   </g>
   <g id="patch_41">
    <path d="M 90.623437 130.824625 
C 93.901746 130.824625 97.046224 129.522139 99.364338 127.204025 
C 101.682452 124.885912 102.984938 121.741433 102.984938 118.463125 
C 102.984938 115.184817 101.682452 112.040338 99.364338 109.722225 
C 97.046224 107.404111 93.901746 106.101625 90.623437 106.101625 
C 87.345129 106.101625 84.200651 107.404111 81.882537 109.722225 
C 79.564423 112.040338 78.261937 115.184817 78.261937 118.463125 
C 78.261937 121.741433 79.564423 124.885912 81.882537 127.204025 
C 84.200651 129.522139 87.345129 130.824625 90.623437 130.824625 
z
" clip-path="url(#p06c98e3ef2)" style="fill: #440154; stroke: #000000; stroke-linejoin: miter"/>
   </g>
   <g id="patch_42">
    <path d="M 118.093437 130.824625 
C 121.371746 130.824625 124.516224 129.522139 126.834338 127.204025 
C 129.152452 124.885912 130.454937 121.741433 130.454937 118.463125 
C 130.454937 115.184817 129.152452 112.040338 126.834338 109.722225 
C 124.516224 107.404111 121.371746 106.101625 118.093437 106.101625 
C 114.815129 106.101625 111.670651 107.404111 109.352537 109.722225 
C 107.034423 112.040338 105.731937 115.184817 105.731937 118.463125 
C 105.731937 121.741433 107.034423 124.885912 109.352537 127.204025 
C 111.670651 129.522139 114.815129 130.824625 118.093437 130.824625 
z
" clip-path="url(#p06c98e3ef2)" style="fill: #440154; stroke: #000000; stroke-linejoin: miter"/>
   </g>
   <g id="patch_43">
    <path d="M 145.563437 130.824625 
C 148.841746 130.824625 151.986224 129.522139 154.304338 127.204025 
C 156.622452 124.885912 157.924937 121.741433 157.924937 118.463125 
C 157.924937 115.184817 156.622452 112.040338 154.304338 109.722225 
C 151.986224 107.404111 148.841746 106.101625 145.563437 106.101625 
C 142.285129 106.101625 139.140651 107.404111 136.822537 109.722225 
C 134.504423 112.040338 133.201937 115.184817 133.201937 118.463125 
C 133.201937 121.741433 134.504423 124.885912 136.822537 127.204025 
C 139.140651 129.522139 142.285129 130.824625 145.563437 130.824625 
z
" clip-path="url(#p06c98e3ef2)" style="fill: #440154; stroke: #000000; stroke-linejoin: miter"/>
   </g>
   <g id="patch_44">
    <path d="M 173.033437 130.824625 
C 176.311746 130.824625 179.456224 129.522139 181.774338 127.204025 
C 184.092452 124.885912 185.394937 121.741433 185.394937 118.463125 
C 185.394937 115.184817 184.092452 112.040338 181.774338 109.722225 
C 179.456224 107.404111 176.311746 106.101625 173.033437 106.101625 
C 169.755129 106.101625 166.610651 107.404111 164.292537 109.722225 
C 161.974423 112.040338 160.671937 115.184817 160.671937 118.463125 
C 160.671937 121.741433 161.974423 124.885912 164.292537 127.204025 
C 166.610651 129.522139 169.755129 130.824625 173.033437 130.824625 
z
" clip-path="url(#p06c98e3ef2)" style="fill: #440154; stroke: #000000; stroke-linejoin: miter"/>
   </g>
   <g id="patch_45">
    <path d="M 200.503437 130.824625 
C 203.781746 130.824625 206.926224 129.522139 209.244338 127.204025 
C 211.562452 124.885912 212.864937 121.741433 212.864937 118.463125 
C 212.864937 115.184817 211.562452 112.040338 209.244338 109.722225 
C 206.926224 107.404111 203.781746 106.101625 200.503437 106.101625 
C 197.225129 106.101625 194.080651 107.404111 191.762537 109.722225 
C 189.444423 112.040338 188.141937 115.184817 188.141937 118.463125 
C 188.141937 121.741433 189.444423 124.885912 191.762537 127.204025 
C 194.080651 129.522139 197.225129 130.824625 200.503437 130.824625 
z
" clip-path="url(#p06c98e3ef2)" style="fill: #440154; stroke: #000000; stroke-linejoin: miter"/>
   </g>
   <g id="patch_46">
    <path d="M 227.973437 130.824625 
C 231.251746 130.824625 234.396224 129.522139 236.714338 127.204025 
C 239.032452 124.885912 240.334937 121.741433 240.334937 118.463125 
C 240.334937 115.184817 239.032452 112.040338 236.714338 109.722225 
C 234.396224 107.404111 231.251746 106.101625 227.973437 106.101625 
C 224.695129 106.101625 221.550651 107.404111 219.232537 109.722225 
C 216.914423 112.040338 215.611937 115.184817 215.611937 118.463125 
C 215.611937 121.741433 216.914423 124.885912 219.232537 127.204025 
C 221.550651 129.522139 224.695129 130.824625 227.973437 130.824625 
z
" clip-path="url(#p06c98e3ef2)" style="fill: #440154; stroke: #000000; stroke-linejoin: miter"/>
   </g>
   <g id="patch_47">
    <path d="M 255.443437 130.824625 
C 258.721746 130.824625 261.866224 129.522139 264.184338 127.204025 
C 266.502452 124.885912 267.804937 121.741433 267.804937 118.463125 
C 267.804937 115.184817 266.502452 112.040338 264.184338 109.722225 
C 261.866224 107.404111 258.721746 106.101625 255.443437 106.101625 
C 252.165129 106.101625 249.020651 107.404111 246.702537 109.722225 
C 244.384423 112.040338 243.081937 115.184817 243.081937 118.463125 
C 243.081937 121.741433 244.384423 124.885912 246.702537 127.204025 
C 249.020651 129.522139 252.165129 130.824625 255.443437 130.824625 
z
" clip-path="url(#p06c98e3ef2)" style="fill: #440154; stroke: #000000; stroke-linejoin: miter"/>
   </g>
   <g id="patch_48">
    <path d="M 282.913437 130.824625 
C 286.191746 130.824625 289.336224 129.522139 291.654338 127.204025 
C 293.972452 124.885912 295.274937 121.741433 295.274937 118.463125 
C 295.274937 115.184817 293.972452 112.040338 291.654338 109.722225 
C 289.336224 107.404111 286.191746 106.101625 282.913437 106.101625 
C 279.635129 106.101625 276.490651 107.404111 274.172537 109.722225 
C 271.854423 112.040338 270.551938 115.184817 270.551938 118.463125 
C 270.551938 121.741433 271.854423 124.885912 274.172537 127.204025 
C 276.490651 129.522139 279.635129 130.824625 282.913437 130.824625 
z
" clip-path="url(#p06c98e3ef2)" style="fill: #440154; stroke: #000000; stroke-linejoin: miter"/>
   </g>
   <g id="patch_49">
    <path d="M 310.383438 130.824625 
C 313.661746 130.824625 316.806224 129.522139 319.124338 127.204025 
C 321.442452 124.885912 322.744937 121.741433 322.744937 118.463125 
C 322.744937 115.184817 321.442452 112.040338 319.124338 109.722225 
C 316.806224 107.404111 313.661746 106.101625 310.383438 106.101625 
C 307.105129 106.101625 303.960651 107.404111 301.642537 109.722225 
C 299.324423 112.040338 298.021938 115.184817 298.021938 118.463125 
C 298.021938 121.741433 299.324423 124.885912 301.642537 127.204025 
C 303.960651 129.522139 307.105129 130.824625 310.383438 130.824625 
z
" clip-path="url(#p06c98e3ef2)" style="fill: #440154; stroke: #000000; stroke-linejoin: miter"/>
   </g>
   <g id="patch_50">
    <path d="M 337.853437 130.824625 
C 341.131746 130.824625 344.276224 129.522139 346.594338 127.204025 
C 348.912452 124.885912 350.214937 121.741433 350.214937 118.463125 
C 350.214937 115.184817 348.912452 112.040338 346.594338 109.722225 
C 344.276224 107.404111 341.131746 106.101625 337.853437 106.101625 
C 334.575129 106.101625 331.430651 107.404111 329.112537 109.722225 
C 326.794423 112.040338 325.491937 115.184817 325.491937 118.463125 
C 325.491937 121.741433 326.794423 124.885912 329.112537 127.204025 
C 331.430651 129.522139 334.575129 130.824625 337.853437 130.824625 
z
" clip-path="url(#p06c98e3ef2)" style="fill: #440154; stroke: #000000; stroke-linejoin: miter"/>
   </g>
   <g id="patch_51">
    <path d="M 35.683437 158.294625 
C 38.961746 158.294625 42.106224 156.992139 44.424338 154.674025 
C 46.742452 152.355912 48.044937 149.211433 48.044937 145.933125 
C 48.044937 142.654817 46.742452 139.510338 44.424338 137.192225 
C 42.106224 134.874111 38.961746 133.571625 35.683437 133.571625 
C 32.405129 133.571625 29.260651 134.874111 26.942537 137.192225 
C 24.624423 139.510338 23.321937 142.654817 23.321937 145.933125 
C 23.321937 149.211433 24.624423 152.355912 26.942537 154.674025 
C 29.260651 156.992139 32.405129 158.294625 35.683437 158.294625 
z
" clip-path="url(#p06c98e3ef2)" style="fill: #450559; stroke: #000000; stroke-linejoin: miter"/>
   </g>
   <g id="patch_52">
    <path d="M 63.153437 158.294625 
C 66.431746 158.294625 69.576224 156.992139 71.894338 154.674025 
C 74.212452 152.355912 75.514938 149.211433 75.514938 145.933125 
C 75.514938 142.654817 74.212452 139.510338 71.894338 137.192225 
C 69.576224 134.874111 66.431746 133.571625 63.153437 133.571625 
C 59.875129 133.571625 56.730651 134.874111 54.412537 137.192225 
C 52.094423 139.510338 50.791937 142.654817 50.791937 145.933125 
C 50.791937 149.211433 52.094423 152.355912 54.412537 154.674025 
C 56.730651 156.992139 59.875129 158.294625 63.153437 158.294625 
z
" clip-path="url(#p06c98e3ef2)" style="fill: #450559; stroke: #000000; stroke-linejoin: miter"/>
   </g>
   <g id="patch_53">
    <path d="M 90.623437 158.294625 
C 93.901746 158.294625 97.046224 156.992139 99.364338 154.674025 
C 101.682452 152.355912 102.984938 149.211433 102.984938 145.933125 
C 102.984938 142.654817 101.682452 139.510338 99.364338 137.192225 
C 97.046224 134.874111 93.901746 133.571625 90.623437 133.571625 
C 87.345129 133.571625 84.200651 134.874111 81.882537 137.192225 
C 79.564423 139.510338 78.261937 142.654817 78.261937 145.933125 
C 78.261937 149.211433 79.564423 152.355912 81.882537 154.674025 
C 84.200651 156.992139 87.345129 158.294625 90.623437 158.294625 
z
" clip-path="url(#p06c98e3ef2)" style="fill: #450559; stroke: #000000; stroke-linejoin: miter"/>
   </g>
   <g id="patch_54">
    <path d="M 118.093437 158.294625 
C 121.371746 158.294625 124.516224 156.992139 126.834338 154.674025 
C 129.152452 152.355912 130.454937 149.211433 130.454937 145.933125 
C 130.454937 142.654817 129.152452 139.510338 126.834338 137.192225 
C 124.516224 134.874111 121.371746 133.571625 118.093437 133.571625 
C 114.815129 133.571625 111.670651 134.874111 109.352537 137.192225 
C 107.034423 139.510338 105.731937 142.654817 105.731937 145.933125 
C 105.731937 149.211433 107.034423 152.355912 109.352537 154.674025 
C 111.670651 156.992139 114.815129 158.294625 118.093437 158.294625 
z
" clip-path="url(#p06c98e3ef2)" style="fill: #450559; stroke: #000000; stroke-linejoin: miter"/>
   </g>
   <g id="patch_55">
    <path d="M 145.563437 158.294625 
C 148.841746 158.294625 151.986224 156.992139 154.304338 154.674025 
C 156.622452 152.355912 157.924937 149.211433 157.924937 145.933125 
C 157.924937 142.654817 156.622452 139.510338 154.304338 137.192225 
C 151.986224 134.874111 148.841746 133.571625 145.563437 133.571625 
C 142.285129 133.571625 139.140651 134.874111 136.822537 137.192225 
C 134.504423 139.510338 133.201937 142.654817 133.201937 145.933125 
C 133.201937 149.211433 134.504423 152.355912 136.822537 154.674025 
C 139.140651 156.992139 142.285129 158.294625 145.563437 158.294625 
z
" clip-path="url(#p06c98e3ef2)" style="fill: #450559; stroke: #000000; stroke-linejoin: miter"/>
   </g>
   <g id="patch_56">
    <path d="M 173.033437 158.294625 
C 176.311746 158.294625 179.456224 156.992139 181.774338 154.674025 
C 184.092452 152.355912 185.394937 149.211433 185.394937 145.933125 
C 185.394937 142.654817 184.092452 139.510338 181.774338 137.192225 
C 179.456224 134.874111 176.311746 133.571625 173.033437 133.571625 
C 169.755129 133.571625 166.610651 134.874111 164.292537 137.192225 
C 161.974423 139.510338 160.671937 142.654817 160.671937 145.933125 
C 160.671937 149.211433 161.974423 152.355912 164.292537 154.674025 
C 166.610651 156.992139 169.755129 158.294625 173.033437 158.294625 
z
" clip-path="url(#p06c98e3ef2)" style="fill: #450559; stroke: #000000; stroke-linejoin: miter"/>
   </g>
   <g id="patch_57">
    <path d="M 200.503437 158.294625 
C 203.781746 158.294625 206.926224 156.992139 209.244338 154.674025 
C 211.562452 152.355912 212.864937 149.211433 212.864937 145.933125 
C 212.864937 142.654817 211.562452 139.510338 209.244338 137.192225 
C 206.926224 134.874111 203.781746 133.571625 200.503437 133.571625 
C 197.225129 133.571625 194.080651 134.874111 191.762537 137.192225 
C 189.444423 139.510338 188.141937 142.654817 188.141937 145.933125 
C 188.141937 149.211433 189.444423 152.355912 191.762537 154.674025 
C 194.080651 156.992139 197.225129 158.294625 200.503437 158.294625 
z
" clip-path="url(#p06c98e3ef2)" style="fill: #450559; stroke: #000000; stroke-linejoin: miter"/>
   </g>
   <g id="patch_58">
    <path d="M 227.973437 158.294625 
C 231.251746 158.294625 234.396224 156.992139 236.714338 154.674025 
C 239.032452 152.355912 240.334937 149.211433 240.334937 145.933125 
C 240.334937 142.654817 239.032452 139.510338 236.714338 137.192225 
C 234.396224 134.874111 231.251746 133.571625 227.973437 133.571625 
C 224.695129 133.571625 221.550651 134.874111 219.232537 137.192225 
C 216.914423 139.510338 215.611937 142.654817 215.611937 145.933125 
C 215.611937 149.211433 216.914423 152.355912 219.232537 154.674025 
C 221.550651 156.992139 224.695129 158.294625 227.973437 158.294625 
z
" clip-path="url(#p06c98e3ef2)" style="fill: #450559; stroke: #000000; stroke-linejoin: miter"/>
   </g>
   <g id="patch_59">
    <path d="M 255.443437 158.294625 
C 258.721746 158.294625 261.866224 156.992139 264.184338 154.674025 
C 266.502452 152.355912 267.804937 149.211433 267.804937 145.933125 
C 267.804937 142.654817 266.502452 139.510338 264.184338 137.192225 
C 261.866224 134.874111 258.721746 133.571625 255.443437 133.571625 
C 252.165129 133.571625 249.020651 134.874111 246.702537 137.192225 
C 244.384423 139.510338 243.081937 142.654817 243.081937 145.933125 
C 243.081937 149.211433 244.384423 152.355912 246.702537 154.674025 
C 249.020651 156.992139 252.165129 158.294625 255.443437 158.294625 
z
" clip-path="url(#p06c98e3ef2)" style="fill: #450559; stroke: #000000; stroke-linejoin: miter"/>
   </g>
   <g id="patch_60">
    <path d="M 282.913437 158.294625 
C 286.191746 158.294625 289.336224 156.992139 291.654338 154.674025 
C 293.972452 152.355912 295.274937 149.211433 295.274937 145.933125 
C 295.274937 142.654817 293.972452 139.510338 291.654338 137.192225 
C 289.336224 134.874111 286.191746 133.571625 282.913437 133.571625 
C 279.635129 133.571625 276.490651 134.874111 274.172537 137.192225 
C 271.854423 139.510338 270.551938 142.654817 270.551938 145.933125 
C 270.551938 149.211433 271.854423 152.355912 274.172537 154.674025 
C 276.490651 156.992139 279.635129 158.294625 282.913437 158.294625 
z
" clip-path="url(#p06c98e3ef2)" style="fill: #450559; stroke: #000000; stroke-linejoin: miter"/>
   </g>
   <g id="patch_61">
    <path d="M 310.383438 158.294625 
C 313.661746 158.294625 316.806224 156.992139 319.124338 154.674025 
C 321.442452 152.355912 322.744937 149.211433 322.744937 145.933125 
C 322.744937 142.654817 321.442452 139.510338 319.124338 137.192225 
C 316.806224 134.874111 313.661746 133.571625 310.383438 133.571625 
C 307.105129 133.571625 303.960651 134.874111 301.642537 137.192225 
C 299.324423 139.510338 298.021938 142.654817 298.021938 145.933125 
C 298.021938 149.211433 299.324423 152.355912 301.642537 154.674025 
C 303.960651 156.992139 307.105129 158.294625 310.383438 158.294625 
z
" clip-path="url(#p06c98e3ef2)" style="fill: #450559; stroke: #000000; stroke-linejoin: miter"/>
   </g>
   <g id="patch_62">
    <path d="M 337.853437 158.294625 
C 341.131746 158.294625 344.276224 156.992139 346.594338 154.674025 
C 348.912452 152.355912 350.214937 149.211433 350.214937 145.933125 
C 350.214937 142.654817 348.912452 139.510338 346.594338 137.192225 
C 344.276224 134.874111 341.131746 133.571625 337.853437 133.571625 
C 334.575129 133.571625 331.430651 134.874111 329.112537 137.192225 
C 326.794423 139.510338 325.491937 142.654817 325.491937 145.933125 
C 325.491937 149.211433 326.794423 152.355912 329.112537 154.674025 
C 331.430651 156.992139 334.575129 158.294625 337.853437 158.294625 
z
" clip-path="url(#p06c98e3ef2)" style="fill: #450559; stroke: #000000; stroke-linejoin: miter"/>
   </g>
   <g id="patch_63">
    <path d="M 35.683437 185.764625 
C 38.961746 185.764625 42.106224 184.462139 44.424338 182.144025 
C 46.742452 179.825912 48.044937 176.681433 48.044937 173.403125 
C 48.044937 170.124817 46.742452 166.980338 44.424338 164.662225 
C 42.106224 162.344111 38.961746 161.041625 35.683437 161.041625 
C 32.405129 161.041625 29.260651 162.344111 26.942537 164.662225 
C 24.624423 166.980338 23.321937 170.124817 23.321937 173.403125 
C 23.321937 176.681433 24.624423 179.825912 26.942537 182.144025 
C 29.260651 184.462139 32.405129 185.764625 35.683437 185.764625 
z
" clip-path="url(#p06c98e3ef2)" style="fill: #481467; stroke: #000000; stroke-linejoin: miter"/>
   </g>
   <g id="patch_64">
    <path d="M 63.153437 185.764625 
C 66.431746 185.764625 69.576224 184.462139 71.894338 182.144025 
C 74.212452 179.825912 75.514938 176.681433 75.514938 173.403125 
C 75.514938 170.124817 74.212452 166.980338 71.894338 164.662225 
C 69.576224 162.344111 66.431746 161.041625 63.153437 161.041625 
C 59.875129 161.041625 56.730651 162.344111 54.412537 164.662225 
C 52.094423 166.980338 50.791937 170.124817 50.791937 173.403125 
C 50.791937 176.681433 52.094423 179.825912 54.412537 182.144025 
C 56.730651 184.462139 59.875129 185.764625 63.153437 185.764625 
z
" clip-path="url(#p06c98e3ef2)" style="fill: #481467; stroke: #000000; stroke-linejoin: miter"/>
   </g>
   <g id="patch_65">
    <path d="M 90.623437 185.764625 
C 93.901746 185.764625 97.046224 184.462139 99.364338 182.144025 
C 101.682452 179.825912 102.984938 176.681433 102.984938 173.403125 
C 102.984938 170.124817 101.682452 166.980338 99.364338 164.662225 
C 97.046224 162.344111 93.901746 161.041625 90.623437 161.041625 
C 87.345129 161.041625 84.200651 162.344111 81.882537 164.662225 
C 79.564423 166.980338 78.261937 170.124817 78.261937 173.403125 
C 78.261937 176.681433 79.564423 179.825912 81.882537 182.144025 
C 84.200651 184.462139 87.345129 185.764625 90.623437 185.764625 
z
" clip-path="url(#p06c98e3ef2)" style="fill: #481467; stroke: #000000; stroke-linejoin: miter"/>
   </g>
   <g id="patch_66">
    <path d="M 118.093437 185.764625 
C 121.371746 185.764625 124.516224 184.462139 126.834338 182.144025 
C 129.152452 179.825912 130.454937 176.681433 130.454937 173.403125 
C 130.454937 170.124817 129.152452 166.980338 126.834338 164.662225 
C 124.516224 162.344111 121.371746 161.041625 118.093437 161.041625 
C 114.815129 161.041625 111.670651 162.344111 109.352537 164.662225 
C 107.034423 166.980338 105.731937 170.124817 105.731937 173.403125 
C 105.731937 176.681433 107.034423 179.825912 109.352537 182.144025 
C 111.670651 184.462139 114.815129 185.764625 118.093437 185.764625 
z
" clip-path="url(#p06c98e3ef2)" style="fill: #481467; stroke: #000000; stroke-linejoin: miter"/>
   </g>
   <g id="patch_67">
    <path d="M 145.563437 185.764625 
C 148.841746 185.764625 151.986224 184.462139 154.304338 182.144025 
C 156.622452 179.825912 157.924937 176.681433 157.924937 173.403125 
C 157.924937 170.124817 156.622452 166.980338 154.304338 164.662225 
C 151.986224 162.344111 148.841746 161.041625 145.563437 161.041625 
C 142.285129 161.041625 139.140651 162.344111 136.822537 164.662225 
C 134.504423 166.980338 133.201937 170.124817 133.201937 173.403125 
C 133.201937 176.681433 134.504423 179.825912 136.822537 182.144025 
C 139.140651 184.462139 142.285129 185.764625 145.563437 185.764625 
z
" clip-path="url(#p06c98e3ef2)" style="fill: #481467; stroke: #000000; stroke-linejoin: miter"/>
   </g>
   <g id="patch_68">
    <path d="M 173.033437 185.764625 
C 176.311746 185.764625 179.456224 184.462139 181.774338 182.144025 
C 184.092452 179.825912 185.394937 176.681433 185.394937 173.403125 
C 185.394937 170.124817 184.092452 166.980338 181.774338 164.662225 
C 179.456224 162.344111 176.311746 161.041625 173.033437 161.041625 
C 169.755129 161.041625 166.610651 162.344111 164.292537 164.662225 
C 161.974423 166.980338 160.671937 170.124817 160.671937 173.403125 
C 160.671937 176.681433 161.974423 179.825912 164.292537 182.144025 
C 166.610651 184.462139 169.755129 185.764625 173.033437 185.764625 
z
" clip-path="url(#p06c98e3ef2)" style="fill: #481467; stroke: #000000; stroke-linejoin: miter"/>
   </g>
   <g id="patch_69">
    <path d="M 200.503437 185.764625 
C 203.781746 185.764625 206.926224 184.462139 209.244338 182.144025 
C 211.562452 179.825912 212.864937 176.681433 212.864937 173.403125 
C 212.864937 170.124817 211.562452 166.980338 209.244338 164.662225 
C 206.926224 162.344111 203.781746 161.041625 200.503437 161.041625 
C 197.225129 161.041625 194.080651 162.344111 191.762537 164.662225 
C 189.444423 166.980338 188.141937 170.124817 188.141937 173.403125 
C 188.141937 176.681433 189.444423 179.825912 191.762537 182.144025 
C 194.080651 184.462139 197.225129 185.764625 200.503437 185.764625 
z
" clip-path="url(#p06c98e3ef2)" style="fill: #481467; stroke: #000000; stroke-linejoin: miter"/>
   </g>
   <g id="patch_70">
    <path d="M 227.973437 185.764625 
C 231.251746 185.764625 234.396224 184.462139 236.714338 182.144025 
C 239.032452 179.825912 240.334937 176.681433 240.334937 173.403125 
C 240.334937 170.124817 239.032452 166.980338 236.714338 164.662225 
C 234.396224 162.344111 231.251746 161.041625 227.973437 161.041625 
C 224.695129 161.041625 221.550651 162.344111 219.232537 164.662225 
C 216.914423 166.980338 215.611937 170.124817 215.611937 173.403125 
C 215.611937 176.681433 216.914423 179.825912 219.232537 182.144025 
C 221.550651 184.462139 224.695129 185.764625 227.973437 185.764625 
z
" clip-path="url(#p06c98e3ef2)" style="fill: #481467; stroke: #000000; stroke-linejoin: miter"/>
   </g>
   <g id="patch_71">
    <path d="M 255.443437 185.764625 
C 258.721746 185.764625 261.866224 184.462139 264.184338 182.144025 
C 266.502452 179.825912 267.804937 176.681433 267.804937 173.403125 
C 267.804937 170.124817 266.502452 166.980338 264.184338 164.662225 
C 261.866224 162.344111 258.721746 161.041625 255.443437 161.041625 
C 252.165129 161.041625 249.020651 162.344111 246.702537 164.662225 
C 244.384423 166.980338 243.081937 170.124817 243.081937 173.403125 
C 243.081937 176.681433 244.384423 179.825912 246.702537 182.144025 
C 249.020651 184.462139 252.165129 185.764625 255.443437 185.764625 
z
" clip-path="url(#p06c98e3ef2)" style="fill: #481467; stroke: #000000; stroke-linejoin: miter"/>
   </g>
   <g id="patch_72">
    <path d="M 282.913437 185.764625 
C 286.191746 185.764625 289.336224 184.462139 291.654338 182.144025 
C 293.972452 179.825912 295.274937 176.681433 295.274937 173.403125 
C 295.274937 170.124817 293.972452 166.980338 291.654338 164.662225 
C 289.336224 162.344111 286.191746 161.041625 282.913437 161.041625 
C 279.635129 161.041625 276.490651 162.344111 274.172537 164.662225 
C 271.854423 166.980338 270.551938 170.124817 270.551938 173.403125 
C 270.551938 176.681433 271.854423 179.825912 274.172537 182.144025 
C 276.490651 184.462139 279.635129 185.764625 282.913437 185.764625 
z
" clip-path="url(#p06c98e3ef2)" style="fill: #481467; stroke: #000000; stroke-linejoin: miter"/>
   </g>
   <g id="patch_73">
    <path d="M 310.383438 185.764625 
C 313.661746 185.764625 316.806224 184.462139 319.124338 182.144025 
C 321.442452 179.825912 322.744937 176.681433 322.744937 173.403125 
C 322.744937 170.124817 321.442452 166.980338 319.124338 164.662225 
C 316.806224 162.344111 313.661746 161.041625 310.383438 161.041625 
C 307.105129 161.041625 303.960651 162.344111 301.642537 164.662225 
C 299.324423 166.980338 298.021938 170.124817 298.021938 173.403125 
C 298.021938 176.681433 299.324423 179.825912 301.642537 182.144025 
C 303.960651 184.462139 307.105129 185.764625 310.383438 185.764625 
z
" clip-path="url(#p06c98e3ef2)" style="fill: #481467; stroke: #000000; stroke-linejoin: miter"/>
   </g>
   <g id="patch_74">
    <path d="M 337.853437 185.764625 
C 341.131746 185.764625 344.276224 184.462139 346.594338 182.144025 
C 348.912452 179.825912 350.214937 176.681433 350.214937 173.403125 
C 350.214937 170.124817 348.912452 166.980338 346.594338 164.662225 
C 344.276224 162.344111 341.131746 161.041625 337.853437 161.041625 
C 334.575129 161.041625 331.430651 162.344111 329.112537 164.662225 
C 326.794423 166.980338 325.491937 170.124817 325.491937 173.403125 
C 325.491937 176.681433 326.794423 179.825912 329.112537 182.144025 
C 331.430651 184.462139 334.575129 185.764625 337.853437 185.764625 
z
" clip-path="url(#p06c98e3ef2)" style="fill: #481467; stroke: #000000; stroke-linejoin: miter"/>
   </g>
   <g id="patch_75">
    <path d="M 35.683437 213.234625 
C 38.961746 213.234625 42.106224 211.932139 44.424338 209.614025 
C 46.742452 207.295912 48.044937 204.151433 48.044937 200.873125 
C 48.044937 197.594817 46.742452 194.450338 44.424338 192.132225 
C 42.106224 189.814111 38.961746 188.511625 35.683437 188.511625 
C 32.405129 188.511625 29.260651 189.814111 26.942537 192.132225 
C 24.624423 194.450338 23.321937 197.594817 23.321937 200.873125 
C 23.321937 204.151433 24.624423 207.295912 26.942537 209.614025 
C 29.260651 211.932139 32.405129 213.234625 35.683437 213.234625 
z
" clip-path="url(#p06c98e3ef2)" style="fill: #3f4788; stroke: #000000; stroke-linejoin: miter"/>
   </g>
   <g id="patch_76">
    <path d="M 63.153437 213.234625 
C 66.431746 213.234625 69.576224 211.932139 71.894338 209.614025 
C 74.212452 207.295912 75.514938 204.151433 75.514938 200.873125 
C 75.514938 197.594817 74.212452 194.450338 71.894338 192.132225 
C 69.576224 189.814111 66.431746 188.511625 63.153437 188.511625 
C 59.875129 188.511625 56.730651 189.814111 54.412537 192.132225 
C 52.094423 194.450338 50.791937 197.594817 50.791937 200.873125 
C 50.791937 204.151433 52.094423 207.295912 54.412537 209.614025 
C 56.730651 211.932139 59.875129 213.234625 63.153437 213.234625 
z
" clip-path="url(#p06c98e3ef2)" style="fill: #3f4788; stroke: #000000; stroke-linejoin: miter"/>
   </g>
   <g id="patch_77">
    <path d="M 90.623437 213.234625 
C 93.901746 213.234625 97.046224 211.932139 99.364338 209.614025 
C 101.682452 207.295912 102.984938 204.151433 102.984938 200.873125 
C 102.984938 197.594817 101.682452 194.450338 99.364338 192.132225 
C 97.046224 189.814111 93.901746 188.511625 90.623437 188.511625 
C 87.345129 188.511625 84.200651 189.814111 81.882537 192.132225 
C 79.564423 194.450338 78.261937 197.594817 78.261937 200.873125 
C 78.261937 204.151433 79.564423 207.295912 81.882537 209.614025 
C 84.200651 211.932139 87.345129 213.234625 90.623437 213.234625 
z
" clip-path="url(#p06c98e3ef2)" style="fill: #3f4788; stroke: #000000; stroke-linejoin: miter"/>
   </g>
   <g id="patch_78">
    <path d="M 118.093437 213.234625 
C 121.371746 213.234625 124.516224 211.932139 126.834338 209.614025 
C 129.152452 207.295912 130.454937 204.151433 130.454937 200.873125 
C 130.454937 197.594817 129.152452 194.450338 126.834338 192.132225 
C 124.516224 189.814111 121.371746 188.511625 118.093437 188.511625 
C 114.815129 188.511625 111.670651 189.814111 109.352537 192.132225 
C 107.034423 194.450338 105.731937 197.594817 105.731937 200.873125 
C 105.731937 204.151433 107.034423 207.295912 109.352537 209.614025 
C 111.670651 211.932139 114.815129 213.234625 118.093437 213.234625 
z
" clip-path="url(#p06c98e3ef2)" style="fill: #3f4788; stroke: #000000; stroke-linejoin: miter"/>
   </g>
   <g id="patch_79">
    <path d="M 145.563437 213.234625 
C 148.841746 213.234625 151.986224 211.932139 154.304338 209.614025 
C 156.622452 207.295912 157.924937 204.151433 157.924937 200.873125 
C 157.924937 197.594817 156.622452 194.450338 154.304338 192.132225 
C 151.986224 189.814111 148.841746 188.511625 145.563437 188.511625 
C 142.285129 188.511625 139.140651 189.814111 136.822537 192.132225 
C 134.504423 194.450338 133.201937 197.594817 133.201937 200.873125 
C 133.201937 204.151433 134.504423 207.295912 136.822537 209.614025 
C 139.140651 211.932139 142.285129 213.234625 145.563437 213.234625 
z
" clip-path="url(#p06c98e3ef2)" style="fill: #3f4788; stroke: #000000; stroke-linejoin: miter"/>
   </g>
   <g id="patch_80">
    <path d="M 173.033437 213.234625 
C 176.311746 213.234625 179.456224 211.932139 181.774338 209.614025 
C 184.092452 207.295912 185.394937 204.151433 185.394937 200.873125 
C 185.394937 197.594817 184.092452 194.450338 181.774338 192.132225 
C 179.456224 189.814111 176.311746 188.511625 173.033437 188.511625 
C 169.755129 188.511625 166.610651 189.814111 164.292537 192.132225 
C 161.974423 194.450338 160.671937 197.594817 160.671937 200.873125 
C 160.671937 204.151433 161.974423 207.295912 164.292537 209.614025 
C 166.610651 211.932139 169.755129 213.234625 173.033437 213.234625 
z
" clip-path="url(#p06c98e3ef2)" style="fill: #3f4788; stroke: #000000; stroke-linejoin: miter"/>
   </g>
   <g id="patch_81">
    <path d="M 200.503437 213.234625 
C 203.781746 213.234625 206.926224 211.932139 209.244338 209.614025 
C 211.562452 207.295912 212.864937 204.151433 212.864937 200.873125 
C 212.864937 197.594817 211.562452 194.450338 209.244338 192.132225 
C 206.926224 189.814111 203.781746 188.511625 200.503437 188.511625 
C 197.225129 188.511625 194.080651 189.814111 191.762537 192.132225 
C 189.444423 194.450338 188.141937 197.594817 188.141937 200.873125 
C 188.141937 204.151433 189.444423 207.295912 191.762537 209.614025 
C 194.080651 211.932139 197.225129 213.234625 200.503437 213.234625 
z
" clip-path="url(#p06c98e3ef2)" style="fill: #3f4788; stroke: #000000; stroke-linejoin: miter"/>
   </g>
   <g id="patch_82">
    <path d="M 227.973437 213.234625 
C 231.251746 213.234625 234.396224 211.932139 236.714338 209.614025 
C 239.032452 207.295912 240.334937 204.151433 240.334937 200.873125 
C 240.334937 197.594817 239.032452 194.450338 236.714338 192.132225 
C 234.396224 189.814111 231.251746 188.511625 227.973437 188.511625 
C 224.695129 188.511625 221.550651 189.814111 219.232537 192.132225 
C 216.914423 194.450338 215.611937 197.594817 215.611937 200.873125 
C 215.611937 204.151433 216.914423 207.295912 219.232537 209.614025 
C 221.550651 211.932139 224.695129 213.234625 227.973437 213.234625 
z
" clip-path="url(#p06c98e3ef2)" style="fill: #3f4788; stroke: #000000; stroke-linejoin: miter"/>
   </g>
   <g id="patch_83">
    <path d="M 255.443437 213.234625 
C 258.721746 213.234625 261.866224 211.932139 264.184338 209.614025 
C 266.502452 207.295912 267.804937 204.151433 267.804937 200.873125 
C 267.804937 197.594817 266.502452 194.450338 264.184338 192.132225 
C 261.866224 189.814111 258.721746 188.511625 255.443437 188.511625 
C 252.165129 188.511625 249.020651 189.814111 246.702537 192.132225 
C 244.384423 194.450338 243.081937 197.594817 243.081937 200.873125 
C 243.081937 204.151433 244.384423 207.295912 246.702537 209.614025 
C 249.020651 211.932139 252.165129 213.234625 255.443437 213.234625 
z
" clip-path="url(#p06c98e3ef2)" style="fill: #3f4788; stroke: #000000; stroke-linejoin: miter"/>
   </g>
   <g id="patch_84">
    <path d="M 282.913437 213.234625 
C 286.191746 213.234625 289.336224 211.932139 291.654338 209.614025 
C 293.972452 207.295912 295.274937 204.151433 295.274937 200.873125 
C 295.274937 197.594817 293.972452 194.450338 291.654338 192.132225 
C 289.336224 189.814111 286.191746 188.511625 282.913437 188.511625 
C 279.635129 188.511625 276.490651 189.814111 274.172537 192.132225 
C 271.854423 194.450338 270.551938 197.594817 270.551938 200.873125 
C 270.551938 204.151433 271.854423 207.295912 274.172537 209.614025 
C 276.490651 211.932139 279.635129 213.234625 282.913437 213.234625 
z
" clip-path="url(#p06c98e3ef2)" style="fill: #3f4788; stroke: #000000; stroke-linejoin: miter"/>
   </g>
   <g id="patch_85">
    <path d="M 310.383438 213.234625 
C 313.661746 213.234625 316.806224 211.932139 319.124338 209.614025 
C 321.442452 207.295912 322.744937 204.151433 322.744937 200.873125 
C 322.744937 197.594817 321.442452 194.450338 319.124338 192.132225 
C 316.806224 189.814111 313.661746 188.511625 310.383438 188.511625 
C 307.105129 188.511625 303.960651 189.814111 301.642537 192.132225 
C 299.324423 194.450338 298.021938 197.594817 298.021938 200.873125 
C 298.021938 204.151433 299.324423 207.295912 301.642537 209.614025 
C 303.960651 211.932139 307.105129 213.234625 310.383438 213.234625 
z
" clip-path="url(#p06c98e3ef2)" style="fill: #3f4788; stroke: #000000; stroke-linejoin: miter"/>
   </g>
   <g id="patch_86">
    <path d="M 337.853437 213.234625 
C 341.131746 213.234625 344.276224 211.932139 346.594338 209.614025 
C 348.912452 207.295912 350.214937 204.151433 350.214937 200.873125 
C 350.214937 197.594817 348.912452 194.450338 346.594338 192.132225 
C 344.276224 189.814111 341.131746 188.511625 337.853437 188.511625 
C 334.575129 188.511625 331.430651 189.814111 329.112537 192.132225 
C 326.794423 194.450338 325.491937 197.594817 325.491937 200.873125 
C 325.491937 204.151433 326.794423 207.295912 329.112537 209.614025 
C 331.430651 211.932139 334.575129 213.234625 337.853437 213.234625 
z
" clip-path="url(#p06c98e3ef2)" style="fill: #3f4788; stroke: #000000; stroke-linejoin: miter"/>
   </g>
   <g id="patch_87">
    <path d="M 35.683437 240.704625 
C 38.961746 240.704625 42.106224 239.402139 44.424338 237.084025 
C 46.742452 234.765912 48.044937 231.621433 48.044937 228.343125 
C 48.044937 225.064817 46.742452 221.920338 44.424338 219.602225 
C 42.106224 217.284111 38.961746 215.981625 35.683437 215.981625 
C 32.405129 215.981625 29.260651 217.284111 26.942537 219.602225 
C 24.624423 221.920338 23.321937 225.064817 23.321937 228.343125 
C 23.321937 231.621433 24.624423 234.765912 26.942537 237.084025 
C 29.260651 239.402139 32.405129 240.704625 35.683437 240.704625 
z
" clip-path="url(#p06c98e3ef2)" style="fill: #9bd93c; stroke: #000000; stroke-linejoin: miter"/>
   </g>
   <g id="patch_88">
    <path d="M 63.153437 240.704625 
C 66.431746 240.704625 69.576224 239.402139 71.894338 237.084025 
C 74.212452 234.765912 75.514938 231.621433 75.514938 228.343125 
C 75.514938 225.064817 74.212452 221.920338 71.894338 219.602225 
C 69.576224 217.284111 66.431746 215.981625 63.153437 215.981625 
C 59.875129 215.981625 56.730651 217.284111 54.412537 219.602225 
C 52.094423 221.920338 50.791937 225.064817 50.791937 228.343125 
C 50.791937 231.621433 52.094423 234.765912 54.412537 237.084025 
C 56.730651 239.402139 59.875129 240.704625 63.153437 240.704625 
z
" clip-path="url(#p06c98e3ef2)" style="fill: #9bd93c; stroke: #000000; stroke-linejoin: miter"/>
   </g>
   <g id="patch_89">
    <path d="M 90.623437 240.704625 
C 93.901746 240.704625 97.046224 239.402139 99.364338 237.084025 
C 101.682452 234.765912 102.984938 231.621433 102.984938 228.343125 
C 102.984938 225.064817 101.682452 221.920338 99.364338 219.602225 
C 97.046224 217.284111 93.901746 215.981625 90.623437 215.981625 
C 87.345129 215.981625 84.200651 217.284111 81.882537 219.602225 
C 79.564423 221.920338 78.261937 225.064817 78.261937 228.343125 
C 78.261937 231.621433 79.564423 234.765912 81.882537 237.084025 
C 84.200651 239.402139 87.345129 240.704625 90.623437 240.704625 
z
" clip-path="url(#p06c98e3ef2)" style="fill: #9bd93c; stroke: #000000; stroke-linejoin: miter"/>
   </g>
   <g id="patch_90">
    <path d="M 118.093437 240.704625 
C 121.371746 240.704625 124.516224 239.402139 126.834338 237.084025 
C 129.152452 234.765912 130.454937 231.621433 130.454937 228.343125 
C 130.454937 225.064817 129.152452 221.920338 126.834338 219.602225 
C 124.516224 217.284111 121.371746 215.981625 118.093437 215.981625 
C 114.815129 215.981625 111.670651 217.284111 109.352537 219.602225 
C 107.034423 221.920338 105.731937 225.064817 105.731937 228.343125 
C 105.731937 231.621433 107.034423 234.765912 109.352537 237.084025 
C 111.670651 239.402139 114.815129 240.704625 118.093437 240.704625 
z
" clip-path="url(#p06c98e3ef2)" style="fill: #9bd93c; stroke: #000000; stroke-linejoin: miter"/>
   </g>
   <g id="patch_91">
    <path d="M 145.563437 240.704625 
C 148.841746 240.704625 151.986224 239.402139 154.304338 237.084025 
C 156.622452 234.765912 157.924937 231.621433 157.924937 228.343125 
C 157.924937 225.064817 156.622452 221.920338 154.304338 219.602225 
C 151.986224 217.284111 148.841746 215.981625 145.563437 215.981625 
C 142.285129 215.981625 139.140651 217.284111 136.822537 219.602225 
C 134.504423 221.920338 133.201937 225.064817 133.201937 228.343125 
C 133.201937 231.621433 134.504423 234.765912 136.822537 237.084025 
C 139.140651 239.402139 142.285129 240.704625 145.563437 240.704625 
z
" clip-path="url(#p06c98e3ef2)" style="fill: #9bd93c; stroke: #000000; stroke-linejoin: miter"/>
   </g>
   <g id="patch_92">
    <path d="M 173.033437 240.704625 
C 176.311746 240.704625 179.456224 239.402139 181.774338 237.084025 
C 184.092452 234.765912 185.394937 231.621433 185.394937 228.343125 
C 185.394937 225.064817 184.092452 221.920338 181.774338 219.602225 
C 179.456224 217.284111 176.311746 215.981625 173.033437 215.981625 
C 169.755129 215.981625 166.610651 217.284111 164.292537 219.602225 
C 161.974423 221.920338 160.671937 225.064817 160.671937 228.343125 
C 160.671937 231.621433 161.974423 234.765912 164.292537 237.084025 
C 166.610651 239.402139 169.755129 240.704625 173.033437 240.704625 
z
" clip-path="url(#p06c98e3ef2)" style="fill: #9bd93c; stroke: #000000; stroke-linejoin: miter"/>
   </g>
   <g id="patch_93">
    <path d="M 200.503437 240.704625 
C 203.781746 240.704625 206.926224 239.402139 209.244338 237.084025 
C 211.562452 234.765912 212.864937 231.621433 212.864937 228.343125 
C 212.864937 225.064817 211.562452 221.920338 209.244338 219.602225 
C 206.926224 217.284111 203.781746 215.981625 200.503437 215.981625 
C 197.225129 215.981625 194.080651 217.284111 191.762537 219.602225 
C 189.444423 221.920338 188.141937 225.064817 188.141937 228.343125 
C 188.141937 231.621433 189.444423 234.765912 191.762537 237.084025 
C 194.080651 239.402139 197.225129 240.704625 200.503437 240.704625 
z
" clip-path="url(#p06c98e3ef2)" style="fill: #9bd93c; stroke: #000000; stroke-linejoin: miter"/>
   </g>
   <g id="patch_94">
    <path d="M 227.973437 240.704625 
C 231.251746 240.704625 234.396224 239.402139 236.714338 237.084025 
C 239.032452 234.765912 240.334937 231.621433 240.334937 228.343125 
C 240.334937 225.064817 239.032452 221.920338 236.714338 219.602225 
C 234.396224 217.284111 231.251746 215.981625 227.973437 215.981625 
C 224.695129 215.981625 221.550651 217.284111 219.232537 219.602225 
C 216.914423 221.920338 215.611937 225.064817 215.611937 228.343125 
C 215.611937 231.621433 216.914423 234.765912 219.232537 237.084025 
C 221.550651 239.402139 224.695129 240.704625 227.973437 240.704625 
z
" clip-path="url(#p06c98e3ef2)" style="fill: #9bd93c; stroke: #000000; stroke-linejoin: miter"/>
   </g>
   <g id="patch_95">
    <path d="M 255.443437 240.704625 
C 258.721746 240.704625 261.866224 239.402139 264.184338 237.084025 
C 266.502452 234.765912 267.804937 231.621433 267.804937 228.343125 
C 267.804937 225.064817 266.502452 221.920338 264.184338 219.602225 
C 261.866224 217.284111 258.721746 215.981625 255.443437 215.981625 
C 252.165129 215.981625 249.020651 217.284111 246.702537 219.602225 
C 244.384423 221.920338 243.081937 225.064817 243.081937 228.343125 
C 243.081937 231.621433 244.384423 234.765912 246.702537 237.084025 
C 249.020651 239.402139 252.165129 240.704625 255.443437 240.704625 
z
" clip-path="url(#p06c98e3ef2)" style="fill: #9bd93c; stroke: #000000; stroke-linejoin: miter"/>
   </g>
   <g id="patch_96">
    <path d="M 282.913437 240.704625 
C 286.191746 240.704625 289.336224 239.402139 291.654338 237.084025 
C 293.972452 234.765912 295.274937 231.621433 295.274937 228.343125 
C 295.274937 225.064817 293.972452 221.920338 291.654338 219.602225 
C 289.336224 217.284111 286.191746 215.981625 282.913437 215.981625 
C 279.635129 215.981625 276.490651 217.284111 274.172537 219.602225 
C 271.854423 221.920338 270.551938 225.064817 270.551938 228.343125 
C 270.551938 231.621433 271.854423 234.765912 274.172537 237.084025 
C 276.490651 239.402139 279.635129 240.704625 282.913437 240.704625 
z
" clip-path="url(#p06c98e3ef2)" style="fill: #9bd93c; stroke: #000000; stroke-linejoin: miter"/>
   </g>
   <g id="patch_97">
    <path d="M 310.383438 240.704625 
C 313.661746 240.704625 316.806224 239.402139 319.124338 237.084025 
C 321.442452 234.765912 322.744937 231.621433 322.744937 228.343125 
C 322.744937 225.064817 321.442452 221.920338 319.124338 219.602225 
C 316.806224 217.284111 313.661746 215.981625 310.383438 215.981625 
C 307.105129 215.981625 303.960651 217.284111 301.642537 219.602225 
C 299.324423 221.920338 298.021938 225.064817 298.021938 228.343125 
C 298.021938 231.621433 299.324423 234.765912 301.642537 237.084025 
C 303.960651 239.402139 307.105129 240.704625 310.383438 240.704625 
z
" clip-path="url(#p06c98e3ef2)" style="fill: #9bd93c; stroke: #000000; stroke-linejoin: miter"/>
   </g>
   <g id="patch_98">
    <path d="M 337.853437 240.704625 
C 341.131746 240.704625 344.276224 239.402139 346.594338 237.084025 
C 348.912452 234.765912 350.214937 231.621433 350.214937 228.343125 
C 350.214937 225.064817 348.912452 221.920338 346.594338 219.602225 
C 344.276224 217.284111 341.131746 215.981625 337.853437 215.981625 
C 334.575129 215.981625 331.430651 217.284111 329.112537 219.602225 
C 326.794423 221.920338 325.491937 225.064817 325.491937 228.343125 
C 325.491937 231.621433 326.794423 234.765912 329.112537 237.084025 
C 331.430651 239.402139 334.575129 240.704625 337.853437 240.704625 
z
" clip-path="url(#p06c98e3ef2)" style="fill: #9bd93c; stroke: #000000; stroke-linejoin: miter"/>
   </g>
   <g id="matplotlib.axis_1">
    <g id="xtick_1">
     <g id="line2d_1">
      <defs>
       <path id="m13657ba91e" d="M 0 0 
L 0 3.5 
" style="stroke: #000000; stroke-width: 0.8"/>
      </defs>
      <g>
       <use xlink:href="#m13657ba91e" x="35.683437" y="242.078125" style="stroke: #000000; stroke-width: 0.8"/>
      </g>
     </g>
     <g id="text_1">
      <!-- 1 -->
      <g transform="translate(32.502187 256.676562) scale(0.1 -0.1)">
       <defs>
        <path id="DejaVuSans-31" d="M 794 531 
L 1825 531 
L 1825 4091 
L 703 3866 
L 703 4441 
L 1819 4666 
L 2450 4666 
L 2450 531 
L 3481 531 
L 3481 0 
L 794 0 
L 794 531 
z
" transform="scale(0.015625)"/>
       </defs>
       <use xlink:href="#DejaVuSans-31"/>
      </g>
     </g>
    </g>
    <g id="xtick_2">
     <g id="line2d_2">
      <g>
       <use xlink:href="#m13657ba91e" x="63.153437" y="242.078125" style="stroke: #000000; stroke-width: 0.8"/>
      </g>
     </g>
     <g id="text_2">
      <!-- 2 -->
      <g transform="translate(59.972187 256.676562) scale(0.1 -0.1)">
       <defs>
        <path id="DejaVuSans-32" d="M 1228 531 
L 3431 531 
L 3431 0 
L 469 0 
L 469 531 
Q 828 903 1448 1529 
Q 2069 2156 2228 2338 
Q 2531 2678 2651 2914 
Q 2772 3150 2772 3378 
Q 2772 3750 2511 3984 
Q 2250 4219 1831 4219 
Q 1534 4219 1204 4116 
Q 875 4013 500 3803 
L 500 4441 
Q 881 4594 1212 4672 
Q 1544 4750 1819 4750 
Q 2544 4750 2975 4387 
Q 3406 4025 3406 3419 
Q 3406 3131 3298 2873 
Q 3191 2616 2906 2266 
Q 2828 2175 2409 1742 
Q 1991 1309 1228 531 
z
" transform="scale(0.015625)"/>
       </defs>
       <use xlink:href="#DejaVuSans-32"/>
      </g>
     </g>
    </g>
    <g id="xtick_3">
     <g id="line2d_3">
      <g>
       <use xlink:href="#m13657ba91e" x="90.623437" y="242.078125" style="stroke: #000000; stroke-width: 0.8"/>
      </g>
     </g>
     <g id="text_3">
      <!-- 3 -->
      <g transform="translate(87.442187 256.676562) scale(0.1 -0.1)">
       <defs>
        <path id="DejaVuSans-33" d="M 2597 2516 
Q 3050 2419 3304 2112 
Q 3559 1806 3559 1356 
Q 3559 666 3084 287 
Q 2609 -91 1734 -91 
Q 1441 -91 1130 -33 
Q 819 25 488 141 
L 488 750 
Q 750 597 1062 519 
Q 1375 441 1716 441 
Q 2309 441 2620 675 
Q 2931 909 2931 1356 
Q 2931 1769 2642 2001 
Q 2353 2234 1838 2234 
L 1294 2234 
L 1294 2753 
L 1863 2753 
Q 2328 2753 2575 2939 
Q 2822 3125 2822 3475 
Q 2822 3834 2567 4026 
Q 2313 4219 1838 4219 
Q 1578 4219 1281 4162 
Q 984 4106 628 3988 
L 628 4550 
Q 988 4650 1302 4700 
Q 1616 4750 1894 4750 
Q 2613 4750 3031 4423 
Q 3450 4097 3450 3541 
Q 3450 3153 3228 2886 
Q 3006 2619 2597 2516 
z
" transform="scale(0.015625)"/>
       </defs>
       <use xlink:href="#DejaVuSans-33"/>
      </g>
     </g>
    </g>
    <g id="xtick_4">
     <g id="line2d_4">
      <g>
       <use xlink:href="#m13657ba91e" x="118.093437" y="242.078125" style="stroke: #000000; stroke-width: 0.8"/>
      </g>
     </g>
     <g id="text_4">
      <!-- 4 -->
      <g transform="translate(114.912187 256.676562) scale(0.1 -0.1)">
       <defs>
        <path id="DejaVuSans-34" d="M 2419 4116 
L 825 1625 
L 2419 1625 
L 2419 4116 
z
M 2253 4666 
L 3047 4666 
L 3047 1625 
L 3713 1625 
L 3713 1100 
L 3047 1100 
L 3047 0 
L 2419 0 
L 2419 1100 
L 313 1100 
L 313 1709 
L 2253 4666 
z
" transform="scale(0.015625)"/>
       </defs>
       <use xlink:href="#DejaVuSans-34"/>
      </g>
     </g>
    </g>
    <g id="xtick_5">
     <g id="line2d_5">
      <g>
       <use xlink:href="#m13657ba91e" x="145.563437" y="242.078125" style="stroke: #000000; stroke-width: 0.8"/>
      </g>
     </g>
     <g id="text_5">
      <!-- 5 -->
      <g transform="translate(142.382187 256.676562) scale(0.1 -0.1)">
       <defs>
        <path id="DejaVuSans-35" d="M 691 4666 
L 3169 4666 
L 3169 4134 
L 1269 4134 
L 1269 2991 
Q 1406 3038 1543 3061 
Q 1681 3084 1819 3084 
Q 2600 3084 3056 2656 
Q 3513 2228 3513 1497 
Q 3513 744 3044 326 
Q 2575 -91 1722 -91 
Q 1428 -91 1123 -41 
Q 819 9 494 109 
L 494 744 
Q 775 591 1075 516 
Q 1375 441 1709 441 
Q 2250 441 2565 725 
Q 2881 1009 2881 1497 
Q 2881 1984 2565 2268 
Q 2250 2553 1709 2553 
Q 1456 2553 1204 2497 
Q 953 2441 691 2322 
L 691 4666 
z
" transform="scale(0.015625)"/>
       </defs>
       <use xlink:href="#DejaVuSans-35"/>
      </g>
     </g>
    </g>
    <g id="xtick_6">
     <g id="line2d_6">
      <g>
       <use xlink:href="#m13657ba91e" x="173.033437" y="242.078125" style="stroke: #000000; stroke-width: 0.8"/>
      </g>
     </g>
     <g id="text_6">
      <!-- 6 -->
      <g transform="translate(169.852187 256.676562) scale(0.1 -0.1)">
       <defs>
        <path id="DejaVuSans-36" d="M 2113 2584 
Q 1688 2584 1439 2293 
Q 1191 2003 1191 1497 
Q 1191 994 1439 701 
Q 1688 409 2113 409 
Q 2538 409 2786 701 
Q 3034 994 3034 1497 
Q 3034 2003 2786 2293 
Q 2538 2584 2113 2584 
z
M 3366 4563 
L 3366 3988 
Q 3128 4100 2886 4159 
Q 2644 4219 2406 4219 
Q 1781 4219 1451 3797 
Q 1122 3375 1075 2522 
Q 1259 2794 1537 2939 
Q 1816 3084 2150 3084 
Q 2853 3084 3261 2657 
Q 3669 2231 3669 1497 
Q 3669 778 3244 343 
Q 2819 -91 2113 -91 
Q 1303 -91 875 529 
Q 447 1150 447 2328 
Q 447 3434 972 4092 
Q 1497 4750 2381 4750 
Q 2619 4750 2861 4703 
Q 3103 4656 3366 4563 
z
" transform="scale(0.015625)"/>
       </defs>
       <use xlink:href="#DejaVuSans-36"/>
      </g>
     </g>
    </g>
    <g id="xtick_7">
     <g id="line2d_7">
      <g>
       <use xlink:href="#m13657ba91e" x="200.503437" y="242.078125" style="stroke: #000000; stroke-width: 0.8"/>
      </g>
     </g>
     <g id="text_7">
      <!-- 7 -->
      <g transform="translate(197.322187 256.676562) scale(0.1 -0.1)">
       <defs>
        <path id="DejaVuSans-37" d="M 525 4666 
L 3525 4666 
L 3525 4397 
L 1831 0 
L 1172 0 
L 2766 4134 
L 525 4134 
L 525 4666 
z
" transform="scale(0.015625)"/>
       </defs>
       <use xlink:href="#DejaVuSans-37"/>
      </g>
     </g>
    </g>
    <g id="xtick_8">
     <g id="line2d_8">
      <g>
       <use xlink:href="#m13657ba91e" x="227.973437" y="242.078125" style="stroke: #000000; stroke-width: 0.8"/>
      </g>
     </g>
     <g id="text_8">
      <!-- 8 -->
      <g transform="translate(224.792187 256.676562) scale(0.1 -0.1)">
       <defs>
        <path id="DejaVuSans-38" d="M 2034 2216 
Q 1584 2216 1326 1975 
Q 1069 1734 1069 1313 
Q 1069 891 1326 650 
Q 1584 409 2034 409 
Q 2484 409 2743 651 
Q 3003 894 3003 1313 
Q 3003 1734 2745 1975 
Q 2488 2216 2034 2216 
z
M 1403 2484 
Q 997 2584 770 2862 
Q 544 3141 544 3541 
Q 544 4100 942 4425 
Q 1341 4750 2034 4750 
Q 2731 4750 3128 4425 
Q 3525 4100 3525 3541 
Q 3525 3141 3298 2862 
Q 3072 2584 2669 2484 
Q 3125 2378 3379 2068 
Q 3634 1759 3634 1313 
Q 3634 634 3220 271 
Q 2806 -91 2034 -91 
Q 1263 -91 848 271 
Q 434 634 434 1313 
Q 434 1759 690 2068 
Q 947 2378 1403 2484 
z
M 1172 3481 
Q 1172 3119 1398 2916 
Q 1625 2713 2034 2713 
Q 2441 2713 2670 2916 
Q 2900 3119 2900 3481 
Q 2900 3844 2670 4047 
Q 2441 4250 2034 4250 
Q 1625 4250 1398 4047 
Q 1172 3844 1172 3481 
z
" transform="scale(0.015625)"/>
       </defs>
       <use xlink:href="#DejaVuSans-38"/>
      </g>
     </g>
    </g>
    <g id="xtick_9">
     <g id="line2d_9">
      <g>
       <use xlink:href="#m13657ba91e" x="255.443437" y="242.078125" style="stroke: #000000; stroke-width: 0.8"/>
      </g>
     </g>
     <g id="text_9">
      <!-- 9 -->
      <g transform="translate(252.262187 256.676562) scale(0.1 -0.1)">
       <defs>
        <path id="DejaVuSans-39" d="M 703 97 
L 703 672 
Q 941 559 1184 500 
Q 1428 441 1663 441 
Q 2288 441 2617 861 
Q 2947 1281 2994 2138 
Q 2813 1869 2534 1725 
Q 2256 1581 1919 1581 
Q 1219 1581 811 2004 
Q 403 2428 403 3163 
Q 403 3881 828 4315 
Q 1253 4750 1959 4750 
Q 2769 4750 3195 4129 
Q 3622 3509 3622 2328 
Q 3622 1225 3098 567 
Q 2575 -91 1691 -91 
Q 1453 -91 1209 -44 
Q 966 3 703 97 
z
M 1959 2075 
Q 2384 2075 2632 2365 
Q 2881 2656 2881 3163 
Q 2881 3666 2632 3958 
Q 2384 4250 1959 4250 
Q 1534 4250 1286 3958 
Q 1038 3666 1038 3163 
Q 1038 2656 1286 2365 
Q 1534 2075 1959 2075 
z
" transform="scale(0.015625)"/>
       </defs>
       <use xlink:href="#DejaVuSans-39"/>
      </g>
     </g>
    </g>
    <g id="xtick_10">
     <g id="line2d_10">
      <g>
       <use xlink:href="#m13657ba91e" x="282.913437" y="242.078125" style="stroke: #000000; stroke-width: 0.8"/>
      </g>
     </g>
     <g id="text_10">
      <!-- 10 -->
      <g transform="translate(276.550937 256.676562) scale(0.1 -0.1)">
       <defs>
        <path id="DejaVuSans-30" d="M 2034 4250 
Q 1547 4250 1301 3770 
Q 1056 3291 1056 2328 
Q 1056 1369 1301 889 
Q 1547 409 2034 409 
Q 2525 409 2770 889 
Q 3016 1369 3016 2328 
Q 3016 3291 2770 3770 
Q 2525 4250 2034 4250 
z
M 2034 4750 
Q 2819 4750 3233 4129 
Q 3647 3509 3647 2328 
Q 3647 1150 3233 529 
Q 2819 -91 2034 -91 
Q 1250 -91 836 529 
Q 422 1150 422 2328 
Q 422 3509 836 4129 
Q 1250 4750 2034 4750 
z
" transform="scale(0.015625)"/>
       </defs>
       <use xlink:href="#DejaVuSans-31"/>
       <use xlink:href="#DejaVuSans-30" x="63.623047"/>
      </g>
     </g>
    </g>
    <g id="xtick_11">
     <g id="line2d_11">
      <g>
       <use xlink:href="#m13657ba91e" x="310.383438" y="242.078125" style="stroke: #000000; stroke-width: 0.8"/>
      </g>
     </g>
     <g id="text_11">
      <!-- 11 -->
      <g transform="translate(304.020938 256.676562) scale(0.1 -0.1)">
       <use xlink:href="#DejaVuSans-31"/>
       <use xlink:href="#DejaVuSans-31" x="63.623047"/>
      </g>
     </g>
    </g>
    <g id="xtick_12">
     <g id="line2d_12">
      <g>
       <use xlink:href="#m13657ba91e" x="337.853437" y="242.078125" style="stroke: #000000; stroke-width: 0.8"/>
      </g>
     </g>
     <g id="text_12">
      <!-- 12 -->
      <g transform="translate(331.490937 256.676562) scale(0.1 -0.1)">
       <use xlink:href="#DejaVuSans-31"/>
       <use xlink:href="#DejaVuSans-32" x="63.623047"/>
      </g>
     </g>
    </g>
   </g>
   <g id="matplotlib.axis_2">
    <g id="ytick_1">
     <g id="line2d_13">
      <defs>
       <path id="m31221d8208" d="M 0 0 
L -3.5 0 
" style="stroke: #000000; stroke-width: 0.8"/>
      </defs>
      <g>
       <use xlink:href="#m31221d8208" x="21.948438" y="36.053125" style="stroke: #000000; stroke-width: 0.8"/>
      </g>
     </g>
     <g id="text_13">
      <!-- A -->
      <g transform="translate(8.107813 39.852344) scale(0.1 -0.1)">
       <defs>
        <path id="DejaVuSans-41" d="M 2188 4044 
L 1331 1722 
L 3047 1722 
L 2188 4044 
z
M 1831 4666 
L 2547 4666 
L 4325 0 
L 3669 0 
L 3244 1197 
L 1141 1197 
L 716 0 
L 50 0 
L 1831 4666 
z
" transform="scale(0.015625)"/>
       </defs>
       <use xlink:href="#DejaVuSans-41"/>
      </g>
     </g>
    </g>
    <g id="ytick_2">
     <g id="line2d_14">
      <g>
       <use xlink:href="#m31221d8208" x="21.948438" y="63.523125" style="stroke: #000000; stroke-width: 0.8"/>
      </g>
     </g>
     <g id="text_14">
      <!-- B -->
      <g transform="translate(8.0875 67.322344) scale(0.1 -0.1)">
       <defs>
        <path id="DejaVuSans-42" d="M 1259 2228 
L 1259 519 
L 2272 519 
Q 2781 519 3026 730 
Q 3272 941 3272 1375 
Q 3272 1813 3026 2020 
Q 2781 2228 2272 2228 
L 1259 2228 
z
M 1259 4147 
L 1259 2741 
L 2194 2741 
Q 2656 2741 2882 2914 
Q 3109 3088 3109 3444 
Q 3109 3797 2882 3972 
Q 2656 4147 2194 4147 
L 1259 4147 
z
M 628 4666 
L 2241 4666 
Q 2963 4666 3353 4366 
Q 3744 4066 3744 3513 
Q 3744 3084 3544 2831 
Q 3344 2578 2956 2516 
Q 3422 2416 3680 2098 
Q 3938 1781 3938 1306 
Q 3938 681 3513 340 
Q 3088 0 2303 0 
L 628 0 
L 628 4666 
z
" transform="scale(0.015625)"/>
       </defs>
       <use xlink:href="#DejaVuSans-42"/>
      </g>
     </g>
    </g>
    <g id="ytick_3">
     <g id="line2d_15">
      <g>
       <use xlink:href="#m31221d8208" x="21.948438" y="90.993125" style="stroke: #000000; stroke-width: 0.8"/>
      </g>
     </g>
     <g id="text_15">
      <!-- C -->
      <g transform="translate(7.965625 94.792344) scale(0.1 -0.1)">
       <defs>
        <path id="DejaVuSans-43" d="M 4122 4306 
L 4122 3641 
Q 3803 3938 3442 4084 
Q 3081 4231 2675 4231 
Q 1875 4231 1450 3742 
Q 1025 3253 1025 2328 
Q 1025 1406 1450 917 
Q 1875 428 2675 428 
Q 3081 428 3442 575 
Q 3803 722 4122 1019 
L 4122 359 
Q 3791 134 3420 21 
Q 3050 -91 2638 -91 
Q 1578 -91 968 557 
Q 359 1206 359 2328 
Q 359 3453 968 4101 
Q 1578 4750 2638 4750 
Q 3056 4750 3426 4639 
Q 3797 4528 4122 4306 
z
" transform="scale(0.015625)"/>
       </defs>
       <use xlink:href="#DejaVuSans-43"/>
      </g>
     </g>
    </g>
    <g id="ytick_4">
     <g id="line2d_16">
      <g>
       <use xlink:href="#m31221d8208" x="21.948438" y="118.463125" style="stroke: #000000; stroke-width: 0.8"/>
      </g>
     </g>
     <g id="text_16">
      <!-- D -->
      <g transform="translate(7.248438 122.262344) scale(0.1 -0.1)">
       <defs>
        <path id="DejaVuSans-44" d="M 1259 4147 
L 1259 519 
L 2022 519 
Q 2988 519 3436 956 
Q 3884 1394 3884 2338 
Q 3884 3275 3436 3711 
Q 2988 4147 2022 4147 
L 1259 4147 
z
M 628 4666 
L 1925 4666 
Q 3281 4666 3915 4102 
Q 4550 3538 4550 2338 
Q 4550 1131 3912 565 
Q 3275 0 1925 0 
L 628 0 
L 628 4666 
z
" transform="scale(0.015625)"/>
       </defs>
       <use xlink:href="#DejaVuSans-44"/>
      </g>
     </g>
    </g>
    <g id="ytick_5">
     <g id="line2d_17">
      <g>
       <use xlink:href="#m31221d8208" x="21.948438" y="145.933125" style="stroke: #000000; stroke-width: 0.8"/>
      </g>
     </g>
     <g id="text_17">
      <!-- E -->
      <g transform="translate(8.629687 149.732344) scale(0.1 -0.1)">
       <defs>
        <path id="DejaVuSans-45" d="M 628 4666 
L 3578 4666 
L 3578 4134 
L 1259 4134 
L 1259 2753 
L 3481 2753 
L 3481 2222 
L 1259 2222 
L 1259 531 
L 3634 531 
L 3634 0 
L 628 0 
L 628 4666 
z
" transform="scale(0.015625)"/>
       </defs>
       <use xlink:href="#DejaVuSans-45"/>
      </g>
     </g>
    </g>
    <g id="ytick_6">
     <g id="line2d_18">
      <g>
       <use xlink:href="#m31221d8208" x="21.948438" y="173.403125" style="stroke: #000000; stroke-width: 0.8"/>
      </g>
     </g>
     <g id="text_18">
      <!-- F -->
      <g transform="translate(9.196875 177.202344) scale(0.1 -0.1)">
       <defs>
        <path id="DejaVuSans-46" d="M 628 4666 
L 3309 4666 
L 3309 4134 
L 1259 4134 
L 1259 2759 
L 3109 2759 
L 3109 2228 
L 1259 2228 
L 1259 0 
L 628 0 
L 628 4666 
z
" transform="scale(0.015625)"/>
       </defs>
       <use xlink:href="#DejaVuSans-46"/>
      </g>
     </g>
    </g>
    <g id="ytick_7">
     <g id="line2d_19">
      <g>
       <use xlink:href="#m31221d8208" x="21.948438" y="200.873125" style="stroke: #000000; stroke-width: 0.8"/>
      </g>
     </g>
     <g id="text_19">
      <!-- G -->
      <g transform="translate(7.2 204.672344) scale(0.1 -0.1)">
       <defs>
        <path id="DejaVuSans-47" d="M 3809 666 
L 3809 1919 
L 2778 1919 
L 2778 2438 
L 4434 2438 
L 4434 434 
Q 4069 175 3628 42 
Q 3188 -91 2688 -91 
Q 1594 -91 976 548 
Q 359 1188 359 2328 
Q 359 3472 976 4111 
Q 1594 4750 2688 4750 
Q 3144 4750 3555 4637 
Q 3966 4525 4313 4306 
L 4313 3634 
Q 3963 3931 3569 4081 
Q 3175 4231 2741 4231 
Q 1884 4231 1454 3753 
Q 1025 3275 1025 2328 
Q 1025 1384 1454 906 
Q 1884 428 2741 428 
Q 3075 428 3337 486 
Q 3600 544 3809 666 
z
" transform="scale(0.015625)"/>
       </defs>
       <use xlink:href="#DejaVuSans-47"/>
      </g>
     </g>
    </g>
    <g id="ytick_8">
     <g id="line2d_20">
      <g>
       <use xlink:href="#m31221d8208" x="21.948438" y="228.343125" style="stroke: #000000; stroke-width: 0.8"/>
      </g>
     </g>
     <g id="text_20">
      <!-- H -->
      <g transform="translate(7.428125 232.142344) scale(0.1 -0.1)">
       <defs>
        <path id="DejaVuSans-48" d="M 628 4666 
L 1259 4666 
L 1259 2753 
L 3553 2753 
L 3553 4666 
L 4184 4666 
L 4184 0 
L 3553 0 
L 3553 2222 
L 1259 2222 
L 1259 0 
L 628 0 
L 628 4666 
z
" transform="scale(0.015625)"/>
       </defs>
       <use xlink:href="#DejaVuSans-48"/>
      </g>
     </g>
    </g>
   </g>
   <g id="patch_99">
    <path d="M 21.948438 242.078125 
L 21.948438 22.318125 
" style="fill: none; stroke: #000000; stroke-width: 0.8; stroke-linejoin: miter; stroke-linecap: square"/>
   </g>
   <g id="patch_100">
    <path d="M 351.588437 242.078125 
L 351.588437 22.318125 
" style="fill: none; stroke: #000000; stroke-width: 0.8; stroke-linejoin: miter; stroke-linecap: square"/>
   </g>
   <g id="patch_101">
    <path d="M 21.948437 242.078125 
L 351.588437 242.078125 
" style="fill: none; stroke: #000000; stroke-width: 0.8; stroke-linejoin: miter; stroke-linecap: square"/>
   </g>
   <g id="patch_102">
    <path d="M 21.948437 22.318125 
L 351.588437 22.318125 
" style="fill: none; stroke: #000000; stroke-width: 0.8; stroke-linejoin: miter; stroke-linecap: square"/>
   </g>
   <g id="text_21">
    <!-- dox -->
    <g transform="translate(175.924375 16.318125) scale(0.12 -0.12)">
     <defs>
      <path id="DejaVuSans-64" d="M 2906 2969 
L 2906 4863 
L 3481 4863 
L 3481 0 
L 2906 0 
L 2906 525 
Q 2725 213 2448 61 
Q 2172 -91 1784 -91 
Q 1150 -91 751 415 
Q 353 922 353 1747 
Q 353 2572 751 3078 
Q 1150 3584 1784 3584 
Q 2172 3584 2448 3432 
Q 2725 3281 2906 2969 
z
M 947 1747 
Q 947 1113 1208 752 
Q 1469 391 1925 391 
Q 2381 391 2643 752 
Q 2906 1113 2906 1747 
Q 2906 2381 2643 2742 
Q 2381 3103 1925 3103 
Q 1469 3103 1208 2742 
Q 947 2381 947 1747 
z
" transform="scale(0.015625)"/>
      <path id="DejaVuSans-6f" d="M 1959 3097 
Q 1497 3097 1228 2736 
Q 959 2375 959 1747 
Q 959 1119 1226 758 
Q 1494 397 1959 397 
Q 2419 397 2687 759 
Q 2956 1122 2956 1747 
Q 2956 2369 2687 2733 
Q 2419 3097 1959 3097 
z
M 1959 3584 
Q 2709 3584 3137 3096 
Q 3566 2609 3566 1747 
Q 3566 888 3137 398 
Q 2709 -91 1959 -91 
Q 1206 -91 779 398 
Q 353 888 353 1747 
Q 353 2609 779 3096 
Q 1206 3584 1959 3584 
z
" transform="scale(0.015625)"/>
      <path id="DejaVuSans-78" d="M 3513 3500 
L 2247 1797 
L 3578 0 
L 2900 0 
L 1881 1375 
L 863 0 
L 184 0 
L 1544 1831 
L 300 3500 
L 978 3500 
L 1906 2253 
L 2834 3500 
L 3513 3500 
z
" transform="scale(0.015625)"/>
     </defs>
     <use xlink:href="#DejaVuSans-64"/>
     <use xlink:href="#DejaVuSans-6f" x="63.476562"/>
     <use xlink:href="#DejaVuSans-78" x="121.533203"/>
    </g>
   </g>
   <g id="legend_1">
    <g id="patch_103">
     <path d="M 358.588437 192.410625 
L 444.666562 192.410625 
Q 446.666562 192.410625 446.666562 190.410625 
L 446.666562 73.985625 
Q 446.666562 71.985625 444.666562 71.985625 
L 358.588437 71.985625 
Q 356.588437 71.985625 356.588437 73.985625 
L 356.588437 190.410625 
Q 356.588437 192.410625 358.588437 192.410625 
z
" style="fill: #ffffff; opacity: 0.8; stroke: #cccccc; stroke-linejoin: miter"/>
    </g>
    <g id="patch_104">
     <path d="M 360.588437 83.584062 
L 380.588437 83.584062 
L 380.588437 76.584062 
L 360.588437 76.584062 
z
" style="fill: #440154; stroke: #000000; stroke-linejoin: miter"/>
    </g>
    <g id="text_22">
     <!-- 0 -->
     <g transform="translate(388.588437 83.584062) scale(0.1 -0.1)">
      <use xlink:href="#DejaVuSans-30"/>
     </g>
    </g>
    <g id="patch_105">
     <path d="M 360.588437 98.262187 
L 380.588437 98.262187 
L 380.588437 91.262187 
L 360.588437 91.262187 
z
" style="fill: #440154; stroke: #000000; stroke-linejoin: miter"/>
    </g>
    <g id="text_23">
     <!-- 8.2e-05 -->
     <g transform="translate(388.588437 98.262187) scale(0.1 -0.1)">
      <defs>
       <path id="DejaVuSans-2e" d="M 684 794 
L 1344 794 
L 1344 0 
L 684 0 
L 684 794 
z
" transform="scale(0.015625)"/>
       <path id="DejaVuSans-65" d="M 3597 1894 
L 3597 1613 
L 953 1613 
Q 991 1019 1311 708 
Q 1631 397 2203 397 
Q 2534 397 2845 478 
Q 3156 559 3463 722 
L 3463 178 
Q 3153 47 2828 -22 
Q 2503 -91 2169 -91 
Q 1331 -91 842 396 
Q 353 884 353 1716 
Q 353 2575 817 3079 
Q 1281 3584 2069 3584 
Q 2775 3584 3186 3129 
Q 3597 2675 3597 1894 
z
M 3022 2063 
Q 3016 2534 2758 2815 
Q 2500 3097 2075 3097 
Q 1594 3097 1305 2825 
Q 1016 2553 972 2059 
L 3022 2063 
z
" transform="scale(0.015625)"/>
       <path id="DejaVuSans-2d" d="M 313 2009 
L 1997 2009 
L 1997 1497 
L 313 1497 
L 313 2009 
z
" transform="scale(0.015625)"/>
      </defs>
      <use xlink:href="#DejaVuSans-38"/>
      <use xlink:href="#DejaVuSans-2e" x="63.623047"/>
      <use xlink:href="#DejaVuSans-32" x="95.410156"/>
      <use xlink:href="#DejaVuSans-65" x="159.033203"/>
      <use xlink:href="#DejaVuSans-2d" x="220.556641"/>
      <use xlink:href="#DejaVuSans-30" x="256.640625"/>
      <use xlink:href="#DejaVuSans-35" x="320.263672"/>
     </g>
    </g>
    <g id="patch_106">
     <path d="M 360.588437 112.940312 
L 380.588437 112.940312 
L 380.588437 105.940312 
L 360.588437 105.940312 
z
" style="fill: #440154; stroke: #000000; stroke-linejoin: miter"/>
    </g>
    <g id="text_24">
     <!-- 0.0003248 -->
     <g transform="translate(388.588437 112.940312) scale(0.1 -0.1)">
      <use xlink:href="#DejaVuSans-30"/>
      <use xlink:href="#DejaVuSans-2e" x="63.623047"/>
      <use xlink:href="#DejaVuSans-30" x="95.410156"/>
      <use xlink:href="#DejaVuSans-30" x="159.033203"/>
      <use xlink:href="#DejaVuSans-30" x="222.65625"/>
      <use xlink:href="#DejaVuSans-33" x="286.279297"/>
      <use xlink:href="#DejaVuSans-32" x="349.902344"/>
      <use xlink:href="#DejaVuSans-34" x="413.525391"/>
      <use xlink:href="#DejaVuSans-38" x="477.148438"/>
     </g>
    </g>
    <g id="patch_107">
     <path d="M 360.588437 127.618437 
L 380.588437 127.618437 
L 380.588437 120.618437 
L 360.588437 120.618437 
z
" style="fill: #440154; stroke: #000000; stroke-linejoin: miter"/>
    </g>
    <g id="text_25">
     <!-- 0.0012864 -->
     <g transform="translate(388.588437 127.618437) scale(0.1 -0.1)">
      <use xlink:href="#DejaVuSans-30"/>
      <use xlink:href="#DejaVuSans-2e" x="63.623047"/>
      <use xlink:href="#DejaVuSans-30" x="95.410156"/>
      <use xlink:href="#DejaVuSans-30" x="159.033203"/>
      <use xlink:href="#DejaVuSans-31" x="222.65625"/>
      <use xlink:href="#DejaVuSans-32" x="286.279297"/>
      <use xlink:href="#DejaVuSans-38" x="349.902344"/>
      <use xlink:href="#DejaVuSans-36" x="413.525391"/>
      <use xlink:href="#DejaVuSans-34" x="477.148438"/>
     </g>
    </g>
    <g id="patch_108">
     <path d="M 360.588437 142.296562 
L 380.588437 142.296562 
L 380.588437 135.296562 
L 360.588437 135.296562 
z
" style="fill: #450559; stroke: #000000; stroke-linejoin: miter"/>
    </g>
    <g id="text_26">
     <!-- 0.005094 -->
     <g transform="translate(388.588437 142.296562) scale(0.1 -0.1)">
      <use xlink:href="#DejaVuSans-30"/>
      <use xlink:href="#DejaVuSans-2e" x="63.623047"/>
      <use xlink:href="#DejaVuSans-30" x="95.410156"/>
      <use xlink:href="#DejaVuSans-30" x="159.033203"/>
      <use xlink:href="#DejaVuSans-35" x="222.65625"/>
      <use xlink:href="#DejaVuSans-30" x="286.279297"/>
      <use xlink:href="#DejaVuSans-39" x="349.902344"/>
      <use xlink:href="#DejaVuSans-34" x="413.525391"/>
     </g>
    </g>
    <g id="patch_109">
     <path d="M 360.588437 156.974687 
L 380.588437 156.974687 
L 380.588437 149.974687 
L 360.588437 149.974687 
z
" style="fill: #481467; stroke: #000000; stroke-linejoin: miter"/>
    </g>
    <g id="text_27">
     <!-- 0.0201723 -->
     <g transform="translate(388.588437 156.974687) scale(0.1 -0.1)">
      <use xlink:href="#DejaVuSans-30"/>
      <use xlink:href="#DejaVuSans-2e" x="63.623047"/>
      <use xlink:href="#DejaVuSans-30" x="95.410156"/>
      <use xlink:href="#DejaVuSans-32" x="159.033203"/>
      <use xlink:href="#DejaVuSans-30" x="222.65625"/>
      <use xlink:href="#DejaVuSans-31" x="286.279297"/>
      <use xlink:href="#DejaVuSans-37" x="349.902344"/>
      <use xlink:href="#DejaVuSans-32" x="413.525391"/>
      <use xlink:href="#DejaVuSans-33" x="477.148438"/>
     </g>
    </g>
    <g id="patch_110">
     <path d="M 360.588437 171.652812 
L 380.588437 171.652812 
L 380.588437 164.652812 
L 360.588437 164.652812 
z
" style="fill: #3f4788; stroke: #000000; stroke-linejoin: miter"/>
    </g>
    <g id="text_28">
     <!-- 0.0798822 -->
     <g transform="translate(388.588437 171.652812) scale(0.1 -0.1)">
      <use xlink:href="#DejaVuSans-30"/>
      <use xlink:href="#DejaVuSans-2e" x="63.623047"/>
      <use xlink:href="#DejaVuSans-30" x="95.410156"/>
      <use xlink:href="#DejaVuSans-37" x="159.033203"/>
      <use xlink:href="#DejaVuSans-39" x="222.65625"/>
      <use xlink:href="#DejaVuSans-38" x="286.279297"/>
      <use xlink:href="#DejaVuSans-38" x="349.902344"/>
      <use xlink:href="#DejaVuSans-32" x="413.525391"/>
      <use xlink:href="#DejaVuSans-32" x="477.148438"/>
     </g>
    </g>
    <g id="patch_111">
     <path d="M 360.588437 186.330937 
L 380.588437 186.330937 
L 380.588437 179.330937 
L 360.588437 179.330937 
z
" style="fill: #9bd93c; stroke: #000000; stroke-linejoin: miter"/>
    </g>
    <g id="text_29">
     <!-- 0.316333 -->
     <g transform="translate(388.588437 186.330937) scale(0.1 -0.1)">
      <use xlink:href="#DejaVuSans-30"/>
      <use xlink:href="#DejaVuSans-2e" x="63.623047"/>
      <use xlink:href="#DejaVuSans-33" x="95.410156"/>
      <use xlink:href="#DejaVuSans-31" x="159.033203"/>
      <use xlink:href="#DejaVuSans-36" x="222.65625"/>
      <use xlink:href="#DejaVuSans-33" x="286.279297"/>
      <use xlink:href="#DejaVuSans-33" x="349.902344"/>
      <use xlink:href="#DejaVuSans-33" x="413.525391"/>
     </g>
    </g>
   </g>
  </g>
 </g>
 <defs>
  <clipPath id="p06c98e3ef2">
   <rect x="21.948438" y="22.318125" width="329.64" height="219.76"/>
  </clipPath>
 </defs>
</svg>
