<?xml version="1.0" encoding="utf-8" standalone="no"?>
<!DOCTYPE svg PUBLIC "-//W3C//DTD SVG 1.1//EN"
  "http://www.w3.org/Graphics/SVG/1.1/DTD/svg11.dtd">
<svg xmlns:xlink="http://www.w3.org/1999/xlink" width="453.249062pt" height="296.758125pt" viewBox="0 0 453.249062 296.758125" xmlns="http://www.w3.org/2000/svg" version="1.1">
 <metadata>
  <rdf:RDF xmlns:dc="http://purl.org/dc/elements/1.1/" xmlns:cc="http://creativecommons.org/ns#" xmlns:rdf="http://www.w3.org/1999/02/22-rdf-syntax-ns#">
   <cc:Work>
    <dc:type rdf:resource="http://purl.org/dc/dcmitype/StillImage"/>
    <dc:date>2026-06-12T14:53:00+00:00</dc:date>
    <dc:format>image/svg+xml</dc:format>
    <dc:creator>
     <cc:Agent>
      <dc:title>Matplotlib v3.11.0, https://matplotlib.org/</dc:title>
     </cc:Agent>
    </dc:creator>
   </cc:Work>
  </rdf:RDF>
 </metadata>
 <defs>
  <style type="text/css">*{stroke-linejoin: round; stroke-linecap: butt}</style>
 </defs>
 <g id="figure_1">
  <g id="patch_1">
   <path d="M 0 296.758125 
L 453.249062 296.758125 
L 453.249062 0 
L 0 0 
z
" style="fill: #ffffff"/>
  </g>
  <g id="axes_1">
   <g id="patch_2">
    <path d="M 21.060938 272.558125 
L 396.420937 272.558125 
L 396.420937 22.318125 
L 21.060938 22.318125 
z
" style="fill: #ffffff"/>
   </g>
   <g id="patch_3">
    <path d="M 83.620937 141.182125 
C 98.552933 141.182125 112.875363 135.24958 123.433878 124.691065 
C 133.992393 114.13255 139.924937 99.81012 139.924937 84.878125 
C 139.924937 69.94613 133.992393 55.6237 123.433878 45.065185 
C 112.875363 34.50667 98.552933 28.574125 83.620937 28.574125 
C 68.688942 28.574125 54.366512 34.50667 43.807997 45.065185 
C 33.249482 55.6237 27.316938 69.94613 27.316938 84.878125 
C 27.316938 99.81012 33.249482 114.13255 43.807997 124.691065 
C 54.366512 135.24958 68.688942 141.182125 83.620937 141.182125 
z
" clip-path="url(#p1db9951ae3)" style="fill: #8000ff; stroke: #000000; stroke-linejoin: miter"/>
   </g>
   <g id="patch_4">
    <path d="M 208.740937 141.182125 
C 223.672933 141.182125 237.995363 135.24958 248.553878 124.691065 
C 259.112393 114.13255 265.044937 99.81012 265.044937 84.878125 
C 265.044937 69.94613 259.112393 55.6237 248.553878 45.065185 
C 237.995363 34.50667 223.672933 28.574125 208.740937 28.574125 
C 193.808942 28.574125 179.486512 34.50667 168.927997 45.065185 
C 158.369482 55.6237 152.436937 69.94613 152.436937 84.878125 
C 152.436937 99.81012 158.369482 114.13255 168.927997 124.691065 
C 179.486512 135.24958 193.808942 141.182125 208.740937 141.182125 
z
" clip-path="url(#p1db9951ae3)" style="fill: #2c7ef7; stroke: #000000; stroke-linejoin: miter"/>
   </g>
   <g id="patch_5">
    <path d="M 333.860937 141.182125 
C 348.792933 141.182125 363.115363 135.24958 373.673878 124.691065 
C 384.232393 114.13255 390.164937 99.81012 390.164937 84.878125 
C 390.164937 69.94613 384.232393 55.6237 373.673878 45.065185 
C 363.115363 34.50667 348.792933 28.574125 333.860937 28.574125 
C 318.928942 28.574125 304.606512 34.50667 294.047997 45.065185 
C 283.489482 55.6237 277.556938 69.94613 277.556938 84.878125 
C 277.556938 99.81012 283.489482 114.13255 294.047997 124.691065 
C 304.606512 135.24958 318.928942 141.182125 333.860937 141.182125 
z
" clip-path="url(#p1db9951ae3)" style="fill: #2adddd; stroke: #000000; stroke-linejoin: miter"/>
   </g>
   <g id="patch_6">
    <path d="M 83.620937 266.302125 
C 98.552933 266.302125 112.875363 260.36958 123.433878 249.811065 
C 133.992393 239.25255 139.924937 224.93012 139.924937 209.998125 
C 139.924937 195.06613 133.992393 180.7437 123.433878 170.185185 
C 112.875363 159.62667 98.552933 153.694125 83.620937 153.694125 
C 68.688942 153.694125 54.366512 159.62667 43.807997 170.185185 
C 33.249482 180.7437 27.316938 195.06613 27.316938 209.998125 
C 27.316938 224.93012 33.249482 239.25255 43.807997 249.811065 
C 54.366512 260.36958 68.688942 266.302125 83.620937 266.302125 
z
" clip-path="url(#p1db9951ae3)" style="fill: #80ffb4; stroke: #000000; stroke-linejoin: miter"/>
   </g>
   <g id="patch_7">
    <path d="M 208.740937 266.302125 
C 223.672933 266.302125 237.995363 260.36958 248.553878 249.811065 
C 259.112393 239.25255 265.044937 224.93012 265.044937 209.998125 
C 265.044937 195.06613 259.112393 180.7437 248.553878 170.185185 
C 237.995363 159.62667 223.672933 153.694125 208.740937 153.694125 
C 193.808942 153.694125 179.486512 159.62667 168.927997 170.185185 
C 158.369482 180.7437 152.436937 195.06613 152.436937 209.998125 
C 152.436937 224.93012 158.369482 239.25255 168.927997 249.811065 
C 179.486512 260.36958 193.808942 266.302125 208.740937 266.302125 
z
" clip-path="url(#p1db9951ae3)" style="fill: #d4dd80; stroke: #000000; stroke-linejoin: miter"/>
   </g>
   <g id="patch_8">
    <path d="M 333.860937 266.302125 
C 348.792933 266.302125 363.115363 260.36958 373.673878 249.811065 
C 384.232393 239.25255 390.164937 224.93012 390.164937 209.998125 
C 390.164937 195.06613 384.232393 180.7437 373.673878 170.185185 
C 363.115363 159.62667 348.792933 153.694125 333.860937 153.694125 
C 318.928942 153.694125 304.606512 159.62667 294.047997 170.185185 
C 283.489482 180.7437 277.556938 195.06613 277.556938 209.998125 
C 277.556938 224.93012 283.489482 239.25255 294.047997 249.811065 
C 304.606512 260.36958 318.928942 266.302125 333.860937 266.302125 
z
" clip-path="url(#p1db9951ae3)" style="fill: #ff7e41; stroke: #000000; stroke-linejoin: miter"/>
   </g>
   <g id="matplotlib.axis_1">
    <g id="xtick_1">
     <g id="line2d_1">
      <defs>
       <path id="ma55b8db507" d="M 0 0 
L 0 3.5 
" style="stroke: #000000; stroke-width: 0.8"/>
      </defs>
      <g>
       <use xlink:href="#ma55b8db507" x="83.620937" y="272.558125" style="stroke: #000000; stroke-width: 0.8"/>
      </g>
     </g>
     <g id="text_1">
      <!-- 1 -->
      <g transform="translate(80.439687 287.155781) scale(0.1 -0.1)">
       <defs>
        <path id="DejaVuSans-14" d="M 794 531 
L 1825 531 
L 1825 4091 
L 703 3866 
L 703 4441 
L 1819 4666 
L 2450 4666 
L 2450 531 
L 3481 531 
L 3481 0 
L 794 0 
L 794 531 
z
" transform="scale(0.015625)"/>
       </defs>
       <use xlink:href="#DejaVuSans-14"/>
      </g>
     </g>
    </g>
    <g id="xtick_2">
     <g id="line2d_2">
      <g>
       <use xlink:href="#ma55b8db507" x="208.740937" y="272.558125" style="stroke: #000000; stroke-width: 0.8"/>
      </g>
     </g>
     <g id="text_2">
      <!-- 2 -->
      <g transform="translate(205.559687 287.155781) scale(0.1 -0.1)">
       <defs>
        <path id="DejaVuSans-15" d="M 1228 531 
L 3431 531 
L 3431 0 
L 469 0 
L 469 531 
Q 828 903 1448 1529 
Q 2069 2156 2228 2338 
Q 2531 2678 2651 2914 
Q 2772 3150 2772 3378 
Q 2772 3750 2511 3984 
Q 2250 4219 1831 4219 
Q 1534 4219 1204 4116 
Q 875 4013 500 3803 
L 500 4441 
Q 881 4594 1212 4672 
Q 1544 4750 1819 4750 
Q 2544 4750 2975 4387 
Q 3406 4025 3406 3419 
Q 3406 3131 3298 2873 
Q 3191 2616 2906 2266 
Q 2828 2175 2409 1742 
Q 1991 1309 1228 531 
z
" transform="scale(0.015625)"/>
       </defs>
       <use xlink:href="#DejaVuSans-15"/>
      </g>
     </g>
    </g>
    <g id="xtick_3">
     <g id="line2d_3">
      <g>
       <use xlink:href="#ma55b8db507" x="333.860937" y="272.558125" style="stroke: #000000; stroke-width: 0.8"/>
      </g>
     </g>
     <g id="text_3">
      <!-- 3 -->
      <g transform="translate(330.679688 287.155781) scale(0.1 -0.1)">
       <defs>
        <path id="DejaVuSans-16" d="M 2597 2516 
Q 3050 2419 3304 2112 
Q 3559 1806 3559 1356 
Q 3559 666 3084 287 
Q 2609 -91 1734 -91 
Q 1441 -91 1130 -33 
Q 819 25 488 141 
L 488 750 
Q 750 597 1062 519 
Q 1375 441 1716 441 
Q 2309 441 2620 675 
Q 2931 909 2931 1356 
Q 2931 1769 2642 2001 
Q 2353 2234 1838 2234 
L 1294 2234 
L 1294 2753 
L 1863 2753 
Q 2328 2753 2575 2939 
Q 2822 3125 2822 3475 
Q 2822 3834 2567 4026 
Q 2313 4219 1838 4219 
Q 1578 4219 1281 4162 
Q 984 4106 628 3988 
L 628 4550 
Q 988 4650 1302 4700 
Q 1616 4750 1894 4750 
Q 2613 4750 3031 4423 
Q 3450 4097 3450 3541 
Q 3450 3153 3228 2886 
Q 3006 2619 2597 2516 
z
" transform="scale(0.015625)"/>
       </defs>
       <use xlink:href="#DejaVuSans-16"/>
      </g>
     </g>
    </g>
   </g>
   <g id="matplotlib.axis_2">
    <g id="ytick_1">
     <g id="line2d_4">
      <defs>
       <path id="m52bf65b0f2" d="M 0 0 
L -3.5 0 
" style="stroke: #000000; stroke-width: 0.8"/>
      </defs>
      <g>
       <use xlink:href="#m52bf65b0f2" x="21.060938" y="84.878125" style="stroke: #000000; stroke-width: 0.8"/>
      </g>
     </g>
     <g id="text_4">
      <!-- A -->
      <g transform="translate(7.220313 88.676953) scale(0.1 -0.1)">
       <defs>
        <path id="DejaVuSans-24" d="M 2188 4044 
L 1331 1722 
L 3047 1722 
L 2188 4044 
z
M 1831 4666 
L 2547 4666 
L 4325 0 
L 3669 0 
L 3244 1197 
L 1141 1197 
L 716 0 
L 50 0 
L 1831 4666 
z
" transform="scale(0.015625)"/>
       </defs>
       <use xlink:href="#DejaVuSans-24"/>
      </g>
     </g>
    </g>
    <g id="ytick_2">
     <g id="line2d_5">
      <g>
       <use xlink:href="#m52bf65b0f2" x="21.060938" y="209.998125" style="stroke: #000000; stroke-width: 0.8"/>
      </g>
     </g>
     <g id="text_5">
      <!-- B -->
      <g transform="translate(7.2 213.796953) scale(0.1 -0.1)">
       <defs>
        <path id="DejaVuSans-25" d="M 1259 2228 
L 1259 519 
L 2272 519 
Q 2781 519 3026 730 
Q 3272 941 3272 1375 
Q 3272 1813 3026 2020 
Q 2781 2228 2272 2228 
L 1259 2228 
z
M 1259 4147 
L 1259 2741 
L 2194 2741 
Q 2656 2741 2882 2914 
Q 3109 3088 3109 3444 
Q 3109 3797 2882 3972 
Q 2656 4147 2194 4147 
L 1259 4147 
z
M 628 4666 
L 2241 4666 
Q 2963 4666 3353 4366 
Q 3744 4066 3744 3513 
Q 3744 3084 3544 2831 
Q 3344 2578 2956 2516 
Q 3422 2416 3680 2098 
Q 3938 1781 3938 1306 
Q 3938 681 3513 340 
Q 3088 0 2303 0 
L 628 0 
L 628 4666 
z
" transform="scale(0.015625)"/>
       </defs>
       <use xlink:href="#DejaVuSans-25"/>
      </g>
     </g>
    </g>
   </g>
   <g id="patch_9">
    <path d="M 21.060938 272.558125 
L 21.060938 22.318125 
" style="fill: none; stroke: #000000; stroke-width: 0.8; stroke-linejoin: miter; stroke-linecap: square"/>
   </g>
   <g id="patch_10">
    <path d="M 396.420937 272.558125 
L 396.420937 22.318125 
" style="fill: none; stroke: #000000; stroke-width: 0.8; stroke-linejoin: miter; stroke-linecap: square"/>
   </g>
   <g id="patch_11">
    <path d="M 21.060938 272.558125 
L 396.420937 272.558125 
" style="fill: none; stroke: #000000; stroke-width: 0.8; stroke-linejoin: miter; stroke-linecap: square"/>
   </g>
   <g id="patch_12">
    <path d="M 21.060938 22.318125 
L 396.420937 22.318125 
" style="fill: none; stroke: #000000; stroke-width: 0.8; stroke-linejoin: miter; stroke-linecap: square"/>
   </g>
   <g id="text_6">
    <!-- virus -->
    <g transform="translate(194.128125 16.318125) scale(0.12 -0.12)">
     <defs>
      <path id="DejaVuSans-59" d="M 191 3500 
L 800 3500 
L 1894 563 
L 2988 3500 
L 3597 3500 
L 2284 0 
L 1503 0 
L 191 3500 
z
" transform="scale(0.015625)"/>
      <path id="DejaVuSans-4c" d="M 603 3500 
L 1178 3500 
L 1178 0 
L 603 0 
L 603 3500 
z
M 603 4863 
L 1178 4863 
L 1178 4134 
L 603 4134 
L 603 4863 
z
" transform="scale(0.015625)"/>
      <path id="DejaVuSans-55" d="M 2631 2963 
Q 2534 3019 2420 3045 
Q 2306 3072 2169 3072 
Q 1681 3072 1420 2755 
Q 1159 2438 1159 1844 
L 1159 0 
L 581 0 
L 581 3500 
L 1159 3500 
L 1159 2956 
Q 1341 3275 1631 3429 
Q 1922 3584 2338 3584 
Q 2397 3584 2469 3576 
Q 2541 3569 2628 3553 
L 2631 2963 
z
" transform="scale(0.015625)"/>
      <path id="DejaVuSans-58" d="M 544 1381 
L 544 3500 
L 1119 3500 
L 1119 1403 
Q 1119 906 1312 657 
Q 1506 409 1894 409 
Q 2359 409 2629 706 
Q 2900 1003 2900 1516 
L 2900 3500 
L 3475 3500 
L 3475 0 
L 2900 0 
L 2900 538 
Q 2691 219 2414 64 
Q 2138 -91 1772 -91 
Q 1169 -91 856 284 
Q 544 659 544 1381 
z
M 1991 3584 
L 1991 3584 
z
" transform="scale(0.015625)"/>
      <path id="DejaVuSans-56" d="M 2834 3397 
L 2834 2853 
Q 2591 2978 2328 3040 
Q 2066 3103 1784 3103 
Q 1356 3103 1142 2972 
Q 928 2841 928 2578 
Q 928 2378 1081 2264 
Q 1234 2150 1697 2047 
L 1894 2003 
Q 2506 1872 2764 1633 
Q 3022 1394 3022 966 
Q 3022 478 2636 193 
Q 2250 -91 1575 -91 
Q 1294 -91 989 -36 
Q 684 19 347 128 
L 347 722 
Q 666 556 975 473 
Q 1284 391 1588 391 
Q 1994 391 2212 530 
Q 2431 669 2431 922 
Q 2431 1156 2273 1281 
Q 2116 1406 1581 1522 
L 1381 1569 
Q 847 1681 609 1914 
Q 372 2147 372 2553 
Q 372 3047 722 3315 
Q 1072 3584 1716 3584 
Q 2034 3584 2315 3537 
Q 2597 3491 2834 3397 
z
" transform="scale(0.015625)"/>
     </defs>
     <use xlink:href="#DejaVuSans-59"/>
     <use xlink:href="#DejaVuSans-4c" transform="translate(59.1875 0)"/>
     <use xlink:href="#DejaVuSans-55" transform="translate(86.96875 0)"/>
     <use xlink:href="#DejaVuSans-58" transform="translate(128.078125 0)"/>
     <use xlink:href="#DejaVuSans-56" transform="translate(191.453125 0)"/>
    </g>
   </g>
   <g id="legend_1">
    <g id="patch_13">
     <path d="M 403.420937 193.940469 
L 444.049062 193.940469 
Q 446.049062 193.940469 446.049062 191.940469 
L 446.049062 102.935781 
Q 446.049062 100.935781 444.049062 100.935781 
L 403.420937 100.935781 
Q 401.420937 100.935781 401.420937 102.935781 
L 401.420937 191.940469 
Q 401.420937 193.940469 403.420937 193.940469 
z
" style="fill: #ffffff; opacity: 0.8; stroke: #cccccc; stroke-linejoin: miter"/>
    </g>
    <g id="patch_14">
     <path d="M 405.420937 112.534219 
L 425.420937 112.534219 
L 425.420937 105.534219 
L 405.420937 105.534219 
z
" style="fill: #8000ff; stroke: #000000; stroke-linejoin: miter"/>
    </g>
    <g id="text_7">
     <!-- N -->
     <g transform="translate(433.420937 112.534219) scale(0.1 -0.1)">
      <defs>
       <path id="DejaVuSans-31" d="M 628 4666 
L 1478 4666 
L 3547 763 
L 3547 4666 
L 4159 4666 
L 4159 0 
L 3309 0 
L 1241 3903 
L 1241 0 
L 628 0 
L 628 4666 
z
" transform="scale(0.015625)"/>
      </defs>
      <use xlink:href="#DejaVuSans-31"/>
     </g>
    </g>
    <g id="patch_15">
     <path d="M 405.420937 127.535 
L 425.420937 127.535 
L 425.420937 120.535 
L 405.420937 120.535 
z
" style="fill: #2c7ef7; stroke: #000000; stroke-linejoin: miter"/>
    </g>
    <g id="text_8">
     <!-- I -->
     <g transform="translate(433.420937 127.535) scale(0.1 -0.1)">
      <defs>
       <path id="DejaVuSans-2c" d="M 628 4666 
L 1259 4666 
L 1259 0 
L 628 0 
L 628 4666 
z
" transform="scale(0.015625)"/>
      </defs>
      <use xlink:href="#DejaVuSans-2c"/>
     </g>
    </g>
    <g id="patch_16">
     <path d="M 405.420937 142.535781 
L 425.420937 142.535781 
L 425.420937 135.535781 
L 405.420937 135.535781 
z
" style="fill: #2adddd; stroke: #000000; stroke-linejoin: miter"/>
    </g>
    <g id="text_9">
     <!-- L -->
     <g transform="translate(433.420937 142.535781) scale(0.1 -0.1)">
      <defs>
       <path id="DejaVuSans-2f" d="M 628 4666 
L 1259 4666 
L 1259 531 
L 3531 531 
L 3531 0 
L 628 0 
L 628 4666 
z
" transform="scale(0.015625)"/>
      </defs>
      <use xlink:href="#DejaVuSans-2f"/>
     </g>
    </g>
    <g id="patch_17">
     <path d="M 405.420937 157.536562 
L 425.420937 157.536562 
L 425.420937 150.536562 
L 405.420937 150.536562 
z
" style="fill: #80ffb4; stroke: #000000; stroke-linejoin: miter"/>
    </g>
    <g id="text_10">
     <!-- B -->
     <g transform="translate(433.420937 157.536562) scale(0.1 -0.1)">
      <use xlink:href="#DejaVuSans-25"/>
     </g>
    </g>
    <g id="patch_18">
     <path d="M 405.420937 172.537344 
L 425.420937 172.537344 
L 425.420937 165.537344 
L 405.420937 165.537344 
z
" style="fill: #d4dd80; stroke: #000000; stroke-linejoin: miter"/>
    </g>
    <g id="text_11">
     <!-- A -->
     <g transform="translate(433.420937 172.537344) scale(0.1 -0.1)">
      <use xlink:href="#DejaVuSans-24"/>
     </g>
    </g>
    <g id="patch_19">
     <path d="M 405.420937 187.538125 
L 425.420937 187.538125 
L 425.420937 180.538125 
L 405.420937 180.538125 
z
" style="fill: #ff7e41; stroke: #000000; stroke-linejoin: miter"/>
    </g>
    <g id="text_12">
     <!-- M -->
     <g transform="translate(433.420937 187.538125) scale(0.1 -0.1)">
      <defs>
       <path id="DejaVuSans-30" d="M 628 4666 
L 1569 4666 
L 2759 1491 
L 3956 4666 
L 4897 4666 
L 4897 0 
L 4281 0 
L 4281 4097 
L 3078 897 
L 2444 897 
L 1241 4097 
L 1241 0 
L 628 0 
L 628 4666 
z
" transform="scale(0.015625)"/>
      </defs>
      <use xlink:href="#DejaVuSans-30"/>
     </g>
    </g>
   </g>
  </g>
 </g>
 <defs>
  <clipPath id="p1db9951ae3">
   <rect x="21.060938" y="22.318125" width="375.36" height="250.24"/>
  </clipPath>
 </defs>
</svg>
