<?xml version="1.0" encoding="utf-8" standalone="no"?>
<!DOCTYPE svg PUBLIC "-//W3C//DTD SVG 1.1//EN"
  "http://www.w3.org/Graphics/SVG/1.1/DTD/svg11.dtd">
<svg xmlns:xlink="http://www.w3.org/1999/xlink" width="453.630312pt" height="264.03625pt" viewBox="0 0 453.630312 264.03625" xmlns="http://www.w3.org/2000/svg" version="1.1">
 <metadata>
  <rdf:RDF xmlns:dc="http://purl.org/dc/elements/1.1/" xmlns:cc="http://creativecommons.org/ns#" xmlns:rdf="http://www.w3.org/1999/02/22-rdf-syntax-ns#">
   <cc:Work>
    <dc:type rdf:resource="http://purl.org/dc/dcmitype/StillImage"/>
    <dc:date>2026-02-26T17:11:34+00:00</dc:date>
    <dc:format>image/svg+xml</dc:format>
    <dc:creator>
     <cc:Agent>
      <dc:title>Matplotlib v3.7.5, https://matplotlib.org/</dc:title>
     </cc:Agent>
    </dc:creator>
   </cc:Work>
  </rdf:RDF>
 </metadata>
 <defs>
  <style type="text/css">*{stroke-linejoin: round; stroke-linecap: butt}</style>
 </defs>
 <g id="figure_1">
  <g id="patch_1">
   <path d="M 0 264.03625 
L 453.630312 264.03625 
L 453.630312 0 
L 0 0 
z
" style="fill: #ffffff"/>
  </g>
  <g id="axes_1">
   <g id="patch_2">
    <path d="M 21.948438 240.158125 
L 348.708437 240.158125 
L 348.708437 22.318125 
L 21.948438 22.318125 
z
" style="fill: #ffffff"/>
   </g>
   <g id="patch_3">
    <path d="M 35.563437 48.186625 
C 38.813104 48.186625 41.930109 46.895519 44.22797 44.597658 
C 46.525831 42.299797 47.816937 39.182791 47.816937 35.933125 
C 47.816937 32.683459 46.525831 29.566453 44.22797 27.268592 
C 41.930109 24.970731 38.813104 23.679625 35.563437 23.679625 
C 32.313771 23.679625 29.196766 24.970731 26.898905 27.268592 
C 24.601044 29.566453 23.309938 32.683459 23.309938 35.933125 
C 23.309938 39.182791 24.601044 42.299797 26.898905 44.597658 
C 29.196766 46.895519 32.313771 48.186625 35.563437 48.186625 
z
" clip-path="url(#p60ddca3f1c)" style="fill: #19d2bf; stroke: #000000; stroke-linejoin: miter"/>
   </g>
   <g id="patch_4">
    <path d="M 62.793437 48.186625 
C 66.043104 48.186625 69.160109 46.895519 71.45797 44.597658 
C 73.755831 42.299797 75.046937 39.182791 75.046937 35.933125 
C 75.046937 32.683459 73.755831 29.566453 71.45797 27.268592 
C 69.160109 24.970731 66.043104 23.679625 62.793437 23.679625 
C 59.543771 23.679625 56.426766 24.970731 54.128905 27.268592 
C 51.831044 29.566453 50.539938 32.683459 50.539938 35.933125 
C 50.539938 39.182791 51.831044 42.299797 54.128905 44.597658 
C 56.426766 46.895519 59.543771 48.186625 62.793437 48.186625 
z
" clip-path="url(#p60ddca3f1c)" style="fill: #19d2bf; stroke: #000000; stroke-linejoin: miter"/>
   </g>
   <g id="patch_5">
    <path d="M 90.023437 48.186625 
C 93.273104 48.186625 96.390109 46.895519 98.68797 44.597658 
C 100.985831 42.299797 102.276937 39.182791 102.276937 35.933125 
C 102.276937 32.683459 100.985831 29.566453 98.68797 27.268592 
C 96.390109 24.970731 93.273104 23.679625 90.023437 23.679625 
C 86.773771 23.679625 83.656766 24.970731 81.358905 27.268592 
C 79.061044 29.566453 77.769937 32.683459 77.769937 35.933125 
C 77.769937 39.182791 79.061044 42.299797 81.358905 44.597658 
C 83.656766 46.895519 86.773771 48.186625 90.023437 48.186625 
z
" clip-path="url(#p60ddca3f1c)" style="fill: #19d2bf; stroke: #000000; stroke-linejoin: miter"/>
   </g>
   <g id="patch_6">
    <path d="M 117.253437 48.186625 
C 120.503104 48.186625 123.620109 46.895519 125.91797 44.597658 
C 128.215831 42.299797 129.506937 39.182791 129.506937 35.933125 
C 129.506937 32.683459 128.215831 29.566453 125.91797 27.268592 
C 123.620109 24.970731 120.503104 23.679625 117.253437 23.679625 
C 114.003771 23.679625 110.886766 24.970731 108.588905 27.268592 
C 106.291044 29.566453 104.999937 32.683459 104.999937 35.933125 
C 104.999937 39.182791 106.291044 42.299797 108.588905 44.597658 
C 110.886766 46.895519 114.003771 48.186625 117.253437 48.186625 
z
" clip-path="url(#p60ddca3f1c)" style="fill: #ffb133; stroke: #000000; stroke-linejoin: miter"/>
   </g>
   <g id="patch_7">
    <path d="M 144.483437 48.186625 
C 147.733104 48.186625 150.850109 46.895519 153.14797 44.597658 
C 155.445831 42.299797 156.736937 39.182791 156.736937 35.933125 
C 156.736937 32.683459 155.445831 29.566453 153.14797 27.268592 
C 150.850109 24.970731 147.733104 23.679625 144.483437 23.679625 
C 141.233771 23.679625 138.116766 24.970731 135.818905 27.268592 
C 133.521044 29.566453 132.229937 32.683459 132.229937 35.933125 
C 132.229937 39.182791 133.521044 42.299797 135.818905 44.597658 
C 138.116766 46.895519 141.233771 48.186625 144.483437 48.186625 
z
" clip-path="url(#p60ddca3f1c)" style="fill: #ffb133; stroke: #000000; stroke-linejoin: miter"/>
   </g>
   <g id="patch_8">
    <path d="M 171.713437 48.186625 
C 174.963104 48.186625 178.080109 46.895519 180.37797 44.597658 
C 182.675831 42.299797 183.966937 39.182791 183.966937 35.933125 
C 183.966937 32.683459 182.675831 29.566453 180.37797 27.268592 
C 178.080109 24.970731 174.963104 23.679625 171.713437 23.679625 
C 168.463771 23.679625 165.346766 24.970731 163.048905 27.268592 
C 160.751044 29.566453 159.459937 32.683459 159.459937 35.933125 
C 159.459937 39.182791 160.751044 42.299797 163.048905 44.597658 
C 165.346766 46.895519 168.463771 48.186625 171.713437 48.186625 
z
" clip-path="url(#p60ddca3f1c)" style="fill: #ffb133; stroke: #000000; stroke-linejoin: miter"/>
   </g>
   <g id="patch_9">
    <path d="M 198.943437 48.186625 
C 202.193104 48.186625 205.310109 46.895519 207.60797 44.597658 
C 209.905831 42.299797 211.196937 39.182791 211.196937 35.933125 
C 211.196937 32.683459 209.905831 29.566453 207.60797 27.268592 
C 205.310109 24.970731 202.193104 23.679625 198.943437 23.679625 
C 195.693771 23.679625 192.576766 24.970731 190.278905 27.268592 
C 187.981044 29.566453 186.689937 32.683459 186.689937 35.933125 
C 186.689937 39.182791 187.981044 42.299797 190.278905 44.597658 
C 192.576766 46.895519 195.693771 48.186625 198.943437 48.186625 
z
" clip-path="url(#p60ddca3f1c)" style="fill: #fe484e; stroke: #000000; stroke-linejoin: miter"/>
   </g>
   <g id="patch_10">
    <path d="M 226.173437 48.186625 
C 229.423104 48.186625 232.540109 46.895519 234.83797 44.597658 
C 237.135831 42.299797 238.426937 39.182791 238.426937 35.933125 
C 238.426937 32.683459 237.135831 29.566453 234.83797 27.268592 
C 232.540109 24.970731 229.423104 23.679625 226.173437 23.679625 
C 222.923771 23.679625 219.806766 24.970731 217.508905 27.268592 
C 215.211044 29.566453 213.919937 32.683459 213.919937 35.933125 
C 213.919937 39.182791 215.211044 42.299797 217.508905 44.597658 
C 219.806766 46.895519 222.923771 48.186625 226.173437 48.186625 
z
" clip-path="url(#p60ddca3f1c)" style="fill: #fe484e; stroke: #000000; stroke-linejoin: miter"/>
   </g>
   <g id="patch_11">
    <path d="M 253.403437 48.186625 
C 256.653104 48.186625 259.770109 46.895519 262.06797 44.597658 
C 264.365831 42.299797 265.656937 39.182791 265.656937 35.933125 
C 265.656937 32.683459 264.365831 29.566453 262.06797 27.268592 
C 259.770109 24.970731 256.653104 23.679625 253.403437 23.679625 
C 250.153771 23.679625 247.036766 24.970731 244.738905 27.268592 
C 242.441044 29.566453 241.149937 32.683459 241.149937 35.933125 
C 241.149937 39.182791 242.441044 42.299797 244.738905 44.597658 
C 247.036766 46.895519 250.153771 48.186625 253.403437 48.186625 
z
" clip-path="url(#p60ddca3f1c)" style="fill: #fe484e; stroke: #000000; stroke-linejoin: miter"/>
   </g>
   <g id="patch_12">
    <path d="M 280.633437 48.186625 
C 283.883104 48.186625 287.000109 46.895519 289.29797 44.597658 
C 291.595831 42.299797 292.886937 39.182791 292.886937 35.933125 
C 292.886937 32.683459 291.595831 29.566453 289.29797 27.268592 
C 287.000109 24.970731 283.883104 23.679625 280.633437 23.679625 
C 277.383771 23.679625 274.266766 24.970731 271.968905 27.268592 
C 269.671044 29.566453 268.379937 32.683459 268.379937 35.933125 
C 268.379937 39.182791 269.671044 42.299797 271.968905 44.597658 
C 274.266766 46.895519 277.383771 48.186625 280.633437 48.186625 
z
" clip-path="url(#p60ddca3f1c)" style="fill: #19d2bf; stroke: #000000; stroke-linejoin: miter"/>
   </g>
   <g id="patch_13">
    <path d="M 307.863437 48.186625 
C 311.113104 48.186625 314.230109 46.895519 316.52797 44.597658 
C 318.825831 42.299797 320.116937 39.182791 320.116937 35.933125 
C 320.116937 32.683459 318.825831 29.566453 316.52797 27.268592 
C 314.230109 24.970731 311.113104 23.679625 307.863437 23.679625 
C 304.613771 23.679625 301.496766 24.970731 299.198905 27.268592 
C 296.901044 29.566453 295.609938 32.683459 295.609938 35.933125 
C 295.609938 39.182791 296.901044 42.299797 299.198905 44.597658 
C 301.496766 46.895519 304.613771 48.186625 307.863437 48.186625 
z
" clip-path="url(#p60ddca3f1c)" style="fill: #19d2bf; stroke: #000000; stroke-linejoin: miter"/>
   </g>
   <g id="patch_14">
    <path d="M 335.093437 48.186625 
C 338.343104 48.186625 341.460109 46.895519 343.75797 44.597658 
C 346.055831 42.299797 347.346937 39.182791 347.346937 35.933125 
C 347.346937 32.683459 346.055831 29.566453 343.75797 27.268592 
C 341.460109 24.970731 338.343104 23.679625 335.093437 23.679625 
C 331.843771 23.679625 328.726766 24.970731 326.428905 27.268592 
C 324.131044 29.566453 322.839937 32.683459 322.839937 35.933125 
C 322.839937 39.182791 324.131044 42.299797 326.428905 44.597658 
C 328.726766 46.895519 331.843771 48.186625 335.093437 48.186625 
z
" clip-path="url(#p60ddca3f1c)" style="fill: #19d2bf; stroke: #000000; stroke-linejoin: miter"/>
   </g>
   <g id="patch_15">
    <path d="M 35.563437 75.416625 
C 38.813104 75.416625 41.930109 74.125519 44.22797 71.827658 
C 46.525831 69.529797 47.816937 66.412791 47.816937 63.163125 
C 47.816937 59.913459 46.525831 56.796453 44.22797 54.498592 
C 41.930109 52.200731 38.813104 50.909625 35.563437 50.909625 
C 32.313771 50.909625 29.196766 52.200731 26.898905 54.498592 
C 24.601044 56.796453 23.309938 59.913459 23.309938 63.163125 
C 23.309938 66.412791 24.601044 69.529797 26.898905 71.827658 
C 29.196766 74.125519 32.313771 75.416625 35.563437 75.416625 
z
" clip-path="url(#p60ddca3f1c)" style="fill: #19d2bf; stroke: #000000; stroke-linejoin: miter"/>
   </g>
   <g id="patch_16">
    <path d="M 62.793437 75.416625 
C 66.043104 75.416625 69.160109 74.125519 71.45797 71.827658 
C 73.755831 69.529797 75.046937 66.412791 75.046937 63.163125 
C 75.046937 59.913459 73.755831 56.796453 71.45797 54.498592 
C 69.160109 52.200731 66.043104 50.909625 62.793437 50.909625 
C 59.543771 50.909625 56.426766 52.200731 54.128905 54.498592 
C 51.831044 56.796453 50.539938 59.913459 50.539938 63.163125 
C 50.539938 66.412791 51.831044 69.529797 54.128905 71.827658 
C 56.426766 74.125519 59.543771 75.416625 62.793437 75.416625 
z
" clip-path="url(#p60ddca3f1c)" style="fill: #19d2bf; stroke: #000000; stroke-linejoin: miter"/>
   </g>
   <g id="patch_17">
    <path d="M 90.023437 75.416625 
C 93.273104 75.416625 96.390109 74.125519 98.68797 71.827658 
C 100.985831 69.529797 102.276937 66.412791 102.276937 63.163125 
C 102.276937 59.913459 100.985831 56.796453 98.68797 54.498592 
C 96.390109 52.200731 93.273104 50.909625 90.023437 50.909625 
C 86.773771 50.909625 83.656766 52.200731 81.358905 54.498592 
C 79.061044 56.796453 77.769937 59.913459 77.769937 63.163125 
C 77.769937 66.412791 79.061044 69.529797 81.358905 71.827658 
C 83.656766 74.125519 86.773771 75.416625 90.023437 75.416625 
z
" clip-path="url(#p60ddca3f1c)" style="fill: #19d2bf; stroke: #000000; stroke-linejoin: miter"/>
   </g>
   <g id="patch_18">
    <path d="M 117.253437 75.416625 
C 120.503104 75.416625 123.620109 74.125519 125.91797 71.827658 
C 128.215831 69.529797 129.506937 66.412791 129.506937 63.163125 
C 129.506937 59.913459 128.215831 56.796453 125.91797 54.498592 
C 123.620109 52.200731 120.503104 50.909625 117.253437 50.909625 
C 114.003771 50.909625 110.886766 52.200731 108.588905 54.498592 
C 106.291044 56.796453 104.999937 59.913459 104.999937 63.163125 
C 104.999937 66.412791 106.291044 69.529797 108.588905 71.827658 
C 110.886766 74.125519 114.003771 75.416625 117.253437 75.416625 
z
" clip-path="url(#p60ddca3f1c)" style="fill: #ffb133; stroke: #000000; stroke-linejoin: miter"/>
   </g>
   <g id="patch_19">
    <path d="M 144.483437 75.416625 
C 147.733104 75.416625 150.850109 74.125519 153.14797 71.827658 
C 155.445831 69.529797 156.736937 66.412791 156.736937 63.163125 
C 156.736937 59.913459 155.445831 56.796453 153.14797 54.498592 
C 150.850109 52.200731 147.733104 50.909625 144.483437 50.909625 
C 141.233771 50.909625 138.116766 52.200731 135.818905 54.498592 
C 133.521044 56.796453 132.229937 59.913459 132.229937 63.163125 
C 132.229937 66.412791 133.521044 69.529797 135.818905 71.827658 
C 138.116766 74.125519 141.233771 75.416625 144.483437 75.416625 
z
" clip-path="url(#p60ddca3f1c)" style="fill: #ffb133; stroke: #000000; stroke-linejoin: miter"/>
   </g>
   <g id="patch_20">
    <path d="M 171.713437 75.416625 
C 174.963104 75.416625 178.080109 74.125519 180.37797 71.827658 
C 182.675831 69.529797 183.966937 66.412791 183.966937 63.163125 
C 183.966937 59.913459 182.675831 56.796453 180.37797 54.498592 
C 178.080109 52.200731 174.963104 50.909625 171.713437 50.909625 
C 168.463771 50.909625 165.346766 52.200731 163.048905 54.498592 
C 160.751044 56.796453 159.459937 59.913459 159.459937 63.163125 
C 159.459937 66.412791 160.751044 69.529797 163.048905 71.827658 
C 165.346766 74.125519 168.463771 75.416625 171.713437 75.416625 
z
" clip-path="url(#p60ddca3f1c)" style="fill: #ffb133; stroke: #000000; stroke-linejoin: miter"/>
   </g>
   <g id="patch_21">
    <path d="M 198.943437 75.416625 
C 202.193104 75.416625 205.310109 74.125519 207.60797 71.827658 
C 209.905831 69.529797 211.196937 66.412791 211.196937 63.163125 
C 211.196937 59.913459 209.905831 56.796453 207.60797 54.498592 
C 205.310109 52.200731 202.193104 50.909625 198.943437 50.909625 
C 195.693771 50.909625 192.576766 52.200731 190.278905 54.498592 
C 187.981044 56.796453 186.689937 59.913459 186.689937 63.163125 
C 186.689937 66.412791 187.981044 69.529797 190.278905 71.827658 
C 192.576766 74.125519 195.693771 75.416625 198.943437 75.416625 
z
" clip-path="url(#p60ddca3f1c)" style="fill: #fe484e; stroke: #000000; stroke-linejoin: miter"/>
   </g>
   <g id="patch_22">
    <path d="M 226.173437 75.416625 
C 229.423104 75.416625 232.540109 74.125519 234.83797 71.827658 
C 237.135831 69.529797 238.426937 66.412791 238.426937 63.163125 
C 238.426937 59.913459 237.135831 56.796453 234.83797 54.498592 
C 232.540109 52.200731 229.423104 50.909625 226.173437 50.909625 
C 222.923771 50.909625 219.806766 52.200731 217.508905 54.498592 
C 215.211044 56.796453 213.919937 59.913459 213.919937 63.163125 
C 213.919937 66.412791 215.211044 69.529797 217.508905 71.827658 
C 219.806766 74.125519 222.923771 75.416625 226.173437 75.416625 
z
" clip-path="url(#p60ddca3f1c)" style="fill: #fe484e; stroke: #000000; stroke-linejoin: miter"/>
   </g>
   <g id="patch_23">
    <path d="M 253.403437 75.416625 
C 256.653104 75.416625 259.770109 74.125519 262.06797 71.827658 
C 264.365831 69.529797 265.656937 66.412791 265.656937 63.163125 
C 265.656937 59.913459 264.365831 56.796453 262.06797 54.498592 
C 259.770109 52.200731 256.653104 50.909625 253.403437 50.909625 
C 250.153771 50.909625 247.036766 52.200731 244.738905 54.498592 
C 242.441044 56.796453 241.149937 59.913459 241.149937 63.163125 
C 241.149937 66.412791 242.441044 69.529797 244.738905 71.827658 
C 247.036766 74.125519 250.153771 75.416625 253.403437 75.416625 
z
" clip-path="url(#p60ddca3f1c)" style="fill: #fe484e; stroke: #000000; stroke-linejoin: miter"/>
   </g>
   <g id="patch_24">
    <path d="M 280.633437 75.416625 
C 283.883104 75.416625 287.000109 74.125519 289.29797 71.827658 
C 291.595831 69.529797 292.886937 66.412791 292.886937 63.163125 
C 292.886937 59.913459 291.595831 56.796453 289.29797 54.498592 
C 287.000109 52.200731 283.883104 50.909625 280.633437 50.909625 
C 277.383771 50.909625 274.266766 52.200731 271.968905 54.498592 
C 269.671044 56.796453 268.379937 59.913459 268.379937 63.163125 
C 268.379937 66.412791 269.671044 69.529797 271.968905 71.827658 
C 274.266766 74.125519 277.383771 75.416625 280.633437 75.416625 
z
" clip-path="url(#p60ddca3f1c)" style="fill: #19d2bf; stroke: #000000; stroke-linejoin: miter"/>
   </g>
   <g id="patch_25">
    <path d="M 307.863437 75.416625 
C 311.113104 75.416625 314.230109 74.125519 316.52797 71.827658 
C 318.825831 69.529797 320.116937 66.412791 320.116937 63.163125 
C 320.116937 59.913459 318.825831 56.796453 316.52797 54.498592 
C 314.230109 52.200731 311.113104 50.909625 307.863437 50.909625 
C 304.613771 50.909625 301.496766 52.200731 299.198905 54.498592 
C 296.901044 56.796453 295.609938 59.913459 295.609938 63.163125 
C 295.609938 66.412791 296.901044 69.529797 299.198905 71.827658 
C 301.496766 74.125519 304.613771 75.416625 307.863437 75.416625 
z
" clip-path="url(#p60ddca3f1c)" style="fill: #19d2bf; stroke: #000000; stroke-linejoin: miter"/>
   </g>
   <g id="patch_26">
    <path d="M 335.093437 75.416625 
C 338.343104 75.416625 341.460109 74.125519 343.75797 71.827658 
C 346.055831 69.529797 347.346937 66.412791 347.346937 63.163125 
C 347.346937 59.913459 346.055831 56.796453 343.75797 54.498592 
C 341.460109 52.200731 338.343104 50.909625 335.093437 50.909625 
C 331.843771 50.909625 328.726766 52.200731 326.428905 54.498592 
C 324.131044 56.796453 322.839937 59.913459 322.839937 63.163125 
C 322.839937 66.412791 324.131044 69.529797 326.428905 71.827658 
C 328.726766 74.125519 331.843771 75.416625 335.093437 75.416625 
z
" clip-path="url(#p60ddca3f1c)" style="fill: #19d2bf; stroke: #000000; stroke-linejoin: miter"/>
   </g>
   <g id="patch_27">
    <path d="M 35.563437 102.646625 
C 38.813104 102.646625 41.930109 101.355519 44.22797 99.057658 
C 46.525831 96.759797 47.816937 93.642791 47.816937 90.393125 
C 47.816937 87.143459 46.525831 84.026453 44.22797 81.728592 
C 41.930109 79.430731 38.813104 78.139625 35.563437 78.139625 
C 32.313771 78.139625 29.196766 79.430731 26.898905 81.728592 
C 24.601044 84.026453 23.309938 87.143459 23.309938 90.393125 
C 23.309938 93.642791 24.601044 96.759797 26.898905 99.057658 
C 29.196766 101.355519 32.313771 102.646625 35.563437 102.646625 
z
" clip-path="url(#p60ddca3f1c)" style="fill: #19d2bf; stroke: #000000; stroke-linejoin: miter"/>
   </g>
   <g id="patch_28">
    <path d="M 62.793437 102.646625 
C 66.043104 102.646625 69.160109 101.355519 71.45797 99.057658 
C 73.755831 96.759797 75.046937 93.642791 75.046937 90.393125 
C 75.046937 87.143459 73.755831 84.026453 71.45797 81.728592 
C 69.160109 79.430731 66.043104 78.139625 62.793437 78.139625 
C 59.543771 78.139625 56.426766 79.430731 54.128905 81.728592 
C 51.831044 84.026453 50.539938 87.143459 50.539938 90.393125 
C 50.539938 93.642791 51.831044 96.759797 54.128905 99.057658 
C 56.426766 101.355519 59.543771 102.646625 62.793437 102.646625 
z
" clip-path="url(#p60ddca3f1c)" style="fill: #19d2bf; stroke: #000000; stroke-linejoin: miter"/>
   </g>
   <g id="patch_29">
    <path d="M 90.023437 102.646625 
C 93.273104 102.646625 96.390109 101.355519 98.68797 99.057658 
C 100.985831 96.759797 102.276937 93.642791 102.276937 90.393125 
C 102.276937 87.143459 100.985831 84.026453 98.68797 81.728592 
C 96.390109 79.430731 93.273104 78.139625 90.023437 78.139625 
C 86.773771 78.139625 83.656766 79.430731 81.358905 81.728592 
C 79.061044 84.026453 77.769937 87.143459 77.769937 90.393125 
C 77.769937 93.642791 79.061044 96.759797 81.358905 99.057658 
C 83.656766 101.355519 86.773771 102.646625 90.023437 102.646625 
z
" clip-path="url(#p60ddca3f1c)" style="fill: #19d2bf; stroke: #000000; stroke-linejoin: miter"/>
   </g>
   <g id="patch_30">
    <path d="M 117.253437 102.646625 
C 120.503104 102.646625 123.620109 101.355519 125.91797 99.057658 
C 128.215831 96.759797 129.506937 93.642791 129.506937 90.393125 
C 129.506937 87.143459 128.215831 84.026453 125.91797 81.728592 
C 123.620109 79.430731 120.503104 78.139625 117.253437 78.139625 
C 114.003771 78.139625 110.886766 79.430731 108.588905 81.728592 
C 106.291044 84.026453 104.999937 87.143459 104.999937 90.393125 
C 104.999937 93.642791 106.291044 96.759797 108.588905 99.057658 
C 110.886766 101.355519 114.003771 102.646625 117.253437 102.646625 
z
" clip-path="url(#p60ddca3f1c)" style="fill: #ffb133; stroke: #000000; stroke-linejoin: miter"/>
   </g>
   <g id="patch_31">
    <path d="M 144.483437 102.646625 
C 147.733104 102.646625 150.850109 101.355519 153.14797 99.057658 
C 155.445831 96.759797 156.736937 93.642791 156.736937 90.393125 
C 156.736937 87.143459 155.445831 84.026453 153.14797 81.728592 
C 150.850109 79.430731 147.733104 78.139625 144.483437 78.139625 
C 141.233771 78.139625 138.116766 79.430731 135.818905 81.728592 
C 133.521044 84.026453 132.229937 87.143459 132.229937 90.393125 
C 132.229937 93.642791 133.521044 96.759797 135.818905 99.057658 
C 138.116766 101.355519 141.233771 102.646625 144.483437 102.646625 
z
" clip-path="url(#p60ddca3f1c)" style="fill: #ffb133; stroke: #000000; stroke-linejoin: miter"/>
   </g>
   <g id="patch_32">
    <path d="M 171.713437 102.646625 
C 174.963104 102.646625 178.080109 101.355519 180.37797 99.057658 
C 182.675831 96.759797 183.966937 93.642791 183.966937 90.393125 
C 183.966937 87.143459 182.675831 84.026453 180.37797 81.728592 
C 178.080109 79.430731 174.963104 78.139625 171.713437 78.139625 
C 168.463771 78.139625 165.346766 79.430731 163.048905 81.728592 
C 160.751044 84.026453 159.459937 87.143459 159.459937 90.393125 
C 159.459937 93.642791 160.751044 96.759797 163.048905 99.057658 
C 165.346766 101.355519 168.463771 102.646625 171.713437 102.646625 
z
" clip-path="url(#p60ddca3f1c)" style="fill: #ffb133; stroke: #000000; stroke-linejoin: miter"/>
   </g>
   <g id="patch_33">
    <path d="M 198.943437 102.646625 
C 202.193104 102.646625 205.310109 101.355519 207.60797 99.057658 
C 209.905831 96.759797 211.196937 93.642791 211.196937 90.393125 
C 211.196937 87.143459 209.905831 84.026453 207.60797 81.728592 
C 205.310109 79.430731 202.193104 78.139625 198.943437 78.139625 
C 195.693771 78.139625 192.576766 79.430731 190.278905 81.728592 
C 187.981044 84.026453 186.689937 87.143459 186.689937 90.393125 
C 186.689937 93.642791 187.981044 96.759797 190.278905 99.057658 
C 192.576766 101.355519 195.693771 102.646625 198.943437 102.646625 
z
" clip-path="url(#p60ddca3f1c)" style="fill: #fe484e; stroke: #000000; stroke-linejoin: miter"/>
   </g>
   <g id="patch_34">
    <path d="M 226.173437 102.646625 
C 229.423104 102.646625 232.540109 101.355519 234.83797 99.057658 
C 237.135831 96.759797 238.426937 93.642791 238.426937 90.393125 
C 238.426937 87.143459 237.135831 84.026453 234.83797 81.728592 
C 232.540109 79.430731 229.423104 78.139625 226.173437 78.139625 
C 222.923771 78.139625 219.806766 79.430731 217.508905 81.728592 
C 215.211044 84.026453 213.919937 87.143459 213.919937 90.393125 
C 213.919937 93.642791 215.211044 96.759797 217.508905 99.057658 
C 219.806766 101.355519 222.923771 102.646625 226.173437 102.646625 
z
" clip-path="url(#p60ddca3f1c)" style="fill: #fe484e; stroke: #000000; stroke-linejoin: miter"/>
   </g>
   <g id="patch_35">
    <path d="M 253.403437 102.646625 
C 256.653104 102.646625 259.770109 101.355519 262.06797 99.057658 
C 264.365831 96.759797 265.656937 93.642791 265.656937 90.393125 
C 265.656937 87.143459 264.365831 84.026453 262.06797 81.728592 
C 259.770109 79.430731 256.653104 78.139625 253.403437 78.139625 
C 250.153771 78.139625 247.036766 79.430731 244.738905 81.728592 
C 242.441044 84.026453 241.149937 87.143459 241.149937 90.393125 
C 241.149937 93.642791 242.441044 96.759797 244.738905 99.057658 
C 247.036766 101.355519 250.153771 102.646625 253.403437 102.646625 
z
" clip-path="url(#p60ddca3f1c)" style="fill: #fe484e; stroke: #000000; stroke-linejoin: miter"/>
   </g>
   <g id="patch_36">
    <path d="M 280.633437 102.646625 
C 283.883104 102.646625 287.000109 101.355519 289.29797 99.057658 
C 291.595831 96.759797 292.886937 93.642791 292.886937 90.393125 
C 292.886937 87.143459 291.595831 84.026453 289.29797 81.728592 
C 287.000109 79.430731 283.883104 78.139625 280.633437 78.139625 
C 277.383771 78.139625 274.266766 79.430731 271.968905 81.728592 
C 269.671044 84.026453 268.379937 87.143459 268.379937 90.393125 
C 268.379937 93.642791 269.671044 96.759797 271.968905 99.057658 
C 274.266766 101.355519 277.383771 102.646625 280.633437 102.646625 
z
" clip-path="url(#p60ddca3f1c)" style="fill: #19d2bf; stroke: #000000; stroke-linejoin: miter"/>
   </g>
   <g id="patch_37">
    <path d="M 307.863437 102.646625 
C 311.113104 102.646625 314.230109 101.355519 316.52797 99.057658 
C 318.825831 96.759797 320.116937 93.642791 320.116937 90.393125 
C 320.116937 87.143459 318.825831 84.026453 316.52797 81.728592 
C 314.230109 79.430731 311.113104 78.139625 307.863437 78.139625 
C 304.613771 78.139625 301.496766 79.430731 299.198905 81.728592 
C 296.901044 84.026453 295.609938 87.143459 295.609938 90.393125 
C 295.609938 93.642791 296.901044 96.759797 299.198905 99.057658 
C 301.496766 101.355519 304.613771 102.646625 307.863437 102.646625 
z
" clip-path="url(#p60ddca3f1c)" style="fill: #19d2bf; stroke: #000000; stroke-linejoin: miter"/>
   </g>
   <g id="patch_38">
    <path d="M 335.093437 102.646625 
C 338.343104 102.646625 341.460109 101.355519 343.75797 99.057658 
C 346.055831 96.759797 347.346937 93.642791 347.346937 90.393125 
C 347.346937 87.143459 346.055831 84.026453 343.75797 81.728592 
C 341.460109 79.430731 338.343104 78.139625 335.093437 78.139625 
C 331.843771 78.139625 328.726766 79.430731 326.428905 81.728592 
C 324.131044 84.026453 322.839937 87.143459 322.839937 90.393125 
C 322.839937 93.642791 324.131044 96.759797 326.428905 99.057658 
C 328.726766 101.355519 331.843771 102.646625 335.093437 102.646625 
z
" clip-path="url(#p60ddca3f1c)" style="fill: #19d2bf; stroke: #000000; stroke-linejoin: miter"/>
   </g>
   <g id="patch_39">
    <path d="M 35.563437 129.876625 
C 38.813104 129.876625 41.930109 128.585519 44.22797 126.287658 
C 46.525831 123.989797 47.816937 120.872791 47.816937 117.623125 
C 47.816937 114.373459 46.525831 111.256453 44.22797 108.958592 
C 41.930109 106.660731 38.813104 105.369625 35.563437 105.369625 
C 32.313771 105.369625 29.196766 106.660731 26.898905 108.958592 
C 24.601044 111.256453 23.309938 114.373459 23.309938 117.623125 
C 23.309938 120.872791 24.601044 123.989797 26.898905 126.287658 
C 29.196766 128.585519 32.313771 129.876625 35.563437 129.876625 
z
" clip-path="url(#p60ddca3f1c)" style="fill: #19d2bf; stroke: #000000; stroke-linejoin: miter"/>
   </g>
   <g id="patch_40">
    <path d="M 62.793437 129.876625 
C 66.043104 129.876625 69.160109 128.585519 71.45797 126.287658 
C 73.755831 123.989797 75.046937 120.872791 75.046937 117.623125 
C 75.046937 114.373459 73.755831 111.256453 71.45797 108.958592 
C 69.160109 106.660731 66.043104 105.369625 62.793437 105.369625 
C 59.543771 105.369625 56.426766 106.660731 54.128905 108.958592 
C 51.831044 111.256453 50.539938 114.373459 50.539938 117.623125 
C 50.539938 120.872791 51.831044 123.989797 54.128905 126.287658 
C 56.426766 128.585519 59.543771 129.876625 62.793437 129.876625 
z
" clip-path="url(#p60ddca3f1c)" style="fill: #19d2bf; stroke: #000000; stroke-linejoin: miter"/>
   </g>
   <g id="patch_41">
    <path d="M 90.023437 129.876625 
C 93.273104 129.876625 96.390109 128.585519 98.68797 126.287658 
C 100.985831 123.989797 102.276937 120.872791 102.276937 117.623125 
C 102.276937 114.373459 100.985831 111.256453 98.68797 108.958592 
C 96.390109 106.660731 93.273104 105.369625 90.023437 105.369625 
C 86.773771 105.369625 83.656766 106.660731 81.358905 108.958592 
C 79.061044 111.256453 77.769937 114.373459 77.769937 117.623125 
C 77.769937 120.872791 79.061044 123.989797 81.358905 126.287658 
C 83.656766 128.585519 86.773771 129.876625 90.023437 129.876625 
z
" clip-path="url(#p60ddca3f1c)" style="fill: #19d2bf; stroke: #000000; stroke-linejoin: miter"/>
   </g>
   <g id="patch_42">
    <path d="M 117.253437 129.876625 
C 120.503104 129.876625 123.620109 128.585519 125.91797 126.287658 
C 128.215831 123.989797 129.506937 120.872791 129.506937 117.623125 
C 129.506937 114.373459 128.215831 111.256453 125.91797 108.958592 
C 123.620109 106.660731 120.503104 105.369625 117.253437 105.369625 
C 114.003771 105.369625 110.886766 106.660731 108.588905 108.958592 
C 106.291044 111.256453 104.999937 114.373459 104.999937 117.623125 
C 104.999937 120.872791 106.291044 123.989797 108.588905 126.287658 
C 110.886766 128.585519 114.003771 129.876625 117.253437 129.876625 
z
" clip-path="url(#p60ddca3f1c)" style="fill: #ffb133; stroke: #000000; stroke-linejoin: miter"/>
   </g>
   <g id="patch_43">
    <path d="M 144.483437 129.876625 
C 147.733104 129.876625 150.850109 128.585519 153.14797 126.287658 
C 155.445831 123.989797 156.736937 120.872791 156.736937 117.623125 
C 156.736937 114.373459 155.445831 111.256453 153.14797 108.958592 
C 150.850109 106.660731 147.733104 105.369625 144.483437 105.369625 
C 141.233771 105.369625 138.116766 106.660731 135.818905 108.958592 
C 133.521044 111.256453 132.229937 114.373459 132.229937 117.623125 
C 132.229937 120.872791 133.521044 123.989797 135.818905 126.287658 
C 138.116766 128.585519 141.233771 129.876625 144.483437 129.876625 
z
" clip-path="url(#p60ddca3f1c)" style="fill: #ffb133; stroke: #000000; stroke-linejoin: miter"/>
   </g>
   <g id="patch_44">
    <path d="M 171.713437 129.876625 
C 174.963104 129.876625 178.080109 128.585519 180.37797 126.287658 
C 182.675831 123.989797 183.966937 120.872791 183.966937 117.623125 
C 183.966937 114.373459 182.675831 111.256453 180.37797 108.958592 
C 178.080109 106.660731 174.963104 105.369625 171.713437 105.369625 
C 168.463771 105.369625 165.346766 106.660731 163.048905 108.958592 
C 160.751044 111.256453 159.459937 114.373459 159.459937 117.623125 
C 159.459937 120.872791 160.751044 123.989797 163.048905 126.287658 
C 165.346766 128.585519 168.463771 129.876625 171.713437 129.876625 
z
" clip-path="url(#p60ddca3f1c)" style="fill: #ffb133; stroke: #000000; stroke-linejoin: miter"/>
   </g>
   <g id="patch_45">
    <path d="M 198.943437 129.876625 
C 202.193104 129.876625 205.310109 128.585519 207.60797 126.287658 
C 209.905831 123.989797 211.196937 120.872791 211.196937 117.623125 
C 211.196937 114.373459 209.905831 111.256453 207.60797 108.958592 
C 205.310109 106.660731 202.193104 105.369625 198.943437 105.369625 
C 195.693771 105.369625 192.576766 106.660731 190.278905 108.958592 
C 187.981044 111.256453 186.689937 114.373459 186.689937 117.623125 
C 186.689937 120.872791 187.981044 123.989797 190.278905 126.287658 
C 192.576766 128.585519 195.693771 129.876625 198.943437 129.876625 
z
" clip-path="url(#p60ddca3f1c)" style="fill: #fe484e; stroke: #000000; stroke-linejoin: miter"/>
   </g>
   <g id="patch_46">
    <path d="M 226.173437 129.876625 
C 229.423104 129.876625 232.540109 128.585519 234.83797 126.287658 
C 237.135831 123.989797 238.426937 120.872791 238.426937 117.623125 
C 238.426937 114.373459 237.135831 111.256453 234.83797 108.958592 
C 232.540109 106.660731 229.423104 105.369625 226.173437 105.369625 
C 222.923771 105.369625 219.806766 106.660731 217.508905 108.958592 
C 215.211044 111.256453 213.919937 114.373459 213.919937 117.623125 
C 213.919937 120.872791 215.211044 123.989797 217.508905 126.287658 
C 219.806766 128.585519 222.923771 129.876625 226.173437 129.876625 
z
" clip-path="url(#p60ddca3f1c)" style="fill: #fe484e; stroke: #000000; stroke-linejoin: miter"/>
   </g>
   <g id="patch_47">
    <path d="M 253.403437 129.876625 
C 256.653104 129.876625 259.770109 128.585519 262.06797 126.287658 
C 264.365831 123.989797 265.656937 120.872791 265.656937 117.623125 
C 265.656937 114.373459 264.365831 111.256453 262.06797 108.958592 
C 259.770109 106.660731 256.653104 105.369625 253.403437 105.369625 
C 250.153771 105.369625 247.036766 106.660731 244.738905 108.958592 
C 242.441044 111.256453 241.149937 114.373459 241.149937 117.623125 
C 241.149937 120.872791 242.441044 123.989797 244.738905 126.287658 
C 247.036766 128.585519 250.153771 129.876625 253.403437 129.876625 
z
" clip-path="url(#p60ddca3f1c)" style="fill: #fe484e; stroke: #000000; stroke-linejoin: miter"/>
   </g>
   <g id="patch_48">
    <path d="M 280.633437 129.876625 
C 283.883104 129.876625 287.000109 128.585519 289.29797 126.287658 
C 291.595831 123.989797 292.886937 120.872791 292.886937 117.623125 
C 292.886937 114.373459 291.595831 111.256453 289.29797 108.958592 
C 287.000109 106.660731 283.883104 105.369625 280.633437 105.369625 
C 277.383771 105.369625 274.266766 106.660731 271.968905 108.958592 
C 269.671044 111.256453 268.379937 114.373459 268.379937 117.623125 
C 268.379937 120.872791 269.671044 123.989797 271.968905 126.287658 
C 274.266766 128.585519 277.383771 129.876625 280.633437 129.876625 
z
" clip-path="url(#p60ddca3f1c)" style="fill: #19d2bf; stroke: #000000; stroke-linejoin: miter"/>
   </g>
   <g id="patch_49">
    <path d="M 307.863437 129.876625 
C 311.113104 129.876625 314.230109 128.585519 316.52797 126.287658 
C 318.825831 123.989797 320.116937 120.872791 320.116937 117.623125 
C 320.116937 114.373459 318.825831 111.256453 316.52797 108.958592 
C 314.230109 106.660731 311.113104 105.369625 307.863437 105.369625 
C 304.613771 105.369625 301.496766 106.660731 299.198905 108.958592 
C 296.901044 111.256453 295.609938 114.373459 295.609938 117.623125 
C 295.609938 120.872791 296.901044 123.989797 299.198905 126.287658 
C 301.496766 128.585519 304.613771 129.876625 307.863437 129.876625 
z
" clip-path="url(#p60ddca3f1c)" style="fill: #19d2bf; stroke: #000000; stroke-linejoin: miter"/>
   </g>
   <g id="patch_50">
    <path d="M 335.093437 129.876625 
C 338.343104 129.876625 341.460109 128.585519 343.75797 126.287658 
C 346.055831 123.989797 347.346937 120.872791 347.346937 117.623125 
C 347.346937 114.373459 346.055831 111.256453 343.75797 108.958592 
C 341.460109 106.660731 338.343104 105.369625 335.093437 105.369625 
C 331.843771 105.369625 328.726766 106.660731 326.428905 108.958592 
C 324.131044 111.256453 322.839937 114.373459 322.839937 117.623125 
C 322.839937 120.872791 324.131044 123.989797 326.428905 126.287658 
C 328.726766 128.585519 331.843771 129.876625 335.093437 129.876625 
z
" clip-path="url(#p60ddca3f1c)" style="fill: #19d2bf; stroke: #000000; stroke-linejoin: miter"/>
   </g>
   <g id="patch_51">
    <path d="M 35.563437 157.106625 
C 38.813104 157.106625 41.930109 155.815519 44.22797 153.517658 
C 46.525831 151.219797 47.816937 148.102791 47.816937 144.853125 
C 47.816937 141.603459 46.525831 138.486453 44.22797 136.188592 
C 41.930109 133.890731 38.813104 132.599625 35.563437 132.599625 
C 32.313771 132.599625 29.196766 133.890731 26.898905 136.188592 
C 24.601044 138.486453 23.309938 141.603459 23.309938 144.853125 
C 23.309938 148.102791 24.601044 151.219797 26.898905 153.517658 
C 29.196766 155.815519 32.313771 157.106625 35.563437 157.106625 
z
" clip-path="url(#p60ddca3f1c)" style="fill: #19d2bf; stroke: #000000; stroke-linejoin: miter"/>
   </g>
   <g id="patch_52">
    <path d="M 62.793437 157.106625 
C 66.043104 157.106625 69.160109 155.815519 71.45797 153.517658 
C 73.755831 151.219797 75.046937 148.102791 75.046937 144.853125 
C 75.046937 141.603459 73.755831 138.486453 71.45797 136.188592 
C 69.160109 133.890731 66.043104 132.599625 62.793437 132.599625 
C 59.543771 132.599625 56.426766 133.890731 54.128905 136.188592 
C 51.831044 138.486453 50.539938 141.603459 50.539938 144.853125 
C 50.539938 148.102791 51.831044 151.219797 54.128905 153.517658 
C 56.426766 155.815519 59.543771 157.106625 62.793437 157.106625 
z
" clip-path="url(#p60ddca3f1c)" style="fill: #19d2bf; stroke: #000000; stroke-linejoin: miter"/>
   </g>
   <g id="patch_53">
    <path d="M 90.023437 157.106625 
C 93.273104 157.106625 96.390109 155.815519 98.68797 153.517658 
C 100.985831 151.219797 102.276937 148.102791 102.276937 144.853125 
C 102.276937 141.603459 100.985831 138.486453 98.68797 136.188592 
C 96.390109 133.890731 93.273104 132.599625 90.023437 132.599625 
C 86.773771 132.599625 83.656766 133.890731 81.358905 136.188592 
C 79.061044 138.486453 77.769937 141.603459 77.769937 144.853125 
C 77.769937 148.102791 79.061044 151.219797 81.358905 153.517658 
C 83.656766 155.815519 86.773771 157.106625 90.023437 157.106625 
z
" clip-path="url(#p60ddca3f1c)" style="fill: #19d2bf; stroke: #000000; stroke-linejoin: miter"/>
   </g>
   <g id="patch_54">
    <path d="M 117.253437 157.106625 
C 120.503104 157.106625 123.620109 155.815519 125.91797 153.517658 
C 128.215831 151.219797 129.506937 148.102791 129.506937 144.853125 
C 129.506937 141.603459 128.215831 138.486453 125.91797 136.188592 
C 123.620109 133.890731 120.503104 132.599625 117.253437 132.599625 
C 114.003771 132.599625 110.886766 133.890731 108.588905 136.188592 
C 106.291044 138.486453 104.999937 141.603459 104.999937 144.853125 
C 104.999937 148.102791 106.291044 151.219797 108.588905 153.517658 
C 110.886766 155.815519 114.003771 157.106625 117.253437 157.106625 
z
" clip-path="url(#p60ddca3f1c)" style="fill: #ffb133; stroke: #000000; stroke-linejoin: miter"/>
   </g>
   <g id="patch_55">
    <path d="M 144.483437 157.106625 
C 147.733104 157.106625 150.850109 155.815519 153.14797 153.517658 
C 155.445831 151.219797 156.736937 148.102791 156.736937 144.853125 
C 156.736937 141.603459 155.445831 138.486453 153.14797 136.188592 
C 150.850109 133.890731 147.733104 132.599625 144.483437 132.599625 
C 141.233771 132.599625 138.116766 133.890731 135.818905 136.188592 
C 133.521044 138.486453 132.229937 141.603459 132.229937 144.853125 
C 132.229937 148.102791 133.521044 151.219797 135.818905 153.517658 
C 138.116766 155.815519 141.233771 157.106625 144.483437 157.106625 
z
" clip-path="url(#p60ddca3f1c)" style="fill: #ffb133; stroke: #000000; stroke-linejoin: miter"/>
   </g>
   <g id="patch_56">
    <path d="M 171.713437 157.106625 
C 174.963104 157.106625 178.080109 155.815519 180.37797 153.517658 
C 182.675831 151.219797 183.966937 148.102791 183.966937 144.853125 
C 183.966937 141.603459 182.675831 138.486453 180.37797 136.188592 
C 178.080109 133.890731 174.963104 132.599625 171.713437 132.599625 
C 168.463771 132.599625 165.346766 133.890731 163.048905 136.188592 
C 160.751044 138.486453 159.459937 141.603459 159.459937 144.853125 
C 159.459937 148.102791 160.751044 151.219797 163.048905 153.517658 
C 165.346766 155.815519 168.463771 157.106625 171.713437 157.106625 
z
" clip-path="url(#p60ddca3f1c)" style="fill: #ffb133; stroke: #000000; stroke-linejoin: miter"/>
   </g>
   <g id="patch_57">
    <path d="M 198.943437 157.106625 
C 202.193104 157.106625 205.310109 155.815519 207.60797 153.517658 
C 209.905831 151.219797 211.196937 148.102791 211.196937 144.853125 
C 211.196937 141.603459 209.905831 138.486453 207.60797 136.188592 
C 205.310109 133.890731 202.193104 132.599625 198.943437 132.599625 
C 195.693771 132.599625 192.576766 133.890731 190.278905 136.188592 
C 187.981044 138.486453 186.689937 141.603459 186.689937 144.853125 
C 186.689937 148.102791 187.981044 151.219797 190.278905 153.517658 
C 192.576766 155.815519 195.693771 157.106625 198.943437 157.106625 
z
" clip-path="url(#p60ddca3f1c)" style="fill: #fe484e; stroke: #000000; stroke-linejoin: miter"/>
   </g>
   <g id="patch_58">
    <path d="M 226.173437 157.106625 
C 229.423104 157.106625 232.540109 155.815519 234.83797 153.517658 
C 237.135831 151.219797 238.426937 148.102791 238.426937 144.853125 
C 238.426937 141.603459 237.135831 138.486453 234.83797 136.188592 
C 232.540109 133.890731 229.423104 132.599625 226.173437 132.599625 
C 222.923771 132.599625 219.806766 133.890731 217.508905 136.188592 
C 215.211044 138.486453 213.919937 141.603459 213.919937 144.853125 
C 213.919937 148.102791 215.211044 151.219797 217.508905 153.517658 
C 219.806766 155.815519 222.923771 157.106625 226.173437 157.106625 
z
" clip-path="url(#p60ddca3f1c)" style="fill: #fe484e; stroke: #000000; stroke-linejoin: miter"/>
   </g>
   <g id="patch_59">
    <path d="M 253.403437 157.106625 
C 256.653104 157.106625 259.770109 155.815519 262.06797 153.517658 
C 264.365831 151.219797 265.656937 148.102791 265.656937 144.853125 
C 265.656937 141.603459 264.365831 138.486453 262.06797 136.188592 
C 259.770109 133.890731 256.653104 132.599625 253.403437 132.599625 
C 250.153771 132.599625 247.036766 133.890731 244.738905 136.188592 
C 242.441044 138.486453 241.149937 141.603459 241.149937 144.853125 
C 241.149937 148.102791 242.441044 151.219797 244.738905 153.517658 
C 247.036766 155.815519 250.153771 157.106625 253.403437 157.106625 
z
" clip-path="url(#p60ddca3f1c)" style="fill: #fe484e; stroke: #000000; stroke-linejoin: miter"/>
   </g>
   <g id="patch_60">
    <path d="M 280.633437 157.106625 
C 283.883104 157.106625 287.000109 155.815519 289.29797 153.517658 
C 291.595831 151.219797 292.886937 148.102791 292.886937 144.853125 
C 292.886937 141.603459 291.595831 138.486453 289.29797 136.188592 
C 287.000109 133.890731 283.883104 132.599625 280.633437 132.599625 
C 277.383771 132.599625 274.266766 133.890731 271.968905 136.188592 
C 269.671044 138.486453 268.379937 141.603459 268.379937 144.853125 
C 268.379937 148.102791 269.671044 151.219797 271.968905 153.517658 
C 274.266766 155.815519 277.383771 157.106625 280.633437 157.106625 
z
" clip-path="url(#p60ddca3f1c)" style="fill: #19d2bf; stroke: #000000; stroke-linejoin: miter"/>
   </g>
   <g id="patch_61">
    <path d="M 307.863437 157.106625 
C 311.113104 157.106625 314.230109 155.815519 316.52797 153.517658 
C 318.825831 151.219797 320.116937 148.102791 320.116937 144.853125 
C 320.116937 141.603459 318.825831 138.486453 316.52797 136.188592 
C 314.230109 133.890731 311.113104 132.599625 307.863437 132.599625 
C 304.613771 132.599625 301.496766 133.890731 299.198905 136.188592 
C 296.901044 138.486453 295.609938 141.603459 295.609938 144.853125 
C 295.609938 148.102791 296.901044 151.219797 299.198905 153.517658 
C 301.496766 155.815519 304.613771 157.106625 307.863437 157.106625 
z
" clip-path="url(#p60ddca3f1c)" style="fill: #19d2bf; stroke: #000000; stroke-linejoin: miter"/>
   </g>
   <g id="patch_62">
    <path d="M 335.093437 157.106625 
C 338.343104 157.106625 341.460109 155.815519 343.75797 153.517658 
C 346.055831 151.219797 347.346937 148.102791 347.346937 144.853125 
C 347.346937 141.603459 346.055831 138.486453 343.75797 136.188592 
C 341.460109 133.890731 338.343104 132.599625 335.093437 132.599625 
C 331.843771 132.599625 328.726766 133.890731 326.428905 136.188592 
C 324.131044 138.486453 322.839937 141.603459 322.839937 144.853125 
C 322.839937 148.102791 324.131044 151.219797 326.428905 153.517658 
C 328.726766 155.815519 331.843771 157.106625 335.093437 157.106625 
z
" clip-path="url(#p60ddca3f1c)" style="fill: #19d2bf; stroke: #000000; stroke-linejoin: miter"/>
   </g>
   <g id="patch_63">
    <path d="M 35.563437 184.336625 
C 38.813104 184.336625 41.930109 183.045519 44.22797 180.747658 
C 46.525831 178.449797 47.816937 175.332791 47.816937 172.083125 
C 47.816937 168.833459 46.525831 165.716453 44.22797 163.418592 
C 41.930109 161.120731 38.813104 159.829625 35.563437 159.829625 
C 32.313771 159.829625 29.196766 161.120731 26.898905 163.418592 
C 24.601044 165.716453 23.309938 168.833459 23.309938 172.083125 
C 23.309938 175.332791 24.601044 178.449797 26.898905 180.747658 
C 29.196766 183.045519 32.313771 184.336625 35.563437 184.336625 
z
" clip-path="url(#p60ddca3f1c)" style="fill: #19d2bf; stroke: #000000; stroke-linejoin: miter"/>
   </g>
   <g id="patch_64">
    <path d="M 62.793437 184.336625 
C 66.043104 184.336625 69.160109 183.045519 71.45797 180.747658 
C 73.755831 178.449797 75.046937 175.332791 75.046937 172.083125 
C 75.046937 168.833459 73.755831 165.716453 71.45797 163.418592 
C 69.160109 161.120731 66.043104 159.829625 62.793437 159.829625 
C 59.543771 159.829625 56.426766 161.120731 54.128905 163.418592 
C 51.831044 165.716453 50.539938 168.833459 50.539938 172.083125 
C 50.539938 175.332791 51.831044 178.449797 54.128905 180.747658 
C 56.426766 183.045519 59.543771 184.336625 62.793437 184.336625 
z
" clip-path="url(#p60ddca3f1c)" style="fill: #19d2bf; stroke: #000000; stroke-linejoin: miter"/>
   </g>
   <g id="patch_65">
    <path d="M 90.023437 184.336625 
C 93.273104 184.336625 96.390109 183.045519 98.68797 180.747658 
C 100.985831 178.449797 102.276937 175.332791 102.276937 172.083125 
C 102.276937 168.833459 100.985831 165.716453 98.68797 163.418592 
C 96.390109 161.120731 93.273104 159.829625 90.023437 159.829625 
C 86.773771 159.829625 83.656766 161.120731 81.358905 163.418592 
C 79.061044 165.716453 77.769937 168.833459 77.769937 172.083125 
C 77.769937 175.332791 79.061044 178.449797 81.358905 180.747658 
C 83.656766 183.045519 86.773771 184.336625 90.023437 184.336625 
z
" clip-path="url(#p60ddca3f1c)" style="fill: #19d2bf; stroke: #000000; stroke-linejoin: miter"/>
   </g>
   <g id="patch_66">
    <path d="M 117.253437 184.336625 
C 120.503104 184.336625 123.620109 183.045519 125.91797 180.747658 
C 128.215831 178.449797 129.506937 175.332791 129.506937 172.083125 
C 129.506937 168.833459 128.215831 165.716453 125.91797 163.418592 
C 123.620109 161.120731 120.503104 159.829625 117.253437 159.829625 
C 114.003771 159.829625 110.886766 161.120731 108.588905 163.418592 
C 106.291044 165.716453 104.999937 168.833459 104.999937 172.083125 
C 104.999937 175.332791 106.291044 178.449797 108.588905 180.747658 
C 110.886766 183.045519 114.003771 184.336625 117.253437 184.336625 
z
" clip-path="url(#p60ddca3f1c)" style="fill: #ffb133; stroke: #000000; stroke-linejoin: miter"/>
   </g>
   <g id="patch_67">
    <path d="M 144.483437 184.336625 
C 147.733104 184.336625 150.850109 183.045519 153.14797 180.747658 
C 155.445831 178.449797 156.736937 175.332791 156.736937 172.083125 
C 156.736937 168.833459 155.445831 165.716453 153.14797 163.418592 
C 150.850109 161.120731 147.733104 159.829625 144.483437 159.829625 
C 141.233771 159.829625 138.116766 161.120731 135.818905 163.418592 
C 133.521044 165.716453 132.229937 168.833459 132.229937 172.083125 
C 132.229937 175.332791 133.521044 178.449797 135.818905 180.747658 
C 138.116766 183.045519 141.233771 184.336625 144.483437 184.336625 
z
" clip-path="url(#p60ddca3f1c)" style="fill: #ffb133; stroke: #000000; stroke-linejoin: miter"/>
   </g>
   <g id="patch_68">
    <path d="M 171.713437 184.336625 
C 174.963104 184.336625 178.080109 183.045519 180.37797 180.747658 
C 182.675831 178.449797 183.966937 175.332791 183.966937 172.083125 
C 183.966937 168.833459 182.675831 165.716453 180.37797 163.418592 
C 178.080109 161.120731 174.963104 159.829625 171.713437 159.829625 
C 168.463771 159.829625 165.346766 161.120731 163.048905 163.418592 
C 160.751044 165.716453 159.459937 168.833459 159.459937 172.083125 
C 159.459937 175.332791 160.751044 178.449797 163.048905 180.747658 
C 165.346766 183.045519 168.463771 184.336625 171.713437 184.336625 
z
" clip-path="url(#p60ddca3f1c)" style="fill: #ffb133; stroke: #000000; stroke-linejoin: miter"/>
   </g>
   <g id="patch_69">
    <path d="M 198.943437 184.336625 
C 202.193104 184.336625 205.310109 183.045519 207.60797 180.747658 
C 209.905831 178.449797 211.196937 175.332791 211.196937 172.083125 
C 211.196937 168.833459 209.905831 165.716453 207.60797 163.418592 
C 205.310109 161.120731 202.193104 159.829625 198.943437 159.829625 
C 195.693771 159.829625 192.576766 161.120731 190.278905 163.418592 
C 187.981044 165.716453 186.689937 168.833459 186.689937 172.083125 
C 186.689937 175.332791 187.981044 178.449797 190.278905 180.747658 
C 192.576766 183.045519 195.693771 184.336625 198.943437 184.336625 
z
" clip-path="url(#p60ddca3f1c)" style="fill: #fe484e; stroke: #000000; stroke-linejoin: miter"/>
   </g>
   <g id="patch_70">
    <path d="M 226.173437 184.336625 
C 229.423104 184.336625 232.540109 183.045519 234.83797 180.747658 
C 237.135831 178.449797 238.426937 175.332791 238.426937 172.083125 
C 238.426937 168.833459 237.135831 165.716453 234.83797 163.418592 
C 232.540109 161.120731 229.423104 159.829625 226.173437 159.829625 
C 222.923771 159.829625 219.806766 161.120731 217.508905 163.418592 
C 215.211044 165.716453 213.919937 168.833459 213.919937 172.083125 
C 213.919937 175.332791 215.211044 178.449797 217.508905 180.747658 
C 219.806766 183.045519 222.923771 184.336625 226.173437 184.336625 
z
" clip-path="url(#p60ddca3f1c)" style="fill: #fe484e; stroke: #000000; stroke-linejoin: miter"/>
   </g>
   <g id="patch_71">
    <path d="M 253.403437 184.336625 
C 256.653104 184.336625 259.770109 183.045519 262.06797 180.747658 
C 264.365831 178.449797 265.656937 175.332791 265.656937 172.083125 
C 265.656937 168.833459 264.365831 165.716453 262.06797 163.418592 
C 259.770109 161.120731 256.653104 159.829625 253.403437 159.829625 
C 250.153771 159.829625 247.036766 161.120731 244.738905 163.418592 
C 242.441044 165.716453 241.149937 168.833459 241.149937 172.083125 
C 241.149937 175.332791 242.441044 178.449797 244.738905 180.747658 
C 247.036766 183.045519 250.153771 184.336625 253.403437 184.336625 
z
" clip-path="url(#p60ddca3f1c)" style="fill: #fe484e; stroke: #000000; stroke-linejoin: miter"/>
   </g>
   <g id="patch_72">
    <path d="M 280.633437 184.336625 
C 283.883104 184.336625 287.000109 183.045519 289.29797 180.747658 
C 291.595831 178.449797 292.886937 175.332791 292.886937 172.083125 
C 292.886937 168.833459 291.595831 165.716453 289.29797 163.418592 
C 287.000109 161.120731 283.883104 159.829625 280.633437 159.829625 
C 277.383771 159.829625 274.266766 161.120731 271.968905 163.418592 
C 269.671044 165.716453 268.379937 168.833459 268.379937 172.083125 
C 268.379937 175.332791 269.671044 178.449797 271.968905 180.747658 
C 274.266766 183.045519 277.383771 184.336625 280.633437 184.336625 
z
" clip-path="url(#p60ddca3f1c)" style="fill: #19d2bf; stroke: #000000; stroke-linejoin: miter"/>
   </g>
   <g id="patch_73">
    <path d="M 307.863437 184.336625 
C 311.113104 184.336625 314.230109 183.045519 316.52797 180.747658 
C 318.825831 178.449797 320.116937 175.332791 320.116937 172.083125 
C 320.116937 168.833459 318.825831 165.716453 316.52797 163.418592 
C 314.230109 161.120731 311.113104 159.829625 307.863437 159.829625 
C 304.613771 159.829625 301.496766 161.120731 299.198905 163.418592 
C 296.901044 165.716453 295.609938 168.833459 295.609938 172.083125 
C 295.609938 175.332791 296.901044 178.449797 299.198905 180.747658 
C 301.496766 183.045519 304.613771 184.336625 307.863437 184.336625 
z
" clip-path="url(#p60ddca3f1c)" style="fill: #19d2bf; stroke: #000000; stroke-linejoin: miter"/>
   </g>
   <g id="patch_74">
    <path d="M 335.093437 184.336625 
C 338.343104 184.336625 341.460109 183.045519 343.75797 180.747658 
C 346.055831 178.449797 347.346937 175.332791 347.346937 172.083125 
C 347.346937 168.833459 346.055831 165.716453 343.75797 163.418592 
C 341.460109 161.120731 338.343104 159.829625 335.093437 159.829625 
C 331.843771 159.829625 328.726766 161.120731 326.428905 163.418592 
C 324.131044 165.716453 322.839937 168.833459 322.839937 172.083125 
C 322.839937 175.332791 324.131044 178.449797 326.428905 180.747658 
C 328.726766 183.045519 331.843771 184.336625 335.093437 184.336625 
z
" clip-path="url(#p60ddca3f1c)" style="fill: #19d2bf; stroke: #000000; stroke-linejoin: miter"/>
   </g>
   <g id="patch_75">
    <path d="M 35.563437 211.566625 
C 38.813104 211.566625 41.930109 210.275519 44.22797 207.977658 
C 46.525831 205.679797 47.816937 202.562791 47.816937 199.313125 
C 47.816937 196.063459 46.525831 192.946453 44.22797 190.648592 
C 41.930109 188.350731 38.813104 187.059625 35.563437 187.059625 
C 32.313771 187.059625 29.196766 188.350731 26.898905 190.648592 
C 24.601044 192.946453 23.309938 196.063459 23.309938 199.313125 
C 23.309938 202.562791 24.601044 205.679797 26.898905 207.977658 
C 29.196766 210.275519 32.313771 211.566625 35.563437 211.566625 
z
" clip-path="url(#p60ddca3f1c)" style="fill: #19d2bf; stroke: #000000; stroke-linejoin: miter"/>
   </g>
   <g id="patch_76">
    <path d="M 62.793437 211.566625 
C 66.043104 211.566625 69.160109 210.275519 71.45797 207.977658 
C 73.755831 205.679797 75.046937 202.562791 75.046937 199.313125 
C 75.046937 196.063459 73.755831 192.946453 71.45797 190.648592 
C 69.160109 188.350731 66.043104 187.059625 62.793437 187.059625 
C 59.543771 187.059625 56.426766 188.350731 54.128905 190.648592 
C 51.831044 192.946453 50.539938 196.063459 50.539938 199.313125 
C 50.539938 202.562791 51.831044 205.679797 54.128905 207.977658 
C 56.426766 210.275519 59.543771 211.566625 62.793437 211.566625 
z
" clip-path="url(#p60ddca3f1c)" style="fill: #19d2bf; stroke: #000000; stroke-linejoin: miter"/>
   </g>
   <g id="patch_77">
    <path d="M 90.023437 211.566625 
C 93.273104 211.566625 96.390109 210.275519 98.68797 207.977658 
C 100.985831 205.679797 102.276937 202.562791 102.276937 199.313125 
C 102.276937 196.063459 100.985831 192.946453 98.68797 190.648592 
C 96.390109 188.350731 93.273104 187.059625 90.023437 187.059625 
C 86.773771 187.059625 83.656766 188.350731 81.358905 190.648592 
C 79.061044 192.946453 77.769937 196.063459 77.769937 199.313125 
C 77.769937 202.562791 79.061044 205.679797 81.358905 207.977658 
C 83.656766 210.275519 86.773771 211.566625 90.023437 211.566625 
z
" clip-path="url(#p60ddca3f1c)" style="fill: #19d2bf; stroke: #000000; stroke-linejoin: miter"/>
   </g>
   <g id="patch_78">
    <path d="M 117.253437 211.566625 
C 120.503104 211.566625 123.620109 210.275519 125.91797 207.977658 
C 128.215831 205.679797 129.506937 202.562791 129.506937 199.313125 
C 129.506937 196.063459 128.215831 192.946453 125.91797 190.648592 
C 123.620109 188.350731 120.503104 187.059625 117.253437 187.059625 
C 114.003771 187.059625 110.886766 188.350731 108.588905 190.648592 
C 106.291044 192.946453 104.999937 196.063459 104.999937 199.313125 
C 104.999937 202.562791 106.291044 205.679797 108.588905 207.977658 
C 110.886766 210.275519 114.003771 211.566625 117.253437 211.566625 
z
" clip-path="url(#p60ddca3f1c)" style="fill: #ffb133; stroke: #000000; stroke-linejoin: miter"/>
   </g>
   <g id="patch_79">
    <path d="M 144.483437 211.566625 
C 147.733104 211.566625 150.850109 210.275519 153.14797 207.977658 
C 155.445831 205.679797 156.736937 202.562791 156.736937 199.313125 
C 156.736937 196.063459 155.445831 192.946453 153.14797 190.648592 
C 150.850109 188.350731 147.733104 187.059625 144.483437 187.059625 
C 141.233771 187.059625 138.116766 188.350731 135.818905 190.648592 
C 133.521044 192.946453 132.229937 196.063459 132.229937 199.313125 
C 132.229937 202.562791 133.521044 205.679797 135.818905 207.977658 
C 138.116766 210.275519 141.233771 211.566625 144.483437 211.566625 
z
" clip-path="url(#p60ddca3f1c)" style="fill: #ffb133; stroke: #000000; stroke-linejoin: miter"/>
   </g>
   <g id="patch_80">
    <path d="M 171.713437 211.566625 
C 174.963104 211.566625 178.080109 210.275519 180.37797 207.977658 
C 182.675831 205.679797 183.966937 202.562791 183.966937 199.313125 
C 183.966937 196.063459 182.675831 192.946453 180.37797 190.648592 
C 178.080109 188.350731 174.963104 187.059625 171.713437 187.059625 
C 168.463771 187.059625 165.346766 188.350731 163.048905 190.648592 
C 160.751044 192.946453 159.459937 196.063459 159.459937 199.313125 
C 159.459937 202.562791 160.751044 205.679797 163.048905 207.977658 
C 165.346766 210.275519 168.463771 211.566625 171.713437 211.566625 
z
" clip-path="url(#p60ddca3f1c)" style="fill: #ffb133; stroke: #000000; stroke-linejoin: miter"/>
   </g>
   <g id="patch_81">
    <path d="M 198.943437 211.566625 
C 202.193104 211.566625 205.310109 210.275519 207.60797 207.977658 
C 209.905831 205.679797 211.196937 202.562791 211.196937 199.313125 
C 211.196937 196.063459 209.905831 192.946453 207.60797 190.648592 
C 205.310109 188.350731 202.193104 187.059625 198.943437 187.059625 
C 195.693771 187.059625 192.576766 188.350731 190.278905 190.648592 
C 187.981044 192.946453 186.689937 196.063459 186.689937 199.313125 
C 186.689937 202.562791 187.981044 205.679797 190.278905 207.977658 
C 192.576766 210.275519 195.693771 211.566625 198.943437 211.566625 
z
" clip-path="url(#p60ddca3f1c)" style="fill: #fe484e; stroke: #000000; stroke-linejoin: miter"/>
   </g>
   <g id="patch_82">
    <path d="M 226.173437 211.566625 
C 229.423104 211.566625 232.540109 210.275519 234.83797 207.977658 
C 237.135831 205.679797 238.426937 202.562791 238.426937 199.313125 
C 238.426937 196.063459 237.135831 192.946453 234.83797 190.648592 
C 232.540109 188.350731 229.423104 187.059625 226.173437 187.059625 
C 222.923771 187.059625 219.806766 188.350731 217.508905 190.648592 
C 215.211044 192.946453 213.919937 196.063459 213.919937 199.313125 
C 213.919937 202.562791 215.211044 205.679797 217.508905 207.977658 
C 219.806766 210.275519 222.923771 211.566625 226.173437 211.566625 
z
" clip-path="url(#p60ddca3f1c)" style="fill: #fe484e; stroke: #000000; stroke-linejoin: miter"/>
   </g>
   <g id="patch_83">
    <path d="M 253.403437 211.566625 
C 256.653104 211.566625 259.770109 210.275519 262.06797 207.977658 
C 264.365831 205.679797 265.656937 202.562791 265.656937 199.313125 
C 265.656937 196.063459 264.365831 192.946453 262.06797 190.648592 
C 259.770109 188.350731 256.653104 187.059625 253.403437 187.059625 
C 250.153771 187.059625 247.036766 188.350731 244.738905 190.648592 
C 242.441044 192.946453 241.149937 196.063459 241.149937 199.313125 
C 241.149937 202.562791 242.441044 205.679797 244.738905 207.977658 
C 247.036766 210.275519 250.153771 211.566625 253.403437 211.566625 
z
" clip-path="url(#p60ddca3f1c)" style="fill: #fe484e; stroke: #000000; stroke-linejoin: miter"/>
   </g>
   <g id="patch_84">
    <path d="M 280.633437 211.566625 
C 283.883104 211.566625 287.000109 210.275519 289.29797 207.977658 
C 291.595831 205.679797 292.886937 202.562791 292.886937 199.313125 
C 292.886937 196.063459 291.595831 192.946453 289.29797 190.648592 
C 287.000109 188.350731 283.883104 187.059625 280.633437 187.059625 
C 277.383771 187.059625 274.266766 188.350731 271.968905 190.648592 
C 269.671044 192.946453 268.379937 196.063459 268.379937 199.313125 
C 268.379937 202.562791 269.671044 205.679797 271.968905 207.977658 
C 274.266766 210.275519 277.383771 211.566625 280.633437 211.566625 
z
" clip-path="url(#p60ddca3f1c)" style="fill: #19d2bf; stroke: #000000; stroke-linejoin: miter"/>
   </g>
   <g id="patch_85">
    <path d="M 307.863437 211.566625 
C 311.113104 211.566625 314.230109 210.275519 316.52797 207.977658 
C 318.825831 205.679797 320.116937 202.562791 320.116937 199.313125 
C 320.116937 196.063459 318.825831 192.946453 316.52797 190.648592 
C 314.230109 188.350731 311.113104 187.059625 307.863437 187.059625 
C 304.613771 187.059625 301.496766 188.350731 299.198905 190.648592 
C 296.901044 192.946453 295.609938 196.063459 295.609938 199.313125 
C 295.609938 202.562791 296.901044 205.679797 299.198905 207.977658 
C 301.496766 210.275519 304.613771 211.566625 307.863437 211.566625 
z
" clip-path="url(#p60ddca3f1c)" style="fill: #19d2bf; stroke: #000000; stroke-linejoin: miter"/>
   </g>
   <g id="patch_86">
    <path d="M 335.093437 211.566625 
C 338.343104 211.566625 341.460109 210.275519 343.75797 207.977658 
C 346.055831 205.679797 347.346937 202.562791 347.346937 199.313125 
C 347.346937 196.063459 346.055831 192.946453 343.75797 190.648592 
C 341.460109 188.350731 338.343104 187.059625 335.093437 187.059625 
C 331.843771 187.059625 328.726766 188.350731 326.428905 190.648592 
C 324.131044 192.946453 322.839937 196.063459 322.839937 199.313125 
C 322.839937 202.562791 324.131044 205.679797 326.428905 207.977658 
C 328.726766 210.275519 331.843771 211.566625 335.093437 211.566625 
z
" clip-path="url(#p60ddca3f1c)" style="fill: #19d2bf; stroke: #000000; stroke-linejoin: miter"/>
   </g>
   <g id="patch_87">
    <path d="M 35.563437 238.796625 
C 38.813104 238.796625 41.930109 237.505519 44.22797 235.207658 
C 46.525831 232.909797 47.816937 229.792791 47.816937 226.543125 
C 47.816937 223.293459 46.525831 220.176453 44.22797 217.878592 
C 41.930109 215.580731 38.813104 214.289625 35.563437 214.289625 
C 32.313771 214.289625 29.196766 215.580731 26.898905 217.878592 
C 24.601044 220.176453 23.309938 223.293459 23.309938 226.543125 
C 23.309938 229.792791 24.601044 232.909797 26.898905 235.207658 
C 29.196766 237.505519 32.313771 238.796625 35.563437 238.796625 
z
" clip-path="url(#p60ddca3f1c)" style="fill: #19d2bf; stroke: #000000; stroke-linejoin: miter"/>
   </g>
   <g id="patch_88">
    <path d="M 62.793437 238.796625 
C 66.043104 238.796625 69.160109 237.505519 71.45797 235.207658 
C 73.755831 232.909797 75.046937 229.792791 75.046937 226.543125 
C 75.046937 223.293459 73.755831 220.176453 71.45797 217.878592 
C 69.160109 215.580731 66.043104 214.289625 62.793437 214.289625 
C 59.543771 214.289625 56.426766 215.580731 54.128905 217.878592 
C 51.831044 220.176453 50.539938 223.293459 50.539938 226.543125 
C 50.539938 229.792791 51.831044 232.909797 54.128905 235.207658 
C 56.426766 237.505519 59.543771 238.796625 62.793437 238.796625 
z
" clip-path="url(#p60ddca3f1c)" style="fill: #19d2bf; stroke: #000000; stroke-linejoin: miter"/>
   </g>
   <g id="patch_89">
    <path d="M 90.023437 238.796625 
C 93.273104 238.796625 96.390109 237.505519 98.68797 235.207658 
C 100.985831 232.909797 102.276937 229.792791 102.276937 226.543125 
C 102.276937 223.293459 100.985831 220.176453 98.68797 217.878592 
C 96.390109 215.580731 93.273104 214.289625 90.023437 214.289625 
C 86.773771 214.289625 83.656766 215.580731 81.358905 217.878592 
C 79.061044 220.176453 77.769937 223.293459 77.769937 226.543125 
C 77.769937 229.792791 79.061044 232.909797 81.358905 235.207658 
C 83.656766 237.505519 86.773771 238.796625 90.023437 238.796625 
z
" clip-path="url(#p60ddca3f1c)" style="fill: #19d2bf; stroke: #000000; stroke-linejoin: miter"/>
   </g>
   <g id="patch_90">
    <path d="M 117.253437 238.796625 
C 120.503104 238.796625 123.620109 237.505519 125.91797 235.207658 
C 128.215831 232.909797 129.506937 229.792791 129.506937 226.543125 
C 129.506937 223.293459 128.215831 220.176453 125.91797 217.878592 
C 123.620109 215.580731 120.503104 214.289625 117.253437 214.289625 
C 114.003771 214.289625 110.886766 215.580731 108.588905 217.878592 
C 106.291044 220.176453 104.999937 223.293459 104.999937 226.543125 
C 104.999937 229.792791 106.291044 232.909797 108.588905 235.207658 
C 110.886766 237.505519 114.003771 238.796625 117.253437 238.796625 
z
" clip-path="url(#p60ddca3f1c)" style="fill: #ffb133; stroke: #000000; stroke-linejoin: miter"/>
   </g>
   <g id="patch_91">
    <path d="M 144.483437 238.796625 
C 147.733104 238.796625 150.850109 237.505519 153.14797 235.207658 
C 155.445831 232.909797 156.736937 229.792791 156.736937 226.543125 
C 156.736937 223.293459 155.445831 220.176453 153.14797 217.878592 
C 150.850109 215.580731 147.733104 214.289625 144.483437 214.289625 
C 141.233771 214.289625 138.116766 215.580731 135.818905 217.878592 
C 133.521044 220.176453 132.229937 223.293459 132.229937 226.543125 
C 132.229937 229.792791 133.521044 232.909797 135.818905 235.207658 
C 138.116766 237.505519 141.233771 238.796625 144.483437 238.796625 
z
" clip-path="url(#p60ddca3f1c)" style="fill: #ffb133; stroke: #000000; stroke-linejoin: miter"/>
   </g>
   <g id="patch_92">
    <path d="M 171.713437 238.796625 
C 174.963104 238.796625 178.080109 237.505519 180.37797 235.207658 
C 182.675831 232.909797 183.966937 229.792791 183.966937 226.543125 
C 183.966937 223.293459 182.675831 220.176453 180.37797 217.878592 
C 178.080109 215.580731 174.963104 214.289625 171.713437 214.289625 
C 168.463771 214.289625 165.346766 215.580731 163.048905 217.878592 
C 160.751044 220.176453 159.459937 223.293459 159.459937 226.543125 
C 159.459937 229.792791 160.751044 232.909797 163.048905 235.207658 
C 165.346766 237.505519 168.463771 238.796625 171.713437 238.796625 
z
" clip-path="url(#p60ddca3f1c)" style="fill: #ffb133; stroke: #000000; stroke-linejoin: miter"/>
   </g>
   <g id="patch_93">
    <path d="M 198.943437 238.796625 
C 202.193104 238.796625 205.310109 237.505519 207.60797 235.207658 
C 209.905831 232.909797 211.196937 229.792791 211.196937 226.543125 
C 211.196937 223.293459 209.905831 220.176453 207.60797 217.878592 
C 205.310109 215.580731 202.193104 214.289625 198.943437 214.289625 
C 195.693771 214.289625 192.576766 215.580731 190.278905 217.878592 
C 187.981044 220.176453 186.689937 223.293459 186.689937 226.543125 
C 186.689937 229.792791 187.981044 232.909797 190.278905 235.207658 
C 192.576766 237.505519 195.693771 238.796625 198.943437 238.796625 
z
" clip-path="url(#p60ddca3f1c)" style="fill: #fe484e; stroke: #000000; stroke-linejoin: miter"/>
   </g>
   <g id="patch_94">
    <path d="M 226.173437 238.796625 
C 229.423104 238.796625 232.540109 237.505519 234.83797 235.207658 
C 237.135831 232.909797 238.426937 229.792791 238.426937 226.543125 
C 238.426937 223.293459 237.135831 220.176453 234.83797 217.878592 
C 232.540109 215.580731 229.423104 214.289625 226.173437 214.289625 
C 222.923771 214.289625 219.806766 215.580731 217.508905 217.878592 
C 215.211044 220.176453 213.919937 223.293459 213.919937 226.543125 
C 213.919937 229.792791 215.211044 232.909797 217.508905 235.207658 
C 219.806766 237.505519 222.923771 238.796625 226.173437 238.796625 
z
" clip-path="url(#p60ddca3f1c)" style="fill: #fe484e; stroke: #000000; stroke-linejoin: miter"/>
   </g>
   <g id="patch_95">
    <path d="M 253.403437 238.796625 
C 256.653104 238.796625 259.770109 237.505519 262.06797 235.207658 
C 264.365831 232.909797 265.656937 229.792791 265.656937 226.543125 
C 265.656937 223.293459 264.365831 220.176453 262.06797 217.878592 
C 259.770109 215.580731 256.653104 214.289625 253.403437 214.289625 
C 250.153771 214.289625 247.036766 215.580731 244.738905 217.878592 
C 242.441044 220.176453 241.149937 223.293459 241.149937 226.543125 
C 241.149937 229.792791 242.441044 232.909797 244.738905 235.207658 
C 247.036766 237.505519 250.153771 238.796625 253.403437 238.796625 
z
" clip-path="url(#p60ddca3f1c)" style="fill: #fe484e; stroke: #000000; stroke-linejoin: miter"/>
   </g>
   <g id="patch_96">
    <path d="M 280.633437 238.796625 
C 283.883104 238.796625 287.000109 237.505519 289.29797 235.207658 
C 291.595831 232.909797 292.886937 229.792791 292.886937 226.543125 
C 292.886937 223.293459 291.595831 220.176453 289.29797 217.878592 
C 287.000109 215.580731 283.883104 214.289625 280.633437 214.289625 
C 277.383771 214.289625 274.266766 215.580731 271.968905 217.878592 
C 269.671044 220.176453 268.379937 223.293459 268.379937 226.543125 
C 268.379937 229.792791 269.671044 232.909797 271.968905 235.207658 
C 274.266766 237.505519 277.383771 238.796625 280.633437 238.796625 
z
" clip-path="url(#p60ddca3f1c)" style="fill: #19d2bf; stroke: #000000; stroke-linejoin: miter"/>
   </g>
   <g id="patch_97">
    <path d="M 307.863437 238.796625 
C 311.113104 238.796625 314.230109 237.505519 316.52797 235.207658 
C 318.825831 232.909797 320.116937 229.792791 320.116937 226.543125 
C 320.116937 223.293459 318.825831 220.176453 316.52797 217.878592 
C 314.230109 215.580731 311.113104 214.289625 307.863437 214.289625 
C 304.613771 214.289625 301.496766 215.580731 299.198905 217.878592 
C 296.901044 220.176453 295.609938 223.293459 295.609938 226.543125 
C 295.609938 229.792791 296.901044 232.909797 299.198905 235.207658 
C 301.496766 237.505519 304.613771 238.796625 307.863437 238.796625 
z
" clip-path="url(#p60ddca3f1c)" style="fill: #19d2bf; stroke: #000000; stroke-linejoin: miter"/>
   </g>
   <g id="patch_98">
    <path d="M 335.093437 238.796625 
C 338.343104 238.796625 341.460109 237.505519 343.75797 235.207658 
C 346.055831 232.909797 347.346937 229.792791 347.346937 226.543125 
C 347.346937 223.293459 346.055831 220.176453 343.75797 217.878592 
C 341.460109 215.580731 338.343104 214.289625 335.093437 214.289625 
C 331.843771 214.289625 328.726766 215.580731 326.428905 217.878592 
C 324.131044 220.176453 322.839937 223.293459 322.839937 226.543125 
C 322.839937 229.792791 324.131044 232.909797 326.428905 235.207658 
C 328.726766 237.505519 331.843771 238.796625 335.093437 238.796625 
z
" clip-path="url(#p60ddca3f1c)" style="fill: #19d2bf; stroke: #000000; stroke-linejoin: miter"/>
   </g>
   <g id="matplotlib.axis_1">
    <g id="xtick_1">
     <g id="line2d_1">
      <defs>
       <path id="md5e256d675" d="M 0 0 
L 0 3.5 
" style="stroke: #000000; stroke-width: 0.8"/>
      </defs>
      <g>
       <use xlink:href="#md5e256d675" x="35.563437" y="240.158125" style="stroke: #000000; stroke-width: 0.8"/>
      </g>
     </g>
     <g id="text_1">
      <!-- 1 -->
      <g transform="translate(32.382188 254.756563) scale(0.1 -0.1)">
       <defs>
        <path id="DejaVuSans-31" d="M 794 531 
L 1825 531 
L 1825 4091 
L 703 3866 
L 703 4441 
L 1819 4666 
L 2450 4666 
L 2450 531 
L 3481 531 
L 3481 0 
L 794 0 
L 794 531 
z
" transform="scale(0.015625)"/>
       </defs>
       <use xlink:href="#DejaVuSans-31"/>
      </g>
     </g>
    </g>
    <g id="xtick_2">
     <g id="line2d_2">
      <g>
       <use xlink:href="#md5e256d675" x="62.793437" y="240.158125" style="stroke: #000000; stroke-width: 0.8"/>
      </g>
     </g>
     <g id="text_2">
      <!-- 2 -->
      <g transform="translate(59.612187 254.756563) scale(0.1 -0.1)">
       <defs>
        <path id="DejaVuSans-32" d="M 1228 531 
L 3431 531 
L 3431 0 
L 469 0 
L 469 531 
Q 828 903 1448 1529 
Q 2069 2156 2228 2338 
Q 2531 2678 2651 2914 
Q 2772 3150 2772 3378 
Q 2772 3750 2511 3984 
Q 2250 4219 1831 4219 
Q 1534 4219 1204 4116 
Q 875 4013 500 3803 
L 500 4441 
Q 881 4594 1212 4672 
Q 1544 4750 1819 4750 
Q 2544 4750 2975 4387 
Q 3406 4025 3406 3419 
Q 3406 3131 3298 2873 
Q 3191 2616 2906 2266 
Q 2828 2175 2409 1742 
Q 1991 1309 1228 531 
z
" transform="scale(0.015625)"/>
       </defs>
       <use xlink:href="#DejaVuSans-32"/>
      </g>
     </g>
    </g>
    <g id="xtick_3">
     <g id="line2d_3">
      <g>
       <use xlink:href="#md5e256d675" x="90.023437" y="240.158125" style="stroke: #000000; stroke-width: 0.8"/>
      </g>
     </g>
     <g id="text_3">
      <!-- 3 -->
      <g transform="translate(86.842187 254.756563) scale(0.1 -0.1)">
       <defs>
        <path id="DejaVuSans-33" d="M 2597 2516 
Q 3050 2419 3304 2112 
Q 3559 1806 3559 1356 
Q 3559 666 3084 287 
Q 2609 -91 1734 -91 
Q 1441 -91 1130 -33 
Q 819 25 488 141 
L 488 750 
Q 750 597 1062 519 
Q 1375 441 1716 441 
Q 2309 441 2620 675 
Q 2931 909 2931 1356 
Q 2931 1769 2642 2001 
Q 2353 2234 1838 2234 
L 1294 2234 
L 1294 2753 
L 1863 2753 
Q 2328 2753 2575 2939 
Q 2822 3125 2822 3475 
Q 2822 3834 2567 4026 
Q 2313 4219 1838 4219 
Q 1578 4219 1281 4162 
Q 984 4106 628 3988 
L 628 4550 
Q 988 4650 1302 4700 
Q 1616 4750 1894 4750 
Q 2613 4750 3031 4423 
Q 3450 4097 3450 3541 
Q 3450 3153 3228 2886 
Q 3006 2619 2597 2516 
z
" transform="scale(0.015625)"/>
       </defs>
       <use xlink:href="#DejaVuSans-33"/>
      </g>
     </g>
    </g>
    <g id="xtick_4">
     <g id="line2d_4">
      <g>
       <use xlink:href="#md5e256d675" x="117.253437" y="240.158125" style="stroke: #000000; stroke-width: 0.8"/>
      </g>
     </g>
     <g id="text_4">
      <!-- 4 -->
      <g transform="translate(114.072187 254.756563) scale(0.1 -0.1)">
       <defs>
        <path id="DejaVuSans-34" d="M 2419 4116 
L 825 1625 
L 2419 1625 
L 2419 4116 
z
M 2253 4666 
L 3047 4666 
L 3047 1625 
L 3713 1625 
L 3713 1100 
L 3047 1100 
L 3047 0 
L 2419 0 
L 2419 1100 
L 313 1100 
L 313 1709 
L 2253 4666 
z
" transform="scale(0.015625)"/>
       </defs>
       <use xlink:href="#DejaVuSans-34"/>
      </g>
     </g>
    </g>
    <g id="xtick_5">
     <g id="line2d_5">
      <g>
       <use xlink:href="#md5e256d675" x="144.483437" y="240.158125" style="stroke: #000000; stroke-width: 0.8"/>
      </g>
     </g>
     <g id="text_5">
      <!-- 5 -->
      <g transform="translate(141.302187 254.756563) scale(0.1 -0.1)">
       <defs>
        <path id="DejaVuSans-35" d="M 691 4666 
L 3169 4666 
L 3169 4134 
L 1269 4134 
L 1269 2991 
Q 1406 3038 1543 3061 
Q 1681 3084 1819 3084 
Q 2600 3084 3056 2656 
Q 3513 2228 3513 1497 
Q 3513 744 3044 326 
Q 2575 -91 1722 -91 
Q 1428 -91 1123 -41 
Q 819 9 494 109 
L 494 744 
Q 775 591 1075 516 
Q 1375 441 1709 441 
Q 2250 441 2565 725 
Q 2881 1009 2881 1497 
Q 2881 1984 2565 2268 
Q 2250 2553 1709 2553 
Q 1456 2553 1204 2497 
Q 953 2441 691 2322 
L 691 4666 
z
" transform="scale(0.015625)"/>
       </defs>
       <use xlink:href="#DejaVuSans-35"/>
      </g>
     </g>
    </g>
    <g id="xtick_6">
     <g id="line2d_6">
      <g>
       <use xlink:href="#md5e256d675" x="171.713437" y="240.158125" style="stroke: #000000; stroke-width: 0.8"/>
      </g>
     </g>
     <g id="text_6">
      <!-- 6 -->
      <g transform="translate(168.532187 254.756563) scale(0.1 -0.1)">
       <defs>
        <path id="DejaVuSans-36" d="M 2113 2584 
Q 1688 2584 1439 2293 
Q 1191 2003 1191 1497 
Q 1191 994 1439 701 
Q 1688 409 2113 409 
Q 2538 409 2786 701 
Q 3034 994 3034 1497 
Q 3034 2003 2786 2293 
Q 2538 2584 2113 2584 
z
M 3366 4563 
L 3366 3988 
Q 3128 4100 2886 4159 
Q 2644 4219 2406 4219 
Q 1781 4219 1451 3797 
Q 1122 3375 1075 2522 
Q 1259 2794 1537 2939 
Q 1816 3084 2150 3084 
Q 2853 3084 3261 2657 
Q 3669 2231 3669 1497 
Q 3669 778 3244 343 
Q 2819 -91 2113 -91 
Q 1303 -91 875 529 
Q 447 1150 447 2328 
Q 447 3434 972 4092 
Q 1497 4750 2381 4750 
Q 2619 4750 2861 4703 
Q 3103 4656 3366 4563 
z
" transform="scale(0.015625)"/>
       </defs>
       <use xlink:href="#DejaVuSans-36"/>
      </g>
     </g>
    </g>
    <g id="xtick_7">
     <g id="line2d_7">
      <g>
       <use xlink:href="#md5e256d675" x="198.943437" y="240.158125" style="stroke: #000000; stroke-width: 0.8"/>
      </g>
     </g>
     <g id="text_7">
      <!-- 7 -->
      <g transform="translate(195.762187 254.756563) scale(0.1 -0.1)">
       <defs>
        <path id="DejaVuSans-37" d="M 525 4666 
L 3525 4666 
L 3525 4397 
L 1831 0 
L 1172 0 
L 2766 4134 
L 525 4134 
L 525 4666 
z
" transform="scale(0.015625)"/>
       </defs>
       <use xlink:href="#DejaVuSans-37"/>
      </g>
     </g>
    </g>
    <g id="xtick_8">
     <g id="line2d_8">
      <g>
       <use xlink:href="#md5e256d675" x="226.173437" y="240.158125" style="stroke: #000000; stroke-width: 0.8"/>
      </g>
     </g>
     <g id="text_8">
      <!-- 8 -->
      <g transform="translate(222.992187 254.756563) scale(0.1 -0.1)">
       <defs>
        <path id="DejaVuSans-38" d="M 2034 2216 
Q 1584 2216 1326 1975 
Q 1069 1734 1069 1313 
Q 1069 891 1326 650 
Q 1584 409 2034 409 
Q 2484 409 2743 651 
Q 3003 894 3003 1313 
Q 3003 1734 2745 1975 
Q 2488 2216 2034 2216 
z
M 1403 2484 
Q 997 2584 770 2862 
Q 544 3141 544 3541 
Q 544 4100 942 4425 
Q 1341 4750 2034 4750 
Q 2731 4750 3128 4425 
Q 3525 4100 3525 3541 
Q 3525 3141 3298 2862 
Q 3072 2584 2669 2484 
Q 3125 2378 3379 2068 
Q 3634 1759 3634 1313 
Q 3634 634 3220 271 
Q 2806 -91 2034 -91 
Q 1263 -91 848 271 
Q 434 634 434 1313 
Q 434 1759 690 2068 
Q 947 2378 1403 2484 
z
M 1172 3481 
Q 1172 3119 1398 2916 
Q 1625 2713 2034 2713 
Q 2441 2713 2670 2916 
Q 2900 3119 2900 3481 
Q 2900 3844 2670 4047 
Q 2441 4250 2034 4250 
Q 1625 4250 1398 4047 
Q 1172 3844 1172 3481 
z
" transform="scale(0.015625)"/>
       </defs>
       <use xlink:href="#DejaVuSans-38"/>
      </g>
     </g>
    </g>
    <g id="xtick_9">
     <g id="line2d_9">
      <g>
       <use xlink:href="#md5e256d675" x="253.403437" y="240.158125" style="stroke: #000000; stroke-width: 0.8"/>
      </g>
     </g>
     <g id="text_9">
      <!-- 9 -->
      <g transform="translate(250.222187 254.756563) scale(0.1 -0.1)">
       <defs>
        <path id="DejaVuSans-39" d="M 703 97 
L 703 672 
Q 941 559 1184 500 
Q 1428 441 1663 441 
Q 2288 441 2617 861 
Q 2947 1281 2994 2138 
Q 2813 1869 2534 1725 
Q 2256 1581 1919 1581 
Q 1219 1581 811 2004 
Q 403 2428 403 3163 
Q 403 3881 828 4315 
Q 1253 4750 1959 4750 
Q 2769 4750 3195 4129 
Q 3622 3509 3622 2328 
Q 3622 1225 3098 567 
Q 2575 -91 1691 -91 
Q 1453 -91 1209 -44 
Q 966 3 703 97 
z
M 1959 2075 
Q 2384 2075 2632 2365 
Q 2881 2656 2881 3163 
Q 2881 3666 2632 3958 
Q 2384 4250 1959 4250 
Q 1534 4250 1286 3958 
Q 1038 3666 1038 3163 
Q 1038 2656 1286 2365 
Q 1534 2075 1959 2075 
z
" transform="scale(0.015625)"/>
       </defs>
       <use xlink:href="#DejaVuSans-39"/>
      </g>
     </g>
    </g>
    <g id="xtick_10">
     <g id="line2d_10">
      <g>
       <use xlink:href="#md5e256d675" x="280.633437" y="240.158125" style="stroke: #000000; stroke-width: 0.8"/>
      </g>
     </g>
     <g id="text_10">
      <!-- 10 -->
      <g transform="translate(274.270937 254.756563) scale(0.1 -0.1)">
       <defs>
        <path id="DejaVuSans-30" d="M 2034 4250 
Q 1547 4250 1301 3770 
Q 1056 3291 1056 2328 
Q 1056 1369 1301 889 
Q 1547 409 2034 409 
Q 2525 409 2770 889 
Q 3016 1369 3016 2328 
Q 3016 3291 2770 3770 
Q 2525 4250 2034 4250 
z
M 2034 4750 
Q 2819 4750 3233 4129 
Q 3647 3509 3647 2328 
Q 3647 1150 3233 529 
Q 2819 -91 2034 -91 
Q 1250 -91 836 529 
Q 422 1150 422 2328 
Q 422 3509 836 4129 
Q 1250 4750 2034 4750 
z
" transform="scale(0.015625)"/>
       </defs>
       <use xlink:href="#DejaVuSans-31"/>
       <use xlink:href="#DejaVuSans-30" x="63.623047"/>
      </g>
     </g>
    </g>
    <g id="xtick_11">
     <g id="line2d_11">
      <g>
       <use xlink:href="#md5e256d675" x="307.863437" y="240.158125" style="stroke: #000000; stroke-width: 0.8"/>
      </g>
     </g>
     <g id="text_11">
      <!-- 11 -->
      <g transform="translate(301.500937 254.756563) scale(0.1 -0.1)">
       <use xlink:href="#DejaVuSans-31"/>
       <use xlink:href="#DejaVuSans-31" x="63.623047"/>
      </g>
     </g>
    </g>
    <g id="xtick_12">
     <g id="line2d_12">
      <g>
       <use xlink:href="#md5e256d675" x="335.093437" y="240.158125" style="stroke: #000000; stroke-width: 0.8"/>
      </g>
     </g>
     <g id="text_12">
      <!-- 12 -->
      <g transform="translate(328.730937 254.756563) scale(0.1 -0.1)">
       <use xlink:href="#DejaVuSans-31"/>
       <use xlink:href="#DejaVuSans-32" x="63.623047"/>
      </g>
     </g>
    </g>
   </g>
   <g id="matplotlib.axis_2">
    <g id="ytick_1">
     <g id="line2d_13">
      <defs>
       <path id="m0d863d77b7" d="M 0 0 
L -3.5 0 
" style="stroke: #000000; stroke-width: 0.8"/>
      </defs>
      <g>
       <use xlink:href="#m0d863d77b7" x="21.948438" y="35.933125" style="stroke: #000000; stroke-width: 0.8"/>
      </g>
     </g>
     <g id="text_13">
      <!-- A -->
      <g transform="translate(8.107813 39.732344) scale(0.1 -0.1)">
       <defs>
        <path id="DejaVuSans-41" d="M 2188 4044 
L 1331 1722 
L 3047 1722 
L 2188 4044 
z
M 1831 4666 
L 2547 4666 
L 4325 0 
L 3669 0 
L 3244 1197 
L 1141 1197 
L 716 0 
L 50 0 
L 1831 4666 
z
" transform="scale(0.015625)"/>
       </defs>
       <use xlink:href="#DejaVuSans-41"/>
      </g>
     </g>
    </g>
    <g id="ytick_2">
     <g id="line2d_14">
      <g>
       <use xlink:href="#m0d863d77b7" x="21.948438" y="63.163125" style="stroke: #000000; stroke-width: 0.8"/>
      </g>
     </g>
     <g id="text_14">
      <!-- B -->
      <g transform="translate(8.0875 66.962344) scale(0.1 -0.1)">
       <defs>
        <path id="DejaVuSans-42" d="M 1259 2228 
L 1259 519 
L 2272 519 
Q 2781 519 3026 730 
Q 3272 941 3272 1375 
Q 3272 1813 3026 2020 
Q 2781 2228 2272 2228 
L 1259 2228 
z
M 1259 4147 
L 1259 2741 
L 2194 2741 
Q 2656 2741 2882 2914 
Q 3109 3088 3109 3444 
Q 3109 3797 2882 3972 
Q 2656 4147 2194 4147 
L 1259 4147 
z
M 628 4666 
L 2241 4666 
Q 2963 4666 3353 4366 
Q 3744 4066 3744 3513 
Q 3744 3084 3544 2831 
Q 3344 2578 2956 2516 
Q 3422 2416 3680 2098 
Q 3938 1781 3938 1306 
Q 3938 681 3513 340 
Q 3088 0 2303 0 
L 628 0 
L 628 4666 
z
" transform="scale(0.015625)"/>
       </defs>
       <use xlink:href="#DejaVuSans-42"/>
      </g>
     </g>
    </g>
    <g id="ytick_3">
     <g id="line2d_15">
      <g>
       <use xlink:href="#m0d863d77b7" x="21.948438" y="90.393125" style="stroke: #000000; stroke-width: 0.8"/>
      </g>
     </g>
     <g id="text_15">
      <!-- C -->
      <g transform="translate(7.965625 94.192344) scale(0.1 -0.1)">
       <defs>
        <path id="DejaVuSans-43" d="M 4122 4306 
L 4122 3641 
Q 3803 3938 3442 4084 
Q 3081 4231 2675 4231 
Q 1875 4231 1450 3742 
Q 1025 3253 1025 2328 
Q 1025 1406 1450 917 
Q 1875 428 2675 428 
Q 3081 428 3442 575 
Q 3803 722 4122 1019 
L 4122 359 
Q 3791 134 3420 21 
Q 3050 -91 2638 -91 
Q 1578 -91 968 557 
Q 359 1206 359 2328 
Q 359 3453 968 4101 
Q 1578 4750 2638 4750 
Q 3056 4750 3426 4639 
Q 3797 4528 4122 4306 
z
" transform="scale(0.015625)"/>
       </defs>
       <use xlink:href="#DejaVuSans-43"/>
      </g>
     </g>
    </g>
    <g id="ytick_4">
     <g id="line2d_16">
      <g>
       <use xlink:href="#m0d863d77b7" x="21.948438" y="117.623125" style="stroke: #000000; stroke-width: 0.8"/>
      </g>
     </g>
     <g id="text_16">
      <!-- D -->
      <g transform="translate(7.248438 121.422344) scale(0.1 -0.1)">
       <defs>
        <path id="DejaVuSans-44" d="M 1259 4147 
L 1259 519 
L 2022 519 
Q 2988 519 3436 956 
Q 3884 1394 3884 2338 
Q 3884 3275 3436 3711 
Q 2988 4147 2022 4147 
L 1259 4147 
z
M 628 4666 
L 1925 4666 
Q 3281 4666 3915 4102 
Q 4550 3538 4550 2338 
Q 4550 1131 3912 565 
Q 3275 0 1925 0 
L 628 0 
L 628 4666 
z
" transform="scale(0.015625)"/>
       </defs>
       <use xlink:href="#DejaVuSans-44"/>
      </g>
     </g>
    </g>
    <g id="ytick_5">
     <g id="line2d_17">
      <g>
       <use xlink:href="#m0d863d77b7" x="21.948438" y="144.853125" style="stroke: #000000; stroke-width: 0.8"/>
      </g>
     </g>
     <g id="text_17">
      <!-- E -->
      <g transform="translate(8.629687 148.652344) scale(0.1 -0.1)">
       <defs>
        <path id="DejaVuSans-45" d="M 628 4666 
L 3578 4666 
L 3578 4134 
L 1259 4134 
L 1259 2753 
L 3481 2753 
L 3481 2222 
L 1259 2222 
L 1259 531 
L 3634 531 
L 3634 0 
L 628 0 
L 628 4666 
z
" transform="scale(0.015625)"/>
       </defs>
       <use xlink:href="#DejaVuSans-45"/>
      </g>
     </g>
    </g>
    <g id="ytick_6">
     <g id="line2d_18">
      <g>
       <use xlink:href="#m0d863d77b7" x="21.948438" y="172.083125" style="stroke: #000000; stroke-width: 0.8"/>
      </g>
     </g>
     <g id="text_18">
      <!-- F -->
      <g transform="translate(9.196875 175.882344) scale(0.1 -0.1)">
       <defs>
        <path id="DejaVuSans-46" d="M 628 4666 
L 3309 4666 
L 3309 4134 
L 1259 4134 
L 1259 2759 
L 3109 2759 
L 3109 2228 
L 1259 2228 
L 1259 0 
L 628 0 
L 628 4666 
z
" transform="scale(0.015625)"/>
       </defs>
       <use xlink:href="#DejaVuSans-46"/>
      </g>
     </g>
    </g>
    <g id="ytick_7">
     <g id="line2d_19">
      <g>
       <use xlink:href="#m0d863d77b7" x="21.948438" y="199.313125" style="stroke: #000000; stroke-width: 0.8"/>
      </g>
     </g>
     <g id="text_19">
      <!-- G -->
      <g transform="translate(7.2 203.112344) scale(0.1 -0.1)">
       <defs>
        <path id="DejaVuSans-47" d="M 3809 666 
L 3809 1919 
L 2778 1919 
L 2778 2438 
L 4434 2438 
L 4434 434 
Q 4069 175 3628 42 
Q 3188 -91 2688 -91 
Q 1594 -91 976 548 
Q 359 1188 359 2328 
Q 359 3472 976 4111 
Q 1594 4750 2688 4750 
Q 3144 4750 3555 4637 
Q 3966 4525 4313 4306 
L 4313 3634 
Q 3963 3931 3569 4081 
Q 3175 4231 2741 4231 
Q 1884 4231 1454 3753 
Q 1025 3275 1025 2328 
Q 1025 1384 1454 906 
Q 1884 428 2741 428 
Q 3075 428 3337 486 
Q 3600 544 3809 666 
z
" transform="scale(0.015625)"/>
       </defs>
       <use xlink:href="#DejaVuSans-47"/>
      </g>
     </g>
    </g>
    <g id="ytick_8">
     <g id="line2d_20">
      <g>
       <use xlink:href="#m0d863d77b7" x="21.948438" y="226.543125" style="stroke: #000000; stroke-width: 0.8"/>
      </g>
     </g>
     <g id="text_20">
      <!-- H -->
      <g transform="translate(7.428125 230.342344) scale(0.1 -0.1)">
       <defs>
        <path id="DejaVuSans-48" d="M 628 4666 
L 1259 4666 
L 1259 2753 
L 3553 2753 
L 3553 4666 
L 4184 4666 
L 4184 0 
L 3553 0 
L 3553 2222 
L 1259 2222 
L 1259 0 
L 628 0 
L 628 4666 
z
" transform="scale(0.015625)"/>
       </defs>
       <use xlink:href="#DejaVuSans-48"/>
      </g>
     </g>
    </g>
   </g>
   <g id="patch_99">
    <path d="M 21.948438 240.158125 
L 21.948438 22.318125 
" style="fill: none; stroke: #000000; stroke-width: 0.8; stroke-linejoin: miter; stroke-linecap: square"/>
   </g>
   <g id="patch_100">
    <path d="M 348.708437 240.158125 
L 348.708437 22.318125 
" style="fill: none; stroke: #000000; stroke-width: 0.8; stroke-linejoin: miter; stroke-linecap: square"/>
   </g>
   <g id="patch_101">
    <path d="M 21.948438 240.158125 
L 348.708437 240.158125 
" style="fill: none; stroke: #000000; stroke-width: 0.8; stroke-linejoin: miter; stroke-linecap: square"/>
   </g>
   <g id="patch_102">
    <path d="M 21.948438 22.318125 
L 348.708437 22.318125 
" style="fill: none; stroke: #000000; stroke-width: 0.8; stroke-linejoin: miter; stroke-linecap: square"/>
   </g>
   <g id="text_21">
    <!-- orientation -->
    <g transform="translate(152.5075 16.318125) scale(0.12 -0.12)">
     <defs>
      <path id="DejaVuSans-6f" d="M 1959 3097 
Q 1497 3097 1228 2736 
Q 959 2375 959 1747 
Q 959 1119 1226 758 
Q 1494 397 1959 397 
Q 2419 397 2687 759 
Q 2956 1122 2956 1747 
Q 2956 2369 2687 2733 
Q 2419 3097 1959 3097 
z
M 1959 3584 
Q 2709 3584 3137 3096 
Q 3566 2609 3566 1747 
Q 3566 888 3137 398 
Q 2709 -91 1959 -91 
Q 1206 -91 779 398 
Q 353 888 353 1747 
Q 353 2609 779 3096 
Q 1206 3584 1959 3584 
z
" transform="scale(0.015625)"/>
      <path id="DejaVuSans-72" d="M 2631 2963 
Q 2534 3019 2420 3045 
Q 2306 3072 2169 3072 
Q 1681 3072 1420 2755 
Q 1159 2438 1159 1844 
L 1159 0 
L 581 0 
L 581 3500 
L 1159 3500 
L 1159 2956 
Q 1341 3275 1631 3429 
Q 1922 3584 2338 3584 
Q 2397 3584 2469 3576 
Q 2541 3569 2628 3553 
L 2631 2963 
z
" transform="scale(0.015625)"/>
      <path id="DejaVuSans-69" d="M 603 3500 
L 1178 3500 
L 1178 0 
L 603 0 
L 603 3500 
z
M 603 4863 
L 1178 4863 
L 1178 4134 
L 603 4134 
L 603 4863 
z
" transform="scale(0.015625)"/>
      <path id="DejaVuSans-65" d="M 3597 1894 
L 3597 1613 
L 953 1613 
Q 991 1019 1311 708 
Q 1631 397 2203 397 
Q 2534 397 2845 478 
Q 3156 559 3463 722 
L 3463 178 
Q 3153 47 2828 -22 
Q 2503 -91 2169 -91 
Q 1331 -91 842 396 
Q 353 884 353 1716 
Q 353 2575 817 3079 
Q 1281 3584 2069 3584 
Q 2775 3584 3186 3129 
Q 3597 2675 3597 1894 
z
M 3022 2063 
Q 3016 2534 2758 2815 
Q 2500 3097 2075 3097 
Q 1594 3097 1305 2825 
Q 1016 2553 972 2059 
L 3022 2063 
z
" transform="scale(0.015625)"/>
      <path id="DejaVuSans-6e" d="M 3513 2113 
L 3513 0 
L 2938 0 
L 2938 2094 
Q 2938 2591 2744 2837 
Q 2550 3084 2163 3084 
Q 1697 3084 1428 2787 
Q 1159 2491 1159 1978 
L 1159 0 
L 581 0 
L 581 3500 
L 1159 3500 
L 1159 2956 
Q 1366 3272 1645 3428 
Q 1925 3584 2291 3584 
Q 2894 3584 3203 3211 
Q 3513 2838 3513 2113 
z
" transform="scale(0.015625)"/>
      <path id="DejaVuSans-74" d="M 1172 4494 
L 1172 3500 
L 2356 3500 
L 2356 3053 
L 1172 3053 
L 1172 1153 
Q 1172 725 1289 603 
Q 1406 481 1766 481 
L 2356 481 
L 2356 0 
L 1766 0 
Q 1100 0 847 248 
Q 594 497 594 1153 
L 594 3053 
L 172 3053 
L 172 3500 
L 594 3500 
L 594 4494 
L 1172 4494 
z
" transform="scale(0.015625)"/>
      <path id="DejaVuSans-61" d="M 2194 1759 
Q 1497 1759 1228 1600 
Q 959 1441 959 1056 
Q 959 750 1161 570 
Q 1363 391 1709 391 
Q 2188 391 2477 730 
Q 2766 1069 2766 1631 
L 2766 1759 
L 2194 1759 
z
M 3341 1997 
L 3341 0 
L 2766 0 
L 2766 531 
Q 2569 213 2275 61 
Q 1981 -91 1556 -91 
Q 1019 -91 701 211 
Q 384 513 384 1019 
Q 384 1609 779 1909 
Q 1175 2209 1959 2209 
L 2766 2209 
L 2766 2266 
Q 2766 2663 2505 2880 
Q 2244 3097 1772 3097 
Q 1472 3097 1187 3025 
Q 903 2953 641 2809 
L 641 3341 
Q 956 3463 1253 3523 
Q 1550 3584 1831 3584 
Q 2591 3584 2966 3190 
Q 3341 2797 3341 1997 
z
" transform="scale(0.015625)"/>
     </defs>
     <use xlink:href="#DejaVuSans-6f"/>
     <use xlink:href="#DejaVuSans-72" x="61.181641"/>
     <use xlink:href="#DejaVuSans-69" x="102.294922"/>
     <use xlink:href="#DejaVuSans-65" x="130.078125"/>
     <use xlink:href="#DejaVuSans-6e" x="191.601562"/>
     <use xlink:href="#DejaVuSans-74" x="254.980469"/>
     <use xlink:href="#DejaVuSans-61" x="294.189453"/>
     <use xlink:href="#DejaVuSans-74" x="355.46875"/>
     <use xlink:href="#DejaVuSans-69" x="394.677734"/>
     <use xlink:href="#DejaVuSans-6f" x="422.460938"/>
     <use xlink:href="#DejaVuSans-6e" x="483.642578"/>
    </g>
   </g>
   <g id="legend_1">
    <g id="patch_103">
     <path d="M 355.708437 154.755313 
L 444.430312 154.755313 
Q 446.430312 154.755313 446.430312 152.755313 
L 446.430312 109.720937 
Q 446.430312 107.720937 444.430312 107.720937 
L 355.708437 107.720937 
Q 353.708437 107.720937 353.708437 109.720937 
L 353.708437 152.755313 
Q 353.708437 154.755313 355.708437 154.755313 
z
" style="fill: #ffffff; opacity: 0.8; stroke: #cccccc; stroke-linejoin: miter"/>
    </g>
    <g id="patch_104">
     <path d="M 357.708437 119.319375 
L 377.708437 119.319375 
L 377.708437 112.319375 
L 357.708437 112.319375 
z
" style="fill: #19d2bf; stroke: #000000; stroke-linejoin: miter"/>
    </g>
    <g id="text_22">
     <!-- tandem -->
     <g transform="translate(385.708437 119.319375) scale(0.1 -0.1)">
      <defs>
       <path id="DejaVuSans-64" d="M 2906 2969 
L 2906 4863 
L 3481 4863 
L 3481 0 
L 2906 0 
L 2906 525 
Q 2725 213 2448 61 
Q 2172 -91 1784 -91 
Q 1150 -91 751 415 
Q 353 922 353 1747 
Q 353 2572 751 3078 
Q 1150 3584 1784 3584 
Q 2172 3584 2448 3432 
Q 2725 3281 2906 2969 
z
M 947 1747 
Q 947 1113 1208 752 
Q 1469 391 1925 391 
Q 2381 391 2643 752 
Q 2906 1113 2906 1747 
Q 2906 2381 2643 2742 
Q 2381 3103 1925 3103 
Q 1469 3103 1208 2742 
Q 947 2381 947 1747 
z
" transform="scale(0.015625)"/>
       <path id="DejaVuSans-6d" d="M 3328 2828 
Q 3544 3216 3844 3400 
Q 4144 3584 4550 3584 
Q 5097 3584 5394 3201 
Q 5691 2819 5691 2113 
L 5691 0 
L 5113 0 
L 5113 2094 
Q 5113 2597 4934 2840 
Q 4756 3084 4391 3084 
Q 3944 3084 3684 2787 
Q 3425 2491 3425 1978 
L 3425 0 
L 2847 0 
L 2847 2094 
Q 2847 2600 2669 2842 
Q 2491 3084 2119 3084 
Q 1678 3084 1418 2786 
Q 1159 2488 1159 1978 
L 1159 0 
L 581 0 
L 581 3500 
L 1159 3500 
L 1159 2956 
Q 1356 3278 1631 3431 
Q 1906 3584 2284 3584 
Q 2666 3584 2933 3390 
Q 3200 3197 3328 2828 
z
" transform="scale(0.015625)"/>
      </defs>
      <use xlink:href="#DejaVuSans-74"/>
      <use xlink:href="#DejaVuSans-61" x="39.208984"/>
      <use xlink:href="#DejaVuSans-6e" x="100.488281"/>
      <use xlink:href="#DejaVuSans-64" x="163.867188"/>
      <use xlink:href="#DejaVuSans-65" x="227.34375"/>
      <use xlink:href="#DejaVuSans-6d" x="288.867188"/>
     </g>
    </g>
    <g id="patch_105">
     <path d="M 357.708437 133.9975 
L 377.708437 133.9975 
L 377.708437 126.9975 
L 357.708437 126.9975 
z
" style="fill: #ffb133; stroke: #000000; stroke-linejoin: miter"/>
    </g>
    <g id="text_23">
     <!-- convergent -->
     <g transform="translate(385.708437 133.9975) scale(0.1 -0.1)">
      <defs>
       <path id="DejaVuSans-63" d="M 3122 3366 
L 3122 2828 
Q 2878 2963 2633 3030 
Q 2388 3097 2138 3097 
Q 1578 3097 1268 2742 
Q 959 2388 959 1747 
Q 959 1106 1268 751 
Q 1578 397 2138 397 
Q 2388 397 2633 464 
Q 2878 531 3122 666 
L 3122 134 
Q 2881 22 2623 -34 
Q 2366 -91 2075 -91 
Q 1284 -91 818 406 
Q 353 903 353 1747 
Q 353 2603 823 3093 
Q 1294 3584 2113 3584 
Q 2378 3584 2631 3529 
Q 2884 3475 3122 3366 
z
" transform="scale(0.015625)"/>
       <path id="DejaVuSans-76" d="M 191 3500 
L 800 3500 
L 1894 563 
L 2988 3500 
L 3597 3500 
L 2284 0 
L 1503 0 
L 191 3500 
z
" transform="scale(0.015625)"/>
       <path id="DejaVuSans-67" d="M 2906 1791 
Q 2906 2416 2648 2759 
Q 2391 3103 1925 3103 
Q 1463 3103 1205 2759 
Q 947 2416 947 1791 
Q 947 1169 1205 825 
Q 1463 481 1925 481 
Q 2391 481 2648 825 
Q 2906 1169 2906 1791 
z
M 3481 434 
Q 3481 -459 3084 -895 
Q 2688 -1331 1869 -1331 
Q 1566 -1331 1297 -1286 
Q 1028 -1241 775 -1147 
L 775 -588 
Q 1028 -725 1275 -790 
Q 1522 -856 1778 -856 
Q 2344 -856 2625 -561 
Q 2906 -266 2906 331 
L 2906 616 
Q 2728 306 2450 153 
Q 2172 0 1784 0 
Q 1141 0 747 490 
Q 353 981 353 1791 
Q 353 2603 747 3093 
Q 1141 3584 1784 3584 
Q 2172 3584 2450 3431 
Q 2728 3278 2906 2969 
L 2906 3500 
L 3481 3500 
L 3481 434 
z
" transform="scale(0.015625)"/>
      </defs>
      <use xlink:href="#DejaVuSans-63"/>
      <use xlink:href="#DejaVuSans-6f" x="54.980469"/>
      <use xlink:href="#DejaVuSans-6e" x="116.162109"/>
      <use xlink:href="#DejaVuSans-76" x="179.541016"/>
      <use xlink:href="#DejaVuSans-65" x="238.720703"/>
      <use xlink:href="#DejaVuSans-72" x="300.244141"/>
      <use xlink:href="#DejaVuSans-67" x="339.607422"/>
      <use xlink:href="#DejaVuSans-65" x="403.083984"/>
      <use xlink:href="#DejaVuSans-6e" x="464.607422"/>
      <use xlink:href="#DejaVuSans-74" x="527.986328"/>
     </g>
    </g>
    <g id="patch_106">
     <path d="M 357.708437 148.675625 
L 377.708437 148.675625 
L 377.708437 141.675625 
L 357.708437 141.675625 
z
" style="fill: #fe484e; stroke: #000000; stroke-linejoin: miter"/>
    </g>
    <g id="text_24">
     <!-- divergent -->
     <g transform="translate(385.708437 148.675625) scale(0.1 -0.1)">
      <use xlink:href="#DejaVuSans-64"/>
      <use xlink:href="#DejaVuSans-69" x="63.476562"/>
      <use xlink:href="#DejaVuSans-76" x="91.259766"/>
      <use xlink:href="#DejaVuSans-65" x="150.439453"/>
      <use xlink:href="#DejaVuSans-72" x="211.962891"/>
      <use xlink:href="#DejaVuSans-67" x="251.326172"/>
      <use xlink:href="#DejaVuSans-65" x="314.802734"/>
      <use xlink:href="#DejaVuSans-6e" x="376.326172"/>
      <use xlink:href="#DejaVuSans-74" x="439.705078"/>
     </g>
    </g>
   </g>
  </g>
 </g>
 <defs>
  <clipPath id="p60ddca3f1c">
   <rect x="21.948438" y="22.318125" width="326.76" height="217.84"/>
  </clipPath>
 </defs>
</svg>
