<?xml version="1.0" encoding="utf-8" standalone="no"?>
<!DOCTYPE svg PUBLIC "-//W3C//DTD SVG 1.1//EN"
  "http://www.w3.org/Graphics/SVG/1.1/DTD/svg11.dtd">
<svg xmlns:xlink="http://www.w3.org/1999/xlink" width="452.494062pt" height="277.700625pt" viewBox="0 0 452.494062 277.700625" xmlns="http://www.w3.org/2000/svg" version="1.1">
 <metadata>
  <rdf:RDF xmlns:dc="http://purl.org/dc/elements/1.1/" xmlns:cc="http://creativecommons.org/ns#" xmlns:rdf="http://www.w3.org/1999/02/22-rdf-syntax-ns#">
   <cc:Work>
    <dc:type rdf:resource="http://purl.org/dc/dcmitype/StillImage"/>
    <dc:date>2026-06-12T14:53:00+00:00</dc:date>
    <dc:format>image/svg+xml</dc:format>
    <dc:creator>
     <cc:Agent>
      <dc:title>Matplotlib v3.11.0, https://matplotlib.org/</dc:title>
     </cc:Agent>
    </dc:creator>
   </cc:Work>
  </rdf:RDF>
 </metadata>
 <defs>
  <style type="text/css">*{stroke-linejoin: round; stroke-linecap: butt}</style>
 </defs>
 <g id="figure_1">
  <g id="patch_1">
   <path d="M 0 277.700625 
L 452.494062 277.700625 
L 452.494062 0 
L 0 0 
z
" style="fill: #ffffff"/>
  </g>
  <g id="axes_1">
   <g id="patch_2">
    <path d="M 21.948438 253.500625 
L 368.722187 253.500625 
L 368.722187 22.318125 
L 21.948438 22.318125 
z
" style="fill: #ffffff"/>
   </g>
   <g id="patch_3">
    <path d="M 36.397344 49.771047 
C 39.846049 49.771047 43.153969 48.400862 45.592571 45.962259 
C 48.031174 43.523656 49.401359 40.215737 49.401359 36.767031 
C 49.401359 33.318326 48.031174 30.010406 45.592571 27.571804 
C 43.153969 25.133201 39.846049 23.763016 36.397344 23.763016 
C 32.948638 23.763016 29.640719 25.133201 27.202116 27.571804 
C 24.763513 30.010406 23.393328 33.318326 23.393328 36.767031 
C 23.393328 40.215737 24.763513 43.523656 27.202116 45.962259 
C 29.640719 48.400862 32.948638 49.771047 36.397344 49.771047 
z
" clip-path="url(#p5108a02bb0)" style="fill: #8000ff; stroke: #000000; stroke-linejoin: miter"/>
   </g>
   <g id="patch_4">
    <path d="M 65.295156 49.771047 
C 68.743862 49.771047 72.051781 48.400862 74.490384 45.962259 
C 76.928987 43.523656 78.299172 40.215737 78.299172 36.767031 
C 78.299172 33.318326 76.928987 30.010406 74.490384 27.571804 
C 72.051781 25.133201 68.743862 23.763016 65.295156 23.763016 
C 61.846451 23.763016 58.538531 25.133201 56.099929 27.571804 
C 53.661326 30.010406 52.291141 33.318326 52.291141 36.767031 
C 52.291141 40.215737 53.661326 43.523656 56.099929 45.962259 
C 58.538531 48.400862 61.846451 49.771047 65.295156 49.771047 
z
" clip-path="url(#p5108a02bb0)" style="fill: #8000ff; stroke: #000000; stroke-linejoin: miter"/>
   </g>
   <g id="patch_5">
    <path d="M 94.192969 49.771047 
C 97.641674 49.771047 100.949594 48.400862 103.388196 45.962259 
C 105.826799 43.523656 107.196984 40.215737 107.196984 36.767031 
C 107.196984 33.318326 105.826799 30.010406 103.388196 27.571804 
C 100.949594 25.133201 97.641674 23.763016 94.192969 23.763016 
C 90.744263 23.763016 87.436344 25.133201 84.997741 27.571804 
C 82.559138 30.010406 81.188953 33.318326 81.188953 36.767031 
C 81.188953 40.215737 82.559138 43.523656 84.997741 45.962259 
C 87.436344 48.400862 90.744263 49.771047 94.192969 49.771047 
z
" clip-path="url(#p5108a02bb0)" style="fill: #8000ff; stroke: #000000; stroke-linejoin: miter"/>
   </g>
   <g id="patch_6">
    <path d="M 123.090781 49.771047 
C 126.539487 49.771047 129.847406 48.400862 132.286009 45.962259 
C 134.724612 43.523656 136.094797 40.215737 136.094797 36.767031 
C 136.094797 33.318326 134.724612 30.010406 132.286009 27.571804 
C 129.847406 25.133201 126.539487 23.763016 123.090781 23.763016 
C 119.642076 23.763016 116.334156 25.133201 113.895554 27.571804 
C 111.456951 30.010406 110.086766 33.318326 110.086766 36.767031 
C 110.086766 40.215737 111.456951 43.523656 113.895554 45.962259 
C 116.334156 48.400862 119.642076 49.771047 123.090781 49.771047 
z
" clip-path="url(#p5108a02bb0)" style="fill: #8000ff; stroke: #000000; stroke-linejoin: miter"/>
   </g>
   <g id="patch_7">
    <path d="M 151.988594 49.771047 
C 155.437299 49.771047 158.745219 48.400862 161.183821 45.962259 
C 163.622424 43.523656 164.992609 40.215737 164.992609 36.767031 
C 164.992609 33.318326 163.622424 30.010406 161.183821 27.571804 
C 158.745219 25.133201 155.437299 23.763016 151.988594 23.763016 
C 148.539888 23.763016 145.231969 25.133201 142.793366 27.571804 
C 140.354763 30.010406 138.984578 33.318326 138.984578 36.767031 
C 138.984578 40.215737 140.354763 43.523656 142.793366 45.962259 
C 145.231969 48.400862 148.539888 49.771047 151.988594 49.771047 
z
" clip-path="url(#p5108a02bb0)" style="fill: #8000ff; stroke: #000000; stroke-linejoin: miter"/>
   </g>
   <g id="patch_8">
    <path d="M 180.886406 49.771047 
C 184.335112 49.771047 187.643031 48.400862 190.081634 45.962259 
C 192.520237 43.523656 193.890422 40.215737 193.890422 36.767031 
C 193.890422 33.318326 192.520237 30.010406 190.081634 27.571804 
C 187.643031 25.133201 184.335112 23.763016 180.886406 23.763016 
C 177.437701 23.763016 174.129781 25.133201 171.691179 27.571804 
C 169.252576 30.010406 167.882391 33.318326 167.882391 36.767031 
C 167.882391 40.215737 169.252576 43.523656 171.691179 45.962259 
C 174.129781 48.400862 177.437701 49.771047 180.886406 49.771047 
z
" clip-path="url(#p5108a02bb0)" style="fill: #8000ff; stroke: #000000; stroke-linejoin: miter"/>
   </g>
   <g id="patch_9">
    <path d="M 209.784219 49.771047 
C 213.232924 49.771047 216.540844 48.400862 218.979446 45.962259 
C 221.418049 43.523656 222.788234 40.215737 222.788234 36.767031 
C 222.788234 33.318326 221.418049 30.010406 218.979446 27.571804 
C 216.540844 25.133201 213.232924 23.763016 209.784219 23.763016 
C 206.335513 23.763016 203.027594 25.133201 200.588991 27.571804 
C 198.150388 30.010406 196.780203 33.318326 196.780203 36.767031 
C 196.780203 40.215737 198.150388 43.523656 200.588991 45.962259 
C 203.027594 48.400862 206.335513 49.771047 209.784219 49.771047 
z
" clip-path="url(#p5108a02bb0)" style="fill: #8000ff; stroke: #000000; stroke-linejoin: miter"/>
   </g>
   <g id="patch_10">
    <path d="M 238.682031 49.771047 
C 242.130737 49.771047 245.438656 48.400862 247.877259 45.962259 
C 250.315862 43.523656 251.686047 40.215737 251.686047 36.767031 
C 251.686047 33.318326 250.315862 30.010406 247.877259 27.571804 
C 245.438656 25.133201 242.130737 23.763016 238.682031 23.763016 
C 235.233326 23.763016 231.925406 25.133201 229.486804 27.571804 
C 227.048201 30.010406 225.678016 33.318326 225.678016 36.767031 
C 225.678016 40.215737 227.048201 43.523656 229.486804 45.962259 
C 231.925406 48.400862 235.233326 49.771047 238.682031 49.771047 
z
" clip-path="url(#p5108a02bb0)" style="fill: #8000ff; stroke: #000000; stroke-linejoin: miter"/>
   </g>
   <g id="patch_11">
    <path d="M 267.579844 49.771047 
C 271.028549 49.771047 274.336469 48.400862 276.775071 45.962259 
C 279.213674 43.523656 280.583859 40.215737 280.583859 36.767031 
C 280.583859 33.318326 279.213674 30.010406 276.775071 27.571804 
C 274.336469 25.133201 271.028549 23.763016 267.579844 23.763016 
C 264.131138 23.763016 260.823219 25.133201 258.384616 27.571804 
C 255.946013 30.010406 254.575828 33.318326 254.575828 36.767031 
C 254.575828 40.215737 255.946013 43.523656 258.384616 45.962259 
C 260.823219 48.400862 264.131138 49.771047 267.579844 49.771047 
z
" clip-path="url(#p5108a02bb0)" style="fill: #8000ff; stroke: #000000; stroke-linejoin: miter"/>
   </g>
   <g id="patch_12">
    <path d="M 296.477656 49.771047 
C 299.926362 49.771047 303.234281 48.400862 305.672884 45.962259 
C 308.111487 43.523656 309.481672 40.215737 309.481672 36.767031 
C 309.481672 33.318326 308.111487 30.010406 305.672884 27.571804 
C 303.234281 25.133201 299.926362 23.763016 296.477656 23.763016 
C 293.028951 23.763016 289.721031 25.133201 287.282429 27.571804 
C 284.843826 30.010406 283.473641 33.318326 283.473641 36.767031 
C 283.473641 40.215737 284.843826 43.523656 287.282429 45.962259 
C 289.721031 48.400862 293.028951 49.771047 296.477656 49.771047 
z
" clip-path="url(#p5108a02bb0)" style="fill: #80ffb4; stroke: #000000; stroke-linejoin: miter"/>
   </g>
   <g id="patch_13">
    <path d="M 325.375469 49.771047 
C 328.824174 49.771047 332.132094 48.400862 334.570696 45.962259 
C 337.009299 43.523656 338.379484 40.215737 338.379484 36.767031 
C 338.379484 33.318326 337.009299 30.010406 334.570696 27.571804 
C 332.132094 25.133201 328.824174 23.763016 325.375469 23.763016 
C 321.926763 23.763016 318.618844 25.133201 316.180241 27.571804 
C 313.741638 30.010406 312.371453 33.318326 312.371453 36.767031 
C 312.371453 40.215737 313.741638 43.523656 316.180241 45.962259 
C 318.618844 48.400862 321.926763 49.771047 325.375469 49.771047 
z
" clip-path="url(#p5108a02bb0)" style="fill: #80ffb4; stroke: #000000; stroke-linejoin: miter"/>
   </g>
   <g id="patch_14">
    <path d="M 354.273281 49.771047 
C 357.721987 49.771047 361.029906 48.400862 363.468509 45.962259 
C 365.907112 43.523656 367.277297 40.215737 367.277297 36.767031 
C 367.277297 33.318326 365.907112 30.010406 363.468509 27.571804 
C 361.029906 25.133201 357.721987 23.763016 354.273281 23.763016 
C 350.824576 23.763016 347.516656 25.133201 345.078054 27.571804 
C 342.639451 30.010406 341.269266 33.318326 341.269266 36.767031 
C 341.269266 40.215737 342.639451 43.523656 345.078054 45.962259 
C 347.516656 48.400862 350.824576 49.771047 354.273281 49.771047 
z
" clip-path="url(#p5108a02bb0)" style="fill: #80ffb4; stroke: #000000; stroke-linejoin: miter"/>
   </g>
   <g id="patch_15">
    <path d="M 36.397344 78.668859 
C 39.846049 78.668859 43.153969 77.298674 45.592571 74.860071 
C 48.031174 72.421469 49.401359 69.113549 49.401359 65.664844 
C 49.401359 62.216138 48.031174 58.908219 45.592571 56.469616 
C 43.153969 54.031013 39.846049 52.660828 36.397344 52.660828 
C 32.948638 52.660828 29.640719 54.031013 27.202116 56.469616 
C 24.763513 58.908219 23.393328 62.216138 23.393328 65.664844 
C 23.393328 69.113549 24.763513 72.421469 27.202116 74.860071 
C 29.640719 77.298674 32.948638 78.668859 36.397344 78.668859 
z
" clip-path="url(#p5108a02bb0)" style="fill: #8000ff; stroke: #000000; stroke-linejoin: miter"/>
   </g>
   <g id="patch_16">
    <path d="M 65.295156 78.668859 
C 68.743862 78.668859 72.051781 77.298674 74.490384 74.860071 
C 76.928987 72.421469 78.299172 69.113549 78.299172 65.664844 
C 78.299172 62.216138 76.928987 58.908219 74.490384 56.469616 
C 72.051781 54.031013 68.743862 52.660828 65.295156 52.660828 
C 61.846451 52.660828 58.538531 54.031013 56.099929 56.469616 
C 53.661326 58.908219 52.291141 62.216138 52.291141 65.664844 
C 52.291141 69.113549 53.661326 72.421469 56.099929 74.860071 
C 58.538531 77.298674 61.846451 78.668859 65.295156 78.668859 
z
" clip-path="url(#p5108a02bb0)" style="fill: #8000ff; stroke: #000000; stroke-linejoin: miter"/>
   </g>
   <g id="patch_17">
    <path d="M 94.192969 78.668859 
C 97.641674 78.668859 100.949594 77.298674 103.388196 74.860071 
C 105.826799 72.421469 107.196984 69.113549 107.196984 65.664844 
C 107.196984 62.216138 105.826799 58.908219 103.388196 56.469616 
C 100.949594 54.031013 97.641674 52.660828 94.192969 52.660828 
C 90.744263 52.660828 87.436344 54.031013 84.997741 56.469616 
C 82.559138 58.908219 81.188953 62.216138 81.188953 65.664844 
C 81.188953 69.113549 82.559138 72.421469 84.997741 74.860071 
C 87.436344 77.298674 90.744263 78.668859 94.192969 78.668859 
z
" clip-path="url(#p5108a02bb0)" style="fill: #8000ff; stroke: #000000; stroke-linejoin: miter"/>
   </g>
   <g id="patch_18">
    <path d="M 123.090781 78.668859 
C 126.539487 78.668859 129.847406 77.298674 132.286009 74.860071 
C 134.724612 72.421469 136.094797 69.113549 136.094797 65.664844 
C 136.094797 62.216138 134.724612 58.908219 132.286009 56.469616 
C 129.847406 54.031013 126.539487 52.660828 123.090781 52.660828 
C 119.642076 52.660828 116.334156 54.031013 113.895554 56.469616 
C 111.456951 58.908219 110.086766 62.216138 110.086766 65.664844 
C 110.086766 69.113549 111.456951 72.421469 113.895554 74.860071 
C 116.334156 77.298674 119.642076 78.668859 123.090781 78.668859 
z
" clip-path="url(#p5108a02bb0)" style="fill: #8000ff; stroke: #000000; stroke-linejoin: miter"/>
   </g>
   <g id="patch_19">
    <path d="M 151.988594 78.668859 
C 155.437299 78.668859 158.745219 77.298674 161.183821 74.860071 
C 163.622424 72.421469 164.992609 69.113549 164.992609 65.664844 
C 164.992609 62.216138 163.622424 58.908219 161.183821 56.469616 
C 158.745219 54.031013 155.437299 52.660828 151.988594 52.660828 
C 148.539888 52.660828 145.231969 54.031013 142.793366 56.469616 
C 140.354763 58.908219 138.984578 62.216138 138.984578 65.664844 
C 138.984578 69.113549 140.354763 72.421469 142.793366 74.860071 
C 145.231969 77.298674 148.539888 78.668859 151.988594 78.668859 
z
" clip-path="url(#p5108a02bb0)" style="fill: #8000ff; stroke: #000000; stroke-linejoin: miter"/>
   </g>
   <g id="patch_20">
    <path d="M 180.886406 78.668859 
C 184.335112 78.668859 187.643031 77.298674 190.081634 74.860071 
C 192.520237 72.421469 193.890422 69.113549 193.890422 65.664844 
C 193.890422 62.216138 192.520237 58.908219 190.081634 56.469616 
C 187.643031 54.031013 184.335112 52.660828 180.886406 52.660828 
C 177.437701 52.660828 174.129781 54.031013 171.691179 56.469616 
C 169.252576 58.908219 167.882391 62.216138 167.882391 65.664844 
C 167.882391 69.113549 169.252576 72.421469 171.691179 74.860071 
C 174.129781 77.298674 177.437701 78.668859 180.886406 78.668859 
z
" clip-path="url(#p5108a02bb0)" style="fill: #8000ff; stroke: #000000; stroke-linejoin: miter"/>
   </g>
   <g id="patch_21">
    <path d="M 209.784219 78.668859 
C 213.232924 78.668859 216.540844 77.298674 218.979446 74.860071 
C 221.418049 72.421469 222.788234 69.113549 222.788234 65.664844 
C 222.788234 62.216138 221.418049 58.908219 218.979446 56.469616 
C 216.540844 54.031013 213.232924 52.660828 209.784219 52.660828 
C 206.335513 52.660828 203.027594 54.031013 200.588991 56.469616 
C 198.150388 58.908219 196.780203 62.216138 196.780203 65.664844 
C 196.780203 69.113549 198.150388 72.421469 200.588991 74.860071 
C 203.027594 77.298674 206.335513 78.668859 209.784219 78.668859 
z
" clip-path="url(#p5108a02bb0)" style="fill: #8000ff; stroke: #000000; stroke-linejoin: miter"/>
   </g>
   <g id="patch_22">
    <path d="M 238.682031 78.668859 
C 242.130737 78.668859 245.438656 77.298674 247.877259 74.860071 
C 250.315862 72.421469 251.686047 69.113549 251.686047 65.664844 
C 251.686047 62.216138 250.315862 58.908219 247.877259 56.469616 
C 245.438656 54.031013 242.130737 52.660828 238.682031 52.660828 
C 235.233326 52.660828 231.925406 54.031013 229.486804 56.469616 
C 227.048201 58.908219 225.678016 62.216138 225.678016 65.664844 
C 225.678016 69.113549 227.048201 72.421469 229.486804 74.860071 
C 231.925406 77.298674 235.233326 78.668859 238.682031 78.668859 
z
" clip-path="url(#p5108a02bb0)" style="fill: #8000ff; stroke: #000000; stroke-linejoin: miter"/>
   </g>
   <g id="patch_23">
    <path d="M 267.579844 78.668859 
C 271.028549 78.668859 274.336469 77.298674 276.775071 74.860071 
C 279.213674 72.421469 280.583859 69.113549 280.583859 65.664844 
C 280.583859 62.216138 279.213674 58.908219 276.775071 56.469616 
C 274.336469 54.031013 271.028549 52.660828 267.579844 52.660828 
C 264.131138 52.660828 260.823219 54.031013 258.384616 56.469616 
C 255.946013 58.908219 254.575828 62.216138 254.575828 65.664844 
C 254.575828 69.113549 255.946013 72.421469 258.384616 74.860071 
C 260.823219 77.298674 264.131138 78.668859 267.579844 78.668859 
z
" clip-path="url(#p5108a02bb0)" style="fill: #8000ff; stroke: #000000; stroke-linejoin: miter"/>
   </g>
   <g id="patch_24">
    <path d="M 296.477656 78.668859 
C 299.926362 78.668859 303.234281 77.298674 305.672884 74.860071 
C 308.111487 72.421469 309.481672 69.113549 309.481672 65.664844 
C 309.481672 62.216138 308.111487 58.908219 305.672884 56.469616 
C 303.234281 54.031013 299.926362 52.660828 296.477656 52.660828 
C 293.028951 52.660828 289.721031 54.031013 287.282429 56.469616 
C 284.843826 58.908219 283.473641 62.216138 283.473641 65.664844 
C 283.473641 69.113549 284.843826 72.421469 287.282429 74.860071 
C 289.721031 77.298674 293.028951 78.668859 296.477656 78.668859 
z
" clip-path="url(#p5108a02bb0)" style="fill: #80ffb4; stroke: #000000; stroke-linejoin: miter"/>
   </g>
   <g id="patch_25">
    <path d="M 325.375469 78.668859 
C 328.824174 78.668859 332.132094 77.298674 334.570696 74.860071 
C 337.009299 72.421469 338.379484 69.113549 338.379484 65.664844 
C 338.379484 62.216138 337.009299 58.908219 334.570696 56.469616 
C 332.132094 54.031013 328.824174 52.660828 325.375469 52.660828 
C 321.926763 52.660828 318.618844 54.031013 316.180241 56.469616 
C 313.741638 58.908219 312.371453 62.216138 312.371453 65.664844 
C 312.371453 69.113549 313.741638 72.421469 316.180241 74.860071 
C 318.618844 77.298674 321.926763 78.668859 325.375469 78.668859 
z
" clip-path="url(#p5108a02bb0)" style="fill: #80ffb4; stroke: #000000; stroke-linejoin: miter"/>
   </g>
   <g id="patch_26">
    <path d="M 354.273281 78.668859 
C 357.721987 78.668859 361.029906 77.298674 363.468509 74.860071 
C 365.907112 72.421469 367.277297 69.113549 367.277297 65.664844 
C 367.277297 62.216138 365.907112 58.908219 363.468509 56.469616 
C 361.029906 54.031013 357.721987 52.660828 354.273281 52.660828 
C 350.824576 52.660828 347.516656 54.031013 345.078054 56.469616 
C 342.639451 58.908219 341.269266 62.216138 341.269266 65.664844 
C 341.269266 69.113549 342.639451 72.421469 345.078054 74.860071 
C 347.516656 77.298674 350.824576 78.668859 354.273281 78.668859 
z
" clip-path="url(#p5108a02bb0)" style="fill: #80ffb4; stroke: #000000; stroke-linejoin: miter"/>
   </g>
   <g id="patch_27">
    <path d="M 36.397344 107.566672 
C 39.846049 107.566672 43.153969 106.196487 45.592571 103.757884 
C 48.031174 101.319281 49.401359 98.011362 49.401359 94.562656 
C 49.401359 91.113951 48.031174 87.806031 45.592571 85.367429 
C 43.153969 82.928826 39.846049 81.558641 36.397344 81.558641 
C 32.948638 81.558641 29.640719 82.928826 27.202116 85.367429 
C 24.763513 87.806031 23.393328 91.113951 23.393328 94.562656 
C 23.393328 98.011362 24.763513 101.319281 27.202116 103.757884 
C 29.640719 106.196487 32.948638 107.566672 36.397344 107.566672 
z
" clip-path="url(#p5108a02bb0)" style="fill: #8000ff; stroke: #000000; stroke-linejoin: miter"/>
   </g>
   <g id="patch_28">
    <path d="M 65.295156 107.566672 
C 68.743862 107.566672 72.051781 106.196487 74.490384 103.757884 
C 76.928987 101.319281 78.299172 98.011362 78.299172 94.562656 
C 78.299172 91.113951 76.928987 87.806031 74.490384 85.367429 
C 72.051781 82.928826 68.743862 81.558641 65.295156 81.558641 
C 61.846451 81.558641 58.538531 82.928826 56.099929 85.367429 
C 53.661326 87.806031 52.291141 91.113951 52.291141 94.562656 
C 52.291141 98.011362 53.661326 101.319281 56.099929 103.757884 
C 58.538531 106.196487 61.846451 107.566672 65.295156 107.566672 
z
" clip-path="url(#p5108a02bb0)" style="fill: #8000ff; stroke: #000000; stroke-linejoin: miter"/>
   </g>
   <g id="patch_29">
    <path d="M 94.192969 107.566672 
C 97.641674 107.566672 100.949594 106.196487 103.388196 103.757884 
C 105.826799 101.319281 107.196984 98.011362 107.196984 94.562656 
C 107.196984 91.113951 105.826799 87.806031 103.388196 85.367429 
C 100.949594 82.928826 97.641674 81.558641 94.192969 81.558641 
C 90.744263 81.558641 87.436344 82.928826 84.997741 85.367429 
C 82.559138 87.806031 81.188953 91.113951 81.188953 94.562656 
C 81.188953 98.011362 82.559138 101.319281 84.997741 103.757884 
C 87.436344 106.196487 90.744263 107.566672 94.192969 107.566672 
z
" clip-path="url(#p5108a02bb0)" style="fill: #8000ff; stroke: #000000; stroke-linejoin: miter"/>
   </g>
   <g id="patch_30">
    <path d="M 123.090781 107.566672 
C 126.539487 107.566672 129.847406 106.196487 132.286009 103.757884 
C 134.724612 101.319281 136.094797 98.011362 136.094797 94.562656 
C 136.094797 91.113951 134.724612 87.806031 132.286009 85.367429 
C 129.847406 82.928826 126.539487 81.558641 123.090781 81.558641 
C 119.642076 81.558641 116.334156 82.928826 113.895554 85.367429 
C 111.456951 87.806031 110.086766 91.113951 110.086766 94.562656 
C 110.086766 98.011362 111.456951 101.319281 113.895554 103.757884 
C 116.334156 106.196487 119.642076 107.566672 123.090781 107.566672 
z
" clip-path="url(#p5108a02bb0)" style="fill: #8000ff; stroke: #000000; stroke-linejoin: miter"/>
   </g>
   <g id="patch_31">
    <path d="M 151.988594 107.566672 
C 155.437299 107.566672 158.745219 106.196487 161.183821 103.757884 
C 163.622424 101.319281 164.992609 98.011362 164.992609 94.562656 
C 164.992609 91.113951 163.622424 87.806031 161.183821 85.367429 
C 158.745219 82.928826 155.437299 81.558641 151.988594 81.558641 
C 148.539888 81.558641 145.231969 82.928826 142.793366 85.367429 
C 140.354763 87.806031 138.984578 91.113951 138.984578 94.562656 
C 138.984578 98.011362 140.354763 101.319281 142.793366 103.757884 
C 145.231969 106.196487 148.539888 107.566672 151.988594 107.566672 
z
" clip-path="url(#p5108a02bb0)" style="fill: #8000ff; stroke: #000000; stroke-linejoin: miter"/>
   </g>
   <g id="patch_32">
    <path d="M 180.886406 107.566672 
C 184.335112 107.566672 187.643031 106.196487 190.081634 103.757884 
C 192.520237 101.319281 193.890422 98.011362 193.890422 94.562656 
C 193.890422 91.113951 192.520237 87.806031 190.081634 85.367429 
C 187.643031 82.928826 184.335112 81.558641 180.886406 81.558641 
C 177.437701 81.558641 174.129781 82.928826 171.691179 85.367429 
C 169.252576 87.806031 167.882391 91.113951 167.882391 94.562656 
C 167.882391 98.011362 169.252576 101.319281 171.691179 103.757884 
C 174.129781 106.196487 177.437701 107.566672 180.886406 107.566672 
z
" clip-path="url(#p5108a02bb0)" style="fill: #8000ff; stroke: #000000; stroke-linejoin: miter"/>
   </g>
   <g id="patch_33">
    <path d="M 209.784219 107.566672 
C 213.232924 107.566672 216.540844 106.196487 218.979446 103.757884 
C 221.418049 101.319281 222.788234 98.011362 222.788234 94.562656 
C 222.788234 91.113951 221.418049 87.806031 218.979446 85.367429 
C 216.540844 82.928826 213.232924 81.558641 209.784219 81.558641 
C 206.335513 81.558641 203.027594 82.928826 200.588991 85.367429 
C 198.150388 87.806031 196.780203 91.113951 196.780203 94.562656 
C 196.780203 98.011362 198.150388 101.319281 200.588991 103.757884 
C 203.027594 106.196487 206.335513 107.566672 209.784219 107.566672 
z
" clip-path="url(#p5108a02bb0)" style="fill: #8000ff; stroke: #000000; stroke-linejoin: miter"/>
   </g>
   <g id="patch_34">
    <path d="M 238.682031 107.566672 
C 242.130737 107.566672 245.438656 106.196487 247.877259 103.757884 
C 250.315862 101.319281 251.686047 98.011362 251.686047 94.562656 
C 251.686047 91.113951 250.315862 87.806031 247.877259 85.367429 
C 245.438656 82.928826 242.130737 81.558641 238.682031 81.558641 
C 235.233326 81.558641 231.925406 82.928826 229.486804 85.367429 
C 227.048201 87.806031 225.678016 91.113951 225.678016 94.562656 
C 225.678016 98.011362 227.048201 101.319281 229.486804 103.757884 
C 231.925406 106.196487 235.233326 107.566672 238.682031 107.566672 
z
" clip-path="url(#p5108a02bb0)" style="fill: #8000ff; stroke: #000000; stroke-linejoin: miter"/>
   </g>
   <g id="patch_35">
    <path d="M 267.579844 107.566672 
C 271.028549 107.566672 274.336469 106.196487 276.775071 103.757884 
C 279.213674 101.319281 280.583859 98.011362 280.583859 94.562656 
C 280.583859 91.113951 279.213674 87.806031 276.775071 85.367429 
C 274.336469 82.928826 271.028549 81.558641 267.579844 81.558641 
C 264.131138 81.558641 260.823219 82.928826 258.384616 85.367429 
C 255.946013 87.806031 254.575828 91.113951 254.575828 94.562656 
C 254.575828 98.011362 255.946013 101.319281 258.384616 103.757884 
C 260.823219 106.196487 264.131138 107.566672 267.579844 107.566672 
z
" clip-path="url(#p5108a02bb0)" style="fill: #8000ff; stroke: #000000; stroke-linejoin: miter"/>
   </g>
   <g id="patch_36">
    <path d="M 296.477656 107.566672 
C 299.926362 107.566672 303.234281 106.196487 305.672884 103.757884 
C 308.111487 101.319281 309.481672 98.011362 309.481672 94.562656 
C 309.481672 91.113951 308.111487 87.806031 305.672884 85.367429 
C 303.234281 82.928826 299.926362 81.558641 296.477656 81.558641 
C 293.028951 81.558641 289.721031 82.928826 287.282429 85.367429 
C 284.843826 87.806031 283.473641 91.113951 283.473641 94.562656 
C 283.473641 98.011362 284.843826 101.319281 287.282429 103.757884 
C 289.721031 106.196487 293.028951 107.566672 296.477656 107.566672 
z
" clip-path="url(#p5108a02bb0)" style="fill: #80ffb4; stroke: #000000; stroke-linejoin: miter"/>
   </g>
   <g id="patch_37">
    <path d="M 325.375469 107.566672 
C 328.824174 107.566672 332.132094 106.196487 334.570696 103.757884 
C 337.009299 101.319281 338.379484 98.011362 338.379484 94.562656 
C 338.379484 91.113951 337.009299 87.806031 334.570696 85.367429 
C 332.132094 82.928826 328.824174 81.558641 325.375469 81.558641 
C 321.926763 81.558641 318.618844 82.928826 316.180241 85.367429 
C 313.741638 87.806031 312.371453 91.113951 312.371453 94.562656 
C 312.371453 98.011362 313.741638 101.319281 316.180241 103.757884 
C 318.618844 106.196487 321.926763 107.566672 325.375469 107.566672 
z
" clip-path="url(#p5108a02bb0)" style="fill: #80ffb4; stroke: #000000; stroke-linejoin: miter"/>
   </g>
   <g id="patch_38">
    <path d="M 354.273281 107.566672 
C 357.721987 107.566672 361.029906 106.196487 363.468509 103.757884 
C 365.907112 101.319281 367.277297 98.011362 367.277297 94.562656 
C 367.277297 91.113951 365.907112 87.806031 363.468509 85.367429 
C 361.029906 82.928826 357.721987 81.558641 354.273281 81.558641 
C 350.824576 81.558641 347.516656 82.928826 345.078054 85.367429 
C 342.639451 87.806031 341.269266 91.113951 341.269266 94.562656 
C 341.269266 98.011362 342.639451 101.319281 345.078054 103.757884 
C 347.516656 106.196487 350.824576 107.566672 354.273281 107.566672 
z
" clip-path="url(#p5108a02bb0)" style="fill: #80ffb4; stroke: #000000; stroke-linejoin: miter"/>
   </g>
   <g id="patch_39">
    <path d="M 36.397344 136.464484 
C 39.846049 136.464484 43.153969 135.094299 45.592571 132.655696 
C 48.031174 130.217094 49.401359 126.909174 49.401359 123.460469 
C 49.401359 120.011763 48.031174 116.703844 45.592571 114.265241 
C 43.153969 111.826638 39.846049 110.456453 36.397344 110.456453 
C 32.948638 110.456453 29.640719 111.826638 27.202116 114.265241 
C 24.763513 116.703844 23.393328 120.011763 23.393328 123.460469 
C 23.393328 126.909174 24.763513 130.217094 27.202116 132.655696 
C 29.640719 135.094299 32.948638 136.464484 36.397344 136.464484 
z
" clip-path="url(#p5108a02bb0)" style="fill: #8000ff; stroke: #000000; stroke-linejoin: miter"/>
   </g>
   <g id="patch_40">
    <path d="M 65.295156 136.464484 
C 68.743862 136.464484 72.051781 135.094299 74.490384 132.655696 
C 76.928987 130.217094 78.299172 126.909174 78.299172 123.460469 
C 78.299172 120.011763 76.928987 116.703844 74.490384 114.265241 
C 72.051781 111.826638 68.743862 110.456453 65.295156 110.456453 
C 61.846451 110.456453 58.538531 111.826638 56.099929 114.265241 
C 53.661326 116.703844 52.291141 120.011763 52.291141 123.460469 
C 52.291141 126.909174 53.661326 130.217094 56.099929 132.655696 
C 58.538531 135.094299 61.846451 136.464484 65.295156 136.464484 
z
" clip-path="url(#p5108a02bb0)" style="fill: #8000ff; stroke: #000000; stroke-linejoin: miter"/>
   </g>
   <g id="patch_41">
    <path d="M 94.192969 136.464484 
C 97.641674 136.464484 100.949594 135.094299 103.388196 132.655696 
C 105.826799 130.217094 107.196984 126.909174 107.196984 123.460469 
C 107.196984 120.011763 105.826799 116.703844 103.388196 114.265241 
C 100.949594 111.826638 97.641674 110.456453 94.192969 110.456453 
C 90.744263 110.456453 87.436344 111.826638 84.997741 114.265241 
C 82.559138 116.703844 81.188953 120.011763 81.188953 123.460469 
C 81.188953 126.909174 82.559138 130.217094 84.997741 132.655696 
C 87.436344 135.094299 90.744263 136.464484 94.192969 136.464484 
z
" clip-path="url(#p5108a02bb0)" style="fill: #8000ff; stroke: #000000; stroke-linejoin: miter"/>
   </g>
   <g id="patch_42">
    <path d="M 123.090781 136.464484 
C 126.539487 136.464484 129.847406 135.094299 132.286009 132.655696 
C 134.724612 130.217094 136.094797 126.909174 136.094797 123.460469 
C 136.094797 120.011763 134.724612 116.703844 132.286009 114.265241 
C 129.847406 111.826638 126.539487 110.456453 123.090781 110.456453 
C 119.642076 110.456453 116.334156 111.826638 113.895554 114.265241 
C 111.456951 116.703844 110.086766 120.011763 110.086766 123.460469 
C 110.086766 126.909174 111.456951 130.217094 113.895554 132.655696 
C 116.334156 135.094299 119.642076 136.464484 123.090781 136.464484 
z
" clip-path="url(#p5108a02bb0)" style="fill: #8000ff; stroke: #000000; stroke-linejoin: miter"/>
   </g>
   <g id="patch_43">
    <path d="M 151.988594 136.464484 
C 155.437299 136.464484 158.745219 135.094299 161.183821 132.655696 
C 163.622424 130.217094 164.992609 126.909174 164.992609 123.460469 
C 164.992609 120.011763 163.622424 116.703844 161.183821 114.265241 
C 158.745219 111.826638 155.437299 110.456453 151.988594 110.456453 
C 148.539888 110.456453 145.231969 111.826638 142.793366 114.265241 
C 140.354763 116.703844 138.984578 120.011763 138.984578 123.460469 
C 138.984578 126.909174 140.354763 130.217094 142.793366 132.655696 
C 145.231969 135.094299 148.539888 136.464484 151.988594 136.464484 
z
" clip-path="url(#p5108a02bb0)" style="fill: #8000ff; stroke: #000000; stroke-linejoin: miter"/>
   </g>
   <g id="patch_44">
    <path d="M 180.886406 136.464484 
C 184.335112 136.464484 187.643031 135.094299 190.081634 132.655696 
C 192.520237 130.217094 193.890422 126.909174 193.890422 123.460469 
C 193.890422 120.011763 192.520237 116.703844 190.081634 114.265241 
C 187.643031 111.826638 184.335112 110.456453 180.886406 110.456453 
C 177.437701 110.456453 174.129781 111.826638 171.691179 114.265241 
C 169.252576 116.703844 167.882391 120.011763 167.882391 123.460469 
C 167.882391 126.909174 169.252576 130.217094 171.691179 132.655696 
C 174.129781 135.094299 177.437701 136.464484 180.886406 136.464484 
z
" clip-path="url(#p5108a02bb0)" style="fill: #8000ff; stroke: #000000; stroke-linejoin: miter"/>
   </g>
   <g id="patch_45">
    <path d="M 209.784219 136.464484 
C 213.232924 136.464484 216.540844 135.094299 218.979446 132.655696 
C 221.418049 130.217094 222.788234 126.909174 222.788234 123.460469 
C 222.788234 120.011763 221.418049 116.703844 218.979446 114.265241 
C 216.540844 111.826638 213.232924 110.456453 209.784219 110.456453 
C 206.335513 110.456453 203.027594 111.826638 200.588991 114.265241 
C 198.150388 116.703844 196.780203 120.011763 196.780203 123.460469 
C 196.780203 126.909174 198.150388 130.217094 200.588991 132.655696 
C 203.027594 135.094299 206.335513 136.464484 209.784219 136.464484 
z
" clip-path="url(#p5108a02bb0)" style="fill: #8000ff; stroke: #000000; stroke-linejoin: miter"/>
   </g>
   <g id="patch_46">
    <path d="M 238.682031 136.464484 
C 242.130737 136.464484 245.438656 135.094299 247.877259 132.655696 
C 250.315862 130.217094 251.686047 126.909174 251.686047 123.460469 
C 251.686047 120.011763 250.315862 116.703844 247.877259 114.265241 
C 245.438656 111.826638 242.130737 110.456453 238.682031 110.456453 
C 235.233326 110.456453 231.925406 111.826638 229.486804 114.265241 
C 227.048201 116.703844 225.678016 120.011763 225.678016 123.460469 
C 225.678016 126.909174 227.048201 130.217094 229.486804 132.655696 
C 231.925406 135.094299 235.233326 136.464484 238.682031 136.464484 
z
" clip-path="url(#p5108a02bb0)" style="fill: #8000ff; stroke: #000000; stroke-linejoin: miter"/>
   </g>
   <g id="patch_47">
    <path d="M 267.579844 136.464484 
C 271.028549 136.464484 274.336469 135.094299 276.775071 132.655696 
C 279.213674 130.217094 280.583859 126.909174 280.583859 123.460469 
C 280.583859 120.011763 279.213674 116.703844 276.775071 114.265241 
C 274.336469 111.826638 271.028549 110.456453 267.579844 110.456453 
C 264.131138 110.456453 260.823219 111.826638 258.384616 114.265241 
C 255.946013 116.703844 254.575828 120.011763 254.575828 123.460469 
C 254.575828 126.909174 255.946013 130.217094 258.384616 132.655696 
C 260.823219 135.094299 264.131138 136.464484 267.579844 136.464484 
z
" clip-path="url(#p5108a02bb0)" style="fill: #8000ff; stroke: #000000; stroke-linejoin: miter"/>
   </g>
   <g id="patch_48">
    <path d="M 296.477656 136.464484 
C 299.926362 136.464484 303.234281 135.094299 305.672884 132.655696 
C 308.111487 130.217094 309.481672 126.909174 309.481672 123.460469 
C 309.481672 120.011763 308.111487 116.703844 305.672884 114.265241 
C 303.234281 111.826638 299.926362 110.456453 296.477656 110.456453 
C 293.028951 110.456453 289.721031 111.826638 287.282429 114.265241 
C 284.843826 116.703844 283.473641 120.011763 283.473641 123.460469 
C 283.473641 126.909174 284.843826 130.217094 287.282429 132.655696 
C 289.721031 135.094299 293.028951 136.464484 296.477656 136.464484 
z
" clip-path="url(#p5108a02bb0)" style="fill: #80ffb4; stroke: #000000; stroke-linejoin: miter"/>
   </g>
   <g id="patch_49">
    <path d="M 325.375469 136.464484 
C 328.824174 136.464484 332.132094 135.094299 334.570696 132.655696 
C 337.009299 130.217094 338.379484 126.909174 338.379484 123.460469 
C 338.379484 120.011763 337.009299 116.703844 334.570696 114.265241 
C 332.132094 111.826638 328.824174 110.456453 325.375469 110.456453 
C 321.926763 110.456453 318.618844 111.826638 316.180241 114.265241 
C 313.741638 116.703844 312.371453 120.011763 312.371453 123.460469 
C 312.371453 126.909174 313.741638 130.217094 316.180241 132.655696 
C 318.618844 135.094299 321.926763 136.464484 325.375469 136.464484 
z
" clip-path="url(#p5108a02bb0)" style="fill: #80ffb4; stroke: #000000; stroke-linejoin: miter"/>
   </g>
   <g id="patch_50">
    <path d="M 354.273281 136.464484 
C 357.721987 136.464484 361.029906 135.094299 363.468509 132.655696 
C 365.907112 130.217094 367.277297 126.909174 367.277297 123.460469 
C 367.277297 120.011763 365.907112 116.703844 363.468509 114.265241 
C 361.029906 111.826638 357.721987 110.456453 354.273281 110.456453 
C 350.824576 110.456453 347.516656 111.826638 345.078054 114.265241 
C 342.639451 116.703844 341.269266 120.011763 341.269266 123.460469 
C 341.269266 126.909174 342.639451 130.217094 345.078054 132.655696 
C 347.516656 135.094299 350.824576 136.464484 354.273281 136.464484 
z
" clip-path="url(#p5108a02bb0)" style="fill: #80ffb4; stroke: #000000; stroke-linejoin: miter"/>
   </g>
   <g id="patch_51">
    <path d="M 36.397344 165.362297 
C 39.846049 165.362297 43.153969 163.992112 45.592571 161.553509 
C 48.031174 159.114906 49.401359 155.806987 49.401359 152.358281 
C 49.401359 148.909576 48.031174 145.601656 45.592571 143.163054 
C 43.153969 140.724451 39.846049 139.354266 36.397344 139.354266 
C 32.948638 139.354266 29.640719 140.724451 27.202116 143.163054 
C 24.763513 145.601656 23.393328 148.909576 23.393328 152.358281 
C 23.393328 155.806987 24.763513 159.114906 27.202116 161.553509 
C 29.640719 163.992112 32.948638 165.362297 36.397344 165.362297 
z
" clip-path="url(#p5108a02bb0)" style="fill: #8000ff; stroke: #000000; stroke-linejoin: miter"/>
   </g>
   <g id="patch_52">
    <path d="M 65.295156 165.362297 
C 68.743862 165.362297 72.051781 163.992112 74.490384 161.553509 
C 76.928987 159.114906 78.299172 155.806987 78.299172 152.358281 
C 78.299172 148.909576 76.928987 145.601656 74.490384 143.163054 
C 72.051781 140.724451 68.743862 139.354266 65.295156 139.354266 
C 61.846451 139.354266 58.538531 140.724451 56.099929 143.163054 
C 53.661326 145.601656 52.291141 148.909576 52.291141 152.358281 
C 52.291141 155.806987 53.661326 159.114906 56.099929 161.553509 
C 58.538531 163.992112 61.846451 165.362297 65.295156 165.362297 
z
" clip-path="url(#p5108a02bb0)" style="fill: #8000ff; stroke: #000000; stroke-linejoin: miter"/>
   </g>
   <g id="patch_53">
    <path d="M 94.192969 165.362297 
C 97.641674 165.362297 100.949594 163.992112 103.388196 161.553509 
C 105.826799 159.114906 107.196984 155.806987 107.196984 152.358281 
C 107.196984 148.909576 105.826799 145.601656 103.388196 143.163054 
C 100.949594 140.724451 97.641674 139.354266 94.192969 139.354266 
C 90.744263 139.354266 87.436344 140.724451 84.997741 143.163054 
C 82.559138 145.601656 81.188953 148.909576 81.188953 152.358281 
C 81.188953 155.806987 82.559138 159.114906 84.997741 161.553509 
C 87.436344 163.992112 90.744263 165.362297 94.192969 165.362297 
z
" clip-path="url(#p5108a02bb0)" style="fill: #8000ff; stroke: #000000; stroke-linejoin: miter"/>
   </g>
   <g id="patch_54">
    <path d="M 123.090781 165.362297 
C 126.539487 165.362297 129.847406 163.992112 132.286009 161.553509 
C 134.724612 159.114906 136.094797 155.806987 136.094797 152.358281 
C 136.094797 148.909576 134.724612 145.601656 132.286009 143.163054 
C 129.847406 140.724451 126.539487 139.354266 123.090781 139.354266 
C 119.642076 139.354266 116.334156 140.724451 113.895554 143.163054 
C 111.456951 145.601656 110.086766 148.909576 110.086766 152.358281 
C 110.086766 155.806987 111.456951 159.114906 113.895554 161.553509 
C 116.334156 163.992112 119.642076 165.362297 123.090781 165.362297 
z
" clip-path="url(#p5108a02bb0)" style="fill: #8000ff; stroke: #000000; stroke-linejoin: miter"/>
   </g>
   <g id="patch_55">
    <path d="M 151.988594 165.362297 
C 155.437299 165.362297 158.745219 163.992112 161.183821 161.553509 
C 163.622424 159.114906 164.992609 155.806987 164.992609 152.358281 
C 164.992609 148.909576 163.622424 145.601656 161.183821 143.163054 
C 158.745219 140.724451 155.437299 139.354266 151.988594 139.354266 
C 148.539888 139.354266 145.231969 140.724451 142.793366 143.163054 
C 140.354763 145.601656 138.984578 148.909576 138.984578 152.358281 
C 138.984578 155.806987 140.354763 159.114906 142.793366 161.553509 
C 145.231969 163.992112 148.539888 165.362297 151.988594 165.362297 
z
" clip-path="url(#p5108a02bb0)" style="fill: #8000ff; stroke: #000000; stroke-linejoin: miter"/>
   </g>
   <g id="patch_56">
    <path d="M 180.886406 165.362297 
C 184.335112 165.362297 187.643031 163.992112 190.081634 161.553509 
C 192.520237 159.114906 193.890422 155.806987 193.890422 152.358281 
C 193.890422 148.909576 192.520237 145.601656 190.081634 143.163054 
C 187.643031 140.724451 184.335112 139.354266 180.886406 139.354266 
C 177.437701 139.354266 174.129781 140.724451 171.691179 143.163054 
C 169.252576 145.601656 167.882391 148.909576 167.882391 152.358281 
C 167.882391 155.806987 169.252576 159.114906 171.691179 161.553509 
C 174.129781 163.992112 177.437701 165.362297 180.886406 165.362297 
z
" clip-path="url(#p5108a02bb0)" style="fill: #8000ff; stroke: #000000; stroke-linejoin: miter"/>
   </g>
   <g id="patch_57">
    <path d="M 209.784219 165.362297 
C 213.232924 165.362297 216.540844 163.992112 218.979446 161.553509 
C 221.418049 159.114906 222.788234 155.806987 222.788234 152.358281 
C 222.788234 148.909576 221.418049 145.601656 218.979446 143.163054 
C 216.540844 140.724451 213.232924 139.354266 209.784219 139.354266 
C 206.335513 139.354266 203.027594 140.724451 200.588991 143.163054 
C 198.150388 145.601656 196.780203 148.909576 196.780203 152.358281 
C 196.780203 155.806987 198.150388 159.114906 200.588991 161.553509 
C 203.027594 163.992112 206.335513 165.362297 209.784219 165.362297 
z
" clip-path="url(#p5108a02bb0)" style="fill: #8000ff; stroke: #000000; stroke-linejoin: miter"/>
   </g>
   <g id="patch_58">
    <path d="M 238.682031 165.362297 
C 242.130737 165.362297 245.438656 163.992112 247.877259 161.553509 
C 250.315862 159.114906 251.686047 155.806987 251.686047 152.358281 
C 251.686047 148.909576 250.315862 145.601656 247.877259 143.163054 
C 245.438656 140.724451 242.130737 139.354266 238.682031 139.354266 
C 235.233326 139.354266 231.925406 140.724451 229.486804 143.163054 
C 227.048201 145.601656 225.678016 148.909576 225.678016 152.358281 
C 225.678016 155.806987 227.048201 159.114906 229.486804 161.553509 
C 231.925406 163.992112 235.233326 165.362297 238.682031 165.362297 
z
" clip-path="url(#p5108a02bb0)" style="fill: #8000ff; stroke: #000000; stroke-linejoin: miter"/>
   </g>
   <g id="patch_59">
    <path d="M 267.579844 165.362297 
C 271.028549 165.362297 274.336469 163.992112 276.775071 161.553509 
C 279.213674 159.114906 280.583859 155.806987 280.583859 152.358281 
C 280.583859 148.909576 279.213674 145.601656 276.775071 143.163054 
C 274.336469 140.724451 271.028549 139.354266 267.579844 139.354266 
C 264.131138 139.354266 260.823219 140.724451 258.384616 143.163054 
C 255.946013 145.601656 254.575828 148.909576 254.575828 152.358281 
C 254.575828 155.806987 255.946013 159.114906 258.384616 161.553509 
C 260.823219 163.992112 264.131138 165.362297 267.579844 165.362297 
z
" clip-path="url(#p5108a02bb0)" style="fill: #8000ff; stroke: #000000; stroke-linejoin: miter"/>
   </g>
   <g id="patch_60">
    <path d="M 296.477656 165.362297 
C 299.926362 165.362297 303.234281 163.992112 305.672884 161.553509 
C 308.111487 159.114906 309.481672 155.806987 309.481672 152.358281 
C 309.481672 148.909576 308.111487 145.601656 305.672884 143.163054 
C 303.234281 140.724451 299.926362 139.354266 296.477656 139.354266 
C 293.028951 139.354266 289.721031 140.724451 287.282429 143.163054 
C 284.843826 145.601656 283.473641 148.909576 283.473641 152.358281 
C 283.473641 155.806987 284.843826 159.114906 287.282429 161.553509 
C 289.721031 163.992112 293.028951 165.362297 296.477656 165.362297 
z
" clip-path="url(#p5108a02bb0)" style="fill: #80ffb4; stroke: #000000; stroke-linejoin: miter"/>
   </g>
   <g id="patch_61">
    <path d="M 325.375469 165.362297 
C 328.824174 165.362297 332.132094 163.992112 334.570696 161.553509 
C 337.009299 159.114906 338.379484 155.806987 338.379484 152.358281 
C 338.379484 148.909576 337.009299 145.601656 334.570696 143.163054 
C 332.132094 140.724451 328.824174 139.354266 325.375469 139.354266 
C 321.926763 139.354266 318.618844 140.724451 316.180241 143.163054 
C 313.741638 145.601656 312.371453 148.909576 312.371453 152.358281 
C 312.371453 155.806987 313.741638 159.114906 316.180241 161.553509 
C 318.618844 163.992112 321.926763 165.362297 325.375469 165.362297 
z
" clip-path="url(#p5108a02bb0)" style="fill: #80ffb4; stroke: #000000; stroke-linejoin: miter"/>
   </g>
   <g id="patch_62">
    <path d="M 354.273281 165.362297 
C 357.721987 165.362297 361.029906 163.992112 363.468509 161.553509 
C 365.907112 159.114906 367.277297 155.806987 367.277297 152.358281 
C 367.277297 148.909576 365.907112 145.601656 363.468509 143.163054 
C 361.029906 140.724451 357.721987 139.354266 354.273281 139.354266 
C 350.824576 139.354266 347.516656 140.724451 345.078054 143.163054 
C 342.639451 145.601656 341.269266 148.909576 341.269266 152.358281 
C 341.269266 155.806987 342.639451 159.114906 345.078054 161.553509 
C 347.516656 163.992112 350.824576 165.362297 354.273281 165.362297 
z
" clip-path="url(#p5108a02bb0)" style="fill: #80ffb4; stroke: #000000; stroke-linejoin: miter"/>
   </g>
   <g id="patch_63">
    <path d="M 36.397344 194.260109 
C 39.846049 194.260109 43.153969 192.889924 45.592571 190.451321 
C 48.031174 188.012719 49.401359 184.704799 49.401359 181.256094 
C 49.401359 177.807388 48.031174 174.499469 45.592571 172.060866 
C 43.153969 169.622263 39.846049 168.252078 36.397344 168.252078 
C 32.948638 168.252078 29.640719 169.622263 27.202116 172.060866 
C 24.763513 174.499469 23.393328 177.807388 23.393328 181.256094 
C 23.393328 184.704799 24.763513 188.012719 27.202116 190.451321 
C 29.640719 192.889924 32.948638 194.260109 36.397344 194.260109 
z
" clip-path="url(#p5108a02bb0)" style="fill: #8000ff; stroke: #000000; stroke-linejoin: miter"/>
   </g>
   <g id="patch_64">
    <path d="M 65.295156 194.260109 
C 68.743862 194.260109 72.051781 192.889924 74.490384 190.451321 
C 76.928987 188.012719 78.299172 184.704799 78.299172 181.256094 
C 78.299172 177.807388 76.928987 174.499469 74.490384 172.060866 
C 72.051781 169.622263 68.743862 168.252078 65.295156 168.252078 
C 61.846451 168.252078 58.538531 169.622263 56.099929 172.060866 
C 53.661326 174.499469 52.291141 177.807388 52.291141 181.256094 
C 52.291141 184.704799 53.661326 188.012719 56.099929 190.451321 
C 58.538531 192.889924 61.846451 194.260109 65.295156 194.260109 
z
" clip-path="url(#p5108a02bb0)" style="fill: #8000ff; stroke: #000000; stroke-linejoin: miter"/>
   </g>
   <g id="patch_65">
    <path d="M 94.192969 194.260109 
C 97.641674 194.260109 100.949594 192.889924 103.388196 190.451321 
C 105.826799 188.012719 107.196984 184.704799 107.196984 181.256094 
C 107.196984 177.807388 105.826799 174.499469 103.388196 172.060866 
C 100.949594 169.622263 97.641674 168.252078 94.192969 168.252078 
C 90.744263 168.252078 87.436344 169.622263 84.997741 172.060866 
C 82.559138 174.499469 81.188953 177.807388 81.188953 181.256094 
C 81.188953 184.704799 82.559138 188.012719 84.997741 190.451321 
C 87.436344 192.889924 90.744263 194.260109 94.192969 194.260109 
z
" clip-path="url(#p5108a02bb0)" style="fill: #8000ff; stroke: #000000; stroke-linejoin: miter"/>
   </g>
   <g id="patch_66">
    <path d="M 123.090781 194.260109 
C 126.539487 194.260109 129.847406 192.889924 132.286009 190.451321 
C 134.724612 188.012719 136.094797 184.704799 136.094797 181.256094 
C 136.094797 177.807388 134.724612 174.499469 132.286009 172.060866 
C 129.847406 169.622263 126.539487 168.252078 123.090781 168.252078 
C 119.642076 168.252078 116.334156 169.622263 113.895554 172.060866 
C 111.456951 174.499469 110.086766 177.807388 110.086766 181.256094 
C 110.086766 184.704799 111.456951 188.012719 113.895554 190.451321 
C 116.334156 192.889924 119.642076 194.260109 123.090781 194.260109 
z
" clip-path="url(#p5108a02bb0)" style="fill: #8000ff; stroke: #000000; stroke-linejoin: miter"/>
   </g>
   <g id="patch_67">
    <path d="M 151.988594 194.260109 
C 155.437299 194.260109 158.745219 192.889924 161.183821 190.451321 
C 163.622424 188.012719 164.992609 184.704799 164.992609 181.256094 
C 164.992609 177.807388 163.622424 174.499469 161.183821 172.060866 
C 158.745219 169.622263 155.437299 168.252078 151.988594 168.252078 
C 148.539888 168.252078 145.231969 169.622263 142.793366 172.060866 
C 140.354763 174.499469 138.984578 177.807388 138.984578 181.256094 
C 138.984578 184.704799 140.354763 188.012719 142.793366 190.451321 
C 145.231969 192.889924 148.539888 194.260109 151.988594 194.260109 
z
" clip-path="url(#p5108a02bb0)" style="fill: #8000ff; stroke: #000000; stroke-linejoin: miter"/>
   </g>
   <g id="patch_68">
    <path d="M 180.886406 194.260109 
C 184.335112 194.260109 187.643031 192.889924 190.081634 190.451321 
C 192.520237 188.012719 193.890422 184.704799 193.890422 181.256094 
C 193.890422 177.807388 192.520237 174.499469 190.081634 172.060866 
C 187.643031 169.622263 184.335112 168.252078 180.886406 168.252078 
C 177.437701 168.252078 174.129781 169.622263 171.691179 172.060866 
C 169.252576 174.499469 167.882391 177.807388 167.882391 181.256094 
C 167.882391 184.704799 169.252576 188.012719 171.691179 190.451321 
C 174.129781 192.889924 177.437701 194.260109 180.886406 194.260109 
z
" clip-path="url(#p5108a02bb0)" style="fill: #8000ff; stroke: #000000; stroke-linejoin: miter"/>
   </g>
   <g id="patch_69">
    <path d="M 209.784219 194.260109 
C 213.232924 194.260109 216.540844 192.889924 218.979446 190.451321 
C 221.418049 188.012719 222.788234 184.704799 222.788234 181.256094 
C 222.788234 177.807388 221.418049 174.499469 218.979446 172.060866 
C 216.540844 169.622263 213.232924 168.252078 209.784219 168.252078 
C 206.335513 168.252078 203.027594 169.622263 200.588991 172.060866 
C 198.150388 174.499469 196.780203 177.807388 196.780203 181.256094 
C 196.780203 184.704799 198.150388 188.012719 200.588991 190.451321 
C 203.027594 192.889924 206.335513 194.260109 209.784219 194.260109 
z
" clip-path="url(#p5108a02bb0)" style="fill: #8000ff; stroke: #000000; stroke-linejoin: miter"/>
   </g>
   <g id="patch_70">
    <path d="M 238.682031 194.260109 
C 242.130737 194.260109 245.438656 192.889924 247.877259 190.451321 
C 250.315862 188.012719 251.686047 184.704799 251.686047 181.256094 
C 251.686047 177.807388 250.315862 174.499469 247.877259 172.060866 
C 245.438656 169.622263 242.130737 168.252078 238.682031 168.252078 
C 235.233326 168.252078 231.925406 169.622263 229.486804 172.060866 
C 227.048201 174.499469 225.678016 177.807388 225.678016 181.256094 
C 225.678016 184.704799 227.048201 188.012719 229.486804 190.451321 
C 231.925406 192.889924 235.233326 194.260109 238.682031 194.260109 
z
" clip-path="url(#p5108a02bb0)" style="fill: #8000ff; stroke: #000000; stroke-linejoin: miter"/>
   </g>
   <g id="patch_71">
    <path d="M 267.579844 194.260109 
C 271.028549 194.260109 274.336469 192.889924 276.775071 190.451321 
C 279.213674 188.012719 280.583859 184.704799 280.583859 181.256094 
C 280.583859 177.807388 279.213674 174.499469 276.775071 172.060866 
C 274.336469 169.622263 271.028549 168.252078 267.579844 168.252078 
C 264.131138 168.252078 260.823219 169.622263 258.384616 172.060866 
C 255.946013 174.499469 254.575828 177.807388 254.575828 181.256094 
C 254.575828 184.704799 255.946013 188.012719 258.384616 190.451321 
C 260.823219 192.889924 264.131138 194.260109 267.579844 194.260109 
z
" clip-path="url(#p5108a02bb0)" style="fill: #8000ff; stroke: #000000; stroke-linejoin: miter"/>
   </g>
   <g id="patch_72">
    <path d="M 296.477656 194.260109 
C 299.926362 194.260109 303.234281 192.889924 305.672884 190.451321 
C 308.111487 188.012719 309.481672 184.704799 309.481672 181.256094 
C 309.481672 177.807388 308.111487 174.499469 305.672884 172.060866 
C 303.234281 169.622263 299.926362 168.252078 296.477656 168.252078 
C 293.028951 168.252078 289.721031 169.622263 287.282429 172.060866 
C 284.843826 174.499469 283.473641 177.807388 283.473641 181.256094 
C 283.473641 184.704799 284.843826 188.012719 287.282429 190.451321 
C 289.721031 192.889924 293.028951 194.260109 296.477656 194.260109 
z
" clip-path="url(#p5108a02bb0)" style="fill: #80ffb4; stroke: #000000; stroke-linejoin: miter"/>
   </g>
   <g id="patch_73">
    <path d="M 325.375469 194.260109 
C 328.824174 194.260109 332.132094 192.889924 334.570696 190.451321 
C 337.009299 188.012719 338.379484 184.704799 338.379484 181.256094 
C 338.379484 177.807388 337.009299 174.499469 334.570696 172.060866 
C 332.132094 169.622263 328.824174 168.252078 325.375469 168.252078 
C 321.926763 168.252078 318.618844 169.622263 316.180241 172.060866 
C 313.741638 174.499469 312.371453 177.807388 312.371453 181.256094 
C 312.371453 184.704799 313.741638 188.012719 316.180241 190.451321 
C 318.618844 192.889924 321.926763 194.260109 325.375469 194.260109 
z
" clip-path="url(#p5108a02bb0)" style="fill: #80ffb4; stroke: #000000; stroke-linejoin: miter"/>
   </g>
   <g id="patch_74">
    <path d="M 354.273281 194.260109 
C 357.721987 194.260109 361.029906 192.889924 363.468509 190.451321 
C 365.907112 188.012719 367.277297 184.704799 367.277297 181.256094 
C 367.277297 177.807388 365.907112 174.499469 363.468509 172.060866 
C 361.029906 169.622263 357.721987 168.252078 354.273281 168.252078 
C 350.824576 168.252078 347.516656 169.622263 345.078054 172.060866 
C 342.639451 174.499469 341.269266 177.807388 341.269266 181.256094 
C 341.269266 184.704799 342.639451 188.012719 345.078054 190.451321 
C 347.516656 192.889924 350.824576 194.260109 354.273281 194.260109 
z
" clip-path="url(#p5108a02bb0)" style="fill: #80ffb4; stroke: #000000; stroke-linejoin: miter"/>
   </g>
   <g id="patch_75">
    <path d="M 36.397344 223.157922 
C 39.846049 223.157922 43.153969 221.787737 45.592571 219.349134 
C 48.031174 216.910531 49.401359 213.602612 49.401359 210.153906 
C 49.401359 206.705201 48.031174 203.397281 45.592571 200.958679 
C 43.153969 198.520076 39.846049 197.149891 36.397344 197.149891 
C 32.948638 197.149891 29.640719 198.520076 27.202116 200.958679 
C 24.763513 203.397281 23.393328 206.705201 23.393328 210.153906 
C 23.393328 213.602612 24.763513 216.910531 27.202116 219.349134 
C 29.640719 221.787737 32.948638 223.157922 36.397344 223.157922 
z
" clip-path="url(#p5108a02bb0)" style="fill: #8000ff; stroke: #000000; stroke-linejoin: miter"/>
   </g>
   <g id="patch_76">
    <path d="M 65.295156 223.157922 
C 68.743862 223.157922 72.051781 221.787737 74.490384 219.349134 
C 76.928987 216.910531 78.299172 213.602612 78.299172 210.153906 
C 78.299172 206.705201 76.928987 203.397281 74.490384 200.958679 
C 72.051781 198.520076 68.743862 197.149891 65.295156 197.149891 
C 61.846451 197.149891 58.538531 198.520076 56.099929 200.958679 
C 53.661326 203.397281 52.291141 206.705201 52.291141 210.153906 
C 52.291141 213.602612 53.661326 216.910531 56.099929 219.349134 
C 58.538531 221.787737 61.846451 223.157922 65.295156 223.157922 
z
" clip-path="url(#p5108a02bb0)" style="fill: #8000ff; stroke: #000000; stroke-linejoin: miter"/>
   </g>
   <g id="patch_77">
    <path d="M 94.192969 223.157922 
C 97.641674 223.157922 100.949594 221.787737 103.388196 219.349134 
C 105.826799 216.910531 107.196984 213.602612 107.196984 210.153906 
C 107.196984 206.705201 105.826799 203.397281 103.388196 200.958679 
C 100.949594 198.520076 97.641674 197.149891 94.192969 197.149891 
C 90.744263 197.149891 87.436344 198.520076 84.997741 200.958679 
C 82.559138 203.397281 81.188953 206.705201 81.188953 210.153906 
C 81.188953 213.602612 82.559138 216.910531 84.997741 219.349134 
C 87.436344 221.787737 90.744263 223.157922 94.192969 223.157922 
z
" clip-path="url(#p5108a02bb0)" style="fill: #8000ff; stroke: #000000; stroke-linejoin: miter"/>
   </g>
   <g id="patch_78">
    <path d="M 123.090781 223.157922 
C 126.539487 223.157922 129.847406 221.787737 132.286009 219.349134 
C 134.724612 216.910531 136.094797 213.602612 136.094797 210.153906 
C 136.094797 206.705201 134.724612 203.397281 132.286009 200.958679 
C 129.847406 198.520076 126.539487 197.149891 123.090781 197.149891 
C 119.642076 197.149891 116.334156 198.520076 113.895554 200.958679 
C 111.456951 203.397281 110.086766 206.705201 110.086766 210.153906 
C 110.086766 213.602612 111.456951 216.910531 113.895554 219.349134 
C 116.334156 221.787737 119.642076 223.157922 123.090781 223.157922 
z
" clip-path="url(#p5108a02bb0)" style="fill: #8000ff; stroke: #000000; stroke-linejoin: miter"/>
   </g>
   <g id="patch_79">
    <path d="M 151.988594 223.157922 
C 155.437299 223.157922 158.745219 221.787737 161.183821 219.349134 
C 163.622424 216.910531 164.992609 213.602612 164.992609 210.153906 
C 164.992609 206.705201 163.622424 203.397281 161.183821 200.958679 
C 158.745219 198.520076 155.437299 197.149891 151.988594 197.149891 
C 148.539888 197.149891 145.231969 198.520076 142.793366 200.958679 
C 140.354763 203.397281 138.984578 206.705201 138.984578 210.153906 
C 138.984578 213.602612 140.354763 216.910531 142.793366 219.349134 
C 145.231969 221.787737 148.539888 223.157922 151.988594 223.157922 
z
" clip-path="url(#p5108a02bb0)" style="fill: #8000ff; stroke: #000000; stroke-linejoin: miter"/>
   </g>
   <g id="patch_80">
    <path d="M 180.886406 223.157922 
C 184.335112 223.157922 187.643031 221.787737 190.081634 219.349134 
C 192.520237 216.910531 193.890422 213.602612 193.890422 210.153906 
C 193.890422 206.705201 192.520237 203.397281 190.081634 200.958679 
C 187.643031 198.520076 184.335112 197.149891 180.886406 197.149891 
C 177.437701 197.149891 174.129781 198.520076 171.691179 200.958679 
C 169.252576 203.397281 167.882391 206.705201 167.882391 210.153906 
C 167.882391 213.602612 169.252576 216.910531 171.691179 219.349134 
C 174.129781 221.787737 177.437701 223.157922 180.886406 223.157922 
z
" clip-path="url(#p5108a02bb0)" style="fill: #8000ff; stroke: #000000; stroke-linejoin: miter"/>
   </g>
   <g id="patch_81">
    <path d="M 209.784219 223.157922 
C 213.232924 223.157922 216.540844 221.787737 218.979446 219.349134 
C 221.418049 216.910531 222.788234 213.602612 222.788234 210.153906 
C 222.788234 206.705201 221.418049 203.397281 218.979446 200.958679 
C 216.540844 198.520076 213.232924 197.149891 209.784219 197.149891 
C 206.335513 197.149891 203.027594 198.520076 200.588991 200.958679 
C 198.150388 203.397281 196.780203 206.705201 196.780203 210.153906 
C 196.780203 213.602612 198.150388 216.910531 200.588991 219.349134 
C 203.027594 221.787737 206.335513 223.157922 209.784219 223.157922 
z
" clip-path="url(#p5108a02bb0)" style="fill: #8000ff; stroke: #000000; stroke-linejoin: miter"/>
   </g>
   <g id="patch_82">
    <path d="M 238.682031 223.157922 
C 242.130737 223.157922 245.438656 221.787737 247.877259 219.349134 
C 250.315862 216.910531 251.686047 213.602612 251.686047 210.153906 
C 251.686047 206.705201 250.315862 203.397281 247.877259 200.958679 
C 245.438656 198.520076 242.130737 197.149891 238.682031 197.149891 
C 235.233326 197.149891 231.925406 198.520076 229.486804 200.958679 
C 227.048201 203.397281 225.678016 206.705201 225.678016 210.153906 
C 225.678016 213.602612 227.048201 216.910531 229.486804 219.349134 
C 231.925406 221.787737 235.233326 223.157922 238.682031 223.157922 
z
" clip-path="url(#p5108a02bb0)" style="fill: #8000ff; stroke: #000000; stroke-linejoin: miter"/>
   </g>
   <g id="patch_83">
    <path d="M 267.579844 223.157922 
C 271.028549 223.157922 274.336469 221.787737 276.775071 219.349134 
C 279.213674 216.910531 280.583859 213.602612 280.583859 210.153906 
C 280.583859 206.705201 279.213674 203.397281 276.775071 200.958679 
C 274.336469 198.520076 271.028549 197.149891 267.579844 197.149891 
C 264.131138 197.149891 260.823219 198.520076 258.384616 200.958679 
C 255.946013 203.397281 254.575828 206.705201 254.575828 210.153906 
C 254.575828 213.602612 255.946013 216.910531 258.384616 219.349134 
C 260.823219 221.787737 264.131138 223.157922 267.579844 223.157922 
z
" clip-path="url(#p5108a02bb0)" style="fill: #8000ff; stroke: #000000; stroke-linejoin: miter"/>
   </g>
   <g id="patch_84">
    <path d="M 296.477656 223.157922 
C 299.926362 223.157922 303.234281 221.787737 305.672884 219.349134 
C 308.111487 216.910531 309.481672 213.602612 309.481672 210.153906 
C 309.481672 206.705201 308.111487 203.397281 305.672884 200.958679 
C 303.234281 198.520076 299.926362 197.149891 296.477656 197.149891 
C 293.028951 197.149891 289.721031 198.520076 287.282429 200.958679 
C 284.843826 203.397281 283.473641 206.705201 283.473641 210.153906 
C 283.473641 213.602612 284.843826 216.910531 287.282429 219.349134 
C 289.721031 221.787737 293.028951 223.157922 296.477656 223.157922 
z
" clip-path="url(#p5108a02bb0)" style="fill: #80ffb4; stroke: #000000; stroke-linejoin: miter"/>
   </g>
   <g id="patch_85">
    <path d="M 325.375469 223.157922 
C 328.824174 223.157922 332.132094 221.787737 334.570696 219.349134 
C 337.009299 216.910531 338.379484 213.602612 338.379484 210.153906 
C 338.379484 206.705201 337.009299 203.397281 334.570696 200.958679 
C 332.132094 198.520076 328.824174 197.149891 325.375469 197.149891 
C 321.926763 197.149891 318.618844 198.520076 316.180241 200.958679 
C 313.741638 203.397281 312.371453 206.705201 312.371453 210.153906 
C 312.371453 213.602612 313.741638 216.910531 316.180241 219.349134 
C 318.618844 221.787737 321.926763 223.157922 325.375469 223.157922 
z
" clip-path="url(#p5108a02bb0)" style="fill: #80ffb4; stroke: #000000; stroke-linejoin: miter"/>
   </g>
   <g id="patch_86">
    <path d="M 354.273281 223.157922 
C 357.721987 223.157922 361.029906 221.787737 363.468509 219.349134 
C 365.907112 216.910531 367.277297 213.602612 367.277297 210.153906 
C 367.277297 206.705201 365.907112 203.397281 363.468509 200.958679 
C 361.029906 198.520076 357.721987 197.149891 354.273281 197.149891 
C 350.824576 197.149891 347.516656 198.520076 345.078054 200.958679 
C 342.639451 203.397281 341.269266 206.705201 341.269266 210.153906 
C 341.269266 213.602612 342.639451 216.910531 345.078054 219.349134 
C 347.516656 221.787737 350.824576 223.157922 354.273281 223.157922 
z
" clip-path="url(#p5108a02bb0)" style="fill: #80ffb4; stroke: #000000; stroke-linejoin: miter"/>
   </g>
   <g id="patch_87">
    <path d="M 36.397344 252.055734 
C 39.846049 252.055734 43.153969 250.685549 45.592571 248.246946 
C 48.031174 245.808344 49.401359 242.500424 49.401359 239.051719 
C 49.401359 235.603013 48.031174 232.295094 45.592571 229.856491 
C 43.153969 227.417888 39.846049 226.047703 36.397344 226.047703 
C 32.948638 226.047703 29.640719 227.417888 27.202116 229.856491 
C 24.763513 232.295094 23.393328 235.603013 23.393328 239.051719 
C 23.393328 242.500424 24.763513 245.808344 27.202116 248.246946 
C 29.640719 250.685549 32.948638 252.055734 36.397344 252.055734 
z
" clip-path="url(#p5108a02bb0)" style="fill: #8000ff; stroke: #000000; stroke-linejoin: miter"/>
   </g>
   <g id="patch_88">
    <path d="M 65.295156 252.055734 
C 68.743862 252.055734 72.051781 250.685549 74.490384 248.246946 
C 76.928987 245.808344 78.299172 242.500424 78.299172 239.051719 
C 78.299172 235.603013 76.928987 232.295094 74.490384 229.856491 
C 72.051781 227.417888 68.743862 226.047703 65.295156 226.047703 
C 61.846451 226.047703 58.538531 227.417888 56.099929 229.856491 
C 53.661326 232.295094 52.291141 235.603013 52.291141 239.051719 
C 52.291141 242.500424 53.661326 245.808344 56.099929 248.246946 
C 58.538531 250.685549 61.846451 252.055734 65.295156 252.055734 
z
" clip-path="url(#p5108a02bb0)" style="fill: #8000ff; stroke: #000000; stroke-linejoin: miter"/>
   </g>
   <g id="patch_89">
    <path d="M 94.192969 252.055734 
C 97.641674 252.055734 100.949594 250.685549 103.388196 248.246946 
C 105.826799 245.808344 107.196984 242.500424 107.196984 239.051719 
C 107.196984 235.603013 105.826799 232.295094 103.388196 229.856491 
C 100.949594 227.417888 97.641674 226.047703 94.192969 226.047703 
C 90.744263 226.047703 87.436344 227.417888 84.997741 229.856491 
C 82.559138 232.295094 81.188953 235.603013 81.188953 239.051719 
C 81.188953 242.500424 82.559138 245.808344 84.997741 248.246946 
C 87.436344 250.685549 90.744263 252.055734 94.192969 252.055734 
z
" clip-path="url(#p5108a02bb0)" style="fill: #8000ff; stroke: #000000; stroke-linejoin: miter"/>
   </g>
   <g id="patch_90">
    <path d="M 123.090781 252.055734 
C 126.539487 252.055734 129.847406 250.685549 132.286009 248.246946 
C 134.724612 245.808344 136.094797 242.500424 136.094797 239.051719 
C 136.094797 235.603013 134.724612 232.295094 132.286009 229.856491 
C 129.847406 227.417888 126.539487 226.047703 123.090781 226.047703 
C 119.642076 226.047703 116.334156 227.417888 113.895554 229.856491 
C 111.456951 232.295094 110.086766 235.603013 110.086766 239.051719 
C 110.086766 242.500424 111.456951 245.808344 113.895554 248.246946 
C 116.334156 250.685549 119.642076 252.055734 123.090781 252.055734 
z
" clip-path="url(#p5108a02bb0)" style="fill: #8000ff; stroke: #000000; stroke-linejoin: miter"/>
   </g>
   <g id="patch_91">
    <path d="M 151.988594 252.055734 
C 155.437299 252.055734 158.745219 250.685549 161.183821 248.246946 
C 163.622424 245.808344 164.992609 242.500424 164.992609 239.051719 
C 164.992609 235.603013 163.622424 232.295094 161.183821 229.856491 
C 158.745219 227.417888 155.437299 226.047703 151.988594 226.047703 
C 148.539888 226.047703 145.231969 227.417888 142.793366 229.856491 
C 140.354763 232.295094 138.984578 235.603013 138.984578 239.051719 
C 138.984578 242.500424 140.354763 245.808344 142.793366 248.246946 
C 145.231969 250.685549 148.539888 252.055734 151.988594 252.055734 
z
" clip-path="url(#p5108a02bb0)" style="fill: #8000ff; stroke: #000000; stroke-linejoin: miter"/>
   </g>
   <g id="patch_92">
    <path d="M 180.886406 252.055734 
C 184.335112 252.055734 187.643031 250.685549 190.081634 248.246946 
C 192.520237 245.808344 193.890422 242.500424 193.890422 239.051719 
C 193.890422 235.603013 192.520237 232.295094 190.081634 229.856491 
C 187.643031 227.417888 184.335112 226.047703 180.886406 226.047703 
C 177.437701 226.047703 174.129781 227.417888 171.691179 229.856491 
C 169.252576 232.295094 167.882391 235.603013 167.882391 239.051719 
C 167.882391 242.500424 169.252576 245.808344 171.691179 248.246946 
C 174.129781 250.685549 177.437701 252.055734 180.886406 252.055734 
z
" clip-path="url(#p5108a02bb0)" style="fill: #8000ff; stroke: #000000; stroke-linejoin: miter"/>
   </g>
   <g id="patch_93">
    <path d="M 209.784219 252.055734 
C 213.232924 252.055734 216.540844 250.685549 218.979446 248.246946 
C 221.418049 245.808344 222.788234 242.500424 222.788234 239.051719 
C 222.788234 235.603013 221.418049 232.295094 218.979446 229.856491 
C 216.540844 227.417888 213.232924 226.047703 209.784219 226.047703 
C 206.335513 226.047703 203.027594 227.417888 200.588991 229.856491 
C 198.150388 232.295094 196.780203 235.603013 196.780203 239.051719 
C 196.780203 242.500424 198.150388 245.808344 200.588991 248.246946 
C 203.027594 250.685549 206.335513 252.055734 209.784219 252.055734 
z
" clip-path="url(#p5108a02bb0)" style="fill: #8000ff; stroke: #000000; stroke-linejoin: miter"/>
   </g>
   <g id="patch_94">
    <path d="M 238.682031 252.055734 
C 242.130737 252.055734 245.438656 250.685549 247.877259 248.246946 
C 250.315862 245.808344 251.686047 242.500424 251.686047 239.051719 
C 251.686047 235.603013 250.315862 232.295094 247.877259 229.856491 
C 245.438656 227.417888 242.130737 226.047703 238.682031 226.047703 
C 235.233326 226.047703 231.925406 227.417888 229.486804 229.856491 
C 227.048201 232.295094 225.678016 235.603013 225.678016 239.051719 
C 225.678016 242.500424 227.048201 245.808344 229.486804 248.246946 
C 231.925406 250.685549 235.233326 252.055734 238.682031 252.055734 
z
" clip-path="url(#p5108a02bb0)" style="fill: #8000ff; stroke: #000000; stroke-linejoin: miter"/>
   </g>
   <g id="patch_95">
    <path d="M 267.579844 252.055734 
C 271.028549 252.055734 274.336469 250.685549 276.775071 248.246946 
C 279.213674 245.808344 280.583859 242.500424 280.583859 239.051719 
C 280.583859 235.603013 279.213674 232.295094 276.775071 229.856491 
C 274.336469 227.417888 271.028549 226.047703 267.579844 226.047703 
C 264.131138 226.047703 260.823219 227.417888 258.384616 229.856491 
C 255.946013 232.295094 254.575828 235.603013 254.575828 239.051719 
C 254.575828 242.500424 255.946013 245.808344 258.384616 248.246946 
C 260.823219 250.685549 264.131138 252.055734 267.579844 252.055734 
z
" clip-path="url(#p5108a02bb0)" style="fill: #8000ff; stroke: #000000; stroke-linejoin: miter"/>
   </g>
   <g id="patch_96">
    <path d="M 296.477656 252.055734 
C 299.926362 252.055734 303.234281 250.685549 305.672884 248.246946 
C 308.111487 245.808344 309.481672 242.500424 309.481672 239.051719 
C 309.481672 235.603013 308.111487 232.295094 305.672884 229.856491 
C 303.234281 227.417888 299.926362 226.047703 296.477656 226.047703 
C 293.028951 226.047703 289.721031 227.417888 287.282429 229.856491 
C 284.843826 232.295094 283.473641 235.603013 283.473641 239.051719 
C 283.473641 242.500424 284.843826 245.808344 287.282429 248.246946 
C 289.721031 250.685549 293.028951 252.055734 296.477656 252.055734 
z
" clip-path="url(#p5108a02bb0)" style="fill: #80ffb4; stroke: #000000; stroke-linejoin: miter"/>
   </g>
   <g id="patch_97">
    <path d="M 325.375469 252.055734 
C 328.824174 252.055734 332.132094 250.685549 334.570696 248.246946 
C 337.009299 245.808344 338.379484 242.500424 338.379484 239.051719 
C 338.379484 235.603013 337.009299 232.295094 334.570696 229.856491 
C 332.132094 227.417888 328.824174 226.047703 325.375469 226.047703 
C 321.926763 226.047703 318.618844 227.417888 316.180241 229.856491 
C 313.741638 232.295094 312.371453 235.603013 312.371453 239.051719 
C 312.371453 242.500424 313.741638 245.808344 316.180241 248.246946 
C 318.618844 250.685549 321.926763 252.055734 325.375469 252.055734 
z
" clip-path="url(#p5108a02bb0)" style="fill: #80ffb4; stroke: #000000; stroke-linejoin: miter"/>
   </g>
   <g id="patch_98">
    <path d="M 354.273281 252.055734 
C 357.721987 252.055734 361.029906 250.685549 363.468509 248.246946 
C 365.907112 245.808344 367.277297 242.500424 367.277297 239.051719 
C 367.277297 235.603013 365.907112 232.295094 363.468509 229.856491 
C 361.029906 227.417888 357.721987 226.047703 354.273281 226.047703 
C 350.824576 226.047703 347.516656 227.417888 345.078054 229.856491 
C 342.639451 232.295094 341.269266 235.603013 341.269266 239.051719 
C 341.269266 242.500424 342.639451 245.808344 345.078054 248.246946 
C 347.516656 250.685549 350.824576 252.055734 354.273281 252.055734 
z
" clip-path="url(#p5108a02bb0)" style="fill: #80ffb4; stroke: #000000; stroke-linejoin: miter"/>
   </g>
   <g id="matplotlib.axis_1">
    <g id="xtick_1">
     <g id="line2d_1">
      <defs>
       <path id="md1a846dbad" d="M 0 0 
L 0 3.5 
" style="stroke: #000000; stroke-width: 0.8"/>
      </defs>
      <g>
       <use xlink:href="#md1a846dbad" x="36.397344" y="253.500625" style="stroke: #000000; stroke-width: 0.8"/>
      </g>
     </g>
     <g id="text_1">
      <!-- 1 -->
      <g transform="translate(33.216094 268.098281) scale(0.1 -0.1)">
       <defs>
        <path id="DejaVuSans-14" d="M 794 531 
L 1825 531 
L 1825 4091 
L 703 3866 
L 703 4441 
L 1819 4666 
L 2450 4666 
L 2450 531 
L 3481 531 
L 3481 0 
L 794 0 
L 794 531 
z
" transform="scale(0.015625)"/>
       </defs>
       <use xlink:href="#DejaVuSans-14"/>
      </g>
     </g>
    </g>
    <g id="xtick_2">
     <g id="line2d_2">
      <g>
       <use xlink:href="#md1a846dbad" x="65.295156" y="253.500625" style="stroke: #000000; stroke-width: 0.8"/>
      </g>
     </g>
     <g id="text_2">
      <!-- 2 -->
      <g transform="translate(62.113906 268.098281) scale(0.1 -0.1)">
       <defs>
        <path id="DejaVuSans-15" d="M 1228 531 
L 3431 531 
L 3431 0 
L 469 0 
L 469 531 
Q 828 903 1448 1529 
Q 2069 2156 2228 2338 
Q 2531 2678 2651 2914 
Q 2772 3150 2772 3378 
Q 2772 3750 2511 3984 
Q 2250 4219 1831 4219 
Q 1534 4219 1204 4116 
Q 875 4013 500 3803 
L 500 4441 
Q 881 4594 1212 4672 
Q 1544 4750 1819 4750 
Q 2544 4750 2975 4387 
Q 3406 4025 3406 3419 
Q 3406 3131 3298 2873 
Q 3191 2616 2906 2266 
Q 2828 2175 2409 1742 
Q 1991 1309 1228 531 
z
" transform="scale(0.015625)"/>
       </defs>
       <use xlink:href="#DejaVuSans-15"/>
      </g>
     </g>
    </g>
    <g id="xtick_3">
     <g id="line2d_3">
      <g>
       <use xlink:href="#md1a846dbad" x="94.192969" y="253.500625" style="stroke: #000000; stroke-width: 0.8"/>
      </g>
     </g>
     <g id="text_3">
      <!-- 3 -->
      <g transform="translate(91.011719 268.098281) scale(0.1 -0.1)">
       <defs>
        <path id="DejaVuSans-16" d="M 2597 2516 
Q 3050 2419 3304 2112 
Q 3559 1806 3559 1356 
Q 3559 666 3084 287 
Q 2609 -91 1734 -91 
Q 1441 -91 1130 -33 
Q 819 25 488 141 
L 488 750 
Q 750 597 1062 519 
Q 1375 441 1716 441 
Q 2309 441 2620 675 
Q 2931 909 2931 1356 
Q 2931 1769 2642 2001 
Q 2353 2234 1838 2234 
L 1294 2234 
L 1294 2753 
L 1863 2753 
Q 2328 2753 2575 2939 
Q 2822 3125 2822 3475 
Q 2822 3834 2567 4026 
Q 2313 4219 1838 4219 
Q 1578 4219 1281 4162 
Q 984 4106 628 3988 
L 628 4550 
Q 988 4650 1302 4700 
Q 1616 4750 1894 4750 
Q 2613 4750 3031 4423 
Q 3450 4097 3450 3541 
Q 3450 3153 3228 2886 
Q 3006 2619 2597 2516 
z
" transform="scale(0.015625)"/>
       </defs>
       <use xlink:href="#DejaVuSans-16"/>
      </g>
     </g>
    </g>
    <g id="xtick_4">
     <g id="line2d_4">
      <g>
       <use xlink:href="#md1a846dbad" x="123.090781" y="253.500625" style="stroke: #000000; stroke-width: 0.8"/>
      </g>
     </g>
     <g id="text_4">
      <!-- 4 -->
      <g transform="translate(119.909531 268.098281) scale(0.1 -0.1)">
       <defs>
        <path id="DejaVuSans-17" d="M 2419 4116 
L 825 1625 
L 2419 1625 
L 2419 4116 
z
M 2253 4666 
L 3047 4666 
L 3047 1625 
L 3713 1625 
L 3713 1100 
L 3047 1100 
L 3047 0 
L 2419 0 
L 2419 1100 
L 313 1100 
L 313 1709 
L 2253 4666 
z
" transform="scale(0.015625)"/>
       </defs>
       <use xlink:href="#DejaVuSans-17"/>
      </g>
     </g>
    </g>
    <g id="xtick_5">
     <g id="line2d_5">
      <g>
       <use xlink:href="#md1a846dbad" x="151.988594" y="253.500625" style="stroke: #000000; stroke-width: 0.8"/>
      </g>
     </g>
     <g id="text_5">
      <!-- 5 -->
      <g transform="translate(148.807344 268.098281) scale(0.1 -0.1)">
       <defs>
        <path id="DejaVuSans-18" d="M 691 4666 
L 3169 4666 
L 3169 4134 
L 1269 4134 
L 1269 2991 
Q 1406 3038 1543 3061 
Q 1681 3084 1819 3084 
Q 2600 3084 3056 2656 
Q 3513 2228 3513 1497 
Q 3513 744 3044 326 
Q 2575 -91 1722 -91 
Q 1428 -91 1123 -41 
Q 819 9 494 109 
L 494 744 
Q 775 591 1075 516 
Q 1375 441 1709 441 
Q 2250 441 2565 725 
Q 2881 1009 2881 1497 
Q 2881 1984 2565 2268 
Q 2250 2553 1709 2553 
Q 1456 2553 1204 2497 
Q 953 2441 691 2322 
L 691 4666 
z
" transform="scale(0.015625)"/>
       </defs>
       <use xlink:href="#DejaVuSans-18"/>
      </g>
     </g>
    </g>
    <g id="xtick_6">
     <g id="line2d_6">
      <g>
       <use xlink:href="#md1a846dbad" x="180.886406" y="253.500625" style="stroke: #000000; stroke-width: 0.8"/>
      </g>
     </g>
     <g id="text_6">
      <!-- 6 -->
      <g transform="translate(177.705156 268.098281) scale(0.1 -0.1)">
       <defs>
        <path id="DejaVuSans-19" d="M 2113 2584 
Q 1688 2584 1439 2293 
Q 1191 2003 1191 1497 
Q 1191 994 1439 701 
Q 1688 409 2113 409 
Q 2538 409 2786 701 
Q 3034 994 3034 1497 
Q 3034 2003 2786 2293 
Q 2538 2584 2113 2584 
z
M 3366 4563 
L 3366 3988 
Q 3128 4100 2886 4159 
Q 2644 4219 2406 4219 
Q 1781 4219 1451 3797 
Q 1122 3375 1075 2522 
Q 1259 2794 1537 2939 
Q 1816 3084 2150 3084 
Q 2853 3084 3261 2657 
Q 3669 2231 3669 1497 
Q 3669 778 3244 343 
Q 2819 -91 2113 -91 
Q 1303 -91 875 529 
Q 447 1150 447 2328 
Q 447 3434 972 4092 
Q 1497 4750 2381 4750 
Q 2619 4750 2861 4703 
Q 3103 4656 3366 4563 
z
" transform="scale(0.015625)"/>
       </defs>
       <use xlink:href="#DejaVuSans-19"/>
      </g>
     </g>
    </g>
    <g id="xtick_7">
     <g id="line2d_7">
      <g>
       <use xlink:href="#md1a846dbad" x="209.784219" y="253.500625" style="stroke: #000000; stroke-width: 0.8"/>
      </g>
     </g>
     <g id="text_7">
      <!-- 7 -->
      <g transform="translate(206.602969 268.098281) scale(0.1 -0.1)">
       <defs>
        <path id="DejaVuSans-1a" d="M 525 4666 
L 3525 4666 
L 3525 4397 
L 1831 0 
L 1172 0 
L 2766 4134 
L 525 4134 
L 525 4666 
z
" transform="scale(0.015625)"/>
       </defs>
       <use xlink:href="#DejaVuSans-1a"/>
      </g>
     </g>
    </g>
    <g id="xtick_8">
     <g id="line2d_8">
      <g>
       <use xlink:href="#md1a846dbad" x="238.682031" y="253.500625" style="stroke: #000000; stroke-width: 0.8"/>
      </g>
     </g>
     <g id="text_8">
      <!-- 8 -->
      <g transform="translate(235.500781 268.098281) scale(0.1 -0.1)">
       <defs>
        <path id="DejaVuSans-1b" d="M 2034 2216 
Q 1584 2216 1326 1975 
Q 1069 1734 1069 1313 
Q 1069 891 1326 650 
Q 1584 409 2034 409 
Q 2484 409 2743 651 
Q 3003 894 3003 1313 
Q 3003 1734 2745 1975 
Q 2488 2216 2034 2216 
z
M 1403 2484 
Q 997 2584 770 2862 
Q 544 3141 544 3541 
Q 544 4100 942 4425 
Q 1341 4750 2034 4750 
Q 2731 4750 3128 4425 
Q 3525 4100 3525 3541 
Q 3525 3141 3298 2862 
Q 3072 2584 2669 2484 
Q 3125 2378 3379 2068 
Q 3634 1759 3634 1313 
Q 3634 634 3220 271 
Q 2806 -91 2034 -91 
Q 1263 -91 848 271 
Q 434 634 434 1313 
Q 434 1759 690 2068 
Q 947 2378 1403 2484 
z
M 1172 3481 
Q 1172 3119 1398 2916 
Q 1625 2713 2034 2713 
Q 2441 2713 2670 2916 
Q 2900 3119 2900 3481 
Q 2900 3844 2670 4047 
Q 2441 4250 2034 4250 
Q 1625 4250 1398 4047 
Q 1172 3844 1172 3481 
z
" transform="scale(0.015625)"/>
       </defs>
       <use xlink:href="#DejaVuSans-1b"/>
      </g>
     </g>
    </g>
    <g id="xtick_9">
     <g id="line2d_9">
      <g>
       <use xlink:href="#md1a846dbad" x="267.579844" y="253.500625" style="stroke: #000000; stroke-width: 0.8"/>
      </g>
     </g>
     <g id="text_9">
      <!-- 9 -->
      <g transform="translate(264.398594 268.098281) scale(0.1 -0.1)">
       <defs>
        <path id="DejaVuSans-1c" d="M 703 97 
L 703 672 
Q 941 559 1184 500 
Q 1428 441 1663 441 
Q 2288 441 2617 861 
Q 2947 1281 2994 2138 
Q 2813 1869 2534 1725 
Q 2256 1581 1919 1581 
Q 1219 1581 811 2004 
Q 403 2428 403 3163 
Q 403 3881 828 4315 
Q 1253 4750 1959 4750 
Q 2769 4750 3195 4129 
Q 3622 3509 3622 2328 
Q 3622 1225 3098 567 
Q 2575 -91 1691 -91 
Q 1453 -91 1209 -44 
Q 966 3 703 97 
z
M 1959 2075 
Q 2384 2075 2632 2365 
Q 2881 2656 2881 3163 
Q 2881 3666 2632 3958 
Q 2384 4250 1959 4250 
Q 1534 4250 1286 3958 
Q 1038 3666 1038 3163 
Q 1038 2656 1286 2365 
Q 1534 2075 1959 2075 
z
" transform="scale(0.015625)"/>
       </defs>
       <use xlink:href="#DejaVuSans-1c"/>
      </g>
     </g>
    </g>
    <g id="xtick_10">
     <g id="line2d_10">
      <g>
       <use xlink:href="#md1a846dbad" x="296.477656" y="253.500625" style="stroke: #000000; stroke-width: 0.8"/>
      </g>
     </g>
     <g id="text_10">
      <!-- 10 -->
      <g transform="translate(290.115156 268.098281) scale(0.1 -0.1)">
       <defs>
        <path id="DejaVuSans-13" d="M 2034 4250 
Q 1547 4250 1301 3770 
Q 1056 3291 1056 2328 
Q 1056 1369 1301 889 
Q 1547 409 2034 409 
Q 2525 409 2770 889 
Q 3016 1369 3016 2328 
Q 3016 3291 2770 3770 
Q 2525 4250 2034 4250 
z
M 2034 4750 
Q 2819 4750 3233 4129 
Q 3647 3509 3647 2328 
Q 3647 1150 3233 529 
Q 2819 -91 2034 -91 
Q 1250 -91 836 529 
Q 422 1150 422 2328 
Q 422 3509 836 4129 
Q 1250 4750 2034 4750 
z
" transform="scale(0.015625)"/>
       </defs>
       <use xlink:href="#DejaVuSans-14"/>
       <use xlink:href="#DejaVuSans-13" transform="translate(63.625 0)"/>
      </g>
     </g>
    </g>
    <g id="xtick_11">
     <g id="line2d_11">
      <g>
       <use xlink:href="#md1a846dbad" x="325.375469" y="253.500625" style="stroke: #000000; stroke-width: 0.8"/>
      </g>
     </g>
     <g id="text_11">
      <!-- 11 -->
      <g transform="translate(319.012969 268.098281) scale(0.1 -0.1)">
       <use xlink:href="#DejaVuSans-14"/>
       <use xlink:href="#DejaVuSans-14" transform="translate(63.625 0)"/>
      </g>
     </g>
    </g>
    <g id="xtick_12">
     <g id="line2d_12">
      <g>
       <use xlink:href="#md1a846dbad" x="354.273281" y="253.500625" style="stroke: #000000; stroke-width: 0.8"/>
      </g>
     </g>
     <g id="text_12">
      <!-- 12 -->
      <g transform="translate(347.910781 268.098281) scale(0.1 -0.1)">
       <use xlink:href="#DejaVuSans-14"/>
       <use xlink:href="#DejaVuSans-15" transform="translate(63.625 0)"/>
      </g>
     </g>
    </g>
   </g>
   <g id="matplotlib.axis_2">
    <g id="ytick_1">
     <g id="line2d_13">
      <defs>
       <path id="mce97e569c5" d="M 0 0 
L -3.5 0 
" style="stroke: #000000; stroke-width: 0.8"/>
      </defs>
      <g>
       <use xlink:href="#mce97e569c5" x="21.948438" y="36.767031" style="stroke: #000000; stroke-width: 0.8"/>
      </g>
     </g>
     <g id="text_13">
      <!-- A -->
      <g transform="translate(8.107813 40.565859) scale(0.1 -0.1)">
       <defs>
        <path id="DejaVuSans-24" d="M 2188 4044 
L 1331 1722 
L 3047 1722 
L 2188 4044 
z
M 1831 4666 
L 2547 4666 
L 4325 0 
L 3669 0 
L 3244 1197 
L 1141 1197 
L 716 0 
L 50 0 
L 1831 4666 
z
" transform="scale(0.015625)"/>
       </defs>
       <use xlink:href="#DejaVuSans-24"/>
      </g>
     </g>
    </g>
    <g id="ytick_2">
     <g id="line2d_14">
      <g>
       <use xlink:href="#mce97e569c5" x="21.948438" y="65.664844" style="stroke: #000000; stroke-width: 0.8"/>
      </g>
     </g>
     <g id="text_14">
      <!-- B -->
      <g transform="translate(8.0875 69.463672) scale(0.1 -0.1)">
       <defs>
        <path id="DejaVuSans-25" d="M 1259 2228 
L 1259 519 
L 2272 519 
Q 2781 519 3026 730 
Q 3272 941 3272 1375 
Q 3272 1813 3026 2020 
Q 2781 2228 2272 2228 
L 1259 2228 
z
M 1259 4147 
L 1259 2741 
L 2194 2741 
Q 2656 2741 2882 2914 
Q 3109 3088 3109 3444 
Q 3109 3797 2882 3972 
Q 2656 4147 2194 4147 
L 1259 4147 
z
M 628 4666 
L 2241 4666 
Q 2963 4666 3353 4366 
Q 3744 4066 3744 3513 
Q 3744 3084 3544 2831 
Q 3344 2578 2956 2516 
Q 3422 2416 3680 2098 
Q 3938 1781 3938 1306 
Q 3938 681 3513 340 
Q 3088 0 2303 0 
L 628 0 
L 628 4666 
z
" transform="scale(0.015625)"/>
       </defs>
       <use xlink:href="#DejaVuSans-25"/>
      </g>
     </g>
    </g>
    <g id="ytick_3">
     <g id="line2d_15">
      <g>
       <use xlink:href="#mce97e569c5" x="21.948438" y="94.562656" style="stroke: #000000; stroke-width: 0.8"/>
      </g>
     </g>
     <g id="text_15">
      <!-- C -->
      <g transform="translate(7.965625 98.361484) scale(0.1 -0.1)">
       <defs>
        <path id="DejaVuSans-26" d="M 4122 4306 
L 4122 3641 
Q 3803 3938 3442 4084 
Q 3081 4231 2675 4231 
Q 1875 4231 1450 3742 
Q 1025 3253 1025 2328 
Q 1025 1406 1450 917 
Q 1875 428 2675 428 
Q 3081 428 3442 575 
Q 3803 722 4122 1019 
L 4122 359 
Q 3791 134 3420 21 
Q 3050 -91 2638 -91 
Q 1578 -91 968 557 
Q 359 1206 359 2328 
Q 359 3453 968 4101 
Q 1578 4750 2638 4750 
Q 3056 4750 3426 4639 
Q 3797 4528 4122 4306 
z
" transform="scale(0.015625)"/>
       </defs>
       <use xlink:href="#DejaVuSans-26"/>
      </g>
     </g>
    </g>
    <g id="ytick_4">
     <g id="line2d_16">
      <g>
       <use xlink:href="#mce97e569c5" x="21.948438" y="123.460469" style="stroke: #000000; stroke-width: 0.8"/>
      </g>
     </g>
     <g id="text_16">
      <!-- D -->
      <g transform="translate(7.248438 127.259297) scale(0.1 -0.1)">
       <defs>
        <path id="DejaVuSans-27" d="M 1259 4147 
L 1259 519 
L 2022 519 
Q 2988 519 3436 956 
Q 3884 1394 3884 2338 
Q 3884 3275 3436 3711 
Q 2988 4147 2022 4147 
L 1259 4147 
z
M 628 4666 
L 1925 4666 
Q 3281 4666 3915 4102 
Q 4550 3538 4550 2338 
Q 4550 1131 3912 565 
Q 3275 0 1925 0 
L 628 0 
L 628 4666 
z
" transform="scale(0.015625)"/>
       </defs>
       <use xlink:href="#DejaVuSans-27"/>
      </g>
     </g>
    </g>
    <g id="ytick_5">
     <g id="line2d_17">
      <g>
       <use xlink:href="#mce97e569c5" x="21.948438" y="152.358281" style="stroke: #000000; stroke-width: 0.8"/>
      </g>
     </g>
     <g id="text_17">
      <!-- E -->
      <g transform="translate(8.629688 156.157109) scale(0.1 -0.1)">
       <defs>
        <path id="DejaVuSans-28" d="M 628 4666 
L 3578 4666 
L 3578 4134 
L 1259 4134 
L 1259 2753 
L 3481 2753 
L 3481 2222 
L 1259 2222 
L 1259 531 
L 3634 531 
L 3634 0 
L 628 0 
L 628 4666 
z
" transform="scale(0.015625)"/>
       </defs>
       <use xlink:href="#DejaVuSans-28"/>
      </g>
     </g>
    </g>
    <g id="ytick_6">
     <g id="line2d_18">
      <g>
       <use xlink:href="#mce97e569c5" x="21.948438" y="181.256094" style="stroke: #000000; stroke-width: 0.8"/>
      </g>
     </g>
     <g id="text_18">
      <!-- F -->
      <g transform="translate(9.196875 185.054922) scale(0.1 -0.1)">
       <defs>
        <path id="DejaVuSans-29" d="M 628 4666 
L 3309 4666 
L 3309 4134 
L 1259 4134 
L 1259 2759 
L 3109 2759 
L 3109 2228 
L 1259 2228 
L 1259 0 
L 628 0 
L 628 4666 
z
" transform="scale(0.015625)"/>
       </defs>
       <use xlink:href="#DejaVuSans-29"/>
      </g>
     </g>
    </g>
    <g id="ytick_7">
     <g id="line2d_19">
      <g>
       <use xlink:href="#mce97e569c5" x="21.948438" y="210.153906" style="stroke: #000000; stroke-width: 0.8"/>
      </g>
     </g>
     <g id="text_19">
      <!-- G -->
      <g transform="translate(7.2 213.952734) scale(0.1 -0.1)">
       <defs>
        <path id="DejaVuSans-2a" d="M 3809 666 
L 3809 1919 
L 2778 1919 
L 2778 2438 
L 4434 2438 
L 4434 434 
Q 4069 175 3628 42 
Q 3188 -91 2688 -91 
Q 1594 -91 976 548 
Q 359 1188 359 2328 
Q 359 3472 976 4111 
Q 1594 4750 2688 4750 
Q 3144 4750 3555 4637 
Q 3966 4525 4313 4306 
L 4313 3634 
Q 3963 3931 3569 4081 
Q 3175 4231 2741 4231 
Q 1884 4231 1454 3753 
Q 1025 3275 1025 2328 
Q 1025 1384 1454 906 
Q 1884 428 2741 428 
Q 3075 428 3337 486 
Q 3600 544 3809 666 
z
" transform="scale(0.015625)"/>
       </defs>
       <use xlink:href="#DejaVuSans-2a"/>
      </g>
     </g>
    </g>
    <g id="ytick_8">
     <g id="line2d_20">
      <g>
       <use xlink:href="#mce97e569c5" x="21.948438" y="239.051719" style="stroke: #000000; stroke-width: 0.8"/>
      </g>
     </g>
     <g id="text_20">
      <!-- H -->
      <g transform="translate(7.428125 242.850547) scale(0.1 -0.1)">
       <defs>
        <path id="DejaVuSans-2b" d="M 628 4666 
L 1259 4666 
L 1259 2753 
L 3553 2753 
L 3553 4666 
L 4184 4666 
L 4184 0 
L 3553 0 
L 3553 2222 
L 1259 2222 
L 1259 0 
L 628 0 
L 628 4666 
z
" transform="scale(0.015625)"/>
       </defs>
       <use xlink:href="#DejaVuSans-2b"/>
      </g>
     </g>
    </g>
   </g>
   <g id="patch_99">
    <path d="M 21.948438 253.500625 
L 21.948438 22.318125 
" style="fill: none; stroke: #000000; stroke-width: 0.8; stroke-linejoin: miter; stroke-linecap: square"/>
   </g>
   <g id="patch_100">
    <path d="M 368.722187 253.500625 
L 368.722187 22.318125 
" style="fill: none; stroke: #000000; stroke-width: 0.8; stroke-linejoin: miter; stroke-linecap: square"/>
   </g>
   <g id="patch_101">
    <path d="M 21.948438 253.500625 
L 368.722187 253.500625 
" style="fill: none; stroke: #000000; stroke-width: 0.8; stroke-linejoin: miter; stroke-linecap: square"/>
   </g>
   <g id="patch_102">
    <path d="M 21.948438 22.318125 
L 368.722187 22.318125 
" style="fill: none; stroke: #000000; stroke-width: 0.8; stroke-linejoin: miter; stroke-linecap: square"/>
   </g>
   <g id="text_21">
    <!-- inducible_fluorophore -->
    <g transform="translate(130.553125 16.318125) scale(0.12 -0.12)">
     <defs>
      <path id="DejaVuSans-4c" d="M 603 3500 
L 1178 3500 
L 1178 0 
L 603 0 
L 603 3500 
z
M 603 4863 
L 1178 4863 
L 1178 4134 
L 603 4134 
L 603 4863 
z
" transform="scale(0.015625)"/>
      <path id="DejaVuSans-51" d="M 3513 2113 
L 3513 0 
L 2938 0 
L 2938 2094 
Q 2938 2591 2744 2837 
Q 2550 3084 2163 3084 
Q 1697 3084 1428 2787 
Q 1159 2491 1159 1978 
L 1159 0 
L 581 0 
L 581 3500 
L 1159 3500 
L 1159 2956 
Q 1366 3272 1645 3428 
Q 1925 3584 2291 3584 
Q 2894 3584 3203 3211 
Q 3513 2838 3513 2113 
z
" transform="scale(0.015625)"/>
      <path id="DejaVuSans-47" d="M 2906 2969 
L 2906 4863 
L 3481 4863 
L 3481 0 
L 2906 0 
L 2906 525 
Q 2725 213 2448 61 
Q 2172 -91 1784 -91 
Q 1150 -91 751 415 
Q 353 922 353 1747 
Q 353 2572 751 3078 
Q 1150 3584 1784 3584 
Q 2172 3584 2448 3432 
Q 2725 3281 2906 2969 
z
M 947 1747 
Q 947 1113 1208 752 
Q 1469 391 1925 391 
Q 2381 391 2643 752 
Q 2906 1113 2906 1747 
Q 2906 2381 2643 2742 
Q 2381 3103 1925 3103 
Q 1469 3103 1208 2742 
Q 947 2381 947 1747 
z
" transform="scale(0.015625)"/>
      <path id="DejaVuSans-58" d="M 544 1381 
L 544 3500 
L 1119 3500 
L 1119 1403 
Q 1119 906 1312 657 
Q 1506 409 1894 409 
Q 2359 409 2629 706 
Q 2900 1003 2900 1516 
L 2900 3500 
L 3475 3500 
L 3475 0 
L 2900 0 
L 2900 538 
Q 2691 219 2414 64 
Q 2138 -91 1772 -91 
Q 1169 -91 856 284 
Q 544 659 544 1381 
z
M 1991 3584 
L 1991 3584 
z
" transform="scale(0.015625)"/>
      <path id="DejaVuSans-46" d="M 3122 3366 
L 3122 2828 
Q 2878 2963 2633 3030 
Q 2388 3097 2138 3097 
Q 1578 3097 1268 2742 
Q 959 2388 959 1747 
Q 959 1106 1268 751 
Q 1578 397 2138 397 
Q 2388 397 2633 464 
Q 2878 531 3122 666 
L 3122 134 
Q 2881 22 2623 -34 
Q 2366 -91 2075 -91 
Q 1284 -91 818 406 
Q 353 903 353 1747 
Q 353 2603 823 3093 
Q 1294 3584 2113 3584 
Q 2378 3584 2631 3529 
Q 2884 3475 3122 3366 
z
" transform="scale(0.015625)"/>
      <path id="DejaVuSans-45" d="M 3116 1747 
Q 3116 2381 2855 2742 
Q 2594 3103 2138 3103 
Q 1681 3103 1420 2742 
Q 1159 2381 1159 1747 
Q 1159 1113 1420 752 
Q 1681 391 2138 391 
Q 2594 391 2855 752 
Q 3116 1113 3116 1747 
z
M 1159 2969 
Q 1341 3281 1617 3432 
Q 1894 3584 2278 3584 
Q 2916 3584 3314 3078 
Q 3713 2572 3713 1747 
Q 3713 922 3314 415 
Q 2916 -91 2278 -91 
Q 1894 -91 1617 61 
Q 1341 213 1159 525 
L 1159 0 
L 581 0 
L 581 4863 
L 1159 4863 
L 1159 2969 
z
" transform="scale(0.015625)"/>
      <path id="DejaVuSans-4f" d="M 603 4863 
L 1178 4863 
L 1178 0 
L 603 0 
L 603 4863 
z
" transform="scale(0.015625)"/>
      <path id="DejaVuSans-48" d="M 3597 1894 
L 3597 1613 
L 953 1613 
Q 991 1019 1311 708 
Q 1631 397 2203 397 
Q 2534 397 2845 478 
Q 3156 559 3463 722 
L 3463 178 
Q 3153 47 2828 -22 
Q 2503 -91 2169 -91 
Q 1331 -91 842 396 
Q 353 884 353 1716 
Q 353 2575 817 3079 
Q 1281 3584 2069 3584 
Q 2775 3584 3186 3129 
Q 3597 2675 3597 1894 
z
M 3022 2063 
Q 3016 2534 2758 2815 
Q 2500 3097 2075 3097 
Q 1594 3097 1305 2825 
Q 1016 2553 972 2059 
L 3022 2063 
z
" transform="scale(0.015625)"/>
      <path id="DejaVuSans-42" d="M 3263 -1063 
L 3263 -1509 
L -63 -1509 
L -63 -1063 
L 3263 -1063 
z
" transform="scale(0.015625)"/>
      <path id="DejaVuSans-13b0" d="M 1831 4863 
L 3431 4863 
L 3431 0 
L 2853 0 
L 2853 4384 
L 1825 4384 
Q 1516 4384 1395 4259 
Q 1275 4134 1275 3809 
L 1275 3500 
L 2222 3500 
L 2222 3053 
L 1275 3053 
L 1275 0 
L 697 0 
L 697 3053 
L 147 3053 
L 147 3500 
L 697 3500 
L 697 3744 
Q 697 4328 969 4595 
Q 1241 4863 1831 4863 
z
" transform="scale(0.015625)"/>
      <path id="DejaVuSans-52" d="M 1959 3097 
Q 1497 3097 1228 2736 
Q 959 2375 959 1747 
Q 959 1119 1226 758 
Q 1494 397 1959 397 
Q 2419 397 2687 759 
Q 2956 1122 2956 1747 
Q 2956 2369 2687 2733 
Q 2419 3097 1959 3097 
z
M 1959 3584 
Q 2709 3584 3137 3096 
Q 3566 2609 3566 1747 
Q 3566 888 3137 398 
Q 2709 -91 1959 -91 
Q 1206 -91 779 398 
Q 353 888 353 1747 
Q 353 2609 779 3096 
Q 1206 3584 1959 3584 
z
" transform="scale(0.015625)"/>
      <path id="DejaVuSans-55" d="M 2631 2963 
Q 2534 3019 2420 3045 
Q 2306 3072 2169 3072 
Q 1681 3072 1420 2755 
Q 1159 2438 1159 1844 
L 1159 0 
L 581 0 
L 581 3500 
L 1159 3500 
L 1159 2956 
Q 1341 3275 1631 3429 
Q 1922 3584 2338 3584 
Q 2397 3584 2469 3576 
Q 2541 3569 2628 3553 
L 2631 2963 
z
" transform="scale(0.015625)"/>
      <path id="DejaVuSans-53" d="M 1159 525 
L 1159 -1331 
L 581 -1331 
L 581 3500 
L 1159 3500 
L 1159 2969 
Q 1341 3281 1617 3432 
Q 1894 3584 2278 3584 
Q 2916 3584 3314 3078 
Q 3713 2572 3713 1747 
Q 3713 922 3314 415 
Q 2916 -91 2278 -91 
Q 1894 -91 1617 61 
Q 1341 213 1159 525 
z
M 3116 1747 
Q 3116 2381 2855 2742 
Q 2594 3103 2138 3103 
Q 1681 3103 1420 2742 
Q 1159 2381 1159 1747 
Q 1159 1113 1420 752 
Q 1681 391 2138 391 
Q 2594 391 2855 752 
Q 3116 1113 3116 1747 
z
" transform="scale(0.015625)"/>
      <path id="DejaVuSans-4b" d="M 3513 2113 
L 3513 0 
L 2938 0 
L 2938 2094 
Q 2938 2591 2744 2837 
Q 2550 3084 2163 3084 
Q 1697 3084 1428 2787 
Q 1159 2491 1159 1978 
L 1159 0 
L 581 0 
L 581 4863 
L 1159 4863 
L 1159 2956 
Q 1366 3272 1645 3428 
Q 1925 3584 2291 3584 
Q 2894 3584 3203 3211 
Q 3513 2838 3513 2113 
z
" transform="scale(0.015625)"/>
     </defs>
     <use xlink:href="#DejaVuSans-4c"/>
     <use xlink:href="#DejaVuSans-51" transform="translate(27.78125 0)"/>
     <use xlink:href="#DejaVuSans-47" transform="translate(91.15625 0)"/>
     <use xlink:href="#DejaVuSans-58" transform="translate(154.640625 0)"/>
     <use xlink:href="#DejaVuSans-46" transform="translate(218.015625 0)"/>
     <use xlink:href="#DejaVuSans-4c" transform="translate(273 0)"/>
     <use xlink:href="#DejaVuSans-45" transform="translate(300.78125 0)"/>
     <use xlink:href="#DejaVuSans-4f" transform="translate(364.265625 0)"/>
     <use xlink:href="#DejaVuSans-48" transform="translate(392.046875 0)"/>
     <use xlink:href="#DejaVuSans-42" transform="translate(453.578125 0)"/>
     <use xlink:href="#DejaVuSans-13b0" transform="translate(503.578125 0)"/>
     <use xlink:href="#DejaVuSans-58" transform="translate(566.5625 0)"/>
     <use xlink:href="#DejaVuSans-52" transform="translate(629.9375 0)"/>
     <use xlink:href="#DejaVuSans-55" transform="translate(691.125 0)"/>
     <use xlink:href="#DejaVuSans-52" transform="translate(730.03125 0)"/>
     <use xlink:href="#DejaVuSans-53" transform="translate(791.21875 0)"/>
     <use xlink:href="#DejaVuSans-4b" transform="translate(854.703125 0)"/>
     <use xlink:href="#DejaVuSans-52" transform="translate(918.078125 0)"/>
     <use xlink:href="#DejaVuSans-55" transform="translate(979.265625 0)"/>
     <use xlink:href="#DejaVuSans-48" transform="translate(1018.171875 0)"/>
    </g>
   </g>
   <g id="legend_1">
    <g id="patch_103">
     <path d="M 375.722187 154.410156 
L 443.294062 154.410156 
Q 445.294062 154.410156 445.294062 152.410156 
L 445.294062 123.408594 
Q 445.294062 121.408594 443.294062 121.408594 
L 375.722187 121.408594 
Q 373.722187 121.408594 373.722187 123.408594 
L 373.722187 152.410156 
Q 373.722187 154.410156 375.722187 154.410156 
z
" style="fill: #ffffff; opacity: 0.8; stroke: #cccccc; stroke-linejoin: miter"/>
    </g>
    <g id="patch_104">
     <path d="M 377.722187 133.007031 
L 397.722187 133.007031 
L 397.722187 126.007031 
L 377.722187 126.007031 
z
" style="fill: #8000ff; stroke: #000000; stroke-linejoin: miter"/>
    </g>
    <g id="text_22">
     <!-- TagBFP -->
     <g transform="translate(405.722187 133.007031) scale(0.1 -0.1)">
      <defs>
       <path id="DejaVuSans-37" d="M -19 4666 
L 3928 4666 
L 3928 4134 
L 2272 4134 
L 2272 0 
L 1638 0 
L 1638 4134 
L -19 4134 
L -19 4666 
z
" transform="scale(0.015625)"/>
       <path id="DejaVuSans-44" d="M 2194 1759 
Q 1497 1759 1228 1600 
Q 959 1441 959 1056 
Q 959 750 1161 570 
Q 1363 391 1709 391 
Q 2188 391 2477 730 
Q 2766 1069 2766 1631 
L 2766 1759 
L 2194 1759 
z
M 3341 1997 
L 3341 0 
L 2766 0 
L 2766 531 
Q 2569 213 2275 61 
Q 1981 -91 1556 -91 
Q 1019 -91 701 211 
Q 384 513 384 1019 
Q 384 1609 779 1909 
Q 1175 2209 1959 2209 
L 2766 2209 
L 2766 2266 
Q 2766 2663 2505 2880 
Q 2244 3097 1772 3097 
Q 1472 3097 1187 3025 
Q 903 2953 641 2809 
L 641 3341 
Q 956 3463 1253 3523 
Q 1550 3584 1831 3584 
Q 2591 3584 2966 3190 
Q 3341 2797 3341 1997 
z
" transform="scale(0.015625)"/>
       <path id="DejaVuSans-4a" d="M 2906 1791 
Q 2906 2416 2648 2759 
Q 2391 3103 1925 3103 
Q 1463 3103 1205 2759 
Q 947 2416 947 1791 
Q 947 1169 1205 825 
Q 1463 481 1925 481 
Q 2391 481 2648 825 
Q 2906 1169 2906 1791 
z
M 3481 434 
Q 3481 -459 3084 -895 
Q 2688 -1331 1869 -1331 
Q 1566 -1331 1297 -1286 
Q 1028 -1241 775 -1147 
L 775 -588 
Q 1028 -725 1275 -790 
Q 1522 -856 1778 -856 
Q 2344 -856 2625 -561 
Q 2906 -266 2906 331 
L 2906 616 
Q 2728 306 2450 153 
Q 2172 0 1784 0 
Q 1141 0 747 490 
Q 353 981 353 1791 
Q 353 2603 747 3093 
Q 1141 3584 1784 3584 
Q 2172 3584 2450 3431 
Q 2728 3278 2906 2969 
L 2906 3500 
L 3481 3500 
L 3481 434 
z
" transform="scale(0.015625)"/>
       <path id="DejaVuSans-33" d="M 1259 4147 
L 1259 2394 
L 2053 2394 
Q 2494 2394 2734 2622 
Q 2975 2850 2975 3272 
Q 2975 3691 2734 3919 
Q 2494 4147 2053 4147 
L 1259 4147 
z
M 628 4666 
L 2053 4666 
Q 2838 4666 3239 4311 
Q 3641 3956 3641 3272 
Q 3641 2581 3239 2228 
Q 2838 1875 2053 1875 
L 1259 1875 
L 1259 0 
L 628 0 
L 628 4666 
z
" transform="scale(0.015625)"/>
      </defs>
      <use xlink:href="#DejaVuSans-37"/>
      <use xlink:href="#DejaVuSans-44" transform="translate(44.53125 0)"/>
      <use xlink:href="#DejaVuSans-4a" transform="translate(105.8125 0)"/>
      <use xlink:href="#DejaVuSans-25" transform="translate(169.296875 0)"/>
      <use xlink:href="#DejaVuSans-29" transform="translate(237.90625 0)"/>
      <use xlink:href="#DejaVuSans-33" transform="translate(295.421875 0)"/>
     </g>
    </g>
    <g id="patch_105">
     <path d="M 377.722187 148.007812 
L 397.722187 148.007812 
L 397.722187 141.007812 
L 377.722187 141.007812 
z
" style="fill: #80ffb4; stroke: #000000; stroke-linejoin: miter"/>
    </g>
    <g id="text_23">
     <!-- EGFP -->
     <g transform="translate(405.722187 148.007812) scale(0.1 -0.1)">
      <use xlink:href="#DejaVuSans-28"/>
      <use xlink:href="#DejaVuSans-2a" transform="translate(63.1875 0)"/>
      <use xlink:href="#DejaVuSans-29" transform="translate(140.671875 0)"/>
      <use xlink:href="#DejaVuSans-33" transform="translate(198.1875 0)"/>
     </g>
    </g>
   </g>
  </g>
 </g>
 <defs>
  <clipPath id="p5108a02bb0">
   <rect x="21.948438" y="22.318125" width="346.77375" height="231.1825"/>
  </clipPath>
 </defs>
</svg>
