<?xml version="1.0" encoding="utf-8" standalone="no"?>
<!DOCTYPE svg PUBLIC "-//W3C//DTD SVG 1.1//EN"
  "http://www.w3.org/Graphics/SVG/1.1/DTD/svg11.dtd">
<svg xmlns:xlink="http://www.w3.org/1999/xlink" width="452.786563pt" height="265.558125pt" viewBox="0 0 452.786563 265.558125" xmlns="http://www.w3.org/2000/svg" version="1.1">
 <metadata>
  <rdf:RDF xmlns:dc="http://purl.org/dc/elements/1.1/" xmlns:cc="http://creativecommons.org/ns#" xmlns:rdf="http://www.w3.org/1999/02/22-rdf-syntax-ns#">
   <cc:Work>
    <dc:type rdf:resource="http://purl.org/dc/dcmitype/StillImage"/>
    <dc:date>2026-06-12T14:53:00+00:00</dc:date>
    <dc:format>image/svg+xml</dc:format>
    <dc:creator>
     <cc:Agent>
      <dc:title>Matplotlib v3.11.0, https://matplotlib.org/</dc:title>
     </cc:Agent>
    </dc:creator>
   </cc:Work>
  </rdf:RDF>
 </metadata>
 <defs>
  <style type="text/css">*{stroke-linejoin: round; stroke-linecap: butt}</style>
 </defs>
 <g id="figure_1">
  <g id="patch_1">
   <path d="M 0 265.558125 
L 452.786563 265.558125 
L 452.786563 0 
L 0 0 
z
" style="fill: #ffffff"/>
  </g>
  <g id="axes_1">
   <g id="patch_2">
    <path d="M 21.948438 241.358125 
L 350.508438 241.358125 
L 350.508438 22.318125 
L 21.948438 22.318125 
z
" style="fill: #ffffff"/>
   </g>
   <g id="patch_3">
    <path d="M 35.638438 48.329125 
C 38.906005 48.329125 42.040181 47.030907 44.3507 44.720388 
C 46.661219 42.409869 47.959437 39.275692 47.959437 36.008125 
C 47.959437 32.740558 46.661219 29.606381 44.3507 27.295862 
C 42.040181 24.985343 38.906005 23.687125 35.638438 23.687125 
C 32.37087 23.687125 29.236694 24.985343 26.926175 27.295862 
C 24.615656 29.606381 23.317438 32.740558 23.317438 36.008125 
C 23.317438 39.275692 24.615656 42.409869 26.926175 44.720388 
C 29.236694 47.030907 32.37087 48.329125 35.638438 48.329125 
z
" clip-path="url(#pb309ec2f73)" style="stroke: #000000; stroke-linejoin: miter"/>
   </g>
   <g id="patch_4">
    <path d="M 63.018438 48.329125 
C 66.286005 48.329125 69.420181 47.030907 71.7307 44.720388 
C 74.041219 42.409869 75.339438 39.275692 75.339438 36.008125 
C 75.339438 32.740558 74.041219 29.606381 71.7307 27.295862 
C 69.420181 24.985343 66.286005 23.687125 63.018438 23.687125 
C 59.75087 23.687125 56.616694 24.985343 54.306175 27.295862 
C 51.995656 29.606381 50.697438 32.740558 50.697438 36.008125 
C 50.697438 39.275692 51.995656 42.409869 54.306175 44.720388 
C 56.616694 47.030907 59.75087 48.329125 63.018438 48.329125 
z
" clip-path="url(#pb309ec2f73)" style="stroke: #000000; stroke-linejoin: miter"/>
   </g>
   <g id="patch_5">
    <path d="M 90.398438 48.329125 
C 93.666005 48.329125 96.800181 47.030907 99.1107 44.720388 
C 101.421219 42.409869 102.719437 39.275692 102.719437 36.008125 
C 102.719437 32.740558 101.421219 29.606381 99.1107 27.295862 
C 96.800181 24.985343 93.666005 23.687125 90.398438 23.687125 
C 87.13087 23.687125 83.996694 24.985343 81.686175 27.295862 
C 79.375656 29.606381 78.077438 32.740558 78.077438 36.008125 
C 78.077438 39.275692 79.375656 42.409869 81.686175 44.720388 
C 83.996694 47.030907 87.13087 48.329125 90.398438 48.329125 
z
" clip-path="url(#pb309ec2f73)" style="stroke: #000000; stroke-linejoin: miter"/>
   </g>
   <g id="patch_6">
    <path d="M 117.778437 48.329125 
C 121.046005 48.329125 124.180181 47.030907 126.4907 44.720388 
C 128.801219 42.409869 130.099437 39.275692 130.099437 36.008125 
C 130.099437 32.740558 128.801219 29.606381 126.4907 27.295862 
C 124.180181 24.985343 121.046005 23.687125 117.778437 23.687125 
C 114.51087 23.687125 111.376694 24.985343 109.066175 27.295862 
C 106.755656 29.606381 105.457437 32.740558 105.457437 36.008125 
C 105.457437 39.275692 106.755656 42.409869 109.066175 44.720388 
C 111.376694 47.030907 114.51087 48.329125 117.778437 48.329125 
z
" clip-path="url(#pb309ec2f73)" style="stroke: #000000; stroke-linejoin: miter"/>
   </g>
   <g id="patch_7">
    <path d="M 145.158437 48.329125 
C 148.426005 48.329125 151.560181 47.030907 153.8707 44.720388 
C 156.181219 42.409869 157.479437 39.275692 157.479437 36.008125 
C 157.479437 32.740558 156.181219 29.606381 153.8707 27.295862 
C 151.560181 24.985343 148.426005 23.687125 145.158437 23.687125 
C 141.89087 23.687125 138.756694 24.985343 136.446175 27.295862 
C 134.135656 29.606381 132.837437 32.740558 132.837437 36.008125 
C 132.837437 39.275692 134.135656 42.409869 136.446175 44.720388 
C 138.756694 47.030907 141.89087 48.329125 145.158437 48.329125 
z
" clip-path="url(#pb309ec2f73)" style="stroke: #000000; stroke-linejoin: miter"/>
   </g>
   <g id="patch_8">
    <path d="M 172.538438 48.329125 
C 175.806005 48.329125 178.940181 47.030907 181.2507 44.720388 
C 183.561219 42.409869 184.859438 39.275692 184.859438 36.008125 
C 184.859438 32.740558 183.561219 29.606381 181.2507 27.295862 
C 178.940181 24.985343 175.806005 23.687125 172.538438 23.687125 
C 169.27087 23.687125 166.136694 24.985343 163.826175 27.295862 
C 161.515656 29.606381 160.217438 32.740558 160.217438 36.008125 
C 160.217438 39.275692 161.515656 42.409869 163.826175 44.720388 
C 166.136694 47.030907 169.27087 48.329125 172.538438 48.329125 
z
" clip-path="url(#pb309ec2f73)" style="stroke: #000000; stroke-linejoin: miter"/>
   </g>
   <g id="patch_9">
    <path d="M 199.918438 48.329125 
C 203.186005 48.329125 206.320181 47.030907 208.6307 44.720388 
C 210.941219 42.409869 212.239438 39.275692 212.239438 36.008125 
C 212.239438 32.740558 210.941219 29.606381 208.6307 27.295862 
C 206.320181 24.985343 203.186005 23.687125 199.918438 23.687125 
C 196.65087 23.687125 193.516694 24.985343 191.206175 27.295862 
C 188.895656 29.606381 187.597438 32.740558 187.597438 36.008125 
C 187.597438 39.275692 188.895656 42.409869 191.206175 44.720388 
C 193.516694 47.030907 196.65087 48.329125 199.918438 48.329125 
z
" clip-path="url(#pb309ec2f73)" style="stroke: #000000; stroke-linejoin: miter"/>
   </g>
   <g id="patch_10">
    <path d="M 227.298438 48.329125 
C 230.566005 48.329125 233.700181 47.030907 236.0107 44.720388 
C 238.321219 42.409869 239.619438 39.275692 239.619438 36.008125 
C 239.619438 32.740558 238.321219 29.606381 236.0107 27.295862 
C 233.700181 24.985343 230.566005 23.687125 227.298438 23.687125 
C 224.03087 23.687125 220.896694 24.985343 218.586175 27.295862 
C 216.275656 29.606381 214.977438 32.740558 214.977438 36.008125 
C 214.977438 39.275692 216.275656 42.409869 218.586175 44.720388 
C 220.896694 47.030907 224.03087 48.329125 227.298438 48.329125 
z
" clip-path="url(#pb309ec2f73)" style="stroke: #000000; stroke-linejoin: miter"/>
   </g>
   <g id="patch_11">
    <path d="M 254.678438 48.329125 
C 257.946005 48.329125 261.080181 47.030907 263.3907 44.720388 
C 265.701219 42.409869 266.999437 39.275692 266.999437 36.008125 
C 266.999437 32.740558 265.701219 29.606381 263.3907 27.295862 
C 261.080181 24.985343 257.946005 23.687125 254.678438 23.687125 
C 251.41087 23.687125 248.276694 24.985343 245.966175 27.295862 
C 243.655656 29.606381 242.357438 32.740558 242.357438 36.008125 
C 242.357438 39.275692 243.655656 42.409869 245.966175 44.720388 
C 248.276694 47.030907 251.41087 48.329125 254.678438 48.329125 
z
" clip-path="url(#pb309ec2f73)" style="stroke: #000000; stroke-linejoin: miter"/>
   </g>
   <g id="patch_12">
    <path d="M 282.058437 48.329125 
C 285.326005 48.329125 288.460181 47.030907 290.7707 44.720388 
C 293.081219 42.409869 294.379437 39.275692 294.379437 36.008125 
C 294.379437 32.740558 293.081219 29.606381 290.7707 27.295862 
C 288.460181 24.985343 285.326005 23.687125 282.058437 23.687125 
C 278.79087 23.687125 275.656694 24.985343 273.346175 27.295862 
C 271.035656 29.606381 269.737437 32.740558 269.737437 36.008125 
C 269.737437 39.275692 271.035656 42.409869 273.346175 44.720388 
C 275.656694 47.030907 278.79087 48.329125 282.058437 48.329125 
z
" clip-path="url(#pb309ec2f73)" style="stroke: #000000; stroke-linejoin: miter"/>
   </g>
   <g id="patch_13">
    <path d="M 309.438438 48.329125 
C 312.706005 48.329125 315.840181 47.030907 318.1507 44.720388 
C 320.461219 42.409869 321.759438 39.275692 321.759438 36.008125 
C 321.759438 32.740558 320.461219 29.606381 318.1507 27.295862 
C 315.840181 24.985343 312.706005 23.687125 309.438438 23.687125 
C 306.17087 23.687125 303.036694 24.985343 300.726175 27.295862 
C 298.415656 29.606381 297.117437 32.740558 297.117437 36.008125 
C 297.117437 39.275692 298.415656 42.409869 300.726175 44.720388 
C 303.036694 47.030907 306.17087 48.329125 309.438438 48.329125 
z
" clip-path="url(#pb309ec2f73)" style="stroke: #000000; stroke-linejoin: miter"/>
   </g>
   <g id="patch_14">
    <path d="M 336.818438 48.329125 
C 340.086005 48.329125 343.220181 47.030907 345.5307 44.720388 
C 347.841219 42.409869 349.139438 39.275692 349.139438 36.008125 
C 349.139438 32.740558 347.841219 29.606381 345.5307 27.295862 
C 343.220181 24.985343 340.086005 23.687125 336.818438 23.687125 
C 333.55087 23.687125 330.416694 24.985343 328.106175 27.295862 
C 325.795656 29.606381 324.497437 32.740558 324.497437 36.008125 
C 324.497437 39.275692 325.795656 42.409869 328.106175 44.720388 
C 330.416694 47.030907 333.55087 48.329125 336.818438 48.329125 
z
" clip-path="url(#pb309ec2f73)" style="stroke: #000000; stroke-linejoin: miter"/>
   </g>
   <g id="patch_15">
    <path d="M 35.638438 75.709125 
C 38.906005 75.709125 42.040181 74.410907 44.3507 72.100388 
C 46.661219 69.789869 47.959437 66.655692 47.959437 63.388125 
C 47.959437 60.120558 46.661219 56.986381 44.3507 54.675862 
C 42.040181 52.365343 38.906005 51.067125 35.638438 51.067125 
C 32.37087 51.067125 29.236694 52.365343 26.926175 54.675862 
C 24.615656 56.986381 23.317438 60.120558 23.317438 63.388125 
C 23.317438 66.655692 24.615656 69.789869 26.926175 72.100388 
C 29.236694 74.410907 32.37087 75.709125 35.638438 75.709125 
z
" clip-path="url(#pb309ec2f73)" style="fill: #440154; stroke: #000000; stroke-linejoin: miter"/>
   </g>
   <g id="patch_16">
    <path d="M 63.018438 75.709125 
C 66.286005 75.709125 69.420181 74.410907 71.7307 72.100388 
C 74.041219 69.789869 75.339438 66.655692 75.339438 63.388125 
C 75.339438 60.120558 74.041219 56.986381 71.7307 54.675862 
C 69.420181 52.365343 66.286005 51.067125 63.018438 51.067125 
C 59.75087 51.067125 56.616694 52.365343 54.306175 54.675862 
C 51.995656 56.986381 50.697438 60.120558 50.697438 63.388125 
C 50.697438 66.655692 51.995656 69.789869 54.306175 72.100388 
C 56.616694 74.410907 59.75087 75.709125 63.018438 75.709125 
z
" clip-path="url(#pb309ec2f73)" style="fill: #440154; stroke: #000000; stroke-linejoin: miter"/>
   </g>
   <g id="patch_17">
    <path d="M 90.398438 75.709125 
C 93.666005 75.709125 96.800181 74.410907 99.1107 72.100388 
C 101.421219 69.789869 102.719437 66.655692 102.719437 63.388125 
C 102.719437 60.120558 101.421219 56.986381 99.1107 54.675862 
C 96.800181 52.365343 93.666005 51.067125 90.398438 51.067125 
C 87.13087 51.067125 83.996694 52.365343 81.686175 54.675862 
C 79.375656 56.986381 78.077438 60.120558 78.077438 63.388125 
C 78.077438 66.655692 79.375656 69.789869 81.686175 72.100388 
C 83.996694 74.410907 87.13087 75.709125 90.398438 75.709125 
z
" clip-path="url(#pb309ec2f73)" style="fill: #440154; stroke: #000000; stroke-linejoin: miter"/>
   </g>
   <g id="patch_18">
    <path d="M 117.778437 75.709125 
C 121.046005 75.709125 124.180181 74.410907 126.4907 72.100388 
C 128.801219 69.789869 130.099437 66.655692 130.099437 63.388125 
C 130.099437 60.120558 128.801219 56.986381 126.4907 54.675862 
C 124.180181 52.365343 121.046005 51.067125 117.778437 51.067125 
C 114.51087 51.067125 111.376694 52.365343 109.066175 54.675862 
C 106.755656 56.986381 105.457437 60.120558 105.457437 63.388125 
C 105.457437 66.655692 106.755656 69.789869 109.066175 72.100388 
C 111.376694 74.410907 114.51087 75.709125 117.778437 75.709125 
z
" clip-path="url(#pb309ec2f73)" style="fill: #440154; stroke: #000000; stroke-linejoin: miter"/>
   </g>
   <g id="patch_19">
    <path d="M 145.158437 75.709125 
C 148.426005 75.709125 151.560181 74.410907 153.8707 72.100388 
C 156.181219 69.789869 157.479437 66.655692 157.479437 63.388125 
C 157.479437 60.120558 156.181219 56.986381 153.8707 54.675862 
C 151.560181 52.365343 148.426005 51.067125 145.158437 51.067125 
C 141.89087 51.067125 138.756694 52.365343 136.446175 54.675862 
C 134.135656 56.986381 132.837437 60.120558 132.837437 63.388125 
C 132.837437 66.655692 134.135656 69.789869 136.446175 72.100388 
C 138.756694 74.410907 141.89087 75.709125 145.158437 75.709125 
z
" clip-path="url(#pb309ec2f73)" style="fill: #440154; stroke: #000000; stroke-linejoin: miter"/>
   </g>
   <g id="patch_20">
    <path d="M 172.538438 75.709125 
C 175.806005 75.709125 178.940181 74.410907 181.2507 72.100388 
C 183.561219 69.789869 184.859438 66.655692 184.859438 63.388125 
C 184.859438 60.120558 183.561219 56.986381 181.2507 54.675862 
C 178.940181 52.365343 175.806005 51.067125 172.538438 51.067125 
C 169.27087 51.067125 166.136694 52.365343 163.826175 54.675862 
C 161.515656 56.986381 160.217438 60.120558 160.217438 63.388125 
C 160.217438 66.655692 161.515656 69.789869 163.826175 72.100388 
C 166.136694 74.410907 169.27087 75.709125 172.538438 75.709125 
z
" clip-path="url(#pb309ec2f73)" style="fill: #440154; stroke: #000000; stroke-linejoin: miter"/>
   </g>
   <g id="patch_21">
    <path d="M 199.918438 75.709125 
C 203.186005 75.709125 206.320181 74.410907 208.6307 72.100388 
C 210.941219 69.789869 212.239438 66.655692 212.239438 63.388125 
C 212.239438 60.120558 210.941219 56.986381 208.6307 54.675862 
C 206.320181 52.365343 203.186005 51.067125 199.918438 51.067125 
C 196.65087 51.067125 193.516694 52.365343 191.206175 54.675862 
C 188.895656 56.986381 187.597438 60.120558 187.597438 63.388125 
C 187.597438 66.655692 188.895656 69.789869 191.206175 72.100388 
C 193.516694 74.410907 196.65087 75.709125 199.918438 75.709125 
z
" clip-path="url(#pb309ec2f73)" style="fill: #440154; stroke: #000000; stroke-linejoin: miter"/>
   </g>
   <g id="patch_22">
    <path d="M 227.298438 75.709125 
C 230.566005 75.709125 233.700181 74.410907 236.0107 72.100388 
C 238.321219 69.789869 239.619438 66.655692 239.619438 63.388125 
C 239.619438 60.120558 238.321219 56.986381 236.0107 54.675862 
C 233.700181 52.365343 230.566005 51.067125 227.298438 51.067125 
C 224.03087 51.067125 220.896694 52.365343 218.586175 54.675862 
C 216.275656 56.986381 214.977438 60.120558 214.977438 63.388125 
C 214.977438 66.655692 216.275656 69.789869 218.586175 72.100388 
C 220.896694 74.410907 224.03087 75.709125 227.298438 75.709125 
z
" clip-path="url(#pb309ec2f73)" style="fill: #440154; stroke: #000000; stroke-linejoin: miter"/>
   </g>
   <g id="patch_23">
    <path d="M 254.678438 75.709125 
C 257.946005 75.709125 261.080181 74.410907 263.3907 72.100388 
C 265.701219 69.789869 266.999437 66.655692 266.999437 63.388125 
C 266.999437 60.120558 265.701219 56.986381 263.3907 54.675862 
C 261.080181 52.365343 257.946005 51.067125 254.678438 51.067125 
C 251.41087 51.067125 248.276694 52.365343 245.966175 54.675862 
C 243.655656 56.986381 242.357438 60.120558 242.357438 63.388125 
C 242.357438 66.655692 243.655656 69.789869 245.966175 72.100388 
C 248.276694 74.410907 251.41087 75.709125 254.678438 75.709125 
z
" clip-path="url(#pb309ec2f73)" style="fill: #440154; stroke: #000000; stroke-linejoin: miter"/>
   </g>
   <g id="patch_24">
    <path d="M 282.058437 75.709125 
C 285.326005 75.709125 288.460181 74.410907 290.7707 72.100388 
C 293.081219 69.789869 294.379437 66.655692 294.379437 63.388125 
C 294.379437 60.120558 293.081219 56.986381 290.7707 54.675862 
C 288.460181 52.365343 285.326005 51.067125 282.058437 51.067125 
C 278.79087 51.067125 275.656694 52.365343 273.346175 54.675862 
C 271.035656 56.986381 269.737437 60.120558 269.737437 63.388125 
C 269.737437 66.655692 271.035656 69.789869 273.346175 72.100388 
C 275.656694 74.410907 278.79087 75.709125 282.058437 75.709125 
z
" clip-path="url(#pb309ec2f73)" style="fill: #440154; stroke: #000000; stroke-linejoin: miter"/>
   </g>
   <g id="patch_25">
    <path d="M 309.438438 75.709125 
C 312.706005 75.709125 315.840181 74.410907 318.1507 72.100388 
C 320.461219 69.789869 321.759438 66.655692 321.759438 63.388125 
C 321.759438 60.120558 320.461219 56.986381 318.1507 54.675862 
C 315.840181 52.365343 312.706005 51.067125 309.438438 51.067125 
C 306.17087 51.067125 303.036694 52.365343 300.726175 54.675862 
C 298.415656 56.986381 297.117437 60.120558 297.117437 63.388125 
C 297.117437 66.655692 298.415656 69.789869 300.726175 72.100388 
C 303.036694 74.410907 306.17087 75.709125 309.438438 75.709125 
z
" clip-path="url(#pb309ec2f73)" style="fill: #440154; stroke: #000000; stroke-linejoin: miter"/>
   </g>
   <g id="patch_26">
    <path d="M 336.818438 75.709125 
C 340.086005 75.709125 343.220181 74.410907 345.5307 72.100388 
C 347.841219 69.789869 349.139438 66.655692 349.139438 63.388125 
C 349.139438 60.120558 347.841219 56.986381 345.5307 54.675862 
C 343.220181 52.365343 340.086005 51.067125 336.818438 51.067125 
C 333.55087 51.067125 330.416694 52.365343 328.106175 54.675862 
C 325.795656 56.986381 324.497437 60.120558 324.497437 63.388125 
C 324.497437 66.655692 325.795656 69.789869 328.106175 72.100388 
C 330.416694 74.410907 333.55087 75.709125 336.818438 75.709125 
z
" clip-path="url(#pb309ec2f73)" style="fill: #440154; stroke: #000000; stroke-linejoin: miter"/>
   </g>
   <g id="patch_27">
    <path d="M 35.638438 103.089125 
C 38.906005 103.089125 42.040181 101.790907 44.3507 99.480388 
C 46.661219 97.169869 47.959437 94.035692 47.959437 90.768125 
C 47.959437 87.500558 46.661219 84.366381 44.3507 82.055862 
C 42.040181 79.745343 38.906005 78.447125 35.638438 78.447125 
C 32.37087 78.447125 29.236694 79.745343 26.926175 82.055862 
C 24.615656 84.366381 23.317438 87.500558 23.317438 90.768125 
C 23.317438 94.035692 24.615656 97.169869 26.926175 99.480388 
C 29.236694 101.790907 32.37087 103.089125 35.638438 103.089125 
z
" clip-path="url(#pb309ec2f73)" style="fill: #46327e; stroke: #000000; stroke-linejoin: miter"/>
   </g>
   <g id="patch_28">
    <path d="M 63.018438 103.089125 
C 66.286005 103.089125 69.420181 101.790907 71.7307 99.480388 
C 74.041219 97.169869 75.339438 94.035692 75.339438 90.768125 
C 75.339438 87.500558 74.041219 84.366381 71.7307 82.055862 
C 69.420181 79.745343 66.286005 78.447125 63.018438 78.447125 
C 59.75087 78.447125 56.616694 79.745343 54.306175 82.055862 
C 51.995656 84.366381 50.697438 87.500558 50.697438 90.768125 
C 50.697438 94.035692 51.995656 97.169869 54.306175 99.480388 
C 56.616694 101.790907 59.75087 103.089125 63.018438 103.089125 
z
" clip-path="url(#pb309ec2f73)" style="fill: #46327e; stroke: #000000; stroke-linejoin: miter"/>
   </g>
   <g id="patch_29">
    <path d="M 90.398438 103.089125 
C 93.666005 103.089125 96.800181 101.790907 99.1107 99.480388 
C 101.421219 97.169869 102.719437 94.035692 102.719437 90.768125 
C 102.719437 87.500558 101.421219 84.366381 99.1107 82.055862 
C 96.800181 79.745343 93.666005 78.447125 90.398438 78.447125 
C 87.13087 78.447125 83.996694 79.745343 81.686175 82.055862 
C 79.375656 84.366381 78.077438 87.500558 78.077438 90.768125 
C 78.077438 94.035692 79.375656 97.169869 81.686175 99.480388 
C 83.996694 101.790907 87.13087 103.089125 90.398438 103.089125 
z
" clip-path="url(#pb309ec2f73)" style="fill: #46327e; stroke: #000000; stroke-linejoin: miter"/>
   </g>
   <g id="patch_30">
    <path d="M 117.778437 103.089125 
C 121.046005 103.089125 124.180181 101.790907 126.4907 99.480388 
C 128.801219 97.169869 130.099437 94.035692 130.099437 90.768125 
C 130.099437 87.500558 128.801219 84.366381 126.4907 82.055862 
C 124.180181 79.745343 121.046005 78.447125 117.778437 78.447125 
C 114.51087 78.447125 111.376694 79.745343 109.066175 82.055862 
C 106.755656 84.366381 105.457437 87.500558 105.457437 90.768125 
C 105.457437 94.035692 106.755656 97.169869 109.066175 99.480388 
C 111.376694 101.790907 114.51087 103.089125 117.778437 103.089125 
z
" clip-path="url(#pb309ec2f73)" style="fill: #46327e; stroke: #000000; stroke-linejoin: miter"/>
   </g>
   <g id="patch_31">
    <path d="M 145.158437 103.089125 
C 148.426005 103.089125 151.560181 101.790907 153.8707 99.480388 
C 156.181219 97.169869 157.479437 94.035692 157.479437 90.768125 
C 157.479437 87.500558 156.181219 84.366381 153.8707 82.055862 
C 151.560181 79.745343 148.426005 78.447125 145.158437 78.447125 
C 141.89087 78.447125 138.756694 79.745343 136.446175 82.055862 
C 134.135656 84.366381 132.837437 87.500558 132.837437 90.768125 
C 132.837437 94.035692 134.135656 97.169869 136.446175 99.480388 
C 138.756694 101.790907 141.89087 103.089125 145.158437 103.089125 
z
" clip-path="url(#pb309ec2f73)" style="fill: #46327e; stroke: #000000; stroke-linejoin: miter"/>
   </g>
   <g id="patch_32">
    <path d="M 172.538438 103.089125 
C 175.806005 103.089125 178.940181 101.790907 181.2507 99.480388 
C 183.561219 97.169869 184.859438 94.035692 184.859438 90.768125 
C 184.859438 87.500558 183.561219 84.366381 181.2507 82.055862 
C 178.940181 79.745343 175.806005 78.447125 172.538438 78.447125 
C 169.27087 78.447125 166.136694 79.745343 163.826175 82.055862 
C 161.515656 84.366381 160.217438 87.500558 160.217438 90.768125 
C 160.217438 94.035692 161.515656 97.169869 163.826175 99.480388 
C 166.136694 101.790907 169.27087 103.089125 172.538438 103.089125 
z
" clip-path="url(#pb309ec2f73)" style="fill: #46327e; stroke: #000000; stroke-linejoin: miter"/>
   </g>
   <g id="patch_33">
    <path d="M 199.918438 103.089125 
C 203.186005 103.089125 206.320181 101.790907 208.6307 99.480388 
C 210.941219 97.169869 212.239438 94.035692 212.239438 90.768125 
C 212.239438 87.500558 210.941219 84.366381 208.6307 82.055862 
C 206.320181 79.745343 203.186005 78.447125 199.918438 78.447125 
C 196.65087 78.447125 193.516694 79.745343 191.206175 82.055862 
C 188.895656 84.366381 187.597438 87.500558 187.597438 90.768125 
C 187.597438 94.035692 188.895656 97.169869 191.206175 99.480388 
C 193.516694 101.790907 196.65087 103.089125 199.918438 103.089125 
z
" clip-path="url(#pb309ec2f73)" style="fill: #46327e; stroke: #000000; stroke-linejoin: miter"/>
   </g>
   <g id="patch_34">
    <path d="M 227.298438 103.089125 
C 230.566005 103.089125 233.700181 101.790907 236.0107 99.480388 
C 238.321219 97.169869 239.619438 94.035692 239.619438 90.768125 
C 239.619438 87.500558 238.321219 84.366381 236.0107 82.055862 
C 233.700181 79.745343 230.566005 78.447125 227.298438 78.447125 
C 224.03087 78.447125 220.896694 79.745343 218.586175 82.055862 
C 216.275656 84.366381 214.977438 87.500558 214.977438 90.768125 
C 214.977438 94.035692 216.275656 97.169869 218.586175 99.480388 
C 220.896694 101.790907 224.03087 103.089125 227.298438 103.089125 
z
" clip-path="url(#pb309ec2f73)" style="fill: #46327e; stroke: #000000; stroke-linejoin: miter"/>
   </g>
   <g id="patch_35">
    <path d="M 254.678438 103.089125 
C 257.946005 103.089125 261.080181 101.790907 263.3907 99.480388 
C 265.701219 97.169869 266.999437 94.035692 266.999437 90.768125 
C 266.999437 87.500558 265.701219 84.366381 263.3907 82.055862 
C 261.080181 79.745343 257.946005 78.447125 254.678438 78.447125 
C 251.41087 78.447125 248.276694 79.745343 245.966175 82.055862 
C 243.655656 84.366381 242.357438 87.500558 242.357438 90.768125 
C 242.357438 94.035692 243.655656 97.169869 245.966175 99.480388 
C 248.276694 101.790907 251.41087 103.089125 254.678438 103.089125 
z
" clip-path="url(#pb309ec2f73)" style="fill: #46327e; stroke: #000000; stroke-linejoin: miter"/>
   </g>
   <g id="patch_36">
    <path d="M 282.058437 103.089125 
C 285.326005 103.089125 288.460181 101.790907 290.7707 99.480388 
C 293.081219 97.169869 294.379437 94.035692 294.379437 90.768125 
C 294.379437 87.500558 293.081219 84.366381 290.7707 82.055862 
C 288.460181 79.745343 285.326005 78.447125 282.058437 78.447125 
C 278.79087 78.447125 275.656694 79.745343 273.346175 82.055862 
C 271.035656 84.366381 269.737437 87.500558 269.737437 90.768125 
C 269.737437 94.035692 271.035656 97.169869 273.346175 99.480388 
C 275.656694 101.790907 278.79087 103.089125 282.058437 103.089125 
z
" clip-path="url(#pb309ec2f73)" style="fill: #46327e; stroke: #000000; stroke-linejoin: miter"/>
   </g>
   <g id="patch_37">
    <path d="M 309.438438 103.089125 
C 312.706005 103.089125 315.840181 101.790907 318.1507 99.480388 
C 320.461219 97.169869 321.759438 94.035692 321.759438 90.768125 
C 321.759438 87.500558 320.461219 84.366381 318.1507 82.055862 
C 315.840181 79.745343 312.706005 78.447125 309.438438 78.447125 
C 306.17087 78.447125 303.036694 79.745343 300.726175 82.055862 
C 298.415656 84.366381 297.117437 87.500558 297.117437 90.768125 
C 297.117437 94.035692 298.415656 97.169869 300.726175 99.480388 
C 303.036694 101.790907 306.17087 103.089125 309.438438 103.089125 
z
" clip-path="url(#pb309ec2f73)" style="fill: #46327e; stroke: #000000; stroke-linejoin: miter"/>
   </g>
   <g id="patch_38">
    <path d="M 336.818438 103.089125 
C 340.086005 103.089125 343.220181 101.790907 345.5307 99.480388 
C 347.841219 97.169869 349.139438 94.035692 349.139438 90.768125 
C 349.139438 87.500558 347.841219 84.366381 345.5307 82.055862 
C 343.220181 79.745343 340.086005 78.447125 336.818438 78.447125 
C 333.55087 78.447125 330.416694 79.745343 328.106175 82.055862 
C 325.795656 84.366381 324.497437 87.500558 324.497437 90.768125 
C 324.497437 94.035692 325.795656 97.169869 328.106175 99.480388 
C 330.416694 101.790907 333.55087 103.089125 336.818438 103.089125 
z
" clip-path="url(#pb309ec2f73)" style="fill: #46327e; stroke: #000000; stroke-linejoin: miter"/>
   </g>
   <g id="patch_39">
    <path d="M 35.638438 130.469125 
C 38.906005 130.469125 42.040181 129.170907 44.3507 126.860388 
C 46.661219 124.549869 47.959437 121.415692 47.959437 118.148125 
C 47.959437 114.880558 46.661219 111.746381 44.3507 109.435862 
C 42.040181 107.125343 38.906005 105.827125 35.638438 105.827125 
C 32.37087 105.827125 29.236694 107.125343 26.926175 109.435862 
C 24.615656 111.746381 23.317438 114.880558 23.317438 118.148125 
C 23.317438 121.415692 24.615656 124.549869 26.926175 126.860388 
C 29.236694 129.170907 32.37087 130.469125 35.638438 130.469125 
z
" clip-path="url(#pb309ec2f73)" style="fill: #375b8d; stroke: #000000; stroke-linejoin: miter"/>
   </g>
   <g id="patch_40">
    <path d="M 63.018438 130.469125 
C 66.286005 130.469125 69.420181 129.170907 71.7307 126.860388 
C 74.041219 124.549869 75.339438 121.415692 75.339438 118.148125 
C 75.339438 114.880558 74.041219 111.746381 71.7307 109.435862 
C 69.420181 107.125343 66.286005 105.827125 63.018438 105.827125 
C 59.75087 105.827125 56.616694 107.125343 54.306175 109.435862 
C 51.995656 111.746381 50.697438 114.880558 50.697438 118.148125 
C 50.697438 121.415692 51.995656 124.549869 54.306175 126.860388 
C 56.616694 129.170907 59.75087 130.469125 63.018438 130.469125 
z
" clip-path="url(#pb309ec2f73)" style="fill: #375b8d; stroke: #000000; stroke-linejoin: miter"/>
   </g>
   <g id="patch_41">
    <path d="M 90.398438 130.469125 
C 93.666005 130.469125 96.800181 129.170907 99.1107 126.860388 
C 101.421219 124.549869 102.719437 121.415692 102.719437 118.148125 
C 102.719437 114.880558 101.421219 111.746381 99.1107 109.435862 
C 96.800181 107.125343 93.666005 105.827125 90.398438 105.827125 
C 87.13087 105.827125 83.996694 107.125343 81.686175 109.435862 
C 79.375656 111.746381 78.077438 114.880558 78.077438 118.148125 
C 78.077438 121.415692 79.375656 124.549869 81.686175 126.860388 
C 83.996694 129.170907 87.13087 130.469125 90.398438 130.469125 
z
" clip-path="url(#pb309ec2f73)" style="fill: #375b8d; stroke: #000000; stroke-linejoin: miter"/>
   </g>
   <g id="patch_42">
    <path d="M 117.778437 130.469125 
C 121.046005 130.469125 124.180181 129.170907 126.4907 126.860388 
C 128.801219 124.549869 130.099437 121.415692 130.099437 118.148125 
C 130.099437 114.880558 128.801219 111.746381 126.4907 109.435862 
C 124.180181 107.125343 121.046005 105.827125 117.778437 105.827125 
C 114.51087 105.827125 111.376694 107.125343 109.066175 109.435862 
C 106.755656 111.746381 105.457437 114.880558 105.457437 118.148125 
C 105.457437 121.415692 106.755656 124.549869 109.066175 126.860388 
C 111.376694 129.170907 114.51087 130.469125 117.778437 130.469125 
z
" clip-path="url(#pb309ec2f73)" style="fill: #375b8d; stroke: #000000; stroke-linejoin: miter"/>
   </g>
   <g id="patch_43">
    <path d="M 145.158437 130.469125 
C 148.426005 130.469125 151.560181 129.170907 153.8707 126.860388 
C 156.181219 124.549869 157.479437 121.415692 157.479437 118.148125 
C 157.479437 114.880558 156.181219 111.746381 153.8707 109.435862 
C 151.560181 107.125343 148.426005 105.827125 145.158437 105.827125 
C 141.89087 105.827125 138.756694 107.125343 136.446175 109.435862 
C 134.135656 111.746381 132.837437 114.880558 132.837437 118.148125 
C 132.837437 121.415692 134.135656 124.549869 136.446175 126.860388 
C 138.756694 129.170907 141.89087 130.469125 145.158437 130.469125 
z
" clip-path="url(#pb309ec2f73)" style="fill: #375b8d; stroke: #000000; stroke-linejoin: miter"/>
   </g>
   <g id="patch_44">
    <path d="M 172.538438 130.469125 
C 175.806005 130.469125 178.940181 129.170907 181.2507 126.860388 
C 183.561219 124.549869 184.859438 121.415692 184.859438 118.148125 
C 184.859438 114.880558 183.561219 111.746381 181.2507 109.435862 
C 178.940181 107.125343 175.806005 105.827125 172.538438 105.827125 
C 169.27087 105.827125 166.136694 107.125343 163.826175 109.435862 
C 161.515656 111.746381 160.217438 114.880558 160.217438 118.148125 
C 160.217438 121.415692 161.515656 124.549869 163.826175 126.860388 
C 166.136694 129.170907 169.27087 130.469125 172.538438 130.469125 
z
" clip-path="url(#pb309ec2f73)" style="fill: #375b8d; stroke: #000000; stroke-linejoin: miter"/>
   </g>
   <g id="patch_45">
    <path d="M 199.918438 130.469125 
C 203.186005 130.469125 206.320181 129.170907 208.6307 126.860388 
C 210.941219 124.549869 212.239438 121.415692 212.239438 118.148125 
C 212.239438 114.880558 210.941219 111.746381 208.6307 109.435862 
C 206.320181 107.125343 203.186005 105.827125 199.918438 105.827125 
C 196.65087 105.827125 193.516694 107.125343 191.206175 109.435862 
C 188.895656 111.746381 187.597438 114.880558 187.597438 118.148125 
C 187.597438 121.415692 188.895656 124.549869 191.206175 126.860388 
C 193.516694 129.170907 196.65087 130.469125 199.918438 130.469125 
z
" clip-path="url(#pb309ec2f73)" style="fill: #375b8d; stroke: #000000; stroke-linejoin: miter"/>
   </g>
   <g id="patch_46">
    <path d="M 227.298438 130.469125 
C 230.566005 130.469125 233.700181 129.170907 236.0107 126.860388 
C 238.321219 124.549869 239.619438 121.415692 239.619438 118.148125 
C 239.619438 114.880558 238.321219 111.746381 236.0107 109.435862 
C 233.700181 107.125343 230.566005 105.827125 227.298438 105.827125 
C 224.03087 105.827125 220.896694 107.125343 218.586175 109.435862 
C 216.275656 111.746381 214.977438 114.880558 214.977438 118.148125 
C 214.977438 121.415692 216.275656 124.549869 218.586175 126.860388 
C 220.896694 129.170907 224.03087 130.469125 227.298438 130.469125 
z
" clip-path="url(#pb309ec2f73)" style="fill: #375b8d; stroke: #000000; stroke-linejoin: miter"/>
   </g>
   <g id="patch_47">
    <path d="M 254.678438 130.469125 
C 257.946005 130.469125 261.080181 129.170907 263.3907 126.860388 
C 265.701219 124.549869 266.999437 121.415692 266.999437 118.148125 
C 266.999437 114.880558 265.701219 111.746381 263.3907 109.435862 
C 261.080181 107.125343 257.946005 105.827125 254.678438 105.827125 
C 251.41087 105.827125 248.276694 107.125343 245.966175 109.435862 
C 243.655656 111.746381 242.357438 114.880558 242.357438 118.148125 
C 242.357438 121.415692 243.655656 124.549869 245.966175 126.860388 
C 248.276694 129.170907 251.41087 130.469125 254.678438 130.469125 
z
" clip-path="url(#pb309ec2f73)" style="fill: #375b8d; stroke: #000000; stroke-linejoin: miter"/>
   </g>
   <g id="patch_48">
    <path d="M 282.058437 130.469125 
C 285.326005 130.469125 288.460181 129.170907 290.7707 126.860388 
C 293.081219 124.549869 294.379437 121.415692 294.379437 118.148125 
C 294.379437 114.880558 293.081219 111.746381 290.7707 109.435862 
C 288.460181 107.125343 285.326005 105.827125 282.058437 105.827125 
C 278.79087 105.827125 275.656694 107.125343 273.346175 109.435862 
C 271.035656 111.746381 269.737437 114.880558 269.737437 118.148125 
C 269.737437 121.415692 271.035656 124.549869 273.346175 126.860388 
C 275.656694 129.170907 278.79087 130.469125 282.058437 130.469125 
z
" clip-path="url(#pb309ec2f73)" style="fill: #375b8d; stroke: #000000; stroke-linejoin: miter"/>
   </g>
   <g id="patch_49">
    <path d="M 309.438438 130.469125 
C 312.706005 130.469125 315.840181 129.170907 318.1507 126.860388 
C 320.461219 124.549869 321.759438 121.415692 321.759438 118.148125 
C 321.759438 114.880558 320.461219 111.746381 318.1507 109.435862 
C 315.840181 107.125343 312.706005 105.827125 309.438438 105.827125 
C 306.17087 105.827125 303.036694 107.125343 300.726175 109.435862 
C 298.415656 111.746381 297.117437 114.880558 297.117437 118.148125 
C 297.117437 121.415692 298.415656 124.549869 300.726175 126.860388 
C 303.036694 129.170907 306.17087 130.469125 309.438438 130.469125 
z
" clip-path="url(#pb309ec2f73)" style="fill: #375b8d; stroke: #000000; stroke-linejoin: miter"/>
   </g>
   <g id="patch_50">
    <path d="M 336.818438 130.469125 
C 340.086005 130.469125 343.220181 129.170907 345.5307 126.860388 
C 347.841219 124.549869 349.139438 121.415692 349.139438 118.148125 
C 349.139438 114.880558 347.841219 111.746381 345.5307 109.435862 
C 343.220181 107.125343 340.086005 105.827125 336.818438 105.827125 
C 333.55087 105.827125 330.416694 107.125343 328.106175 109.435862 
C 325.795656 111.746381 324.497437 114.880558 324.497437 118.148125 
C 324.497437 121.415692 325.795656 124.549869 328.106175 126.860388 
C 330.416694 129.170907 333.55087 130.469125 336.818438 130.469125 
z
" clip-path="url(#pb309ec2f73)" style="fill: #375b8d; stroke: #000000; stroke-linejoin: miter"/>
   </g>
   <g id="patch_51">
    <path d="M 35.638438 157.849125 
C 38.906005 157.849125 42.040181 156.550907 44.3507 154.240388 
C 46.661219 151.929869 47.959437 148.795692 47.959437 145.528125 
C 47.959437 142.260558 46.661219 139.126381 44.3507 136.815862 
C 42.040181 134.505343 38.906005 133.207125 35.638438 133.207125 
C 32.37087 133.207125 29.236694 134.505343 26.926175 136.815862 
C 24.615656 139.126381 23.317438 142.260558 23.317438 145.528125 
C 23.317438 148.795692 24.615656 151.929869 26.926175 154.240388 
C 29.236694 156.550907 32.37087 157.849125 35.638438 157.849125 
z
" clip-path="url(#pb309ec2f73)" style="fill: #277e8e; stroke: #000000; stroke-linejoin: miter"/>
   </g>
   <g id="patch_52">
    <path d="M 63.018438 157.849125 
C 66.286005 157.849125 69.420181 156.550907 71.7307 154.240388 
C 74.041219 151.929869 75.339438 148.795692 75.339438 145.528125 
C 75.339438 142.260558 74.041219 139.126381 71.7307 136.815862 
C 69.420181 134.505343 66.286005 133.207125 63.018438 133.207125 
C 59.75087 133.207125 56.616694 134.505343 54.306175 136.815862 
C 51.995656 139.126381 50.697438 142.260558 50.697438 145.528125 
C 50.697438 148.795692 51.995656 151.929869 54.306175 154.240388 
C 56.616694 156.550907 59.75087 157.849125 63.018438 157.849125 
z
" clip-path="url(#pb309ec2f73)" style="fill: #277e8e; stroke: #000000; stroke-linejoin: miter"/>
   </g>
   <g id="patch_53">
    <path d="M 90.398438 157.849125 
C 93.666005 157.849125 96.800181 156.550907 99.1107 154.240388 
C 101.421219 151.929869 102.719437 148.795692 102.719437 145.528125 
C 102.719437 142.260558 101.421219 139.126381 99.1107 136.815862 
C 96.800181 134.505343 93.666005 133.207125 90.398438 133.207125 
C 87.13087 133.207125 83.996694 134.505343 81.686175 136.815862 
C 79.375656 139.126381 78.077438 142.260558 78.077438 145.528125 
C 78.077438 148.795692 79.375656 151.929869 81.686175 154.240388 
C 83.996694 156.550907 87.13087 157.849125 90.398438 157.849125 
z
" clip-path="url(#pb309ec2f73)" style="fill: #277e8e; stroke: #000000; stroke-linejoin: miter"/>
   </g>
   <g id="patch_54">
    <path d="M 117.778437 157.849125 
C 121.046005 157.849125 124.180181 156.550907 126.4907 154.240388 
C 128.801219 151.929869 130.099437 148.795692 130.099437 145.528125 
C 130.099437 142.260558 128.801219 139.126381 126.4907 136.815862 
C 124.180181 134.505343 121.046005 133.207125 117.778437 133.207125 
C 114.51087 133.207125 111.376694 134.505343 109.066175 136.815862 
C 106.755656 139.126381 105.457437 142.260558 105.457437 145.528125 
C 105.457437 148.795692 106.755656 151.929869 109.066175 154.240388 
C 111.376694 156.550907 114.51087 157.849125 117.778437 157.849125 
z
" clip-path="url(#pb309ec2f73)" style="fill: #277e8e; stroke: #000000; stroke-linejoin: miter"/>
   </g>
   <g id="patch_55">
    <path d="M 145.158437 157.849125 
C 148.426005 157.849125 151.560181 156.550907 153.8707 154.240388 
C 156.181219 151.929869 157.479437 148.795692 157.479437 145.528125 
C 157.479437 142.260558 156.181219 139.126381 153.8707 136.815862 
C 151.560181 134.505343 148.426005 133.207125 145.158437 133.207125 
C 141.89087 133.207125 138.756694 134.505343 136.446175 136.815862 
C 134.135656 139.126381 132.837437 142.260558 132.837437 145.528125 
C 132.837437 148.795692 134.135656 151.929869 136.446175 154.240388 
C 138.756694 156.550907 141.89087 157.849125 145.158437 157.849125 
z
" clip-path="url(#pb309ec2f73)" style="fill: #277e8e; stroke: #000000; stroke-linejoin: miter"/>
   </g>
   <g id="patch_56">
    <path d="M 172.538438 157.849125 
C 175.806005 157.849125 178.940181 156.550907 181.2507 154.240388 
C 183.561219 151.929869 184.859438 148.795692 184.859438 145.528125 
C 184.859438 142.260558 183.561219 139.126381 181.2507 136.815862 
C 178.940181 134.505343 175.806005 133.207125 172.538438 133.207125 
C 169.27087 133.207125 166.136694 134.505343 163.826175 136.815862 
C 161.515656 139.126381 160.217438 142.260558 160.217438 145.528125 
C 160.217438 148.795692 161.515656 151.929869 163.826175 154.240388 
C 166.136694 156.550907 169.27087 157.849125 172.538438 157.849125 
z
" clip-path="url(#pb309ec2f73)" style="fill: #277e8e; stroke: #000000; stroke-linejoin: miter"/>
   </g>
   <g id="patch_57">
    <path d="M 199.918438 157.849125 
C 203.186005 157.849125 206.320181 156.550907 208.6307 154.240388 
C 210.941219 151.929869 212.239438 148.795692 212.239438 145.528125 
C 212.239438 142.260558 210.941219 139.126381 208.6307 136.815862 
C 206.320181 134.505343 203.186005 133.207125 199.918438 133.207125 
C 196.65087 133.207125 193.516694 134.505343 191.206175 136.815862 
C 188.895656 139.126381 187.597438 142.260558 187.597438 145.528125 
C 187.597438 148.795692 188.895656 151.929869 191.206175 154.240388 
C 193.516694 156.550907 196.65087 157.849125 199.918438 157.849125 
z
" clip-path="url(#pb309ec2f73)" style="fill: #277e8e; stroke: #000000; stroke-linejoin: miter"/>
   </g>
   <g id="patch_58">
    <path d="M 227.298438 157.849125 
C 230.566005 157.849125 233.700181 156.550907 236.0107 154.240388 
C 238.321219 151.929869 239.619438 148.795692 239.619438 145.528125 
C 239.619438 142.260558 238.321219 139.126381 236.0107 136.815862 
C 233.700181 134.505343 230.566005 133.207125 227.298438 133.207125 
C 224.03087 133.207125 220.896694 134.505343 218.586175 136.815862 
C 216.275656 139.126381 214.977438 142.260558 214.977438 145.528125 
C 214.977438 148.795692 216.275656 151.929869 218.586175 154.240388 
C 220.896694 156.550907 224.03087 157.849125 227.298438 157.849125 
z
" clip-path="url(#pb309ec2f73)" style="fill: #277e8e; stroke: #000000; stroke-linejoin: miter"/>
   </g>
   <g id="patch_59">
    <path d="M 254.678438 157.849125 
C 257.946005 157.849125 261.080181 156.550907 263.3907 154.240388 
C 265.701219 151.929869 266.999437 148.795692 266.999437 145.528125 
C 266.999437 142.260558 265.701219 139.126381 263.3907 136.815862 
C 261.080181 134.505343 257.946005 133.207125 254.678438 133.207125 
C 251.41087 133.207125 248.276694 134.505343 245.966175 136.815862 
C 243.655656 139.126381 242.357438 142.260558 242.357438 145.528125 
C 242.357438 148.795692 243.655656 151.929869 245.966175 154.240388 
C 248.276694 156.550907 251.41087 157.849125 254.678438 157.849125 
z
" clip-path="url(#pb309ec2f73)" style="fill: #277e8e; stroke: #000000; stroke-linejoin: miter"/>
   </g>
   <g id="patch_60">
    <path d="M 282.058437 157.849125 
C 285.326005 157.849125 288.460181 156.550907 290.7707 154.240388 
C 293.081219 151.929869 294.379437 148.795692 294.379437 145.528125 
C 294.379437 142.260558 293.081219 139.126381 290.7707 136.815862 
C 288.460181 134.505343 285.326005 133.207125 282.058437 133.207125 
C 278.79087 133.207125 275.656694 134.505343 273.346175 136.815862 
C 271.035656 139.126381 269.737437 142.260558 269.737437 145.528125 
C 269.737437 148.795692 271.035656 151.929869 273.346175 154.240388 
C 275.656694 156.550907 278.79087 157.849125 282.058437 157.849125 
z
" clip-path="url(#pb309ec2f73)" style="fill: #277e8e; stroke: #000000; stroke-linejoin: miter"/>
   </g>
   <g id="patch_61">
    <path d="M 309.438438 157.849125 
C 312.706005 157.849125 315.840181 156.550907 318.1507 154.240388 
C 320.461219 151.929869 321.759438 148.795692 321.759438 145.528125 
C 321.759438 142.260558 320.461219 139.126381 318.1507 136.815862 
C 315.840181 134.505343 312.706005 133.207125 309.438438 133.207125 
C 306.17087 133.207125 303.036694 134.505343 300.726175 136.815862 
C 298.415656 139.126381 297.117437 142.260558 297.117437 145.528125 
C 297.117437 148.795692 298.415656 151.929869 300.726175 154.240388 
C 303.036694 156.550907 306.17087 157.849125 309.438438 157.849125 
z
" clip-path="url(#pb309ec2f73)" style="fill: #277e8e; stroke: #000000; stroke-linejoin: miter"/>
   </g>
   <g id="patch_62">
    <path d="M 336.818438 157.849125 
C 340.086005 157.849125 343.220181 156.550907 345.5307 154.240388 
C 347.841219 151.929869 349.139438 148.795692 349.139438 145.528125 
C 349.139438 142.260558 347.841219 139.126381 345.5307 136.815862 
C 343.220181 134.505343 340.086005 133.207125 336.818438 133.207125 
C 333.55087 133.207125 330.416694 134.505343 328.106175 136.815862 
C 325.795656 139.126381 324.497437 142.260558 324.497437 145.528125 
C 324.497437 148.795692 325.795656 151.929869 328.106175 154.240388 
C 330.416694 156.550907 333.55087 157.849125 336.818438 157.849125 
z
" clip-path="url(#pb309ec2f73)" style="fill: #277e8e; stroke: #000000; stroke-linejoin: miter"/>
   </g>
   <g id="patch_63">
    <path d="M 35.638438 185.229125 
C 38.906005 185.229125 42.040181 183.930907 44.3507 181.620388 
C 46.661219 179.309869 47.959437 176.175692 47.959437 172.908125 
C 47.959437 169.640558 46.661219 166.506381 44.3507 164.195862 
C 42.040181 161.885343 38.906005 160.587125 35.638438 160.587125 
C 32.37087 160.587125 29.236694 161.885343 26.926175 164.195862 
C 24.615656 166.506381 23.317438 169.640558 23.317438 172.908125 
C 23.317438 176.175692 24.615656 179.309869 26.926175 181.620388 
C 29.236694 183.930907 32.37087 185.229125 35.638438 185.229125 
z
" clip-path="url(#pb309ec2f73)" style="fill: #1fa188; stroke: #000000; stroke-linejoin: miter"/>
   </g>
   <g id="patch_64">
    <path d="M 63.018438 185.229125 
C 66.286005 185.229125 69.420181 183.930907 71.7307 181.620388 
C 74.041219 179.309869 75.339438 176.175692 75.339438 172.908125 
C 75.339438 169.640558 74.041219 166.506381 71.7307 164.195862 
C 69.420181 161.885343 66.286005 160.587125 63.018438 160.587125 
C 59.75087 160.587125 56.616694 161.885343 54.306175 164.195862 
C 51.995656 166.506381 50.697438 169.640558 50.697438 172.908125 
C 50.697438 176.175692 51.995656 179.309869 54.306175 181.620388 
C 56.616694 183.930907 59.75087 185.229125 63.018438 185.229125 
z
" clip-path="url(#pb309ec2f73)" style="fill: #1fa188; stroke: #000000; stroke-linejoin: miter"/>
   </g>
   <g id="patch_65">
    <path d="M 90.398438 185.229125 
C 93.666005 185.229125 96.800181 183.930907 99.1107 181.620388 
C 101.421219 179.309869 102.719437 176.175692 102.719437 172.908125 
C 102.719437 169.640558 101.421219 166.506381 99.1107 164.195862 
C 96.800181 161.885343 93.666005 160.587125 90.398438 160.587125 
C 87.13087 160.587125 83.996694 161.885343 81.686175 164.195862 
C 79.375656 166.506381 78.077438 169.640558 78.077438 172.908125 
C 78.077438 176.175692 79.375656 179.309869 81.686175 181.620388 
C 83.996694 183.930907 87.13087 185.229125 90.398438 185.229125 
z
" clip-path="url(#pb309ec2f73)" style="fill: #1fa188; stroke: #000000; stroke-linejoin: miter"/>
   </g>
   <g id="patch_66">
    <path d="M 117.778437 185.229125 
C 121.046005 185.229125 124.180181 183.930907 126.4907 181.620388 
C 128.801219 179.309869 130.099437 176.175692 130.099437 172.908125 
C 130.099437 169.640558 128.801219 166.506381 126.4907 164.195862 
C 124.180181 161.885343 121.046005 160.587125 117.778437 160.587125 
C 114.51087 160.587125 111.376694 161.885343 109.066175 164.195862 
C 106.755656 166.506381 105.457437 169.640558 105.457437 172.908125 
C 105.457437 176.175692 106.755656 179.309869 109.066175 181.620388 
C 111.376694 183.930907 114.51087 185.229125 117.778437 185.229125 
z
" clip-path="url(#pb309ec2f73)" style="fill: #1fa188; stroke: #000000; stroke-linejoin: miter"/>
   </g>
   <g id="patch_67">
    <path d="M 145.158437 185.229125 
C 148.426005 185.229125 151.560181 183.930907 153.8707 181.620388 
C 156.181219 179.309869 157.479437 176.175692 157.479437 172.908125 
C 157.479437 169.640558 156.181219 166.506381 153.8707 164.195862 
C 151.560181 161.885343 148.426005 160.587125 145.158437 160.587125 
C 141.89087 160.587125 138.756694 161.885343 136.446175 164.195862 
C 134.135656 166.506381 132.837437 169.640558 132.837437 172.908125 
C 132.837437 176.175692 134.135656 179.309869 136.446175 181.620388 
C 138.756694 183.930907 141.89087 185.229125 145.158437 185.229125 
z
" clip-path="url(#pb309ec2f73)" style="fill: #1fa188; stroke: #000000; stroke-linejoin: miter"/>
   </g>
   <g id="patch_68">
    <path d="M 172.538438 185.229125 
C 175.806005 185.229125 178.940181 183.930907 181.2507 181.620388 
C 183.561219 179.309869 184.859438 176.175692 184.859438 172.908125 
C 184.859438 169.640558 183.561219 166.506381 181.2507 164.195862 
C 178.940181 161.885343 175.806005 160.587125 172.538438 160.587125 
C 169.27087 160.587125 166.136694 161.885343 163.826175 164.195862 
C 161.515656 166.506381 160.217438 169.640558 160.217438 172.908125 
C 160.217438 176.175692 161.515656 179.309869 163.826175 181.620388 
C 166.136694 183.930907 169.27087 185.229125 172.538438 185.229125 
z
" clip-path="url(#pb309ec2f73)" style="fill: #1fa188; stroke: #000000; stroke-linejoin: miter"/>
   </g>
   <g id="patch_69">
    <path d="M 199.918438 185.229125 
C 203.186005 185.229125 206.320181 183.930907 208.6307 181.620388 
C 210.941219 179.309869 212.239438 176.175692 212.239438 172.908125 
C 212.239438 169.640558 210.941219 166.506381 208.6307 164.195862 
C 206.320181 161.885343 203.186005 160.587125 199.918438 160.587125 
C 196.65087 160.587125 193.516694 161.885343 191.206175 164.195862 
C 188.895656 166.506381 187.597438 169.640558 187.597438 172.908125 
C 187.597438 176.175692 188.895656 179.309869 191.206175 181.620388 
C 193.516694 183.930907 196.65087 185.229125 199.918438 185.229125 
z
" clip-path="url(#pb309ec2f73)" style="fill: #1fa188; stroke: #000000; stroke-linejoin: miter"/>
   </g>
   <g id="patch_70">
    <path d="M 227.298438 185.229125 
C 230.566005 185.229125 233.700181 183.930907 236.0107 181.620388 
C 238.321219 179.309869 239.619438 176.175692 239.619438 172.908125 
C 239.619438 169.640558 238.321219 166.506381 236.0107 164.195862 
C 233.700181 161.885343 230.566005 160.587125 227.298438 160.587125 
C 224.03087 160.587125 220.896694 161.885343 218.586175 164.195862 
C 216.275656 166.506381 214.977438 169.640558 214.977438 172.908125 
C 214.977438 176.175692 216.275656 179.309869 218.586175 181.620388 
C 220.896694 183.930907 224.03087 185.229125 227.298438 185.229125 
z
" clip-path="url(#pb309ec2f73)" style="fill: #1fa188; stroke: #000000; stroke-linejoin: miter"/>
   </g>
   <g id="patch_71">
    <path d="M 254.678438 185.229125 
C 257.946005 185.229125 261.080181 183.930907 263.3907 181.620388 
C 265.701219 179.309869 266.999437 176.175692 266.999437 172.908125 
C 266.999437 169.640558 265.701219 166.506381 263.3907 164.195862 
C 261.080181 161.885343 257.946005 160.587125 254.678438 160.587125 
C 251.41087 160.587125 248.276694 161.885343 245.966175 164.195862 
C 243.655656 166.506381 242.357438 169.640558 242.357438 172.908125 
C 242.357438 176.175692 243.655656 179.309869 245.966175 181.620388 
C 248.276694 183.930907 251.41087 185.229125 254.678438 185.229125 
z
" clip-path="url(#pb309ec2f73)" style="fill: #1fa188; stroke: #000000; stroke-linejoin: miter"/>
   </g>
   <g id="patch_72">
    <path d="M 282.058437 185.229125 
C 285.326005 185.229125 288.460181 183.930907 290.7707 181.620388 
C 293.081219 179.309869 294.379437 176.175692 294.379437 172.908125 
C 294.379437 169.640558 293.081219 166.506381 290.7707 164.195862 
C 288.460181 161.885343 285.326005 160.587125 282.058437 160.587125 
C 278.79087 160.587125 275.656694 161.885343 273.346175 164.195862 
C 271.035656 166.506381 269.737437 169.640558 269.737437 172.908125 
C 269.737437 176.175692 271.035656 179.309869 273.346175 181.620388 
C 275.656694 183.930907 278.79087 185.229125 282.058437 185.229125 
z
" clip-path="url(#pb309ec2f73)" style="fill: #1fa188; stroke: #000000; stroke-linejoin: miter"/>
   </g>
   <g id="patch_73">
    <path d="M 309.438438 185.229125 
C 312.706005 185.229125 315.840181 183.930907 318.1507 181.620388 
C 320.461219 179.309869 321.759438 176.175692 321.759438 172.908125 
C 321.759438 169.640558 320.461219 166.506381 318.1507 164.195862 
C 315.840181 161.885343 312.706005 160.587125 309.438438 160.587125 
C 306.17087 160.587125 303.036694 161.885343 300.726175 164.195862 
C 298.415656 166.506381 297.117437 169.640558 297.117437 172.908125 
C 297.117437 176.175692 298.415656 179.309869 300.726175 181.620388 
C 303.036694 183.930907 306.17087 185.229125 309.438438 185.229125 
z
" clip-path="url(#pb309ec2f73)" style="fill: #1fa188; stroke: #000000; stroke-linejoin: miter"/>
   </g>
   <g id="patch_74">
    <path d="M 336.818438 185.229125 
C 340.086005 185.229125 343.220181 183.930907 345.5307 181.620388 
C 347.841219 179.309869 349.139438 176.175692 349.139438 172.908125 
C 349.139438 169.640558 347.841219 166.506381 345.5307 164.195862 
C 343.220181 161.885343 340.086005 160.587125 336.818438 160.587125 
C 333.55087 160.587125 330.416694 161.885343 328.106175 164.195862 
C 325.795656 166.506381 324.497437 169.640558 324.497437 172.908125 
C 324.497437 176.175692 325.795656 179.309869 328.106175 181.620388 
C 330.416694 183.930907 333.55087 185.229125 336.818438 185.229125 
z
" clip-path="url(#pb309ec2f73)" style="fill: #1fa188; stroke: #000000; stroke-linejoin: miter"/>
   </g>
   <g id="patch_75">
    <path d="M 35.638438 212.609125 
C 38.906005 212.609125 42.040181 211.310907 44.3507 209.000388 
C 46.661219 206.689869 47.959437 203.555692 47.959437 200.288125 
C 47.959437 197.020558 46.661219 193.886381 44.3507 191.575862 
C 42.040181 189.265343 38.906005 187.967125 35.638438 187.967125 
C 32.37087 187.967125 29.236694 189.265343 26.926175 191.575862 
C 24.615656 193.886381 23.317438 197.020558 23.317438 200.288125 
C 23.317438 203.555692 24.615656 206.689869 26.926175 209.000388 
C 29.236694 211.310907 32.37087 212.609125 35.638438 212.609125 
z
" clip-path="url(#pb309ec2f73)" style="fill: #48c16e; stroke: #000000; stroke-linejoin: miter"/>
   </g>
   <g id="patch_76">
    <path d="M 63.018438 212.609125 
C 66.286005 212.609125 69.420181 211.310907 71.7307 209.000388 
C 74.041219 206.689869 75.339438 203.555692 75.339438 200.288125 
C 75.339438 197.020558 74.041219 193.886381 71.7307 191.575862 
C 69.420181 189.265343 66.286005 187.967125 63.018438 187.967125 
C 59.75087 187.967125 56.616694 189.265343 54.306175 191.575862 
C 51.995656 193.886381 50.697438 197.020558 50.697438 200.288125 
C 50.697438 203.555692 51.995656 206.689869 54.306175 209.000388 
C 56.616694 211.310907 59.75087 212.609125 63.018438 212.609125 
z
" clip-path="url(#pb309ec2f73)" style="fill: #48c16e; stroke: #000000; stroke-linejoin: miter"/>
   </g>
   <g id="patch_77">
    <path d="M 90.398438 212.609125 
C 93.666005 212.609125 96.800181 211.310907 99.1107 209.000388 
C 101.421219 206.689869 102.719437 203.555692 102.719437 200.288125 
C 102.719437 197.020558 101.421219 193.886381 99.1107 191.575862 
C 96.800181 189.265343 93.666005 187.967125 90.398438 187.967125 
C 87.13087 187.967125 83.996694 189.265343 81.686175 191.575862 
C 79.375656 193.886381 78.077438 197.020558 78.077438 200.288125 
C 78.077438 203.555692 79.375656 206.689869 81.686175 209.000388 
C 83.996694 211.310907 87.13087 212.609125 90.398438 212.609125 
z
" clip-path="url(#pb309ec2f73)" style="fill: #48c16e; stroke: #000000; stroke-linejoin: miter"/>
   </g>
   <g id="patch_78">
    <path d="M 117.778437 212.609125 
C 121.046005 212.609125 124.180181 211.310907 126.4907 209.000388 
C 128.801219 206.689869 130.099437 203.555692 130.099437 200.288125 
C 130.099437 197.020558 128.801219 193.886381 126.4907 191.575862 
C 124.180181 189.265343 121.046005 187.967125 117.778437 187.967125 
C 114.51087 187.967125 111.376694 189.265343 109.066175 191.575862 
C 106.755656 193.886381 105.457437 197.020558 105.457437 200.288125 
C 105.457437 203.555692 106.755656 206.689869 109.066175 209.000388 
C 111.376694 211.310907 114.51087 212.609125 117.778437 212.609125 
z
" clip-path="url(#pb309ec2f73)" style="fill: #48c16e; stroke: #000000; stroke-linejoin: miter"/>
   </g>
   <g id="patch_79">
    <path d="M 145.158437 212.609125 
C 148.426005 212.609125 151.560181 211.310907 153.8707 209.000388 
C 156.181219 206.689869 157.479437 203.555692 157.479437 200.288125 
C 157.479437 197.020558 156.181219 193.886381 153.8707 191.575862 
C 151.560181 189.265343 148.426005 187.967125 145.158437 187.967125 
C 141.89087 187.967125 138.756694 189.265343 136.446175 191.575862 
C 134.135656 193.886381 132.837437 197.020558 132.837437 200.288125 
C 132.837437 203.555692 134.135656 206.689869 136.446175 209.000388 
C 138.756694 211.310907 141.89087 212.609125 145.158437 212.609125 
z
" clip-path="url(#pb309ec2f73)" style="fill: #48c16e; stroke: #000000; stroke-linejoin: miter"/>
   </g>
   <g id="patch_80">
    <path d="M 172.538438 212.609125 
C 175.806005 212.609125 178.940181 211.310907 181.2507 209.000388 
C 183.561219 206.689869 184.859438 203.555692 184.859438 200.288125 
C 184.859438 197.020558 183.561219 193.886381 181.2507 191.575862 
C 178.940181 189.265343 175.806005 187.967125 172.538438 187.967125 
C 169.27087 187.967125 166.136694 189.265343 163.826175 191.575862 
C 161.515656 193.886381 160.217438 197.020558 160.217438 200.288125 
C 160.217438 203.555692 161.515656 206.689869 163.826175 209.000388 
C 166.136694 211.310907 169.27087 212.609125 172.538438 212.609125 
z
" clip-path="url(#pb309ec2f73)" style="fill: #48c16e; stroke: #000000; stroke-linejoin: miter"/>
   </g>
   <g id="patch_81">
    <path d="M 199.918438 212.609125 
C 203.186005 212.609125 206.320181 211.310907 208.6307 209.000388 
C 210.941219 206.689869 212.239438 203.555692 212.239438 200.288125 
C 212.239438 197.020558 210.941219 193.886381 208.6307 191.575862 
C 206.320181 189.265343 203.186005 187.967125 199.918438 187.967125 
C 196.65087 187.967125 193.516694 189.265343 191.206175 191.575862 
C 188.895656 193.886381 187.597438 197.020558 187.597438 200.288125 
C 187.597438 203.555692 188.895656 206.689869 191.206175 209.000388 
C 193.516694 211.310907 196.65087 212.609125 199.918438 212.609125 
z
" clip-path="url(#pb309ec2f73)" style="fill: #48c16e; stroke: #000000; stroke-linejoin: miter"/>
   </g>
   <g id="patch_82">
    <path d="M 227.298438 212.609125 
C 230.566005 212.609125 233.700181 211.310907 236.0107 209.000388 
C 238.321219 206.689869 239.619438 203.555692 239.619438 200.288125 
C 239.619438 197.020558 238.321219 193.886381 236.0107 191.575862 
C 233.700181 189.265343 230.566005 187.967125 227.298438 187.967125 
C 224.03087 187.967125 220.896694 189.265343 218.586175 191.575862 
C 216.275656 193.886381 214.977438 197.020558 214.977438 200.288125 
C 214.977438 203.555692 216.275656 206.689869 218.586175 209.000388 
C 220.896694 211.310907 224.03087 212.609125 227.298438 212.609125 
z
" clip-path="url(#pb309ec2f73)" style="fill: #48c16e; stroke: #000000; stroke-linejoin: miter"/>
   </g>
   <g id="patch_83">
    <path d="M 254.678438 212.609125 
C 257.946005 212.609125 261.080181 211.310907 263.3907 209.000388 
C 265.701219 206.689869 266.999437 203.555692 266.999437 200.288125 
C 266.999437 197.020558 265.701219 193.886381 263.3907 191.575862 
C 261.080181 189.265343 257.946005 187.967125 254.678438 187.967125 
C 251.41087 187.967125 248.276694 189.265343 245.966175 191.575862 
C 243.655656 193.886381 242.357438 197.020558 242.357438 200.288125 
C 242.357438 203.555692 243.655656 206.689869 245.966175 209.000388 
C 248.276694 211.310907 251.41087 212.609125 254.678438 212.609125 
z
" clip-path="url(#pb309ec2f73)" style="fill: #48c16e; stroke: #000000; stroke-linejoin: miter"/>
   </g>
   <g id="patch_84">
    <path d="M 282.058437 212.609125 
C 285.326005 212.609125 288.460181 211.310907 290.7707 209.000388 
C 293.081219 206.689869 294.379437 203.555692 294.379437 200.288125 
C 294.379437 197.020558 293.081219 193.886381 290.7707 191.575862 
C 288.460181 189.265343 285.326005 187.967125 282.058437 187.967125 
C 278.79087 187.967125 275.656694 189.265343 273.346175 191.575862 
C 271.035656 193.886381 269.737437 197.020558 269.737437 200.288125 
C 269.737437 203.555692 271.035656 206.689869 273.346175 209.000388 
C 275.656694 211.310907 278.79087 212.609125 282.058437 212.609125 
z
" clip-path="url(#pb309ec2f73)" style="fill: #48c16e; stroke: #000000; stroke-linejoin: miter"/>
   </g>
   <g id="patch_85">
    <path d="M 309.438438 212.609125 
C 312.706005 212.609125 315.840181 211.310907 318.1507 209.000388 
C 320.461219 206.689869 321.759438 203.555692 321.759438 200.288125 
C 321.759438 197.020558 320.461219 193.886381 318.1507 191.575862 
C 315.840181 189.265343 312.706005 187.967125 309.438438 187.967125 
C 306.17087 187.967125 303.036694 189.265343 300.726175 191.575862 
C 298.415656 193.886381 297.117437 197.020558 297.117437 200.288125 
C 297.117437 203.555692 298.415656 206.689869 300.726175 209.000388 
C 303.036694 211.310907 306.17087 212.609125 309.438438 212.609125 
z
" clip-path="url(#pb309ec2f73)" style="fill: #48c16e; stroke: #000000; stroke-linejoin: miter"/>
   </g>
   <g id="patch_86">
    <path d="M 336.818438 212.609125 
C 340.086005 212.609125 343.220181 211.310907 345.5307 209.000388 
C 347.841219 206.689869 349.139438 203.555692 349.139438 200.288125 
C 349.139438 197.020558 347.841219 193.886381 345.5307 191.575862 
C 343.220181 189.265343 340.086005 187.967125 336.818438 187.967125 
C 333.55087 187.967125 330.416694 189.265343 328.106175 191.575862 
C 325.795656 193.886381 324.497437 197.020558 324.497437 200.288125 
C 324.497437 203.555692 325.795656 206.689869 328.106175 209.000388 
C 330.416694 211.310907 333.55087 212.609125 336.818438 212.609125 
z
" clip-path="url(#pb309ec2f73)" style="fill: #48c16e; stroke: #000000; stroke-linejoin: miter"/>
   </g>
   <g id="patch_87">
    <path d="M 35.638438 239.989125 
C 38.906005 239.989125 42.040181 238.690907 44.3507 236.380388 
C 46.661219 234.069869 47.959437 230.935692 47.959437 227.668125 
C 47.959437 224.400558 46.661219 221.266381 44.3507 218.955862 
C 42.040181 216.645343 38.906005 215.347125 35.638438 215.347125 
C 32.37087 215.347125 29.236694 216.645343 26.926175 218.955862 
C 24.615656 221.266381 23.317438 224.400558 23.317438 227.668125 
C 23.317438 230.935692 24.615656 234.069869 26.926175 236.380388 
C 29.236694 238.690907 32.37087 239.989125 35.638438 239.989125 
z
" clip-path="url(#pb309ec2f73)" style="fill: #9bd93c; stroke: #000000; stroke-linejoin: miter"/>
   </g>
   <g id="patch_88">
    <path d="M 63.018438 239.989125 
C 66.286005 239.989125 69.420181 238.690907 71.7307 236.380388 
C 74.041219 234.069869 75.339438 230.935692 75.339438 227.668125 
C 75.339438 224.400558 74.041219 221.266381 71.7307 218.955862 
C 69.420181 216.645343 66.286005 215.347125 63.018438 215.347125 
C 59.75087 215.347125 56.616694 216.645343 54.306175 218.955862 
C 51.995656 221.266381 50.697438 224.400558 50.697438 227.668125 
C 50.697438 230.935692 51.995656 234.069869 54.306175 236.380388 
C 56.616694 238.690907 59.75087 239.989125 63.018438 239.989125 
z
" clip-path="url(#pb309ec2f73)" style="fill: #9bd93c; stroke: #000000; stroke-linejoin: miter"/>
   </g>
   <g id="patch_89">
    <path d="M 90.398438 239.989125 
C 93.666005 239.989125 96.800181 238.690907 99.1107 236.380388 
C 101.421219 234.069869 102.719437 230.935692 102.719437 227.668125 
C 102.719437 224.400558 101.421219 221.266381 99.1107 218.955862 
C 96.800181 216.645343 93.666005 215.347125 90.398438 215.347125 
C 87.13087 215.347125 83.996694 216.645343 81.686175 218.955862 
C 79.375656 221.266381 78.077438 224.400558 78.077438 227.668125 
C 78.077438 230.935692 79.375656 234.069869 81.686175 236.380388 
C 83.996694 238.690907 87.13087 239.989125 90.398438 239.989125 
z
" clip-path="url(#pb309ec2f73)" style="fill: #9bd93c; stroke: #000000; stroke-linejoin: miter"/>
   </g>
   <g id="patch_90">
    <path d="M 117.778437 239.989125 
C 121.046005 239.989125 124.180181 238.690907 126.4907 236.380388 
C 128.801219 234.069869 130.099437 230.935692 130.099437 227.668125 
C 130.099437 224.400558 128.801219 221.266381 126.4907 218.955862 
C 124.180181 216.645343 121.046005 215.347125 117.778437 215.347125 
C 114.51087 215.347125 111.376694 216.645343 109.066175 218.955862 
C 106.755656 221.266381 105.457437 224.400558 105.457437 227.668125 
C 105.457437 230.935692 106.755656 234.069869 109.066175 236.380388 
C 111.376694 238.690907 114.51087 239.989125 117.778437 239.989125 
z
" clip-path="url(#pb309ec2f73)" style="fill: #9bd93c; stroke: #000000; stroke-linejoin: miter"/>
   </g>
   <g id="patch_91">
    <path d="M 145.158437 239.989125 
C 148.426005 239.989125 151.560181 238.690907 153.8707 236.380388 
C 156.181219 234.069869 157.479437 230.935692 157.479437 227.668125 
C 157.479437 224.400558 156.181219 221.266381 153.8707 218.955862 
C 151.560181 216.645343 148.426005 215.347125 145.158437 215.347125 
C 141.89087 215.347125 138.756694 216.645343 136.446175 218.955862 
C 134.135656 221.266381 132.837437 224.400558 132.837437 227.668125 
C 132.837437 230.935692 134.135656 234.069869 136.446175 236.380388 
C 138.756694 238.690907 141.89087 239.989125 145.158437 239.989125 
z
" clip-path="url(#pb309ec2f73)" style="fill: #9bd93c; stroke: #000000; stroke-linejoin: miter"/>
   </g>
   <g id="patch_92">
    <path d="M 172.538438 239.989125 
C 175.806005 239.989125 178.940181 238.690907 181.2507 236.380388 
C 183.561219 234.069869 184.859438 230.935692 184.859438 227.668125 
C 184.859438 224.400558 183.561219 221.266381 181.2507 218.955862 
C 178.940181 216.645343 175.806005 215.347125 172.538438 215.347125 
C 169.27087 215.347125 166.136694 216.645343 163.826175 218.955862 
C 161.515656 221.266381 160.217438 224.400558 160.217438 227.668125 
C 160.217438 230.935692 161.515656 234.069869 163.826175 236.380388 
C 166.136694 238.690907 169.27087 239.989125 172.538438 239.989125 
z
" clip-path="url(#pb309ec2f73)" style="fill: #9bd93c; stroke: #000000; stroke-linejoin: miter"/>
   </g>
   <g id="patch_93">
    <path d="M 199.918438 239.989125 
C 203.186005 239.989125 206.320181 238.690907 208.6307 236.380388 
C 210.941219 234.069869 212.239438 230.935692 212.239438 227.668125 
C 212.239438 224.400558 210.941219 221.266381 208.6307 218.955862 
C 206.320181 216.645343 203.186005 215.347125 199.918438 215.347125 
C 196.65087 215.347125 193.516694 216.645343 191.206175 218.955862 
C 188.895656 221.266381 187.597438 224.400558 187.597438 227.668125 
C 187.597438 230.935692 188.895656 234.069869 191.206175 236.380388 
C 193.516694 238.690907 196.65087 239.989125 199.918438 239.989125 
z
" clip-path="url(#pb309ec2f73)" style="fill: #9bd93c; stroke: #000000; stroke-linejoin: miter"/>
   </g>
   <g id="patch_94">
    <path d="M 227.298438 239.989125 
C 230.566005 239.989125 233.700181 238.690907 236.0107 236.380388 
C 238.321219 234.069869 239.619438 230.935692 239.619438 227.668125 
C 239.619438 224.400558 238.321219 221.266381 236.0107 218.955862 
C 233.700181 216.645343 230.566005 215.347125 227.298438 215.347125 
C 224.03087 215.347125 220.896694 216.645343 218.586175 218.955862 
C 216.275656 221.266381 214.977438 224.400558 214.977438 227.668125 
C 214.977438 230.935692 216.275656 234.069869 218.586175 236.380388 
C 220.896694 238.690907 224.03087 239.989125 227.298438 239.989125 
z
" clip-path="url(#pb309ec2f73)" style="fill: #9bd93c; stroke: #000000; stroke-linejoin: miter"/>
   </g>
   <g id="patch_95">
    <path d="M 254.678438 239.989125 
C 257.946005 239.989125 261.080181 238.690907 263.3907 236.380388 
C 265.701219 234.069869 266.999437 230.935692 266.999437 227.668125 
C 266.999437 224.400558 265.701219 221.266381 263.3907 218.955862 
C 261.080181 216.645343 257.946005 215.347125 254.678438 215.347125 
C 251.41087 215.347125 248.276694 216.645343 245.966175 218.955862 
C 243.655656 221.266381 242.357438 224.400558 242.357438 227.668125 
C 242.357438 230.935692 243.655656 234.069869 245.966175 236.380388 
C 248.276694 238.690907 251.41087 239.989125 254.678438 239.989125 
z
" clip-path="url(#pb309ec2f73)" style="fill: #9bd93c; stroke: #000000; stroke-linejoin: miter"/>
   </g>
   <g id="patch_96">
    <path d="M 282.058437 239.989125 
C 285.326005 239.989125 288.460181 238.690907 290.7707 236.380388 
C 293.081219 234.069869 294.379437 230.935692 294.379437 227.668125 
C 294.379437 224.400558 293.081219 221.266381 290.7707 218.955862 
C 288.460181 216.645343 285.326005 215.347125 282.058437 215.347125 
C 278.79087 215.347125 275.656694 216.645343 273.346175 218.955862 
C 271.035656 221.266381 269.737437 224.400558 269.737437 227.668125 
C 269.737437 230.935692 271.035656 234.069869 273.346175 236.380388 
C 275.656694 238.690907 278.79087 239.989125 282.058437 239.989125 
z
" clip-path="url(#pb309ec2f73)" style="fill: #9bd93c; stroke: #000000; stroke-linejoin: miter"/>
   </g>
   <g id="patch_97">
    <path d="M 309.438438 239.989125 
C 312.706005 239.989125 315.840181 238.690907 318.1507 236.380388 
C 320.461219 234.069869 321.759438 230.935692 321.759438 227.668125 
C 321.759438 224.400558 320.461219 221.266381 318.1507 218.955862 
C 315.840181 216.645343 312.706005 215.347125 309.438438 215.347125 
C 306.17087 215.347125 303.036694 216.645343 300.726175 218.955862 
C 298.415656 221.266381 297.117437 224.400558 297.117437 227.668125 
C 297.117437 230.935692 298.415656 234.069869 300.726175 236.380388 
C 303.036694 238.690907 306.17087 239.989125 309.438438 239.989125 
z
" clip-path="url(#pb309ec2f73)" style="fill: #9bd93c; stroke: #000000; stroke-linejoin: miter"/>
   </g>
   <g id="patch_98">
    <path d="M 336.818438 239.989125 
C 340.086005 239.989125 343.220181 238.690907 345.5307 236.380388 
C 347.841219 234.069869 349.139438 230.935692 349.139438 227.668125 
C 349.139438 224.400558 347.841219 221.266381 345.5307 218.955862 
C 343.220181 216.645343 340.086005 215.347125 336.818438 215.347125 
C 333.55087 215.347125 330.416694 216.645343 328.106175 218.955862 
C 325.795656 221.266381 324.497437 224.400558 324.497437 227.668125 
C 324.497437 230.935692 325.795656 234.069869 328.106175 236.380388 
C 330.416694 238.690907 333.55087 239.989125 336.818438 239.989125 
z
" clip-path="url(#pb309ec2f73)" style="fill: #9bd93c; stroke: #000000; stroke-linejoin: miter"/>
   </g>
   <g id="matplotlib.axis_1">
    <g id="xtick_1">
     <g id="line2d_1">
      <defs>
       <path id="m6a43ae8f2b" d="M 0 0 
L 0 3.5 
" style="stroke: #000000; stroke-width: 0.8"/>
      </defs>
      <g>
       <use xlink:href="#m6a43ae8f2b" x="35.638438" y="241.358125" style="stroke: #000000; stroke-width: 0.8"/>
      </g>
     </g>
     <g id="text_1">
      <!-- 1 -->
      <g transform="translate(32.457188 255.955781) scale(0.1 -0.1)">
       <defs>
        <path id="DejaVuSans-14" d="M 794 531 
L 1825 531 
L 1825 4091 
L 703 3866 
L 703 4441 
L 1819 4666 
L 2450 4666 
L 2450 531 
L 3481 531 
L 3481 0 
L 794 0 
L 794 531 
z
" transform="scale(0.015625)"/>
       </defs>
       <use xlink:href="#DejaVuSans-14"/>
      </g>
     </g>
    </g>
    <g id="xtick_2">
     <g id="line2d_2">
      <g>
       <use xlink:href="#m6a43ae8f2b" x="63.018438" y="241.358125" style="stroke: #000000; stroke-width: 0.8"/>
      </g>
     </g>
     <g id="text_2">
      <!-- 2 -->
      <g transform="translate(59.837188 255.955781) scale(0.1 -0.1)">
       <defs>
        <path id="DejaVuSans-15" d="M 1228 531 
L 3431 531 
L 3431 0 
L 469 0 
L 469 531 
Q 828 903 1448 1529 
Q 2069 2156 2228 2338 
Q 2531 2678 2651 2914 
Q 2772 3150 2772 3378 
Q 2772 3750 2511 3984 
Q 2250 4219 1831 4219 
Q 1534 4219 1204 4116 
Q 875 4013 500 3803 
L 500 4441 
Q 881 4594 1212 4672 
Q 1544 4750 1819 4750 
Q 2544 4750 2975 4387 
Q 3406 4025 3406 3419 
Q 3406 3131 3298 2873 
Q 3191 2616 2906 2266 
Q 2828 2175 2409 1742 
Q 1991 1309 1228 531 
z
" transform="scale(0.015625)"/>
       </defs>
       <use xlink:href="#DejaVuSans-15"/>
      </g>
     </g>
    </g>
    <g id="xtick_3">
     <g id="line2d_3">
      <g>
       <use xlink:href="#m6a43ae8f2b" x="90.398438" y="241.358125" style="stroke: #000000; stroke-width: 0.8"/>
      </g>
     </g>
     <g id="text_3">
      <!-- 3 -->
      <g transform="translate(87.217187 255.955781) scale(0.1 -0.1)">
       <defs>
        <path id="DejaVuSans-16" d="M 2597 2516 
Q 3050 2419 3304 2112 
Q 3559 1806 3559 1356 
Q 3559 666 3084 287 
Q 2609 -91 1734 -91 
Q 1441 -91 1130 -33 
Q 819 25 488 141 
L 488 750 
Q 750 597 1062 519 
Q 1375 441 1716 441 
Q 2309 441 2620 675 
Q 2931 909 2931 1356 
Q 2931 1769 2642 2001 
Q 2353 2234 1838 2234 
L 1294 2234 
L 1294 2753 
L 1863 2753 
Q 2328 2753 2575 2939 
Q 2822 3125 2822 3475 
Q 2822 3834 2567 4026 
Q 2313 4219 1838 4219 
Q 1578 4219 1281 4162 
Q 984 4106 628 3988 
L 628 4550 
Q 988 4650 1302 4700 
Q 1616 4750 1894 4750 
Q 2613 4750 3031 4423 
Q 3450 4097 3450 3541 
Q 3450 3153 3228 2886 
Q 3006 2619 2597 2516 
z
" transform="scale(0.015625)"/>
       </defs>
       <use xlink:href="#DejaVuSans-16"/>
      </g>
     </g>
    </g>
    <g id="xtick_4">
     <g id="line2d_4">
      <g>
       <use xlink:href="#m6a43ae8f2b" x="117.778437" y="241.358125" style="stroke: #000000; stroke-width: 0.8"/>
      </g>
     </g>
     <g id="text_4">
      <!-- 4 -->
      <g transform="translate(114.597187 255.955781) scale(0.1 -0.1)">
       <defs>
        <path id="DejaVuSans-17" d="M 2419 4116 
L 825 1625 
L 2419 1625 
L 2419 4116 
z
M 2253 4666 
L 3047 4666 
L 3047 1625 
L 3713 1625 
L 3713 1100 
L 3047 1100 
L 3047 0 
L 2419 0 
L 2419 1100 
L 313 1100 
L 313 1709 
L 2253 4666 
z
" transform="scale(0.015625)"/>
       </defs>
       <use xlink:href="#DejaVuSans-17"/>
      </g>
     </g>
    </g>
    <g id="xtick_5">
     <g id="line2d_5">
      <g>
       <use xlink:href="#m6a43ae8f2b" x="145.158437" y="241.358125" style="stroke: #000000; stroke-width: 0.8"/>
      </g>
     </g>
     <g id="text_5">
      <!-- 5 -->
      <g transform="translate(141.977187 255.955781) scale(0.1 -0.1)">
       <defs>
        <path id="DejaVuSans-18" d="M 691 4666 
L 3169 4666 
L 3169 4134 
L 1269 4134 
L 1269 2991 
Q 1406 3038 1543 3061 
Q 1681 3084 1819 3084 
Q 2600 3084 3056 2656 
Q 3513 2228 3513 1497 
Q 3513 744 3044 326 
Q 2575 -91 1722 -91 
Q 1428 -91 1123 -41 
Q 819 9 494 109 
L 494 744 
Q 775 591 1075 516 
Q 1375 441 1709 441 
Q 2250 441 2565 725 
Q 2881 1009 2881 1497 
Q 2881 1984 2565 2268 
Q 2250 2553 1709 2553 
Q 1456 2553 1204 2497 
Q 953 2441 691 2322 
L 691 4666 
z
" transform="scale(0.015625)"/>
       </defs>
       <use xlink:href="#DejaVuSans-18"/>
      </g>
     </g>
    </g>
    <g id="xtick_6">
     <g id="line2d_6">
      <g>
       <use xlink:href="#m6a43ae8f2b" x="172.538438" y="241.358125" style="stroke: #000000; stroke-width: 0.8"/>
      </g>
     </g>
     <g id="text_6">
      <!-- 6 -->
      <g transform="translate(169.357188 255.955781) scale(0.1 -0.1)">
       <defs>
        <path id="DejaVuSans-19" d="M 2113 2584 
Q 1688 2584 1439 2293 
Q 1191 2003 1191 1497 
Q 1191 994 1439 701 
Q 1688 409 2113 409 
Q 2538 409 2786 701 
Q 3034 994 3034 1497 
Q 3034 2003 2786 2293 
Q 2538 2584 2113 2584 
z
M 3366 4563 
L 3366 3988 
Q 3128 4100 2886 4159 
Q 2644 4219 2406 4219 
Q 1781 4219 1451 3797 
Q 1122 3375 1075 2522 
Q 1259 2794 1537 2939 
Q 1816 3084 2150 3084 
Q 2853 3084 3261 2657 
Q 3669 2231 3669 1497 
Q 3669 778 3244 343 
Q 2819 -91 2113 -91 
Q 1303 -91 875 529 
Q 447 1150 447 2328 
Q 447 3434 972 4092 
Q 1497 4750 2381 4750 
Q 2619 4750 2861 4703 
Q 3103 4656 3366 4563 
z
" transform="scale(0.015625)"/>
       </defs>
       <use xlink:href="#DejaVuSans-19"/>
      </g>
     </g>
    </g>
    <g id="xtick_7">
     <g id="line2d_7">
      <g>
       <use xlink:href="#m6a43ae8f2b" x="199.918438" y="241.358125" style="stroke: #000000; stroke-width: 0.8"/>
      </g>
     </g>
     <g id="text_7">
      <!-- 7 -->
      <g transform="translate(196.737188 255.955781) scale(0.1 -0.1)">
       <defs>
        <path id="DejaVuSans-1a" d="M 525 4666 
L 3525 4666 
L 3525 4397 
L 1831 0 
L 1172 0 
L 2766 4134 
L 525 4134 
L 525 4666 
z
" transform="scale(0.015625)"/>
       </defs>
       <use xlink:href="#DejaVuSans-1a"/>
      </g>
     </g>
    </g>
    <g id="xtick_8">
     <g id="line2d_8">
      <g>
       <use xlink:href="#m6a43ae8f2b" x="227.298438" y="241.358125" style="stroke: #000000; stroke-width: 0.8"/>
      </g>
     </g>
     <g id="text_8">
      <!-- 8 -->
      <g transform="translate(224.117188 255.955781) scale(0.1 -0.1)">
       <defs>
        <path id="DejaVuSans-1b" d="M 2034 2216 
Q 1584 2216 1326 1975 
Q 1069 1734 1069 1313 
Q 1069 891 1326 650 
Q 1584 409 2034 409 
Q 2484 409 2743 651 
Q 3003 894 3003 1313 
Q 3003 1734 2745 1975 
Q 2488 2216 2034 2216 
z
M 1403 2484 
Q 997 2584 770 2862 
Q 544 3141 544 3541 
Q 544 4100 942 4425 
Q 1341 4750 2034 4750 
Q 2731 4750 3128 4425 
Q 3525 4100 3525 3541 
Q 3525 3141 3298 2862 
Q 3072 2584 2669 2484 
Q 3125 2378 3379 2068 
Q 3634 1759 3634 1313 
Q 3634 634 3220 271 
Q 2806 -91 2034 -91 
Q 1263 -91 848 271 
Q 434 634 434 1313 
Q 434 1759 690 2068 
Q 947 2378 1403 2484 
z
M 1172 3481 
Q 1172 3119 1398 2916 
Q 1625 2713 2034 2713 
Q 2441 2713 2670 2916 
Q 2900 3119 2900 3481 
Q 2900 3844 2670 4047 
Q 2441 4250 2034 4250 
Q 1625 4250 1398 4047 
Q 1172 3844 1172 3481 
z
" transform="scale(0.015625)"/>
       </defs>
       <use xlink:href="#DejaVuSans-1b"/>
      </g>
     </g>
    </g>
    <g id="xtick_9">
     <g id="line2d_9">
      <g>
       <use xlink:href="#m6a43ae8f2b" x="254.678438" y="241.358125" style="stroke: #000000; stroke-width: 0.8"/>
      </g>
     </g>
     <g id="text_9">
      <!-- 9 -->
      <g transform="translate(251.497187 255.955781) scale(0.1 -0.1)">
       <defs>
        <path id="DejaVuSans-1c" d="M 703 97 
L 703 672 
Q 941 559 1184 500 
Q 1428 441 1663 441 
Q 2288 441 2617 861 
Q 2947 1281 2994 2138 
Q 2813 1869 2534 1725 
Q 2256 1581 1919 1581 
Q 1219 1581 811 2004 
Q 403 2428 403 3163 
Q 403 3881 828 4315 
Q 1253 4750 1959 4750 
Q 2769 4750 3195 4129 
Q 3622 3509 3622 2328 
Q 3622 1225 3098 567 
Q 2575 -91 1691 -91 
Q 1453 -91 1209 -44 
Q 966 3 703 97 
z
M 1959 2075 
Q 2384 2075 2632 2365 
Q 2881 2656 2881 3163 
Q 2881 3666 2632 3958 
Q 2384 4250 1959 4250 
Q 1534 4250 1286 3958 
Q 1038 3666 1038 3163 
Q 1038 2656 1286 2365 
Q 1534 2075 1959 2075 
z
" transform="scale(0.015625)"/>
       </defs>
       <use xlink:href="#DejaVuSans-1c"/>
      </g>
     </g>
    </g>
    <g id="xtick_10">
     <g id="line2d_10">
      <g>
       <use xlink:href="#m6a43ae8f2b" x="282.058437" y="241.358125" style="stroke: #000000; stroke-width: 0.8"/>
      </g>
     </g>
     <g id="text_10">
      <!-- 10 -->
      <g transform="translate(275.695937 255.955781) scale(0.1 -0.1)">
       <defs>
        <path id="DejaVuSans-13" d="M 2034 4250 
Q 1547 4250 1301 3770 
Q 1056 3291 1056 2328 
Q 1056 1369 1301 889 
Q 1547 409 2034 409 
Q 2525 409 2770 889 
Q 3016 1369 3016 2328 
Q 3016 3291 2770 3770 
Q 2525 4250 2034 4250 
z
M 2034 4750 
Q 2819 4750 3233 4129 
Q 3647 3509 3647 2328 
Q 3647 1150 3233 529 
Q 2819 -91 2034 -91 
Q 1250 -91 836 529 
Q 422 1150 422 2328 
Q 422 3509 836 4129 
Q 1250 4750 2034 4750 
z
" transform="scale(0.015625)"/>
       </defs>
       <use xlink:href="#DejaVuSans-14"/>
       <use xlink:href="#DejaVuSans-13" transform="translate(63.625 0)"/>
      </g>
     </g>
    </g>
    <g id="xtick_11">
     <g id="line2d_11">
      <g>
       <use xlink:href="#m6a43ae8f2b" x="309.438438" y="241.358125" style="stroke: #000000; stroke-width: 0.8"/>
      </g>
     </g>
     <g id="text_11">
      <!-- 11 -->
      <g transform="translate(303.075938 255.955781) scale(0.1 -0.1)">
       <use xlink:href="#DejaVuSans-14"/>
       <use xlink:href="#DejaVuSans-14" transform="translate(63.625 0)"/>
      </g>
     </g>
    </g>
    <g id="xtick_12">
     <g id="line2d_12">
      <g>
       <use xlink:href="#m6a43ae8f2b" x="336.818438" y="241.358125" style="stroke: #000000; stroke-width: 0.8"/>
      </g>
     </g>
     <g id="text_12">
      <!-- 12 -->
      <g transform="translate(330.455938 255.955781) scale(0.1 -0.1)">
       <use xlink:href="#DejaVuSans-14"/>
       <use xlink:href="#DejaVuSans-15" transform="translate(63.625 0)"/>
      </g>
     </g>
    </g>
   </g>
   <g id="matplotlib.axis_2">
    <g id="ytick_1">
     <g id="line2d_13">
      <defs>
       <path id="mf4d822cfcc" d="M 0 0 
L -3.5 0 
" style="stroke: #000000; stroke-width: 0.8"/>
      </defs>
      <g>
       <use xlink:href="#mf4d822cfcc" x="21.948438" y="36.008125" style="stroke: #000000; stroke-width: 0.8"/>
      </g>
     </g>
     <g id="text_13">
      <!-- A -->
      <g transform="translate(8.107813 39.806953) scale(0.1 -0.1)">
       <defs>
        <path id="DejaVuSans-24" d="M 2188 4044 
L 1331 1722 
L 3047 1722 
L 2188 4044 
z
M 1831 4666 
L 2547 4666 
L 4325 0 
L 3669 0 
L 3244 1197 
L 1141 1197 
L 716 0 
L 50 0 
L 1831 4666 
z
" transform="scale(0.015625)"/>
       </defs>
       <use xlink:href="#DejaVuSans-24"/>
      </g>
     </g>
    </g>
    <g id="ytick_2">
     <g id="line2d_14">
      <g>
       <use xlink:href="#mf4d822cfcc" x="21.948438" y="63.388125" style="stroke: #000000; stroke-width: 0.8"/>
      </g>
     </g>
     <g id="text_14">
      <!-- B -->
      <g transform="translate(8.0875 67.186953) scale(0.1 -0.1)">
       <defs>
        <path id="DejaVuSans-25" d="M 1259 2228 
L 1259 519 
L 2272 519 
Q 2781 519 3026 730 
Q 3272 941 3272 1375 
Q 3272 1813 3026 2020 
Q 2781 2228 2272 2228 
L 1259 2228 
z
M 1259 4147 
L 1259 2741 
L 2194 2741 
Q 2656 2741 2882 2914 
Q 3109 3088 3109 3444 
Q 3109 3797 2882 3972 
Q 2656 4147 2194 4147 
L 1259 4147 
z
M 628 4666 
L 2241 4666 
Q 2963 4666 3353 4366 
Q 3744 4066 3744 3513 
Q 3744 3084 3544 2831 
Q 3344 2578 2956 2516 
Q 3422 2416 3680 2098 
Q 3938 1781 3938 1306 
Q 3938 681 3513 340 
Q 3088 0 2303 0 
L 628 0 
L 628 4666 
z
" transform="scale(0.015625)"/>
       </defs>
       <use xlink:href="#DejaVuSans-25"/>
      </g>
     </g>
    </g>
    <g id="ytick_3">
     <g id="line2d_15">
      <g>
       <use xlink:href="#mf4d822cfcc" x="21.948438" y="90.768125" style="stroke: #000000; stroke-width: 0.8"/>
      </g>
     </g>
     <g id="text_15">
      <!-- C -->
      <g transform="translate(7.965625 94.566953) scale(0.1 -0.1)">
       <defs>
        <path id="DejaVuSans-26" d="M 4122 4306 
L 4122 3641 
Q 3803 3938 3442 4084 
Q 3081 4231 2675 4231 
Q 1875 4231 1450 3742 
Q 1025 3253 1025 2328 
Q 1025 1406 1450 917 
Q 1875 428 2675 428 
Q 3081 428 3442 575 
Q 3803 722 4122 1019 
L 4122 359 
Q 3791 134 3420 21 
Q 3050 -91 2638 -91 
Q 1578 -91 968 557 
Q 359 1206 359 2328 
Q 359 3453 968 4101 
Q 1578 4750 2638 4750 
Q 3056 4750 3426 4639 
Q 3797 4528 4122 4306 
z
" transform="scale(0.015625)"/>
       </defs>
       <use xlink:href="#DejaVuSans-26"/>
      </g>
     </g>
    </g>
    <g id="ytick_4">
     <g id="line2d_16">
      <g>
       <use xlink:href="#mf4d822cfcc" x="21.948438" y="118.148125" style="stroke: #000000; stroke-width: 0.8"/>
      </g>
     </g>
     <g id="text_16">
      <!-- D -->
      <g transform="translate(7.248438 121.946953) scale(0.1 -0.1)">
       <defs>
        <path id="DejaVuSans-27" d="M 1259 4147 
L 1259 519 
L 2022 519 
Q 2988 519 3436 956 
Q 3884 1394 3884 2338 
Q 3884 3275 3436 3711 
Q 2988 4147 2022 4147 
L 1259 4147 
z
M 628 4666 
L 1925 4666 
Q 3281 4666 3915 4102 
Q 4550 3538 4550 2338 
Q 4550 1131 3912 565 
Q 3275 0 1925 0 
L 628 0 
L 628 4666 
z
" transform="scale(0.015625)"/>
       </defs>
       <use xlink:href="#DejaVuSans-27"/>
      </g>
     </g>
    </g>
    <g id="ytick_5">
     <g id="line2d_17">
      <g>
       <use xlink:href="#mf4d822cfcc" x="21.948438" y="145.528125" style="stroke: #000000; stroke-width: 0.8"/>
      </g>
     </g>
     <g id="text_17">
      <!-- E -->
      <g transform="translate(8.629688 149.326953) scale(0.1 -0.1)">
       <defs>
        <path id="DejaVuSans-28" d="M 628 4666 
L 3578 4666 
L 3578 4134 
L 1259 4134 
L 1259 2753 
L 3481 2753 
L 3481 2222 
L 1259 2222 
L 1259 531 
L 3634 531 
L 3634 0 
L 628 0 
L 628 4666 
z
" transform="scale(0.015625)"/>
       </defs>
       <use xlink:href="#DejaVuSans-28"/>
      </g>
     </g>
    </g>
    <g id="ytick_6">
     <g id="line2d_18">
      <g>
       <use xlink:href="#mf4d822cfcc" x="21.948438" y="172.908125" style="stroke: #000000; stroke-width: 0.8"/>
      </g>
     </g>
     <g id="text_18">
      <!-- F -->
      <g transform="translate(9.196875 176.706953) scale(0.1 -0.1)">
       <defs>
        <path id="DejaVuSans-29" d="M 628 4666 
L 3309 4666 
L 3309 4134 
L 1259 4134 
L 1259 2759 
L 3109 2759 
L 3109 2228 
L 1259 2228 
L 1259 0 
L 628 0 
L 628 4666 
z
" transform="scale(0.015625)"/>
       </defs>
       <use xlink:href="#DejaVuSans-29"/>
      </g>
     </g>
    </g>
    <g id="ytick_7">
     <g id="line2d_19">
      <g>
       <use xlink:href="#mf4d822cfcc" x="21.948438" y="200.288125" style="stroke: #000000; stroke-width: 0.8"/>
      </g>
     </g>
     <g id="text_19">
      <!-- G -->
      <g transform="translate(7.2 204.086953) scale(0.1 -0.1)">
       <defs>
        <path id="DejaVuSans-2a" d="M 3809 666 
L 3809 1919 
L 2778 1919 
L 2778 2438 
L 4434 2438 
L 4434 434 
Q 4069 175 3628 42 
Q 3188 -91 2688 -91 
Q 1594 -91 976 548 
Q 359 1188 359 2328 
Q 359 3472 976 4111 
Q 1594 4750 2688 4750 
Q 3144 4750 3555 4637 
Q 3966 4525 4313 4306 
L 4313 3634 
Q 3963 3931 3569 4081 
Q 3175 4231 2741 4231 
Q 1884 4231 1454 3753 
Q 1025 3275 1025 2328 
Q 1025 1384 1454 906 
Q 1884 428 2741 428 
Q 3075 428 3337 486 
Q 3600 544 3809 666 
z
" transform="scale(0.015625)"/>
       </defs>
       <use xlink:href="#DejaVuSans-2a"/>
      </g>
     </g>
    </g>
    <g id="ytick_8">
     <g id="line2d_20">
      <g>
       <use xlink:href="#mf4d822cfcc" x="21.948438" y="227.668125" style="stroke: #000000; stroke-width: 0.8"/>
      </g>
     </g>
     <g id="text_20">
      <!-- H -->
      <g transform="translate(7.428125 231.466953) scale(0.1 -0.1)">
       <defs>
        <path id="DejaVuSans-2b" d="M 628 4666 
L 1259 4666 
L 1259 2753 
L 3553 2753 
L 3553 4666 
L 4184 4666 
L 4184 0 
L 3553 0 
L 3553 2222 
L 1259 2222 
L 1259 0 
L 628 0 
L 628 4666 
z
" transform="scale(0.015625)"/>
       </defs>
       <use xlink:href="#DejaVuSans-2b"/>
      </g>
     </g>
    </g>
   </g>
   <g id="patch_99">
    <path d="M 21.948438 241.358125 
L 21.948438 22.318125 
" style="fill: none; stroke: #000000; stroke-width: 0.8; stroke-linejoin: miter; stroke-linecap: square"/>
   </g>
   <g id="patch_100">
    <path d="M 350.508438 241.358125 
L 350.508438 22.318125 
" style="fill: none; stroke: #000000; stroke-width: 0.8; stroke-linejoin: miter; stroke-linecap: square"/>
   </g>
   <g id="patch_101">
    <path d="M 21.948438 241.358125 
L 350.508438 241.358125 
" style="fill: none; stroke: #000000; stroke-width: 0.8; stroke-linejoin: miter; stroke-linecap: square"/>
   </g>
   <g id="patch_102">
    <path d="M 21.948438 22.318125 
L 350.508438 22.318125 
" style="fill: none; stroke: #000000; stroke-width: 0.8; stroke-linejoin: miter; stroke-linecap: square"/>
   </g>
   <g id="text_21">
    <!-- dox -->
    <g transform="translate(175.381563 16.318125) scale(0.12 -0.12)">
     <defs>
      <path id="DejaVuSans-47" d="M 2906 2969 
L 2906 4863 
L 3481 4863 
L 3481 0 
L 2906 0 
L 2906 525 
Q 2725 213 2448 61 
Q 2172 -91 1784 -91 
Q 1150 -91 751 415 
Q 353 922 353 1747 
Q 353 2572 751 3078 
Q 1150 3584 1784 3584 
Q 2172 3584 2448 3432 
Q 2725 3281 2906 2969 
z
M 947 1747 
Q 947 1113 1208 752 
Q 1469 391 1925 391 
Q 2381 391 2643 752 
Q 2906 1113 2906 1747 
Q 2906 2381 2643 2742 
Q 2381 3103 1925 3103 
Q 1469 3103 1208 2742 
Q 947 2381 947 1747 
z
" transform="scale(0.015625)"/>
      <path id="DejaVuSans-52" d="M 1959 3097 
Q 1497 3097 1228 2736 
Q 959 2375 959 1747 
Q 959 1119 1226 758 
Q 1494 397 1959 397 
Q 2419 397 2687 759 
Q 2956 1122 2956 1747 
Q 2956 2369 2687 2733 
Q 2419 3097 1959 3097 
z
M 1959 3584 
Q 2709 3584 3137 3096 
Q 3566 2609 3566 1747 
Q 3566 888 3137 398 
Q 2709 -91 1959 -91 
Q 1206 -91 779 398 
Q 353 888 353 1747 
Q 353 2609 779 3096 
Q 1206 3584 1959 3584 
z
" transform="scale(0.015625)"/>
      <path id="DejaVuSans-5b" d="M 3513 3500 
L 2247 1797 
L 3578 0 
L 2900 0 
L 1881 1375 
L 863 0 
L 184 0 
L 1544 1831 
L 300 3500 
L 978 3500 
L 1906 2253 
L 2834 3500 
L 3513 3500 
z
" transform="scale(0.015625)"/>
     </defs>
     <use xlink:href="#DejaVuSans-47"/>
     <use xlink:href="#DejaVuSans-52" transform="translate(63.484375 0)"/>
     <use xlink:href="#DejaVuSans-5b" transform="translate(121.59375 0)"/>
    </g>
   </g>
   <g id="legend_1">
    <g id="patch_103">
     <path d="M 357.508438 193.34125 
L 443.586563 193.34125 
Q 445.586563 193.34125 445.586563 191.34125 
L 445.586563 72.335 
Q 445.586563 70.335 443.586563 70.335 
L 357.508438 70.335 
Q 355.508438 70.335 355.508438 72.335 
L 355.508438 191.34125 
Q 355.508438 193.34125 357.508438 193.34125 
z
" style="fill: #ffffff; opacity: 0.8; stroke: #cccccc; stroke-linejoin: miter"/>
    </g>
    <g id="patch_104">
     <path d="M 359.508438 81.933437 
L 379.508438 81.933437 
L 379.508438 74.933437 
L 359.508438 74.933437 
z
" style="stroke: #000000; stroke-linejoin: miter"/>
    </g>
    <g id="text_22">
     <!-- 0 -->
     <g transform="translate(387.508438 81.933437) scale(0.1 -0.1)">
      <use xlink:href="#DejaVuSans-13"/>
     </g>
    </g>
    <g id="patch_105">
     <path d="M 359.508438 96.934219 
L 379.508438 96.934219 
L 379.508438 89.934219 
L 359.508438 89.934219 
z
" style="fill: #440154; stroke: #000000; stroke-linejoin: miter"/>
    </g>
    <g id="text_23">
     <!-- 8.2e-05 -->
     <g transform="translate(387.508438 96.934219) scale(0.1 -0.1)">
      <defs>
       <path id="DejaVuSans-11" d="M 684 794 
L 1344 794 
L 1344 0 
L 684 0 
L 684 794 
z
" transform="scale(0.015625)"/>
       <path id="DejaVuSans-48" d="M 3597 1894 
L 3597 1613 
L 953 1613 
Q 991 1019 1311 708 
Q 1631 397 2203 397 
Q 2534 397 2845 478 
Q 3156 559 3463 722 
L 3463 178 
Q 3153 47 2828 -22 
Q 2503 -91 2169 -91 
Q 1331 -91 842 396 
Q 353 884 353 1716 
Q 353 2575 817 3079 
Q 1281 3584 2069 3584 
Q 2775 3584 3186 3129 
Q 3597 2675 3597 1894 
z
M 3022 2063 
Q 3016 2534 2758 2815 
Q 2500 3097 2075 3097 
Q 1594 3097 1305 2825 
Q 1016 2553 972 2059 
L 3022 2063 
z
" transform="scale(0.015625)"/>
       <path id="DejaVuSans-10" d="M 313 2009 
L 1997 2009 
L 1997 1497 
L 313 1497 
L 313 2009 
z
" transform="scale(0.015625)"/>
      </defs>
      <use xlink:href="#DejaVuSans-1b"/>
      <use xlink:href="#DejaVuSans-11" transform="translate(63.625 0)"/>
      <use xlink:href="#DejaVuSans-15" transform="translate(95.40625 0)"/>
      <use xlink:href="#DejaVuSans-48" transform="translate(159.03125 0)"/>
      <use xlink:href="#DejaVuSans-10" transform="translate(220.5625 0)"/>
      <use xlink:href="#DejaVuSans-13" transform="translate(256.640625 0)"/>
      <use xlink:href="#DejaVuSans-18" transform="translate(320.265625 0)"/>
     </g>
    </g>
    <g id="patch_106">
     <path d="M 359.508438 111.935 
L 379.508438 111.935 
L 379.508438 104.935 
L 359.508438 104.935 
z
" style="fill: #46327e; stroke: #000000; stroke-linejoin: miter"/>
    </g>
    <g id="text_24">
     <!-- 0.0003248 -->
     <g transform="translate(387.508438 111.935) scale(0.1 -0.1)">
      <use xlink:href="#DejaVuSans-13"/>
      <use xlink:href="#DejaVuSans-11" transform="translate(63.625 0)"/>
      <use xlink:href="#DejaVuSans-13" transform="translate(95.40625 0)"/>
      <use xlink:href="#DejaVuSans-13" transform="translate(159.03125 0)"/>
      <use xlink:href="#DejaVuSans-13" transform="translate(222.65625 0)"/>
      <use xlink:href="#DejaVuSans-16" transform="translate(286.28125 0)"/>
      <use xlink:href="#DejaVuSans-15" transform="translate(349.90625 0)"/>
      <use xlink:href="#DejaVuSans-17" transform="translate(413.53125 0)"/>
      <use xlink:href="#DejaVuSans-1b" transform="translate(477.15625 0)"/>
     </g>
    </g>
    <g id="patch_107">
     <path d="M 359.508438 126.935781 
L 379.508438 126.935781 
L 379.508438 119.935781 
L 359.508438 119.935781 
z
" style="fill: #375b8d; stroke: #000000; stroke-linejoin: miter"/>
    </g>
    <g id="text_25">
     <!-- 0.0012864 -->
     <g transform="translate(387.508438 126.935781) scale(0.1 -0.1)">
      <use xlink:href="#DejaVuSans-13"/>
      <use xlink:href="#DejaVuSans-11" transform="translate(63.625 0)"/>
      <use xlink:href="#DejaVuSans-13" transform="translate(95.40625 0)"/>
      <use xlink:href="#DejaVuSans-13" transform="translate(159.03125 0)"/>
      <use xlink:href="#DejaVuSans-14" transform="translate(222.65625 0)"/>
      <use xlink:href="#DejaVuSans-15" transform="translate(286.28125 0)"/>
      <use xlink:href="#DejaVuSans-1b" transform="translate(349.90625 0)"/>
      <use xlink:href="#DejaVuSans-19" transform="translate(413.53125 0)"/>
      <use xlink:href="#DejaVuSans-17" transform="translate(477.15625 0)"/>
     </g>
    </g>
    <g id="patch_108">
     <path d="M 359.508438 141.936562 
L 379.508438 141.936562 
L 379.508438 134.936562 
L 359.508438 134.936562 
z
" style="fill: #277e8e; stroke: #000000; stroke-linejoin: miter"/>
    </g>
    <g id="text_26">
     <!-- 0.005094 -->
     <g transform="translate(387.508438 141.936562) scale(0.1 -0.1)">
      <use xlink:href="#DejaVuSans-13"/>
      <use xlink:href="#DejaVuSans-11" transform="translate(63.625 0)"/>
      <use xlink:href="#DejaVuSans-13" transform="translate(95.40625 0)"/>
      <use xlink:href="#DejaVuSans-13" transform="translate(159.03125 0)"/>
      <use xlink:href="#DejaVuSans-18" transform="translate(222.65625 0)"/>
      <use xlink:href="#DejaVuSans-13" transform="translate(286.28125 0)"/>
      <use xlink:href="#DejaVuSans-1c" transform="translate(349.90625 0)"/>
      <use xlink:href="#DejaVuSans-17" transform="translate(413.53125 0)"/>
     </g>
    </g>
    <g id="patch_109">
     <path d="M 359.508438 156.937344 
L 379.508438 156.937344 
L 379.508438 149.937344 
L 359.508438 149.937344 
z
" style="fill: #1fa188; stroke: #000000; stroke-linejoin: miter"/>
    </g>
    <g id="text_27">
     <!-- 0.0201723 -->
     <g transform="translate(387.508438 156.937344) scale(0.1 -0.1)">
      <use xlink:href="#DejaVuSans-13"/>
      <use xlink:href="#DejaVuSans-11" transform="translate(63.625 0)"/>
      <use xlink:href="#DejaVuSans-13" transform="translate(95.40625 0)"/>
      <use xlink:href="#DejaVuSans-15" transform="translate(159.03125 0)"/>
      <use xlink:href="#DejaVuSans-13" transform="translate(222.65625 0)"/>
      <use xlink:href="#DejaVuSans-14" transform="translate(286.28125 0)"/>
      <use xlink:href="#DejaVuSans-1a" transform="translate(349.90625 0)"/>
      <use xlink:href="#DejaVuSans-15" transform="translate(413.53125 0)"/>
      <use xlink:href="#DejaVuSans-16" transform="translate(477.15625 0)"/>
     </g>
    </g>
    <g id="patch_110">
     <path d="M 359.508438 171.938125 
L 379.508438 171.938125 
L 379.508438 164.938125 
L 359.508438 164.938125 
z
" style="fill: #48c16e; stroke: #000000; stroke-linejoin: miter"/>
    </g>
    <g id="text_28">
     <!-- 0.0798822 -->
     <g transform="translate(387.508438 171.938125) scale(0.1 -0.1)">
      <use xlink:href="#DejaVuSans-13"/>
      <use xlink:href="#DejaVuSans-11" transform="translate(63.625 0)"/>
      <use xlink:href="#DejaVuSans-13" transform="translate(95.40625 0)"/>
      <use xlink:href="#DejaVuSans-1a" transform="translate(159.03125 0)"/>
      <use xlink:href="#DejaVuSans-1c" transform="translate(222.65625 0)"/>
      <use xlink:href="#DejaVuSans-1b" transform="translate(286.28125 0)"/>
      <use xlink:href="#DejaVuSans-1b" transform="translate(349.90625 0)"/>
      <use xlink:href="#DejaVuSans-15" transform="translate(413.53125 0)"/>
      <use xlink:href="#DejaVuSans-15" transform="translate(477.15625 0)"/>
     </g>
    </g>
    <g id="patch_111">
     <path d="M 359.508438 186.938906 
L 379.508438 186.938906 
L 379.508438 179.938906 
L 359.508438 179.938906 
z
" style="fill: #9bd93c; stroke: #000000; stroke-linejoin: miter"/>
    </g>
    <g id="text_29">
     <!-- 0.316333 -->
     <g transform="translate(387.508438 186.938906) scale(0.1 -0.1)">
      <use xlink:href="#DejaVuSans-13"/>
      <use xlink:href="#DejaVuSans-11" transform="translate(63.625 0)"/>
      <use xlink:href="#DejaVuSans-16" transform="translate(95.40625 0)"/>
      <use xlink:href="#DejaVuSans-14" transform="translate(159.03125 0)"/>
      <use xlink:href="#DejaVuSans-19" transform="translate(222.65625 0)"/>
      <use xlink:href="#DejaVuSans-16" transform="translate(286.28125 0)"/>
      <use xlink:href="#DejaVuSans-16" transform="translate(349.90625 0)"/>
      <use xlink:href="#DejaVuSans-16" transform="translate(413.53125 0)"/>
     </g>
    </g>
   </g>
  </g>
 </g>
 <defs>
  <clipPath id="pb309ec2f73">
   <rect x="21.948438" y="22.318125" width="328.56" height="219.04"/>
  </clipPath>
 </defs>
</svg>
