<?xml version="1.0" encoding="utf-8" standalone="no"?>
<!DOCTYPE svg PUBLIC "-//W3C//DTD SVG 1.1//EN"
  "http://www.w3.org/Graphics/SVG/1.1/DTD/svg11.dtd">
<svg xmlns:xlink="http://www.w3.org/1999/xlink" width="453.519062pt" height="296.61625pt" viewBox="0 0 453.519062 296.61625" xmlns="http://www.w3.org/2000/svg" version="1.1">
 <metadata>
  <rdf:RDF xmlns:dc="http://purl.org/dc/elements/1.1/" xmlns:cc="http://creativecommons.org/ns#" xmlns:rdf="http://www.w3.org/1999/02/22-rdf-syntax-ns#">
   <cc:Work>
    <dc:type rdf:resource="http://purl.org/dc/dcmitype/StillImage"/>
    <dc:date>2026-02-26T17:11:34+00:00</dc:date>
    <dc:format>image/svg+xml</dc:format>
    <dc:creator>
     <cc:Agent>
      <dc:title>Matplotlib v3.7.5, https://matplotlib.org/</dc:title>
     </cc:Agent>
    </dc:creator>
   </cc:Work>
  </rdf:RDF>
 </metadata>
 <defs>
  <style type="text/css">*{stroke-linejoin: round; stroke-linecap: butt}</style>
 </defs>
 <g id="figure_1">
  <g id="patch_1">
   <path d="M 0 296.61625 
L 453.519062 296.61625 
L 453.519062 -0 
L 0 -0 
z
" style="fill: #ffffff"/>
  </g>
  <g id="axes_1">
   <g id="patch_2">
    <path d="M 21.060938 272.738125 
L 396.690937 272.738125 
L 396.690937 22.318125 
L 21.060938 22.318125 
z
" style="fill: #ffffff"/>
   </g>
   <g id="patch_3">
    <path d="M 83.665937 141.267625 
C 98.608674 141.267625 112.941406 135.330813 123.507516 124.764703 
C 134.073626 114.198593 140.010437 99.865861 140.010437 84.923125 
C 140.010437 69.980389 134.073626 55.647657 123.507516 45.081547 
C 112.941406 34.515437 98.608674 28.578625 83.665937 28.578625 
C 68.723201 28.578625 54.390469 34.515437 43.824359 45.081547 
C 33.258249 55.647657 27.321437 69.980389 27.321437 84.923125 
C 27.321437 99.865861 33.258249 114.198593 43.824359 124.764703 
C 54.390469 135.330813 68.723201 141.267625 83.665937 141.267625 
z
" clip-path="url(#p6083c8e424)" style="fill: #8000ff; stroke: #000000; stroke-linejoin: miter"/>
   </g>
   <g id="patch_4">
    <path d="M 208.875937 141.267625 
C 223.818674 141.267625 238.151406 135.330813 248.717516 124.764703 
C 259.283626 114.198593 265.220437 99.865861 265.220437 84.923125 
C 265.220437 69.980389 259.283626 55.647657 248.717516 45.081547 
C 238.151406 34.515437 223.818674 28.578625 208.875937 28.578625 
C 193.933201 28.578625 179.600469 34.515437 169.034359 45.081547 
C 158.468249 55.647657 152.531437 69.980389 152.531437 84.923125 
C 152.531437 99.865861 158.468249 114.198593 169.034359 124.764703 
C 179.600469 135.330813 193.933201 141.267625 208.875937 141.267625 
z
" clip-path="url(#p6083c8e424)" style="fill: #2c7ef7; stroke: #000000; stroke-linejoin: miter"/>
   </g>
   <g id="patch_5">
    <path d="M 334.085937 141.267625 
C 349.028674 141.267625 363.361406 135.330813 373.927516 124.764703 
C 384.493626 114.198593 390.430437 99.865861 390.430437 84.923125 
C 390.430437 69.980389 384.493626 55.647657 373.927516 45.081547 
C 363.361406 34.515437 349.028674 28.578625 334.085937 28.578625 
C 319.143201 28.578625 304.810469 34.515437 294.244359 45.081547 
C 283.678249 55.647657 277.741437 69.980389 277.741437 84.923125 
C 277.741437 99.865861 283.678249 114.198593 294.244359 124.764703 
C 304.810469 135.330813 319.143201 141.267625 334.085937 141.267625 
z
" clip-path="url(#p6083c8e424)" style="fill: #2adddd; stroke: #000000; stroke-linejoin: miter"/>
   </g>
   <g id="patch_6">
    <path d="M 83.665937 266.477625 
C 98.608674 266.477625 112.941406 260.540813 123.507516 249.974703 
C 134.073626 239.408593 140.010437 225.075861 140.010437 210.133125 
C 140.010437 195.190389 134.073626 180.857657 123.507516 170.291547 
C 112.941406 159.725437 98.608674 153.788625 83.665937 153.788625 
C 68.723201 153.788625 54.390469 159.725437 43.824359 170.291547 
C 33.258249 180.857657 27.321437 195.190389 27.321437 210.133125 
C 27.321437 225.075861 33.258249 239.408593 43.824359 249.974703 
C 54.390469 260.540813 68.723201 266.477625 83.665937 266.477625 
z
" clip-path="url(#p6083c8e424)" style="fill: #80ffb4; stroke: #000000; stroke-linejoin: miter"/>
   </g>
   <g id="patch_7">
    <path d="M 208.875937 266.477625 
C 223.818674 266.477625 238.151406 260.540813 248.717516 249.974703 
C 259.283626 239.408593 265.220437 225.075861 265.220437 210.133125 
C 265.220437 195.190389 259.283626 180.857657 248.717516 170.291547 
C 238.151406 159.725437 223.818674 153.788625 208.875937 153.788625 
C 193.933201 153.788625 179.600469 159.725437 169.034359 170.291547 
C 158.468249 180.857657 152.531437 195.190389 152.531437 210.133125 
C 152.531437 225.075861 158.468249 239.408593 169.034359 249.974703 
C 179.600469 260.540813 193.933201 266.477625 208.875937 266.477625 
z
" clip-path="url(#p6083c8e424)" style="fill: #d4dd80; stroke: #000000; stroke-linejoin: miter"/>
   </g>
   <g id="patch_8">
    <path d="M 334.085937 266.477625 
C 349.028674 266.477625 363.361406 260.540813 373.927516 249.974703 
C 384.493626 239.408593 390.430437 225.075861 390.430437 210.133125 
C 390.430437 195.190389 384.493626 180.857657 373.927516 170.291547 
C 363.361406 159.725437 349.028674 153.788625 334.085937 153.788625 
C 319.143201 153.788625 304.810469 159.725437 294.244359 170.291547 
C 283.678249 180.857657 277.741437 195.190389 277.741437 210.133125 
C 277.741437 225.075861 283.678249 239.408593 294.244359 249.974703 
C 304.810469 260.540813 319.143201 266.477625 334.085937 266.477625 
z
" clip-path="url(#p6083c8e424)" style="fill: #ff7e41; stroke: #000000; stroke-linejoin: miter"/>
   </g>
   <g id="matplotlib.axis_1">
    <g id="xtick_1">
     <g id="line2d_1">
      <defs>
       <path id="mfced94ec8c" d="M 0 0 
L 0 3.5 
" style="stroke: #000000; stroke-width: 0.8"/>
      </defs>
      <g>
       <use xlink:href="#mfced94ec8c" x="83.665937" y="272.738125" style="stroke: #000000; stroke-width: 0.8"/>
      </g>
     </g>
     <g id="text_1">
      <!-- 1 -->
      <g transform="translate(80.484687 287.336563) scale(0.1 -0.1)">
       <defs>
        <path id="DejaVuSans-31" d="M 794 531 
L 1825 531 
L 1825 4091 
L 703 3866 
L 703 4441 
L 1819 4666 
L 2450 4666 
L 2450 531 
L 3481 531 
L 3481 0 
L 794 0 
L 794 531 
z
" transform="scale(0.015625)"/>
       </defs>
       <use xlink:href="#DejaVuSans-31"/>
      </g>
     </g>
    </g>
    <g id="xtick_2">
     <g id="line2d_2">
      <g>
       <use xlink:href="#mfced94ec8c" x="208.875937" y="272.738125" style="stroke: #000000; stroke-width: 0.8"/>
      </g>
     </g>
     <g id="text_2">
      <!-- 2 -->
      <g transform="translate(205.694687 287.336563) scale(0.1 -0.1)">
       <defs>
        <path id="DejaVuSans-32" d="M 1228 531 
L 3431 531 
L 3431 0 
L 469 0 
L 469 531 
Q 828 903 1448 1529 
Q 2069 2156 2228 2338 
Q 2531 2678 2651 2914 
Q 2772 3150 2772 3378 
Q 2772 3750 2511 3984 
Q 2250 4219 1831 4219 
Q 1534 4219 1204 4116 
Q 875 4013 500 3803 
L 500 4441 
Q 881 4594 1212 4672 
Q 1544 4750 1819 4750 
Q 2544 4750 2975 4387 
Q 3406 4025 3406 3419 
Q 3406 3131 3298 2873 
Q 3191 2616 2906 2266 
Q 2828 2175 2409 1742 
Q 1991 1309 1228 531 
z
" transform="scale(0.015625)"/>
       </defs>
       <use xlink:href="#DejaVuSans-32"/>
      </g>
     </g>
    </g>
    <g id="xtick_3">
     <g id="line2d_3">
      <g>
       <use xlink:href="#mfced94ec8c" x="334.085937" y="272.738125" style="stroke: #000000; stroke-width: 0.8"/>
      </g>
     </g>
     <g id="text_3">
      <!-- 3 -->
      <g transform="translate(330.904687 287.336563) scale(0.1 -0.1)">
       <defs>
        <path id="DejaVuSans-33" d="M 2597 2516 
Q 3050 2419 3304 2112 
Q 3559 1806 3559 1356 
Q 3559 666 3084 287 
Q 2609 -91 1734 -91 
Q 1441 -91 1130 -33 
Q 819 25 488 141 
L 488 750 
Q 750 597 1062 519 
Q 1375 441 1716 441 
Q 2309 441 2620 675 
Q 2931 909 2931 1356 
Q 2931 1769 2642 2001 
Q 2353 2234 1838 2234 
L 1294 2234 
L 1294 2753 
L 1863 2753 
Q 2328 2753 2575 2939 
Q 2822 3125 2822 3475 
Q 2822 3834 2567 4026 
Q 2313 4219 1838 4219 
Q 1578 4219 1281 4162 
Q 984 4106 628 3988 
L 628 4550 
Q 988 4650 1302 4700 
Q 1616 4750 1894 4750 
Q 2613 4750 3031 4423 
Q 3450 4097 3450 3541 
Q 3450 3153 3228 2886 
Q 3006 2619 2597 2516 
z
" transform="scale(0.015625)"/>
       </defs>
       <use xlink:href="#DejaVuSans-33"/>
      </g>
     </g>
    </g>
   </g>
   <g id="matplotlib.axis_2">
    <g id="ytick_1">
     <g id="line2d_4">
      <defs>
       <path id="m067d22a7d5" d="M 0 0 
L -3.5 0 
" style="stroke: #000000; stroke-width: 0.8"/>
      </defs>
      <g>
       <use xlink:href="#m067d22a7d5" x="21.060938" y="84.923125" style="stroke: #000000; stroke-width: 0.8"/>
      </g>
     </g>
     <g id="text_4">
      <!-- A -->
      <g transform="translate(7.220313 88.722344) scale(0.1 -0.1)">
       <defs>
        <path id="DejaVuSans-41" d="M 2188 4044 
L 1331 1722 
L 3047 1722 
L 2188 4044 
z
M 1831 4666 
L 2547 4666 
L 4325 0 
L 3669 0 
L 3244 1197 
L 1141 1197 
L 716 0 
L 50 0 
L 1831 4666 
z
" transform="scale(0.015625)"/>
       </defs>
       <use xlink:href="#DejaVuSans-41"/>
      </g>
     </g>
    </g>
    <g id="ytick_2">
     <g id="line2d_5">
      <g>
       <use xlink:href="#m067d22a7d5" x="21.060938" y="210.133125" style="stroke: #000000; stroke-width: 0.8"/>
      </g>
     </g>
     <g id="text_5">
      <!-- B -->
      <g transform="translate(7.2 213.932344) scale(0.1 -0.1)">
       <defs>
        <path id="DejaVuSans-42" d="M 1259 2228 
L 1259 519 
L 2272 519 
Q 2781 519 3026 730 
Q 3272 941 3272 1375 
Q 3272 1813 3026 2020 
Q 2781 2228 2272 2228 
L 1259 2228 
z
M 1259 4147 
L 1259 2741 
L 2194 2741 
Q 2656 2741 2882 2914 
Q 3109 3088 3109 3444 
Q 3109 3797 2882 3972 
Q 2656 4147 2194 4147 
L 1259 4147 
z
M 628 4666 
L 2241 4666 
Q 2963 4666 3353 4366 
Q 3744 4066 3744 3513 
Q 3744 3084 3544 2831 
Q 3344 2578 2956 2516 
Q 3422 2416 3680 2098 
Q 3938 1781 3938 1306 
Q 3938 681 3513 340 
Q 3088 0 2303 0 
L 628 0 
L 628 4666 
z
" transform="scale(0.015625)"/>
       </defs>
       <use xlink:href="#DejaVuSans-42"/>
      </g>
     </g>
    </g>
   </g>
   <g id="patch_9">
    <path d="M 21.060938 272.738125 
L 21.060938 22.318125 
" style="fill: none; stroke: #000000; stroke-width: 0.8; stroke-linejoin: miter; stroke-linecap: square"/>
   </g>
   <g id="patch_10">
    <path d="M 396.690937 272.738125 
L 396.690937 22.318125 
" style="fill: none; stroke: #000000; stroke-width: 0.8; stroke-linejoin: miter; stroke-linecap: square"/>
   </g>
   <g id="patch_11">
    <path d="M 21.060937 272.738125 
L 396.690937 272.738125 
" style="fill: none; stroke: #000000; stroke-width: 0.8; stroke-linejoin: miter; stroke-linecap: square"/>
   </g>
   <g id="patch_12">
    <path d="M 21.060937 22.318125 
L 396.690937 22.318125 
" style="fill: none; stroke: #000000; stroke-width: 0.8; stroke-linejoin: miter; stroke-linecap: square"/>
   </g>
   <g id="text_6">
    <!-- virus -->
    <g transform="translate(194.263125 16.318125) scale(0.12 -0.12)">
     <defs>
      <path id="DejaVuSans-76" d="M 191 3500 
L 800 3500 
L 1894 563 
L 2988 3500 
L 3597 3500 
L 2284 0 
L 1503 0 
L 191 3500 
z
" transform="scale(0.015625)"/>
      <path id="DejaVuSans-69" d="M 603 3500 
L 1178 3500 
L 1178 0 
L 603 0 
L 603 3500 
z
M 603 4863 
L 1178 4863 
L 1178 4134 
L 603 4134 
L 603 4863 
z
" transform="scale(0.015625)"/>
      <path id="DejaVuSans-72" d="M 2631 2963 
Q 2534 3019 2420 3045 
Q 2306 3072 2169 3072 
Q 1681 3072 1420 2755 
Q 1159 2438 1159 1844 
L 1159 0 
L 581 0 
L 581 3500 
L 1159 3500 
L 1159 2956 
Q 1341 3275 1631 3429 
Q 1922 3584 2338 3584 
Q 2397 3584 2469 3576 
Q 2541 3569 2628 3553 
L 2631 2963 
z
" transform="scale(0.015625)"/>
      <path id="DejaVuSans-75" d="M 544 1381 
L 544 3500 
L 1119 3500 
L 1119 1403 
Q 1119 906 1312 657 
Q 1506 409 1894 409 
Q 2359 409 2629 706 
Q 2900 1003 2900 1516 
L 2900 3500 
L 3475 3500 
L 3475 0 
L 2900 0 
L 2900 538 
Q 2691 219 2414 64 
Q 2138 -91 1772 -91 
Q 1169 -91 856 284 
Q 544 659 544 1381 
z
M 1991 3584 
L 1991 3584 
z
" transform="scale(0.015625)"/>
      <path id="DejaVuSans-73" d="M 2834 3397 
L 2834 2853 
Q 2591 2978 2328 3040 
Q 2066 3103 1784 3103 
Q 1356 3103 1142 2972 
Q 928 2841 928 2578 
Q 928 2378 1081 2264 
Q 1234 2150 1697 2047 
L 1894 2003 
Q 2506 1872 2764 1633 
Q 3022 1394 3022 966 
Q 3022 478 2636 193 
Q 2250 -91 1575 -91 
Q 1294 -91 989 -36 
Q 684 19 347 128 
L 347 722 
Q 666 556 975 473 
Q 1284 391 1588 391 
Q 1994 391 2212 530 
Q 2431 669 2431 922 
Q 2431 1156 2273 1281 
Q 2116 1406 1581 1522 
L 1381 1569 
Q 847 1681 609 1914 
Q 372 2147 372 2553 
Q 372 3047 722 3315 
Q 1072 3584 1716 3584 
Q 2034 3584 2315 3537 
Q 2597 3491 2834 3397 
z
" transform="scale(0.015625)"/>
     </defs>
     <use xlink:href="#DejaVuSans-76"/>
     <use xlink:href="#DejaVuSans-69" x="59.179688"/>
     <use xlink:href="#DejaVuSans-72" x="86.962891"/>
     <use xlink:href="#DejaVuSans-75" x="128.076172"/>
     <use xlink:href="#DejaVuSans-73" x="191.455078"/>
    </g>
   </g>
   <g id="legend_1">
    <g id="patch_13">
     <path d="M 403.690937 193.0625 
L 444.319062 193.0625 
Q 446.319062 193.0625 446.319062 191.0625 
L 446.319062 103.99375 
Q 446.319062 101.99375 444.319062 101.99375 
L 403.690937 101.99375 
Q 401.690937 101.99375 401.690937 103.99375 
L 401.690937 191.0625 
Q 401.690937 193.0625 403.690937 193.0625 
z
" style="fill: #ffffff; opacity: 0.8; stroke: #cccccc; stroke-linejoin: miter"/>
    </g>
    <g id="patch_14">
     <path d="M 405.690937 113.592188 
L 425.690937 113.592188 
L 425.690937 106.592188 
L 405.690937 106.592188 
z
" style="fill: #8000ff; stroke: #000000; stroke-linejoin: miter"/>
    </g>
    <g id="text_7">
     <!-- N -->
     <g transform="translate(433.690937 113.592188) scale(0.1 -0.1)">
      <defs>
       <path id="DejaVuSans-4e" d="M 628 4666 
L 1478 4666 
L 3547 763 
L 3547 4666 
L 4159 4666 
L 4159 0 
L 3309 0 
L 1241 3903 
L 1241 0 
L 628 0 
L 628 4666 
z
" transform="scale(0.015625)"/>
      </defs>
      <use xlink:href="#DejaVuSans-4e"/>
     </g>
    </g>
    <g id="patch_15">
     <path d="M 405.690937 128.270313 
L 425.690937 128.270313 
L 425.690937 121.270313 
L 405.690937 121.270313 
z
" style="fill: #2c7ef7; stroke: #000000; stroke-linejoin: miter"/>
    </g>
    <g id="text_8">
     <!-- I -->
     <g transform="translate(433.690937 128.270313) scale(0.1 -0.1)">
      <defs>
       <path id="DejaVuSans-49" d="M 628 4666 
L 1259 4666 
L 1259 0 
L 628 0 
L 628 4666 
z
" transform="scale(0.015625)"/>
      </defs>
      <use xlink:href="#DejaVuSans-49"/>
     </g>
    </g>
    <g id="patch_16">
     <path d="M 405.690937 142.948438 
L 425.690937 142.948438 
L 425.690937 135.948438 
L 405.690937 135.948438 
z
" style="fill: #2adddd; stroke: #000000; stroke-linejoin: miter"/>
    </g>
    <g id="text_9">
     <!-- L -->
     <g transform="translate(433.690937 142.948438) scale(0.1 -0.1)">
      <defs>
       <path id="DejaVuSans-4c" d="M 628 4666 
L 1259 4666 
L 1259 531 
L 3531 531 
L 3531 0 
L 628 0 
L 628 4666 
z
" transform="scale(0.015625)"/>
      </defs>
      <use xlink:href="#DejaVuSans-4c"/>
     </g>
    </g>
    <g id="patch_17">
     <path d="M 405.690937 157.626563 
L 425.690937 157.626563 
L 425.690937 150.626563 
L 405.690937 150.626563 
z
" style="fill: #80ffb4; stroke: #000000; stroke-linejoin: miter"/>
    </g>
    <g id="text_10">
     <!-- B -->
     <g transform="translate(433.690937 157.626563) scale(0.1 -0.1)">
      <use xlink:href="#DejaVuSans-42"/>
     </g>
    </g>
    <g id="patch_18">
     <path d="M 405.690937 172.304688 
L 425.690937 172.304688 
L 425.690937 165.304688 
L 405.690937 165.304688 
z
" style="fill: #d4dd80; stroke: #000000; stroke-linejoin: miter"/>
    </g>
    <g id="text_11">
     <!-- A -->
     <g transform="translate(433.690937 172.304688) scale(0.1 -0.1)">
      <use xlink:href="#DejaVuSans-41"/>
     </g>
    </g>
    <g id="patch_19">
     <path d="M 405.690937 186.982813 
L 425.690937 186.982813 
L 425.690937 179.982813 
L 405.690937 179.982813 
z
" style="fill: #ff7e41; stroke: #000000; stroke-linejoin: miter"/>
    </g>
    <g id="text_12">
     <!-- M -->
     <g transform="translate(433.690937 186.982813) scale(0.1 -0.1)">
      <defs>
       <path id="DejaVuSans-4d" d="M 628 4666 
L 1569 4666 
L 2759 1491 
L 3956 4666 
L 4897 4666 
L 4897 0 
L 4281 0 
L 4281 4097 
L 3078 897 
L 2444 897 
L 1241 4097 
L 1241 0 
L 628 0 
L 628 4666 
z
" transform="scale(0.015625)"/>
      </defs>
      <use xlink:href="#DejaVuSans-4d"/>
     </g>
    </g>
   </g>
  </g>
 </g>
 <defs>
  <clipPath id="p6083c8e424">
   <rect x="21.060938" y="22.318125" width="375.63" height="250.42"/>
  </clipPath>
 </defs>
</svg>
